G04 #@! TF.GenerationSoftware,KiCad,Pcbnew,(5.1.5)-2*
G04 #@! TF.CreationDate,2020-02-20T00:29:19+01:00*
G04 #@! TF.ProjectId,DC,44432e6b-6963-4616-945f-706362585858,V1.0*
G04 #@! TF.SameCoordinates,PXe4e1c0PY2160ec0*
G04 #@! TF.FileFunction,Copper,L2,Bot*
G04 #@! TF.FilePolarity,Positive*
%FSLAX46Y46*%
G04 Gerber Fmt 4.6, Leading zero omitted, Abs format (unit mm)*
G04 Created by KiCad (PCBNEW (5.1.5)-2) date 2020-02-20 00:29:19*
%MOMM*%
%LPD*%
G04 APERTURE LIST*
%ADD10C,6.400000*%
%ADD11C,1.500000*%
%ADD12R,1.500000X1.500000*%
%ADD13O,1.600000X1.600000*%
%ADD14R,1.600000X1.600000*%
%ADD15C,1.700000*%
%ADD16C,2.000000*%
%ADD17C,1.600000*%
%ADD18C,2.600000*%
%ADD19O,1.700000X1.700000*%
%ADD20R,1.700000X1.700000*%
%ADD21C,3.000000*%
%ADD22O,3.200000X3.200000*%
%ADD23R,3.200000X3.200000*%
%ADD24R,2.000000X2.000000*%
%ADD25C,0.254000*%
G04 APERTURE END LIST*
D10*
X76000000Y10000000D03*
X4000000Y10000000D03*
D11*
X77710000Y15950000D03*
D12*
X75210000Y15950000D03*
D13*
X43801000Y10235000D03*
X51421000Y17855000D03*
X43801000Y12775000D03*
X51421000Y15315000D03*
X43801000Y15315000D03*
X51421000Y12775000D03*
X43801000Y17855000D03*
D14*
X51421000Y10235000D03*
D15*
X11035000Y14045000D03*
X15035000Y14045000D03*
X19035000Y14045000D03*
D16*
X21035000Y18295000D03*
X9035000Y18295000D03*
X9035000Y12295000D03*
X21035000Y12295000D03*
D13*
X71995000Y17855000D03*
D17*
X61835000Y17855000D03*
D18*
X59930000Y5155000D03*
X54930000Y5155000D03*
D19*
X75805000Y2615000D03*
D20*
X73265000Y2615000D03*
D19*
X2081500Y17855000D03*
D20*
X4621500Y17855000D03*
D21*
X8220000Y5155000D03*
X30720000Y5155000D03*
D22*
X35165000Y3250000D03*
D23*
X50405000Y3250000D03*
D16*
X66915000Y7140000D03*
D24*
X66915000Y12140000D03*
D17*
X54930000Y12775000D03*
X59930000Y12775000D03*
X38340000Y17775000D03*
X38340000Y12775000D03*
X31990000Y14775000D03*
D14*
X31990000Y12775000D03*
D25*
G36*
X7765013Y19337252D02*
G01*
X7586082Y19069463D01*
X7462832Y18771912D01*
X7400000Y18456033D01*
X7400000Y18133967D01*
X7462832Y17818088D01*
X7586082Y17520537D01*
X7765013Y17252748D01*
X7992748Y17025013D01*
X8260537Y16846082D01*
X8558088Y16722832D01*
X8873967Y16660000D01*
X9196033Y16660000D01*
X9511912Y16722832D01*
X9809463Y16846082D01*
X10077252Y17025013D01*
X10304987Y17252748D01*
X10483918Y17520537D01*
X10607168Y17818088D01*
X10670000Y18133967D01*
X10670000Y18456033D01*
X10607168Y18771912D01*
X10483918Y19069463D01*
X10304987Y19337252D01*
X10302239Y19340000D01*
X19767761Y19340000D01*
X19765013Y19337252D01*
X19586082Y19069463D01*
X19462832Y18771912D01*
X19400000Y18456033D01*
X19400000Y18133967D01*
X19462832Y17818088D01*
X19586082Y17520537D01*
X19765013Y17252748D01*
X19992748Y17025013D01*
X20260537Y16846082D01*
X20558088Y16722832D01*
X20873967Y16660000D01*
X21196033Y16660000D01*
X21511912Y16722832D01*
X21655475Y16782298D01*
X37526903Y16782298D01*
X37598486Y16538329D01*
X37853996Y16417429D01*
X38128184Y16348700D01*
X38410512Y16334783D01*
X38690130Y16376213D01*
X38956292Y16471397D01*
X39081514Y16538329D01*
X39153097Y16782298D01*
X38340000Y17595395D01*
X37526903Y16782298D01*
X21655475Y16782298D01*
X21809463Y16846082D01*
X22077252Y17025013D01*
X22304987Y17252748D01*
X22483918Y17520537D01*
X22560113Y17704488D01*
X36899783Y17704488D01*
X36941213Y17424870D01*
X37036397Y17158708D01*
X37103329Y17033486D01*
X37347298Y16961903D01*
X38160395Y17775000D01*
X38519605Y17775000D01*
X39332702Y16961903D01*
X39576671Y17033486D01*
X39697571Y17288996D01*
X39766300Y17563184D01*
X39780217Y17845512D01*
X39757871Y17996335D01*
X42366000Y17996335D01*
X42366000Y17713665D01*
X42421147Y17436426D01*
X42529320Y17175273D01*
X42686363Y16940241D01*
X42886241Y16740363D01*
X43121273Y16583320D01*
X43131865Y16578933D01*
X42945869Y16467385D01*
X42737481Y16278414D01*
X42569963Y16052420D01*
X42449754Y15798087D01*
X42409096Y15664039D01*
X42531085Y15442000D01*
X43674000Y15442000D01*
X43674000Y15462000D01*
X43928000Y15462000D01*
X43928000Y15442000D01*
X45070915Y15442000D01*
X45192904Y15664039D01*
X45152246Y15798087D01*
X45032037Y16052420D01*
X44864519Y16278414D01*
X44656131Y16467385D01*
X44470135Y16578933D01*
X44480727Y16583320D01*
X44715759Y16740363D01*
X44915637Y16940241D01*
X45072680Y17175273D01*
X45180853Y17436426D01*
X45236000Y17713665D01*
X45236000Y17996335D01*
X45180853Y18273574D01*
X45072680Y18534727D01*
X44915637Y18769759D01*
X44715759Y18969637D01*
X44480727Y19126680D01*
X44219574Y19234853D01*
X43942335Y19290000D01*
X43659665Y19290000D01*
X43382426Y19234853D01*
X43121273Y19126680D01*
X42886241Y18969637D01*
X42686363Y18769759D01*
X42529320Y18534727D01*
X42421147Y18273574D01*
X42366000Y17996335D01*
X39757871Y17996335D01*
X39738787Y18125130D01*
X39643603Y18391292D01*
X39576671Y18516514D01*
X39332702Y18588097D01*
X38519605Y17775000D01*
X38160395Y17775000D01*
X37347298Y18588097D01*
X37103329Y18516514D01*
X36982429Y18261004D01*
X36913700Y17986816D01*
X36899783Y17704488D01*
X22560113Y17704488D01*
X22607168Y17818088D01*
X22670000Y18133967D01*
X22670000Y18456033D01*
X22608006Y18767702D01*
X37526903Y18767702D01*
X38340000Y17954605D01*
X39153097Y18767702D01*
X39081514Y19011671D01*
X38826004Y19132571D01*
X38551816Y19201300D01*
X38269488Y19215217D01*
X37989870Y19173787D01*
X37723708Y19078603D01*
X37598486Y19011671D01*
X37526903Y18767702D01*
X22608006Y18767702D01*
X22607168Y18771912D01*
X22483918Y19069463D01*
X22304987Y19337252D01*
X22302239Y19340000D01*
X79340000Y19340000D01*
X79340000Y11904154D01*
X78978839Y12444670D01*
X78444670Y12978839D01*
X77816554Y13398533D01*
X77118628Y13687623D01*
X76377715Y13835000D01*
X75622285Y13835000D01*
X74881372Y13687623D01*
X74183446Y13398533D01*
X73555330Y12978839D01*
X73021161Y12444670D01*
X72601467Y11816554D01*
X72312377Y11118628D01*
X72165000Y10377715D01*
X72165000Y9622285D01*
X72312377Y8881372D01*
X72601467Y8183446D01*
X73021161Y7555330D01*
X73555330Y7021161D01*
X74183446Y6601467D01*
X74881372Y6312377D01*
X75622285Y6165000D01*
X76377715Y6165000D01*
X77118628Y6312377D01*
X77816554Y6601467D01*
X78444670Y7021161D01*
X78978839Y7555330D01*
X79340001Y8095846D01*
X79340001Y660000D01*
X660000Y660000D01*
X660000Y2775497D01*
X32980950Y2775497D01*
X33085407Y2431139D01*
X33285118Y2041165D01*
X33557071Y1697646D01*
X33890816Y1413783D01*
X34273527Y1200484D01*
X34690497Y1065947D01*
X35038000Y1177358D01*
X35038000Y3123000D01*
X35292000Y3123000D01*
X35292000Y1177358D01*
X35639503Y1065947D01*
X36056473Y1200484D01*
X36439184Y1413783D01*
X36772929Y1697646D01*
X37044882Y2041165D01*
X37244593Y2431139D01*
X37349050Y2775497D01*
X37237362Y3123000D01*
X35292000Y3123000D01*
X35038000Y3123000D01*
X33092638Y3123000D01*
X32980950Y2775497D01*
X660000Y2775497D01*
X660000Y5365279D01*
X6085000Y5365279D01*
X6085000Y4944721D01*
X6167047Y4532244D01*
X6327988Y4143698D01*
X6561637Y3794017D01*
X6859017Y3496637D01*
X7208698Y3262988D01*
X7597244Y3102047D01*
X8009721Y3020000D01*
X8430279Y3020000D01*
X8842756Y3102047D01*
X9231302Y3262988D01*
X9580983Y3496637D01*
X9878363Y3794017D01*
X10112012Y4143698D01*
X10272953Y4532244D01*
X10355000Y4944721D01*
X10355000Y5350505D01*
X17485000Y5350505D01*
X17485000Y4959495D01*
X17561282Y4575997D01*
X17710915Y4214750D01*
X17928149Y3889636D01*
X18204636Y3613149D01*
X18529750Y3395915D01*
X18890997Y3246282D01*
X19274495Y3170000D01*
X19665505Y3170000D01*
X20049003Y3246282D01*
X20410250Y3395915D01*
X20735364Y3613149D01*
X21011851Y3889636D01*
X21229085Y4214750D01*
X21378718Y4575997D01*
X21455000Y4959495D01*
X21455000Y5350505D01*
X21452062Y5365279D01*
X28585000Y5365279D01*
X28585000Y4944721D01*
X28667047Y4532244D01*
X28827988Y4143698D01*
X29061637Y3794017D01*
X29359017Y3496637D01*
X29708698Y3262988D01*
X30097244Y3102047D01*
X30509721Y3020000D01*
X30930279Y3020000D01*
X31342756Y3102047D01*
X31731302Y3262988D01*
X32080983Y3496637D01*
X32308849Y3724503D01*
X32980950Y3724503D01*
X33092638Y3377000D01*
X35038000Y3377000D01*
X35038000Y5322642D01*
X35292000Y5322642D01*
X35292000Y3377000D01*
X37237362Y3377000D01*
X37349050Y3724503D01*
X37244593Y4068861D01*
X37044882Y4458835D01*
X36772929Y4802354D01*
X36716911Y4850000D01*
X48166928Y4850000D01*
X48166928Y1650000D01*
X48179188Y1525518D01*
X48215498Y1405820D01*
X48274463Y1295506D01*
X48353815Y1198815D01*
X48450506Y1119463D01*
X48560820Y1060498D01*
X48680518Y1024188D01*
X48805000Y1011928D01*
X52005000Y1011928D01*
X52129482Y1024188D01*
X52249180Y1060498D01*
X52359494Y1119463D01*
X52456185Y1198815D01*
X52535537Y1295506D01*
X52594502Y1405820D01*
X52630812Y1525518D01*
X52643072Y1650000D01*
X52643072Y4850000D01*
X52630812Y4974482D01*
X52594502Y5094180D01*
X52535537Y5204494D01*
X52456185Y5301185D01*
X52402089Y5345581D01*
X52995000Y5345581D01*
X52995000Y4964419D01*
X53069361Y4590581D01*
X53215225Y4238434D01*
X53426987Y3921509D01*
X53696509Y3651987D01*
X54013434Y3440225D01*
X54365581Y3294361D01*
X54739419Y3220000D01*
X55120581Y3220000D01*
X55494419Y3294361D01*
X55846566Y3440225D01*
X56163491Y3651987D01*
X56433013Y3921509D01*
X56644775Y4238434D01*
X56790639Y4590581D01*
X56865000Y4964419D01*
X56865000Y5345581D01*
X57995000Y5345581D01*
X57995000Y4964419D01*
X58069361Y4590581D01*
X58215225Y4238434D01*
X58426987Y3921509D01*
X58696509Y3651987D01*
X59013434Y3440225D01*
X59365581Y3294361D01*
X59739419Y3220000D01*
X60120581Y3220000D01*
X60494419Y3294361D01*
X60846566Y3440225D01*
X60883644Y3465000D01*
X71776928Y3465000D01*
X71776928Y1765000D01*
X71789188Y1640518D01*
X71825498Y1520820D01*
X71884463Y1410506D01*
X71963815Y1313815D01*
X72060506Y1234463D01*
X72170820Y1175498D01*
X72290518Y1139188D01*
X72415000Y1126928D01*
X74115000Y1126928D01*
X74239482Y1139188D01*
X74359180Y1175498D01*
X74469494Y1234463D01*
X74566185Y1313815D01*
X74645537Y1410506D01*
X74704502Y1520820D01*
X74728966Y1601466D01*
X74804731Y1517412D01*
X75038080Y1343359D01*
X75300901Y1218175D01*
X75448110Y1173524D01*
X75678000Y1294845D01*
X75678000Y2488000D01*
X75932000Y2488000D01*
X75932000Y1294845D01*
X76161890Y1173524D01*
X76309099Y1218175D01*
X76571920Y1343359D01*
X76805269Y1517412D01*
X77000178Y1733645D01*
X77149157Y1983748D01*
X77246481Y2258109D01*
X77125814Y2488000D01*
X75932000Y2488000D01*
X75678000Y2488000D01*
X75658000Y2488000D01*
X75658000Y2742000D01*
X75678000Y2742000D01*
X75678000Y3935155D01*
X75932000Y3935155D01*
X75932000Y2742000D01*
X77125814Y2742000D01*
X77246481Y2971891D01*
X77149157Y3246252D01*
X77000178Y3496355D01*
X76805269Y3712588D01*
X76571920Y3886641D01*
X76309099Y4011825D01*
X76161890Y4056476D01*
X75932000Y3935155D01*
X75678000Y3935155D01*
X75448110Y4056476D01*
X75300901Y4011825D01*
X75038080Y3886641D01*
X74804731Y3712588D01*
X74728966Y3628534D01*
X74704502Y3709180D01*
X74645537Y3819494D01*
X74566185Y3916185D01*
X74469494Y3995537D01*
X74359180Y4054502D01*
X74239482Y4090812D01*
X74115000Y4103072D01*
X72415000Y4103072D01*
X72290518Y4090812D01*
X72170820Y4054502D01*
X72060506Y3995537D01*
X71963815Y3916185D01*
X71884463Y3819494D01*
X71825498Y3709180D01*
X71789188Y3589482D01*
X71776928Y3465000D01*
X60883644Y3465000D01*
X61163491Y3651987D01*
X61433013Y3921509D01*
X61644775Y4238434D01*
X61790639Y4590581D01*
X61865000Y4964419D01*
X61865000Y5345581D01*
X61790639Y5719419D01*
X61672519Y6004587D01*
X65959192Y6004587D01*
X66054956Y5740186D01*
X66344571Y5599296D01*
X66656108Y5517616D01*
X66977595Y5498282D01*
X67296675Y5542039D01*
X67601088Y5647205D01*
X67775044Y5740186D01*
X67870808Y6004587D01*
X66915000Y6960395D01*
X65959192Y6004587D01*
X61672519Y6004587D01*
X61644775Y6071566D01*
X61433013Y6388491D01*
X61163491Y6658013D01*
X60846566Y6869775D01*
X60494419Y7015639D01*
X60183901Y7077405D01*
X65273282Y7077405D01*
X65317039Y6758325D01*
X65422205Y6453912D01*
X65515186Y6279956D01*
X65779587Y6184192D01*
X66735395Y7140000D01*
X67094605Y7140000D01*
X68050413Y6184192D01*
X68314814Y6279956D01*
X68455704Y6569571D01*
X68537384Y6881108D01*
X68556718Y7202595D01*
X68512961Y7521675D01*
X68407795Y7826088D01*
X68314814Y8000044D01*
X68050413Y8095808D01*
X67094605Y7140000D01*
X66735395Y7140000D01*
X65779587Y8095808D01*
X65515186Y8000044D01*
X65374296Y7710429D01*
X65292616Y7398892D01*
X65273282Y7077405D01*
X60183901Y7077405D01*
X60120581Y7090000D01*
X59739419Y7090000D01*
X59365581Y7015639D01*
X59013434Y6869775D01*
X58696509Y6658013D01*
X58426987Y6388491D01*
X58215225Y6071566D01*
X58069361Y5719419D01*
X57995000Y5345581D01*
X56865000Y5345581D01*
X56790639Y5719419D01*
X56644775Y6071566D01*
X56433013Y6388491D01*
X56163491Y6658013D01*
X55846566Y6869775D01*
X55494419Y7015639D01*
X55120581Y7090000D01*
X54739419Y7090000D01*
X54365581Y7015639D01*
X54013434Y6869775D01*
X53696509Y6658013D01*
X53426987Y6388491D01*
X53215225Y6071566D01*
X53069361Y5719419D01*
X52995000Y5345581D01*
X52402089Y5345581D01*
X52359494Y5380537D01*
X52249180Y5439502D01*
X52129482Y5475812D01*
X52005000Y5488072D01*
X48805000Y5488072D01*
X48680518Y5475812D01*
X48560820Y5439502D01*
X48450506Y5380537D01*
X48353815Y5301185D01*
X48274463Y5204494D01*
X48215498Y5094180D01*
X48179188Y4974482D01*
X48166928Y4850000D01*
X36716911Y4850000D01*
X36439184Y5086217D01*
X36056473Y5299516D01*
X35639503Y5434053D01*
X35292000Y5322642D01*
X35038000Y5322642D01*
X34690497Y5434053D01*
X34273527Y5299516D01*
X33890816Y5086217D01*
X33557071Y4802354D01*
X33285118Y4458835D01*
X33085407Y4068861D01*
X32980950Y3724503D01*
X32308849Y3724503D01*
X32378363Y3794017D01*
X32612012Y4143698D01*
X32772953Y4532244D01*
X32855000Y4944721D01*
X32855000Y5365279D01*
X32772953Y5777756D01*
X32612012Y6166302D01*
X32378363Y6515983D01*
X32080983Y6813363D01*
X31731302Y7047012D01*
X31342756Y7207953D01*
X30930279Y7290000D01*
X30509721Y7290000D01*
X30097244Y7207953D01*
X29708698Y7047012D01*
X29359017Y6813363D01*
X29061637Y6515983D01*
X28827988Y6166302D01*
X28667047Y5777756D01*
X28585000Y5365279D01*
X21452062Y5365279D01*
X21378718Y5734003D01*
X21229085Y6095250D01*
X21011851Y6420364D01*
X20735364Y6696851D01*
X20410250Y6914085D01*
X20049003Y7063718D01*
X19665505Y7140000D01*
X19274495Y7140000D01*
X18890997Y7063718D01*
X18529750Y6914085D01*
X18204636Y6696851D01*
X17928149Y6420364D01*
X17710915Y6095250D01*
X17561282Y5734003D01*
X17485000Y5350505D01*
X10355000Y5350505D01*
X10355000Y5365279D01*
X10272953Y5777756D01*
X10112012Y6166302D01*
X9878363Y6515983D01*
X9580983Y6813363D01*
X9231302Y7047012D01*
X8842756Y7207953D01*
X8430279Y7290000D01*
X8009721Y7290000D01*
X7597244Y7207953D01*
X7208698Y7047012D01*
X6859017Y6813363D01*
X6561637Y6515983D01*
X6327988Y6166302D01*
X6167047Y5777756D01*
X6085000Y5365279D01*
X660000Y5365279D01*
X660000Y8095845D01*
X1021161Y7555330D01*
X1555330Y7021161D01*
X2183446Y6601467D01*
X2881372Y6312377D01*
X3622285Y6165000D01*
X4377715Y6165000D01*
X5118628Y6312377D01*
X5816554Y6601467D01*
X6444670Y7021161D01*
X6978839Y7555330D01*
X7398533Y8183446D01*
X7436626Y8275413D01*
X65959192Y8275413D01*
X66915000Y7319605D01*
X67870808Y8275413D01*
X67775044Y8539814D01*
X67485429Y8680704D01*
X67173892Y8762384D01*
X66852405Y8781718D01*
X66533325Y8737961D01*
X66228912Y8632795D01*
X66054956Y8539814D01*
X65959192Y8275413D01*
X7436626Y8275413D01*
X7687623Y8881372D01*
X7835000Y9622285D01*
X7835000Y10377715D01*
X7687623Y11118628D01*
X7398533Y11816554D01*
X6978839Y12444670D01*
X6967476Y12456033D01*
X7400000Y12456033D01*
X7400000Y12133967D01*
X7462832Y11818088D01*
X7586082Y11520537D01*
X7765013Y11252748D01*
X7992748Y11025013D01*
X8260537Y10846082D01*
X8558088Y10722832D01*
X8873967Y10660000D01*
X9196033Y10660000D01*
X9511912Y10722832D01*
X9809463Y10846082D01*
X10077252Y11025013D01*
X10304987Y11252748D01*
X10483918Y11520537D01*
X10607168Y11818088D01*
X10670000Y12133967D01*
X10670000Y12456033D01*
X10639457Y12609586D01*
X10888740Y12560000D01*
X11181260Y12560000D01*
X11468158Y12617068D01*
X11738411Y12729010D01*
X11981632Y12891525D01*
X12188475Y13098368D01*
X12350990Y13341589D01*
X12462932Y13611842D01*
X12520000Y13898740D01*
X12520000Y14191260D01*
X13550000Y14191260D01*
X13550000Y13898740D01*
X13607068Y13611842D01*
X13719010Y13341589D01*
X13881525Y13098368D01*
X14088368Y12891525D01*
X14331589Y12729010D01*
X14601842Y12617068D01*
X14888740Y12560000D01*
X15181260Y12560000D01*
X15468158Y12617068D01*
X15738411Y12729010D01*
X15981632Y12891525D01*
X16188475Y13098368D01*
X16350990Y13341589D01*
X16462932Y13611842D01*
X16520000Y13898740D01*
X16520000Y14191260D01*
X17550000Y14191260D01*
X17550000Y13898740D01*
X17607068Y13611842D01*
X17719010Y13341589D01*
X17881525Y13098368D01*
X18088368Y12891525D01*
X18331589Y12729010D01*
X18601842Y12617068D01*
X18888740Y12560000D01*
X19181260Y12560000D01*
X19430543Y12609586D01*
X19400000Y12456033D01*
X19400000Y12133967D01*
X19462832Y11818088D01*
X19586082Y11520537D01*
X19765013Y11252748D01*
X19992748Y11025013D01*
X20260537Y10846082D01*
X20558088Y10722832D01*
X20873967Y10660000D01*
X21196033Y10660000D01*
X21511912Y10722832D01*
X21809463Y10846082D01*
X22077252Y11025013D01*
X22304987Y11252748D01*
X22483918Y11520537D01*
X22607168Y11818088D01*
X22670000Y12133967D01*
X22670000Y12456033D01*
X22607168Y12771912D01*
X22483918Y13069463D01*
X22304987Y13337252D01*
X22077252Y13564987D01*
X21809463Y13743918D01*
X21511912Y13867168D01*
X21196033Y13930000D01*
X20873967Y13930000D01*
X20558088Y13867168D01*
X20509736Y13847140D01*
X20520000Y13898740D01*
X20520000Y14191260D01*
X20462932Y14478158D01*
X20369184Y14704488D01*
X30549783Y14704488D01*
X30591213Y14424870D01*
X30686397Y14158708D01*
X30751616Y14036691D01*
X30738815Y14026185D01*
X30659463Y13929494D01*
X30600498Y13819180D01*
X30564188Y13699482D01*
X30551928Y13575000D01*
X30551928Y11975000D01*
X30564188Y11850518D01*
X30600498Y11730820D01*
X30659463Y11620506D01*
X30738815Y11523815D01*
X30835506Y11444463D01*
X30945820Y11385498D01*
X31065518Y11349188D01*
X31190000Y11336928D01*
X32790000Y11336928D01*
X32914482Y11349188D01*
X33034180Y11385498D01*
X33144494Y11444463D01*
X33241185Y11523815D01*
X33320537Y11620506D01*
X33379502Y11730820D01*
X33415812Y11850518D01*
X33428072Y11975000D01*
X33428072Y12916335D01*
X36905000Y12916335D01*
X36905000Y12633665D01*
X36960147Y12356426D01*
X37068320Y12095273D01*
X37225363Y11860241D01*
X37425241Y11660363D01*
X37660273Y11503320D01*
X37921426Y11395147D01*
X38198665Y11340000D01*
X38481335Y11340000D01*
X38758574Y11395147D01*
X39019727Y11503320D01*
X39254759Y11660363D01*
X39454637Y11860241D01*
X39611680Y12095273D01*
X39719853Y12356426D01*
X39775000Y12633665D01*
X39775000Y12916335D01*
X42366000Y12916335D01*
X42366000Y12633665D01*
X42421147Y12356426D01*
X42529320Y12095273D01*
X42686363Y11860241D01*
X42886241Y11660363D01*
X43118759Y11505000D01*
X42886241Y11349637D01*
X42686363Y11149759D01*
X42529320Y10914727D01*
X42421147Y10653574D01*
X42366000Y10376335D01*
X42366000Y10093665D01*
X42421147Y9816426D01*
X42529320Y9555273D01*
X42686363Y9320241D01*
X42886241Y9120363D01*
X43121273Y8963320D01*
X43382426Y8855147D01*
X43659665Y8800000D01*
X43942335Y8800000D01*
X44219574Y8855147D01*
X44480727Y8963320D01*
X44715759Y9120363D01*
X44915637Y9320241D01*
X45072680Y9555273D01*
X45180853Y9816426D01*
X45236000Y10093665D01*
X45236000Y10376335D01*
X45180853Y10653574D01*
X45072680Y10914727D01*
X44992317Y11035000D01*
X49982928Y11035000D01*
X49982928Y9435000D01*
X49995188Y9310518D01*
X50031498Y9190820D01*
X50090463Y9080506D01*
X50169815Y8983815D01*
X50266506Y8904463D01*
X50376820Y8845498D01*
X50496518Y8809188D01*
X50621000Y8796928D01*
X52221000Y8796928D01*
X52345482Y8809188D01*
X52465180Y8845498D01*
X52575494Y8904463D01*
X52672185Y8983815D01*
X52751537Y9080506D01*
X52810502Y9190820D01*
X52846812Y9310518D01*
X52859072Y9435000D01*
X52859072Y11035000D01*
X52846812Y11159482D01*
X52810502Y11279180D01*
X52751537Y11389494D01*
X52672185Y11486185D01*
X52575494Y11565537D01*
X52465180Y11624502D01*
X52345482Y11660812D01*
X52337039Y11661643D01*
X52535637Y11860241D01*
X52692680Y12095273D01*
X52800853Y12356426D01*
X52856000Y12633665D01*
X52856000Y12916335D01*
X53495000Y12916335D01*
X53495000Y12633665D01*
X53550147Y12356426D01*
X53658320Y12095273D01*
X53815363Y11860241D01*
X54015241Y11660363D01*
X54250273Y11503320D01*
X54511426Y11395147D01*
X54788665Y11340000D01*
X55071335Y11340000D01*
X55348574Y11395147D01*
X55609727Y11503320D01*
X55844759Y11660363D01*
X56044637Y11860241D01*
X56201680Y12095273D01*
X56309853Y12356426D01*
X56365000Y12633665D01*
X56365000Y12916335D01*
X58495000Y12916335D01*
X58495000Y12633665D01*
X58550147Y12356426D01*
X58658320Y12095273D01*
X58815363Y11860241D01*
X59015241Y11660363D01*
X59250273Y11503320D01*
X59511426Y11395147D01*
X59788665Y11340000D01*
X60071335Y11340000D01*
X60348574Y11395147D01*
X60609727Y11503320D01*
X60844759Y11660363D01*
X61044637Y11860241D01*
X61201680Y12095273D01*
X61309853Y12356426D01*
X61365000Y12633665D01*
X61365000Y12916335D01*
X61320510Y13140000D01*
X65276928Y13140000D01*
X65276928Y11140000D01*
X65289188Y11015518D01*
X65325498Y10895820D01*
X65384463Y10785506D01*
X65463815Y10688815D01*
X65560506Y10609463D01*
X65670820Y10550498D01*
X65790518Y10514188D01*
X65915000Y10501928D01*
X67915000Y10501928D01*
X68039482Y10514188D01*
X68159180Y10550498D01*
X68269494Y10609463D01*
X68366185Y10688815D01*
X68445537Y10785506D01*
X68504502Y10895820D01*
X68540812Y11015518D01*
X68553072Y11140000D01*
X68553072Y13140000D01*
X68540812Y13264482D01*
X68504502Y13384180D01*
X68445537Y13494494D01*
X68366185Y13591185D01*
X68269494Y13670537D01*
X68159180Y13729502D01*
X68039482Y13765812D01*
X67915000Y13778072D01*
X65915000Y13778072D01*
X65790518Y13765812D01*
X65670820Y13729502D01*
X65560506Y13670537D01*
X65463815Y13591185D01*
X65384463Y13494494D01*
X65325498Y13384180D01*
X65289188Y13264482D01*
X65276928Y13140000D01*
X61320510Y13140000D01*
X61309853Y13193574D01*
X61201680Y13454727D01*
X61044637Y13689759D01*
X60844759Y13889637D01*
X60609727Y14046680D01*
X60348574Y14154853D01*
X60071335Y14210000D01*
X59788665Y14210000D01*
X59511426Y14154853D01*
X59250273Y14046680D01*
X59015241Y13889637D01*
X58815363Y13689759D01*
X58658320Y13454727D01*
X58550147Y13193574D01*
X58495000Y12916335D01*
X56365000Y12916335D01*
X56309853Y13193574D01*
X56201680Y13454727D01*
X56044637Y13689759D01*
X55844759Y13889637D01*
X55609727Y14046680D01*
X55348574Y14154853D01*
X55071335Y14210000D01*
X54788665Y14210000D01*
X54511426Y14154853D01*
X54250273Y14046680D01*
X54015241Y13889637D01*
X53815363Y13689759D01*
X53658320Y13454727D01*
X53550147Y13193574D01*
X53495000Y12916335D01*
X52856000Y12916335D01*
X52800853Y13193574D01*
X52692680Y13454727D01*
X52535637Y13689759D01*
X52335759Y13889637D01*
X52103241Y14045000D01*
X52335759Y14200363D01*
X52535637Y14400241D01*
X52692680Y14635273D01*
X52800853Y14896426D01*
X52856000Y15173665D01*
X52856000Y15200000D01*
X73821928Y15200000D01*
X73834188Y15075518D01*
X73870498Y14955820D01*
X73929463Y14845506D01*
X74008815Y14748815D01*
X74105506Y14669463D01*
X74215820Y14610498D01*
X74335518Y14574188D01*
X74460000Y14561928D01*
X74924250Y14565000D01*
X75083000Y14723750D01*
X75083000Y15823000D01*
X73983750Y15823000D01*
X73825000Y15664250D01*
X73821928Y15200000D01*
X52856000Y15200000D01*
X52856000Y15456335D01*
X52800853Y15733574D01*
X52692680Y15994727D01*
X52535637Y16229759D01*
X52335759Y16429637D01*
X52103241Y16585000D01*
X52335759Y16740363D01*
X52535637Y16940241D01*
X52692680Y17175273D01*
X52800853Y17436426D01*
X52856000Y17713665D01*
X52856000Y17996335D01*
X60400000Y17996335D01*
X60400000Y17713665D01*
X60455147Y17436426D01*
X60563320Y17175273D01*
X60720363Y16940241D01*
X60920241Y16740363D01*
X61155273Y16583320D01*
X61416426Y16475147D01*
X61693665Y16420000D01*
X61976335Y16420000D01*
X62253574Y16475147D01*
X62514727Y16583320D01*
X62749759Y16740363D01*
X62949637Y16940241D01*
X63106680Y17175273D01*
X63214853Y17436426D01*
X63270000Y17713665D01*
X63270000Y17996335D01*
X70560000Y17996335D01*
X70560000Y17713665D01*
X70615147Y17436426D01*
X70723320Y17175273D01*
X70880363Y16940241D01*
X71080241Y16740363D01*
X71315273Y16583320D01*
X71576426Y16475147D01*
X71853665Y16420000D01*
X72136335Y16420000D01*
X72413574Y16475147D01*
X72674727Y16583320D01*
X72849351Y16700000D01*
X73821928Y16700000D01*
X73825000Y16235750D01*
X73983750Y16077000D01*
X75083000Y16077000D01*
X75083000Y17176250D01*
X75337000Y17176250D01*
X75337000Y16077000D01*
X75357000Y16077000D01*
X75357000Y15823000D01*
X75337000Y15823000D01*
X75337000Y14723750D01*
X75495750Y14565000D01*
X75960000Y14561928D01*
X76084482Y14574188D01*
X76204180Y14610498D01*
X76314494Y14669463D01*
X76411185Y14748815D01*
X76490537Y14845506D01*
X76549502Y14955820D01*
X76585812Y15075518D01*
X76591307Y15131310D01*
X76634201Y15067114D01*
X76827114Y14874201D01*
X77053957Y14722629D01*
X77306011Y14618225D01*
X77573589Y14565000D01*
X77846411Y14565000D01*
X78113989Y14618225D01*
X78366043Y14722629D01*
X78592886Y14874201D01*
X78785799Y15067114D01*
X78937371Y15293957D01*
X79041775Y15546011D01*
X79095000Y15813589D01*
X79095000Y16086411D01*
X79041775Y16353989D01*
X78937371Y16606043D01*
X78785799Y16832886D01*
X78592886Y17025799D01*
X78366043Y17177371D01*
X78113989Y17281775D01*
X77846411Y17335000D01*
X77573589Y17335000D01*
X77306011Y17281775D01*
X77053957Y17177371D01*
X76827114Y17025799D01*
X76634201Y16832886D01*
X76591307Y16768690D01*
X76585812Y16824482D01*
X76549502Y16944180D01*
X76490537Y17054494D01*
X76411185Y17151185D01*
X76314494Y17230537D01*
X76204180Y17289502D01*
X76084482Y17325812D01*
X75960000Y17338072D01*
X75495750Y17335000D01*
X75337000Y17176250D01*
X75083000Y17176250D01*
X74924250Y17335000D01*
X74460000Y17338072D01*
X74335518Y17325812D01*
X74215820Y17289502D01*
X74105506Y17230537D01*
X74008815Y17151185D01*
X73929463Y17054494D01*
X73870498Y16944180D01*
X73834188Y16824482D01*
X73821928Y16700000D01*
X72849351Y16700000D01*
X72909759Y16740363D01*
X73109637Y16940241D01*
X73266680Y17175273D01*
X73374853Y17436426D01*
X73430000Y17713665D01*
X73430000Y17996335D01*
X73374853Y18273574D01*
X73266680Y18534727D01*
X73109637Y18769759D01*
X72909759Y18969637D01*
X72674727Y19126680D01*
X72413574Y19234853D01*
X72136335Y19290000D01*
X71853665Y19290000D01*
X71576426Y19234853D01*
X71315273Y19126680D01*
X71080241Y18969637D01*
X70880363Y18769759D01*
X70723320Y18534727D01*
X70615147Y18273574D01*
X70560000Y17996335D01*
X63270000Y17996335D01*
X63214853Y18273574D01*
X63106680Y18534727D01*
X62949637Y18769759D01*
X62749759Y18969637D01*
X62514727Y19126680D01*
X62253574Y19234853D01*
X61976335Y19290000D01*
X61693665Y19290000D01*
X61416426Y19234853D01*
X61155273Y19126680D01*
X60920241Y18969637D01*
X60720363Y18769759D01*
X60563320Y18534727D01*
X60455147Y18273574D01*
X60400000Y17996335D01*
X52856000Y17996335D01*
X52800853Y18273574D01*
X52692680Y18534727D01*
X52535637Y18769759D01*
X52335759Y18969637D01*
X52100727Y19126680D01*
X51839574Y19234853D01*
X51562335Y19290000D01*
X51279665Y19290000D01*
X51002426Y19234853D01*
X50741273Y19126680D01*
X50506241Y18969637D01*
X50306363Y18769759D01*
X50149320Y18534727D01*
X50041147Y18273574D01*
X49986000Y17996335D01*
X49986000Y17713665D01*
X50041147Y17436426D01*
X50149320Y17175273D01*
X50306363Y16940241D01*
X50506241Y16740363D01*
X50738759Y16585000D01*
X50506241Y16429637D01*
X50306363Y16229759D01*
X50149320Y15994727D01*
X50041147Y15733574D01*
X49986000Y15456335D01*
X49986000Y15173665D01*
X50041147Y14896426D01*
X50149320Y14635273D01*
X50306363Y14400241D01*
X50506241Y14200363D01*
X50738759Y14045000D01*
X50506241Y13889637D01*
X50306363Y13689759D01*
X50149320Y13454727D01*
X50041147Y13193574D01*
X49986000Y12916335D01*
X49986000Y12633665D01*
X50041147Y12356426D01*
X50149320Y12095273D01*
X50306363Y11860241D01*
X50504961Y11661643D01*
X50496518Y11660812D01*
X50376820Y11624502D01*
X50266506Y11565537D01*
X50169815Y11486185D01*
X50090463Y11389494D01*
X50031498Y11279180D01*
X49995188Y11159482D01*
X49982928Y11035000D01*
X44992317Y11035000D01*
X44915637Y11149759D01*
X44715759Y11349637D01*
X44483241Y11505000D01*
X44715759Y11660363D01*
X44915637Y11860241D01*
X45072680Y12095273D01*
X45180853Y12356426D01*
X45236000Y12633665D01*
X45236000Y12916335D01*
X45180853Y13193574D01*
X45072680Y13454727D01*
X44915637Y13689759D01*
X44715759Y13889637D01*
X44480727Y14046680D01*
X44470135Y14051067D01*
X44656131Y14162615D01*
X44864519Y14351586D01*
X45032037Y14577580D01*
X45152246Y14831913D01*
X45192904Y14965961D01*
X45070915Y15188000D01*
X43928000Y15188000D01*
X43928000Y15168000D01*
X43674000Y15168000D01*
X43674000Y15188000D01*
X42531085Y15188000D01*
X42409096Y14965961D01*
X42449754Y14831913D01*
X42569963Y14577580D01*
X42737481Y14351586D01*
X42945869Y14162615D01*
X43131865Y14051067D01*
X43121273Y14046680D01*
X42886241Y13889637D01*
X42686363Y13689759D01*
X42529320Y13454727D01*
X42421147Y13193574D01*
X42366000Y12916335D01*
X39775000Y12916335D01*
X39719853Y13193574D01*
X39611680Y13454727D01*
X39454637Y13689759D01*
X39254759Y13889637D01*
X39019727Y14046680D01*
X38758574Y14154853D01*
X38481335Y14210000D01*
X38198665Y14210000D01*
X37921426Y14154853D01*
X37660273Y14046680D01*
X37425241Y13889637D01*
X37225363Y13689759D01*
X37068320Y13454727D01*
X36960147Y13193574D01*
X36905000Y12916335D01*
X33428072Y12916335D01*
X33428072Y13575000D01*
X33415812Y13699482D01*
X33379502Y13819180D01*
X33320537Y13929494D01*
X33241185Y14026185D01*
X33228242Y14036807D01*
X33347571Y14288996D01*
X33416300Y14563184D01*
X33430217Y14845512D01*
X33388787Y15125130D01*
X33293603Y15391292D01*
X33226671Y15516514D01*
X32982702Y15588097D01*
X32169605Y14775000D01*
X32183748Y14760857D01*
X32004143Y14581252D01*
X31990000Y14595395D01*
X31975858Y14581252D01*
X31796253Y14760857D01*
X31810395Y14775000D01*
X30997298Y15588097D01*
X30753329Y15516514D01*
X30632429Y15261004D01*
X30563700Y14986816D01*
X30549783Y14704488D01*
X20369184Y14704488D01*
X20350990Y14748411D01*
X20188475Y14991632D01*
X19981632Y15198475D01*
X19738411Y15360990D01*
X19468158Y15472932D01*
X19181260Y15530000D01*
X18888740Y15530000D01*
X18601842Y15472932D01*
X18331589Y15360990D01*
X18088368Y15198475D01*
X17881525Y14991632D01*
X17719010Y14748411D01*
X17607068Y14478158D01*
X17550000Y14191260D01*
X16520000Y14191260D01*
X16462932Y14478158D01*
X16350990Y14748411D01*
X16188475Y14991632D01*
X15981632Y15198475D01*
X15738411Y15360990D01*
X15468158Y15472932D01*
X15181260Y15530000D01*
X14888740Y15530000D01*
X14601842Y15472932D01*
X14331589Y15360990D01*
X14088368Y15198475D01*
X13881525Y14991632D01*
X13719010Y14748411D01*
X13607068Y14478158D01*
X13550000Y14191260D01*
X12520000Y14191260D01*
X12462932Y14478158D01*
X12350990Y14748411D01*
X12188475Y14991632D01*
X11981632Y15198475D01*
X11738411Y15360990D01*
X11468158Y15472932D01*
X11181260Y15530000D01*
X10888740Y15530000D01*
X10601842Y15472932D01*
X10331589Y15360990D01*
X10088368Y15198475D01*
X9881525Y14991632D01*
X9719010Y14748411D01*
X9607068Y14478158D01*
X9550000Y14191260D01*
X9550000Y13898740D01*
X9560264Y13847140D01*
X9511912Y13867168D01*
X9196033Y13930000D01*
X8873967Y13930000D01*
X8558088Y13867168D01*
X8260537Y13743918D01*
X7992748Y13564987D01*
X7765013Y13337252D01*
X7586082Y13069463D01*
X7462832Y12771912D01*
X7400000Y12456033D01*
X6967476Y12456033D01*
X6444670Y12978839D01*
X5816554Y13398533D01*
X5118628Y13687623D01*
X4377715Y13835000D01*
X3622285Y13835000D01*
X2881372Y13687623D01*
X2183446Y13398533D01*
X1555330Y12978839D01*
X1021161Y12444670D01*
X660000Y11904155D01*
X660000Y15767702D01*
X31176903Y15767702D01*
X31990000Y14954605D01*
X32803097Y15767702D01*
X32731514Y16011671D01*
X32476004Y16132571D01*
X32201816Y16201300D01*
X31919488Y16215217D01*
X31639870Y16173787D01*
X31373708Y16078603D01*
X31248486Y16011671D01*
X31176903Y15767702D01*
X660000Y15767702D01*
X660000Y17441782D01*
X737343Y17223748D01*
X886322Y16973645D01*
X1081231Y16757412D01*
X1314580Y16583359D01*
X1577401Y16458175D01*
X1724610Y16413524D01*
X1954500Y16534845D01*
X1954500Y17728000D01*
X1934500Y17728000D01*
X1934500Y17982000D01*
X1954500Y17982000D01*
X1954500Y18002000D01*
X2208500Y18002000D01*
X2208500Y17982000D01*
X2228500Y17982000D01*
X2228500Y17728000D01*
X2208500Y17728000D01*
X2208500Y16534845D01*
X2438390Y16413524D01*
X2585599Y16458175D01*
X2848420Y16583359D01*
X3081769Y16757412D01*
X3157534Y16841466D01*
X3181998Y16760820D01*
X3240963Y16650506D01*
X3320315Y16553815D01*
X3417006Y16474463D01*
X3527320Y16415498D01*
X3647018Y16379188D01*
X3771500Y16366928D01*
X5471500Y16366928D01*
X5595982Y16379188D01*
X5715680Y16415498D01*
X5825994Y16474463D01*
X5922685Y16553815D01*
X6002037Y16650506D01*
X6061002Y16760820D01*
X6097312Y16880518D01*
X6109572Y17005000D01*
X6109572Y18705000D01*
X6097312Y18829482D01*
X6061002Y18949180D01*
X6002037Y19059494D01*
X5922685Y19156185D01*
X5825994Y19235537D01*
X5715680Y19294502D01*
X5595982Y19330812D01*
X5502692Y19340000D01*
X7767761Y19340000D01*
X7765013Y19337252D01*
G37*
X7765013Y19337252D02*
X7586082Y19069463D01*
X7462832Y18771912D01*
X7400000Y18456033D01*
X7400000Y18133967D01*
X7462832Y17818088D01*
X7586082Y17520537D01*
X7765013Y17252748D01*
X7992748Y17025013D01*
X8260537Y16846082D01*
X8558088Y16722832D01*
X8873967Y16660000D01*
X9196033Y16660000D01*
X9511912Y16722832D01*
X9809463Y16846082D01*
X10077252Y17025013D01*
X10304987Y17252748D01*
X10483918Y17520537D01*
X10607168Y17818088D01*
X10670000Y18133967D01*
X10670000Y18456033D01*
X10607168Y18771912D01*
X10483918Y19069463D01*
X10304987Y19337252D01*
X10302239Y19340000D01*
X19767761Y19340000D01*
X19765013Y19337252D01*
X19586082Y19069463D01*
X19462832Y18771912D01*
X19400000Y18456033D01*
X19400000Y18133967D01*
X19462832Y17818088D01*
X19586082Y17520537D01*
X19765013Y17252748D01*
X19992748Y17025013D01*
X20260537Y16846082D01*
X20558088Y16722832D01*
X20873967Y16660000D01*
X21196033Y16660000D01*
X21511912Y16722832D01*
X21655475Y16782298D01*
X37526903Y16782298D01*
X37598486Y16538329D01*
X37853996Y16417429D01*
X38128184Y16348700D01*
X38410512Y16334783D01*
X38690130Y16376213D01*
X38956292Y16471397D01*
X39081514Y16538329D01*
X39153097Y16782298D01*
X38340000Y17595395D01*
X37526903Y16782298D01*
X21655475Y16782298D01*
X21809463Y16846082D01*
X22077252Y17025013D01*
X22304987Y17252748D01*
X22483918Y17520537D01*
X22560113Y17704488D01*
X36899783Y17704488D01*
X36941213Y17424870D01*
X37036397Y17158708D01*
X37103329Y17033486D01*
X37347298Y16961903D01*
X38160395Y17775000D01*
X38519605Y17775000D01*
X39332702Y16961903D01*
X39576671Y17033486D01*
X39697571Y17288996D01*
X39766300Y17563184D01*
X39780217Y17845512D01*
X39757871Y17996335D01*
X42366000Y17996335D01*
X42366000Y17713665D01*
X42421147Y17436426D01*
X42529320Y17175273D01*
X42686363Y16940241D01*
X42886241Y16740363D01*
X43121273Y16583320D01*
X43131865Y16578933D01*
X42945869Y16467385D01*
X42737481Y16278414D01*
X42569963Y16052420D01*
X42449754Y15798087D01*
X42409096Y15664039D01*
X42531085Y15442000D01*
X43674000Y15442000D01*
X43674000Y15462000D01*
X43928000Y15462000D01*
X43928000Y15442000D01*
X45070915Y15442000D01*
X45192904Y15664039D01*
X45152246Y15798087D01*
X45032037Y16052420D01*
X44864519Y16278414D01*
X44656131Y16467385D01*
X44470135Y16578933D01*
X44480727Y16583320D01*
X44715759Y16740363D01*
X44915637Y16940241D01*
X45072680Y17175273D01*
X45180853Y17436426D01*
X45236000Y17713665D01*
X45236000Y17996335D01*
X45180853Y18273574D01*
X45072680Y18534727D01*
X44915637Y18769759D01*
X44715759Y18969637D01*
X44480727Y19126680D01*
X44219574Y19234853D01*
X43942335Y19290000D01*
X43659665Y19290000D01*
X43382426Y19234853D01*
X43121273Y19126680D01*
X42886241Y18969637D01*
X42686363Y18769759D01*
X42529320Y18534727D01*
X42421147Y18273574D01*
X42366000Y17996335D01*
X39757871Y17996335D01*
X39738787Y18125130D01*
X39643603Y18391292D01*
X39576671Y18516514D01*
X39332702Y18588097D01*
X38519605Y17775000D01*
X38160395Y17775000D01*
X37347298Y18588097D01*
X37103329Y18516514D01*
X36982429Y18261004D01*
X36913700Y17986816D01*
X36899783Y17704488D01*
X22560113Y17704488D01*
X22607168Y17818088D01*
X22670000Y18133967D01*
X22670000Y18456033D01*
X22608006Y18767702D01*
X37526903Y18767702D01*
X38340000Y17954605D01*
X39153097Y18767702D01*
X39081514Y19011671D01*
X38826004Y19132571D01*
X38551816Y19201300D01*
X38269488Y19215217D01*
X37989870Y19173787D01*
X37723708Y19078603D01*
X37598486Y19011671D01*
X37526903Y18767702D01*
X22608006Y18767702D01*
X22607168Y18771912D01*
X22483918Y19069463D01*
X22304987Y19337252D01*
X22302239Y19340000D01*
X79340000Y19340000D01*
X79340000Y11904154D01*
X78978839Y12444670D01*
X78444670Y12978839D01*
X77816554Y13398533D01*
X77118628Y13687623D01*
X76377715Y13835000D01*
X75622285Y13835000D01*
X74881372Y13687623D01*
X74183446Y13398533D01*
X73555330Y12978839D01*
X73021161Y12444670D01*
X72601467Y11816554D01*
X72312377Y11118628D01*
X72165000Y10377715D01*
X72165000Y9622285D01*
X72312377Y8881372D01*
X72601467Y8183446D01*
X73021161Y7555330D01*
X73555330Y7021161D01*
X74183446Y6601467D01*
X74881372Y6312377D01*
X75622285Y6165000D01*
X76377715Y6165000D01*
X77118628Y6312377D01*
X77816554Y6601467D01*
X78444670Y7021161D01*
X78978839Y7555330D01*
X79340001Y8095846D01*
X79340001Y660000D01*
X660000Y660000D01*
X660000Y2775497D01*
X32980950Y2775497D01*
X33085407Y2431139D01*
X33285118Y2041165D01*
X33557071Y1697646D01*
X33890816Y1413783D01*
X34273527Y1200484D01*
X34690497Y1065947D01*
X35038000Y1177358D01*
X35038000Y3123000D01*
X35292000Y3123000D01*
X35292000Y1177358D01*
X35639503Y1065947D01*
X36056473Y1200484D01*
X36439184Y1413783D01*
X36772929Y1697646D01*
X37044882Y2041165D01*
X37244593Y2431139D01*
X37349050Y2775497D01*
X37237362Y3123000D01*
X35292000Y3123000D01*
X35038000Y3123000D01*
X33092638Y3123000D01*
X32980950Y2775497D01*
X660000Y2775497D01*
X660000Y5365279D01*
X6085000Y5365279D01*
X6085000Y4944721D01*
X6167047Y4532244D01*
X6327988Y4143698D01*
X6561637Y3794017D01*
X6859017Y3496637D01*
X7208698Y3262988D01*
X7597244Y3102047D01*
X8009721Y3020000D01*
X8430279Y3020000D01*
X8842756Y3102047D01*
X9231302Y3262988D01*
X9580983Y3496637D01*
X9878363Y3794017D01*
X10112012Y4143698D01*
X10272953Y4532244D01*
X10355000Y4944721D01*
X10355000Y5350505D01*
X17485000Y5350505D01*
X17485000Y4959495D01*
X17561282Y4575997D01*
X17710915Y4214750D01*
X17928149Y3889636D01*
X18204636Y3613149D01*
X18529750Y3395915D01*
X18890997Y3246282D01*
X19274495Y3170000D01*
X19665505Y3170000D01*
X20049003Y3246282D01*
X20410250Y3395915D01*
X20735364Y3613149D01*
X21011851Y3889636D01*
X21229085Y4214750D01*
X21378718Y4575997D01*
X21455000Y4959495D01*
X21455000Y5350505D01*
X21452062Y5365279D01*
X28585000Y5365279D01*
X28585000Y4944721D01*
X28667047Y4532244D01*
X28827988Y4143698D01*
X29061637Y3794017D01*
X29359017Y3496637D01*
X29708698Y3262988D01*
X30097244Y3102047D01*
X30509721Y3020000D01*
X30930279Y3020000D01*
X31342756Y3102047D01*
X31731302Y3262988D01*
X32080983Y3496637D01*
X32308849Y3724503D01*
X32980950Y3724503D01*
X33092638Y3377000D01*
X35038000Y3377000D01*
X35038000Y5322642D01*
X35292000Y5322642D01*
X35292000Y3377000D01*
X37237362Y3377000D01*
X37349050Y3724503D01*
X37244593Y4068861D01*
X37044882Y4458835D01*
X36772929Y4802354D01*
X36716911Y4850000D01*
X48166928Y4850000D01*
X48166928Y1650000D01*
X48179188Y1525518D01*
X48215498Y1405820D01*
X48274463Y1295506D01*
X48353815Y1198815D01*
X48450506Y1119463D01*
X48560820Y1060498D01*
X48680518Y1024188D01*
X48805000Y1011928D01*
X52005000Y1011928D01*
X52129482Y1024188D01*
X52249180Y1060498D01*
X52359494Y1119463D01*
X52456185Y1198815D01*
X52535537Y1295506D01*
X52594502Y1405820D01*
X52630812Y1525518D01*
X52643072Y1650000D01*
X52643072Y4850000D01*
X52630812Y4974482D01*
X52594502Y5094180D01*
X52535537Y5204494D01*
X52456185Y5301185D01*
X52402089Y5345581D01*
X52995000Y5345581D01*
X52995000Y4964419D01*
X53069361Y4590581D01*
X53215225Y4238434D01*
X53426987Y3921509D01*
X53696509Y3651987D01*
X54013434Y3440225D01*
X54365581Y3294361D01*
X54739419Y3220000D01*
X55120581Y3220000D01*
X55494419Y3294361D01*
X55846566Y3440225D01*
X56163491Y3651987D01*
X56433013Y3921509D01*
X56644775Y4238434D01*
X56790639Y4590581D01*
X56865000Y4964419D01*
X56865000Y5345581D01*
X57995000Y5345581D01*
X57995000Y4964419D01*
X58069361Y4590581D01*
X58215225Y4238434D01*
X58426987Y3921509D01*
X58696509Y3651987D01*
X59013434Y3440225D01*
X59365581Y3294361D01*
X59739419Y3220000D01*
X60120581Y3220000D01*
X60494419Y3294361D01*
X60846566Y3440225D01*
X60883644Y3465000D01*
X71776928Y3465000D01*
X71776928Y1765000D01*
X71789188Y1640518D01*
X71825498Y1520820D01*
X71884463Y1410506D01*
X71963815Y1313815D01*
X72060506Y1234463D01*
X72170820Y1175498D01*
X72290518Y1139188D01*
X72415000Y1126928D01*
X74115000Y1126928D01*
X74239482Y1139188D01*
X74359180Y1175498D01*
X74469494Y1234463D01*
X74566185Y1313815D01*
X74645537Y1410506D01*
X74704502Y1520820D01*
X74728966Y1601466D01*
X74804731Y1517412D01*
X75038080Y1343359D01*
X75300901Y1218175D01*
X75448110Y1173524D01*
X75678000Y1294845D01*
X75678000Y2488000D01*
X75932000Y2488000D01*
X75932000Y1294845D01*
X76161890Y1173524D01*
X76309099Y1218175D01*
X76571920Y1343359D01*
X76805269Y1517412D01*
X77000178Y1733645D01*
X77149157Y1983748D01*
X77246481Y2258109D01*
X77125814Y2488000D01*
X75932000Y2488000D01*
X75678000Y2488000D01*
X75658000Y2488000D01*
X75658000Y2742000D01*
X75678000Y2742000D01*
X75678000Y3935155D01*
X75932000Y3935155D01*
X75932000Y2742000D01*
X77125814Y2742000D01*
X77246481Y2971891D01*
X77149157Y3246252D01*
X77000178Y3496355D01*
X76805269Y3712588D01*
X76571920Y3886641D01*
X76309099Y4011825D01*
X76161890Y4056476D01*
X75932000Y3935155D01*
X75678000Y3935155D01*
X75448110Y4056476D01*
X75300901Y4011825D01*
X75038080Y3886641D01*
X74804731Y3712588D01*
X74728966Y3628534D01*
X74704502Y3709180D01*
X74645537Y3819494D01*
X74566185Y3916185D01*
X74469494Y3995537D01*
X74359180Y4054502D01*
X74239482Y4090812D01*
X74115000Y4103072D01*
X72415000Y4103072D01*
X72290518Y4090812D01*
X72170820Y4054502D01*
X72060506Y3995537D01*
X71963815Y3916185D01*
X71884463Y3819494D01*
X71825498Y3709180D01*
X71789188Y3589482D01*
X71776928Y3465000D01*
X60883644Y3465000D01*
X61163491Y3651987D01*
X61433013Y3921509D01*
X61644775Y4238434D01*
X61790639Y4590581D01*
X61865000Y4964419D01*
X61865000Y5345581D01*
X61790639Y5719419D01*
X61672519Y6004587D01*
X65959192Y6004587D01*
X66054956Y5740186D01*
X66344571Y5599296D01*
X66656108Y5517616D01*
X66977595Y5498282D01*
X67296675Y5542039D01*
X67601088Y5647205D01*
X67775044Y5740186D01*
X67870808Y6004587D01*
X66915000Y6960395D01*
X65959192Y6004587D01*
X61672519Y6004587D01*
X61644775Y6071566D01*
X61433013Y6388491D01*
X61163491Y6658013D01*
X60846566Y6869775D01*
X60494419Y7015639D01*
X60183901Y7077405D01*
X65273282Y7077405D01*
X65317039Y6758325D01*
X65422205Y6453912D01*
X65515186Y6279956D01*
X65779587Y6184192D01*
X66735395Y7140000D01*
X67094605Y7140000D01*
X68050413Y6184192D01*
X68314814Y6279956D01*
X68455704Y6569571D01*
X68537384Y6881108D01*
X68556718Y7202595D01*
X68512961Y7521675D01*
X68407795Y7826088D01*
X68314814Y8000044D01*
X68050413Y8095808D01*
X67094605Y7140000D01*
X66735395Y7140000D01*
X65779587Y8095808D01*
X65515186Y8000044D01*
X65374296Y7710429D01*
X65292616Y7398892D01*
X65273282Y7077405D01*
X60183901Y7077405D01*
X60120581Y7090000D01*
X59739419Y7090000D01*
X59365581Y7015639D01*
X59013434Y6869775D01*
X58696509Y6658013D01*
X58426987Y6388491D01*
X58215225Y6071566D01*
X58069361Y5719419D01*
X57995000Y5345581D01*
X56865000Y5345581D01*
X56790639Y5719419D01*
X56644775Y6071566D01*
X56433013Y6388491D01*
X56163491Y6658013D01*
X55846566Y6869775D01*
X55494419Y7015639D01*
X55120581Y7090000D01*
X54739419Y7090000D01*
X54365581Y7015639D01*
X54013434Y6869775D01*
X53696509Y6658013D01*
X53426987Y6388491D01*
X53215225Y6071566D01*
X53069361Y5719419D01*
X52995000Y5345581D01*
X52402089Y5345581D01*
X52359494Y5380537D01*
X52249180Y5439502D01*
X52129482Y5475812D01*
X52005000Y5488072D01*
X48805000Y5488072D01*
X48680518Y5475812D01*
X48560820Y5439502D01*
X48450506Y5380537D01*
X48353815Y5301185D01*
X48274463Y5204494D01*
X48215498Y5094180D01*
X48179188Y4974482D01*
X48166928Y4850000D01*
X36716911Y4850000D01*
X36439184Y5086217D01*
X36056473Y5299516D01*
X35639503Y5434053D01*
X35292000Y5322642D01*
X35038000Y5322642D01*
X34690497Y5434053D01*
X34273527Y5299516D01*
X33890816Y5086217D01*
X33557071Y4802354D01*
X33285118Y4458835D01*
X33085407Y4068861D01*
X32980950Y3724503D01*
X32308849Y3724503D01*
X32378363Y3794017D01*
X32612012Y4143698D01*
X32772953Y4532244D01*
X32855000Y4944721D01*
X32855000Y5365279D01*
X32772953Y5777756D01*
X32612012Y6166302D01*
X32378363Y6515983D01*
X32080983Y6813363D01*
X31731302Y7047012D01*
X31342756Y7207953D01*
X30930279Y7290000D01*
X30509721Y7290000D01*
X30097244Y7207953D01*
X29708698Y7047012D01*
X29359017Y6813363D01*
X29061637Y6515983D01*
X28827988Y6166302D01*
X28667047Y5777756D01*
X28585000Y5365279D01*
X21452062Y5365279D01*
X21378718Y5734003D01*
X21229085Y6095250D01*
X21011851Y6420364D01*
X20735364Y6696851D01*
X20410250Y6914085D01*
X20049003Y7063718D01*
X19665505Y7140000D01*
X19274495Y7140000D01*
X18890997Y7063718D01*
X18529750Y6914085D01*
X18204636Y6696851D01*
X17928149Y6420364D01*
X17710915Y6095250D01*
X17561282Y5734003D01*
X17485000Y5350505D01*
X10355000Y5350505D01*
X10355000Y5365279D01*
X10272953Y5777756D01*
X10112012Y6166302D01*
X9878363Y6515983D01*
X9580983Y6813363D01*
X9231302Y7047012D01*
X8842756Y7207953D01*
X8430279Y7290000D01*
X8009721Y7290000D01*
X7597244Y7207953D01*
X7208698Y7047012D01*
X6859017Y6813363D01*
X6561637Y6515983D01*
X6327988Y6166302D01*
X6167047Y5777756D01*
X6085000Y5365279D01*
X660000Y5365279D01*
X660000Y8095845D01*
X1021161Y7555330D01*
X1555330Y7021161D01*
X2183446Y6601467D01*
X2881372Y6312377D01*
X3622285Y6165000D01*
X4377715Y6165000D01*
X5118628Y6312377D01*
X5816554Y6601467D01*
X6444670Y7021161D01*
X6978839Y7555330D01*
X7398533Y8183446D01*
X7436626Y8275413D01*
X65959192Y8275413D01*
X66915000Y7319605D01*
X67870808Y8275413D01*
X67775044Y8539814D01*
X67485429Y8680704D01*
X67173892Y8762384D01*
X66852405Y8781718D01*
X66533325Y8737961D01*
X66228912Y8632795D01*
X66054956Y8539814D01*
X65959192Y8275413D01*
X7436626Y8275413D01*
X7687623Y8881372D01*
X7835000Y9622285D01*
X7835000Y10377715D01*
X7687623Y11118628D01*
X7398533Y11816554D01*
X6978839Y12444670D01*
X6967476Y12456033D01*
X7400000Y12456033D01*
X7400000Y12133967D01*
X7462832Y11818088D01*
X7586082Y11520537D01*
X7765013Y11252748D01*
X7992748Y11025013D01*
X8260537Y10846082D01*
X8558088Y10722832D01*
X8873967Y10660000D01*
X9196033Y10660000D01*
X9511912Y10722832D01*
X9809463Y10846082D01*
X10077252Y11025013D01*
X10304987Y11252748D01*
X10483918Y11520537D01*
X10607168Y11818088D01*
X10670000Y12133967D01*
X10670000Y12456033D01*
X10639457Y12609586D01*
X10888740Y12560000D01*
X11181260Y12560000D01*
X11468158Y12617068D01*
X11738411Y12729010D01*
X11981632Y12891525D01*
X12188475Y13098368D01*
X12350990Y13341589D01*
X12462932Y13611842D01*
X12520000Y13898740D01*
X12520000Y14191260D01*
X13550000Y14191260D01*
X13550000Y13898740D01*
X13607068Y13611842D01*
X13719010Y13341589D01*
X13881525Y13098368D01*
X14088368Y12891525D01*
X14331589Y12729010D01*
X14601842Y12617068D01*
X14888740Y12560000D01*
X15181260Y12560000D01*
X15468158Y12617068D01*
X15738411Y12729010D01*
X15981632Y12891525D01*
X16188475Y13098368D01*
X16350990Y13341589D01*
X16462932Y13611842D01*
X16520000Y13898740D01*
X16520000Y14191260D01*
X17550000Y14191260D01*
X17550000Y13898740D01*
X17607068Y13611842D01*
X17719010Y13341589D01*
X17881525Y13098368D01*
X18088368Y12891525D01*
X18331589Y12729010D01*
X18601842Y12617068D01*
X18888740Y12560000D01*
X19181260Y12560000D01*
X19430543Y12609586D01*
X19400000Y12456033D01*
X19400000Y12133967D01*
X19462832Y11818088D01*
X19586082Y11520537D01*
X19765013Y11252748D01*
X19992748Y11025013D01*
X20260537Y10846082D01*
X20558088Y10722832D01*
X20873967Y10660000D01*
X21196033Y10660000D01*
X21511912Y10722832D01*
X21809463Y10846082D01*
X22077252Y11025013D01*
X22304987Y11252748D01*
X22483918Y11520537D01*
X22607168Y11818088D01*
X22670000Y12133967D01*
X22670000Y12456033D01*
X22607168Y12771912D01*
X22483918Y13069463D01*
X22304987Y13337252D01*
X22077252Y13564987D01*
X21809463Y13743918D01*
X21511912Y13867168D01*
X21196033Y13930000D01*
X20873967Y13930000D01*
X20558088Y13867168D01*
X20509736Y13847140D01*
X20520000Y13898740D01*
X20520000Y14191260D01*
X20462932Y14478158D01*
X20369184Y14704488D01*
X30549783Y14704488D01*
X30591213Y14424870D01*
X30686397Y14158708D01*
X30751616Y14036691D01*
X30738815Y14026185D01*
X30659463Y13929494D01*
X30600498Y13819180D01*
X30564188Y13699482D01*
X30551928Y13575000D01*
X30551928Y11975000D01*
X30564188Y11850518D01*
X30600498Y11730820D01*
X30659463Y11620506D01*
X30738815Y11523815D01*
X30835506Y11444463D01*
X30945820Y11385498D01*
X31065518Y11349188D01*
X31190000Y11336928D01*
X32790000Y11336928D01*
X32914482Y11349188D01*
X33034180Y11385498D01*
X33144494Y11444463D01*
X33241185Y11523815D01*
X33320537Y11620506D01*
X33379502Y11730820D01*
X33415812Y11850518D01*
X33428072Y11975000D01*
X33428072Y12916335D01*
X36905000Y12916335D01*
X36905000Y12633665D01*
X36960147Y12356426D01*
X37068320Y12095273D01*
X37225363Y11860241D01*
X37425241Y11660363D01*
X37660273Y11503320D01*
X37921426Y11395147D01*
X38198665Y11340000D01*
X38481335Y11340000D01*
X38758574Y11395147D01*
X39019727Y11503320D01*
X39254759Y11660363D01*
X39454637Y11860241D01*
X39611680Y12095273D01*
X39719853Y12356426D01*
X39775000Y12633665D01*
X39775000Y12916335D01*
X42366000Y12916335D01*
X42366000Y12633665D01*
X42421147Y12356426D01*
X42529320Y12095273D01*
X42686363Y11860241D01*
X42886241Y11660363D01*
X43118759Y11505000D01*
X42886241Y11349637D01*
X42686363Y11149759D01*
X42529320Y10914727D01*
X42421147Y10653574D01*
X42366000Y10376335D01*
X42366000Y10093665D01*
X42421147Y9816426D01*
X42529320Y9555273D01*
X42686363Y9320241D01*
X42886241Y9120363D01*
X43121273Y8963320D01*
X43382426Y8855147D01*
X43659665Y8800000D01*
X43942335Y8800000D01*
X44219574Y8855147D01*
X44480727Y8963320D01*
X44715759Y9120363D01*
X44915637Y9320241D01*
X45072680Y9555273D01*
X45180853Y9816426D01*
X45236000Y10093665D01*
X45236000Y10376335D01*
X45180853Y10653574D01*
X45072680Y10914727D01*
X44992317Y11035000D01*
X49982928Y11035000D01*
X49982928Y9435000D01*
X49995188Y9310518D01*
X50031498Y9190820D01*
X50090463Y9080506D01*
X50169815Y8983815D01*
X50266506Y8904463D01*
X50376820Y8845498D01*
X50496518Y8809188D01*
X50621000Y8796928D01*
X52221000Y8796928D01*
X52345482Y8809188D01*
X52465180Y8845498D01*
X52575494Y8904463D01*
X52672185Y8983815D01*
X52751537Y9080506D01*
X52810502Y9190820D01*
X52846812Y9310518D01*
X52859072Y9435000D01*
X52859072Y11035000D01*
X52846812Y11159482D01*
X52810502Y11279180D01*
X52751537Y11389494D01*
X52672185Y11486185D01*
X52575494Y11565537D01*
X52465180Y11624502D01*
X52345482Y11660812D01*
X52337039Y11661643D01*
X52535637Y11860241D01*
X52692680Y12095273D01*
X52800853Y12356426D01*
X52856000Y12633665D01*
X52856000Y12916335D01*
X53495000Y12916335D01*
X53495000Y12633665D01*
X53550147Y12356426D01*
X53658320Y12095273D01*
X53815363Y11860241D01*
X54015241Y11660363D01*
X54250273Y11503320D01*
X54511426Y11395147D01*
X54788665Y11340000D01*
X55071335Y11340000D01*
X55348574Y11395147D01*
X55609727Y11503320D01*
X55844759Y11660363D01*
X56044637Y11860241D01*
X56201680Y12095273D01*
X56309853Y12356426D01*
X56365000Y12633665D01*
X56365000Y12916335D01*
X58495000Y12916335D01*
X58495000Y12633665D01*
X58550147Y12356426D01*
X58658320Y12095273D01*
X58815363Y11860241D01*
X59015241Y11660363D01*
X59250273Y11503320D01*
X59511426Y11395147D01*
X59788665Y11340000D01*
X60071335Y11340000D01*
X60348574Y11395147D01*
X60609727Y11503320D01*
X60844759Y11660363D01*
X61044637Y11860241D01*
X61201680Y12095273D01*
X61309853Y12356426D01*
X61365000Y12633665D01*
X61365000Y12916335D01*
X61320510Y13140000D01*
X65276928Y13140000D01*
X65276928Y11140000D01*
X65289188Y11015518D01*
X65325498Y10895820D01*
X65384463Y10785506D01*
X65463815Y10688815D01*
X65560506Y10609463D01*
X65670820Y10550498D01*
X65790518Y10514188D01*
X65915000Y10501928D01*
X67915000Y10501928D01*
X68039482Y10514188D01*
X68159180Y10550498D01*
X68269494Y10609463D01*
X68366185Y10688815D01*
X68445537Y10785506D01*
X68504502Y10895820D01*
X68540812Y11015518D01*
X68553072Y11140000D01*
X68553072Y13140000D01*
X68540812Y13264482D01*
X68504502Y13384180D01*
X68445537Y13494494D01*
X68366185Y13591185D01*
X68269494Y13670537D01*
X68159180Y13729502D01*
X68039482Y13765812D01*
X67915000Y13778072D01*
X65915000Y13778072D01*
X65790518Y13765812D01*
X65670820Y13729502D01*
X65560506Y13670537D01*
X65463815Y13591185D01*
X65384463Y13494494D01*
X65325498Y13384180D01*
X65289188Y13264482D01*
X65276928Y13140000D01*
X61320510Y13140000D01*
X61309853Y13193574D01*
X61201680Y13454727D01*
X61044637Y13689759D01*
X60844759Y13889637D01*
X60609727Y14046680D01*
X60348574Y14154853D01*
X60071335Y14210000D01*
X59788665Y14210000D01*
X59511426Y14154853D01*
X59250273Y14046680D01*
X59015241Y13889637D01*
X58815363Y13689759D01*
X58658320Y13454727D01*
X58550147Y13193574D01*
X58495000Y12916335D01*
X56365000Y12916335D01*
X56309853Y13193574D01*
X56201680Y13454727D01*
X56044637Y13689759D01*
X55844759Y13889637D01*
X55609727Y14046680D01*
X55348574Y14154853D01*
X55071335Y14210000D01*
X54788665Y14210000D01*
X54511426Y14154853D01*
X54250273Y14046680D01*
X54015241Y13889637D01*
X53815363Y13689759D01*
X53658320Y13454727D01*
X53550147Y13193574D01*
X53495000Y12916335D01*
X52856000Y12916335D01*
X52800853Y13193574D01*
X52692680Y13454727D01*
X52535637Y13689759D01*
X52335759Y13889637D01*
X52103241Y14045000D01*
X52335759Y14200363D01*
X52535637Y14400241D01*
X52692680Y14635273D01*
X52800853Y14896426D01*
X52856000Y15173665D01*
X52856000Y15200000D01*
X73821928Y15200000D01*
X73834188Y15075518D01*
X73870498Y14955820D01*
X73929463Y14845506D01*
X74008815Y14748815D01*
X74105506Y14669463D01*
X74215820Y14610498D01*
X74335518Y14574188D01*
X74460000Y14561928D01*
X74924250Y14565000D01*
X75083000Y14723750D01*
X75083000Y15823000D01*
X73983750Y15823000D01*
X73825000Y15664250D01*
X73821928Y15200000D01*
X52856000Y15200000D01*
X52856000Y15456335D01*
X52800853Y15733574D01*
X52692680Y15994727D01*
X52535637Y16229759D01*
X52335759Y16429637D01*
X52103241Y16585000D01*
X52335759Y16740363D01*
X52535637Y16940241D01*
X52692680Y17175273D01*
X52800853Y17436426D01*
X52856000Y17713665D01*
X52856000Y17996335D01*
X60400000Y17996335D01*
X60400000Y17713665D01*
X60455147Y17436426D01*
X60563320Y17175273D01*
X60720363Y16940241D01*
X60920241Y16740363D01*
X61155273Y16583320D01*
X61416426Y16475147D01*
X61693665Y16420000D01*
X61976335Y16420000D01*
X62253574Y16475147D01*
X62514727Y16583320D01*
X62749759Y16740363D01*
X62949637Y16940241D01*
X63106680Y17175273D01*
X63214853Y17436426D01*
X63270000Y17713665D01*
X63270000Y17996335D01*
X70560000Y17996335D01*
X70560000Y17713665D01*
X70615147Y17436426D01*
X70723320Y17175273D01*
X70880363Y16940241D01*
X71080241Y16740363D01*
X71315273Y16583320D01*
X71576426Y16475147D01*
X71853665Y16420000D01*
X72136335Y16420000D01*
X72413574Y16475147D01*
X72674727Y16583320D01*
X72849351Y16700000D01*
X73821928Y16700000D01*
X73825000Y16235750D01*
X73983750Y16077000D01*
X75083000Y16077000D01*
X75083000Y17176250D01*
X75337000Y17176250D01*
X75337000Y16077000D01*
X75357000Y16077000D01*
X75357000Y15823000D01*
X75337000Y15823000D01*
X75337000Y14723750D01*
X75495750Y14565000D01*
X75960000Y14561928D01*
X76084482Y14574188D01*
X76204180Y14610498D01*
X76314494Y14669463D01*
X76411185Y14748815D01*
X76490537Y14845506D01*
X76549502Y14955820D01*
X76585812Y15075518D01*
X76591307Y15131310D01*
X76634201Y15067114D01*
X76827114Y14874201D01*
X77053957Y14722629D01*
X77306011Y14618225D01*
X77573589Y14565000D01*
X77846411Y14565000D01*
X78113989Y14618225D01*
X78366043Y14722629D01*
X78592886Y14874201D01*
X78785799Y15067114D01*
X78937371Y15293957D01*
X79041775Y15546011D01*
X79095000Y15813589D01*
X79095000Y16086411D01*
X79041775Y16353989D01*
X78937371Y16606043D01*
X78785799Y16832886D01*
X78592886Y17025799D01*
X78366043Y17177371D01*
X78113989Y17281775D01*
X77846411Y17335000D01*
X77573589Y17335000D01*
X77306011Y17281775D01*
X77053957Y17177371D01*
X76827114Y17025799D01*
X76634201Y16832886D01*
X76591307Y16768690D01*
X76585812Y16824482D01*
X76549502Y16944180D01*
X76490537Y17054494D01*
X76411185Y17151185D01*
X76314494Y17230537D01*
X76204180Y17289502D01*
X76084482Y17325812D01*
X75960000Y17338072D01*
X75495750Y17335000D01*
X75337000Y17176250D01*
X75083000Y17176250D01*
X74924250Y17335000D01*
X74460000Y17338072D01*
X74335518Y17325812D01*
X74215820Y17289502D01*
X74105506Y17230537D01*
X74008815Y17151185D01*
X73929463Y17054494D01*
X73870498Y16944180D01*
X73834188Y16824482D01*
X73821928Y16700000D01*
X72849351Y16700000D01*
X72909759Y16740363D01*
X73109637Y16940241D01*
X73266680Y17175273D01*
X73374853Y17436426D01*
X73430000Y17713665D01*
X73430000Y17996335D01*
X73374853Y18273574D01*
X73266680Y18534727D01*
X73109637Y18769759D01*
X72909759Y18969637D01*
X72674727Y19126680D01*
X72413574Y19234853D01*
X72136335Y19290000D01*
X71853665Y19290000D01*
X71576426Y19234853D01*
X71315273Y19126680D01*
X71080241Y18969637D01*
X70880363Y18769759D01*
X70723320Y18534727D01*
X70615147Y18273574D01*
X70560000Y17996335D01*
X63270000Y17996335D01*
X63214853Y18273574D01*
X63106680Y18534727D01*
X62949637Y18769759D01*
X62749759Y18969637D01*
X62514727Y19126680D01*
X62253574Y19234853D01*
X61976335Y19290000D01*
X61693665Y19290000D01*
X61416426Y19234853D01*
X61155273Y19126680D01*
X60920241Y18969637D01*
X60720363Y18769759D01*
X60563320Y18534727D01*
X60455147Y18273574D01*
X60400000Y17996335D01*
X52856000Y17996335D01*
X52800853Y18273574D01*
X52692680Y18534727D01*
X52535637Y18769759D01*
X52335759Y18969637D01*
X52100727Y19126680D01*
X51839574Y19234853D01*
X51562335Y19290000D01*
X51279665Y19290000D01*
X51002426Y19234853D01*
X50741273Y19126680D01*
X50506241Y18969637D01*
X50306363Y18769759D01*
X50149320Y18534727D01*
X50041147Y18273574D01*
X49986000Y17996335D01*
X49986000Y17713665D01*
X50041147Y17436426D01*
X50149320Y17175273D01*
X50306363Y16940241D01*
X50506241Y16740363D01*
X50738759Y16585000D01*
X50506241Y16429637D01*
X50306363Y16229759D01*
X50149320Y15994727D01*
X50041147Y15733574D01*
X49986000Y15456335D01*
X49986000Y15173665D01*
X50041147Y14896426D01*
X50149320Y14635273D01*
X50306363Y14400241D01*
X50506241Y14200363D01*
X50738759Y14045000D01*
X50506241Y13889637D01*
X50306363Y13689759D01*
X50149320Y13454727D01*
X50041147Y13193574D01*
X49986000Y12916335D01*
X49986000Y12633665D01*
X50041147Y12356426D01*
X50149320Y12095273D01*
X50306363Y11860241D01*
X50504961Y11661643D01*
X50496518Y11660812D01*
X50376820Y11624502D01*
X50266506Y11565537D01*
X50169815Y11486185D01*
X50090463Y11389494D01*
X50031498Y11279180D01*
X49995188Y11159482D01*
X49982928Y11035000D01*
X44992317Y11035000D01*
X44915637Y11149759D01*
X44715759Y11349637D01*
X44483241Y11505000D01*
X44715759Y11660363D01*
X44915637Y11860241D01*
X45072680Y12095273D01*
X45180853Y12356426D01*
X45236000Y12633665D01*
X45236000Y12916335D01*
X45180853Y13193574D01*
X45072680Y13454727D01*
X44915637Y13689759D01*
X44715759Y13889637D01*
X44480727Y14046680D01*
X44470135Y14051067D01*
X44656131Y14162615D01*
X44864519Y14351586D01*
X45032037Y14577580D01*
X45152246Y14831913D01*
X45192904Y14965961D01*
X45070915Y15188000D01*
X43928000Y15188000D01*
X43928000Y15168000D01*
X43674000Y15168000D01*
X43674000Y15188000D01*
X42531085Y15188000D01*
X42409096Y14965961D01*
X42449754Y14831913D01*
X42569963Y14577580D01*
X42737481Y14351586D01*
X42945869Y14162615D01*
X43131865Y14051067D01*
X43121273Y14046680D01*
X42886241Y13889637D01*
X42686363Y13689759D01*
X42529320Y13454727D01*
X42421147Y13193574D01*
X42366000Y12916335D01*
X39775000Y12916335D01*
X39719853Y13193574D01*
X39611680Y13454727D01*
X39454637Y13689759D01*
X39254759Y13889637D01*
X39019727Y14046680D01*
X38758574Y14154853D01*
X38481335Y14210000D01*
X38198665Y14210000D01*
X37921426Y14154853D01*
X37660273Y14046680D01*
X37425241Y13889637D01*
X37225363Y13689759D01*
X37068320Y13454727D01*
X36960147Y13193574D01*
X36905000Y12916335D01*
X33428072Y12916335D01*
X33428072Y13575000D01*
X33415812Y13699482D01*
X33379502Y13819180D01*
X33320537Y13929494D01*
X33241185Y14026185D01*
X33228242Y14036807D01*
X33347571Y14288996D01*
X33416300Y14563184D01*
X33430217Y14845512D01*
X33388787Y15125130D01*
X33293603Y15391292D01*
X33226671Y15516514D01*
X32982702Y15588097D01*
X32169605Y14775000D01*
X32183748Y14760857D01*
X32004143Y14581252D01*
X31990000Y14595395D01*
X31975858Y14581252D01*
X31796253Y14760857D01*
X31810395Y14775000D01*
X30997298Y15588097D01*
X30753329Y15516514D01*
X30632429Y15261004D01*
X30563700Y14986816D01*
X30549783Y14704488D01*
X20369184Y14704488D01*
X20350990Y14748411D01*
X20188475Y14991632D01*
X19981632Y15198475D01*
X19738411Y15360990D01*
X19468158Y15472932D01*
X19181260Y15530000D01*
X18888740Y15530000D01*
X18601842Y15472932D01*
X18331589Y15360990D01*
X18088368Y15198475D01*
X17881525Y14991632D01*
X17719010Y14748411D01*
X17607068Y14478158D01*
X17550000Y14191260D01*
X16520000Y14191260D01*
X16462932Y14478158D01*
X16350990Y14748411D01*
X16188475Y14991632D01*
X15981632Y15198475D01*
X15738411Y15360990D01*
X15468158Y15472932D01*
X15181260Y15530000D01*
X14888740Y15530000D01*
X14601842Y15472932D01*
X14331589Y15360990D01*
X14088368Y15198475D01*
X13881525Y14991632D01*
X13719010Y14748411D01*
X13607068Y14478158D01*
X13550000Y14191260D01*
X12520000Y14191260D01*
X12462932Y14478158D01*
X12350990Y14748411D01*
X12188475Y14991632D01*
X11981632Y15198475D01*
X11738411Y15360990D01*
X11468158Y15472932D01*
X11181260Y15530000D01*
X10888740Y15530000D01*
X10601842Y15472932D01*
X10331589Y15360990D01*
X10088368Y15198475D01*
X9881525Y14991632D01*
X9719010Y14748411D01*
X9607068Y14478158D01*
X9550000Y14191260D01*
X9550000Y13898740D01*
X9560264Y13847140D01*
X9511912Y13867168D01*
X9196033Y13930000D01*
X8873967Y13930000D01*
X8558088Y13867168D01*
X8260537Y13743918D01*
X7992748Y13564987D01*
X7765013Y13337252D01*
X7586082Y13069463D01*
X7462832Y12771912D01*
X7400000Y12456033D01*
X6967476Y12456033D01*
X6444670Y12978839D01*
X5816554Y13398533D01*
X5118628Y13687623D01*
X4377715Y13835000D01*
X3622285Y13835000D01*
X2881372Y13687623D01*
X2183446Y13398533D01*
X1555330Y12978839D01*
X1021161Y12444670D01*
X660000Y11904155D01*
X660000Y15767702D01*
X31176903Y15767702D01*
X31990000Y14954605D01*
X32803097Y15767702D01*
X32731514Y16011671D01*
X32476004Y16132571D01*
X32201816Y16201300D01*
X31919488Y16215217D01*
X31639870Y16173787D01*
X31373708Y16078603D01*
X31248486Y16011671D01*
X31176903Y15767702D01*
X660000Y15767702D01*
X660000Y17441782D01*
X737343Y17223748D01*
X886322Y16973645D01*
X1081231Y16757412D01*
X1314580Y16583359D01*
X1577401Y16458175D01*
X1724610Y16413524D01*
X1954500Y16534845D01*
X1954500Y17728000D01*
X1934500Y17728000D01*
X1934500Y17982000D01*
X1954500Y17982000D01*
X1954500Y18002000D01*
X2208500Y18002000D01*
X2208500Y17982000D01*
X2228500Y17982000D01*
X2228500Y17728000D01*
X2208500Y17728000D01*
X2208500Y16534845D01*
X2438390Y16413524D01*
X2585599Y16458175D01*
X2848420Y16583359D01*
X3081769Y16757412D01*
X3157534Y16841466D01*
X3181998Y16760820D01*
X3240963Y16650506D01*
X3320315Y16553815D01*
X3417006Y16474463D01*
X3527320Y16415498D01*
X3647018Y16379188D01*
X3771500Y16366928D01*
X5471500Y16366928D01*
X5595982Y16379188D01*
X5715680Y16415498D01*
X5825994Y16474463D01*
X5922685Y16553815D01*
X6002037Y16650506D01*
X6061002Y16760820D01*
X6097312Y16880518D01*
X6109572Y17005000D01*
X6109572Y18705000D01*
X6097312Y18829482D01*
X6061002Y18949180D01*
X6002037Y19059494D01*
X5922685Y19156185D01*
X5825994Y19235537D01*
X5715680Y19294502D01*
X5595982Y19330812D01*
X5502692Y19340000D01*
X7767761Y19340000D01*
X7765013Y19337252D01*
M02*
