G04 #@! TF.GenerationSoftware,KiCad,Pcbnew,(5.1.5)-2*
G04 #@! TF.CreationDate,2020-02-20T00:29:19+01:00*
G04 #@! TF.ProjectId,DC,44432e6b-6963-4616-945f-706362585858,V1.0*
G04 #@! TF.SameCoordinates,PXe4e1c0PY2160ec0*
G04 #@! TF.FileFunction,Soldermask,Bot*
G04 #@! TF.FilePolarity,Negative*
%FSLAX46Y46*%
G04 Gerber Fmt 4.6, Leading zero omitted, Abs format (unit mm)*
G04 Created by KiCad (PCBNEW (5.1.5)-2) date 2020-02-20 00:29:19*
%MOMM*%
%LPD*%
G04 APERTURE LIST*
%ADD10C,0.100000*%
G04 APERTURE END LIST*
D10*
G36*
X35540256Y4858702D02*
G01*
X35646579Y4837553D01*
X35947042Y4713097D01*
X36217451Y4532415D01*
X36447415Y4302451D01*
X36578940Y4105610D01*
X36628098Y4032040D01*
X36661972Y3950260D01*
X36732281Y3780521D01*
X36752553Y3731578D01*
X36816000Y3412611D01*
X36816000Y3087389D01*
X36806928Y3041782D01*
X36752553Y2768421D01*
X36628097Y2467958D01*
X36447415Y2197549D01*
X36217451Y1967585D01*
X35947042Y1786903D01*
X35646579Y1662447D01*
X35540256Y1641298D01*
X35327611Y1599000D01*
X35002389Y1599000D01*
X34789744Y1641298D01*
X34683421Y1662447D01*
X34382958Y1786903D01*
X34112549Y1967585D01*
X33882585Y2197549D01*
X33701903Y2467958D01*
X33577447Y2768421D01*
X33523072Y3041782D01*
X33514000Y3087389D01*
X33514000Y3412611D01*
X33577447Y3731578D01*
X33597720Y3780521D01*
X33668028Y3950260D01*
X33701902Y4032040D01*
X33751060Y4105610D01*
X33882585Y4302451D01*
X34112549Y4532415D01*
X34382958Y4713097D01*
X34683421Y4837553D01*
X34789744Y4858702D01*
X35002389Y4901000D01*
X35327611Y4901000D01*
X35540256Y4858702D01*
G37*
G36*
X52056000Y1599000D02*
G01*
X48754000Y1599000D01*
X48754000Y4901000D01*
X52056000Y4901000D01*
X52056000Y1599000D01*
G37*
G36*
X74166000Y1714000D02*
G01*
X72364000Y1714000D01*
X72364000Y3516000D01*
X74166000Y3516000D01*
X74166000Y1714000D01*
G37*
G36*
X75918512Y3511073D02*
G01*
X76067812Y3481376D01*
X76231784Y3413456D01*
X76379354Y3314853D01*
X76504853Y3189354D01*
X76603456Y3041784D01*
X76671376Y2877812D01*
X76706000Y2703741D01*
X76706000Y2526259D01*
X76671376Y2352188D01*
X76603456Y2188216D01*
X76504853Y2040646D01*
X76379354Y1915147D01*
X76231784Y1816544D01*
X76067812Y1748624D01*
X75918512Y1718927D01*
X75893742Y1714000D01*
X75716258Y1714000D01*
X75691488Y1718927D01*
X75542188Y1748624D01*
X75378216Y1816544D01*
X75230646Y1915147D01*
X75105147Y2040646D01*
X75006544Y2188216D01*
X74938624Y2352188D01*
X74904000Y2526259D01*
X74904000Y2703741D01*
X74938624Y2877812D01*
X75006544Y3041784D01*
X75105147Y3189354D01*
X75230646Y3314853D01*
X75378216Y3413456D01*
X75542188Y3481376D01*
X75691488Y3511073D01*
X75716258Y3516000D01*
X75893742Y3516000D01*
X75918512Y3511073D01*
G37*
G36*
X31022585Y6676198D02*
G01*
X31172410Y6646396D01*
X31454674Y6529479D01*
X31708705Y6359741D01*
X31924741Y6143705D01*
X32094479Y5889674D01*
X32211396Y5607410D01*
X32271000Y5307760D01*
X32271000Y5002240D01*
X32211396Y4702590D01*
X32094479Y4420326D01*
X31924741Y4166295D01*
X31708705Y3950259D01*
X31454674Y3780521D01*
X31172410Y3663604D01*
X31022585Y3633802D01*
X30872761Y3604000D01*
X30567239Y3604000D01*
X30417415Y3633802D01*
X30267590Y3663604D01*
X29985326Y3780521D01*
X29731295Y3950259D01*
X29515259Y4166295D01*
X29345521Y4420326D01*
X29228604Y4702590D01*
X29169000Y5002240D01*
X29169000Y5307760D01*
X29228604Y5607410D01*
X29345521Y5889674D01*
X29515259Y6143705D01*
X29731295Y6359741D01*
X29985326Y6529479D01*
X30267590Y6646396D01*
X30417415Y6676198D01*
X30567239Y6706000D01*
X30872761Y6706000D01*
X31022585Y6676198D01*
G37*
G36*
X8522585Y6676198D02*
G01*
X8672410Y6646396D01*
X8954674Y6529479D01*
X9208705Y6359741D01*
X9424741Y6143705D01*
X9594479Y5889674D01*
X9711396Y5607410D01*
X9771000Y5307760D01*
X9771000Y5002240D01*
X9711396Y4702590D01*
X9594479Y4420326D01*
X9424741Y4166295D01*
X9208705Y3950259D01*
X8954674Y3780521D01*
X8672410Y3663604D01*
X8522585Y3633802D01*
X8372761Y3604000D01*
X8067239Y3604000D01*
X7917415Y3633802D01*
X7767590Y3663604D01*
X7485326Y3780521D01*
X7231295Y3950259D01*
X7015259Y4166295D01*
X6845521Y4420326D01*
X6728604Y4702590D01*
X6669000Y5002240D01*
X6669000Y5307760D01*
X6728604Y5607410D01*
X6845521Y5889674D01*
X7015259Y6143705D01*
X7231295Y6359741D01*
X7485326Y6529479D01*
X7767590Y6646396D01*
X7917415Y6676198D01*
X8067239Y6706000D01*
X8372761Y6706000D01*
X8522585Y6676198D01*
G37*
G36*
X19788433Y6520107D02*
G01*
X19878657Y6502161D01*
X19984267Y6458415D01*
X20133621Y6396551D01*
X20199934Y6352242D01*
X20363086Y6243228D01*
X20558228Y6048086D01*
X20579525Y6016212D01*
X20711551Y5818621D01*
X20721360Y5794939D01*
X20799038Y5607410D01*
X20817161Y5563656D01*
X20871000Y5292988D01*
X20871000Y5017012D01*
X20868061Y5002239D01*
X20817161Y4746343D01*
X20773415Y4640733D01*
X20711551Y4491379D01*
X20711550Y4491378D01*
X20558228Y4261914D01*
X20363086Y4066772D01*
X20209763Y3964325D01*
X20133621Y3913449D01*
X19994729Y3855918D01*
X19878657Y3807839D01*
X19788433Y3789893D01*
X19607988Y3754000D01*
X19332012Y3754000D01*
X19151567Y3789893D01*
X19061343Y3807839D01*
X18945271Y3855918D01*
X18806379Y3913449D01*
X18730237Y3964325D01*
X18576914Y4066772D01*
X18381772Y4261914D01*
X18228450Y4491378D01*
X18228449Y4491379D01*
X18166585Y4640733D01*
X18122839Y4746343D01*
X18071939Y5002239D01*
X18069000Y5017012D01*
X18069000Y5292988D01*
X18122839Y5563656D01*
X18140963Y5607410D01*
X18218640Y5794939D01*
X18228449Y5818621D01*
X18360475Y6016212D01*
X18381772Y6048086D01*
X18576914Y6243228D01*
X18740066Y6352242D01*
X18806379Y6396551D01*
X18955733Y6458415D01*
X19061343Y6502161D01*
X19151567Y6520107D01*
X19332012Y6556000D01*
X19607988Y6556000D01*
X19788433Y6520107D01*
G37*
G36*
X55324072Y6454082D02*
G01*
X55551833Y6359741D01*
X55569939Y6352241D01*
X55681328Y6277813D01*
X55791211Y6204391D01*
X55979391Y6016211D01*
X56127242Y5794937D01*
X56229082Y5549072D01*
X56281000Y5288063D01*
X56281000Y5021937D01*
X56229082Y4760928D01*
X56127242Y4515063D01*
X55985179Y4302451D01*
X55979390Y4293788D01*
X55791212Y4105610D01*
X55569939Y3957759D01*
X55569938Y3957758D01*
X55569937Y3957758D01*
X55324072Y3855918D01*
X55063063Y3804000D01*
X54796937Y3804000D01*
X54535928Y3855918D01*
X54290063Y3957758D01*
X54290062Y3957758D01*
X54290061Y3957759D01*
X54068788Y4105610D01*
X53880610Y4293788D01*
X53874822Y4302451D01*
X53732758Y4515063D01*
X53630918Y4760928D01*
X53579000Y5021937D01*
X53579000Y5288063D01*
X53630918Y5549072D01*
X53732758Y5794937D01*
X53880609Y6016211D01*
X54068789Y6204391D01*
X54178672Y6277813D01*
X54290061Y6352241D01*
X54308168Y6359741D01*
X54535928Y6454082D01*
X54796937Y6506000D01*
X55063063Y6506000D01*
X55324072Y6454082D01*
G37*
G36*
X60324072Y6454082D02*
G01*
X60551833Y6359741D01*
X60569939Y6352241D01*
X60681328Y6277813D01*
X60791211Y6204391D01*
X60979391Y6016211D01*
X61127242Y5794937D01*
X61229082Y5549072D01*
X61281000Y5288063D01*
X61281000Y5021937D01*
X61229082Y4760928D01*
X61127242Y4515063D01*
X60985179Y4302451D01*
X60979390Y4293788D01*
X60791212Y4105610D01*
X60569939Y3957759D01*
X60569938Y3957758D01*
X60569937Y3957758D01*
X60324072Y3855918D01*
X60063063Y3804000D01*
X59796937Y3804000D01*
X59535928Y3855918D01*
X59290063Y3957758D01*
X59290062Y3957758D01*
X59290061Y3957759D01*
X59068788Y4105610D01*
X58880610Y4293788D01*
X58874822Y4302451D01*
X58732758Y4515063D01*
X58630918Y4760928D01*
X58579000Y5021937D01*
X58579000Y5288063D01*
X58630918Y5549072D01*
X58732758Y5794937D01*
X58880609Y6016211D01*
X59068789Y6204391D01*
X59178672Y6277813D01*
X59290061Y6352241D01*
X59308168Y6359741D01*
X59535928Y6454082D01*
X59796937Y6506000D01*
X60063063Y6506000D01*
X60324072Y6454082D01*
G37*
G36*
X67221564Y8150611D02*
G01*
X67412833Y8071385D01*
X67412835Y8071384D01*
X67584973Y7956365D01*
X67731365Y7809973D01*
X67846385Y7637833D01*
X67925611Y7446564D01*
X67966000Y7243516D01*
X67966000Y7036484D01*
X67925611Y6833436D01*
X67872825Y6706000D01*
X67846384Y6642165D01*
X67731365Y6470027D01*
X67584973Y6323635D01*
X67412835Y6208616D01*
X67412834Y6208615D01*
X67412833Y6208615D01*
X67221564Y6129389D01*
X67018516Y6089000D01*
X66811484Y6089000D01*
X66608436Y6129389D01*
X66417167Y6208615D01*
X66417166Y6208615D01*
X66417165Y6208616D01*
X66245027Y6323635D01*
X66098635Y6470027D01*
X65983616Y6642165D01*
X65957175Y6706000D01*
X65904389Y6833436D01*
X65864000Y7036484D01*
X65864000Y7243516D01*
X65904389Y7446564D01*
X65983615Y7637833D01*
X66098635Y7809973D01*
X66245027Y7956365D01*
X66417165Y8071384D01*
X66417167Y8071385D01*
X66608436Y8150611D01*
X66811484Y8191000D01*
X67018516Y8191000D01*
X67221564Y8150611D01*
G37*
G36*
X4621837Y13191000D02*
G01*
X4948282Y13126066D01*
X5539926Y12880999D01*
X5958128Y12601565D01*
X6070064Y12526772D01*
X6072392Y12525216D01*
X6525216Y12072392D01*
X6880999Y11539926D01*
X7126066Y10948282D01*
X7251000Y10320196D01*
X7251000Y9679804D01*
X7126066Y9051718D01*
X6880999Y8460074D01*
X6701209Y8191000D01*
X6525217Y7927609D01*
X6072391Y7474783D01*
X6030158Y7446564D01*
X5539926Y7119001D01*
X4948282Y6873934D01*
X4634239Y6811467D01*
X4320197Y6749000D01*
X3679803Y6749000D01*
X3365761Y6811467D01*
X3051718Y6873934D01*
X2460074Y7119001D01*
X1969842Y7446564D01*
X1927609Y7474783D01*
X1474783Y7927609D01*
X1298791Y8191000D01*
X1119001Y8460074D01*
X873934Y9051718D01*
X749000Y9679804D01*
X749000Y10320196D01*
X873934Y10948282D01*
X1119001Y11539926D01*
X1474784Y12072392D01*
X1927608Y12525216D01*
X1929937Y12526772D01*
X2041872Y12601565D01*
X2460074Y12880999D01*
X3051718Y13126066D01*
X3378163Y13191000D01*
X3679803Y13251000D01*
X4320197Y13251000D01*
X4621837Y13191000D01*
G37*
G36*
X76621837Y13191000D02*
G01*
X76948282Y13126066D01*
X77539926Y12880999D01*
X77958128Y12601565D01*
X78070064Y12526772D01*
X78072392Y12525216D01*
X78525216Y12072392D01*
X78880999Y11539926D01*
X79126066Y10948282D01*
X79251000Y10320196D01*
X79251000Y9679804D01*
X79126066Y9051718D01*
X78880999Y8460074D01*
X78701209Y8191000D01*
X78525217Y7927609D01*
X78072391Y7474783D01*
X78030158Y7446564D01*
X77539926Y7119001D01*
X76948282Y6873934D01*
X76634239Y6811467D01*
X76320197Y6749000D01*
X75679803Y6749000D01*
X75365761Y6811467D01*
X75051718Y6873934D01*
X74460074Y7119001D01*
X73969842Y7446564D01*
X73927609Y7474783D01*
X73474783Y7927609D01*
X73298791Y8191000D01*
X73119001Y8460074D01*
X72873934Y9051718D01*
X72749000Y9679804D01*
X72749000Y10320196D01*
X72873934Y10948282D01*
X73119001Y11539926D01*
X73474784Y12072392D01*
X73927608Y12525216D01*
X73929937Y12526772D01*
X74041872Y12601565D01*
X74460074Y12880999D01*
X75051718Y13126066D01*
X75378163Y13191000D01*
X75679803Y13251000D01*
X76320197Y13251000D01*
X76621837Y13191000D01*
G37*
G36*
X44049228Y11053297D02*
G01*
X44204100Y10989147D01*
X44343481Y10896015D01*
X44462015Y10777481D01*
X44555147Y10638100D01*
X44619297Y10483228D01*
X44652000Y10318816D01*
X44652000Y10151184D01*
X44619297Y9986772D01*
X44555147Y9831900D01*
X44462015Y9692519D01*
X44343481Y9573985D01*
X44204100Y9480853D01*
X44049228Y9416703D01*
X43884816Y9384000D01*
X43717184Y9384000D01*
X43552772Y9416703D01*
X43397900Y9480853D01*
X43258519Y9573985D01*
X43139985Y9692519D01*
X43046853Y9831900D01*
X42982703Y9986772D01*
X42950000Y10151184D01*
X42950000Y10318816D01*
X42982703Y10483228D01*
X43046853Y10638100D01*
X43139985Y10777481D01*
X43258519Y10896015D01*
X43397900Y10989147D01*
X43552772Y11053297D01*
X43717184Y11086000D01*
X43884816Y11086000D01*
X44049228Y11053297D01*
G37*
G36*
X52272000Y9384000D02*
G01*
X50570000Y9384000D01*
X50570000Y11086000D01*
X52272000Y11086000D01*
X52272000Y9384000D01*
G37*
G36*
X67966000Y11089000D02*
G01*
X65864000Y11089000D01*
X65864000Y13191000D01*
X67966000Y13191000D01*
X67966000Y11089000D01*
G37*
G36*
X21341564Y13305611D02*
G01*
X21532833Y13226385D01*
X21532835Y13226384D01*
X21704973Y13111365D01*
X21851365Y12964973D01*
X21922298Y12858815D01*
X21966385Y12792833D01*
X22045611Y12601564D01*
X22086000Y12398516D01*
X22086000Y12191484D01*
X22045611Y11988436D01*
X21966385Y11797167D01*
X21966384Y11797165D01*
X21851365Y11625027D01*
X21704973Y11478635D01*
X21532835Y11363616D01*
X21532834Y11363615D01*
X21532833Y11363615D01*
X21341564Y11284389D01*
X21138516Y11244000D01*
X20931484Y11244000D01*
X20728436Y11284389D01*
X20537167Y11363615D01*
X20537166Y11363615D01*
X20537165Y11363616D01*
X20365027Y11478635D01*
X20218635Y11625027D01*
X20103616Y11797165D01*
X20103615Y11797167D01*
X20024389Y11988436D01*
X19984000Y12191484D01*
X19984000Y12398516D01*
X20024389Y12601564D01*
X20103615Y12792833D01*
X20147703Y12858815D01*
X20218635Y12964973D01*
X20365027Y13111365D01*
X20537165Y13226384D01*
X20537167Y13226385D01*
X20728436Y13305611D01*
X20931484Y13346000D01*
X21138516Y13346000D01*
X21341564Y13305611D01*
G37*
G36*
X9341564Y13305611D02*
G01*
X9532833Y13226385D01*
X9532835Y13226384D01*
X9704973Y13111365D01*
X9851365Y12964973D01*
X9922298Y12858815D01*
X9966385Y12792833D01*
X10045611Y12601564D01*
X10086000Y12398516D01*
X10086000Y12191484D01*
X10045611Y11988436D01*
X9966385Y11797167D01*
X9966384Y11797165D01*
X9851365Y11625027D01*
X9704973Y11478635D01*
X9532835Y11363616D01*
X9532834Y11363615D01*
X9532833Y11363615D01*
X9341564Y11284389D01*
X9138516Y11244000D01*
X8931484Y11244000D01*
X8728436Y11284389D01*
X8537167Y11363615D01*
X8537166Y11363615D01*
X8537165Y11363616D01*
X8365027Y11478635D01*
X8218635Y11625027D01*
X8103616Y11797165D01*
X8103615Y11797167D01*
X8024389Y11988436D01*
X7984000Y12191484D01*
X7984000Y12398516D01*
X8024389Y12601564D01*
X8103615Y12792833D01*
X8147703Y12858815D01*
X8218635Y12964973D01*
X8365027Y13111365D01*
X8537165Y13226384D01*
X8537167Y13226385D01*
X8728436Y13305611D01*
X8931484Y13346000D01*
X9138516Y13346000D01*
X9341564Y13305611D01*
G37*
G36*
X44049228Y13593297D02*
G01*
X44204100Y13529147D01*
X44343481Y13436015D01*
X44462015Y13317481D01*
X44555147Y13178100D01*
X44619297Y13023228D01*
X44652000Y12858816D01*
X44652000Y12691184D01*
X44619297Y12526772D01*
X44555147Y12371900D01*
X44462015Y12232519D01*
X44343481Y12113985D01*
X44204100Y12020853D01*
X44049228Y11956703D01*
X43884816Y11924000D01*
X43717184Y11924000D01*
X43552772Y11956703D01*
X43397900Y12020853D01*
X43258519Y12113985D01*
X43139985Y12232519D01*
X43046853Y12371900D01*
X42982703Y12526772D01*
X42950000Y12691184D01*
X42950000Y12858816D01*
X42982703Y13023228D01*
X43046853Y13178100D01*
X43139985Y13317481D01*
X43258519Y13436015D01*
X43397900Y13529147D01*
X43552772Y13593297D01*
X43717184Y13626000D01*
X43884816Y13626000D01*
X44049228Y13593297D01*
G37*
G36*
X38588228Y13593297D02*
G01*
X38743100Y13529147D01*
X38882481Y13436015D01*
X39001015Y13317481D01*
X39094147Y13178100D01*
X39158297Y13023228D01*
X39191000Y12858816D01*
X39191000Y12691184D01*
X39158297Y12526772D01*
X39094147Y12371900D01*
X39001015Y12232519D01*
X38882481Y12113985D01*
X38743100Y12020853D01*
X38588228Y11956703D01*
X38423816Y11924000D01*
X38256184Y11924000D01*
X38091772Y11956703D01*
X37936900Y12020853D01*
X37797519Y12113985D01*
X37678985Y12232519D01*
X37585853Y12371900D01*
X37521703Y12526772D01*
X37489000Y12691184D01*
X37489000Y12858816D01*
X37521703Y13023228D01*
X37585853Y13178100D01*
X37678985Y13317481D01*
X37797519Y13436015D01*
X37936900Y13529147D01*
X38091772Y13593297D01*
X38256184Y13626000D01*
X38423816Y13626000D01*
X38588228Y13593297D01*
G37*
G36*
X51669228Y13593297D02*
G01*
X51824100Y13529147D01*
X51963481Y13436015D01*
X52082015Y13317481D01*
X52175147Y13178100D01*
X52239297Y13023228D01*
X52272000Y12858816D01*
X52272000Y12691184D01*
X52239297Y12526772D01*
X52175147Y12371900D01*
X52082015Y12232519D01*
X51963481Y12113985D01*
X51824100Y12020853D01*
X51669228Y11956703D01*
X51504816Y11924000D01*
X51337184Y11924000D01*
X51172772Y11956703D01*
X51017900Y12020853D01*
X50878519Y12113985D01*
X50759985Y12232519D01*
X50666853Y12371900D01*
X50602703Y12526772D01*
X50570000Y12691184D01*
X50570000Y12858816D01*
X50602703Y13023228D01*
X50666853Y13178100D01*
X50759985Y13317481D01*
X50878519Y13436015D01*
X51017900Y13529147D01*
X51172772Y13593297D01*
X51337184Y13626000D01*
X51504816Y13626000D01*
X51669228Y13593297D01*
G37*
G36*
X60178228Y13593297D02*
G01*
X60333100Y13529147D01*
X60472481Y13436015D01*
X60591015Y13317481D01*
X60684147Y13178100D01*
X60748297Y13023228D01*
X60781000Y12858816D01*
X60781000Y12691184D01*
X60748297Y12526772D01*
X60684147Y12371900D01*
X60591015Y12232519D01*
X60472481Y12113985D01*
X60333100Y12020853D01*
X60178228Y11956703D01*
X60013816Y11924000D01*
X59846184Y11924000D01*
X59681772Y11956703D01*
X59526900Y12020853D01*
X59387519Y12113985D01*
X59268985Y12232519D01*
X59175853Y12371900D01*
X59111703Y12526772D01*
X59079000Y12691184D01*
X59079000Y12858816D01*
X59111703Y13023228D01*
X59175853Y13178100D01*
X59268985Y13317481D01*
X59387519Y13436015D01*
X59526900Y13529147D01*
X59681772Y13593297D01*
X59846184Y13626000D01*
X60013816Y13626000D01*
X60178228Y13593297D01*
G37*
G36*
X32841000Y11924000D02*
G01*
X31139000Y11924000D01*
X31139000Y13626000D01*
X32841000Y13626000D01*
X32841000Y11924000D01*
G37*
G36*
X55178228Y13593297D02*
G01*
X55333100Y13529147D01*
X55472481Y13436015D01*
X55591015Y13317481D01*
X55684147Y13178100D01*
X55748297Y13023228D01*
X55781000Y12858816D01*
X55781000Y12691184D01*
X55748297Y12526772D01*
X55684147Y12371900D01*
X55591015Y12232519D01*
X55472481Y12113985D01*
X55333100Y12020853D01*
X55178228Y11956703D01*
X55013816Y11924000D01*
X54846184Y11924000D01*
X54681772Y11956703D01*
X54526900Y12020853D01*
X54387519Y12113985D01*
X54268985Y12232519D01*
X54175853Y12371900D01*
X54111703Y12526772D01*
X54079000Y12691184D01*
X54079000Y12858816D01*
X54111703Y13023228D01*
X54175853Y13178100D01*
X54268985Y13317481D01*
X54387519Y13436015D01*
X54526900Y13529147D01*
X54681772Y13593297D01*
X54846184Y13626000D01*
X55013816Y13626000D01*
X55178228Y13593297D01*
G37*
G36*
X19148512Y14941073D02*
G01*
X19297812Y14911376D01*
X19461784Y14843456D01*
X19609354Y14744853D01*
X19734853Y14619354D01*
X19833456Y14471784D01*
X19901376Y14307812D01*
X19936000Y14133741D01*
X19936000Y13956259D01*
X19901376Y13782188D01*
X19833456Y13618216D01*
X19734853Y13470646D01*
X19609354Y13345147D01*
X19461784Y13246544D01*
X19297812Y13178624D01*
X19148512Y13148927D01*
X19123742Y13144000D01*
X18946258Y13144000D01*
X18921488Y13148927D01*
X18772188Y13178624D01*
X18608216Y13246544D01*
X18460646Y13345147D01*
X18335147Y13470646D01*
X18236544Y13618216D01*
X18168624Y13782188D01*
X18134000Y13956259D01*
X18134000Y14133741D01*
X18168624Y14307812D01*
X18236544Y14471784D01*
X18335147Y14619354D01*
X18460646Y14744853D01*
X18608216Y14843456D01*
X18772188Y14911376D01*
X18921488Y14941073D01*
X18946258Y14946000D01*
X19123742Y14946000D01*
X19148512Y14941073D01*
G37*
G36*
X11148512Y14941073D02*
G01*
X11297812Y14911376D01*
X11461784Y14843456D01*
X11609354Y14744853D01*
X11734853Y14619354D01*
X11833456Y14471784D01*
X11901376Y14307812D01*
X11936000Y14133741D01*
X11936000Y13956259D01*
X11901376Y13782188D01*
X11833456Y13618216D01*
X11734853Y13470646D01*
X11609354Y13345147D01*
X11461784Y13246544D01*
X11297812Y13178624D01*
X11148512Y13148927D01*
X11123742Y13144000D01*
X10946258Y13144000D01*
X10921488Y13148927D01*
X10772188Y13178624D01*
X10608216Y13246544D01*
X10460646Y13345147D01*
X10335147Y13470646D01*
X10236544Y13618216D01*
X10168624Y13782188D01*
X10134000Y13956259D01*
X10134000Y14133741D01*
X10168624Y14307812D01*
X10236544Y14471784D01*
X10335147Y14619354D01*
X10460646Y14744853D01*
X10608216Y14843456D01*
X10772188Y14911376D01*
X10921488Y14941073D01*
X10946258Y14946000D01*
X11123742Y14946000D01*
X11148512Y14941073D01*
G37*
G36*
X15148512Y14941073D02*
G01*
X15297812Y14911376D01*
X15461784Y14843456D01*
X15609354Y14744853D01*
X15734853Y14619354D01*
X15833456Y14471784D01*
X15901376Y14307812D01*
X15936000Y14133741D01*
X15936000Y13956259D01*
X15901376Y13782188D01*
X15833456Y13618216D01*
X15734853Y13470646D01*
X15609354Y13345147D01*
X15461784Y13246544D01*
X15297812Y13178624D01*
X15148512Y13148927D01*
X15123742Y13144000D01*
X14946258Y13144000D01*
X14921488Y13148927D01*
X14772188Y13178624D01*
X14608216Y13246544D01*
X14460646Y13345147D01*
X14335147Y13470646D01*
X14236544Y13618216D01*
X14168624Y13782188D01*
X14134000Y13956259D01*
X14134000Y14133741D01*
X14168624Y14307812D01*
X14236544Y14471784D01*
X14335147Y14619354D01*
X14460646Y14744853D01*
X14608216Y14843456D01*
X14772188Y14911376D01*
X14921488Y14941073D01*
X14946258Y14946000D01*
X15123742Y14946000D01*
X15148512Y14941073D01*
G37*
G36*
X32238228Y15593297D02*
G01*
X32393100Y15529147D01*
X32532481Y15436015D01*
X32651015Y15317481D01*
X32744147Y15178100D01*
X32808297Y15023228D01*
X32841000Y14858816D01*
X32841000Y14691184D01*
X32808297Y14526772D01*
X32744147Y14371900D01*
X32651015Y14232519D01*
X32532481Y14113985D01*
X32393100Y14020853D01*
X32238228Y13956703D01*
X32073816Y13924000D01*
X31906184Y13924000D01*
X31741772Y13956703D01*
X31586900Y14020853D01*
X31447519Y14113985D01*
X31328985Y14232519D01*
X31235853Y14371900D01*
X31171703Y14526772D01*
X31139000Y14691184D01*
X31139000Y14858816D01*
X31171703Y15023228D01*
X31235853Y15178100D01*
X31328985Y15317481D01*
X31447519Y15436015D01*
X31586900Y15529147D01*
X31741772Y15593297D01*
X31906184Y15626000D01*
X32073816Y15626000D01*
X32238228Y15593297D01*
G37*
G36*
X44049228Y16133297D02*
G01*
X44204100Y16069147D01*
X44343481Y15976015D01*
X44462015Y15857481D01*
X44555147Y15718100D01*
X44619297Y15563228D01*
X44652000Y15398816D01*
X44652000Y15231184D01*
X44619297Y15066772D01*
X44555147Y14911900D01*
X44462015Y14772519D01*
X44343481Y14653985D01*
X44204100Y14560853D01*
X44049228Y14496703D01*
X43884816Y14464000D01*
X43717184Y14464000D01*
X43552772Y14496703D01*
X43397900Y14560853D01*
X43258519Y14653985D01*
X43139985Y14772519D01*
X43046853Y14911900D01*
X42982703Y15066772D01*
X42950000Y15231184D01*
X42950000Y15398816D01*
X42982703Y15563228D01*
X43046853Y15718100D01*
X43139985Y15857481D01*
X43258519Y15976015D01*
X43397900Y16069147D01*
X43552772Y16133297D01*
X43717184Y16166000D01*
X43884816Y16166000D01*
X44049228Y16133297D01*
G37*
G36*
X51669228Y16133297D02*
G01*
X51824100Y16069147D01*
X51963481Y15976015D01*
X52082015Y15857481D01*
X52175147Y15718100D01*
X52239297Y15563228D01*
X52272000Y15398816D01*
X52272000Y15231184D01*
X52239297Y15066772D01*
X52175147Y14911900D01*
X52082015Y14772519D01*
X51963481Y14653985D01*
X51824100Y14560853D01*
X51669228Y14496703D01*
X51504816Y14464000D01*
X51337184Y14464000D01*
X51172772Y14496703D01*
X51017900Y14560853D01*
X50878519Y14653985D01*
X50759985Y14772519D01*
X50666853Y14911900D01*
X50602703Y15066772D01*
X50570000Y15231184D01*
X50570000Y15398816D01*
X50602703Y15563228D01*
X50666853Y15718100D01*
X50759985Y15857481D01*
X50878519Y15976015D01*
X51017900Y16069147D01*
X51172772Y16133297D01*
X51337184Y16166000D01*
X51504816Y16166000D01*
X51669228Y16133297D01*
G37*
G36*
X76011000Y15149000D02*
G01*
X74409000Y15149000D01*
X74409000Y16751000D01*
X76011000Y16751000D01*
X76011000Y15149000D01*
G37*
G36*
X77943642Y16720219D02*
G01*
X78089414Y16659838D01*
X78089416Y16659837D01*
X78220608Y16572178D01*
X78332178Y16460608D01*
X78419837Y16329416D01*
X78419838Y16329414D01*
X78480219Y16183642D01*
X78511000Y16028893D01*
X78511000Y15871107D01*
X78480219Y15716358D01*
X78442791Y15626000D01*
X78419837Y15570584D01*
X78332178Y15439392D01*
X78220608Y15327822D01*
X78089416Y15240163D01*
X78089415Y15240162D01*
X78089414Y15240162D01*
X77943642Y15179781D01*
X77788893Y15149000D01*
X77631107Y15149000D01*
X77476358Y15179781D01*
X77330586Y15240162D01*
X77330585Y15240162D01*
X77330584Y15240163D01*
X77199392Y15327822D01*
X77087822Y15439392D01*
X77000163Y15570584D01*
X76977209Y15626000D01*
X76939781Y15716358D01*
X76909000Y15871107D01*
X76909000Y16028893D01*
X76939781Y16183642D01*
X77000162Y16329414D01*
X77000163Y16329416D01*
X77087822Y16460608D01*
X77199392Y16572178D01*
X77330584Y16659837D01*
X77330586Y16659838D01*
X77476358Y16720219D01*
X77631107Y16751000D01*
X77788893Y16751000D01*
X77943642Y16720219D01*
G37*
G36*
X38588228Y18593297D02*
G01*
X38743100Y18529147D01*
X38882481Y18436015D01*
X39001015Y18317481D01*
X39094147Y18178100D01*
X39158297Y18023228D01*
X39191000Y17858816D01*
X39191000Y17691184D01*
X39158297Y17526772D01*
X39094147Y17371900D01*
X39001015Y17232519D01*
X38882481Y17113985D01*
X38743100Y17020853D01*
X38588228Y16956703D01*
X38423816Y16924000D01*
X38256184Y16924000D01*
X38091772Y16956703D01*
X37936900Y17020853D01*
X37797519Y17113985D01*
X37678985Y17232519D01*
X37585853Y17371900D01*
X37521703Y17526772D01*
X37489000Y17691184D01*
X37489000Y17858816D01*
X37521703Y18023228D01*
X37585853Y18178100D01*
X37678985Y18317481D01*
X37797519Y18436015D01*
X37936900Y18529147D01*
X38091772Y18593297D01*
X38256184Y18626000D01*
X38423816Y18626000D01*
X38588228Y18593297D01*
G37*
G36*
X2195012Y18751073D02*
G01*
X2344312Y18721376D01*
X2508284Y18653456D01*
X2655854Y18554853D01*
X2781353Y18429354D01*
X2879956Y18281784D01*
X2947876Y18117812D01*
X2982500Y17943741D01*
X2982500Y17766259D01*
X2947876Y17592188D01*
X2879956Y17428216D01*
X2781353Y17280646D01*
X2655854Y17155147D01*
X2508284Y17056544D01*
X2344312Y16988624D01*
X2195012Y16958927D01*
X2170242Y16954000D01*
X1992758Y16954000D01*
X1967988Y16958927D01*
X1818688Y16988624D01*
X1654716Y17056544D01*
X1507146Y17155147D01*
X1381647Y17280646D01*
X1283044Y17428216D01*
X1215124Y17592188D01*
X1180500Y17766259D01*
X1180500Y17943741D01*
X1215124Y18117812D01*
X1283044Y18281784D01*
X1381647Y18429354D01*
X1507146Y18554853D01*
X1654716Y18653456D01*
X1818688Y18721376D01*
X1967988Y18751073D01*
X1992758Y18756000D01*
X2170242Y18756000D01*
X2195012Y18751073D01*
G37*
G36*
X5522500Y16954000D02*
G01*
X3720500Y16954000D01*
X3720500Y18756000D01*
X5522500Y18756000D01*
X5522500Y16954000D01*
G37*
G36*
X51669228Y18673297D02*
G01*
X51824100Y18609147D01*
X51963481Y18516015D01*
X52082015Y18397481D01*
X52175147Y18258100D01*
X52239297Y18103228D01*
X52272000Y17938816D01*
X52272000Y17771184D01*
X52239297Y17606772D01*
X52175147Y17451900D01*
X52082015Y17312519D01*
X51963481Y17193985D01*
X51824100Y17100853D01*
X51669228Y17036703D01*
X51504816Y17004000D01*
X51337184Y17004000D01*
X51172772Y17036703D01*
X51017900Y17100853D01*
X50878519Y17193985D01*
X50759985Y17312519D01*
X50666853Y17451900D01*
X50602703Y17606772D01*
X50570000Y17771184D01*
X50570000Y17938816D01*
X50602703Y18103228D01*
X50666853Y18258100D01*
X50759985Y18397481D01*
X50878519Y18516015D01*
X51017900Y18609147D01*
X51172772Y18673297D01*
X51337184Y18706000D01*
X51504816Y18706000D01*
X51669228Y18673297D01*
G37*
G36*
X72243228Y18673297D02*
G01*
X72398100Y18609147D01*
X72537481Y18516015D01*
X72656015Y18397481D01*
X72749147Y18258100D01*
X72813297Y18103228D01*
X72846000Y17938816D01*
X72846000Y17771184D01*
X72813297Y17606772D01*
X72749147Y17451900D01*
X72656015Y17312519D01*
X72537481Y17193985D01*
X72398100Y17100853D01*
X72243228Y17036703D01*
X72078816Y17004000D01*
X71911184Y17004000D01*
X71746772Y17036703D01*
X71591900Y17100853D01*
X71452519Y17193985D01*
X71333985Y17312519D01*
X71240853Y17451900D01*
X71176703Y17606772D01*
X71144000Y17771184D01*
X71144000Y17938816D01*
X71176703Y18103228D01*
X71240853Y18258100D01*
X71333985Y18397481D01*
X71452519Y18516015D01*
X71591900Y18609147D01*
X71746772Y18673297D01*
X71911184Y18706000D01*
X72078816Y18706000D01*
X72243228Y18673297D01*
G37*
G36*
X62083228Y18673297D02*
G01*
X62238100Y18609147D01*
X62377481Y18516015D01*
X62496015Y18397481D01*
X62589147Y18258100D01*
X62653297Y18103228D01*
X62686000Y17938816D01*
X62686000Y17771184D01*
X62653297Y17606772D01*
X62589147Y17451900D01*
X62496015Y17312519D01*
X62377481Y17193985D01*
X62238100Y17100853D01*
X62083228Y17036703D01*
X61918816Y17004000D01*
X61751184Y17004000D01*
X61586772Y17036703D01*
X61431900Y17100853D01*
X61292519Y17193985D01*
X61173985Y17312519D01*
X61080853Y17451900D01*
X61016703Y17606772D01*
X60984000Y17771184D01*
X60984000Y17938816D01*
X61016703Y18103228D01*
X61080853Y18258100D01*
X61173985Y18397481D01*
X61292519Y18516015D01*
X61431900Y18609147D01*
X61586772Y18673297D01*
X61751184Y18706000D01*
X61918816Y18706000D01*
X62083228Y18673297D01*
G37*
G36*
X44049228Y18673297D02*
G01*
X44204100Y18609147D01*
X44343481Y18516015D01*
X44462015Y18397481D01*
X44555147Y18258100D01*
X44619297Y18103228D01*
X44652000Y17938816D01*
X44652000Y17771184D01*
X44619297Y17606772D01*
X44555147Y17451900D01*
X44462015Y17312519D01*
X44343481Y17193985D01*
X44204100Y17100853D01*
X44049228Y17036703D01*
X43884816Y17004000D01*
X43717184Y17004000D01*
X43552772Y17036703D01*
X43397900Y17100853D01*
X43258519Y17193985D01*
X43139985Y17312519D01*
X43046853Y17451900D01*
X42982703Y17606772D01*
X42950000Y17771184D01*
X42950000Y17938816D01*
X42982703Y18103228D01*
X43046853Y18258100D01*
X43139985Y18397481D01*
X43258519Y18516015D01*
X43397900Y18609147D01*
X43552772Y18673297D01*
X43717184Y18706000D01*
X43884816Y18706000D01*
X44049228Y18673297D01*
G37*
G36*
X21341564Y19305611D02*
G01*
X21532833Y19226385D01*
X21532835Y19226384D01*
X21704973Y19111365D01*
X21851365Y18964973D01*
X21966385Y18792833D01*
X22045611Y18601564D01*
X22086000Y18398516D01*
X22086000Y18191484D01*
X22045611Y17988436D01*
X21991920Y17858815D01*
X21966384Y17797165D01*
X21851365Y17625027D01*
X21704973Y17478635D01*
X21532835Y17363616D01*
X21532834Y17363615D01*
X21532833Y17363615D01*
X21341564Y17284389D01*
X21138516Y17244000D01*
X20931484Y17244000D01*
X20728436Y17284389D01*
X20537167Y17363615D01*
X20537166Y17363615D01*
X20537165Y17363616D01*
X20365027Y17478635D01*
X20218635Y17625027D01*
X20103616Y17797165D01*
X20078080Y17858815D01*
X20024389Y17988436D01*
X19984000Y18191484D01*
X19984000Y18398516D01*
X20024389Y18601564D01*
X20103615Y18792833D01*
X20218635Y18964973D01*
X20365027Y19111365D01*
X20537165Y19226384D01*
X20537167Y19226385D01*
X20728436Y19305611D01*
X20931484Y19346000D01*
X21138516Y19346000D01*
X21341564Y19305611D01*
G37*
G36*
X9341564Y19305611D02*
G01*
X9532833Y19226385D01*
X9532835Y19226384D01*
X9704973Y19111365D01*
X9851365Y18964973D01*
X9966385Y18792833D01*
X10045611Y18601564D01*
X10086000Y18398516D01*
X10086000Y18191484D01*
X10045611Y17988436D01*
X9991920Y17858815D01*
X9966384Y17797165D01*
X9851365Y17625027D01*
X9704973Y17478635D01*
X9532835Y17363616D01*
X9532834Y17363615D01*
X9532833Y17363615D01*
X9341564Y17284389D01*
X9138516Y17244000D01*
X8931484Y17244000D01*
X8728436Y17284389D01*
X8537167Y17363615D01*
X8537166Y17363615D01*
X8537165Y17363616D01*
X8365027Y17478635D01*
X8218635Y17625027D01*
X8103616Y17797165D01*
X8078080Y17858815D01*
X8024389Y17988436D01*
X7984000Y18191484D01*
X7984000Y18398516D01*
X8024389Y18601564D01*
X8103615Y18792833D01*
X8218635Y18964973D01*
X8365027Y19111365D01*
X8537165Y19226384D01*
X8537167Y19226385D01*
X8728436Y19305611D01*
X8931484Y19346000D01*
X9138516Y19346000D01*
X9341564Y19305611D01*
G37*
M02*
