G04 #@! TF.GenerationSoftware,KiCad,Pcbnew,(5.1.5)-2*
G04 #@! TF.CreationDate,2020-02-22T01:41:57+01:00*
G04 #@! TF.ProjectId,DC,44432e6b-6963-4616-945f-706362585858,V1.0*
G04 #@! TF.SameCoordinates,PXe4e1c0PY1d905c0*
G04 #@! TF.FileFunction,Copper,L2,Bot*
G04 #@! TF.FilePolarity,Positive*
%FSLAX46Y46*%
G04 Gerber Fmt 4.6, Leading zero omitted, Abs format (unit mm)*
G04 Created by KiCad (PCBNEW (5.1.5)-2) date 2020-02-22 01:41:57*
%MOMM*%
%LPD*%
G04 APERTURE LIST*
%ADD10C,6.400000*%
%ADD11C,1.500000*%
%ADD12R,1.500000X1.500000*%
%ADD13O,1.600000X1.600000*%
%ADD14R,1.600000X1.600000*%
%ADD15C,1.700000*%
%ADD16C,2.000000*%
%ADD17C,1.600000*%
%ADD18C,2.600000*%
%ADD19O,1.700000X1.700000*%
%ADD20R,1.700000X1.700000*%
%ADD21O,3.200000X3.200000*%
%ADD22R,3.200000X3.200000*%
%ADD23R,2.000000X2.000000*%
%ADD24C,0.254000*%
G04 APERTURE END LIST*
D10*
X95000000Y11000000D03*
X5000000Y11000000D03*
D11*
X89183500Y11569500D03*
D12*
X86683500Y11569500D03*
D13*
X55485000Y6235000D03*
X63105000Y13855000D03*
X55485000Y8775000D03*
X63105000Y11315000D03*
X55485000Y11315000D03*
X63105000Y8775000D03*
X55485000Y13855000D03*
D14*
X63105000Y6235000D03*
D15*
X16560000Y10045000D03*
X20560000Y10045000D03*
X24560000Y10045000D03*
D16*
X26560000Y14295000D03*
X14560000Y14295000D03*
X14560000Y8295000D03*
X26560000Y8295000D03*
D13*
X96125000Y4965000D03*
D17*
X85965000Y4965000D03*
D18*
X69455000Y11950000D03*
X69455000Y6950000D03*
D19*
X69455000Y2679000D03*
D20*
X71995000Y2679000D03*
D19*
X11035000Y9410000D03*
D20*
X11035000Y11950000D03*
D21*
X36435000Y6235000D03*
D22*
X51675000Y6235000D03*
D16*
X79615000Y6315000D03*
D23*
X79615000Y11315000D03*
D17*
X61755000Y2425000D03*
X56755000Y2425000D03*
X47310000Y12585000D03*
X52310000Y12585000D03*
X31355000Y12045000D03*
D14*
X31355000Y10045000D03*
D24*
G36*
X13290013Y15337252D02*
G01*
X13111082Y15069463D01*
X12987832Y14771912D01*
X12925000Y14456033D01*
X12925000Y14133967D01*
X12987832Y13818088D01*
X13111082Y13520537D01*
X13290013Y13252748D01*
X13517748Y13025013D01*
X13785537Y12846082D01*
X14083088Y12722832D01*
X14398967Y12660000D01*
X14721033Y12660000D01*
X15036912Y12722832D01*
X15334463Y12846082D01*
X15602252Y13025013D01*
X15829987Y13252748D01*
X16008918Y13520537D01*
X16132168Y13818088D01*
X16195000Y14133967D01*
X16195000Y14456033D01*
X16132168Y14771912D01*
X16008918Y15069463D01*
X15829987Y15337252D01*
X15827239Y15340000D01*
X25292761Y15340000D01*
X25290013Y15337252D01*
X25111082Y15069463D01*
X24987832Y14771912D01*
X24925000Y14456033D01*
X24925000Y14133967D01*
X24987832Y13818088D01*
X25111082Y13520537D01*
X25290013Y13252748D01*
X25517748Y13025013D01*
X25785537Y12846082D01*
X26083088Y12722832D01*
X26398967Y12660000D01*
X26721033Y12660000D01*
X27036912Y12722832D01*
X27334463Y12846082D01*
X27602252Y13025013D01*
X27614941Y13037702D01*
X30541903Y13037702D01*
X31355000Y12224605D01*
X32168097Y13037702D01*
X32096514Y13281671D01*
X31841004Y13402571D01*
X31566816Y13471300D01*
X31284488Y13485217D01*
X31004870Y13443787D01*
X30738708Y13348603D01*
X30613486Y13281671D01*
X30541903Y13037702D01*
X27614941Y13037702D01*
X27829987Y13252748D01*
X28008918Y13520537D01*
X28032596Y13577702D01*
X46496903Y13577702D01*
X47310000Y12764605D01*
X48123097Y13577702D01*
X48051514Y13821671D01*
X47796004Y13942571D01*
X47521816Y14011300D01*
X47239488Y14025217D01*
X46959870Y13983787D01*
X46693708Y13888603D01*
X46568486Y13821671D01*
X46496903Y13577702D01*
X28032596Y13577702D01*
X28132168Y13818088D01*
X28195000Y14133967D01*
X28195000Y14456033D01*
X28132168Y14771912D01*
X28008918Y15069463D01*
X27829987Y15337252D01*
X27827239Y15340000D01*
X99340000Y15340000D01*
X99340001Y660000D01*
X660000Y660000D01*
X660000Y2566335D01*
X55320000Y2566335D01*
X55320000Y2283665D01*
X55375147Y2006426D01*
X55483320Y1745273D01*
X55640363Y1510241D01*
X55840241Y1310363D01*
X56075273Y1153320D01*
X56336426Y1045147D01*
X56613665Y990000D01*
X56896335Y990000D01*
X57173574Y1045147D01*
X57434727Y1153320D01*
X57669759Y1310363D01*
X57869637Y1510241D01*
X58026680Y1745273D01*
X58134853Y2006426D01*
X58190000Y2283665D01*
X58190000Y2566335D01*
X60320000Y2566335D01*
X60320000Y2283665D01*
X60375147Y2006426D01*
X60483320Y1745273D01*
X60640363Y1510241D01*
X60840241Y1310363D01*
X61075273Y1153320D01*
X61336426Y1045147D01*
X61613665Y990000D01*
X61896335Y990000D01*
X62173574Y1045147D01*
X62434727Y1153320D01*
X62669759Y1310363D01*
X62869637Y1510241D01*
X63026680Y1745273D01*
X63134853Y2006426D01*
X63190000Y2283665D01*
X63190000Y2322109D01*
X68013519Y2322109D01*
X68110843Y2047748D01*
X68259822Y1797645D01*
X68454731Y1581412D01*
X68688080Y1407359D01*
X68950901Y1282175D01*
X69098110Y1237524D01*
X69328000Y1358845D01*
X69328000Y2552000D01*
X68134186Y2552000D01*
X68013519Y2322109D01*
X63190000Y2322109D01*
X63190000Y2566335D01*
X63134853Y2843574D01*
X63055193Y3035891D01*
X68013519Y3035891D01*
X68134186Y2806000D01*
X69328000Y2806000D01*
X69328000Y3999155D01*
X69582000Y3999155D01*
X69582000Y2806000D01*
X69602000Y2806000D01*
X69602000Y2552000D01*
X69582000Y2552000D01*
X69582000Y1358845D01*
X69811890Y1237524D01*
X69959099Y1282175D01*
X70221920Y1407359D01*
X70455269Y1581412D01*
X70531034Y1665466D01*
X70555498Y1584820D01*
X70614463Y1474506D01*
X70693815Y1377815D01*
X70790506Y1298463D01*
X70900820Y1239498D01*
X71020518Y1203188D01*
X71145000Y1190928D01*
X72845000Y1190928D01*
X72969482Y1203188D01*
X73089180Y1239498D01*
X73199494Y1298463D01*
X73296185Y1377815D01*
X73375537Y1474506D01*
X73434502Y1584820D01*
X73470812Y1704518D01*
X73483072Y1829000D01*
X73483072Y3529000D01*
X73470812Y3653482D01*
X73434502Y3773180D01*
X73375537Y3883494D01*
X73296185Y3980185D01*
X73199494Y4059537D01*
X73089180Y4118502D01*
X72969482Y4154812D01*
X72845000Y4167072D01*
X71145000Y4167072D01*
X71020518Y4154812D01*
X70900820Y4118502D01*
X70790506Y4059537D01*
X70693815Y3980185D01*
X70614463Y3883494D01*
X70555498Y3773180D01*
X70531034Y3692534D01*
X70455269Y3776588D01*
X70221920Y3950641D01*
X69959099Y4075825D01*
X69811890Y4120476D01*
X69582000Y3999155D01*
X69328000Y3999155D01*
X69098110Y4120476D01*
X68950901Y4075825D01*
X68688080Y3950641D01*
X68454731Y3776588D01*
X68259822Y3560355D01*
X68110843Y3310252D01*
X68013519Y3035891D01*
X63055193Y3035891D01*
X63026680Y3104727D01*
X62869637Y3339759D01*
X62669759Y3539637D01*
X62434727Y3696680D01*
X62173574Y3804853D01*
X61896335Y3860000D01*
X61613665Y3860000D01*
X61336426Y3804853D01*
X61075273Y3696680D01*
X60840241Y3539637D01*
X60640363Y3339759D01*
X60483320Y3104727D01*
X60375147Y2843574D01*
X60320000Y2566335D01*
X58190000Y2566335D01*
X58134853Y2843574D01*
X58026680Y3104727D01*
X57869637Y3339759D01*
X57669759Y3539637D01*
X57434727Y3696680D01*
X57173574Y3804853D01*
X56896335Y3860000D01*
X56613665Y3860000D01*
X56336426Y3804853D01*
X56075273Y3696680D01*
X55840241Y3539637D01*
X55640363Y3339759D01*
X55483320Y3104727D01*
X55375147Y2843574D01*
X55320000Y2566335D01*
X660000Y2566335D01*
X660000Y5760497D01*
X34250950Y5760497D01*
X34355407Y5416139D01*
X34555118Y5026165D01*
X34827071Y4682646D01*
X35160816Y4398783D01*
X35543527Y4185484D01*
X35960497Y4050947D01*
X36308000Y4162358D01*
X36308000Y6108000D01*
X36562000Y6108000D01*
X36562000Y4162358D01*
X36909503Y4050947D01*
X37326473Y4185484D01*
X37709184Y4398783D01*
X38042929Y4682646D01*
X38314882Y5026165D01*
X38514593Y5416139D01*
X38619050Y5760497D01*
X38507362Y6108000D01*
X36562000Y6108000D01*
X36308000Y6108000D01*
X34362638Y6108000D01*
X34250950Y5760497D01*
X660000Y5760497D01*
X660000Y11377715D01*
X1165000Y11377715D01*
X1165000Y10622285D01*
X1312377Y9881372D01*
X1601467Y9183446D01*
X2021161Y8555330D01*
X2555330Y8021161D01*
X3183446Y7601467D01*
X3881372Y7312377D01*
X4622285Y7165000D01*
X5377715Y7165000D01*
X6118628Y7312377D01*
X6816554Y7601467D01*
X7444670Y8021161D01*
X7978839Y8555330D01*
X8311445Y9053110D01*
X9593524Y9053110D01*
X9638175Y8905901D01*
X9763359Y8643080D01*
X9937412Y8409731D01*
X10153645Y8214822D01*
X10403748Y8065843D01*
X10678109Y7968519D01*
X10908000Y8089186D01*
X10908000Y9283000D01*
X11162000Y9283000D01*
X11162000Y8089186D01*
X11391891Y7968519D01*
X11666252Y8065843D01*
X11916355Y8214822D01*
X12132588Y8409731D01*
X12167124Y8456033D01*
X12925000Y8456033D01*
X12925000Y8133967D01*
X12987832Y7818088D01*
X13111082Y7520537D01*
X13290013Y7252748D01*
X13517748Y7025013D01*
X13785537Y6846082D01*
X14083088Y6722832D01*
X14398967Y6660000D01*
X14721033Y6660000D01*
X15036912Y6722832D01*
X15334463Y6846082D01*
X15602252Y7025013D01*
X15829987Y7252748D01*
X16008918Y7520537D01*
X16132168Y7818088D01*
X16195000Y8133967D01*
X16195000Y8456033D01*
X16164457Y8609586D01*
X16413740Y8560000D01*
X16706260Y8560000D01*
X16993158Y8617068D01*
X17263411Y8729010D01*
X17506632Y8891525D01*
X17713475Y9098368D01*
X17875990Y9341589D01*
X17987932Y9611842D01*
X18045000Y9898740D01*
X18045000Y10191260D01*
X19075000Y10191260D01*
X19075000Y9898740D01*
X19132068Y9611842D01*
X19244010Y9341589D01*
X19406525Y9098368D01*
X19613368Y8891525D01*
X19856589Y8729010D01*
X20126842Y8617068D01*
X20413740Y8560000D01*
X20706260Y8560000D01*
X20993158Y8617068D01*
X21263411Y8729010D01*
X21506632Y8891525D01*
X21713475Y9098368D01*
X21875990Y9341589D01*
X21987932Y9611842D01*
X22045000Y9898740D01*
X22045000Y10191260D01*
X23075000Y10191260D01*
X23075000Y9898740D01*
X23132068Y9611842D01*
X23244010Y9341589D01*
X23406525Y9098368D01*
X23613368Y8891525D01*
X23856589Y8729010D01*
X24126842Y8617068D01*
X24413740Y8560000D01*
X24706260Y8560000D01*
X24955543Y8609586D01*
X24925000Y8456033D01*
X24925000Y8133967D01*
X24987832Y7818088D01*
X25111082Y7520537D01*
X25290013Y7252748D01*
X25517748Y7025013D01*
X25785537Y6846082D01*
X26083088Y6722832D01*
X26398967Y6660000D01*
X26721033Y6660000D01*
X26969902Y6709503D01*
X34250950Y6709503D01*
X34362638Y6362000D01*
X36308000Y6362000D01*
X36308000Y8307642D01*
X36562000Y8307642D01*
X36562000Y6362000D01*
X38507362Y6362000D01*
X38619050Y6709503D01*
X38514593Y7053861D01*
X38314882Y7443835D01*
X38042929Y7787354D01*
X37986911Y7835000D01*
X49436928Y7835000D01*
X49436928Y4635000D01*
X49449188Y4510518D01*
X49485498Y4390820D01*
X49544463Y4280506D01*
X49623815Y4183815D01*
X49720506Y4104463D01*
X49830820Y4045498D01*
X49950518Y4009188D01*
X50075000Y3996928D01*
X53275000Y3996928D01*
X53399482Y4009188D01*
X53519180Y4045498D01*
X53629494Y4104463D01*
X53726185Y4183815D01*
X53805537Y4280506D01*
X53864502Y4390820D01*
X53900812Y4510518D01*
X53913072Y4635000D01*
X53913072Y7835000D01*
X53900812Y7959482D01*
X53864502Y8079180D01*
X53805537Y8189494D01*
X53726185Y8286185D01*
X53629494Y8365537D01*
X53519180Y8424502D01*
X53399482Y8460812D01*
X53275000Y8473072D01*
X50075000Y8473072D01*
X49950518Y8460812D01*
X49830820Y8424502D01*
X49720506Y8365537D01*
X49623815Y8286185D01*
X49544463Y8189494D01*
X49485498Y8079180D01*
X49449188Y7959482D01*
X49436928Y7835000D01*
X37986911Y7835000D01*
X37709184Y8071217D01*
X37326473Y8284516D01*
X36909503Y8419053D01*
X36562000Y8307642D01*
X36308000Y8307642D01*
X35960497Y8419053D01*
X35543527Y8284516D01*
X35160816Y8071217D01*
X34827071Y7787354D01*
X34555118Y7443835D01*
X34355407Y7053861D01*
X34250950Y6709503D01*
X26969902Y6709503D01*
X27036912Y6722832D01*
X27334463Y6846082D01*
X27602252Y7025013D01*
X27829987Y7252748D01*
X28008918Y7520537D01*
X28132168Y7818088D01*
X28195000Y8133967D01*
X28195000Y8456033D01*
X28132168Y8771912D01*
X28008918Y9069463D01*
X27829987Y9337252D01*
X27602252Y9564987D01*
X27334463Y9743918D01*
X27036912Y9867168D01*
X26721033Y9930000D01*
X26398967Y9930000D01*
X26083088Y9867168D01*
X26034736Y9847140D01*
X26045000Y9898740D01*
X26045000Y10191260D01*
X25987932Y10478158D01*
X25875990Y10748411D01*
X25713475Y10991632D01*
X25506632Y11198475D01*
X25263411Y11360990D01*
X24993158Y11472932D01*
X24706260Y11530000D01*
X24413740Y11530000D01*
X24126842Y11472932D01*
X23856589Y11360990D01*
X23613368Y11198475D01*
X23406525Y10991632D01*
X23244010Y10748411D01*
X23132068Y10478158D01*
X23075000Y10191260D01*
X22045000Y10191260D01*
X21987932Y10478158D01*
X21875990Y10748411D01*
X21713475Y10991632D01*
X21506632Y11198475D01*
X21263411Y11360990D01*
X20993158Y11472932D01*
X20706260Y11530000D01*
X20413740Y11530000D01*
X20126842Y11472932D01*
X19856589Y11360990D01*
X19613368Y11198475D01*
X19406525Y10991632D01*
X19244010Y10748411D01*
X19132068Y10478158D01*
X19075000Y10191260D01*
X18045000Y10191260D01*
X17987932Y10478158D01*
X17875990Y10748411D01*
X17713475Y10991632D01*
X17506632Y11198475D01*
X17263411Y11360990D01*
X16993158Y11472932D01*
X16706260Y11530000D01*
X16413740Y11530000D01*
X16126842Y11472932D01*
X15856589Y11360990D01*
X15613368Y11198475D01*
X15406525Y10991632D01*
X15244010Y10748411D01*
X15132068Y10478158D01*
X15075000Y10191260D01*
X15075000Y9898740D01*
X15085264Y9847140D01*
X15036912Y9867168D01*
X14721033Y9930000D01*
X14398967Y9930000D01*
X14083088Y9867168D01*
X13785537Y9743918D01*
X13517748Y9564987D01*
X13290013Y9337252D01*
X13111082Y9069463D01*
X12987832Y8771912D01*
X12925000Y8456033D01*
X12167124Y8456033D01*
X12306641Y8643080D01*
X12431825Y8905901D01*
X12476476Y9053110D01*
X12355155Y9283000D01*
X11162000Y9283000D01*
X10908000Y9283000D01*
X9714845Y9283000D01*
X9593524Y9053110D01*
X8311445Y9053110D01*
X8398533Y9183446D01*
X8687623Y9881372D01*
X8835000Y10622285D01*
X8835000Y11377715D01*
X8687623Y12118628D01*
X8405390Y12800000D01*
X9546928Y12800000D01*
X9546928Y11100000D01*
X9559188Y10975518D01*
X9595498Y10855820D01*
X9654463Y10745506D01*
X9733815Y10648815D01*
X9830506Y10569463D01*
X9940820Y10510498D01*
X10021466Y10486034D01*
X9937412Y10410269D01*
X9763359Y10176920D01*
X9638175Y9914099D01*
X9593524Y9766890D01*
X9714845Y9537000D01*
X10908000Y9537000D01*
X10908000Y9557000D01*
X11162000Y9557000D01*
X11162000Y9537000D01*
X12355155Y9537000D01*
X12476476Y9766890D01*
X12431825Y9914099D01*
X12306641Y10176920D01*
X12132588Y10410269D01*
X12048534Y10486034D01*
X12129180Y10510498D01*
X12239494Y10569463D01*
X12336185Y10648815D01*
X12415537Y10745506D01*
X12474502Y10855820D01*
X12510812Y10975518D01*
X12523072Y11100000D01*
X12523072Y11974488D01*
X29914783Y11974488D01*
X29956213Y11694870D01*
X30051397Y11428708D01*
X30116616Y11306691D01*
X30103815Y11296185D01*
X30024463Y11199494D01*
X29965498Y11089180D01*
X29929188Y10969482D01*
X29916928Y10845000D01*
X29916928Y9245000D01*
X29929188Y9120518D01*
X29965498Y9000820D01*
X30024463Y8890506D01*
X30103815Y8793815D01*
X30200506Y8714463D01*
X30310820Y8655498D01*
X30430518Y8619188D01*
X30555000Y8606928D01*
X32155000Y8606928D01*
X32279482Y8619188D01*
X32399180Y8655498D01*
X32509494Y8714463D01*
X32606185Y8793815D01*
X32685537Y8890506D01*
X32699343Y8916335D01*
X54050000Y8916335D01*
X54050000Y8633665D01*
X54105147Y8356426D01*
X54213320Y8095273D01*
X54370363Y7860241D01*
X54570241Y7660363D01*
X54802759Y7505000D01*
X54570241Y7349637D01*
X54370363Y7149759D01*
X54213320Y6914727D01*
X54105147Y6653574D01*
X54050000Y6376335D01*
X54050000Y6093665D01*
X54105147Y5816426D01*
X54213320Y5555273D01*
X54370363Y5320241D01*
X54570241Y5120363D01*
X54805273Y4963320D01*
X55066426Y4855147D01*
X55343665Y4800000D01*
X55626335Y4800000D01*
X55903574Y4855147D01*
X56164727Y4963320D01*
X56399759Y5120363D01*
X56599637Y5320241D01*
X56756680Y5555273D01*
X56864853Y5816426D01*
X56920000Y6093665D01*
X56920000Y6376335D01*
X56864853Y6653574D01*
X56756680Y6914727D01*
X56676317Y7035000D01*
X61666928Y7035000D01*
X61666928Y5435000D01*
X61679188Y5310518D01*
X61715498Y5190820D01*
X61774463Y5080506D01*
X61853815Y4983815D01*
X61950506Y4904463D01*
X62060820Y4845498D01*
X62180518Y4809188D01*
X62305000Y4796928D01*
X63905000Y4796928D01*
X64029482Y4809188D01*
X64149180Y4845498D01*
X64259494Y4904463D01*
X64356185Y4983815D01*
X64435537Y5080506D01*
X64494502Y5190820D01*
X64530812Y5310518D01*
X64543072Y5435000D01*
X64543072Y7035000D01*
X64532674Y7140581D01*
X67520000Y7140581D01*
X67520000Y6759419D01*
X67594361Y6385581D01*
X67740225Y6033434D01*
X67951987Y5716509D01*
X68221509Y5446987D01*
X68538434Y5235225D01*
X68890581Y5089361D01*
X69264419Y5015000D01*
X69645581Y5015000D01*
X70019419Y5089361D01*
X70237243Y5179587D01*
X78659192Y5179587D01*
X78754956Y4915186D01*
X79044571Y4774296D01*
X79356108Y4692616D01*
X79677595Y4673282D01*
X79996675Y4717039D01*
X80301088Y4822205D01*
X80475044Y4915186D01*
X80544276Y5106335D01*
X84530000Y5106335D01*
X84530000Y4823665D01*
X84585147Y4546426D01*
X84693320Y4285273D01*
X84850363Y4050241D01*
X85050241Y3850363D01*
X85285273Y3693320D01*
X85546426Y3585147D01*
X85823665Y3530000D01*
X86106335Y3530000D01*
X86383574Y3585147D01*
X86644727Y3693320D01*
X86879759Y3850363D01*
X87079637Y4050241D01*
X87236680Y4285273D01*
X87344853Y4546426D01*
X87400000Y4823665D01*
X87400000Y5106335D01*
X94690000Y5106335D01*
X94690000Y4823665D01*
X94745147Y4546426D01*
X94853320Y4285273D01*
X95010363Y4050241D01*
X95210241Y3850363D01*
X95445273Y3693320D01*
X95706426Y3585147D01*
X95983665Y3530000D01*
X96266335Y3530000D01*
X96543574Y3585147D01*
X96804727Y3693320D01*
X97039759Y3850363D01*
X97239637Y4050241D01*
X97396680Y4285273D01*
X97504853Y4546426D01*
X97560000Y4823665D01*
X97560000Y5106335D01*
X97504853Y5383574D01*
X97396680Y5644727D01*
X97239637Y5879759D01*
X97039759Y6079637D01*
X96804727Y6236680D01*
X96543574Y6344853D01*
X96266335Y6400000D01*
X95983665Y6400000D01*
X95706426Y6344853D01*
X95445273Y6236680D01*
X95210241Y6079637D01*
X95010363Y5879759D01*
X94853320Y5644727D01*
X94745147Y5383574D01*
X94690000Y5106335D01*
X87400000Y5106335D01*
X87344853Y5383574D01*
X87236680Y5644727D01*
X87079637Y5879759D01*
X86879759Y6079637D01*
X86644727Y6236680D01*
X86383574Y6344853D01*
X86106335Y6400000D01*
X85823665Y6400000D01*
X85546426Y6344853D01*
X85285273Y6236680D01*
X85050241Y6079637D01*
X84850363Y5879759D01*
X84693320Y5644727D01*
X84585147Y5383574D01*
X84530000Y5106335D01*
X80544276Y5106335D01*
X80570808Y5179587D01*
X79615000Y6135395D01*
X78659192Y5179587D01*
X70237243Y5179587D01*
X70371566Y5235225D01*
X70688491Y5446987D01*
X70958013Y5716509D01*
X71169775Y6033434D01*
X71260475Y6252405D01*
X77973282Y6252405D01*
X78017039Y5933325D01*
X78122205Y5628912D01*
X78215186Y5454956D01*
X78479587Y5359192D01*
X79435395Y6315000D01*
X79794605Y6315000D01*
X80750413Y5359192D01*
X81014814Y5454956D01*
X81155704Y5744571D01*
X81237384Y6056108D01*
X81256718Y6377595D01*
X81212961Y6696675D01*
X81107795Y7001088D01*
X81014814Y7175044D01*
X80750413Y7270808D01*
X79794605Y6315000D01*
X79435395Y6315000D01*
X78479587Y7270808D01*
X78215186Y7175044D01*
X78074296Y6885429D01*
X77992616Y6573892D01*
X77973282Y6252405D01*
X71260475Y6252405D01*
X71315639Y6385581D01*
X71390000Y6759419D01*
X71390000Y7140581D01*
X71328371Y7450413D01*
X78659192Y7450413D01*
X79615000Y6494605D01*
X80570808Y7450413D01*
X80475044Y7714814D01*
X80185429Y7855704D01*
X79873892Y7937384D01*
X79552405Y7956718D01*
X79233325Y7912961D01*
X78928912Y7807795D01*
X78754956Y7714814D01*
X78659192Y7450413D01*
X71328371Y7450413D01*
X71315639Y7514419D01*
X71169775Y7866566D01*
X70958013Y8183491D01*
X70688491Y8453013D01*
X70371566Y8664775D01*
X70019419Y8810639D01*
X69645581Y8885000D01*
X69264419Y8885000D01*
X68890581Y8810639D01*
X68538434Y8664775D01*
X68221509Y8453013D01*
X67951987Y8183491D01*
X67740225Y7866566D01*
X67594361Y7514419D01*
X67520000Y7140581D01*
X64532674Y7140581D01*
X64530812Y7159482D01*
X64494502Y7279180D01*
X64435537Y7389494D01*
X64356185Y7486185D01*
X64259494Y7565537D01*
X64149180Y7624502D01*
X64029482Y7660812D01*
X64021039Y7661643D01*
X64219637Y7860241D01*
X64376680Y8095273D01*
X64484853Y8356426D01*
X64540000Y8633665D01*
X64540000Y8916335D01*
X64484853Y9193574D01*
X64376680Y9454727D01*
X64219637Y9689759D01*
X64019759Y9889637D01*
X63787241Y10045000D01*
X64019759Y10200363D01*
X64219637Y10400241D01*
X64376680Y10635273D01*
X64484853Y10896426D01*
X64540000Y11173665D01*
X64540000Y11456335D01*
X64484853Y11733574D01*
X64376680Y11994727D01*
X64279224Y12140581D01*
X67520000Y12140581D01*
X67520000Y11759419D01*
X67594361Y11385581D01*
X67740225Y11033434D01*
X67951987Y10716509D01*
X68221509Y10446987D01*
X68538434Y10235225D01*
X68890581Y10089361D01*
X69264419Y10015000D01*
X69645581Y10015000D01*
X70019419Y10089361D01*
X70371566Y10235225D01*
X70688491Y10446987D01*
X70958013Y10716509D01*
X71169775Y11033434D01*
X71315639Y11385581D01*
X71390000Y11759419D01*
X71390000Y12140581D01*
X71355306Y12315000D01*
X77976928Y12315000D01*
X77976928Y10315000D01*
X77989188Y10190518D01*
X78025498Y10070820D01*
X78084463Y9960506D01*
X78163815Y9863815D01*
X78260506Y9784463D01*
X78370820Y9725498D01*
X78490518Y9689188D01*
X78615000Y9676928D01*
X80615000Y9676928D01*
X80739482Y9689188D01*
X80859180Y9725498D01*
X80969494Y9784463D01*
X81066185Y9863815D01*
X81145537Y9960506D01*
X81204502Y10070820D01*
X81240812Y10190518D01*
X81253072Y10315000D01*
X81253072Y10819500D01*
X85295428Y10819500D01*
X85307688Y10695018D01*
X85343998Y10575320D01*
X85402963Y10465006D01*
X85482315Y10368315D01*
X85579006Y10288963D01*
X85689320Y10229998D01*
X85809018Y10193688D01*
X85933500Y10181428D01*
X86397750Y10184500D01*
X86556500Y10343250D01*
X86556500Y11442500D01*
X85457250Y11442500D01*
X85298500Y11283750D01*
X85295428Y10819500D01*
X81253072Y10819500D01*
X81253072Y12315000D01*
X81252629Y12319500D01*
X85295428Y12319500D01*
X85298500Y11855250D01*
X85457250Y11696500D01*
X86556500Y11696500D01*
X86556500Y12795750D01*
X86810500Y12795750D01*
X86810500Y11696500D01*
X86830500Y11696500D01*
X86830500Y11442500D01*
X86810500Y11442500D01*
X86810500Y10343250D01*
X86969250Y10184500D01*
X87433500Y10181428D01*
X87557982Y10193688D01*
X87677680Y10229998D01*
X87787994Y10288963D01*
X87884685Y10368315D01*
X87964037Y10465006D01*
X88023002Y10575320D01*
X88059312Y10695018D01*
X88064807Y10750810D01*
X88107701Y10686614D01*
X88300614Y10493701D01*
X88527457Y10342129D01*
X88779511Y10237725D01*
X89047089Y10184500D01*
X89319911Y10184500D01*
X89587489Y10237725D01*
X89839543Y10342129D01*
X90066386Y10493701D01*
X90259299Y10686614D01*
X90410871Y10913457D01*
X90515275Y11165511D01*
X90557485Y11377715D01*
X91165000Y11377715D01*
X91165000Y10622285D01*
X91312377Y9881372D01*
X91601467Y9183446D01*
X92021161Y8555330D01*
X92555330Y8021161D01*
X93183446Y7601467D01*
X93881372Y7312377D01*
X94622285Y7165000D01*
X95377715Y7165000D01*
X96118628Y7312377D01*
X96816554Y7601467D01*
X97444670Y8021161D01*
X97978839Y8555330D01*
X98398533Y9183446D01*
X98687623Y9881372D01*
X98835000Y10622285D01*
X98835000Y11377715D01*
X98687623Y12118628D01*
X98398533Y12816554D01*
X97978839Y13444670D01*
X97444670Y13978839D01*
X96816554Y14398533D01*
X96118628Y14687623D01*
X95377715Y14835000D01*
X94622285Y14835000D01*
X93881372Y14687623D01*
X93183446Y14398533D01*
X92555330Y13978839D01*
X92021161Y13444670D01*
X91601467Y12816554D01*
X91312377Y12118628D01*
X91165000Y11377715D01*
X90557485Y11377715D01*
X90568500Y11433089D01*
X90568500Y11705911D01*
X90515275Y11973489D01*
X90410871Y12225543D01*
X90259299Y12452386D01*
X90066386Y12645299D01*
X89839543Y12796871D01*
X89587489Y12901275D01*
X89319911Y12954500D01*
X89047089Y12954500D01*
X88779511Y12901275D01*
X88527457Y12796871D01*
X88300614Y12645299D01*
X88107701Y12452386D01*
X88064807Y12388190D01*
X88059312Y12443982D01*
X88023002Y12563680D01*
X87964037Y12673994D01*
X87884685Y12770685D01*
X87787994Y12850037D01*
X87677680Y12909002D01*
X87557982Y12945312D01*
X87433500Y12957572D01*
X86969250Y12954500D01*
X86810500Y12795750D01*
X86556500Y12795750D01*
X86397750Y12954500D01*
X85933500Y12957572D01*
X85809018Y12945312D01*
X85689320Y12909002D01*
X85579006Y12850037D01*
X85482315Y12770685D01*
X85402963Y12673994D01*
X85343998Y12563680D01*
X85307688Y12443982D01*
X85295428Y12319500D01*
X81252629Y12319500D01*
X81240812Y12439482D01*
X81204502Y12559180D01*
X81145537Y12669494D01*
X81066185Y12766185D01*
X80969494Y12845537D01*
X80859180Y12904502D01*
X80739482Y12940812D01*
X80615000Y12953072D01*
X78615000Y12953072D01*
X78490518Y12940812D01*
X78370820Y12904502D01*
X78260506Y12845537D01*
X78163815Y12766185D01*
X78084463Y12669494D01*
X78025498Y12559180D01*
X77989188Y12439482D01*
X77976928Y12315000D01*
X71355306Y12315000D01*
X71315639Y12514419D01*
X71169775Y12866566D01*
X70958013Y13183491D01*
X70688491Y13453013D01*
X70371566Y13664775D01*
X70019419Y13810639D01*
X69645581Y13885000D01*
X69264419Y13885000D01*
X68890581Y13810639D01*
X68538434Y13664775D01*
X68221509Y13453013D01*
X67951987Y13183491D01*
X67740225Y12866566D01*
X67594361Y12514419D01*
X67520000Y12140581D01*
X64279224Y12140581D01*
X64219637Y12229759D01*
X64019759Y12429637D01*
X63787241Y12585000D01*
X64019759Y12740363D01*
X64219637Y12940241D01*
X64376680Y13175273D01*
X64484853Y13436426D01*
X64540000Y13713665D01*
X64540000Y13996335D01*
X64484853Y14273574D01*
X64376680Y14534727D01*
X64219637Y14769759D01*
X64019759Y14969637D01*
X63784727Y15126680D01*
X63523574Y15234853D01*
X63246335Y15290000D01*
X62963665Y15290000D01*
X62686426Y15234853D01*
X62425273Y15126680D01*
X62190241Y14969637D01*
X61990363Y14769759D01*
X61833320Y14534727D01*
X61725147Y14273574D01*
X61670000Y13996335D01*
X61670000Y13713665D01*
X61725147Y13436426D01*
X61833320Y13175273D01*
X61990363Y12940241D01*
X62190241Y12740363D01*
X62422759Y12585000D01*
X62190241Y12429637D01*
X61990363Y12229759D01*
X61833320Y11994727D01*
X61725147Y11733574D01*
X61670000Y11456335D01*
X61670000Y11173665D01*
X61725147Y10896426D01*
X61833320Y10635273D01*
X61990363Y10400241D01*
X62190241Y10200363D01*
X62422759Y10045000D01*
X62190241Y9889637D01*
X61990363Y9689759D01*
X61833320Y9454727D01*
X61725147Y9193574D01*
X61670000Y8916335D01*
X61670000Y8633665D01*
X61725147Y8356426D01*
X61833320Y8095273D01*
X61990363Y7860241D01*
X62188961Y7661643D01*
X62180518Y7660812D01*
X62060820Y7624502D01*
X61950506Y7565537D01*
X61853815Y7486185D01*
X61774463Y7389494D01*
X61715498Y7279180D01*
X61679188Y7159482D01*
X61666928Y7035000D01*
X56676317Y7035000D01*
X56599637Y7149759D01*
X56399759Y7349637D01*
X56167241Y7505000D01*
X56399759Y7660363D01*
X56599637Y7860241D01*
X56756680Y8095273D01*
X56864853Y8356426D01*
X56920000Y8633665D01*
X56920000Y8916335D01*
X56864853Y9193574D01*
X56756680Y9454727D01*
X56599637Y9689759D01*
X56399759Y9889637D01*
X56164727Y10046680D01*
X56154135Y10051067D01*
X56340131Y10162615D01*
X56548519Y10351586D01*
X56716037Y10577580D01*
X56836246Y10831913D01*
X56876904Y10965961D01*
X56754915Y11188000D01*
X55612000Y11188000D01*
X55612000Y11168000D01*
X55358000Y11168000D01*
X55358000Y11188000D01*
X54215085Y11188000D01*
X54093096Y10965961D01*
X54133754Y10831913D01*
X54253963Y10577580D01*
X54421481Y10351586D01*
X54629869Y10162615D01*
X54815865Y10051067D01*
X54805273Y10046680D01*
X54570241Y9889637D01*
X54370363Y9689759D01*
X54213320Y9454727D01*
X54105147Y9193574D01*
X54050000Y8916335D01*
X32699343Y8916335D01*
X32744502Y9000820D01*
X32780812Y9120518D01*
X32793072Y9245000D01*
X32793072Y10845000D01*
X32780812Y10969482D01*
X32744502Y11089180D01*
X32685537Y11199494D01*
X32606185Y11296185D01*
X32593242Y11306807D01*
X32712571Y11558996D01*
X32720918Y11592298D01*
X46496903Y11592298D01*
X46568486Y11348329D01*
X46823996Y11227429D01*
X47098184Y11158700D01*
X47380512Y11144783D01*
X47660130Y11186213D01*
X47926292Y11281397D01*
X48051514Y11348329D01*
X48123097Y11592298D01*
X47310000Y12405395D01*
X46496903Y11592298D01*
X32720918Y11592298D01*
X32781300Y11833184D01*
X32795217Y12115512D01*
X32753787Y12395130D01*
X32711103Y12514488D01*
X45869783Y12514488D01*
X45911213Y12234870D01*
X46006397Y11968708D01*
X46073329Y11843486D01*
X46317298Y11771903D01*
X47130395Y12585000D01*
X47489605Y12585000D01*
X48302702Y11771903D01*
X48546671Y11843486D01*
X48667571Y12098996D01*
X48736300Y12373184D01*
X48750217Y12655512D01*
X48739724Y12726335D01*
X50875000Y12726335D01*
X50875000Y12443665D01*
X50930147Y12166426D01*
X51038320Y11905273D01*
X51195363Y11670241D01*
X51395241Y11470363D01*
X51630273Y11313320D01*
X51891426Y11205147D01*
X52168665Y11150000D01*
X52451335Y11150000D01*
X52728574Y11205147D01*
X52989727Y11313320D01*
X53224759Y11470363D01*
X53424637Y11670241D01*
X53581680Y11905273D01*
X53689853Y12166426D01*
X53745000Y12443665D01*
X53745000Y12726335D01*
X53689853Y13003574D01*
X53581680Y13264727D01*
X53424637Y13499759D01*
X53224759Y13699637D01*
X52989727Y13856680D01*
X52728574Y13964853D01*
X52570306Y13996335D01*
X54050000Y13996335D01*
X54050000Y13713665D01*
X54105147Y13436426D01*
X54213320Y13175273D01*
X54370363Y12940241D01*
X54570241Y12740363D01*
X54805273Y12583320D01*
X54815865Y12578933D01*
X54629869Y12467385D01*
X54421481Y12278414D01*
X54253963Y12052420D01*
X54133754Y11798087D01*
X54093096Y11664039D01*
X54215085Y11442000D01*
X55358000Y11442000D01*
X55358000Y11462000D01*
X55612000Y11462000D01*
X55612000Y11442000D01*
X56754915Y11442000D01*
X56876904Y11664039D01*
X56836246Y11798087D01*
X56716037Y12052420D01*
X56548519Y12278414D01*
X56340131Y12467385D01*
X56154135Y12578933D01*
X56164727Y12583320D01*
X56399759Y12740363D01*
X56599637Y12940241D01*
X56756680Y13175273D01*
X56864853Y13436426D01*
X56920000Y13713665D01*
X56920000Y13996335D01*
X56864853Y14273574D01*
X56756680Y14534727D01*
X56599637Y14769759D01*
X56399759Y14969637D01*
X56164727Y15126680D01*
X55903574Y15234853D01*
X55626335Y15290000D01*
X55343665Y15290000D01*
X55066426Y15234853D01*
X54805273Y15126680D01*
X54570241Y14969637D01*
X54370363Y14769759D01*
X54213320Y14534727D01*
X54105147Y14273574D01*
X54050000Y13996335D01*
X52570306Y13996335D01*
X52451335Y14020000D01*
X52168665Y14020000D01*
X51891426Y13964853D01*
X51630273Y13856680D01*
X51395241Y13699637D01*
X51195363Y13499759D01*
X51038320Y13264727D01*
X50930147Y13003574D01*
X50875000Y12726335D01*
X48739724Y12726335D01*
X48708787Y12935130D01*
X48613603Y13201292D01*
X48546671Y13326514D01*
X48302702Y13398097D01*
X47489605Y12585000D01*
X47130395Y12585000D01*
X46317298Y13398097D01*
X46073329Y13326514D01*
X45952429Y13071004D01*
X45883700Y12796816D01*
X45869783Y12514488D01*
X32711103Y12514488D01*
X32658603Y12661292D01*
X32591671Y12786514D01*
X32347702Y12858097D01*
X31534605Y12045000D01*
X31548748Y12030857D01*
X31369143Y11851252D01*
X31355000Y11865395D01*
X31340858Y11851252D01*
X31161253Y12030857D01*
X31175395Y12045000D01*
X30362298Y12858097D01*
X30118329Y12786514D01*
X29997429Y12531004D01*
X29928700Y12256816D01*
X29914783Y11974488D01*
X12523072Y11974488D01*
X12523072Y12800000D01*
X12510812Y12924482D01*
X12474502Y13044180D01*
X12415537Y13154494D01*
X12336185Y13251185D01*
X12239494Y13330537D01*
X12129180Y13389502D01*
X12009482Y13425812D01*
X11885000Y13438072D01*
X10185000Y13438072D01*
X10060518Y13425812D01*
X9940820Y13389502D01*
X9830506Y13330537D01*
X9733815Y13251185D01*
X9654463Y13154494D01*
X9595498Y13044180D01*
X9559188Y12924482D01*
X9546928Y12800000D01*
X8405390Y12800000D01*
X8398533Y12816554D01*
X7978839Y13444670D01*
X7444670Y13978839D01*
X6816554Y14398533D01*
X6118628Y14687623D01*
X5377715Y14835000D01*
X4622285Y14835000D01*
X3881372Y14687623D01*
X3183446Y14398533D01*
X2555330Y13978839D01*
X2021161Y13444670D01*
X1601467Y12816554D01*
X1312377Y12118628D01*
X1165000Y11377715D01*
X660000Y11377715D01*
X660000Y15340000D01*
X13292761Y15340000D01*
X13290013Y15337252D01*
G37*
X13290013Y15337252D02*
X13111082Y15069463D01*
X12987832Y14771912D01*
X12925000Y14456033D01*
X12925000Y14133967D01*
X12987832Y13818088D01*
X13111082Y13520537D01*
X13290013Y13252748D01*
X13517748Y13025013D01*
X13785537Y12846082D01*
X14083088Y12722832D01*
X14398967Y12660000D01*
X14721033Y12660000D01*
X15036912Y12722832D01*
X15334463Y12846082D01*
X15602252Y13025013D01*
X15829987Y13252748D01*
X16008918Y13520537D01*
X16132168Y13818088D01*
X16195000Y14133967D01*
X16195000Y14456033D01*
X16132168Y14771912D01*
X16008918Y15069463D01*
X15829987Y15337252D01*
X15827239Y15340000D01*
X25292761Y15340000D01*
X25290013Y15337252D01*
X25111082Y15069463D01*
X24987832Y14771912D01*
X24925000Y14456033D01*
X24925000Y14133967D01*
X24987832Y13818088D01*
X25111082Y13520537D01*
X25290013Y13252748D01*
X25517748Y13025013D01*
X25785537Y12846082D01*
X26083088Y12722832D01*
X26398967Y12660000D01*
X26721033Y12660000D01*
X27036912Y12722832D01*
X27334463Y12846082D01*
X27602252Y13025013D01*
X27614941Y13037702D01*
X30541903Y13037702D01*
X31355000Y12224605D01*
X32168097Y13037702D01*
X32096514Y13281671D01*
X31841004Y13402571D01*
X31566816Y13471300D01*
X31284488Y13485217D01*
X31004870Y13443787D01*
X30738708Y13348603D01*
X30613486Y13281671D01*
X30541903Y13037702D01*
X27614941Y13037702D01*
X27829987Y13252748D01*
X28008918Y13520537D01*
X28032596Y13577702D01*
X46496903Y13577702D01*
X47310000Y12764605D01*
X48123097Y13577702D01*
X48051514Y13821671D01*
X47796004Y13942571D01*
X47521816Y14011300D01*
X47239488Y14025217D01*
X46959870Y13983787D01*
X46693708Y13888603D01*
X46568486Y13821671D01*
X46496903Y13577702D01*
X28032596Y13577702D01*
X28132168Y13818088D01*
X28195000Y14133967D01*
X28195000Y14456033D01*
X28132168Y14771912D01*
X28008918Y15069463D01*
X27829987Y15337252D01*
X27827239Y15340000D01*
X99340000Y15340000D01*
X99340001Y660000D01*
X660000Y660000D01*
X660000Y2566335D01*
X55320000Y2566335D01*
X55320000Y2283665D01*
X55375147Y2006426D01*
X55483320Y1745273D01*
X55640363Y1510241D01*
X55840241Y1310363D01*
X56075273Y1153320D01*
X56336426Y1045147D01*
X56613665Y990000D01*
X56896335Y990000D01*
X57173574Y1045147D01*
X57434727Y1153320D01*
X57669759Y1310363D01*
X57869637Y1510241D01*
X58026680Y1745273D01*
X58134853Y2006426D01*
X58190000Y2283665D01*
X58190000Y2566335D01*
X60320000Y2566335D01*
X60320000Y2283665D01*
X60375147Y2006426D01*
X60483320Y1745273D01*
X60640363Y1510241D01*
X60840241Y1310363D01*
X61075273Y1153320D01*
X61336426Y1045147D01*
X61613665Y990000D01*
X61896335Y990000D01*
X62173574Y1045147D01*
X62434727Y1153320D01*
X62669759Y1310363D01*
X62869637Y1510241D01*
X63026680Y1745273D01*
X63134853Y2006426D01*
X63190000Y2283665D01*
X63190000Y2322109D01*
X68013519Y2322109D01*
X68110843Y2047748D01*
X68259822Y1797645D01*
X68454731Y1581412D01*
X68688080Y1407359D01*
X68950901Y1282175D01*
X69098110Y1237524D01*
X69328000Y1358845D01*
X69328000Y2552000D01*
X68134186Y2552000D01*
X68013519Y2322109D01*
X63190000Y2322109D01*
X63190000Y2566335D01*
X63134853Y2843574D01*
X63055193Y3035891D01*
X68013519Y3035891D01*
X68134186Y2806000D01*
X69328000Y2806000D01*
X69328000Y3999155D01*
X69582000Y3999155D01*
X69582000Y2806000D01*
X69602000Y2806000D01*
X69602000Y2552000D01*
X69582000Y2552000D01*
X69582000Y1358845D01*
X69811890Y1237524D01*
X69959099Y1282175D01*
X70221920Y1407359D01*
X70455269Y1581412D01*
X70531034Y1665466D01*
X70555498Y1584820D01*
X70614463Y1474506D01*
X70693815Y1377815D01*
X70790506Y1298463D01*
X70900820Y1239498D01*
X71020518Y1203188D01*
X71145000Y1190928D01*
X72845000Y1190928D01*
X72969482Y1203188D01*
X73089180Y1239498D01*
X73199494Y1298463D01*
X73296185Y1377815D01*
X73375537Y1474506D01*
X73434502Y1584820D01*
X73470812Y1704518D01*
X73483072Y1829000D01*
X73483072Y3529000D01*
X73470812Y3653482D01*
X73434502Y3773180D01*
X73375537Y3883494D01*
X73296185Y3980185D01*
X73199494Y4059537D01*
X73089180Y4118502D01*
X72969482Y4154812D01*
X72845000Y4167072D01*
X71145000Y4167072D01*
X71020518Y4154812D01*
X70900820Y4118502D01*
X70790506Y4059537D01*
X70693815Y3980185D01*
X70614463Y3883494D01*
X70555498Y3773180D01*
X70531034Y3692534D01*
X70455269Y3776588D01*
X70221920Y3950641D01*
X69959099Y4075825D01*
X69811890Y4120476D01*
X69582000Y3999155D01*
X69328000Y3999155D01*
X69098110Y4120476D01*
X68950901Y4075825D01*
X68688080Y3950641D01*
X68454731Y3776588D01*
X68259822Y3560355D01*
X68110843Y3310252D01*
X68013519Y3035891D01*
X63055193Y3035891D01*
X63026680Y3104727D01*
X62869637Y3339759D01*
X62669759Y3539637D01*
X62434727Y3696680D01*
X62173574Y3804853D01*
X61896335Y3860000D01*
X61613665Y3860000D01*
X61336426Y3804853D01*
X61075273Y3696680D01*
X60840241Y3539637D01*
X60640363Y3339759D01*
X60483320Y3104727D01*
X60375147Y2843574D01*
X60320000Y2566335D01*
X58190000Y2566335D01*
X58134853Y2843574D01*
X58026680Y3104727D01*
X57869637Y3339759D01*
X57669759Y3539637D01*
X57434727Y3696680D01*
X57173574Y3804853D01*
X56896335Y3860000D01*
X56613665Y3860000D01*
X56336426Y3804853D01*
X56075273Y3696680D01*
X55840241Y3539637D01*
X55640363Y3339759D01*
X55483320Y3104727D01*
X55375147Y2843574D01*
X55320000Y2566335D01*
X660000Y2566335D01*
X660000Y5760497D01*
X34250950Y5760497D01*
X34355407Y5416139D01*
X34555118Y5026165D01*
X34827071Y4682646D01*
X35160816Y4398783D01*
X35543527Y4185484D01*
X35960497Y4050947D01*
X36308000Y4162358D01*
X36308000Y6108000D01*
X36562000Y6108000D01*
X36562000Y4162358D01*
X36909503Y4050947D01*
X37326473Y4185484D01*
X37709184Y4398783D01*
X38042929Y4682646D01*
X38314882Y5026165D01*
X38514593Y5416139D01*
X38619050Y5760497D01*
X38507362Y6108000D01*
X36562000Y6108000D01*
X36308000Y6108000D01*
X34362638Y6108000D01*
X34250950Y5760497D01*
X660000Y5760497D01*
X660000Y11377715D01*
X1165000Y11377715D01*
X1165000Y10622285D01*
X1312377Y9881372D01*
X1601467Y9183446D01*
X2021161Y8555330D01*
X2555330Y8021161D01*
X3183446Y7601467D01*
X3881372Y7312377D01*
X4622285Y7165000D01*
X5377715Y7165000D01*
X6118628Y7312377D01*
X6816554Y7601467D01*
X7444670Y8021161D01*
X7978839Y8555330D01*
X8311445Y9053110D01*
X9593524Y9053110D01*
X9638175Y8905901D01*
X9763359Y8643080D01*
X9937412Y8409731D01*
X10153645Y8214822D01*
X10403748Y8065843D01*
X10678109Y7968519D01*
X10908000Y8089186D01*
X10908000Y9283000D01*
X11162000Y9283000D01*
X11162000Y8089186D01*
X11391891Y7968519D01*
X11666252Y8065843D01*
X11916355Y8214822D01*
X12132588Y8409731D01*
X12167124Y8456033D01*
X12925000Y8456033D01*
X12925000Y8133967D01*
X12987832Y7818088D01*
X13111082Y7520537D01*
X13290013Y7252748D01*
X13517748Y7025013D01*
X13785537Y6846082D01*
X14083088Y6722832D01*
X14398967Y6660000D01*
X14721033Y6660000D01*
X15036912Y6722832D01*
X15334463Y6846082D01*
X15602252Y7025013D01*
X15829987Y7252748D01*
X16008918Y7520537D01*
X16132168Y7818088D01*
X16195000Y8133967D01*
X16195000Y8456033D01*
X16164457Y8609586D01*
X16413740Y8560000D01*
X16706260Y8560000D01*
X16993158Y8617068D01*
X17263411Y8729010D01*
X17506632Y8891525D01*
X17713475Y9098368D01*
X17875990Y9341589D01*
X17987932Y9611842D01*
X18045000Y9898740D01*
X18045000Y10191260D01*
X19075000Y10191260D01*
X19075000Y9898740D01*
X19132068Y9611842D01*
X19244010Y9341589D01*
X19406525Y9098368D01*
X19613368Y8891525D01*
X19856589Y8729010D01*
X20126842Y8617068D01*
X20413740Y8560000D01*
X20706260Y8560000D01*
X20993158Y8617068D01*
X21263411Y8729010D01*
X21506632Y8891525D01*
X21713475Y9098368D01*
X21875990Y9341589D01*
X21987932Y9611842D01*
X22045000Y9898740D01*
X22045000Y10191260D01*
X23075000Y10191260D01*
X23075000Y9898740D01*
X23132068Y9611842D01*
X23244010Y9341589D01*
X23406525Y9098368D01*
X23613368Y8891525D01*
X23856589Y8729010D01*
X24126842Y8617068D01*
X24413740Y8560000D01*
X24706260Y8560000D01*
X24955543Y8609586D01*
X24925000Y8456033D01*
X24925000Y8133967D01*
X24987832Y7818088D01*
X25111082Y7520537D01*
X25290013Y7252748D01*
X25517748Y7025013D01*
X25785537Y6846082D01*
X26083088Y6722832D01*
X26398967Y6660000D01*
X26721033Y6660000D01*
X26969902Y6709503D01*
X34250950Y6709503D01*
X34362638Y6362000D01*
X36308000Y6362000D01*
X36308000Y8307642D01*
X36562000Y8307642D01*
X36562000Y6362000D01*
X38507362Y6362000D01*
X38619050Y6709503D01*
X38514593Y7053861D01*
X38314882Y7443835D01*
X38042929Y7787354D01*
X37986911Y7835000D01*
X49436928Y7835000D01*
X49436928Y4635000D01*
X49449188Y4510518D01*
X49485498Y4390820D01*
X49544463Y4280506D01*
X49623815Y4183815D01*
X49720506Y4104463D01*
X49830820Y4045498D01*
X49950518Y4009188D01*
X50075000Y3996928D01*
X53275000Y3996928D01*
X53399482Y4009188D01*
X53519180Y4045498D01*
X53629494Y4104463D01*
X53726185Y4183815D01*
X53805537Y4280506D01*
X53864502Y4390820D01*
X53900812Y4510518D01*
X53913072Y4635000D01*
X53913072Y7835000D01*
X53900812Y7959482D01*
X53864502Y8079180D01*
X53805537Y8189494D01*
X53726185Y8286185D01*
X53629494Y8365537D01*
X53519180Y8424502D01*
X53399482Y8460812D01*
X53275000Y8473072D01*
X50075000Y8473072D01*
X49950518Y8460812D01*
X49830820Y8424502D01*
X49720506Y8365537D01*
X49623815Y8286185D01*
X49544463Y8189494D01*
X49485498Y8079180D01*
X49449188Y7959482D01*
X49436928Y7835000D01*
X37986911Y7835000D01*
X37709184Y8071217D01*
X37326473Y8284516D01*
X36909503Y8419053D01*
X36562000Y8307642D01*
X36308000Y8307642D01*
X35960497Y8419053D01*
X35543527Y8284516D01*
X35160816Y8071217D01*
X34827071Y7787354D01*
X34555118Y7443835D01*
X34355407Y7053861D01*
X34250950Y6709503D01*
X26969902Y6709503D01*
X27036912Y6722832D01*
X27334463Y6846082D01*
X27602252Y7025013D01*
X27829987Y7252748D01*
X28008918Y7520537D01*
X28132168Y7818088D01*
X28195000Y8133967D01*
X28195000Y8456033D01*
X28132168Y8771912D01*
X28008918Y9069463D01*
X27829987Y9337252D01*
X27602252Y9564987D01*
X27334463Y9743918D01*
X27036912Y9867168D01*
X26721033Y9930000D01*
X26398967Y9930000D01*
X26083088Y9867168D01*
X26034736Y9847140D01*
X26045000Y9898740D01*
X26045000Y10191260D01*
X25987932Y10478158D01*
X25875990Y10748411D01*
X25713475Y10991632D01*
X25506632Y11198475D01*
X25263411Y11360990D01*
X24993158Y11472932D01*
X24706260Y11530000D01*
X24413740Y11530000D01*
X24126842Y11472932D01*
X23856589Y11360990D01*
X23613368Y11198475D01*
X23406525Y10991632D01*
X23244010Y10748411D01*
X23132068Y10478158D01*
X23075000Y10191260D01*
X22045000Y10191260D01*
X21987932Y10478158D01*
X21875990Y10748411D01*
X21713475Y10991632D01*
X21506632Y11198475D01*
X21263411Y11360990D01*
X20993158Y11472932D01*
X20706260Y11530000D01*
X20413740Y11530000D01*
X20126842Y11472932D01*
X19856589Y11360990D01*
X19613368Y11198475D01*
X19406525Y10991632D01*
X19244010Y10748411D01*
X19132068Y10478158D01*
X19075000Y10191260D01*
X18045000Y10191260D01*
X17987932Y10478158D01*
X17875990Y10748411D01*
X17713475Y10991632D01*
X17506632Y11198475D01*
X17263411Y11360990D01*
X16993158Y11472932D01*
X16706260Y11530000D01*
X16413740Y11530000D01*
X16126842Y11472932D01*
X15856589Y11360990D01*
X15613368Y11198475D01*
X15406525Y10991632D01*
X15244010Y10748411D01*
X15132068Y10478158D01*
X15075000Y10191260D01*
X15075000Y9898740D01*
X15085264Y9847140D01*
X15036912Y9867168D01*
X14721033Y9930000D01*
X14398967Y9930000D01*
X14083088Y9867168D01*
X13785537Y9743918D01*
X13517748Y9564987D01*
X13290013Y9337252D01*
X13111082Y9069463D01*
X12987832Y8771912D01*
X12925000Y8456033D01*
X12167124Y8456033D01*
X12306641Y8643080D01*
X12431825Y8905901D01*
X12476476Y9053110D01*
X12355155Y9283000D01*
X11162000Y9283000D01*
X10908000Y9283000D01*
X9714845Y9283000D01*
X9593524Y9053110D01*
X8311445Y9053110D01*
X8398533Y9183446D01*
X8687623Y9881372D01*
X8835000Y10622285D01*
X8835000Y11377715D01*
X8687623Y12118628D01*
X8405390Y12800000D01*
X9546928Y12800000D01*
X9546928Y11100000D01*
X9559188Y10975518D01*
X9595498Y10855820D01*
X9654463Y10745506D01*
X9733815Y10648815D01*
X9830506Y10569463D01*
X9940820Y10510498D01*
X10021466Y10486034D01*
X9937412Y10410269D01*
X9763359Y10176920D01*
X9638175Y9914099D01*
X9593524Y9766890D01*
X9714845Y9537000D01*
X10908000Y9537000D01*
X10908000Y9557000D01*
X11162000Y9557000D01*
X11162000Y9537000D01*
X12355155Y9537000D01*
X12476476Y9766890D01*
X12431825Y9914099D01*
X12306641Y10176920D01*
X12132588Y10410269D01*
X12048534Y10486034D01*
X12129180Y10510498D01*
X12239494Y10569463D01*
X12336185Y10648815D01*
X12415537Y10745506D01*
X12474502Y10855820D01*
X12510812Y10975518D01*
X12523072Y11100000D01*
X12523072Y11974488D01*
X29914783Y11974488D01*
X29956213Y11694870D01*
X30051397Y11428708D01*
X30116616Y11306691D01*
X30103815Y11296185D01*
X30024463Y11199494D01*
X29965498Y11089180D01*
X29929188Y10969482D01*
X29916928Y10845000D01*
X29916928Y9245000D01*
X29929188Y9120518D01*
X29965498Y9000820D01*
X30024463Y8890506D01*
X30103815Y8793815D01*
X30200506Y8714463D01*
X30310820Y8655498D01*
X30430518Y8619188D01*
X30555000Y8606928D01*
X32155000Y8606928D01*
X32279482Y8619188D01*
X32399180Y8655498D01*
X32509494Y8714463D01*
X32606185Y8793815D01*
X32685537Y8890506D01*
X32699343Y8916335D01*
X54050000Y8916335D01*
X54050000Y8633665D01*
X54105147Y8356426D01*
X54213320Y8095273D01*
X54370363Y7860241D01*
X54570241Y7660363D01*
X54802759Y7505000D01*
X54570241Y7349637D01*
X54370363Y7149759D01*
X54213320Y6914727D01*
X54105147Y6653574D01*
X54050000Y6376335D01*
X54050000Y6093665D01*
X54105147Y5816426D01*
X54213320Y5555273D01*
X54370363Y5320241D01*
X54570241Y5120363D01*
X54805273Y4963320D01*
X55066426Y4855147D01*
X55343665Y4800000D01*
X55626335Y4800000D01*
X55903574Y4855147D01*
X56164727Y4963320D01*
X56399759Y5120363D01*
X56599637Y5320241D01*
X56756680Y5555273D01*
X56864853Y5816426D01*
X56920000Y6093665D01*
X56920000Y6376335D01*
X56864853Y6653574D01*
X56756680Y6914727D01*
X56676317Y7035000D01*
X61666928Y7035000D01*
X61666928Y5435000D01*
X61679188Y5310518D01*
X61715498Y5190820D01*
X61774463Y5080506D01*
X61853815Y4983815D01*
X61950506Y4904463D01*
X62060820Y4845498D01*
X62180518Y4809188D01*
X62305000Y4796928D01*
X63905000Y4796928D01*
X64029482Y4809188D01*
X64149180Y4845498D01*
X64259494Y4904463D01*
X64356185Y4983815D01*
X64435537Y5080506D01*
X64494502Y5190820D01*
X64530812Y5310518D01*
X64543072Y5435000D01*
X64543072Y7035000D01*
X64532674Y7140581D01*
X67520000Y7140581D01*
X67520000Y6759419D01*
X67594361Y6385581D01*
X67740225Y6033434D01*
X67951987Y5716509D01*
X68221509Y5446987D01*
X68538434Y5235225D01*
X68890581Y5089361D01*
X69264419Y5015000D01*
X69645581Y5015000D01*
X70019419Y5089361D01*
X70237243Y5179587D01*
X78659192Y5179587D01*
X78754956Y4915186D01*
X79044571Y4774296D01*
X79356108Y4692616D01*
X79677595Y4673282D01*
X79996675Y4717039D01*
X80301088Y4822205D01*
X80475044Y4915186D01*
X80544276Y5106335D01*
X84530000Y5106335D01*
X84530000Y4823665D01*
X84585147Y4546426D01*
X84693320Y4285273D01*
X84850363Y4050241D01*
X85050241Y3850363D01*
X85285273Y3693320D01*
X85546426Y3585147D01*
X85823665Y3530000D01*
X86106335Y3530000D01*
X86383574Y3585147D01*
X86644727Y3693320D01*
X86879759Y3850363D01*
X87079637Y4050241D01*
X87236680Y4285273D01*
X87344853Y4546426D01*
X87400000Y4823665D01*
X87400000Y5106335D01*
X94690000Y5106335D01*
X94690000Y4823665D01*
X94745147Y4546426D01*
X94853320Y4285273D01*
X95010363Y4050241D01*
X95210241Y3850363D01*
X95445273Y3693320D01*
X95706426Y3585147D01*
X95983665Y3530000D01*
X96266335Y3530000D01*
X96543574Y3585147D01*
X96804727Y3693320D01*
X97039759Y3850363D01*
X97239637Y4050241D01*
X97396680Y4285273D01*
X97504853Y4546426D01*
X97560000Y4823665D01*
X97560000Y5106335D01*
X97504853Y5383574D01*
X97396680Y5644727D01*
X97239637Y5879759D01*
X97039759Y6079637D01*
X96804727Y6236680D01*
X96543574Y6344853D01*
X96266335Y6400000D01*
X95983665Y6400000D01*
X95706426Y6344853D01*
X95445273Y6236680D01*
X95210241Y6079637D01*
X95010363Y5879759D01*
X94853320Y5644727D01*
X94745147Y5383574D01*
X94690000Y5106335D01*
X87400000Y5106335D01*
X87344853Y5383574D01*
X87236680Y5644727D01*
X87079637Y5879759D01*
X86879759Y6079637D01*
X86644727Y6236680D01*
X86383574Y6344853D01*
X86106335Y6400000D01*
X85823665Y6400000D01*
X85546426Y6344853D01*
X85285273Y6236680D01*
X85050241Y6079637D01*
X84850363Y5879759D01*
X84693320Y5644727D01*
X84585147Y5383574D01*
X84530000Y5106335D01*
X80544276Y5106335D01*
X80570808Y5179587D01*
X79615000Y6135395D01*
X78659192Y5179587D01*
X70237243Y5179587D01*
X70371566Y5235225D01*
X70688491Y5446987D01*
X70958013Y5716509D01*
X71169775Y6033434D01*
X71260475Y6252405D01*
X77973282Y6252405D01*
X78017039Y5933325D01*
X78122205Y5628912D01*
X78215186Y5454956D01*
X78479587Y5359192D01*
X79435395Y6315000D01*
X79794605Y6315000D01*
X80750413Y5359192D01*
X81014814Y5454956D01*
X81155704Y5744571D01*
X81237384Y6056108D01*
X81256718Y6377595D01*
X81212961Y6696675D01*
X81107795Y7001088D01*
X81014814Y7175044D01*
X80750413Y7270808D01*
X79794605Y6315000D01*
X79435395Y6315000D01*
X78479587Y7270808D01*
X78215186Y7175044D01*
X78074296Y6885429D01*
X77992616Y6573892D01*
X77973282Y6252405D01*
X71260475Y6252405D01*
X71315639Y6385581D01*
X71390000Y6759419D01*
X71390000Y7140581D01*
X71328371Y7450413D01*
X78659192Y7450413D01*
X79615000Y6494605D01*
X80570808Y7450413D01*
X80475044Y7714814D01*
X80185429Y7855704D01*
X79873892Y7937384D01*
X79552405Y7956718D01*
X79233325Y7912961D01*
X78928912Y7807795D01*
X78754956Y7714814D01*
X78659192Y7450413D01*
X71328371Y7450413D01*
X71315639Y7514419D01*
X71169775Y7866566D01*
X70958013Y8183491D01*
X70688491Y8453013D01*
X70371566Y8664775D01*
X70019419Y8810639D01*
X69645581Y8885000D01*
X69264419Y8885000D01*
X68890581Y8810639D01*
X68538434Y8664775D01*
X68221509Y8453013D01*
X67951987Y8183491D01*
X67740225Y7866566D01*
X67594361Y7514419D01*
X67520000Y7140581D01*
X64532674Y7140581D01*
X64530812Y7159482D01*
X64494502Y7279180D01*
X64435537Y7389494D01*
X64356185Y7486185D01*
X64259494Y7565537D01*
X64149180Y7624502D01*
X64029482Y7660812D01*
X64021039Y7661643D01*
X64219637Y7860241D01*
X64376680Y8095273D01*
X64484853Y8356426D01*
X64540000Y8633665D01*
X64540000Y8916335D01*
X64484853Y9193574D01*
X64376680Y9454727D01*
X64219637Y9689759D01*
X64019759Y9889637D01*
X63787241Y10045000D01*
X64019759Y10200363D01*
X64219637Y10400241D01*
X64376680Y10635273D01*
X64484853Y10896426D01*
X64540000Y11173665D01*
X64540000Y11456335D01*
X64484853Y11733574D01*
X64376680Y11994727D01*
X64279224Y12140581D01*
X67520000Y12140581D01*
X67520000Y11759419D01*
X67594361Y11385581D01*
X67740225Y11033434D01*
X67951987Y10716509D01*
X68221509Y10446987D01*
X68538434Y10235225D01*
X68890581Y10089361D01*
X69264419Y10015000D01*
X69645581Y10015000D01*
X70019419Y10089361D01*
X70371566Y10235225D01*
X70688491Y10446987D01*
X70958013Y10716509D01*
X71169775Y11033434D01*
X71315639Y11385581D01*
X71390000Y11759419D01*
X71390000Y12140581D01*
X71355306Y12315000D01*
X77976928Y12315000D01*
X77976928Y10315000D01*
X77989188Y10190518D01*
X78025498Y10070820D01*
X78084463Y9960506D01*
X78163815Y9863815D01*
X78260506Y9784463D01*
X78370820Y9725498D01*
X78490518Y9689188D01*
X78615000Y9676928D01*
X80615000Y9676928D01*
X80739482Y9689188D01*
X80859180Y9725498D01*
X80969494Y9784463D01*
X81066185Y9863815D01*
X81145537Y9960506D01*
X81204502Y10070820D01*
X81240812Y10190518D01*
X81253072Y10315000D01*
X81253072Y10819500D01*
X85295428Y10819500D01*
X85307688Y10695018D01*
X85343998Y10575320D01*
X85402963Y10465006D01*
X85482315Y10368315D01*
X85579006Y10288963D01*
X85689320Y10229998D01*
X85809018Y10193688D01*
X85933500Y10181428D01*
X86397750Y10184500D01*
X86556500Y10343250D01*
X86556500Y11442500D01*
X85457250Y11442500D01*
X85298500Y11283750D01*
X85295428Y10819500D01*
X81253072Y10819500D01*
X81253072Y12315000D01*
X81252629Y12319500D01*
X85295428Y12319500D01*
X85298500Y11855250D01*
X85457250Y11696500D01*
X86556500Y11696500D01*
X86556500Y12795750D01*
X86810500Y12795750D01*
X86810500Y11696500D01*
X86830500Y11696500D01*
X86830500Y11442500D01*
X86810500Y11442500D01*
X86810500Y10343250D01*
X86969250Y10184500D01*
X87433500Y10181428D01*
X87557982Y10193688D01*
X87677680Y10229998D01*
X87787994Y10288963D01*
X87884685Y10368315D01*
X87964037Y10465006D01*
X88023002Y10575320D01*
X88059312Y10695018D01*
X88064807Y10750810D01*
X88107701Y10686614D01*
X88300614Y10493701D01*
X88527457Y10342129D01*
X88779511Y10237725D01*
X89047089Y10184500D01*
X89319911Y10184500D01*
X89587489Y10237725D01*
X89839543Y10342129D01*
X90066386Y10493701D01*
X90259299Y10686614D01*
X90410871Y10913457D01*
X90515275Y11165511D01*
X90557485Y11377715D01*
X91165000Y11377715D01*
X91165000Y10622285D01*
X91312377Y9881372D01*
X91601467Y9183446D01*
X92021161Y8555330D01*
X92555330Y8021161D01*
X93183446Y7601467D01*
X93881372Y7312377D01*
X94622285Y7165000D01*
X95377715Y7165000D01*
X96118628Y7312377D01*
X96816554Y7601467D01*
X97444670Y8021161D01*
X97978839Y8555330D01*
X98398533Y9183446D01*
X98687623Y9881372D01*
X98835000Y10622285D01*
X98835000Y11377715D01*
X98687623Y12118628D01*
X98398533Y12816554D01*
X97978839Y13444670D01*
X97444670Y13978839D01*
X96816554Y14398533D01*
X96118628Y14687623D01*
X95377715Y14835000D01*
X94622285Y14835000D01*
X93881372Y14687623D01*
X93183446Y14398533D01*
X92555330Y13978839D01*
X92021161Y13444670D01*
X91601467Y12816554D01*
X91312377Y12118628D01*
X91165000Y11377715D01*
X90557485Y11377715D01*
X90568500Y11433089D01*
X90568500Y11705911D01*
X90515275Y11973489D01*
X90410871Y12225543D01*
X90259299Y12452386D01*
X90066386Y12645299D01*
X89839543Y12796871D01*
X89587489Y12901275D01*
X89319911Y12954500D01*
X89047089Y12954500D01*
X88779511Y12901275D01*
X88527457Y12796871D01*
X88300614Y12645299D01*
X88107701Y12452386D01*
X88064807Y12388190D01*
X88059312Y12443982D01*
X88023002Y12563680D01*
X87964037Y12673994D01*
X87884685Y12770685D01*
X87787994Y12850037D01*
X87677680Y12909002D01*
X87557982Y12945312D01*
X87433500Y12957572D01*
X86969250Y12954500D01*
X86810500Y12795750D01*
X86556500Y12795750D01*
X86397750Y12954500D01*
X85933500Y12957572D01*
X85809018Y12945312D01*
X85689320Y12909002D01*
X85579006Y12850037D01*
X85482315Y12770685D01*
X85402963Y12673994D01*
X85343998Y12563680D01*
X85307688Y12443982D01*
X85295428Y12319500D01*
X81252629Y12319500D01*
X81240812Y12439482D01*
X81204502Y12559180D01*
X81145537Y12669494D01*
X81066185Y12766185D01*
X80969494Y12845537D01*
X80859180Y12904502D01*
X80739482Y12940812D01*
X80615000Y12953072D01*
X78615000Y12953072D01*
X78490518Y12940812D01*
X78370820Y12904502D01*
X78260506Y12845537D01*
X78163815Y12766185D01*
X78084463Y12669494D01*
X78025498Y12559180D01*
X77989188Y12439482D01*
X77976928Y12315000D01*
X71355306Y12315000D01*
X71315639Y12514419D01*
X71169775Y12866566D01*
X70958013Y13183491D01*
X70688491Y13453013D01*
X70371566Y13664775D01*
X70019419Y13810639D01*
X69645581Y13885000D01*
X69264419Y13885000D01*
X68890581Y13810639D01*
X68538434Y13664775D01*
X68221509Y13453013D01*
X67951987Y13183491D01*
X67740225Y12866566D01*
X67594361Y12514419D01*
X67520000Y12140581D01*
X64279224Y12140581D01*
X64219637Y12229759D01*
X64019759Y12429637D01*
X63787241Y12585000D01*
X64019759Y12740363D01*
X64219637Y12940241D01*
X64376680Y13175273D01*
X64484853Y13436426D01*
X64540000Y13713665D01*
X64540000Y13996335D01*
X64484853Y14273574D01*
X64376680Y14534727D01*
X64219637Y14769759D01*
X64019759Y14969637D01*
X63784727Y15126680D01*
X63523574Y15234853D01*
X63246335Y15290000D01*
X62963665Y15290000D01*
X62686426Y15234853D01*
X62425273Y15126680D01*
X62190241Y14969637D01*
X61990363Y14769759D01*
X61833320Y14534727D01*
X61725147Y14273574D01*
X61670000Y13996335D01*
X61670000Y13713665D01*
X61725147Y13436426D01*
X61833320Y13175273D01*
X61990363Y12940241D01*
X62190241Y12740363D01*
X62422759Y12585000D01*
X62190241Y12429637D01*
X61990363Y12229759D01*
X61833320Y11994727D01*
X61725147Y11733574D01*
X61670000Y11456335D01*
X61670000Y11173665D01*
X61725147Y10896426D01*
X61833320Y10635273D01*
X61990363Y10400241D01*
X62190241Y10200363D01*
X62422759Y10045000D01*
X62190241Y9889637D01*
X61990363Y9689759D01*
X61833320Y9454727D01*
X61725147Y9193574D01*
X61670000Y8916335D01*
X61670000Y8633665D01*
X61725147Y8356426D01*
X61833320Y8095273D01*
X61990363Y7860241D01*
X62188961Y7661643D01*
X62180518Y7660812D01*
X62060820Y7624502D01*
X61950506Y7565537D01*
X61853815Y7486185D01*
X61774463Y7389494D01*
X61715498Y7279180D01*
X61679188Y7159482D01*
X61666928Y7035000D01*
X56676317Y7035000D01*
X56599637Y7149759D01*
X56399759Y7349637D01*
X56167241Y7505000D01*
X56399759Y7660363D01*
X56599637Y7860241D01*
X56756680Y8095273D01*
X56864853Y8356426D01*
X56920000Y8633665D01*
X56920000Y8916335D01*
X56864853Y9193574D01*
X56756680Y9454727D01*
X56599637Y9689759D01*
X56399759Y9889637D01*
X56164727Y10046680D01*
X56154135Y10051067D01*
X56340131Y10162615D01*
X56548519Y10351586D01*
X56716037Y10577580D01*
X56836246Y10831913D01*
X56876904Y10965961D01*
X56754915Y11188000D01*
X55612000Y11188000D01*
X55612000Y11168000D01*
X55358000Y11168000D01*
X55358000Y11188000D01*
X54215085Y11188000D01*
X54093096Y10965961D01*
X54133754Y10831913D01*
X54253963Y10577580D01*
X54421481Y10351586D01*
X54629869Y10162615D01*
X54815865Y10051067D01*
X54805273Y10046680D01*
X54570241Y9889637D01*
X54370363Y9689759D01*
X54213320Y9454727D01*
X54105147Y9193574D01*
X54050000Y8916335D01*
X32699343Y8916335D01*
X32744502Y9000820D01*
X32780812Y9120518D01*
X32793072Y9245000D01*
X32793072Y10845000D01*
X32780812Y10969482D01*
X32744502Y11089180D01*
X32685537Y11199494D01*
X32606185Y11296185D01*
X32593242Y11306807D01*
X32712571Y11558996D01*
X32720918Y11592298D01*
X46496903Y11592298D01*
X46568486Y11348329D01*
X46823996Y11227429D01*
X47098184Y11158700D01*
X47380512Y11144783D01*
X47660130Y11186213D01*
X47926292Y11281397D01*
X48051514Y11348329D01*
X48123097Y11592298D01*
X47310000Y12405395D01*
X46496903Y11592298D01*
X32720918Y11592298D01*
X32781300Y11833184D01*
X32795217Y12115512D01*
X32753787Y12395130D01*
X32711103Y12514488D01*
X45869783Y12514488D01*
X45911213Y12234870D01*
X46006397Y11968708D01*
X46073329Y11843486D01*
X46317298Y11771903D01*
X47130395Y12585000D01*
X47489605Y12585000D01*
X48302702Y11771903D01*
X48546671Y11843486D01*
X48667571Y12098996D01*
X48736300Y12373184D01*
X48750217Y12655512D01*
X48739724Y12726335D01*
X50875000Y12726335D01*
X50875000Y12443665D01*
X50930147Y12166426D01*
X51038320Y11905273D01*
X51195363Y11670241D01*
X51395241Y11470363D01*
X51630273Y11313320D01*
X51891426Y11205147D01*
X52168665Y11150000D01*
X52451335Y11150000D01*
X52728574Y11205147D01*
X52989727Y11313320D01*
X53224759Y11470363D01*
X53424637Y11670241D01*
X53581680Y11905273D01*
X53689853Y12166426D01*
X53745000Y12443665D01*
X53745000Y12726335D01*
X53689853Y13003574D01*
X53581680Y13264727D01*
X53424637Y13499759D01*
X53224759Y13699637D01*
X52989727Y13856680D01*
X52728574Y13964853D01*
X52570306Y13996335D01*
X54050000Y13996335D01*
X54050000Y13713665D01*
X54105147Y13436426D01*
X54213320Y13175273D01*
X54370363Y12940241D01*
X54570241Y12740363D01*
X54805273Y12583320D01*
X54815865Y12578933D01*
X54629869Y12467385D01*
X54421481Y12278414D01*
X54253963Y12052420D01*
X54133754Y11798087D01*
X54093096Y11664039D01*
X54215085Y11442000D01*
X55358000Y11442000D01*
X55358000Y11462000D01*
X55612000Y11462000D01*
X55612000Y11442000D01*
X56754915Y11442000D01*
X56876904Y11664039D01*
X56836246Y11798087D01*
X56716037Y12052420D01*
X56548519Y12278414D01*
X56340131Y12467385D01*
X56154135Y12578933D01*
X56164727Y12583320D01*
X56399759Y12740363D01*
X56599637Y12940241D01*
X56756680Y13175273D01*
X56864853Y13436426D01*
X56920000Y13713665D01*
X56920000Y13996335D01*
X56864853Y14273574D01*
X56756680Y14534727D01*
X56599637Y14769759D01*
X56399759Y14969637D01*
X56164727Y15126680D01*
X55903574Y15234853D01*
X55626335Y15290000D01*
X55343665Y15290000D01*
X55066426Y15234853D01*
X54805273Y15126680D01*
X54570241Y14969637D01*
X54370363Y14769759D01*
X54213320Y14534727D01*
X54105147Y14273574D01*
X54050000Y13996335D01*
X52570306Y13996335D01*
X52451335Y14020000D01*
X52168665Y14020000D01*
X51891426Y13964853D01*
X51630273Y13856680D01*
X51395241Y13699637D01*
X51195363Y13499759D01*
X51038320Y13264727D01*
X50930147Y13003574D01*
X50875000Y12726335D01*
X48739724Y12726335D01*
X48708787Y12935130D01*
X48613603Y13201292D01*
X48546671Y13326514D01*
X48302702Y13398097D01*
X47489605Y12585000D01*
X47130395Y12585000D01*
X46317298Y13398097D01*
X46073329Y13326514D01*
X45952429Y13071004D01*
X45883700Y12796816D01*
X45869783Y12514488D01*
X32711103Y12514488D01*
X32658603Y12661292D01*
X32591671Y12786514D01*
X32347702Y12858097D01*
X31534605Y12045000D01*
X31548748Y12030857D01*
X31369143Y11851252D01*
X31355000Y11865395D01*
X31340858Y11851252D01*
X31161253Y12030857D01*
X31175395Y12045000D01*
X30362298Y12858097D01*
X30118329Y12786514D01*
X29997429Y12531004D01*
X29928700Y12256816D01*
X29914783Y11974488D01*
X12523072Y11974488D01*
X12523072Y12800000D01*
X12510812Y12924482D01*
X12474502Y13044180D01*
X12415537Y13154494D01*
X12336185Y13251185D01*
X12239494Y13330537D01*
X12129180Y13389502D01*
X12009482Y13425812D01*
X11885000Y13438072D01*
X10185000Y13438072D01*
X10060518Y13425812D01*
X9940820Y13389502D01*
X9830506Y13330537D01*
X9733815Y13251185D01*
X9654463Y13154494D01*
X9595498Y13044180D01*
X9559188Y12924482D01*
X9546928Y12800000D01*
X8405390Y12800000D01*
X8398533Y12816554D01*
X7978839Y13444670D01*
X7444670Y13978839D01*
X6816554Y14398533D01*
X6118628Y14687623D01*
X5377715Y14835000D01*
X4622285Y14835000D01*
X3881372Y14687623D01*
X3183446Y14398533D01*
X2555330Y13978839D01*
X2021161Y13444670D01*
X1601467Y12816554D01*
X1312377Y12118628D01*
X1165000Y11377715D01*
X660000Y11377715D01*
X660000Y15340000D01*
X13292761Y15340000D01*
X13290013Y15337252D01*
M02*
