G04 #@! TF.GenerationSoftware,KiCad,Pcbnew,(5.1.5)-2*
G04 #@! TF.CreationDate,2020-02-21T18:19:01+01:00*
G04 #@! TF.ProjectId,DC,44432e6b-6963-4616-945f-706362585858,V1.0*
G04 #@! TF.SameCoordinates,PXe4e1c0PY2160ec0*
G04 #@! TF.FileFunction,Soldermask,Bot*
G04 #@! TF.FilePolarity,Negative*
%FSLAX46Y46*%
G04 Gerber Fmt 4.6, Leading zero omitted, Abs format (unit mm)*
G04 Created by KiCad (PCBNEW (5.1.5)-2) date 2020-02-21 18:19:01*
%MOMM*%
%LPD*%
G04 APERTURE LIST*
%ADD10C,0.100000*%
G04 APERTURE END LIST*
D10*
G36*
X88753228Y2798297D02*
G01*
X88908100Y2734147D01*
X89047481Y2641015D01*
X89166015Y2522481D01*
X89259147Y2383100D01*
X89323297Y2228228D01*
X89356000Y2063816D01*
X89356000Y1896184D01*
X89323297Y1731772D01*
X89259147Y1576900D01*
X89166015Y1437519D01*
X89047481Y1318985D01*
X88908100Y1225853D01*
X88753228Y1161703D01*
X88588816Y1129000D01*
X88421184Y1129000D01*
X88256772Y1161703D01*
X88101900Y1225853D01*
X87962519Y1318985D01*
X87843985Y1437519D01*
X87750853Y1576900D01*
X87686703Y1731772D01*
X87654000Y1896184D01*
X87654000Y2063816D01*
X87686703Y2228228D01*
X87750853Y2383100D01*
X87843985Y2522481D01*
X87962519Y2641015D01*
X88101900Y2734147D01*
X88256772Y2798297D01*
X88421184Y2831000D01*
X88588816Y2831000D01*
X88753228Y2798297D01*
G37*
G36*
X85596000Y1714000D02*
G01*
X83794000Y1714000D01*
X83794000Y3516000D01*
X85596000Y3516000D01*
X85596000Y1714000D01*
G37*
G36*
X82268512Y3511073D02*
G01*
X82417812Y3481376D01*
X82581784Y3413456D01*
X82729354Y3314853D01*
X82854853Y3189354D01*
X82953456Y3041784D01*
X83021376Y2877812D01*
X83056000Y2703741D01*
X83056000Y2526259D01*
X83021376Y2352188D01*
X82953456Y2188216D01*
X82854853Y2040646D01*
X82729354Y1915147D01*
X82581784Y1816544D01*
X82417812Y1748624D01*
X82268512Y1718927D01*
X82243742Y1714000D01*
X82066258Y1714000D01*
X82041488Y1718927D01*
X81892188Y1748624D01*
X81728216Y1816544D01*
X81580646Y1915147D01*
X81455147Y2040646D01*
X81356544Y2188216D01*
X81288624Y2352188D01*
X81254000Y2526259D01*
X81254000Y2703741D01*
X81288624Y2877812D01*
X81356544Y3041784D01*
X81455147Y3189354D01*
X81580646Y3314853D01*
X81728216Y3413456D01*
X81892188Y3481376D01*
X82041488Y3511073D01*
X82066258Y3516000D01*
X82243742Y3516000D01*
X82268512Y3511073D01*
G37*
G36*
X18286000Y1714000D02*
G01*
X16484000Y1714000D01*
X16484000Y3516000D01*
X18286000Y3516000D01*
X18286000Y1714000D01*
G37*
G36*
X14958512Y3511073D02*
G01*
X15107812Y3481376D01*
X15271784Y3413456D01*
X15419354Y3314853D01*
X15544853Y3189354D01*
X15643456Y3041784D01*
X15711376Y2877812D01*
X15746000Y2703741D01*
X15746000Y2526259D01*
X15711376Y2352188D01*
X15643456Y2188216D01*
X15544853Y2040646D01*
X15419354Y1915147D01*
X15271784Y1816544D01*
X15107812Y1748624D01*
X14958512Y1718927D01*
X14933742Y1714000D01*
X14756258Y1714000D01*
X14731488Y1718927D01*
X14582188Y1748624D01*
X14418216Y1816544D01*
X14270646Y1915147D01*
X14145147Y2040646D01*
X14046544Y2188216D01*
X13978624Y2352188D01*
X13944000Y2526259D01*
X13944000Y2703741D01*
X13978624Y2877812D01*
X14046544Y3041784D01*
X14145147Y3189354D01*
X14270646Y3314853D01*
X14418216Y3413456D01*
X14582188Y3481376D01*
X14731488Y3511073D01*
X14756258Y3516000D01*
X14933742Y3516000D01*
X14958512Y3511073D01*
G37*
G36*
X95634239Y8188533D02*
G01*
X95948282Y8126066D01*
X96539926Y7880999D01*
X97072392Y7525216D01*
X97525216Y7072392D01*
X97880999Y6539926D01*
X98126066Y5948282D01*
X98184018Y5656938D01*
X98251000Y5320197D01*
X98251000Y4679803D01*
X98224016Y4544148D01*
X98126066Y4051718D01*
X97880999Y3460074D01*
X97642381Y3102958D01*
X97554680Y2971703D01*
X97525216Y2927608D01*
X97072392Y2474784D01*
X96539926Y2119001D01*
X95948282Y1873934D01*
X95659763Y1816544D01*
X95320197Y1749000D01*
X94679803Y1749000D01*
X94340237Y1816544D01*
X94051718Y1873934D01*
X93460074Y2119001D01*
X92927608Y2474784D01*
X92474784Y2927608D01*
X92445321Y2971703D01*
X92357619Y3102958D01*
X92119001Y3460074D01*
X91873934Y4051718D01*
X91775984Y4544148D01*
X91749000Y4679803D01*
X91749000Y5320197D01*
X91815982Y5656938D01*
X91873934Y5948282D01*
X92119001Y6539926D01*
X92474784Y7072392D01*
X92927608Y7525216D01*
X93460074Y7880999D01*
X94051718Y8126066D01*
X94365761Y8188533D01*
X94679803Y8251000D01*
X95320197Y8251000D01*
X95634239Y8188533D01*
G37*
G36*
X5634239Y8188533D02*
G01*
X5948282Y8126066D01*
X6539926Y7880999D01*
X7072392Y7525216D01*
X7525216Y7072392D01*
X7880999Y6539926D01*
X8126066Y5948282D01*
X8184018Y5656938D01*
X8251000Y5320197D01*
X8251000Y4679803D01*
X8224016Y4544148D01*
X8126066Y4051718D01*
X7880999Y3460074D01*
X7642381Y3102958D01*
X7554680Y2971703D01*
X7525216Y2927608D01*
X7072392Y2474784D01*
X6539926Y2119001D01*
X5948282Y1873934D01*
X5659763Y1816544D01*
X5320197Y1749000D01*
X4679803Y1749000D01*
X4340237Y1816544D01*
X4051718Y1873934D01*
X3460074Y2119001D01*
X2927608Y2474784D01*
X2474784Y2927608D01*
X2445321Y2971703D01*
X2357619Y3102958D01*
X2119001Y3460074D01*
X1873934Y4051718D01*
X1775984Y4544148D01*
X1749000Y4679803D01*
X1749000Y5320197D01*
X1815982Y5656938D01*
X1873934Y5948282D01*
X2119001Y6539926D01*
X2474784Y7072392D01*
X2927608Y7525216D01*
X3460074Y7880999D01*
X4051718Y8126066D01*
X4365761Y8188533D01*
X4679803Y8251000D01*
X5320197Y8251000D01*
X5634239Y8188533D01*
G37*
G36*
X66661000Y2234000D02*
G01*
X63359000Y2234000D01*
X63359000Y5536000D01*
X66661000Y5536000D01*
X66661000Y2234000D01*
G37*
G36*
X50145256Y5493702D02*
G01*
X50251579Y5472553D01*
X50552042Y5348097D01*
X50822451Y5167415D01*
X51052415Y4937451D01*
X51224570Y4679803D01*
X51233098Y4667040D01*
X51269550Y4579037D01*
X51357553Y4366579D01*
X51364336Y4332480D01*
X51421000Y4047611D01*
X51421000Y3722389D01*
X51379946Y3516000D01*
X51357553Y3403421D01*
X51233097Y3102958D01*
X51052415Y2832549D01*
X50822451Y2602585D01*
X50552042Y2421903D01*
X50251579Y2297447D01*
X50145256Y2276298D01*
X49932611Y2234000D01*
X49607389Y2234000D01*
X49394744Y2276298D01*
X49288421Y2297447D01*
X48987958Y2421903D01*
X48717549Y2602585D01*
X48487585Y2832549D01*
X48306903Y3102958D01*
X48182447Y3403421D01*
X48160054Y3516000D01*
X48119000Y3722389D01*
X48119000Y4047611D01*
X48175664Y4332480D01*
X48182447Y4366579D01*
X48270450Y4579037D01*
X48306902Y4667040D01*
X48315430Y4679803D01*
X48487585Y4937451D01*
X48717549Y5167415D01*
X48987958Y5348097D01*
X49288421Y5472553D01*
X49394744Y5493702D01*
X49607389Y5536000D01*
X49932611Y5536000D01*
X50145256Y5493702D01*
G37*
G36*
X42398228Y4608297D02*
G01*
X42553100Y4544147D01*
X42692481Y4451015D01*
X42811015Y4332481D01*
X42904147Y4193100D01*
X42968297Y4038228D01*
X43001000Y3873816D01*
X43001000Y3706184D01*
X42968297Y3541772D01*
X42904147Y3386900D01*
X42811015Y3247519D01*
X42692481Y3128985D01*
X42553100Y3035853D01*
X42398228Y2971703D01*
X42233816Y2939000D01*
X42066184Y2939000D01*
X41901772Y2971703D01*
X41746900Y3035853D01*
X41607519Y3128985D01*
X41488985Y3247519D01*
X41395853Y3386900D01*
X41331703Y3541772D01*
X41299000Y3706184D01*
X41299000Y3873816D01*
X41331703Y4038228D01*
X41395853Y4193100D01*
X41488985Y4332481D01*
X41607519Y4451015D01*
X41746900Y4544147D01*
X41901772Y4608297D01*
X42066184Y4641000D01*
X42233816Y4641000D01*
X42398228Y4608297D01*
G37*
G36*
X74929072Y7089082D02*
G01*
X75174939Y6987241D01*
X75286328Y6912813D01*
X75396211Y6839391D01*
X75584391Y6651211D01*
X75732242Y6429937D01*
X75834082Y6184072D01*
X75886000Y5923063D01*
X75886000Y5656937D01*
X75834082Y5395928D01*
X75732242Y5150063D01*
X75590179Y4937451D01*
X75584390Y4928788D01*
X75396212Y4740610D01*
X75174939Y4592759D01*
X75174938Y4592758D01*
X75174937Y4592758D01*
X74929072Y4490918D01*
X74668063Y4439000D01*
X74401937Y4439000D01*
X74140928Y4490918D01*
X73895063Y4592758D01*
X73895062Y4592758D01*
X73895061Y4592759D01*
X73673788Y4740610D01*
X73485610Y4928788D01*
X73479822Y4937451D01*
X73337758Y5150063D01*
X73235918Y5395928D01*
X73184000Y5656937D01*
X73184000Y5923063D01*
X73235918Y6184072D01*
X73337758Y6429937D01*
X73485609Y6651211D01*
X73673789Y6839391D01*
X73783672Y6912813D01*
X73895061Y6987241D01*
X74140928Y7089082D01*
X74401937Y7141000D01*
X74668063Y7141000D01*
X74929072Y7089082D01*
G37*
G36*
X69929072Y7089082D02*
G01*
X70174939Y6987241D01*
X70286328Y6912813D01*
X70396211Y6839391D01*
X70584391Y6651211D01*
X70732242Y6429937D01*
X70834082Y6184072D01*
X70886000Y5923063D01*
X70886000Y5656937D01*
X70834082Y5395928D01*
X70732242Y5150063D01*
X70590179Y4937451D01*
X70584390Y4928788D01*
X70396212Y4740610D01*
X70174939Y4592759D01*
X70174938Y4592758D01*
X70174937Y4592758D01*
X69929072Y4490918D01*
X69668063Y4439000D01*
X69401937Y4439000D01*
X69140928Y4490918D01*
X68895063Y4592758D01*
X68895062Y4592758D01*
X68895061Y4592759D01*
X68673788Y4740610D01*
X68485610Y4928788D01*
X68479822Y4937451D01*
X68337758Y5150063D01*
X68235918Y5395928D01*
X68184000Y5656937D01*
X68184000Y5923063D01*
X68235918Y6184072D01*
X68337758Y6429937D01*
X68485609Y6651211D01*
X68673789Y6839391D01*
X68783672Y6912813D01*
X68895061Y6987241D01*
X69140928Y7089082D01*
X69401937Y7141000D01*
X69668063Y7141000D01*
X69929072Y7089082D01*
G37*
G36*
X43001000Y4939000D02*
G01*
X41299000Y4939000D01*
X41299000Y6641000D01*
X43001000Y6641000D01*
X43001000Y4939000D01*
G37*
G36*
X65226000Y9384000D02*
G01*
X63524000Y9384000D01*
X63524000Y11086000D01*
X65226000Y11086000D01*
X65226000Y9384000D01*
G37*
G36*
X57003228Y11053297D02*
G01*
X57158100Y10989147D01*
X57297481Y10896015D01*
X57416015Y10777481D01*
X57509147Y10638100D01*
X57573297Y10483228D01*
X57606000Y10318816D01*
X57606000Y10151184D01*
X57573297Y9986772D01*
X57509147Y9831900D01*
X57416015Y9692519D01*
X57297481Y9573985D01*
X57158100Y9480853D01*
X57003228Y9416703D01*
X56838816Y9384000D01*
X56671184Y9384000D01*
X56506772Y9416703D01*
X56351900Y9480853D01*
X56212519Y9573985D01*
X56093985Y9692519D01*
X56000853Y9831900D01*
X55936703Y9986772D01*
X55904000Y10151184D01*
X55904000Y10318816D01*
X55936703Y10483228D01*
X56000853Y10638100D01*
X56093985Y10777481D01*
X56212519Y10896015D01*
X56351900Y10989147D01*
X56506772Y11053297D01*
X56671184Y11086000D01*
X56838816Y11086000D01*
X57003228Y11053297D01*
G37*
G36*
X80666000Y9819000D02*
G01*
X78564000Y9819000D01*
X78564000Y11921000D01*
X80666000Y11921000D01*
X80666000Y9819000D01*
G37*
G36*
X67798228Y11688297D02*
G01*
X67953100Y11624147D01*
X68092481Y11531015D01*
X68211015Y11412481D01*
X68304147Y11273100D01*
X68368297Y11118228D01*
X68401000Y10953816D01*
X68401000Y10786184D01*
X68368297Y10621772D01*
X68304147Y10466900D01*
X68211015Y10327519D01*
X68092481Y10208985D01*
X67953100Y10115853D01*
X67798228Y10051703D01*
X67633816Y10019000D01*
X67466184Y10019000D01*
X67301772Y10051703D01*
X67146900Y10115853D01*
X67007519Y10208985D01*
X66888985Y10327519D01*
X66795853Y10466900D01*
X66731703Y10621772D01*
X66699000Y10786184D01*
X66699000Y10953816D01*
X66731703Y11118228D01*
X66795853Y11273100D01*
X66888985Y11412481D01*
X67007519Y11531015D01*
X67146900Y11624147D01*
X67301772Y11688297D01*
X67466184Y11721000D01*
X67633816Y11721000D01*
X67798228Y11688297D01*
G37*
G36*
X11691564Y13305611D02*
G01*
X11882833Y13226385D01*
X11882835Y13226384D01*
X12054973Y13111365D01*
X12201365Y12964973D01*
X12284696Y12840260D01*
X12316385Y12792833D01*
X12395611Y12601564D01*
X12436000Y12398516D01*
X12436000Y12191484D01*
X12395611Y11988436D01*
X12355571Y11891771D01*
X12316384Y11797165D01*
X12201365Y11625027D01*
X12054973Y11478635D01*
X11882835Y11363616D01*
X11882834Y11363615D01*
X11882833Y11363615D01*
X11691564Y11284389D01*
X11488516Y11244000D01*
X11281484Y11244000D01*
X11078436Y11284389D01*
X10887167Y11363615D01*
X10887166Y11363615D01*
X10887165Y11363616D01*
X10715027Y11478635D01*
X10568635Y11625027D01*
X10453616Y11797165D01*
X10414429Y11891771D01*
X10374389Y11988436D01*
X10334000Y12191484D01*
X10334000Y12398516D01*
X10374389Y12601564D01*
X10453615Y12792833D01*
X10485305Y12840260D01*
X10568635Y12964973D01*
X10715027Y13111365D01*
X10887165Y13226384D01*
X10887167Y13226385D01*
X11078436Y13305611D01*
X11281484Y13346000D01*
X11488516Y13346000D01*
X11691564Y13305611D01*
G37*
G36*
X23691564Y13305611D02*
G01*
X23882833Y13226385D01*
X23882835Y13226384D01*
X24054973Y13111365D01*
X24201365Y12964973D01*
X24284696Y12840260D01*
X24316385Y12792833D01*
X24395611Y12601564D01*
X24436000Y12398516D01*
X24436000Y12191484D01*
X24395611Y11988436D01*
X24355571Y11891771D01*
X24316384Y11797165D01*
X24201365Y11625027D01*
X24054973Y11478635D01*
X23882835Y11363616D01*
X23882834Y11363615D01*
X23882833Y11363615D01*
X23691564Y11284389D01*
X23488516Y11244000D01*
X23281484Y11244000D01*
X23078436Y11284389D01*
X22887167Y11363615D01*
X22887166Y11363615D01*
X22887165Y11363616D01*
X22715027Y11478635D01*
X22568635Y11625027D01*
X22453616Y11797165D01*
X22414429Y11891771D01*
X22374389Y11988436D01*
X22334000Y12191484D01*
X22334000Y12398516D01*
X22374389Y12601564D01*
X22453615Y12792833D01*
X22485305Y12840260D01*
X22568635Y12964973D01*
X22715027Y13111365D01*
X22887165Y13226384D01*
X22887167Y13226385D01*
X23078436Y13305611D01*
X23281484Y13346000D01*
X23488516Y13346000D01*
X23691564Y13305611D01*
G37*
G36*
X88753228Y12958297D02*
G01*
X88908100Y12894147D01*
X89047481Y12801015D01*
X89166015Y12682481D01*
X89259147Y12543100D01*
X89323297Y12388228D01*
X89356000Y12223816D01*
X89356000Y12056184D01*
X89323297Y11891772D01*
X89259147Y11736900D01*
X89166015Y11597519D01*
X89047481Y11478985D01*
X88908100Y11385853D01*
X88753228Y11321703D01*
X88588816Y11289000D01*
X88421184Y11289000D01*
X88256772Y11321703D01*
X88101900Y11385853D01*
X87962519Y11478985D01*
X87843985Y11597519D01*
X87750853Y11736900D01*
X87686703Y11891772D01*
X87654000Y12056184D01*
X87654000Y12223816D01*
X87686703Y12388228D01*
X87750853Y12543100D01*
X87843985Y12682481D01*
X87962519Y12801015D01*
X88101900Y12894147D01*
X88256772Y12958297D01*
X88421184Y12991000D01*
X88588816Y12991000D01*
X88753228Y12958297D01*
G37*
G36*
X64623228Y13593297D02*
G01*
X64778100Y13529147D01*
X64917481Y13436015D01*
X65036015Y13317481D01*
X65129147Y13178100D01*
X65193297Y13023228D01*
X65226000Y12858816D01*
X65226000Y12691184D01*
X65193297Y12526772D01*
X65129147Y12371900D01*
X65036015Y12232519D01*
X64917481Y12113985D01*
X64778100Y12020853D01*
X64623228Y11956703D01*
X64458816Y11924000D01*
X64291184Y11924000D01*
X64126772Y11956703D01*
X63971900Y12020853D01*
X63832519Y12113985D01*
X63713985Y12232519D01*
X63620853Y12371900D01*
X63556703Y12526772D01*
X63524000Y12691184D01*
X63524000Y12858816D01*
X63556703Y13023228D01*
X63620853Y13178100D01*
X63713985Y13317481D01*
X63832519Y13436015D01*
X63971900Y13529147D01*
X64126772Y13593297D01*
X64291184Y13626000D01*
X64458816Y13626000D01*
X64623228Y13593297D01*
G37*
G36*
X53828228Y13593297D02*
G01*
X53983100Y13529147D01*
X54122481Y13436015D01*
X54241015Y13317481D01*
X54334147Y13178100D01*
X54398297Y13023228D01*
X54431000Y12858816D01*
X54431000Y12691184D01*
X54398297Y12526772D01*
X54334147Y12371900D01*
X54241015Y12232519D01*
X54122481Y12113985D01*
X53983100Y12020853D01*
X53828228Y11956703D01*
X53663816Y11924000D01*
X53496184Y11924000D01*
X53331772Y11956703D01*
X53176900Y12020853D01*
X53037519Y12113985D01*
X52918985Y12232519D01*
X52825853Y12371900D01*
X52761703Y12526772D01*
X52729000Y12691184D01*
X52729000Y12858816D01*
X52761703Y13023228D01*
X52825853Y13178100D01*
X52918985Y13317481D01*
X53037519Y13436015D01*
X53176900Y13529147D01*
X53331772Y13593297D01*
X53496184Y13626000D01*
X53663816Y13626000D01*
X53828228Y13593297D01*
G37*
G36*
X57003228Y13593297D02*
G01*
X57158100Y13529147D01*
X57297481Y13436015D01*
X57416015Y13317481D01*
X57509147Y13178100D01*
X57573297Y13023228D01*
X57606000Y12858816D01*
X57606000Y12691184D01*
X57573297Y12526772D01*
X57509147Y12371900D01*
X57416015Y12232519D01*
X57297481Y12113985D01*
X57158100Y12020853D01*
X57003228Y11956703D01*
X56838816Y11924000D01*
X56671184Y11924000D01*
X56506772Y11956703D01*
X56351900Y12020853D01*
X56212519Y12113985D01*
X56093985Y12232519D01*
X56000853Y12371900D01*
X55936703Y12526772D01*
X55904000Y12691184D01*
X55904000Y12858816D01*
X55936703Y13023228D01*
X56000853Y13178100D01*
X56093985Y13317481D01*
X56212519Y13436015D01*
X56351900Y13529147D01*
X56506772Y13593297D01*
X56671184Y13626000D01*
X56838816Y13626000D01*
X57003228Y13593297D01*
G37*
G36*
X50072585Y15566198D02*
G01*
X50222410Y15536396D01*
X50504674Y15419479D01*
X50758705Y15249741D01*
X50974741Y15033705D01*
X51144479Y14779674D01*
X51261396Y14497410D01*
X51321000Y14197760D01*
X51321000Y13892240D01*
X51261396Y13592590D01*
X51144479Y13310326D01*
X50974741Y13056295D01*
X50758705Y12840259D01*
X50504674Y12670521D01*
X50222410Y12553604D01*
X50087516Y12526772D01*
X49922761Y12494000D01*
X49617239Y12494000D01*
X49452484Y12526772D01*
X49317590Y12553604D01*
X49035326Y12670521D01*
X48781295Y12840259D01*
X48565259Y13056295D01*
X48395521Y13310326D01*
X48278604Y13592590D01*
X48219000Y13892240D01*
X48219000Y14197760D01*
X48278604Y14497410D01*
X48395521Y14779674D01*
X48565259Y15033705D01*
X48781295Y15249741D01*
X49035326Y15419479D01*
X49317590Y15536396D01*
X49467415Y15566198D01*
X49617239Y15596000D01*
X49922761Y15596000D01*
X50072585Y15566198D01*
G37*
G36*
X27572585Y15566198D02*
G01*
X27722410Y15536396D01*
X28004674Y15419479D01*
X28258705Y15249741D01*
X28474741Y15033705D01*
X28644479Y14779674D01*
X28761396Y14497410D01*
X28821000Y14197760D01*
X28821000Y13892240D01*
X28761396Y13592590D01*
X28644479Y13310326D01*
X28474741Y13056295D01*
X28258705Y12840259D01*
X28004674Y12670521D01*
X27722410Y12553604D01*
X27587516Y12526772D01*
X27422761Y12494000D01*
X27117239Y12494000D01*
X26952484Y12526772D01*
X26817590Y12553604D01*
X26535326Y12670521D01*
X26281295Y12840259D01*
X26065259Y13056295D01*
X25895521Y13310326D01*
X25778604Y13592590D01*
X25719000Y13892240D01*
X25719000Y14197760D01*
X25778604Y14497410D01*
X25895521Y14779674D01*
X26065259Y15033705D01*
X26281295Y15249741D01*
X26535326Y15419479D01*
X26817590Y15536396D01*
X26967415Y15566198D01*
X27117239Y15596000D01*
X27422761Y15596000D01*
X27572585Y15566198D01*
G37*
G36*
X38838433Y15410107D02*
G01*
X38928657Y15392161D01*
X38976926Y15372167D01*
X39183621Y15286551D01*
X39259763Y15235675D01*
X39413086Y15133228D01*
X39608228Y14938086D01*
X39660811Y14859389D01*
X39761551Y14708621D01*
X39798527Y14619353D01*
X39862877Y14464000D01*
X39867161Y14453656D01*
X39921000Y14182988D01*
X39921000Y13907012D01*
X39918061Y13892239D01*
X39867161Y13636343D01*
X39823415Y13530733D01*
X39761551Y13381379D01*
X39718856Y13317481D01*
X39608228Y13151914D01*
X39413086Y12956772D01*
X39319362Y12894148D01*
X39183621Y12803449D01*
X39034267Y12741585D01*
X38928657Y12697839D01*
X38851446Y12682481D01*
X38657988Y12644000D01*
X38382012Y12644000D01*
X38188554Y12682481D01*
X38111343Y12697839D01*
X38005733Y12741585D01*
X37856379Y12803449D01*
X37720638Y12894148D01*
X37626914Y12956772D01*
X37431772Y13151914D01*
X37321144Y13317481D01*
X37278449Y13381379D01*
X37216585Y13530733D01*
X37172839Y13636343D01*
X37121939Y13892239D01*
X37119000Y13907012D01*
X37119000Y14182988D01*
X37172839Y14453656D01*
X37177124Y14464000D01*
X37241473Y14619353D01*
X37278449Y14708621D01*
X37379189Y14859389D01*
X37431772Y14938086D01*
X37626914Y15133228D01*
X37780237Y15235675D01*
X37856379Y15286551D01*
X38063074Y15372167D01*
X38111343Y15392161D01*
X38201567Y15410107D01*
X38382012Y15446000D01*
X38657988Y15446000D01*
X38838433Y15410107D01*
G37*
G36*
X21498512Y14941073D02*
G01*
X21647812Y14911376D01*
X21811784Y14843456D01*
X21959354Y14744853D01*
X22084853Y14619354D01*
X22183456Y14471784D01*
X22251376Y14307812D01*
X22286000Y14133741D01*
X22286000Y13956259D01*
X22251376Y13782188D01*
X22183456Y13618216D01*
X22084853Y13470646D01*
X21959354Y13345147D01*
X21811784Y13246544D01*
X21647812Y13178624D01*
X21513533Y13151915D01*
X21473742Y13144000D01*
X21296258Y13144000D01*
X21256467Y13151915D01*
X21122188Y13178624D01*
X20958216Y13246544D01*
X20810646Y13345147D01*
X20685147Y13470646D01*
X20586544Y13618216D01*
X20518624Y13782188D01*
X20484000Y13956259D01*
X20484000Y14133741D01*
X20518624Y14307812D01*
X20586544Y14471784D01*
X20685147Y14619354D01*
X20810646Y14744853D01*
X20958216Y14843456D01*
X21122188Y14911376D01*
X21271488Y14941073D01*
X21296258Y14946000D01*
X21473742Y14946000D01*
X21498512Y14941073D01*
G37*
G36*
X17498512Y14941073D02*
G01*
X17647812Y14911376D01*
X17811784Y14843456D01*
X17959354Y14744853D01*
X18084853Y14619354D01*
X18183456Y14471784D01*
X18251376Y14307812D01*
X18286000Y14133741D01*
X18286000Y13956259D01*
X18251376Y13782188D01*
X18183456Y13618216D01*
X18084853Y13470646D01*
X17959354Y13345147D01*
X17811784Y13246544D01*
X17647812Y13178624D01*
X17513533Y13151915D01*
X17473742Y13144000D01*
X17296258Y13144000D01*
X17256467Y13151915D01*
X17122188Y13178624D01*
X16958216Y13246544D01*
X16810646Y13345147D01*
X16685147Y13470646D01*
X16586544Y13618216D01*
X16518624Y13782188D01*
X16484000Y13956259D01*
X16484000Y14133741D01*
X16518624Y14307812D01*
X16586544Y14471784D01*
X16685147Y14619354D01*
X16810646Y14744853D01*
X16958216Y14843456D01*
X17122188Y14911376D01*
X17271488Y14941073D01*
X17296258Y14946000D01*
X17473742Y14946000D01*
X17498512Y14941073D01*
G37*
G36*
X13498512Y14941073D02*
G01*
X13647812Y14911376D01*
X13811784Y14843456D01*
X13959354Y14744853D01*
X14084853Y14619354D01*
X14183456Y14471784D01*
X14251376Y14307812D01*
X14286000Y14133741D01*
X14286000Y13956259D01*
X14251376Y13782188D01*
X14183456Y13618216D01*
X14084853Y13470646D01*
X13959354Y13345147D01*
X13811784Y13246544D01*
X13647812Y13178624D01*
X13513533Y13151915D01*
X13473742Y13144000D01*
X13296258Y13144000D01*
X13256467Y13151915D01*
X13122188Y13178624D01*
X12958216Y13246544D01*
X12810646Y13345147D01*
X12685147Y13470646D01*
X12586544Y13618216D01*
X12518624Y13782188D01*
X12484000Y13956259D01*
X12484000Y14133741D01*
X12518624Y14307812D01*
X12586544Y14471784D01*
X12685147Y14619354D01*
X12810646Y14744853D01*
X12958216Y14843456D01*
X13122188Y14911376D01*
X13271488Y14941073D01*
X13296258Y14946000D01*
X13473742Y14946000D01*
X13498512Y14941073D01*
G37*
G36*
X57003228Y16133297D02*
G01*
X57158100Y16069147D01*
X57297481Y15976015D01*
X57416015Y15857481D01*
X57509147Y15718100D01*
X57573297Y15563228D01*
X57606000Y15398816D01*
X57606000Y15231184D01*
X57573297Y15066772D01*
X57509147Y14911900D01*
X57416015Y14772519D01*
X57297481Y14653985D01*
X57158100Y14560853D01*
X57003228Y14496703D01*
X56838816Y14464000D01*
X56671184Y14464000D01*
X56506772Y14496703D01*
X56351900Y14560853D01*
X56212519Y14653985D01*
X56093985Y14772519D01*
X56000853Y14911900D01*
X55936703Y15066772D01*
X55904000Y15231184D01*
X55904000Y15398816D01*
X55936703Y15563228D01*
X56000853Y15718100D01*
X56093985Y15857481D01*
X56212519Y15976015D01*
X56351900Y16069147D01*
X56506772Y16133297D01*
X56671184Y16166000D01*
X56838816Y16166000D01*
X57003228Y16133297D01*
G37*
G36*
X64623228Y16133297D02*
G01*
X64778100Y16069147D01*
X64917481Y15976015D01*
X65036015Y15857481D01*
X65129147Y15718100D01*
X65193297Y15563228D01*
X65226000Y15398816D01*
X65226000Y15231184D01*
X65193297Y15066772D01*
X65129147Y14911900D01*
X65036015Y14772519D01*
X64917481Y14653985D01*
X64778100Y14560853D01*
X64623228Y14496703D01*
X64458816Y14464000D01*
X64291184Y14464000D01*
X64126772Y14496703D01*
X63971900Y14560853D01*
X63832519Y14653985D01*
X63713985Y14772519D01*
X63620853Y14911900D01*
X63556703Y15066772D01*
X63524000Y15231184D01*
X63524000Y15398816D01*
X63556703Y15563228D01*
X63620853Y15718100D01*
X63713985Y15857481D01*
X63832519Y15976015D01*
X63971900Y16069147D01*
X64126772Y16133297D01*
X64291184Y16166000D01*
X64458816Y16166000D01*
X64623228Y16133297D01*
G37*
G36*
X89417142Y16339719D02*
G01*
X89562914Y16279338D01*
X89562916Y16279337D01*
X89694108Y16191678D01*
X89805678Y16080108D01*
X89893337Y15948916D01*
X89893338Y15948914D01*
X89953719Y15803142D01*
X89984500Y15648393D01*
X89984500Y15490607D01*
X89953719Y15335858D01*
X89910362Y15231185D01*
X89893337Y15190084D01*
X89805678Y15058892D01*
X89694108Y14947322D01*
X89562916Y14859663D01*
X89562915Y14859662D01*
X89562914Y14859662D01*
X89417142Y14799281D01*
X89262393Y14768500D01*
X89104607Y14768500D01*
X88949858Y14799281D01*
X88804086Y14859662D01*
X88804085Y14859662D01*
X88804084Y14859663D01*
X88672892Y14947322D01*
X88561322Y15058892D01*
X88473663Y15190084D01*
X88456638Y15231185D01*
X88413281Y15335858D01*
X88382500Y15490607D01*
X88382500Y15648393D01*
X88413281Y15803142D01*
X88473662Y15948914D01*
X88473663Y15948916D01*
X88561322Y16080108D01*
X88672892Y16191678D01*
X88804084Y16279337D01*
X88804086Y16279338D01*
X88949858Y16339719D01*
X89104607Y16370500D01*
X89262393Y16370500D01*
X89417142Y16339719D01*
G37*
G36*
X87484500Y14768500D02*
G01*
X85882500Y14768500D01*
X85882500Y16370500D01*
X87484500Y16370500D01*
X87484500Y14768500D01*
G37*
G36*
X79921564Y16880611D02*
G01*
X80112833Y16801385D01*
X80112835Y16801384D01*
X80233138Y16721000D01*
X80284973Y16686365D01*
X80431365Y16539973D01*
X80546385Y16367833D01*
X80625611Y16176564D01*
X80666000Y15973516D01*
X80666000Y15766484D01*
X80625611Y15563436D01*
X80565982Y15419479D01*
X80546384Y15372165D01*
X80431365Y15200027D01*
X80284973Y15053635D01*
X80112835Y14938616D01*
X80112834Y14938615D01*
X80112833Y14938615D01*
X79921564Y14859389D01*
X79718516Y14819000D01*
X79511484Y14819000D01*
X79308436Y14859389D01*
X79117167Y14938615D01*
X79117166Y14938615D01*
X79117165Y14938616D01*
X78945027Y15053635D01*
X78798635Y15200027D01*
X78683616Y15372165D01*
X78664018Y15419479D01*
X78604389Y15563436D01*
X78564000Y15766484D01*
X78564000Y15973516D01*
X78604389Y16176564D01*
X78683615Y16367833D01*
X78798635Y16539973D01*
X78945027Y16686365D01*
X78996862Y16721000D01*
X79117165Y16801384D01*
X79117167Y16801385D01*
X79308436Y16880611D01*
X79511484Y16921000D01*
X79718516Y16921000D01*
X79921564Y16880611D01*
G37*
G36*
X67798228Y16688297D02*
G01*
X67953100Y16624147D01*
X68092481Y16531015D01*
X68211015Y16412481D01*
X68304147Y16273100D01*
X68368297Y16118228D01*
X68401000Y15953816D01*
X68401000Y15786184D01*
X68368297Y15621772D01*
X68304147Y15466900D01*
X68211015Y15327519D01*
X68092481Y15208985D01*
X67953100Y15115853D01*
X67798228Y15051703D01*
X67633816Y15019000D01*
X67466184Y15019000D01*
X67301772Y15051703D01*
X67146900Y15115853D01*
X67007519Y15208985D01*
X66888985Y15327519D01*
X66795853Y15466900D01*
X66731703Y15621772D01*
X66699000Y15786184D01*
X66699000Y15953816D01*
X66731703Y16118228D01*
X66795853Y16273100D01*
X66888985Y16412481D01*
X67007519Y16531015D01*
X67146900Y16624147D01*
X67301772Y16688297D01*
X67466184Y16721000D01*
X67633816Y16721000D01*
X67798228Y16688297D01*
G37*
G36*
X53828228Y18593297D02*
G01*
X53983100Y18529147D01*
X54122481Y18436015D01*
X54241015Y18317481D01*
X54334147Y18178100D01*
X54398297Y18023228D01*
X54431000Y17858816D01*
X54431000Y17691184D01*
X54398297Y17526772D01*
X54334147Y17371900D01*
X54241015Y17232519D01*
X54122481Y17113985D01*
X53983100Y17020853D01*
X53828228Y16956703D01*
X53663816Y16924000D01*
X53496184Y16924000D01*
X53331772Y16956703D01*
X53176900Y17020853D01*
X53037519Y17113985D01*
X52918985Y17232519D01*
X52825853Y17371900D01*
X52761703Y17526772D01*
X52729000Y17691184D01*
X52729000Y17858816D01*
X52761703Y18023228D01*
X52825853Y18178100D01*
X52918985Y18317481D01*
X53037519Y18436015D01*
X53176900Y18529147D01*
X53331772Y18593297D01*
X53496184Y18626000D01*
X53663816Y18626000D01*
X53828228Y18593297D01*
G37*
G36*
X64623228Y18673297D02*
G01*
X64778100Y18609147D01*
X64917481Y18516015D01*
X65036015Y18397481D01*
X65129147Y18258100D01*
X65193297Y18103228D01*
X65226000Y17938816D01*
X65226000Y17771184D01*
X65193297Y17606772D01*
X65129147Y17451900D01*
X65036015Y17312519D01*
X64917481Y17193985D01*
X64778100Y17100853D01*
X64623228Y17036703D01*
X64458816Y17004000D01*
X64291184Y17004000D01*
X64126772Y17036703D01*
X63971900Y17100853D01*
X63832519Y17193985D01*
X63713985Y17312519D01*
X63620853Y17451900D01*
X63556703Y17606772D01*
X63524000Y17771184D01*
X63524000Y17938816D01*
X63556703Y18103228D01*
X63620853Y18258100D01*
X63713985Y18397481D01*
X63832519Y18516015D01*
X63971900Y18609147D01*
X64126772Y18673297D01*
X64291184Y18706000D01*
X64458816Y18706000D01*
X64623228Y18673297D01*
G37*
G36*
X57003228Y18673297D02*
G01*
X57158100Y18609147D01*
X57297481Y18516015D01*
X57416015Y18397481D01*
X57509147Y18258100D01*
X57573297Y18103228D01*
X57606000Y17938816D01*
X57606000Y17771184D01*
X57573297Y17606772D01*
X57509147Y17451900D01*
X57416015Y17312519D01*
X57297481Y17193985D01*
X57158100Y17100853D01*
X57003228Y17036703D01*
X56838816Y17004000D01*
X56671184Y17004000D01*
X56506772Y17036703D01*
X56351900Y17100853D01*
X56212519Y17193985D01*
X56093985Y17312519D01*
X56000853Y17451900D01*
X55936703Y17606772D01*
X55904000Y17771184D01*
X55904000Y17938816D01*
X55936703Y18103228D01*
X56000853Y18258100D01*
X56093985Y18397481D01*
X56212519Y18516015D01*
X56351900Y18609147D01*
X56506772Y18673297D01*
X56671184Y18706000D01*
X56838816Y18706000D01*
X57003228Y18673297D01*
G37*
G36*
X23691564Y19305611D02*
G01*
X23882833Y19226385D01*
X23882835Y19226384D01*
X24054973Y19111365D01*
X24201365Y18964973D01*
X24316385Y18792833D01*
X24395611Y18601564D01*
X24436000Y18398516D01*
X24436000Y18191484D01*
X24395611Y17988436D01*
X24341920Y17858815D01*
X24316384Y17797165D01*
X24201365Y17625027D01*
X24054973Y17478635D01*
X23882835Y17363616D01*
X23882834Y17363615D01*
X23882833Y17363615D01*
X23691564Y17284389D01*
X23488516Y17244000D01*
X23281484Y17244000D01*
X23078436Y17284389D01*
X22887167Y17363615D01*
X22887166Y17363615D01*
X22887165Y17363616D01*
X22715027Y17478635D01*
X22568635Y17625027D01*
X22453616Y17797165D01*
X22428080Y17858815D01*
X22374389Y17988436D01*
X22334000Y18191484D01*
X22334000Y18398516D01*
X22374389Y18601564D01*
X22453615Y18792833D01*
X22568635Y18964973D01*
X22715027Y19111365D01*
X22887165Y19226384D01*
X22887167Y19226385D01*
X23078436Y19305611D01*
X23281484Y19346000D01*
X23488516Y19346000D01*
X23691564Y19305611D01*
G37*
G36*
X11691564Y19305611D02*
G01*
X11882833Y19226385D01*
X11882835Y19226384D01*
X12054973Y19111365D01*
X12201365Y18964973D01*
X12316385Y18792833D01*
X12395611Y18601564D01*
X12436000Y18398516D01*
X12436000Y18191484D01*
X12395611Y17988436D01*
X12341920Y17858815D01*
X12316384Y17797165D01*
X12201365Y17625027D01*
X12054973Y17478635D01*
X11882835Y17363616D01*
X11882834Y17363615D01*
X11882833Y17363615D01*
X11691564Y17284389D01*
X11488516Y17244000D01*
X11281484Y17244000D01*
X11078436Y17284389D01*
X10887167Y17363615D01*
X10887166Y17363615D01*
X10887165Y17363616D01*
X10715027Y17478635D01*
X10568635Y17625027D01*
X10453616Y17797165D01*
X10428080Y17858815D01*
X10374389Y17988436D01*
X10334000Y18191484D01*
X10334000Y18398516D01*
X10374389Y18601564D01*
X10453615Y18792833D01*
X10568635Y18964973D01*
X10715027Y19111365D01*
X10887165Y19226384D01*
X10887167Y19226385D01*
X11078436Y19305611D01*
X11281484Y19346000D01*
X11488516Y19346000D01*
X11691564Y19305611D01*
G37*
M02*
