G04 #@! TF.GenerationSoftware,KiCad,Pcbnew,(5.1.5)-2*
G04 #@! TF.CreationDate,2020-02-20T00:29:19+01:00*
G04 #@! TF.ProjectId,DC,44432e6b-6963-4616-945f-706362585858,V1.0*
G04 #@! TF.SameCoordinates,PXe4e1c0PY2160ec0*
G04 #@! TF.FileFunction,Copper,L1,Top*
G04 #@! TF.FilePolarity,Positive*
%FSLAX46Y46*%
G04 Gerber Fmt 4.6, Leading zero omitted, Abs format (unit mm)*
G04 Created by KiCad (PCBNEW (5.1.5)-2) date 2020-02-20 00:29:19*
%MOMM*%
%LPD*%
G04 APERTURE LIST*
%ADD10C,6.400000*%
%ADD11C,1.500000*%
%ADD12R,1.500000X1.500000*%
%ADD13O,1.600000X1.600000*%
%ADD14R,1.600000X1.600000*%
%ADD15C,1.700000*%
%ADD16C,2.000000*%
%ADD17C,1.600000*%
%ADD18C,2.600000*%
%ADD19O,1.700000X1.700000*%
%ADD20R,1.700000X1.700000*%
%ADD21C,3.000000*%
%ADD22O,3.200000X3.200000*%
%ADD23R,3.200000X3.200000*%
%ADD24R,2.000000X2.000000*%
%ADD25C,0.500000*%
G04 APERTURE END LIST*
D10*
X76000000Y10000000D03*
X4000000Y10000000D03*
D11*
X77710000Y15950000D03*
D12*
X75210000Y15950000D03*
D13*
X43801000Y10235000D03*
X51421000Y17855000D03*
X43801000Y12775000D03*
X51421000Y15315000D03*
X43801000Y15315000D03*
X51421000Y12775000D03*
X43801000Y17855000D03*
D14*
X51421000Y10235000D03*
D15*
X11035000Y14045000D03*
X15035000Y14045000D03*
X19035000Y14045000D03*
D16*
X21035000Y18295000D03*
X9035000Y18295000D03*
X9035000Y12295000D03*
X21035000Y12295000D03*
D13*
X71995000Y17855000D03*
D17*
X61835000Y17855000D03*
D18*
X59930000Y5155000D03*
X54930000Y5155000D03*
D19*
X75805000Y2615000D03*
D20*
X73265000Y2615000D03*
D19*
X2081500Y17855000D03*
D20*
X4621500Y17855000D03*
D21*
X8220000Y5155000D03*
X30720000Y5155000D03*
D22*
X35165000Y3250000D03*
D23*
X50405000Y3250000D03*
D16*
X66915000Y7140000D03*
D24*
X66915000Y12140000D03*
D17*
X54930000Y12775000D03*
X59930000Y12775000D03*
X38340000Y17775000D03*
X38340000Y12775000D03*
X31990000Y14775000D03*
D14*
X31990000Y12775000D03*
D25*
X73265000Y3965000D02*
X73265000Y2615000D01*
X73265000Y7290000D02*
X73265000Y3965000D01*
X68415000Y12140000D02*
X73265000Y7290000D01*
X66915000Y12140000D02*
X68415000Y12140000D01*
X51421000Y17855000D02*
X61835000Y17855000D01*
X66915000Y13640000D02*
X66915000Y12140000D01*
X66915000Y13906370D02*
X66915000Y13640000D01*
X62966370Y17855000D02*
X66915000Y13906370D01*
X61835000Y17855000D02*
X62966370Y17855000D01*
X59930000Y5155000D02*
X66915000Y12140000D01*
X10341320Y5155000D02*
X8220000Y5155000D01*
X11347081Y5155000D02*
X10341320Y5155000D01*
X19035000Y12842919D02*
X11347081Y5155000D01*
X19035000Y14045000D02*
X19035000Y12842919D01*
X75805000Y17855000D02*
X77710000Y15950000D01*
X71995000Y17855000D02*
X75805000Y17855000D01*
X52390000Y10235000D02*
X54930000Y12775000D01*
X51421000Y10235000D02*
X52390000Y10235000D01*
X43801000Y9103630D02*
X43801000Y10235000D01*
X43801000Y7754000D02*
X43801000Y9103630D01*
X48305000Y3250000D02*
X43801000Y7754000D01*
X50405000Y3250000D02*
X48305000Y3250000D01*
X53025000Y3250000D02*
X54930000Y5155000D01*
X50405000Y3250000D02*
X53025000Y3250000D01*
X59930000Y10155000D02*
X54930000Y5155000D01*
X59930000Y12775000D02*
X59930000Y10155000D01*
X39471370Y12775000D02*
X43801000Y12775000D01*
X38340000Y12775000D02*
X39471370Y12775000D01*
X31990000Y12775000D02*
X38340000Y12775000D01*
X30720000Y11505000D02*
X31990000Y12775000D01*
X30720000Y5155000D02*
X30720000Y11505000D01*
X13003000Y16077000D02*
X14185001Y14894999D01*
X14185001Y14894999D02*
X15035000Y14045000D01*
X7749500Y16077000D02*
X13003000Y16077000D01*
X4621500Y17855000D02*
X5971500Y17855000D01*
X5971500Y17855000D02*
X7749500Y16077000D01*
M02*
