G04 #@! TF.GenerationSoftware,KiCad,Pcbnew,(5.1.5)-2*
G04 #@! TF.CreationDate,2020-02-22T01:41:57+01:00*
G04 #@! TF.ProjectId,DC,44432e6b-6963-4616-945f-706362585858,V1.0*
G04 #@! TF.SameCoordinates,PXe4e1c0PY1d905c0*
G04 #@! TF.FileFunction,Copper,L1,Top*
G04 #@! TF.FilePolarity,Positive*
%FSLAX46Y46*%
G04 Gerber Fmt 4.6, Leading zero omitted, Abs format (unit mm)*
G04 Created by KiCad (PCBNEW (5.1.5)-2) date 2020-02-22 01:41:57*
%MOMM*%
%LPD*%
G04 APERTURE LIST*
%ADD10C,6.400000*%
%ADD11C,1.500000*%
%ADD12R,1.500000X1.500000*%
%ADD13O,1.600000X1.600000*%
%ADD14R,1.600000X1.600000*%
%ADD15C,1.700000*%
%ADD16C,2.000000*%
%ADD17C,1.600000*%
%ADD18C,2.600000*%
%ADD19O,1.700000X1.700000*%
%ADD20R,1.700000X1.700000*%
%ADD21O,3.200000X3.200000*%
%ADD22R,3.200000X3.200000*%
%ADD23R,2.000000X2.000000*%
%ADD24C,0.500000*%
G04 APERTURE END LIST*
D10*
X95000000Y11000000D03*
X5000000Y11000000D03*
D11*
X89183500Y11569500D03*
D12*
X86683500Y11569500D03*
D13*
X55485000Y6235000D03*
X63105000Y13855000D03*
X55485000Y8775000D03*
X63105000Y11315000D03*
X55485000Y11315000D03*
X63105000Y8775000D03*
X55485000Y13855000D03*
D14*
X63105000Y6235000D03*
D15*
X16560000Y10045000D03*
X20560000Y10045000D03*
X24560000Y10045000D03*
D16*
X26560000Y14295000D03*
X14560000Y14295000D03*
X14560000Y8295000D03*
X26560000Y8295000D03*
D13*
X96125000Y4965000D03*
D17*
X85965000Y4965000D03*
D18*
X69455000Y11950000D03*
X69455000Y6950000D03*
D19*
X69455000Y2679000D03*
D20*
X71995000Y2679000D03*
D19*
X11035000Y9410000D03*
D20*
X11035000Y11950000D03*
D21*
X36435000Y6235000D03*
D22*
X51675000Y6235000D03*
D16*
X79615000Y6315000D03*
D23*
X79615000Y11315000D03*
D17*
X61755000Y2425000D03*
X56755000Y2425000D03*
X47310000Y12585000D03*
X52310000Y12585000D03*
X31355000Y12045000D03*
D14*
X31355000Y10045000D03*
D24*
X67550000Y13855000D02*
X69455000Y11950000D01*
X63105000Y13855000D02*
X67550000Y13855000D01*
X70090000Y11315000D02*
X69455000Y11950000D01*
X79615000Y11315000D02*
X70090000Y11315000D01*
X85965000Y6096370D02*
X85965000Y4965000D01*
X85965000Y6465000D02*
X85965000Y6096370D01*
X81115000Y11315000D02*
X85965000Y6465000D01*
X79615000Y11315000D02*
X81115000Y11315000D01*
X71995000Y3695000D02*
X79615000Y11315000D01*
X71995000Y2679000D02*
X71995000Y3695000D01*
X94993630Y4965000D02*
X96125000Y4965000D01*
X94727340Y4965000D02*
X94993630Y4965000D01*
X89183500Y10508840D02*
X94727340Y4965000D01*
X89183500Y11569500D02*
X89183500Y10508840D01*
X63105000Y3775000D02*
X61755000Y2425000D01*
X63105000Y6235000D02*
X63105000Y3775000D01*
X51675000Y6235000D02*
X55485000Y6235000D01*
X55485000Y3695000D02*
X56755000Y2425000D01*
X55485000Y6235000D02*
X55485000Y3695000D01*
X68155001Y5650001D02*
X69455000Y6950000D01*
X63406000Y901000D02*
X68155001Y5650001D01*
X56755000Y2425000D02*
X58279000Y901000D01*
X58279000Y901000D02*
X63406000Y901000D01*
X24560000Y10045000D02*
X31355000Y10045000D01*
X49770000Y10045000D02*
X52310000Y12585000D01*
X31355000Y10045000D02*
X49770000Y10045000D01*
X51040000Y8775000D02*
X55485000Y8775000D01*
X49770000Y10045000D02*
X51040000Y8775000D01*
X18655000Y11950000D02*
X20560000Y10045000D01*
X11035000Y11950000D02*
X18655000Y11950000D01*
M02*
