G04 #@! TF.GenerationSoftware,KiCad,Pcbnew,(5.1.5)-2*
G04 #@! TF.CreationDate,2020-02-21T18:19:01+01:00*
G04 #@! TF.ProjectId,DC,44432e6b-6963-4616-945f-706362585858,V1.0*
G04 #@! TF.SameCoordinates,PXe4e1c0PY2160ec0*
G04 #@! TF.FileFunction,Copper,L1,Top*
G04 #@! TF.FilePolarity,Positive*
%FSLAX46Y46*%
G04 Gerber Fmt 4.6, Leading zero omitted, Abs format (unit mm)*
G04 Created by KiCad (PCBNEW (5.1.5)-2) date 2020-02-21 18:19:01*
%MOMM*%
%LPD*%
G04 APERTURE LIST*
%ADD10C,6.400000*%
%ADD11C,1.500000*%
%ADD12R,1.500000X1.500000*%
%ADD13O,1.600000X1.600000*%
%ADD14R,1.600000X1.600000*%
%ADD15C,1.700000*%
%ADD16C,2.000000*%
%ADD17C,1.600000*%
%ADD18C,2.600000*%
%ADD19O,1.700000X1.700000*%
%ADD20R,1.700000X1.700000*%
%ADD21C,3.000000*%
%ADD22O,3.200000X3.200000*%
%ADD23R,3.200000X3.200000*%
%ADD24R,2.000000X2.000000*%
%ADD25C,0.500000*%
G04 APERTURE END LIST*
D10*
X95000000Y5000000D03*
X5000000Y5000000D03*
D11*
X89183500Y15569500D03*
D12*
X86683500Y15569500D03*
D13*
X56755000Y10235000D03*
X64375000Y17855000D03*
X56755000Y12775000D03*
X64375000Y15315000D03*
X56755000Y15315000D03*
X64375000Y12775000D03*
X56755000Y17855000D03*
D14*
X64375000Y10235000D03*
D15*
X13385000Y14045000D03*
X17385000Y14045000D03*
X21385000Y14045000D03*
D16*
X23385000Y18295000D03*
X11385000Y18295000D03*
X11385000Y12295000D03*
X23385000Y12295000D03*
D13*
X88505000Y12140000D03*
D17*
X88505000Y1980000D03*
D18*
X74535000Y5790000D03*
X69535000Y5790000D03*
D19*
X82155000Y2615000D03*
D20*
X84695000Y2615000D03*
D19*
X14845000Y2615000D03*
D20*
X17385000Y2615000D03*
D21*
X27270000Y14045000D03*
X49770000Y14045000D03*
D22*
X49770000Y3885000D03*
D23*
X65010000Y3885000D03*
D16*
X79615000Y15870000D03*
D24*
X79615000Y10870000D03*
D17*
X67550000Y10870000D03*
X67550000Y15870000D03*
X53580000Y17775000D03*
X53580000Y12775000D03*
X42150000Y3790000D03*
D14*
X42150000Y5790000D03*
D25*
X84695000Y5790000D02*
X88505000Y1980000D01*
X84695000Y5790000D02*
X84695000Y2615000D01*
X79615000Y5790000D02*
X79615000Y10870000D01*
X79615000Y5790000D02*
X84695000Y5790000D01*
X74535000Y5790000D02*
X79615000Y5790000D01*
X79615000Y12370000D02*
X79615000Y10870000D01*
X74130000Y17855000D02*
X79615000Y12370000D01*
X64375000Y17855000D02*
X74130000Y17855000D01*
X22587081Y14045000D02*
X27270000Y14045000D01*
X21385000Y14045000D02*
X22587081Y14045000D01*
X89183500Y12818500D02*
X88505000Y12140000D01*
X89183500Y15569500D02*
X89183500Y12818500D01*
X66915000Y10235000D02*
X67550000Y10870000D01*
X64375000Y10235000D02*
X66915000Y10235000D01*
X67630000Y3885000D02*
X69535000Y5790000D01*
X65010000Y3885000D02*
X67630000Y3885000D01*
X69535000Y13885000D02*
X69535000Y5790000D01*
X67550000Y15870000D02*
X69535000Y13885000D01*
X62910000Y3885000D02*
X65010000Y3885000D01*
X61973630Y3885000D02*
X62910000Y3885000D01*
X56755000Y9103630D02*
X61973630Y3885000D01*
X56755000Y10235000D02*
X56755000Y9103630D01*
X53580000Y12775000D02*
X56755000Y12775000D01*
X42150000Y7090000D02*
X42150000Y5790000D01*
X47648680Y14045000D02*
X42150000Y8546320D01*
X42150000Y8546320D02*
X42150000Y7090000D01*
X49770000Y14045000D02*
X47648680Y14045000D01*
X52310000Y14045000D02*
X53580000Y12775000D01*
X49770000Y14045000D02*
X52310000Y14045000D01*
X17385000Y14045000D02*
X17385000Y2615000D01*
M02*
