G04 #@! TF.GenerationSoftware,KiCad,Pcbnew,(5.1.5)-2*
G04 #@! TF.CreationDate,2020-02-20T00:29:19+01:00*
G04 #@! TF.ProjectId,DC,44432e6b-6963-4616-945f-706362585858,V1.0*
G04 #@! TF.SameCoordinates,PXe4e1c0PY2160ec0*
G04 #@! TF.FileFunction,Legend,Top*
G04 #@! TF.FilePolarity,Positive*
%FSLAX46Y46*%
G04 Gerber Fmt 4.6, Leading zero omitted, Abs format (unit mm)*
G04 Created by KiCad (PCBNEW (5.1.5)-2) date 2020-02-20 00:29:19*
%MOMM*%
%LPD*%
G04 APERTURE LIST*
%ADD10C,0.250000*%
%ADD11C,0.120000*%
%ADD12C,0.150000*%
%ADD13C,6.502000*%
%ADD14C,1.602000*%
%ADD15R,1.602000X1.602000*%
%ADD16O,1.702000X1.702000*%
%ADD17R,1.702000X1.702000*%
%ADD18C,1.802000*%
%ADD19C,2.102000*%
%ADD20C,1.702000*%
%ADD21C,2.702000*%
%ADD22O,1.802000X1.802000*%
%ADD23R,1.802000X1.802000*%
%ADD24C,2.802000*%
%ADD25C,3.102000*%
%ADD26O,3.302000X3.302000*%
%ADD27R,3.302000X3.302000*%
%ADD28R,2.102000X2.102000*%
G04 APERTURE END LIST*
D10*
X74510000Y14750000D02*
X74510000Y15050000D01*
X78410000Y14750000D02*
X78410000Y15350000D01*
X74510000Y16850000D02*
X74510000Y19850000D01*
X78410000Y19850000D02*
X78410000Y16550000D01*
X74510000Y14750000D02*
X78410000Y14750000D01*
X74510000Y19850000D02*
X78410000Y19850000D01*
D11*
X44961000Y8905000D02*
X46611000Y8905000D01*
X44961000Y19185000D02*
X44961000Y8905000D01*
X50261000Y19185000D02*
X44961000Y19185000D01*
X50261000Y8905000D02*
X50261000Y19185000D01*
X48611000Y8905000D02*
X50261000Y8905000D01*
X46611000Y8905000D02*
G75*
G02X48611000Y8905000I1000000J0D01*
G01*
X8035000Y12695000D02*
X8035000Y17895000D01*
X22035000Y17895000D02*
X22035000Y12695000D01*
X19985000Y11945000D02*
X10085000Y11945000D01*
X10085000Y18645000D02*
X19985000Y18645000D01*
X22335000Y12295000D02*
X22335000Y10995000D01*
X22335000Y10995000D02*
X21035000Y10995000D01*
X70955000Y17855000D02*
X70185000Y17855000D01*
X62875000Y17855000D02*
X63645000Y17855000D01*
X70185000Y19225000D02*
X63645000Y19225000D01*
X70185000Y16485000D02*
X70185000Y19225000D01*
X63645000Y16485000D02*
X70185000Y16485000D01*
X63645000Y19225000D02*
X63645000Y16485000D01*
X61900000Y5155000D02*
G75*
G03X61900000Y5155000I-4470000J0D01*
G01*
X71935000Y1285000D02*
X71935000Y2615000D01*
X73265000Y1285000D02*
X71935000Y1285000D01*
X74535000Y1285000D02*
X74535000Y3945000D01*
X74535000Y3945000D02*
X77135000Y3945000D01*
X74535000Y1285000D02*
X77135000Y1285000D01*
X77135000Y1285000D02*
X77135000Y3945000D01*
X5951500Y19185000D02*
X5951500Y17855000D01*
X4621500Y19185000D02*
X5951500Y19185000D01*
X3351500Y19185000D02*
X3351500Y16525000D01*
X3351500Y16525000D02*
X751500Y16525000D01*
X3351500Y19185000D02*
X751500Y19185000D01*
X751500Y19185000D02*
X751500Y16525000D01*
D12*
X30720000Y9955000D02*
X30720000Y7155000D01*
X30720000Y9955000D02*
X8220000Y9955000D01*
X30720000Y355000D02*
X8220000Y355000D01*
X30720000Y3155000D02*
X30720000Y355000D01*
X8220000Y3155000D02*
X8220000Y355000D01*
X8220000Y9955000D02*
X8220000Y7155000D01*
D11*
X46230000Y530000D02*
X46230000Y5970000D01*
X45990000Y530000D02*
X45990000Y5970000D01*
X46110000Y530000D02*
X46110000Y5970000D01*
X37005000Y3250000D02*
X37915000Y3250000D01*
X48565000Y3250000D02*
X47655000Y3250000D01*
X37915000Y530000D02*
X47655000Y530000D01*
X37915000Y5970000D02*
X37915000Y530000D01*
X47655000Y5970000D02*
X37915000Y5970000D01*
X47655000Y530000D02*
X47655000Y5970000D01*
X70290000Y14619646D02*
X69290000Y14619646D01*
X69790000Y15119646D02*
X69790000Y14119646D01*
X67514000Y4559000D02*
X66316000Y4559000D01*
X67777000Y4599000D02*
X66053000Y4599000D01*
X67977000Y4639000D02*
X65853000Y4639000D01*
X68145000Y4679000D02*
X65685000Y4679000D01*
X68293000Y4719000D02*
X65537000Y4719000D01*
X68425000Y4759000D02*
X65405000Y4759000D01*
X68545000Y4799000D02*
X65285000Y4799000D01*
X68657000Y4839000D02*
X65173000Y4839000D01*
X68761000Y4879000D02*
X65069000Y4879000D01*
X68859000Y4919000D02*
X64971000Y4919000D01*
X68952000Y4959000D02*
X64878000Y4959000D01*
X69040000Y4999000D02*
X64790000Y4999000D01*
X69124000Y5039000D02*
X64706000Y5039000D01*
X69204000Y5079000D02*
X64626000Y5079000D01*
X69280000Y5119000D02*
X64550000Y5119000D01*
X69354000Y5159000D02*
X64476000Y5159000D01*
X69425000Y5199000D02*
X64405000Y5199000D01*
X69494000Y5239000D02*
X64336000Y5239000D01*
X69560000Y5279000D02*
X64270000Y5279000D01*
X69624000Y5319000D02*
X64206000Y5319000D01*
X69685000Y5359000D02*
X64145000Y5359000D01*
X69745000Y5399000D02*
X64085000Y5399000D01*
X69804000Y5439000D02*
X64026000Y5439000D01*
X69860000Y5479000D02*
X63970000Y5479000D01*
X69915000Y5519000D02*
X63915000Y5519000D01*
X69969000Y5559000D02*
X63861000Y5559000D01*
X70021000Y5599000D02*
X63809000Y5599000D01*
X70071000Y5639000D02*
X63759000Y5639000D01*
X70121000Y5679000D02*
X63709000Y5679000D01*
X70169000Y5719000D02*
X63661000Y5719000D01*
X70216000Y5759000D02*
X63614000Y5759000D01*
X70262000Y5799000D02*
X63568000Y5799000D01*
X70307000Y5839000D02*
X63523000Y5839000D01*
X70351000Y5879000D02*
X63479000Y5879000D01*
X65674000Y5919000D02*
X63437000Y5919000D01*
X70393000Y5919000D02*
X68156000Y5919000D01*
X65674000Y5959000D02*
X63395000Y5959000D01*
X70435000Y5959000D02*
X68156000Y5959000D01*
X65674000Y5999000D02*
X63354000Y5999000D01*
X70476000Y5999000D02*
X68156000Y5999000D01*
X65674000Y6039000D02*
X63314000Y6039000D01*
X70516000Y6039000D02*
X68156000Y6039000D01*
X65674000Y6079000D02*
X63275000Y6079000D01*
X70555000Y6079000D02*
X68156000Y6079000D01*
X65674000Y6119000D02*
X63236000Y6119000D01*
X70594000Y6119000D02*
X68156000Y6119000D01*
X65674000Y6159000D02*
X63199000Y6159000D01*
X70631000Y6159000D02*
X68156000Y6159000D01*
X65674000Y6199000D02*
X63162000Y6199000D01*
X70668000Y6199000D02*
X68156000Y6199000D01*
X65674000Y6239000D02*
X63126000Y6239000D01*
X70704000Y6239000D02*
X68156000Y6239000D01*
X65674000Y6279000D02*
X63091000Y6279000D01*
X70739000Y6279000D02*
X68156000Y6279000D01*
X65674000Y6319000D02*
X63057000Y6319000D01*
X70773000Y6319000D02*
X68156000Y6319000D01*
X65674000Y6359000D02*
X63023000Y6359000D01*
X70807000Y6359000D02*
X68156000Y6359000D01*
X65674000Y6399000D02*
X62990000Y6399000D01*
X70840000Y6399000D02*
X68156000Y6399000D01*
X65674000Y6439000D02*
X62958000Y6439000D01*
X70872000Y6439000D02*
X68156000Y6439000D01*
X65674000Y6479000D02*
X62926000Y6479000D01*
X70904000Y6479000D02*
X68156000Y6479000D01*
X65674000Y6519000D02*
X62895000Y6519000D01*
X70935000Y6519000D02*
X68156000Y6519000D01*
X65674000Y6559000D02*
X62865000Y6559000D01*
X70965000Y6559000D02*
X68156000Y6559000D01*
X65674000Y6599000D02*
X62835000Y6599000D01*
X70995000Y6599000D02*
X68156000Y6599000D01*
X65674000Y6639000D02*
X62805000Y6639000D01*
X71025000Y6639000D02*
X68156000Y6639000D01*
X65674000Y6679000D02*
X62777000Y6679000D01*
X71053000Y6679000D02*
X68156000Y6679000D01*
X65674000Y6719000D02*
X62749000Y6719000D01*
X71081000Y6719000D02*
X68156000Y6719000D01*
X65674000Y6759000D02*
X62721000Y6759000D01*
X71109000Y6759000D02*
X68156000Y6759000D01*
X65674000Y6799000D02*
X62694000Y6799000D01*
X71136000Y6799000D02*
X68156000Y6799000D01*
X65674000Y6839000D02*
X62668000Y6839000D01*
X71162000Y6839000D02*
X68156000Y6839000D01*
X65674000Y6879000D02*
X62642000Y6879000D01*
X71188000Y6879000D02*
X68156000Y6879000D01*
X65674000Y6919000D02*
X62617000Y6919000D01*
X71213000Y6919000D02*
X68156000Y6919000D01*
X65674000Y6959000D02*
X62592000Y6959000D01*
X71238000Y6959000D02*
X68156000Y6959000D01*
X65674000Y6999000D02*
X62568000Y6999000D01*
X71262000Y6999000D02*
X68156000Y6999000D01*
X65674000Y7039000D02*
X62544000Y7039000D01*
X71286000Y7039000D02*
X68156000Y7039000D01*
X65674000Y7079000D02*
X62520000Y7079000D01*
X71310000Y7079000D02*
X68156000Y7079000D01*
X65674000Y7119000D02*
X62498000Y7119000D01*
X71332000Y7119000D02*
X68156000Y7119000D01*
X65674000Y7159000D02*
X62475000Y7159000D01*
X71355000Y7159000D02*
X68156000Y7159000D01*
X65674000Y7199000D02*
X62453000Y7199000D01*
X71377000Y7199000D02*
X68156000Y7199000D01*
X65674000Y7239000D02*
X62432000Y7239000D01*
X71398000Y7239000D02*
X68156000Y7239000D01*
X65674000Y7279000D02*
X62411000Y7279000D01*
X71419000Y7279000D02*
X68156000Y7279000D01*
X65674000Y7319000D02*
X62390000Y7319000D01*
X71440000Y7319000D02*
X68156000Y7319000D01*
X65674000Y7359000D02*
X62370000Y7359000D01*
X71460000Y7359000D02*
X68156000Y7359000D01*
X65674000Y7399000D02*
X62351000Y7399000D01*
X71479000Y7399000D02*
X68156000Y7399000D01*
X65674000Y7439000D02*
X62331000Y7439000D01*
X71499000Y7439000D02*
X68156000Y7439000D01*
X65674000Y7479000D02*
X62312000Y7479000D01*
X71518000Y7479000D02*
X68156000Y7479000D01*
X65674000Y7519000D02*
X62294000Y7519000D01*
X71536000Y7519000D02*
X68156000Y7519000D01*
X65674000Y7559000D02*
X62276000Y7559000D01*
X71554000Y7559000D02*
X68156000Y7559000D01*
X65674000Y7599000D02*
X62258000Y7599000D01*
X71572000Y7599000D02*
X68156000Y7599000D01*
X65674000Y7639000D02*
X62241000Y7639000D01*
X71589000Y7639000D02*
X68156000Y7639000D01*
X65674000Y7679000D02*
X62225000Y7679000D01*
X71605000Y7679000D02*
X68156000Y7679000D01*
X65674000Y7719000D02*
X62208000Y7719000D01*
X71622000Y7719000D02*
X68156000Y7719000D01*
X65674000Y7759000D02*
X62192000Y7759000D01*
X71638000Y7759000D02*
X68156000Y7759000D01*
X65674000Y7799000D02*
X62177000Y7799000D01*
X71653000Y7799000D02*
X68156000Y7799000D01*
X65674000Y7839000D02*
X62161000Y7839000D01*
X71669000Y7839000D02*
X68156000Y7839000D01*
X65674000Y7879000D02*
X62147000Y7879000D01*
X71683000Y7879000D02*
X68156000Y7879000D01*
X65674000Y7919000D02*
X62132000Y7919000D01*
X71698000Y7919000D02*
X68156000Y7919000D01*
X65674000Y7959000D02*
X62118000Y7959000D01*
X71712000Y7959000D02*
X68156000Y7959000D01*
X65674000Y7999000D02*
X62104000Y7999000D01*
X71726000Y7999000D02*
X68156000Y7999000D01*
X65674000Y8039000D02*
X62091000Y8039000D01*
X71739000Y8039000D02*
X68156000Y8039000D01*
X65674000Y8079000D02*
X62078000Y8079000D01*
X71752000Y8079000D02*
X68156000Y8079000D01*
X65674000Y8119000D02*
X62065000Y8119000D01*
X71765000Y8119000D02*
X68156000Y8119000D01*
X65674000Y8159000D02*
X62053000Y8159000D01*
X71777000Y8159000D02*
X68156000Y8159000D01*
X65674000Y8199000D02*
X62041000Y8199000D01*
X71789000Y8199000D02*
X68156000Y8199000D01*
X65674000Y8239000D02*
X62030000Y8239000D01*
X71800000Y8239000D02*
X68156000Y8239000D01*
X65674000Y8279000D02*
X62018000Y8279000D01*
X71812000Y8279000D02*
X68156000Y8279000D01*
X65674000Y8319000D02*
X62008000Y8319000D01*
X71822000Y8319000D02*
X68156000Y8319000D01*
X65674000Y8359000D02*
X61997000Y8359000D01*
X71833000Y8359000D02*
X68156000Y8359000D01*
X71843000Y8399000D02*
X61987000Y8399000D01*
X71853000Y8439000D02*
X61977000Y8439000D01*
X71862000Y8479000D02*
X61968000Y8479000D01*
X71871000Y8519000D02*
X61959000Y8519000D01*
X71880000Y8559000D02*
X61950000Y8559000D01*
X71889000Y8599000D02*
X61941000Y8599000D01*
X71897000Y8639000D02*
X61933000Y8639000D01*
X71905000Y8679000D02*
X61925000Y8679000D01*
X71912000Y8719000D02*
X61918000Y8719000D01*
X71919000Y8759000D02*
X61911000Y8759000D01*
X71926000Y8799000D02*
X61904000Y8799000D01*
X71933000Y8839000D02*
X61897000Y8839000D01*
X71939000Y8879000D02*
X61891000Y8879000D01*
X71945000Y8919000D02*
X61885000Y8919000D01*
X71950000Y8960000D02*
X61880000Y8960000D01*
X71955000Y9000000D02*
X61875000Y9000000D01*
X71960000Y9040000D02*
X61870000Y9040000D01*
X71965000Y9080000D02*
X61865000Y9080000D01*
X71969000Y9120000D02*
X61861000Y9120000D01*
X71973000Y9160000D02*
X61857000Y9160000D01*
X71977000Y9200000D02*
X61853000Y9200000D01*
X71980000Y9240000D02*
X61850000Y9240000D01*
X71983000Y9280000D02*
X61847000Y9280000D01*
X71985000Y9320000D02*
X61845000Y9320000D01*
X71988000Y9360000D02*
X61842000Y9360000D01*
X71990000Y9400000D02*
X61840000Y9400000D01*
X71992000Y9440000D02*
X61838000Y9440000D01*
X71993000Y9480000D02*
X61837000Y9480000D01*
X71994000Y9520000D02*
X61836000Y9520000D01*
X71995000Y9560000D02*
X61835000Y9560000D01*
X71995000Y9600000D02*
X61835000Y9600000D01*
X71995000Y9640000D02*
X61835000Y9640000D01*
X72035000Y9640000D02*
G75*
G03X72035000Y9640000I-5120000J0D01*
G01*
X54810000Y13830000D02*
X54810000Y14145000D01*
X54810000Y11405000D02*
X54810000Y11720000D01*
X60050000Y13830000D02*
X60050000Y14145000D01*
X60050000Y11405000D02*
X60050000Y11720000D01*
X60050000Y14145000D02*
X54810000Y14145000D01*
X60050000Y11405000D02*
X54810000Y11405000D01*
X39395000Y17895000D02*
X39710000Y17895000D01*
X36970000Y17895000D02*
X37285000Y17895000D01*
X39395000Y12655000D02*
X39710000Y12655000D01*
X36970000Y12655000D02*
X37285000Y12655000D01*
X39710000Y12655000D02*
X39710000Y17895000D01*
X36970000Y12655000D02*
X36970000Y17895000D01*
X30265000Y11220225D02*
X30765000Y11220225D01*
X30515000Y10970225D02*
X30515000Y11470225D01*
X31706000Y16376000D02*
X32274000Y16376000D01*
X31472000Y16336000D02*
X32508000Y16336000D01*
X31313000Y16296000D02*
X32667000Y16296000D01*
X31185000Y16256000D02*
X32795000Y16256000D01*
X31075000Y16216000D02*
X32905000Y16216000D01*
X30979000Y16176000D02*
X33001000Y16176000D01*
X30892000Y16136000D02*
X33088000Y16136000D01*
X30812000Y16096000D02*
X33168000Y16096000D01*
X30739000Y16056000D02*
X33241000Y16056000D01*
X30671000Y16016000D02*
X33309000Y16016000D01*
X30607000Y15976000D02*
X33373000Y15976000D01*
X30547000Y15936000D02*
X33433000Y15936000D01*
X30490000Y15896000D02*
X33490000Y15896000D01*
X30436000Y15856000D02*
X33544000Y15856000D01*
X30385000Y15816000D02*
X33595000Y15816000D01*
X33030000Y15776000D02*
X33643000Y15776000D01*
X30337000Y15776000D02*
X30950000Y15776000D01*
X33030000Y15736000D02*
X33689000Y15736000D01*
X30291000Y15736000D02*
X30950000Y15736000D01*
X33030000Y15696000D02*
X33733000Y15696000D01*
X30247000Y15696000D02*
X30950000Y15696000D01*
X33030000Y15656000D02*
X33775000Y15656000D01*
X30205000Y15656000D02*
X30950000Y15656000D01*
X33030000Y15616000D02*
X33816000Y15616000D01*
X30164000Y15616000D02*
X30950000Y15616000D01*
X33030000Y15576000D02*
X33854000Y15576000D01*
X30126000Y15576000D02*
X30950000Y15576000D01*
X33030000Y15536000D02*
X33891000Y15536000D01*
X30089000Y15536000D02*
X30950000Y15536000D01*
X33030000Y15496000D02*
X33927000Y15496000D01*
X30053000Y15496000D02*
X30950000Y15496000D01*
X33030000Y15456000D02*
X33961000Y15456000D01*
X30019000Y15456000D02*
X30950000Y15456000D01*
X33030000Y15416000D02*
X33994000Y15416000D01*
X29986000Y15416000D02*
X30950000Y15416000D01*
X33030000Y15376000D02*
X34025000Y15376000D01*
X29955000Y15376000D02*
X30950000Y15376000D01*
X33030000Y15336000D02*
X34055000Y15336000D01*
X29925000Y15336000D02*
X30950000Y15336000D01*
X33030000Y15296000D02*
X34085000Y15296000D01*
X29895000Y15296000D02*
X30950000Y15296000D01*
X33030000Y15256000D02*
X34112000Y15256000D01*
X29868000Y15256000D02*
X30950000Y15256000D01*
X33030000Y15216000D02*
X34139000Y15216000D01*
X29841000Y15216000D02*
X30950000Y15216000D01*
X33030000Y15176000D02*
X34165000Y15176000D01*
X29815000Y15176000D02*
X30950000Y15176000D01*
X33030000Y15136000D02*
X34190000Y15136000D01*
X29790000Y15136000D02*
X30950000Y15136000D01*
X33030000Y15096000D02*
X34214000Y15096000D01*
X29766000Y15096000D02*
X30950000Y15096000D01*
X33030000Y15056000D02*
X34237000Y15056000D01*
X29743000Y15056000D02*
X30950000Y15056000D01*
X33030000Y15016000D02*
X34258000Y15016000D01*
X29722000Y15016000D02*
X30950000Y15016000D01*
X33030000Y14976000D02*
X34280000Y14976000D01*
X29700000Y14976000D02*
X30950000Y14976000D01*
X33030000Y14936000D02*
X34300000Y14936000D01*
X29680000Y14936000D02*
X30950000Y14936000D01*
X33030000Y14896000D02*
X34319000Y14896000D01*
X29661000Y14896000D02*
X30950000Y14896000D01*
X33030000Y14856000D02*
X34338000Y14856000D01*
X29642000Y14856000D02*
X30950000Y14856000D01*
X33030000Y14816000D02*
X34355000Y14816000D01*
X29625000Y14816000D02*
X30950000Y14816000D01*
X33030000Y14776000D02*
X34372000Y14776000D01*
X29608000Y14776000D02*
X30950000Y14776000D01*
X33030000Y14736000D02*
X34388000Y14736000D01*
X29592000Y14736000D02*
X30950000Y14736000D01*
X33030000Y14696000D02*
X34404000Y14696000D01*
X29576000Y14696000D02*
X30950000Y14696000D01*
X33030000Y14656000D02*
X34418000Y14656000D01*
X29562000Y14656000D02*
X30950000Y14656000D01*
X33030000Y14616000D02*
X34432000Y14616000D01*
X29548000Y14616000D02*
X30950000Y14616000D01*
X33030000Y14576000D02*
X34445000Y14576000D01*
X29535000Y14576000D02*
X30950000Y14576000D01*
X33030000Y14536000D02*
X34458000Y14536000D01*
X29522000Y14536000D02*
X30950000Y14536000D01*
X33030000Y14496000D02*
X34470000Y14496000D01*
X29510000Y14496000D02*
X30950000Y14496000D01*
X33030000Y14455000D02*
X34481000Y14455000D01*
X29499000Y14455000D02*
X30950000Y14455000D01*
X33030000Y14415000D02*
X34491000Y14415000D01*
X29489000Y14415000D02*
X30950000Y14415000D01*
X33030000Y14375000D02*
X34501000Y14375000D01*
X29479000Y14375000D02*
X30950000Y14375000D01*
X33030000Y14335000D02*
X34510000Y14335000D01*
X29470000Y14335000D02*
X30950000Y14335000D01*
X33030000Y14295000D02*
X34518000Y14295000D01*
X29462000Y14295000D02*
X30950000Y14295000D01*
X33030000Y14255000D02*
X34526000Y14255000D01*
X29454000Y14255000D02*
X30950000Y14255000D01*
X33030000Y14215000D02*
X34533000Y14215000D01*
X29447000Y14215000D02*
X30950000Y14215000D01*
X33030000Y14175000D02*
X34540000Y14175000D01*
X29440000Y14175000D02*
X30950000Y14175000D01*
X33030000Y14135000D02*
X34546000Y14135000D01*
X29434000Y14135000D02*
X30950000Y14135000D01*
X33030000Y14095000D02*
X34551000Y14095000D01*
X29429000Y14095000D02*
X30950000Y14095000D01*
X33030000Y14055000D02*
X34555000Y14055000D01*
X29425000Y14055000D02*
X30950000Y14055000D01*
X33030000Y14015000D02*
X34559000Y14015000D01*
X29421000Y14015000D02*
X30950000Y14015000D01*
X33030000Y13975000D02*
X34563000Y13975000D01*
X29417000Y13975000D02*
X30950000Y13975000D01*
X33030000Y13935000D02*
X34566000Y13935000D01*
X29414000Y13935000D02*
X30950000Y13935000D01*
X33030000Y13895000D02*
X34568000Y13895000D01*
X29412000Y13895000D02*
X30950000Y13895000D01*
X33030000Y13855000D02*
X34569000Y13855000D01*
X29411000Y13855000D02*
X30950000Y13855000D01*
X29410000Y13815000D02*
X30950000Y13815000D01*
X33030000Y13815000D02*
X34570000Y13815000D01*
X29410000Y13775000D02*
X30950000Y13775000D01*
X33030000Y13775000D02*
X34570000Y13775000D01*
X34610000Y13775000D02*
G75*
G03X34610000Y13775000I-2620000J0D01*
G01*
D12*
X71891904Y14227620D02*
X71891904Y15227620D01*
X72130000Y15227620D01*
X72272857Y15180000D01*
X72368095Y15084762D01*
X72415714Y14989524D01*
X72463333Y14799048D01*
X72463333Y14656191D01*
X72415714Y14465715D01*
X72368095Y14370477D01*
X72272857Y14275239D01*
X72130000Y14227620D01*
X71891904Y14227620D01*
X72844285Y15132381D02*
X72891904Y15180000D01*
X72987142Y15227620D01*
X73225238Y15227620D01*
X73320476Y15180000D01*
X73368095Y15132381D01*
X73415714Y15037143D01*
X73415714Y14941905D01*
X73368095Y14799048D01*
X72796666Y14227620D01*
X73415714Y14227620D01*
X46849095Y8452620D02*
X46849095Y7643096D01*
X46896714Y7547858D01*
X46944333Y7500239D01*
X47039571Y7452620D01*
X47230047Y7452620D01*
X47325285Y7500239D01*
X47372904Y7547858D01*
X47420523Y7643096D01*
X47420523Y8452620D01*
X48420523Y7452620D02*
X47849095Y7452620D01*
X48134809Y7452620D02*
X48134809Y8452620D01*
X48039571Y8309762D01*
X47944333Y8214524D01*
X47849095Y8166905D01*
X13701666Y10690239D02*
X13844523Y10642620D01*
X14082619Y10642620D01*
X14177857Y10690239D01*
X14225476Y10737858D01*
X14273095Y10833096D01*
X14273095Y10928334D01*
X14225476Y11023572D01*
X14177857Y11071191D01*
X14082619Y11118810D01*
X13892142Y11166429D01*
X13796904Y11214048D01*
X13749285Y11261667D01*
X13701666Y11356905D01*
X13701666Y11452143D01*
X13749285Y11547381D01*
X13796904Y11595000D01*
X13892142Y11642620D01*
X14130238Y11642620D01*
X14273095Y11595000D01*
X14606428Y11642620D02*
X14844523Y10642620D01*
X15035000Y11356905D01*
X15225476Y10642620D01*
X15463571Y11642620D01*
X16368333Y10642620D02*
X15796904Y10642620D01*
X16082619Y10642620D02*
X16082619Y11642620D01*
X15987380Y11499762D01*
X15892142Y11404524D01*
X15796904Y11356905D01*
X59128333Y17402620D02*
X58795000Y17878810D01*
X58556904Y17402620D02*
X58556904Y18402620D01*
X58937857Y18402620D01*
X59033095Y18355000D01*
X59080714Y18307381D01*
X59128333Y18212143D01*
X59128333Y18069286D01*
X59080714Y17974048D01*
X59033095Y17926429D01*
X58937857Y17878810D01*
X58556904Y17878810D01*
X60080714Y17402620D02*
X59509285Y17402620D01*
X59795000Y17402620D02*
X59795000Y18402620D01*
X59699761Y18259762D01*
X59604523Y18164524D01*
X59509285Y18116905D01*
X62303333Y892620D02*
X61827142Y892620D01*
X61827142Y1892620D01*
X63160476Y892620D02*
X62589047Y892620D01*
X62874761Y892620D02*
X62874761Y1892620D01*
X62779523Y1749762D01*
X62684285Y1654524D01*
X62589047Y1606905D01*
X69756666Y3162620D02*
X69756666Y2448334D01*
X69709047Y2305477D01*
X69613809Y2210239D01*
X69470952Y2162620D01*
X69375714Y2162620D01*
X70185238Y3067381D02*
X70232857Y3115000D01*
X70328095Y3162620D01*
X70566190Y3162620D01*
X70661428Y3115000D01*
X70709047Y3067381D01*
X70756666Y2972143D01*
X70756666Y2876905D01*
X70709047Y2734048D01*
X70137619Y2162620D01*
X70756666Y2162620D01*
X1748166Y15862620D02*
X1748166Y15148334D01*
X1700547Y15005477D01*
X1605309Y14910239D01*
X1462452Y14862620D01*
X1367214Y14862620D01*
X2748166Y14862620D02*
X2176738Y14862620D01*
X2462452Y14862620D02*
X2462452Y15862620D01*
X2367214Y15719762D01*
X2271976Y15624524D01*
X2176738Y15576905D01*
X6256666Y1416429D02*
X5923333Y1416429D01*
X5923333Y892620D02*
X5923333Y1892620D01*
X6399523Y1892620D01*
X7304285Y892620D02*
X6732857Y892620D01*
X7018571Y892620D02*
X7018571Y1892620D01*
X6923333Y1749762D01*
X6828095Y1654524D01*
X6732857Y1606905D01*
X34426904Y6607620D02*
X34426904Y7607620D01*
X34665000Y7607620D01*
X34807857Y7560000D01*
X34903095Y7464762D01*
X34950714Y7369524D01*
X34998333Y7179048D01*
X34998333Y7036191D01*
X34950714Y6845715D01*
X34903095Y6750477D01*
X34807857Y6655239D01*
X34665000Y6607620D01*
X34426904Y6607620D01*
X35950714Y6607620D02*
X35379285Y6607620D01*
X35665000Y6607620D02*
X35665000Y7607620D01*
X35569761Y7464762D01*
X35474523Y7369524D01*
X35379285Y7321905D01*
X50143095Y197620D02*
X50143095Y1197620D01*
X50714523Y197620D02*
X50285952Y769048D01*
X50714523Y1197620D02*
X50143095Y626191D01*
X66748333Y2892858D02*
X66700714Y2845239D01*
X66557857Y2797620D01*
X66462619Y2797620D01*
X66319761Y2845239D01*
X66224523Y2940477D01*
X66176904Y3035715D01*
X66129285Y3226191D01*
X66129285Y3369048D01*
X66176904Y3559524D01*
X66224523Y3654762D01*
X66319761Y3750000D01*
X66462619Y3797620D01*
X66557857Y3797620D01*
X66700714Y3750000D01*
X66748333Y3702381D01*
X67605476Y3464286D02*
X67605476Y2797620D01*
X67367380Y3845239D02*
X67129285Y3130953D01*
X67748333Y3130953D01*
X57223333Y14957858D02*
X57175714Y14910239D01*
X57032857Y14862620D01*
X56937619Y14862620D01*
X56794761Y14910239D01*
X56699523Y15005477D01*
X56651904Y15100715D01*
X56604285Y15291191D01*
X56604285Y15434048D01*
X56651904Y15624524D01*
X56699523Y15719762D01*
X56794761Y15815000D01*
X56937619Y15862620D01*
X57032857Y15862620D01*
X57175714Y15815000D01*
X57223333Y15767381D01*
X57556666Y15862620D02*
X58175714Y15862620D01*
X57842380Y15481667D01*
X57985238Y15481667D01*
X58080476Y15434048D01*
X58128095Y15386429D01*
X58175714Y15291191D01*
X58175714Y15053096D01*
X58128095Y14957858D01*
X58080476Y14910239D01*
X57985238Y14862620D01*
X57699523Y14862620D01*
X57604285Y14910239D01*
X57556666Y14957858D01*
X38173333Y9814358D02*
X38125714Y9766739D01*
X37982857Y9719120D01*
X37887619Y9719120D01*
X37744761Y9766739D01*
X37649523Y9861977D01*
X37601904Y9957215D01*
X37554285Y10147691D01*
X37554285Y10290548D01*
X37601904Y10481024D01*
X37649523Y10576262D01*
X37744761Y10671500D01*
X37887619Y10719120D01*
X37982857Y10719120D01*
X38125714Y10671500D01*
X38173333Y10623881D01*
X38554285Y10623881D02*
X38601904Y10671500D01*
X38697142Y10719120D01*
X38935238Y10719120D01*
X39030476Y10671500D01*
X39078095Y10623881D01*
X39125714Y10528643D01*
X39125714Y10433405D01*
X39078095Y10290548D01*
X38506666Y9719120D01*
X39125714Y9719120D01*
X28648333Y16227858D02*
X28600714Y16180239D01*
X28457857Y16132620D01*
X28362619Y16132620D01*
X28219761Y16180239D01*
X28124523Y16275477D01*
X28076904Y16370715D01*
X28029285Y16561191D01*
X28029285Y16704048D01*
X28076904Y16894524D01*
X28124523Y16989762D01*
X28219761Y17085000D01*
X28362619Y17132620D01*
X28457857Y17132620D01*
X28600714Y17085000D01*
X28648333Y17037381D01*
X29600714Y16132620D02*
X29029285Y16132620D01*
X29315000Y16132620D02*
X29315000Y17132620D01*
X29219761Y16989762D01*
X29124523Y16894524D01*
X29029285Y16846905D01*
%LPC*%
D13*
X76000000Y10000000D03*
X4000000Y10000000D03*
D14*
X77710000Y15950000D03*
D15*
X75210000Y15950000D03*
D16*
X43801000Y10235000D03*
X51421000Y17855000D03*
X43801000Y12775000D03*
X51421000Y15315000D03*
X43801000Y15315000D03*
X51421000Y12775000D03*
X43801000Y17855000D03*
D17*
X51421000Y10235000D03*
D18*
X11035000Y14045000D03*
X15035000Y14045000D03*
X19035000Y14045000D03*
D19*
X21035000Y18295000D03*
X9035000Y18295000D03*
X9035000Y12295000D03*
X21035000Y12295000D03*
D16*
X71995000Y17855000D03*
D20*
X61835000Y17855000D03*
D21*
X59930000Y5155000D03*
X54930000Y5155000D03*
D22*
X75805000Y2615000D03*
D23*
X73265000Y2615000D03*
D22*
X2081500Y17855000D03*
D23*
X4621500Y17855000D03*
D24*
X19470000Y5155000D03*
D25*
X8220000Y5155000D03*
X30720000Y5155000D03*
D26*
X35165000Y3250000D03*
D27*
X50405000Y3250000D03*
D19*
X66915000Y7140000D03*
D28*
X66915000Y12140000D03*
D20*
X54930000Y12775000D03*
X59930000Y12775000D03*
X38340000Y17775000D03*
X38340000Y12775000D03*
X31990000Y14775000D03*
D17*
X31990000Y12775000D03*
M02*
