M48
; DRILL file {KiCad (5.1.5)-2} date 22/02/2020 01:41:59
; FORMAT={3:3/ absolute / metric / suppress leading zeros}
; #@! TF.CreationDate,2020-02-22T01:41:59+01:00
; #@! TF.GenerationSoftware,Kicad,Pcbnew,(5.1.5)-2
; #@! TF.FileFunction,Plated,1,2,PTH
FMAT,2
METRIC,TZ
T1C0.800
T2C0.900
T3C1.000
T4C1.200
T5C1.300
T6C1.600
T7C3.200
%
G90
G05
T1
X85965Y4965
X31355Y12045
X31355Y10045
X47310Y12585
X52310Y12585
X55485Y13855
X55485Y11315
X55485Y8775
X55485Y6235
X63105Y13855
X63105Y11315
X63105Y8775
X63105Y6235
X96125Y4965
X56755Y2425
X61755Y2425
T2
X86683Y11569
X89183Y11569
X16560Y10045
X20560Y10045
X24560Y10045
T3
X79615Y11315
X79615Y6315
X11035Y11950
X11035Y9410
X69455Y2679
X71995Y2679
T4
X14560Y14295
X14560Y8295
X26560Y14295
X26560Y8295
T5
X69455Y11950
X69455Y6950
T6
X36435Y6235
X51675Y6235
T7
X5000Y11000
X95000Y11000
T0
M30
