M48
; DRILL file {KiCad (5.1.5)-2} date 21/02/2020 18:19:04
; FORMAT={3:3/ absolute / metric / suppress leading zeros}
; #@! TF.CreationDate,2020-02-21T18:19:04+01:00
; #@! TF.GenerationSoftware,Kicad,Pcbnew,(5.1.5)-2
; #@! TF.FileFunction,Plated,1,2,PTH
FMAT,2
METRIC,TZ
T1C0.800
T2C0.900
T3C1.000
T4C1.200
T5C1.300
T6C1.600
T7C3.200
%
G90
G05
T1
X42150Y5790
X42150Y3790
X56755Y17855
X56755Y15315
X56755Y12775
X56755Y10235
X64375Y17855
X64375Y15315
X64375Y12775
X64375Y10235
X53580Y17775
X53580Y12775
X88505Y12140
X88505Y1980
X67550Y15870
X67550Y10870
T2
X86683Y15569
X89183Y15569
X13385Y14045
X17385Y14045
X21385Y14045
T3
X79615Y15870
X79615Y10870
X14845Y2615
X17385Y2615
X82155Y2615
X84695Y2615
T4
X11385Y18295
X11385Y12295
X23385Y18295
X23385Y12295
T5
X27270Y14045
X49770Y14045
X69535Y5790
X74535Y5790
T6
X49770Y3885
X65010Y3885
T7
X5000Y5000
X95000Y5000
T0
M30
