M48
; DRILL file {KiCad (5.1.5)-2} date 20/02/2020 00:29:32
; FORMAT={3:3/ absolute / metric / suppress leading zeros}
; #@! TF.CreationDate,2020-02-20T00:29:32+01:00
; #@! TF.GenerationSoftware,Kicad,Pcbnew,(5.1.5)-2
; #@! TF.FileFunction,Plated,1,2,PTH
FMAT,2
METRIC,TZ
T1C0.800
T2C0.900
T3C1.000
T4C1.200
T5C1.300
T6C1.600
T7C3.200
%
G90
G05
T1
X43801Y17855
X43801Y15315
X43801Y10235
X51421Y15315
X31990Y14775
X31990Y12775
X38340Y17775
X38340Y12775
X61835Y17855
X71995Y17855
X43801Y12775
X51421Y17855
X51421Y12775
X51421Y10235
X54930Y12775
X59930Y12775
T2
X11035Y14045
X15035Y14045
X19035Y14045
X75210Y15950
X77710Y15950
T3
X66915Y12140
X66915Y7140
X2082Y17855
X4622Y17855
X73265Y2615
X75805Y2615
T4
X9035Y18295
X9035Y12295
X21035Y18295
X21035Y12295
T5
X8220Y5155
X30720Y5155
X54930Y5155
X59930Y5155
T6
X35165Y3250
X50405Y3250
T7
X4000Y10000
X76000Y10000
T0
M30
