M48
; DRILL file {KiCad (5.1.4)-1} date 16/09/2019 22:21:09
; FORMAT={3:3/ absolute / metric / suppress leading zeros}
; #@! TF.CreationDate,2019-09-16T22:21:09+02:00
; #@! TF.GenerationSoftware,Kicad,Pcbnew,(5.1.4)-1
; #@! TF.FileFunction,Plated,1,2,PTH
FMAT,2
METRIC,TZ
T1C0.762
T2C0.800
T3C1.000
T4C2.500
%
G90
G05
T1
X9765Y22950
X9765Y18950
X13065Y24950
X13065Y16950
T2
X9765Y12250
X19925Y12250
X17385Y9075
X19885Y9075
X26275Y19870
X26275Y9710
X16750Y24950
X16750Y19870
X19290Y22410
X23100Y19870
X23100Y9710
T3
X12305Y5075
X14845Y5075
X17385Y5075
X4050Y20505
X6590Y20505
T4
X23250Y2750
X5750Y26250
T0
M30
