G04 #@! TF.GenerationSoftware,KiCad,Pcbnew,(5.1.4)-1*
G04 #@! TF.CreationDate,2019-09-09T23:48:02+02:00*
G04 #@! TF.ProjectId,PTC,5054432e-6b69-4636-9164-5f7063625858,rev?*
G04 #@! TF.SameCoordinates,PXe4e1c0PY29f6300*
G04 #@! TF.FileFunction,Copper,L2,Bot*
G04 #@! TF.FilePolarity,Positive*
%FSLAX46Y46*%
G04 Gerber Fmt 4.6, Leading zero omitted, Abs format (unit mm)*
G04 Created by KiCad (PCBNEW (5.1.4)-1) date 2019-09-09 23:48:02*
%MOMM*%
%LPD*%
G04 APERTURE LIST*
%ADD10O,1.700000X1.700000*%
%ADD11R,1.700000X1.700000*%
%ADD12C,1.524000*%
%ADD13C,1.440000*%
%ADD14O,1.600000X1.600000*%
%ADD15C,1.600000*%
%ADD16C,5.000000*%
%ADD17C,0.500000*%
%ADD18C,0.254000*%
G04 APERTURE END LIST*
D10*
X6590000Y20505000D03*
D11*
X4050000Y20505000D03*
D10*
X17385000Y5074500D03*
X14845000Y5074500D03*
D11*
X12305000Y5074500D03*
D12*
X13065000Y16950000D03*
X9765000Y22950000D03*
X13065000Y24950000D03*
X9765000Y18950000D03*
D13*
X16750000Y19870000D03*
X19290000Y22410000D03*
X16750000Y24950000D03*
D14*
X19925000Y12250000D03*
D15*
X9765000Y12250000D03*
D14*
X23100000Y9710000D03*
D15*
X23100000Y19870000D03*
D14*
X26275000Y9710000D03*
D15*
X26275000Y19870000D03*
X19885000Y9075000D03*
X17385000Y9075000D03*
D16*
X23250000Y2750000D03*
X5750000Y26250000D03*
D17*
X19885000Y7574500D02*
X19885000Y9075000D01*
X17385000Y5074500D02*
X19885000Y7574500D01*
X20520000Y9710000D02*
X19885000Y9075000D01*
X23100000Y9710000D02*
X20520000Y9710000D01*
X23100000Y9710000D02*
X26275000Y9710000D01*
X23100000Y10841370D02*
X23100000Y9710000D01*
X23100000Y14538233D02*
X23100000Y10841370D01*
X17768233Y19870000D02*
X23100000Y14538233D01*
X16750000Y19870000D02*
X17768233Y19870000D01*
D18*
G36*
X2971799Y27734979D02*
G01*
X2735476Y27164446D01*
X2615000Y26558771D01*
X2615000Y25941229D01*
X2735476Y25335554D01*
X2971799Y24765021D01*
X3314886Y24251554D01*
X3751554Y23814886D01*
X4265021Y23471799D01*
X4835554Y23235476D01*
X5441229Y23115000D01*
X6058771Y23115000D01*
X6664446Y23235476D01*
X7234979Y23471799D01*
X7748446Y23814886D01*
X8185114Y24251554D01*
X8528201Y24765021D01*
X8661814Y25087592D01*
X11668000Y25087592D01*
X11668000Y24812408D01*
X11721686Y24542510D01*
X11826995Y24288273D01*
X11979880Y24059465D01*
X12174465Y23864880D01*
X12403273Y23711995D01*
X12657510Y23606686D01*
X12927408Y23553000D01*
X13202592Y23553000D01*
X13472490Y23606686D01*
X13726727Y23711995D01*
X13955535Y23864880D01*
X14150120Y24059465D01*
X14303005Y24288273D01*
X14408314Y24542510D01*
X14462000Y24812408D01*
X14462000Y25083456D01*
X15395000Y25083456D01*
X15395000Y24816544D01*
X15447072Y24554761D01*
X15549215Y24308167D01*
X15697503Y24086238D01*
X15886238Y23897503D01*
X16108167Y23749215D01*
X16354761Y23647072D01*
X16616544Y23595000D01*
X16883456Y23595000D01*
X17145239Y23647072D01*
X17391833Y23749215D01*
X17613762Y23897503D01*
X17802497Y24086238D01*
X17950785Y24308167D01*
X18052928Y24554761D01*
X18105000Y24816544D01*
X18105000Y25083456D01*
X18052928Y25345239D01*
X17950785Y25591833D01*
X17802497Y25813762D01*
X17613762Y26002497D01*
X17391833Y26150785D01*
X17145239Y26252928D01*
X16883456Y26305000D01*
X16616544Y26305000D01*
X16354761Y26252928D01*
X16108167Y26150785D01*
X15886238Y26002497D01*
X15697503Y25813762D01*
X15549215Y25591833D01*
X15447072Y25345239D01*
X15395000Y25083456D01*
X14462000Y25083456D01*
X14462000Y25087592D01*
X14408314Y25357490D01*
X14303005Y25611727D01*
X14150120Y25840535D01*
X13955535Y26035120D01*
X13726727Y26188005D01*
X13472490Y26293314D01*
X13202592Y26347000D01*
X12927408Y26347000D01*
X12657510Y26293314D01*
X12403273Y26188005D01*
X12174465Y26035120D01*
X11979880Y25840535D01*
X11826995Y25611727D01*
X11721686Y25357490D01*
X11668000Y25087592D01*
X8661814Y25087592D01*
X8764524Y25335554D01*
X8885000Y25941229D01*
X8885000Y26558771D01*
X8764524Y27164446D01*
X8528201Y27734979D01*
X8435978Y27873000D01*
X21873000Y27873000D01*
X21873000Y22000000D01*
X21875440Y21975224D01*
X21882667Y21951399D01*
X21894403Y21929443D01*
X21910197Y21910197D01*
X21929443Y21894403D01*
X21951399Y21882667D01*
X21975224Y21875440D01*
X22000000Y21873000D01*
X27873000Y21873000D01*
X27873000Y1127000D01*
X25935978Y1127000D01*
X26028201Y1265021D01*
X26264524Y1835554D01*
X26385000Y2441229D01*
X26385000Y3058771D01*
X26264524Y3664446D01*
X26028201Y4234979D01*
X25685114Y4748446D01*
X25248446Y5185114D01*
X24734979Y5528201D01*
X24164446Y5764524D01*
X23558771Y5885000D01*
X22941229Y5885000D01*
X22335554Y5764524D01*
X21765021Y5528201D01*
X21251554Y5185114D01*
X20814886Y4748446D01*
X20471799Y4234979D01*
X20235476Y3664446D01*
X20115000Y3058771D01*
X20115000Y2441229D01*
X20235476Y1835554D01*
X20471799Y1265021D01*
X20564022Y1127000D01*
X7627000Y1127000D01*
X7627000Y5924500D01*
X10816928Y5924500D01*
X10816928Y4224500D01*
X10829188Y4100018D01*
X10865498Y3980320D01*
X10924463Y3870006D01*
X11003815Y3773315D01*
X11100506Y3693963D01*
X11210820Y3634998D01*
X11330518Y3598688D01*
X11455000Y3586428D01*
X13155000Y3586428D01*
X13279482Y3598688D01*
X13399180Y3634998D01*
X13509494Y3693963D01*
X13606185Y3773315D01*
X13685537Y3870006D01*
X13744502Y3980320D01*
X13765393Y4049187D01*
X13789866Y4019366D01*
X14015986Y3833794D01*
X14273966Y3695901D01*
X14553889Y3610987D01*
X14772050Y3589500D01*
X14917950Y3589500D01*
X15136111Y3610987D01*
X15416034Y3695901D01*
X15674014Y3833794D01*
X15900134Y4019366D01*
X16085706Y4245486D01*
X16120201Y4310023D01*
X16189822Y4193145D01*
X16384731Y3976912D01*
X16618080Y3802859D01*
X16880901Y3677675D01*
X17028110Y3633024D01*
X17258000Y3754345D01*
X17258000Y4947500D01*
X17512000Y4947500D01*
X17512000Y3754345D01*
X17741890Y3633024D01*
X17889099Y3677675D01*
X18151920Y3802859D01*
X18385269Y3976912D01*
X18580178Y4193145D01*
X18729157Y4443248D01*
X18826481Y4717609D01*
X18705814Y4947500D01*
X17512000Y4947500D01*
X17258000Y4947500D01*
X17238000Y4947500D01*
X17238000Y5201500D01*
X17258000Y5201500D01*
X17258000Y6394655D01*
X17512000Y6394655D01*
X17512000Y5201500D01*
X18705814Y5201500D01*
X18826481Y5431391D01*
X18729157Y5705752D01*
X18580178Y5955855D01*
X18385269Y6172088D01*
X18151920Y6346141D01*
X17889099Y6471325D01*
X17741890Y6515976D01*
X17512000Y6394655D01*
X17258000Y6394655D01*
X17028110Y6515976D01*
X16880901Y6471325D01*
X16618080Y6346141D01*
X16384731Y6172088D01*
X16189822Y5955855D01*
X16120201Y5838977D01*
X16085706Y5903514D01*
X15900134Y6129634D01*
X15674014Y6315206D01*
X15416034Y6453099D01*
X15136111Y6538013D01*
X14917950Y6559500D01*
X14772050Y6559500D01*
X14553889Y6538013D01*
X14273966Y6453099D01*
X14015986Y6315206D01*
X13789866Y6129634D01*
X13765393Y6099813D01*
X13744502Y6168680D01*
X13685537Y6278994D01*
X13606185Y6375685D01*
X13509494Y6455037D01*
X13399180Y6514002D01*
X13279482Y6550312D01*
X13155000Y6562572D01*
X11455000Y6562572D01*
X11330518Y6550312D01*
X11210820Y6514002D01*
X11100506Y6455037D01*
X11003815Y6375685D01*
X10924463Y6278994D01*
X10865498Y6168680D01*
X10829188Y6048982D01*
X10816928Y5924500D01*
X7627000Y5924500D01*
X7627000Y7000000D01*
X7624560Y7024776D01*
X7617333Y7048601D01*
X7605597Y7070557D01*
X7589803Y7089803D01*
X7570557Y7105597D01*
X7548601Y7117333D01*
X7524776Y7124560D01*
X7500000Y7127000D01*
X1127000Y7127000D01*
X1127000Y9216335D01*
X15950000Y9216335D01*
X15950000Y8933665D01*
X16005147Y8656426D01*
X16113320Y8395273D01*
X16270363Y8160241D01*
X16470241Y7960363D01*
X16705273Y7803320D01*
X16966426Y7695147D01*
X17243665Y7640000D01*
X17526335Y7640000D01*
X17803574Y7695147D01*
X18064727Y7803320D01*
X18299759Y7960363D01*
X18421694Y8082298D01*
X19071903Y8082298D01*
X19143486Y7838329D01*
X19398996Y7717429D01*
X19673184Y7648700D01*
X19955512Y7634783D01*
X20235130Y7676213D01*
X20501292Y7771397D01*
X20626514Y7838329D01*
X20698097Y8082298D01*
X19885000Y8895395D01*
X19071903Y8082298D01*
X18421694Y8082298D01*
X18499637Y8160241D01*
X18633692Y8360869D01*
X18648329Y8333486D01*
X18892298Y8261903D01*
X19705395Y9075000D01*
X20064605Y9075000D01*
X20877702Y8261903D01*
X21121671Y8333486D01*
X21242571Y8588996D01*
X21311300Y8863184D01*
X21325217Y9145512D01*
X21293295Y9360960D01*
X21708091Y9360960D01*
X21802930Y9096119D01*
X21947615Y8854869D01*
X22136586Y8646481D01*
X22362580Y8478963D01*
X22616913Y8358754D01*
X22750961Y8318096D01*
X22973000Y8440085D01*
X22973000Y9583000D01*
X23227000Y9583000D01*
X23227000Y8440085D01*
X23449039Y8318096D01*
X23583087Y8358754D01*
X23837420Y8478963D01*
X24063414Y8646481D01*
X24252385Y8854869D01*
X24397070Y9096119D01*
X24491909Y9360960D01*
X24883091Y9360960D01*
X24977930Y9096119D01*
X25122615Y8854869D01*
X25311586Y8646481D01*
X25537580Y8478963D01*
X25791913Y8358754D01*
X25925961Y8318096D01*
X26148000Y8440085D01*
X26148000Y9583000D01*
X26402000Y9583000D01*
X26402000Y8440085D01*
X26624039Y8318096D01*
X26758087Y8358754D01*
X27012420Y8478963D01*
X27238414Y8646481D01*
X27427385Y8854869D01*
X27572070Y9096119D01*
X27666909Y9360960D01*
X27545624Y9583000D01*
X26402000Y9583000D01*
X26148000Y9583000D01*
X25004376Y9583000D01*
X24883091Y9360960D01*
X24491909Y9360960D01*
X24370624Y9583000D01*
X23227000Y9583000D01*
X22973000Y9583000D01*
X21829376Y9583000D01*
X21708091Y9360960D01*
X21293295Y9360960D01*
X21283787Y9425130D01*
X21188603Y9691292D01*
X21121671Y9816514D01*
X20877702Y9888097D01*
X20064605Y9075000D01*
X19705395Y9075000D01*
X18892298Y9888097D01*
X18648329Y9816514D01*
X18634676Y9787659D01*
X18499637Y9989759D01*
X18421694Y10067702D01*
X19071903Y10067702D01*
X19885000Y9254605D01*
X20689435Y10059040D01*
X21708091Y10059040D01*
X21829376Y9837000D01*
X22973000Y9837000D01*
X22973000Y10979915D01*
X23227000Y10979915D01*
X23227000Y9837000D01*
X24370624Y9837000D01*
X24491909Y10059040D01*
X24883091Y10059040D01*
X25004376Y9837000D01*
X26148000Y9837000D01*
X26148000Y10979915D01*
X26402000Y10979915D01*
X26402000Y9837000D01*
X27545624Y9837000D01*
X27666909Y10059040D01*
X27572070Y10323881D01*
X27427385Y10565131D01*
X27238414Y10773519D01*
X27012420Y10941037D01*
X26758087Y11061246D01*
X26624039Y11101904D01*
X26402000Y10979915D01*
X26148000Y10979915D01*
X25925961Y11101904D01*
X25791913Y11061246D01*
X25537580Y10941037D01*
X25311586Y10773519D01*
X25122615Y10565131D01*
X24977930Y10323881D01*
X24883091Y10059040D01*
X24491909Y10059040D01*
X24397070Y10323881D01*
X24252385Y10565131D01*
X24063414Y10773519D01*
X23837420Y10941037D01*
X23583087Y11061246D01*
X23449039Y11101904D01*
X23227000Y10979915D01*
X22973000Y10979915D01*
X22750961Y11101904D01*
X22616913Y11061246D01*
X22362580Y10941037D01*
X22136586Y10773519D01*
X21947615Y10565131D01*
X21802930Y10323881D01*
X21708091Y10059040D01*
X20689435Y10059040D01*
X20698097Y10067702D01*
X20626514Y10311671D01*
X20371004Y10432571D01*
X20096816Y10501300D01*
X19814488Y10515217D01*
X19534870Y10473787D01*
X19268708Y10378603D01*
X19143486Y10311671D01*
X19071903Y10067702D01*
X18421694Y10067702D01*
X18299759Y10189637D01*
X18064727Y10346680D01*
X17803574Y10454853D01*
X17526335Y10510000D01*
X17243665Y10510000D01*
X16966426Y10454853D01*
X16705273Y10346680D01*
X16470241Y10189637D01*
X16270363Y9989759D01*
X16113320Y9754727D01*
X16005147Y9493574D01*
X15950000Y9216335D01*
X1127000Y9216335D01*
X1127000Y12391335D01*
X8330000Y12391335D01*
X8330000Y12108665D01*
X8385147Y11831426D01*
X8493320Y11570273D01*
X8650363Y11335241D01*
X8850241Y11135363D01*
X9085273Y10978320D01*
X9346426Y10870147D01*
X9623665Y10815000D01*
X9906335Y10815000D01*
X10183574Y10870147D01*
X10444727Y10978320D01*
X10679759Y11135363D01*
X10879637Y11335241D01*
X11036680Y11570273D01*
X11144853Y11831426D01*
X11200000Y12108665D01*
X11200000Y12250000D01*
X18483057Y12250000D01*
X18510764Y11968691D01*
X18592818Y11698192D01*
X18726068Y11448899D01*
X18905392Y11230392D01*
X19123899Y11051068D01*
X19373192Y10917818D01*
X19643691Y10835764D01*
X19854508Y10815000D01*
X19995492Y10815000D01*
X20206309Y10835764D01*
X20476808Y10917818D01*
X20726101Y11051068D01*
X20944608Y11230392D01*
X21123932Y11448899D01*
X21257182Y11698192D01*
X21339236Y11968691D01*
X21366943Y12250000D01*
X21339236Y12531309D01*
X21257182Y12801808D01*
X21123932Y13051101D01*
X20944608Y13269608D01*
X20726101Y13448932D01*
X20476808Y13582182D01*
X20206309Y13664236D01*
X19995492Y13685000D01*
X19854508Y13685000D01*
X19643691Y13664236D01*
X19373192Y13582182D01*
X19123899Y13448932D01*
X18905392Y13269608D01*
X18726068Y13051101D01*
X18592818Y12801808D01*
X18510764Y12531309D01*
X18483057Y12250000D01*
X11200000Y12250000D01*
X11200000Y12391335D01*
X11144853Y12668574D01*
X11036680Y12929727D01*
X10879637Y13164759D01*
X10679759Y13364637D01*
X10444727Y13521680D01*
X10183574Y13629853D01*
X9906335Y13685000D01*
X9623665Y13685000D01*
X9346426Y13629853D01*
X9085273Y13521680D01*
X8850241Y13364637D01*
X8650363Y13164759D01*
X8493320Y12929727D01*
X8385147Y12668574D01*
X8330000Y12391335D01*
X1127000Y12391335D01*
X1127000Y17087592D01*
X11668000Y17087592D01*
X11668000Y16812408D01*
X11721686Y16542510D01*
X11826995Y16288273D01*
X11979880Y16059465D01*
X12174465Y15864880D01*
X12403273Y15711995D01*
X12657510Y15606686D01*
X12927408Y15553000D01*
X13202592Y15553000D01*
X13472490Y15606686D01*
X13726727Y15711995D01*
X13955535Y15864880D01*
X14150120Y16059465D01*
X14303005Y16288273D01*
X14408314Y16542510D01*
X14462000Y16812408D01*
X14462000Y17087592D01*
X14408314Y17357490D01*
X14303005Y17611727D01*
X14150120Y17840535D01*
X13955535Y18035120D01*
X13726727Y18188005D01*
X13472490Y18293314D01*
X13202592Y18347000D01*
X12927408Y18347000D01*
X12657510Y18293314D01*
X12403273Y18188005D01*
X12174465Y18035120D01*
X11979880Y17840535D01*
X11826995Y17611727D01*
X11721686Y17357490D01*
X11668000Y17087592D01*
X1127000Y17087592D01*
X1127000Y21355000D01*
X2561928Y21355000D01*
X2561928Y19655000D01*
X2574188Y19530518D01*
X2610498Y19410820D01*
X2669463Y19300506D01*
X2748815Y19203815D01*
X2845506Y19124463D01*
X2955820Y19065498D01*
X3075518Y19029188D01*
X3200000Y19016928D01*
X4900000Y19016928D01*
X5024482Y19029188D01*
X5144180Y19065498D01*
X5254494Y19124463D01*
X5351185Y19203815D01*
X5430537Y19300506D01*
X5489502Y19410820D01*
X5510393Y19479687D01*
X5534866Y19449866D01*
X5760986Y19264294D01*
X6018966Y19126401D01*
X6298889Y19041487D01*
X6517050Y19020000D01*
X6662950Y19020000D01*
X6881111Y19041487D01*
X7033098Y19087592D01*
X8368000Y19087592D01*
X8368000Y18812408D01*
X8421686Y18542510D01*
X8526995Y18288273D01*
X8679880Y18059465D01*
X8874465Y17864880D01*
X9103273Y17711995D01*
X9357510Y17606686D01*
X9627408Y17553000D01*
X9902592Y17553000D01*
X10172490Y17606686D01*
X10426727Y17711995D01*
X10655535Y17864880D01*
X10850120Y18059465D01*
X11003005Y18288273D01*
X11108314Y18542510D01*
X11162000Y18812408D01*
X11162000Y18934440D01*
X15994045Y18934440D01*
X16055932Y18698632D01*
X16297790Y18585734D01*
X16557027Y18522189D01*
X16823680Y18510439D01*
X17087501Y18550937D01*
X17338353Y18642125D01*
X17444068Y18698632D01*
X17505955Y18934440D01*
X16750000Y19690395D01*
X15994045Y18934440D01*
X11162000Y18934440D01*
X11162000Y19087592D01*
X11108314Y19357490D01*
X11003005Y19611727D01*
X10879664Y19796320D01*
X15390439Y19796320D01*
X15430937Y19532499D01*
X15522125Y19281647D01*
X15578632Y19175932D01*
X15814440Y19114045D01*
X16570395Y19870000D01*
X16929605Y19870000D01*
X17685560Y19114045D01*
X17921368Y19175932D01*
X18034266Y19417790D01*
X18097811Y19677027D01*
X18109561Y19943680D01*
X18099176Y20011335D01*
X21665000Y20011335D01*
X21665000Y19728665D01*
X21720147Y19451426D01*
X21828320Y19190273D01*
X21985363Y18955241D01*
X22185241Y18755363D01*
X22420273Y18598320D01*
X22681426Y18490147D01*
X22958665Y18435000D01*
X23241335Y18435000D01*
X23518574Y18490147D01*
X23779727Y18598320D01*
X24014759Y18755363D01*
X24214637Y18955241D01*
X24371680Y19190273D01*
X24479853Y19451426D01*
X24535000Y19728665D01*
X24535000Y20011335D01*
X24840000Y20011335D01*
X24840000Y19728665D01*
X24895147Y19451426D01*
X25003320Y19190273D01*
X25160363Y18955241D01*
X25360241Y18755363D01*
X25595273Y18598320D01*
X25856426Y18490147D01*
X26133665Y18435000D01*
X26416335Y18435000D01*
X26693574Y18490147D01*
X26954727Y18598320D01*
X27189759Y18755363D01*
X27389637Y18955241D01*
X27546680Y19190273D01*
X27654853Y19451426D01*
X27710000Y19728665D01*
X27710000Y20011335D01*
X27654853Y20288574D01*
X27546680Y20549727D01*
X27389637Y20784759D01*
X27189759Y20984637D01*
X26954727Y21141680D01*
X26693574Y21249853D01*
X26416335Y21305000D01*
X26133665Y21305000D01*
X25856426Y21249853D01*
X25595273Y21141680D01*
X25360241Y20984637D01*
X25160363Y20784759D01*
X25003320Y20549727D01*
X24895147Y20288574D01*
X24840000Y20011335D01*
X24535000Y20011335D01*
X24479853Y20288574D01*
X24371680Y20549727D01*
X24214637Y20784759D01*
X24014759Y20984637D01*
X23779727Y21141680D01*
X23518574Y21249853D01*
X23241335Y21305000D01*
X22958665Y21305000D01*
X22681426Y21249853D01*
X22420273Y21141680D01*
X22185241Y20984637D01*
X21985363Y20784759D01*
X21828320Y20549727D01*
X21720147Y20288574D01*
X21665000Y20011335D01*
X18099176Y20011335D01*
X18069063Y20207501D01*
X17977875Y20458353D01*
X17921368Y20564068D01*
X17685560Y20625955D01*
X16929605Y19870000D01*
X16570395Y19870000D01*
X15814440Y20625955D01*
X15578632Y20564068D01*
X15465734Y20322210D01*
X15402189Y20062973D01*
X15390439Y19796320D01*
X10879664Y19796320D01*
X10850120Y19840535D01*
X10655535Y20035120D01*
X10426727Y20188005D01*
X10172490Y20293314D01*
X9902592Y20347000D01*
X9627408Y20347000D01*
X9357510Y20293314D01*
X9103273Y20188005D01*
X8874465Y20035120D01*
X8679880Y19840535D01*
X8526995Y19611727D01*
X8421686Y19357490D01*
X8368000Y19087592D01*
X7033098Y19087592D01*
X7161034Y19126401D01*
X7419014Y19264294D01*
X7645134Y19449866D01*
X7830706Y19675986D01*
X7968599Y19933966D01*
X8053513Y20213889D01*
X8082185Y20505000D01*
X8053513Y20796111D01*
X8050647Y20805560D01*
X15994045Y20805560D01*
X16750000Y20049605D01*
X17505955Y20805560D01*
X17444068Y21041368D01*
X17202210Y21154266D01*
X16942973Y21217811D01*
X16676320Y21229561D01*
X16412499Y21189063D01*
X16161647Y21097875D01*
X16055932Y21041368D01*
X15994045Y20805560D01*
X8050647Y20805560D01*
X7968599Y21076034D01*
X7830706Y21334014D01*
X7645134Y21560134D01*
X7419014Y21745706D01*
X7161034Y21883599D01*
X6881111Y21968513D01*
X6662950Y21990000D01*
X6517050Y21990000D01*
X6298889Y21968513D01*
X6018966Y21883599D01*
X5760986Y21745706D01*
X5534866Y21560134D01*
X5510393Y21530313D01*
X5489502Y21599180D01*
X5430537Y21709494D01*
X5351185Y21806185D01*
X5254494Y21885537D01*
X5144180Y21944502D01*
X5024482Y21980812D01*
X4900000Y21993072D01*
X3200000Y21993072D01*
X3075518Y21980812D01*
X2955820Y21944502D01*
X2845506Y21885537D01*
X2748815Y21806185D01*
X2669463Y21709494D01*
X2610498Y21599180D01*
X2574188Y21479482D01*
X2561928Y21355000D01*
X1127000Y21355000D01*
X1127000Y23087592D01*
X8368000Y23087592D01*
X8368000Y22812408D01*
X8421686Y22542510D01*
X8526995Y22288273D01*
X8679880Y22059465D01*
X8874465Y21864880D01*
X9103273Y21711995D01*
X9357510Y21606686D01*
X9627408Y21553000D01*
X9902592Y21553000D01*
X10172490Y21606686D01*
X10426727Y21711995D01*
X10655535Y21864880D01*
X10850120Y22059465D01*
X11003005Y22288273D01*
X11108314Y22542510D01*
X11108502Y22543456D01*
X17935000Y22543456D01*
X17935000Y22276544D01*
X17987072Y22014761D01*
X18089215Y21768167D01*
X18237503Y21546238D01*
X18426238Y21357503D01*
X18648167Y21209215D01*
X18894761Y21107072D01*
X19156544Y21055000D01*
X19423456Y21055000D01*
X19685239Y21107072D01*
X19931833Y21209215D01*
X20153762Y21357503D01*
X20342497Y21546238D01*
X20490785Y21768167D01*
X20592928Y22014761D01*
X20645000Y22276544D01*
X20645000Y22543456D01*
X20592928Y22805239D01*
X20490785Y23051833D01*
X20342497Y23273762D01*
X20153762Y23462497D01*
X19931833Y23610785D01*
X19685239Y23712928D01*
X19423456Y23765000D01*
X19156544Y23765000D01*
X18894761Y23712928D01*
X18648167Y23610785D01*
X18426238Y23462497D01*
X18237503Y23273762D01*
X18089215Y23051833D01*
X17987072Y22805239D01*
X17935000Y22543456D01*
X11108502Y22543456D01*
X11162000Y22812408D01*
X11162000Y23087592D01*
X11108314Y23357490D01*
X11003005Y23611727D01*
X10850120Y23840535D01*
X10655535Y24035120D01*
X10426727Y24188005D01*
X10172490Y24293314D01*
X9902592Y24347000D01*
X9627408Y24347000D01*
X9357510Y24293314D01*
X9103273Y24188005D01*
X8874465Y24035120D01*
X8679880Y23840535D01*
X8526995Y23611727D01*
X8421686Y23357490D01*
X8368000Y23087592D01*
X1127000Y23087592D01*
X1127000Y27873000D01*
X3064022Y27873000D01*
X2971799Y27734979D01*
X2971799Y27734979D01*
G37*
X2971799Y27734979D02*
X2735476Y27164446D01*
X2615000Y26558771D01*
X2615000Y25941229D01*
X2735476Y25335554D01*
X2971799Y24765021D01*
X3314886Y24251554D01*
X3751554Y23814886D01*
X4265021Y23471799D01*
X4835554Y23235476D01*
X5441229Y23115000D01*
X6058771Y23115000D01*
X6664446Y23235476D01*
X7234979Y23471799D01*
X7748446Y23814886D01*
X8185114Y24251554D01*
X8528201Y24765021D01*
X8661814Y25087592D01*
X11668000Y25087592D01*
X11668000Y24812408D01*
X11721686Y24542510D01*
X11826995Y24288273D01*
X11979880Y24059465D01*
X12174465Y23864880D01*
X12403273Y23711995D01*
X12657510Y23606686D01*
X12927408Y23553000D01*
X13202592Y23553000D01*
X13472490Y23606686D01*
X13726727Y23711995D01*
X13955535Y23864880D01*
X14150120Y24059465D01*
X14303005Y24288273D01*
X14408314Y24542510D01*
X14462000Y24812408D01*
X14462000Y25083456D01*
X15395000Y25083456D01*
X15395000Y24816544D01*
X15447072Y24554761D01*
X15549215Y24308167D01*
X15697503Y24086238D01*
X15886238Y23897503D01*
X16108167Y23749215D01*
X16354761Y23647072D01*
X16616544Y23595000D01*
X16883456Y23595000D01*
X17145239Y23647072D01*
X17391833Y23749215D01*
X17613762Y23897503D01*
X17802497Y24086238D01*
X17950785Y24308167D01*
X18052928Y24554761D01*
X18105000Y24816544D01*
X18105000Y25083456D01*
X18052928Y25345239D01*
X17950785Y25591833D01*
X17802497Y25813762D01*
X17613762Y26002497D01*
X17391833Y26150785D01*
X17145239Y26252928D01*
X16883456Y26305000D01*
X16616544Y26305000D01*
X16354761Y26252928D01*
X16108167Y26150785D01*
X15886238Y26002497D01*
X15697503Y25813762D01*
X15549215Y25591833D01*
X15447072Y25345239D01*
X15395000Y25083456D01*
X14462000Y25083456D01*
X14462000Y25087592D01*
X14408314Y25357490D01*
X14303005Y25611727D01*
X14150120Y25840535D01*
X13955535Y26035120D01*
X13726727Y26188005D01*
X13472490Y26293314D01*
X13202592Y26347000D01*
X12927408Y26347000D01*
X12657510Y26293314D01*
X12403273Y26188005D01*
X12174465Y26035120D01*
X11979880Y25840535D01*
X11826995Y25611727D01*
X11721686Y25357490D01*
X11668000Y25087592D01*
X8661814Y25087592D01*
X8764524Y25335554D01*
X8885000Y25941229D01*
X8885000Y26558771D01*
X8764524Y27164446D01*
X8528201Y27734979D01*
X8435978Y27873000D01*
X21873000Y27873000D01*
X21873000Y22000000D01*
X21875440Y21975224D01*
X21882667Y21951399D01*
X21894403Y21929443D01*
X21910197Y21910197D01*
X21929443Y21894403D01*
X21951399Y21882667D01*
X21975224Y21875440D01*
X22000000Y21873000D01*
X27873000Y21873000D01*
X27873000Y1127000D01*
X25935978Y1127000D01*
X26028201Y1265021D01*
X26264524Y1835554D01*
X26385000Y2441229D01*
X26385000Y3058771D01*
X26264524Y3664446D01*
X26028201Y4234979D01*
X25685114Y4748446D01*
X25248446Y5185114D01*
X24734979Y5528201D01*
X24164446Y5764524D01*
X23558771Y5885000D01*
X22941229Y5885000D01*
X22335554Y5764524D01*
X21765021Y5528201D01*
X21251554Y5185114D01*
X20814886Y4748446D01*
X20471799Y4234979D01*
X20235476Y3664446D01*
X20115000Y3058771D01*
X20115000Y2441229D01*
X20235476Y1835554D01*
X20471799Y1265021D01*
X20564022Y1127000D01*
X7627000Y1127000D01*
X7627000Y5924500D01*
X10816928Y5924500D01*
X10816928Y4224500D01*
X10829188Y4100018D01*
X10865498Y3980320D01*
X10924463Y3870006D01*
X11003815Y3773315D01*
X11100506Y3693963D01*
X11210820Y3634998D01*
X11330518Y3598688D01*
X11455000Y3586428D01*
X13155000Y3586428D01*
X13279482Y3598688D01*
X13399180Y3634998D01*
X13509494Y3693963D01*
X13606185Y3773315D01*
X13685537Y3870006D01*
X13744502Y3980320D01*
X13765393Y4049187D01*
X13789866Y4019366D01*
X14015986Y3833794D01*
X14273966Y3695901D01*
X14553889Y3610987D01*
X14772050Y3589500D01*
X14917950Y3589500D01*
X15136111Y3610987D01*
X15416034Y3695901D01*
X15674014Y3833794D01*
X15900134Y4019366D01*
X16085706Y4245486D01*
X16120201Y4310023D01*
X16189822Y4193145D01*
X16384731Y3976912D01*
X16618080Y3802859D01*
X16880901Y3677675D01*
X17028110Y3633024D01*
X17258000Y3754345D01*
X17258000Y4947500D01*
X17512000Y4947500D01*
X17512000Y3754345D01*
X17741890Y3633024D01*
X17889099Y3677675D01*
X18151920Y3802859D01*
X18385269Y3976912D01*
X18580178Y4193145D01*
X18729157Y4443248D01*
X18826481Y4717609D01*
X18705814Y4947500D01*
X17512000Y4947500D01*
X17258000Y4947500D01*
X17238000Y4947500D01*
X17238000Y5201500D01*
X17258000Y5201500D01*
X17258000Y6394655D01*
X17512000Y6394655D01*
X17512000Y5201500D01*
X18705814Y5201500D01*
X18826481Y5431391D01*
X18729157Y5705752D01*
X18580178Y5955855D01*
X18385269Y6172088D01*
X18151920Y6346141D01*
X17889099Y6471325D01*
X17741890Y6515976D01*
X17512000Y6394655D01*
X17258000Y6394655D01*
X17028110Y6515976D01*
X16880901Y6471325D01*
X16618080Y6346141D01*
X16384731Y6172088D01*
X16189822Y5955855D01*
X16120201Y5838977D01*
X16085706Y5903514D01*
X15900134Y6129634D01*
X15674014Y6315206D01*
X15416034Y6453099D01*
X15136111Y6538013D01*
X14917950Y6559500D01*
X14772050Y6559500D01*
X14553889Y6538013D01*
X14273966Y6453099D01*
X14015986Y6315206D01*
X13789866Y6129634D01*
X13765393Y6099813D01*
X13744502Y6168680D01*
X13685537Y6278994D01*
X13606185Y6375685D01*
X13509494Y6455037D01*
X13399180Y6514002D01*
X13279482Y6550312D01*
X13155000Y6562572D01*
X11455000Y6562572D01*
X11330518Y6550312D01*
X11210820Y6514002D01*
X11100506Y6455037D01*
X11003815Y6375685D01*
X10924463Y6278994D01*
X10865498Y6168680D01*
X10829188Y6048982D01*
X10816928Y5924500D01*
X7627000Y5924500D01*
X7627000Y7000000D01*
X7624560Y7024776D01*
X7617333Y7048601D01*
X7605597Y7070557D01*
X7589803Y7089803D01*
X7570557Y7105597D01*
X7548601Y7117333D01*
X7524776Y7124560D01*
X7500000Y7127000D01*
X1127000Y7127000D01*
X1127000Y9216335D01*
X15950000Y9216335D01*
X15950000Y8933665D01*
X16005147Y8656426D01*
X16113320Y8395273D01*
X16270363Y8160241D01*
X16470241Y7960363D01*
X16705273Y7803320D01*
X16966426Y7695147D01*
X17243665Y7640000D01*
X17526335Y7640000D01*
X17803574Y7695147D01*
X18064727Y7803320D01*
X18299759Y7960363D01*
X18421694Y8082298D01*
X19071903Y8082298D01*
X19143486Y7838329D01*
X19398996Y7717429D01*
X19673184Y7648700D01*
X19955512Y7634783D01*
X20235130Y7676213D01*
X20501292Y7771397D01*
X20626514Y7838329D01*
X20698097Y8082298D01*
X19885000Y8895395D01*
X19071903Y8082298D01*
X18421694Y8082298D01*
X18499637Y8160241D01*
X18633692Y8360869D01*
X18648329Y8333486D01*
X18892298Y8261903D01*
X19705395Y9075000D01*
X20064605Y9075000D01*
X20877702Y8261903D01*
X21121671Y8333486D01*
X21242571Y8588996D01*
X21311300Y8863184D01*
X21325217Y9145512D01*
X21293295Y9360960D01*
X21708091Y9360960D01*
X21802930Y9096119D01*
X21947615Y8854869D01*
X22136586Y8646481D01*
X22362580Y8478963D01*
X22616913Y8358754D01*
X22750961Y8318096D01*
X22973000Y8440085D01*
X22973000Y9583000D01*
X23227000Y9583000D01*
X23227000Y8440085D01*
X23449039Y8318096D01*
X23583087Y8358754D01*
X23837420Y8478963D01*
X24063414Y8646481D01*
X24252385Y8854869D01*
X24397070Y9096119D01*
X24491909Y9360960D01*
X24883091Y9360960D01*
X24977930Y9096119D01*
X25122615Y8854869D01*
X25311586Y8646481D01*
X25537580Y8478963D01*
X25791913Y8358754D01*
X25925961Y8318096D01*
X26148000Y8440085D01*
X26148000Y9583000D01*
X26402000Y9583000D01*
X26402000Y8440085D01*
X26624039Y8318096D01*
X26758087Y8358754D01*
X27012420Y8478963D01*
X27238414Y8646481D01*
X27427385Y8854869D01*
X27572070Y9096119D01*
X27666909Y9360960D01*
X27545624Y9583000D01*
X26402000Y9583000D01*
X26148000Y9583000D01*
X25004376Y9583000D01*
X24883091Y9360960D01*
X24491909Y9360960D01*
X24370624Y9583000D01*
X23227000Y9583000D01*
X22973000Y9583000D01*
X21829376Y9583000D01*
X21708091Y9360960D01*
X21293295Y9360960D01*
X21283787Y9425130D01*
X21188603Y9691292D01*
X21121671Y9816514D01*
X20877702Y9888097D01*
X20064605Y9075000D01*
X19705395Y9075000D01*
X18892298Y9888097D01*
X18648329Y9816514D01*
X18634676Y9787659D01*
X18499637Y9989759D01*
X18421694Y10067702D01*
X19071903Y10067702D01*
X19885000Y9254605D01*
X20689435Y10059040D01*
X21708091Y10059040D01*
X21829376Y9837000D01*
X22973000Y9837000D01*
X22973000Y10979915D01*
X23227000Y10979915D01*
X23227000Y9837000D01*
X24370624Y9837000D01*
X24491909Y10059040D01*
X24883091Y10059040D01*
X25004376Y9837000D01*
X26148000Y9837000D01*
X26148000Y10979915D01*
X26402000Y10979915D01*
X26402000Y9837000D01*
X27545624Y9837000D01*
X27666909Y10059040D01*
X27572070Y10323881D01*
X27427385Y10565131D01*
X27238414Y10773519D01*
X27012420Y10941037D01*
X26758087Y11061246D01*
X26624039Y11101904D01*
X26402000Y10979915D01*
X26148000Y10979915D01*
X25925961Y11101904D01*
X25791913Y11061246D01*
X25537580Y10941037D01*
X25311586Y10773519D01*
X25122615Y10565131D01*
X24977930Y10323881D01*
X24883091Y10059040D01*
X24491909Y10059040D01*
X24397070Y10323881D01*
X24252385Y10565131D01*
X24063414Y10773519D01*
X23837420Y10941037D01*
X23583087Y11061246D01*
X23449039Y11101904D01*
X23227000Y10979915D01*
X22973000Y10979915D01*
X22750961Y11101904D01*
X22616913Y11061246D01*
X22362580Y10941037D01*
X22136586Y10773519D01*
X21947615Y10565131D01*
X21802930Y10323881D01*
X21708091Y10059040D01*
X20689435Y10059040D01*
X20698097Y10067702D01*
X20626514Y10311671D01*
X20371004Y10432571D01*
X20096816Y10501300D01*
X19814488Y10515217D01*
X19534870Y10473787D01*
X19268708Y10378603D01*
X19143486Y10311671D01*
X19071903Y10067702D01*
X18421694Y10067702D01*
X18299759Y10189637D01*
X18064727Y10346680D01*
X17803574Y10454853D01*
X17526335Y10510000D01*
X17243665Y10510000D01*
X16966426Y10454853D01*
X16705273Y10346680D01*
X16470241Y10189637D01*
X16270363Y9989759D01*
X16113320Y9754727D01*
X16005147Y9493574D01*
X15950000Y9216335D01*
X1127000Y9216335D01*
X1127000Y12391335D01*
X8330000Y12391335D01*
X8330000Y12108665D01*
X8385147Y11831426D01*
X8493320Y11570273D01*
X8650363Y11335241D01*
X8850241Y11135363D01*
X9085273Y10978320D01*
X9346426Y10870147D01*
X9623665Y10815000D01*
X9906335Y10815000D01*
X10183574Y10870147D01*
X10444727Y10978320D01*
X10679759Y11135363D01*
X10879637Y11335241D01*
X11036680Y11570273D01*
X11144853Y11831426D01*
X11200000Y12108665D01*
X11200000Y12250000D01*
X18483057Y12250000D01*
X18510764Y11968691D01*
X18592818Y11698192D01*
X18726068Y11448899D01*
X18905392Y11230392D01*
X19123899Y11051068D01*
X19373192Y10917818D01*
X19643691Y10835764D01*
X19854508Y10815000D01*
X19995492Y10815000D01*
X20206309Y10835764D01*
X20476808Y10917818D01*
X20726101Y11051068D01*
X20944608Y11230392D01*
X21123932Y11448899D01*
X21257182Y11698192D01*
X21339236Y11968691D01*
X21366943Y12250000D01*
X21339236Y12531309D01*
X21257182Y12801808D01*
X21123932Y13051101D01*
X20944608Y13269608D01*
X20726101Y13448932D01*
X20476808Y13582182D01*
X20206309Y13664236D01*
X19995492Y13685000D01*
X19854508Y13685000D01*
X19643691Y13664236D01*
X19373192Y13582182D01*
X19123899Y13448932D01*
X18905392Y13269608D01*
X18726068Y13051101D01*
X18592818Y12801808D01*
X18510764Y12531309D01*
X18483057Y12250000D01*
X11200000Y12250000D01*
X11200000Y12391335D01*
X11144853Y12668574D01*
X11036680Y12929727D01*
X10879637Y13164759D01*
X10679759Y13364637D01*
X10444727Y13521680D01*
X10183574Y13629853D01*
X9906335Y13685000D01*
X9623665Y13685000D01*
X9346426Y13629853D01*
X9085273Y13521680D01*
X8850241Y13364637D01*
X8650363Y13164759D01*
X8493320Y12929727D01*
X8385147Y12668574D01*
X8330000Y12391335D01*
X1127000Y12391335D01*
X1127000Y17087592D01*
X11668000Y17087592D01*
X11668000Y16812408D01*
X11721686Y16542510D01*
X11826995Y16288273D01*
X11979880Y16059465D01*
X12174465Y15864880D01*
X12403273Y15711995D01*
X12657510Y15606686D01*
X12927408Y15553000D01*
X13202592Y15553000D01*
X13472490Y15606686D01*
X13726727Y15711995D01*
X13955535Y15864880D01*
X14150120Y16059465D01*
X14303005Y16288273D01*
X14408314Y16542510D01*
X14462000Y16812408D01*
X14462000Y17087592D01*
X14408314Y17357490D01*
X14303005Y17611727D01*
X14150120Y17840535D01*
X13955535Y18035120D01*
X13726727Y18188005D01*
X13472490Y18293314D01*
X13202592Y18347000D01*
X12927408Y18347000D01*
X12657510Y18293314D01*
X12403273Y18188005D01*
X12174465Y18035120D01*
X11979880Y17840535D01*
X11826995Y17611727D01*
X11721686Y17357490D01*
X11668000Y17087592D01*
X1127000Y17087592D01*
X1127000Y21355000D01*
X2561928Y21355000D01*
X2561928Y19655000D01*
X2574188Y19530518D01*
X2610498Y19410820D01*
X2669463Y19300506D01*
X2748815Y19203815D01*
X2845506Y19124463D01*
X2955820Y19065498D01*
X3075518Y19029188D01*
X3200000Y19016928D01*
X4900000Y19016928D01*
X5024482Y19029188D01*
X5144180Y19065498D01*
X5254494Y19124463D01*
X5351185Y19203815D01*
X5430537Y19300506D01*
X5489502Y19410820D01*
X5510393Y19479687D01*
X5534866Y19449866D01*
X5760986Y19264294D01*
X6018966Y19126401D01*
X6298889Y19041487D01*
X6517050Y19020000D01*
X6662950Y19020000D01*
X6881111Y19041487D01*
X7033098Y19087592D01*
X8368000Y19087592D01*
X8368000Y18812408D01*
X8421686Y18542510D01*
X8526995Y18288273D01*
X8679880Y18059465D01*
X8874465Y17864880D01*
X9103273Y17711995D01*
X9357510Y17606686D01*
X9627408Y17553000D01*
X9902592Y17553000D01*
X10172490Y17606686D01*
X10426727Y17711995D01*
X10655535Y17864880D01*
X10850120Y18059465D01*
X11003005Y18288273D01*
X11108314Y18542510D01*
X11162000Y18812408D01*
X11162000Y18934440D01*
X15994045Y18934440D01*
X16055932Y18698632D01*
X16297790Y18585734D01*
X16557027Y18522189D01*
X16823680Y18510439D01*
X17087501Y18550937D01*
X17338353Y18642125D01*
X17444068Y18698632D01*
X17505955Y18934440D01*
X16750000Y19690395D01*
X15994045Y18934440D01*
X11162000Y18934440D01*
X11162000Y19087592D01*
X11108314Y19357490D01*
X11003005Y19611727D01*
X10879664Y19796320D01*
X15390439Y19796320D01*
X15430937Y19532499D01*
X15522125Y19281647D01*
X15578632Y19175932D01*
X15814440Y19114045D01*
X16570395Y19870000D01*
X16929605Y19870000D01*
X17685560Y19114045D01*
X17921368Y19175932D01*
X18034266Y19417790D01*
X18097811Y19677027D01*
X18109561Y19943680D01*
X18099176Y20011335D01*
X21665000Y20011335D01*
X21665000Y19728665D01*
X21720147Y19451426D01*
X21828320Y19190273D01*
X21985363Y18955241D01*
X22185241Y18755363D01*
X22420273Y18598320D01*
X22681426Y18490147D01*
X22958665Y18435000D01*
X23241335Y18435000D01*
X23518574Y18490147D01*
X23779727Y18598320D01*
X24014759Y18755363D01*
X24214637Y18955241D01*
X24371680Y19190273D01*
X24479853Y19451426D01*
X24535000Y19728665D01*
X24535000Y20011335D01*
X24840000Y20011335D01*
X24840000Y19728665D01*
X24895147Y19451426D01*
X25003320Y19190273D01*
X25160363Y18955241D01*
X25360241Y18755363D01*
X25595273Y18598320D01*
X25856426Y18490147D01*
X26133665Y18435000D01*
X26416335Y18435000D01*
X26693574Y18490147D01*
X26954727Y18598320D01*
X27189759Y18755363D01*
X27389637Y18955241D01*
X27546680Y19190273D01*
X27654853Y19451426D01*
X27710000Y19728665D01*
X27710000Y20011335D01*
X27654853Y20288574D01*
X27546680Y20549727D01*
X27389637Y20784759D01*
X27189759Y20984637D01*
X26954727Y21141680D01*
X26693574Y21249853D01*
X26416335Y21305000D01*
X26133665Y21305000D01*
X25856426Y21249853D01*
X25595273Y21141680D01*
X25360241Y20984637D01*
X25160363Y20784759D01*
X25003320Y20549727D01*
X24895147Y20288574D01*
X24840000Y20011335D01*
X24535000Y20011335D01*
X24479853Y20288574D01*
X24371680Y20549727D01*
X24214637Y20784759D01*
X24014759Y20984637D01*
X23779727Y21141680D01*
X23518574Y21249853D01*
X23241335Y21305000D01*
X22958665Y21305000D01*
X22681426Y21249853D01*
X22420273Y21141680D01*
X22185241Y20984637D01*
X21985363Y20784759D01*
X21828320Y20549727D01*
X21720147Y20288574D01*
X21665000Y20011335D01*
X18099176Y20011335D01*
X18069063Y20207501D01*
X17977875Y20458353D01*
X17921368Y20564068D01*
X17685560Y20625955D01*
X16929605Y19870000D01*
X16570395Y19870000D01*
X15814440Y20625955D01*
X15578632Y20564068D01*
X15465734Y20322210D01*
X15402189Y20062973D01*
X15390439Y19796320D01*
X10879664Y19796320D01*
X10850120Y19840535D01*
X10655535Y20035120D01*
X10426727Y20188005D01*
X10172490Y20293314D01*
X9902592Y20347000D01*
X9627408Y20347000D01*
X9357510Y20293314D01*
X9103273Y20188005D01*
X8874465Y20035120D01*
X8679880Y19840535D01*
X8526995Y19611727D01*
X8421686Y19357490D01*
X8368000Y19087592D01*
X7033098Y19087592D01*
X7161034Y19126401D01*
X7419014Y19264294D01*
X7645134Y19449866D01*
X7830706Y19675986D01*
X7968599Y19933966D01*
X8053513Y20213889D01*
X8082185Y20505000D01*
X8053513Y20796111D01*
X8050647Y20805560D01*
X15994045Y20805560D01*
X16750000Y20049605D01*
X17505955Y20805560D01*
X17444068Y21041368D01*
X17202210Y21154266D01*
X16942973Y21217811D01*
X16676320Y21229561D01*
X16412499Y21189063D01*
X16161647Y21097875D01*
X16055932Y21041368D01*
X15994045Y20805560D01*
X8050647Y20805560D01*
X7968599Y21076034D01*
X7830706Y21334014D01*
X7645134Y21560134D01*
X7419014Y21745706D01*
X7161034Y21883599D01*
X6881111Y21968513D01*
X6662950Y21990000D01*
X6517050Y21990000D01*
X6298889Y21968513D01*
X6018966Y21883599D01*
X5760986Y21745706D01*
X5534866Y21560134D01*
X5510393Y21530313D01*
X5489502Y21599180D01*
X5430537Y21709494D01*
X5351185Y21806185D01*
X5254494Y21885537D01*
X5144180Y21944502D01*
X5024482Y21980812D01*
X4900000Y21993072D01*
X3200000Y21993072D01*
X3075518Y21980812D01*
X2955820Y21944502D01*
X2845506Y21885537D01*
X2748815Y21806185D01*
X2669463Y21709494D01*
X2610498Y21599180D01*
X2574188Y21479482D01*
X2561928Y21355000D01*
X1127000Y21355000D01*
X1127000Y23087592D01*
X8368000Y23087592D01*
X8368000Y22812408D01*
X8421686Y22542510D01*
X8526995Y22288273D01*
X8679880Y22059465D01*
X8874465Y21864880D01*
X9103273Y21711995D01*
X9357510Y21606686D01*
X9627408Y21553000D01*
X9902592Y21553000D01*
X10172490Y21606686D01*
X10426727Y21711995D01*
X10655535Y21864880D01*
X10850120Y22059465D01*
X11003005Y22288273D01*
X11108314Y22542510D01*
X11108502Y22543456D01*
X17935000Y22543456D01*
X17935000Y22276544D01*
X17987072Y22014761D01*
X18089215Y21768167D01*
X18237503Y21546238D01*
X18426238Y21357503D01*
X18648167Y21209215D01*
X18894761Y21107072D01*
X19156544Y21055000D01*
X19423456Y21055000D01*
X19685239Y21107072D01*
X19931833Y21209215D01*
X20153762Y21357503D01*
X20342497Y21546238D01*
X20490785Y21768167D01*
X20592928Y22014761D01*
X20645000Y22276544D01*
X20645000Y22543456D01*
X20592928Y22805239D01*
X20490785Y23051833D01*
X20342497Y23273762D01*
X20153762Y23462497D01*
X19931833Y23610785D01*
X19685239Y23712928D01*
X19423456Y23765000D01*
X19156544Y23765000D01*
X18894761Y23712928D01*
X18648167Y23610785D01*
X18426238Y23462497D01*
X18237503Y23273762D01*
X18089215Y23051833D01*
X17987072Y22805239D01*
X17935000Y22543456D01*
X11108502Y22543456D01*
X11162000Y22812408D01*
X11162000Y23087592D01*
X11108314Y23357490D01*
X11003005Y23611727D01*
X10850120Y23840535D01*
X10655535Y24035120D01*
X10426727Y24188005D01*
X10172490Y24293314D01*
X9902592Y24347000D01*
X9627408Y24347000D01*
X9357510Y24293314D01*
X9103273Y24188005D01*
X8874465Y24035120D01*
X8679880Y23840535D01*
X8526995Y23611727D01*
X8421686Y23357490D01*
X8368000Y23087592D01*
X1127000Y23087592D01*
X1127000Y27873000D01*
X3064022Y27873000D01*
X2971799Y27734979D01*
M02*
