G04 #@! TF.GenerationSoftware,KiCad,Pcbnew,(5.1.4)-1*
G04 #@! TF.CreationDate,2019-09-09T23:48:02+02:00*
G04 #@! TF.ProjectId,PTC,5054432e-6b69-4636-9164-5f7063625858,rev?*
G04 #@! TF.SameCoordinates,PXe4e1c0PY29f6300*
G04 #@! TF.FileFunction,Soldermask,Bot*
G04 #@! TF.FilePolarity,Negative*
%FSLAX46Y46*%
G04 Gerber Fmt 4.6, Leading zero omitted, Abs format (unit mm)*
G04 Created by KiCad (PCBNEW (5.1.4)-1) date 2019-09-09 23:48:02*
%MOMM*%
%LPD*%
G04 APERTURE LIST*
%ADD10C,0.100000*%
G04 APERTURE END LIST*
D10*
G36*
X23994098Y5202967D02*
G01*
X24458350Y5010668D01*
X24458352Y5010667D01*
X24876168Y4731491D01*
X25231491Y4376168D01*
X25510667Y3958352D01*
X25510668Y3958350D01*
X25702967Y3494098D01*
X25801000Y3001253D01*
X25801000Y2498747D01*
X25702967Y2005902D01*
X25510668Y1541650D01*
X25510667Y1541648D01*
X25231491Y1123832D01*
X24876168Y768509D01*
X24458352Y489333D01*
X24458351Y489332D01*
X24458350Y489332D01*
X23994098Y297033D01*
X23501253Y199000D01*
X22998747Y199000D01*
X22505902Y297033D01*
X22041650Y489332D01*
X22041649Y489332D01*
X22041648Y489333D01*
X21623832Y768509D01*
X21268509Y1123832D01*
X20989333Y1541648D01*
X20989332Y1541650D01*
X20797033Y2005902D01*
X20699000Y2498747D01*
X20699000Y3001253D01*
X20797033Y3494098D01*
X20989332Y3958350D01*
X20989333Y3958352D01*
X21268509Y4376168D01*
X21623832Y4731491D01*
X22041648Y5010667D01*
X22041650Y5010668D01*
X22505902Y5202967D01*
X22998747Y5301000D01*
X23501253Y5301000D01*
X23994098Y5202967D01*
X23994098Y5202967D01*
G37*
G36*
X17495442Y5968982D02*
G01*
X17561627Y5962463D01*
X17731466Y5910943D01*
X17887991Y5827278D01*
X17923729Y5797948D01*
X18025186Y5714686D01*
X18108448Y5613229D01*
X18137778Y5577491D01*
X18221443Y5420966D01*
X18272963Y5251127D01*
X18290359Y5074500D01*
X18272963Y4897873D01*
X18221443Y4728034D01*
X18137778Y4571509D01*
X18108448Y4535771D01*
X18025186Y4434314D01*
X17923729Y4351052D01*
X17887991Y4321722D01*
X17731466Y4238057D01*
X17561627Y4186537D01*
X17495442Y4180018D01*
X17429260Y4173500D01*
X17340740Y4173500D01*
X17274558Y4180018D01*
X17208373Y4186537D01*
X17038534Y4238057D01*
X16882009Y4321722D01*
X16846271Y4351052D01*
X16744814Y4434314D01*
X16661552Y4535771D01*
X16632222Y4571509D01*
X16548557Y4728034D01*
X16497037Y4897873D01*
X16479641Y5074500D01*
X16497037Y5251127D01*
X16548557Y5420966D01*
X16632222Y5577491D01*
X16661552Y5613229D01*
X16744814Y5714686D01*
X16846271Y5797948D01*
X16882009Y5827278D01*
X17038534Y5910943D01*
X17208373Y5962463D01*
X17274558Y5968982D01*
X17340740Y5975500D01*
X17429260Y5975500D01*
X17495442Y5968982D01*
X17495442Y5968982D01*
G37*
G36*
X13206000Y4173500D02*
G01*
X11404000Y4173500D01*
X11404000Y5975500D01*
X13206000Y5975500D01*
X13206000Y4173500D01*
X13206000Y4173500D01*
G37*
G36*
X14955442Y5968982D02*
G01*
X15021627Y5962463D01*
X15191466Y5910943D01*
X15347991Y5827278D01*
X15383729Y5797948D01*
X15485186Y5714686D01*
X15568448Y5613229D01*
X15597778Y5577491D01*
X15681443Y5420966D01*
X15732963Y5251127D01*
X15750359Y5074500D01*
X15732963Y4897873D01*
X15681443Y4728034D01*
X15597778Y4571509D01*
X15568448Y4535771D01*
X15485186Y4434314D01*
X15383729Y4351052D01*
X15347991Y4321722D01*
X15191466Y4238057D01*
X15021627Y4186537D01*
X14955442Y4180018D01*
X14889260Y4173500D01*
X14800740Y4173500D01*
X14734558Y4180018D01*
X14668373Y4186537D01*
X14498534Y4238057D01*
X14342009Y4321722D01*
X14306271Y4351052D01*
X14204814Y4434314D01*
X14121552Y4535771D01*
X14092222Y4571509D01*
X14008557Y4728034D01*
X13957037Y4897873D01*
X13939641Y5074500D01*
X13957037Y5251127D01*
X14008557Y5420966D01*
X14092222Y5577491D01*
X14121552Y5613229D01*
X14204814Y5714686D01*
X14306271Y5797948D01*
X14342009Y5827278D01*
X14498534Y5910943D01*
X14668373Y5962463D01*
X14734558Y5968982D01*
X14800740Y5975500D01*
X14889260Y5975500D01*
X14955442Y5968982D01*
X14955442Y5968982D01*
G37*
G36*
X20133228Y9893297D02*
G01*
X20288100Y9829147D01*
X20427481Y9736015D01*
X20546015Y9617481D01*
X20639147Y9478100D01*
X20703297Y9323228D01*
X20736000Y9158816D01*
X20736000Y8991184D01*
X20703297Y8826772D01*
X20639147Y8671900D01*
X20546015Y8532519D01*
X20427481Y8413985D01*
X20288100Y8320853D01*
X20133228Y8256703D01*
X19968816Y8224000D01*
X19801184Y8224000D01*
X19636772Y8256703D01*
X19481900Y8320853D01*
X19342519Y8413985D01*
X19223985Y8532519D01*
X19130853Y8671900D01*
X19066703Y8826772D01*
X19034000Y8991184D01*
X19034000Y9158816D01*
X19066703Y9323228D01*
X19130853Y9478100D01*
X19223985Y9617481D01*
X19342519Y9736015D01*
X19481900Y9829147D01*
X19636772Y9893297D01*
X19801184Y9926000D01*
X19968816Y9926000D01*
X20133228Y9893297D01*
X20133228Y9893297D01*
G37*
G36*
X17633228Y9893297D02*
G01*
X17788100Y9829147D01*
X17927481Y9736015D01*
X18046015Y9617481D01*
X18139147Y9478100D01*
X18203297Y9323228D01*
X18236000Y9158816D01*
X18236000Y8991184D01*
X18203297Y8826772D01*
X18139147Y8671900D01*
X18046015Y8532519D01*
X17927481Y8413985D01*
X17788100Y8320853D01*
X17633228Y8256703D01*
X17468816Y8224000D01*
X17301184Y8224000D01*
X17136772Y8256703D01*
X16981900Y8320853D01*
X16842519Y8413985D01*
X16723985Y8532519D01*
X16630853Y8671900D01*
X16566703Y8826772D01*
X16534000Y8991184D01*
X16534000Y9158816D01*
X16566703Y9323228D01*
X16630853Y9478100D01*
X16723985Y9617481D01*
X16842519Y9736015D01*
X16981900Y9829147D01*
X17136772Y9893297D01*
X17301184Y9926000D01*
X17468816Y9926000D01*
X17633228Y9893297D01*
X17633228Y9893297D01*
G37*
G36*
X26441823Y10548687D02*
G01*
X26602242Y10500024D01*
X26734906Y10429114D01*
X26750078Y10421004D01*
X26879659Y10314659D01*
X26986004Y10185078D01*
X26986005Y10185076D01*
X27065024Y10037242D01*
X27113687Y9876823D01*
X27130117Y9710000D01*
X27113687Y9543177D01*
X27065024Y9382758D01*
X26994114Y9250094D01*
X26986004Y9234922D01*
X26879659Y9105341D01*
X26750078Y8998996D01*
X26750076Y8998995D01*
X26602242Y8919976D01*
X26441823Y8871313D01*
X26316804Y8859000D01*
X26233196Y8859000D01*
X26108177Y8871313D01*
X25947758Y8919976D01*
X25799924Y8998995D01*
X25799922Y8998996D01*
X25670341Y9105341D01*
X25563996Y9234922D01*
X25555886Y9250094D01*
X25484976Y9382758D01*
X25436313Y9543177D01*
X25419883Y9710000D01*
X25436313Y9876823D01*
X25484976Y10037242D01*
X25563995Y10185076D01*
X25563996Y10185078D01*
X25670341Y10314659D01*
X25799922Y10421004D01*
X25815094Y10429114D01*
X25947758Y10500024D01*
X26108177Y10548687D01*
X26233196Y10561000D01*
X26316804Y10561000D01*
X26441823Y10548687D01*
X26441823Y10548687D01*
G37*
G36*
X23266823Y10548687D02*
G01*
X23427242Y10500024D01*
X23559906Y10429114D01*
X23575078Y10421004D01*
X23704659Y10314659D01*
X23811004Y10185078D01*
X23811005Y10185076D01*
X23890024Y10037242D01*
X23938687Y9876823D01*
X23955117Y9710000D01*
X23938687Y9543177D01*
X23890024Y9382758D01*
X23819114Y9250094D01*
X23811004Y9234922D01*
X23704659Y9105341D01*
X23575078Y8998996D01*
X23575076Y8998995D01*
X23427242Y8919976D01*
X23266823Y8871313D01*
X23141804Y8859000D01*
X23058196Y8859000D01*
X22933177Y8871313D01*
X22772758Y8919976D01*
X22624924Y8998995D01*
X22624922Y8998996D01*
X22495341Y9105341D01*
X22388996Y9234922D01*
X22380886Y9250094D01*
X22309976Y9382758D01*
X22261313Y9543177D01*
X22244883Y9710000D01*
X22261313Y9876823D01*
X22309976Y10037242D01*
X22388995Y10185076D01*
X22388996Y10185078D01*
X22495341Y10314659D01*
X22624922Y10421004D01*
X22640094Y10429114D01*
X22772758Y10500024D01*
X22933177Y10548687D01*
X23058196Y10561000D01*
X23141804Y10561000D01*
X23266823Y10548687D01*
X23266823Y10548687D01*
G37*
G36*
X20091823Y13088687D02*
G01*
X20252242Y13040024D01*
X20319361Y13004148D01*
X20400078Y12961004D01*
X20529659Y12854659D01*
X20636004Y12725078D01*
X20636005Y12725076D01*
X20715024Y12577242D01*
X20763687Y12416823D01*
X20780117Y12250000D01*
X20763687Y12083177D01*
X20715024Y11922758D01*
X20674477Y11846900D01*
X20636004Y11774922D01*
X20529659Y11645341D01*
X20400078Y11538996D01*
X20400076Y11538995D01*
X20252242Y11459976D01*
X20091823Y11411313D01*
X19966804Y11399000D01*
X19883196Y11399000D01*
X19758177Y11411313D01*
X19597758Y11459976D01*
X19449924Y11538995D01*
X19449922Y11538996D01*
X19320341Y11645341D01*
X19213996Y11774922D01*
X19175523Y11846900D01*
X19134976Y11922758D01*
X19086313Y12083177D01*
X19069883Y12250000D01*
X19086313Y12416823D01*
X19134976Y12577242D01*
X19213995Y12725076D01*
X19213996Y12725078D01*
X19320341Y12854659D01*
X19449922Y12961004D01*
X19530639Y13004148D01*
X19597758Y13040024D01*
X19758177Y13088687D01*
X19883196Y13101000D01*
X19966804Y13101000D01*
X20091823Y13088687D01*
X20091823Y13088687D01*
G37*
G36*
X10013228Y13068297D02*
G01*
X10168100Y13004147D01*
X10307481Y12911015D01*
X10426015Y12792481D01*
X10519147Y12653100D01*
X10583297Y12498228D01*
X10616000Y12333816D01*
X10616000Y12166184D01*
X10583297Y12001772D01*
X10519147Y11846900D01*
X10426015Y11707519D01*
X10307481Y11588985D01*
X10168100Y11495853D01*
X10013228Y11431703D01*
X9848816Y11399000D01*
X9681184Y11399000D01*
X9516772Y11431703D01*
X9361900Y11495853D01*
X9222519Y11588985D01*
X9103985Y11707519D01*
X9010853Y11846900D01*
X8946703Y12001772D01*
X8914000Y12166184D01*
X8914000Y12333816D01*
X8946703Y12498228D01*
X9010853Y12653100D01*
X9103985Y12792481D01*
X9222519Y12911015D01*
X9361900Y13004147D01*
X9516772Y13068297D01*
X9681184Y13101000D01*
X9848816Y13101000D01*
X10013228Y13068297D01*
X10013228Y13068297D01*
G37*
G36*
X13302142Y17731758D02*
G01*
X13450101Y17670471D01*
X13583255Y17581501D01*
X13696501Y17468255D01*
X13785471Y17335101D01*
X13846758Y17187142D01*
X13878000Y17030075D01*
X13878000Y16869925D01*
X13846758Y16712858D01*
X13785471Y16564899D01*
X13696501Y16431745D01*
X13583255Y16318499D01*
X13450101Y16229529D01*
X13302142Y16168242D01*
X13145075Y16137000D01*
X12984925Y16137000D01*
X12827858Y16168242D01*
X12679899Y16229529D01*
X12546745Y16318499D01*
X12433499Y16431745D01*
X12344529Y16564899D01*
X12283242Y16712858D01*
X12252000Y16869925D01*
X12252000Y17030075D01*
X12283242Y17187142D01*
X12344529Y17335101D01*
X12433499Y17468255D01*
X12546745Y17581501D01*
X12679899Y17670471D01*
X12827858Y17731758D01*
X12984925Y17763000D01*
X13145075Y17763000D01*
X13302142Y17731758D01*
X13302142Y17731758D01*
G37*
G36*
X10002142Y19731758D02*
G01*
X10150101Y19670471D01*
X10283255Y19581501D01*
X10396501Y19468255D01*
X10485471Y19335101D01*
X10546758Y19187142D01*
X10578000Y19030075D01*
X10578000Y18869925D01*
X10546758Y18712858D01*
X10485471Y18564899D01*
X10396501Y18431745D01*
X10283255Y18318499D01*
X10150101Y18229529D01*
X10002142Y18168242D01*
X9845075Y18137000D01*
X9684925Y18137000D01*
X9527858Y18168242D01*
X9379899Y18229529D01*
X9246745Y18318499D01*
X9133499Y18431745D01*
X9044529Y18564899D01*
X8983242Y18712858D01*
X8952000Y18869925D01*
X8952000Y19030075D01*
X8983242Y19187142D01*
X9044529Y19335101D01*
X9133499Y19468255D01*
X9246745Y19581501D01*
X9379899Y19670471D01*
X9527858Y19731758D01*
X9684925Y19763000D01*
X9845075Y19763000D01*
X10002142Y19731758D01*
X10002142Y19731758D01*
G37*
G36*
X23348228Y20688297D02*
G01*
X23503100Y20624147D01*
X23642481Y20531015D01*
X23761015Y20412481D01*
X23854147Y20273100D01*
X23918297Y20118228D01*
X23951000Y19953816D01*
X23951000Y19786184D01*
X23918297Y19621772D01*
X23854147Y19466900D01*
X23761015Y19327519D01*
X23642481Y19208985D01*
X23503100Y19115853D01*
X23348228Y19051703D01*
X23183816Y19019000D01*
X23016184Y19019000D01*
X22851772Y19051703D01*
X22696900Y19115853D01*
X22557519Y19208985D01*
X22438985Y19327519D01*
X22345853Y19466900D01*
X22281703Y19621772D01*
X22249000Y19786184D01*
X22249000Y19953816D01*
X22281703Y20118228D01*
X22345853Y20273100D01*
X22438985Y20412481D01*
X22557519Y20531015D01*
X22696900Y20624147D01*
X22851772Y20688297D01*
X23016184Y20721000D01*
X23183816Y20721000D01*
X23348228Y20688297D01*
X23348228Y20688297D01*
G37*
G36*
X26523228Y20688297D02*
G01*
X26678100Y20624147D01*
X26817481Y20531015D01*
X26936015Y20412481D01*
X27029147Y20273100D01*
X27093297Y20118228D01*
X27126000Y19953816D01*
X27126000Y19786184D01*
X27093297Y19621772D01*
X27029147Y19466900D01*
X26936015Y19327519D01*
X26817481Y19208985D01*
X26678100Y19115853D01*
X26523228Y19051703D01*
X26358816Y19019000D01*
X26191184Y19019000D01*
X26026772Y19051703D01*
X25871900Y19115853D01*
X25732519Y19208985D01*
X25613985Y19327519D01*
X25520853Y19466900D01*
X25456703Y19621772D01*
X25424000Y19786184D01*
X25424000Y19953816D01*
X25456703Y20118228D01*
X25520853Y20273100D01*
X25613985Y20412481D01*
X25732519Y20531015D01*
X25871900Y20624147D01*
X26026772Y20688297D01*
X26191184Y20721000D01*
X26358816Y20721000D01*
X26523228Y20688297D01*
X26523228Y20688297D01*
G37*
G36*
X16875589Y20631124D02*
G01*
X16974893Y20611371D01*
X17115206Y20553252D01*
X17241484Y20468875D01*
X17348875Y20361484D01*
X17433252Y20235206D01*
X17491371Y20094893D01*
X17521000Y19945937D01*
X17521000Y19794063D01*
X17491371Y19645107D01*
X17433252Y19504794D01*
X17348875Y19378516D01*
X17241484Y19271125D01*
X17115206Y19186748D01*
X16974893Y19128629D01*
X16910663Y19115853D01*
X16825938Y19099000D01*
X16674062Y19099000D01*
X16589337Y19115853D01*
X16525107Y19128629D01*
X16384794Y19186748D01*
X16258516Y19271125D01*
X16151125Y19378516D01*
X16066748Y19504794D01*
X16008629Y19645107D01*
X15979000Y19794063D01*
X15979000Y19945937D01*
X16008629Y20094893D01*
X16066748Y20235206D01*
X16151125Y20361484D01*
X16258516Y20468875D01*
X16384794Y20553252D01*
X16525107Y20611371D01*
X16624411Y20631124D01*
X16674062Y20641000D01*
X16825938Y20641000D01*
X16875589Y20631124D01*
X16875589Y20631124D01*
G37*
G36*
X6700442Y21399482D02*
G01*
X6766627Y21392963D01*
X6936466Y21341443D01*
X7092991Y21257778D01*
X7128729Y21228448D01*
X7230186Y21145186D01*
X7313448Y21043729D01*
X7342778Y21007991D01*
X7426443Y20851466D01*
X7477963Y20681627D01*
X7495359Y20505000D01*
X7477963Y20328373D01*
X7426443Y20158534D01*
X7342778Y20002009D01*
X7313448Y19966271D01*
X7230186Y19864814D01*
X7143974Y19794063D01*
X7092991Y19752222D01*
X6936466Y19668557D01*
X6766627Y19617037D01*
X6700443Y19610519D01*
X6634260Y19604000D01*
X6545740Y19604000D01*
X6479557Y19610519D01*
X6413373Y19617037D01*
X6243534Y19668557D01*
X6087009Y19752222D01*
X6036026Y19794063D01*
X5949814Y19864814D01*
X5866552Y19966271D01*
X5837222Y20002009D01*
X5753557Y20158534D01*
X5702037Y20328373D01*
X5684641Y20505000D01*
X5702037Y20681627D01*
X5753557Y20851466D01*
X5837222Y21007991D01*
X5866552Y21043729D01*
X5949814Y21145186D01*
X6051271Y21228448D01*
X6087009Y21257778D01*
X6243534Y21341443D01*
X6413373Y21392963D01*
X6479558Y21399482D01*
X6545740Y21406000D01*
X6634260Y21406000D01*
X6700442Y21399482D01*
X6700442Y21399482D01*
G37*
G36*
X4951000Y19604000D02*
G01*
X3149000Y19604000D01*
X3149000Y21406000D01*
X4951000Y21406000D01*
X4951000Y19604000D01*
X4951000Y19604000D01*
G37*
G36*
X19415589Y23171124D02*
G01*
X19514893Y23151371D01*
X19655206Y23093252D01*
X19781484Y23008875D01*
X19888875Y22901484D01*
X19973252Y22775206D01*
X20031371Y22634893D01*
X20061000Y22485937D01*
X20061000Y22334063D01*
X20031371Y22185107D01*
X19973252Y22044794D01*
X19888875Y21918516D01*
X19781484Y21811125D01*
X19655206Y21726748D01*
X19514893Y21668629D01*
X19415589Y21648876D01*
X19365938Y21639000D01*
X19214062Y21639000D01*
X19164411Y21648876D01*
X19065107Y21668629D01*
X18924794Y21726748D01*
X18798516Y21811125D01*
X18691125Y21918516D01*
X18606748Y22044794D01*
X18548629Y22185107D01*
X18519000Y22334063D01*
X18519000Y22485937D01*
X18548629Y22634893D01*
X18606748Y22775206D01*
X18691125Y22901484D01*
X18798516Y23008875D01*
X18924794Y23093252D01*
X19065107Y23151371D01*
X19164411Y23171124D01*
X19214062Y23181000D01*
X19365938Y23181000D01*
X19415589Y23171124D01*
X19415589Y23171124D01*
G37*
G36*
X10002142Y23731758D02*
G01*
X10150101Y23670471D01*
X10283255Y23581501D01*
X10396501Y23468255D01*
X10485471Y23335101D01*
X10546758Y23187142D01*
X10578000Y23030075D01*
X10578000Y22869925D01*
X10546758Y22712858D01*
X10485471Y22564899D01*
X10396501Y22431745D01*
X10283255Y22318499D01*
X10150101Y22229529D01*
X10002142Y22168242D01*
X9845075Y22137000D01*
X9684925Y22137000D01*
X9527858Y22168242D01*
X9379899Y22229529D01*
X9246745Y22318499D01*
X9133499Y22431745D01*
X9044529Y22564899D01*
X8983242Y22712858D01*
X8952000Y22869925D01*
X8952000Y23030075D01*
X8983242Y23187142D01*
X9044529Y23335101D01*
X9133499Y23468255D01*
X9246745Y23581501D01*
X9379899Y23670471D01*
X9527858Y23731758D01*
X9684925Y23763000D01*
X9845075Y23763000D01*
X10002142Y23731758D01*
X10002142Y23731758D01*
G37*
G36*
X6494098Y28702967D02*
G01*
X6958350Y28510668D01*
X6958352Y28510667D01*
X7376168Y28231491D01*
X7731491Y27876168D01*
X8010667Y27458352D01*
X8010668Y27458350D01*
X8202967Y26994098D01*
X8301000Y26501253D01*
X8301000Y25998747D01*
X8202967Y25505902D01*
X8065859Y25174893D01*
X8010667Y25041648D01*
X7731491Y24623832D01*
X7376168Y24268509D01*
X6958352Y23989333D01*
X6958351Y23989332D01*
X6958350Y23989332D01*
X6494098Y23797033D01*
X6001253Y23699000D01*
X5498747Y23699000D01*
X5005902Y23797033D01*
X4541650Y23989332D01*
X4541649Y23989332D01*
X4541648Y23989333D01*
X4123832Y24268509D01*
X3768509Y24623832D01*
X3489333Y25041648D01*
X3434141Y25174893D01*
X3297033Y25505902D01*
X3199000Y25998747D01*
X3199000Y26501253D01*
X3297033Y26994098D01*
X3489332Y27458350D01*
X3489333Y27458352D01*
X3768509Y27876168D01*
X4123832Y28231491D01*
X4541648Y28510667D01*
X4541650Y28510668D01*
X5005902Y28702967D01*
X5498747Y28801000D01*
X6001253Y28801000D01*
X6494098Y28702967D01*
X6494098Y28702967D01*
G37*
G36*
X13302142Y25731758D02*
G01*
X13450101Y25670471D01*
X13583255Y25581501D01*
X13696501Y25468255D01*
X13785471Y25335101D01*
X13846758Y25187142D01*
X13878000Y25030075D01*
X13878000Y24869925D01*
X13846758Y24712858D01*
X13785471Y24564899D01*
X13696501Y24431745D01*
X13583255Y24318499D01*
X13450101Y24229529D01*
X13302142Y24168242D01*
X13145075Y24137000D01*
X12984925Y24137000D01*
X12827858Y24168242D01*
X12679899Y24229529D01*
X12546745Y24318499D01*
X12433499Y24431745D01*
X12344529Y24564899D01*
X12283242Y24712858D01*
X12252000Y24869925D01*
X12252000Y25030075D01*
X12283242Y25187142D01*
X12344529Y25335101D01*
X12433499Y25468255D01*
X12546745Y25581501D01*
X12679899Y25670471D01*
X12827858Y25731758D01*
X12984925Y25763000D01*
X13145075Y25763000D01*
X13302142Y25731758D01*
X13302142Y25731758D01*
G37*
G36*
X16875589Y25711124D02*
G01*
X16974893Y25691371D01*
X17115206Y25633252D01*
X17241484Y25548875D01*
X17348875Y25441484D01*
X17433252Y25315206D01*
X17491371Y25174893D01*
X17521000Y25025937D01*
X17521000Y24874063D01*
X17491371Y24725107D01*
X17433252Y24584794D01*
X17348875Y24458516D01*
X17241484Y24351125D01*
X17115206Y24266748D01*
X16974893Y24208629D01*
X16875589Y24188876D01*
X16825938Y24179000D01*
X16674062Y24179000D01*
X16624411Y24188876D01*
X16525107Y24208629D01*
X16384794Y24266748D01*
X16258516Y24351125D01*
X16151125Y24458516D01*
X16066748Y24584794D01*
X16008629Y24725107D01*
X15979000Y24874063D01*
X15979000Y25025937D01*
X16008629Y25174893D01*
X16066748Y25315206D01*
X16151125Y25441484D01*
X16258516Y25548875D01*
X16384794Y25633252D01*
X16525107Y25691371D01*
X16624411Y25711124D01*
X16674062Y25721000D01*
X16825938Y25721000D01*
X16875589Y25711124D01*
X16875589Y25711124D01*
G37*
M02*
