M48
; DRILL file {KiCad (5.1.4)-1} date 10/09/2019 00:09:13
; FORMAT={3:3/ absolute / metric / suppress leading zeros}
; #@! TF.CreationDate,2019-09-10T00:09:13+02:00
; #@! TF.GenerationSoftware,Kicad,Pcbnew,(5.1.4)-1
; #@! TF.FileFunction,Plated,1,2,PTH
FMAT,2
METRIC,TZ
T1C0.800
T2C1.000
T3C1.200
%
G90
G05
T1
X6511Y11633
X6511Y4013
X9051Y11633
X9051Y4013
X11591Y11633
X11591Y4013
X14131Y11633
X14131Y4013
X16671Y11633
X16671Y4013
X19211Y11633
X19211Y4013
X21751Y11633
X21751Y4013
X24290Y11633
X24290Y4013
X27592Y6513
X27592Y4013
T2
X6511Y15125
X9051Y15125
X11591Y15125
X14131Y15125
X16671Y15125
X19211Y15125
X21751Y15125
X24290Y15125
X26830Y15125
X29370Y15125
X31911Y15125
X34451Y15125
X36991Y15125
X39530Y15125
X42070Y15125
X44610Y15125
X31720Y4013
X34260Y4013
X36800Y4013
X39340Y4013
X41880Y4013
T3
X2510Y15125
X2510Y2425
X27910Y10426
X40610Y10426
T0
M30
