G04 #@! TF.GenerationSoftware,KiCad,Pcbnew,(5.1.4)-1*
G04 #@! TF.CreationDate,2019-09-16T22:18:46+02:00*
G04 #@! TF.ProjectId,Display,44697370-6c61-4792-9e6b-696361645f70,1.1*
G04 #@! TF.SameCoordinates,PXe4e1c0PY1e84800*
G04 #@! TF.FileFunction,Legend,Top*
G04 #@! TF.FilePolarity,Positive*
%FSLAX46Y46*%
G04 Gerber Fmt 4.6, Leading zero omitted, Abs format (unit mm)*
G04 Created by KiCad (PCBNEW (5.1.4)-1) date 2019-09-16 22:18:46*
%MOMM*%
%LPD*%
G04 APERTURE LIST*
%ADD10C,0.120000*%
%ADD11C,0.150000*%
%ADD12O,1.702000X1.702000*%
%ADD13C,1.702000*%
%ADD14O,2.134000X2.134000*%
%ADD15R,2.134000X2.134000*%
%ADD16O,1.802000X1.802000*%
%ADD17R,1.802000X1.802000*%
%ADD18R,1.702000X1.702000*%
G04 APERTURE END LIST*
D10*
X28632500Y10680000D02*
X29402500Y10680000D01*
X36712500Y10680000D02*
X35942500Y10680000D01*
X29402500Y9310000D02*
X35942500Y9310000D01*
X29402500Y12050000D02*
X29402500Y9310000D01*
X35942500Y12050000D02*
X29402500Y12050000D01*
X35942500Y9310000D02*
X35942500Y12050000D01*
X3145000Y13132500D02*
X3145000Y12362500D01*
X3145000Y5052500D02*
X3145000Y5822500D01*
X1775000Y12362500D02*
X1775000Y5822500D01*
X4515000Y12362500D02*
X1775000Y12362500D01*
X4515000Y5822500D02*
X4515000Y12362500D01*
X1775000Y5822500D02*
X4515000Y5822500D01*
D11*
X31755000Y6412500D02*
X41755000Y6412500D01*
X43190000Y1412500D02*
X43190000Y7212500D01*
X32990000Y2742500D02*
X43190000Y2742500D01*
X30440000Y1412500D02*
X30440000Y7212500D01*
X30440000Y2462500D02*
X31920000Y2462500D01*
X32990000Y5282500D02*
X32990000Y2742500D01*
X30440000Y5562500D02*
X31920000Y5562500D01*
X32990000Y5282500D02*
X43190000Y5282500D01*
X30440000Y7212500D02*
X43190000Y7212500D01*
X30440000Y1412500D02*
X43190000Y1412500D01*
X31755000Y6412500D02*
X31755000Y7212500D01*
X41755000Y6412500D02*
X41755000Y7212500D01*
D10*
X25680500Y2682500D02*
X25680500Y12962500D01*
X5120500Y2682500D02*
X25680500Y2682500D01*
X5120500Y12962500D02*
X5120500Y2682500D01*
X25680500Y12962500D02*
X5120500Y12962500D01*
X25620500Y5172500D02*
X25620500Y6822500D01*
X5180500Y5172500D02*
X25620500Y5172500D01*
X5180500Y10472500D02*
X5180500Y5172500D01*
X25620500Y10472500D02*
X5180500Y10472500D01*
X25620500Y8822500D02*
X25620500Y10472500D01*
X25620500Y6822500D02*
G75*
G02X25620500Y8822500I0J1000000D01*
G01*
X28517500Y7082500D02*
X28762500Y7082500D01*
X26422500Y7082500D02*
X26667500Y7082500D01*
X28517500Y3442500D02*
X28762500Y3442500D01*
X26422500Y3442500D02*
X26667500Y3442500D01*
X28762500Y3442500D02*
X28762500Y7082500D01*
X26422500Y3442500D02*
X26422500Y7082500D01*
D11*
X40125952Y10227620D02*
X39792619Y10703810D01*
X39554523Y10227620D02*
X39554523Y11227620D01*
X39935476Y11227620D01*
X40030714Y11180000D01*
X40078333Y11132381D01*
X40125952Y11037143D01*
X40125952Y10894286D01*
X40078333Y10799048D01*
X40030714Y10751429D01*
X39935476Y10703810D01*
X39554523Y10703810D01*
X40459285Y11227620D02*
X41078333Y11227620D01*
X40745000Y10846667D01*
X40887857Y10846667D01*
X40983095Y10799048D01*
X41030714Y10751429D01*
X41078333Y10656191D01*
X41078333Y10418096D01*
X41030714Y10322858D01*
X40983095Y10275239D01*
X40887857Y10227620D01*
X40602142Y10227620D01*
X40506904Y10275239D01*
X40459285Y10322858D01*
X41697380Y11227620D02*
X41792619Y11227620D01*
X41887857Y11180000D01*
X41935476Y11132381D01*
X41983095Y11037143D01*
X42030714Y10846667D01*
X42030714Y10608572D01*
X41983095Y10418096D01*
X41935476Y10322858D01*
X41887857Y10275239D01*
X41792619Y10227620D01*
X41697380Y10227620D01*
X41602142Y10275239D01*
X41554523Y10322858D01*
X41506904Y10418096D01*
X41459285Y10608572D01*
X41459285Y10846667D01*
X41506904Y11037143D01*
X41554523Y11132381D01*
X41602142Y11180000D01*
X41697380Y11227620D01*
X42411666Y11132381D02*
X42459285Y11180000D01*
X42554523Y11227620D01*
X42792619Y11227620D01*
X42887857Y11180000D01*
X42935476Y11132381D01*
X42983095Y11037143D01*
X42983095Y10941905D01*
X42935476Y10799048D01*
X42364047Y10227620D01*
X42983095Y10227620D01*
X3597380Y7973453D02*
X3121190Y7640120D01*
X3597380Y7402024D02*
X2597380Y7402024D01*
X2597380Y7782977D01*
X2645000Y7878215D01*
X2692619Y7925834D01*
X2787857Y7973453D01*
X2930714Y7973453D01*
X3025952Y7925834D01*
X3073571Y7878215D01*
X3121190Y7782977D01*
X3121190Y7402024D01*
X2597380Y8306786D02*
X2597380Y8925834D01*
X2978333Y8592500D01*
X2978333Y8735358D01*
X3025952Y8830596D01*
X3073571Y8878215D01*
X3168809Y8925834D01*
X3406904Y8925834D01*
X3502142Y8878215D01*
X3549761Y8830596D01*
X3597380Y8735358D01*
X3597380Y8449643D01*
X3549761Y8354405D01*
X3502142Y8306786D01*
X2597380Y9544881D02*
X2597380Y9640120D01*
X2645000Y9735358D01*
X2692619Y9782977D01*
X2787857Y9830596D01*
X2978333Y9878215D01*
X3216428Y9878215D01*
X3406904Y9830596D01*
X3502142Y9782977D01*
X3549761Y9735358D01*
X3597380Y9640120D01*
X3597380Y9544881D01*
X3549761Y9449643D01*
X3502142Y9402024D01*
X3406904Y9354405D01*
X3216428Y9306786D01*
X2978333Y9306786D01*
X2787857Y9354405D01*
X2692619Y9402024D01*
X2645000Y9449643D01*
X2597380Y9544881D01*
X3597380Y10830596D02*
X3597380Y10259167D01*
X3597380Y10544881D02*
X2597380Y10544881D01*
X2740238Y10449643D01*
X2835476Y10354405D01*
X2883095Y10259167D01*
X44086666Y4560120D02*
X44086666Y3845834D01*
X44039047Y3702977D01*
X43943809Y3607739D01*
X43800952Y3560120D01*
X43705714Y3560120D01*
X45086666Y3560120D02*
X44515238Y3560120D01*
X44800952Y3560120D02*
X44800952Y4560120D01*
X44705714Y4417262D01*
X44610476Y4322024D01*
X44515238Y4274405D01*
X44801095Y12878620D02*
X44801095Y12069096D01*
X44848714Y11973858D01*
X44896333Y11926239D01*
X44991571Y11878620D01*
X45182047Y11878620D01*
X45277285Y11926239D01*
X45324904Y11973858D01*
X45372523Y12069096D01*
X45372523Y12878620D01*
X46277285Y12545286D02*
X46277285Y11878620D01*
X46039190Y12926239D02*
X45801095Y12211953D01*
X46420142Y12211953D01*
X22738095Y10047620D02*
X22738095Y9238096D01*
X22785714Y9142858D01*
X22833333Y9095239D01*
X22928571Y9047620D01*
X23119047Y9047620D01*
X23214285Y9095239D01*
X23261904Y9142858D01*
X23309523Y9238096D01*
X23309523Y10047620D01*
X23690476Y10047620D02*
X24309523Y10047620D01*
X23976190Y9666667D01*
X24119047Y9666667D01*
X24214285Y9619048D01*
X24261904Y9571429D01*
X24309523Y9476191D01*
X24309523Y9238096D01*
X24261904Y9142858D01*
X24214285Y9095239D01*
X24119047Y9047620D01*
X23833333Y9047620D01*
X23738095Y9095239D01*
X23690476Y9142858D01*
X26473452Y1432858D02*
X26425833Y1385239D01*
X26282976Y1337620D01*
X26187738Y1337620D01*
X26044880Y1385239D01*
X25949642Y1480477D01*
X25902023Y1575715D01*
X25854404Y1766191D01*
X25854404Y1909048D01*
X25902023Y2099524D01*
X25949642Y2194762D01*
X26044880Y2290000D01*
X26187738Y2337620D01*
X26282976Y2337620D01*
X26425833Y2290000D01*
X26473452Y2242381D01*
X26806785Y2337620D02*
X27425833Y2337620D01*
X27092500Y1956667D01*
X27235357Y1956667D01*
X27330595Y1909048D01*
X27378214Y1861429D01*
X27425833Y1766191D01*
X27425833Y1528096D01*
X27378214Y1432858D01*
X27330595Y1385239D01*
X27235357Y1337620D01*
X26949642Y1337620D01*
X26854404Y1385239D01*
X26806785Y1432858D01*
X28044880Y2337620D02*
X28140119Y2337620D01*
X28235357Y2290000D01*
X28282976Y2242381D01*
X28330595Y2147143D01*
X28378214Y1956667D01*
X28378214Y1718572D01*
X28330595Y1528096D01*
X28282976Y1432858D01*
X28235357Y1385239D01*
X28140119Y1337620D01*
X28044880Y1337620D01*
X27949642Y1385239D01*
X27902023Y1432858D01*
X27854404Y1528096D01*
X27806785Y1718572D01*
X27806785Y1956667D01*
X27854404Y2147143D01*
X27902023Y2242381D01*
X27949642Y2290000D01*
X28044880Y2337620D01*
X29330595Y1337620D02*
X28759166Y1337620D01*
X29044880Y1337620D02*
X29044880Y2337620D01*
X28949642Y2194762D01*
X28854404Y2099524D01*
X28759166Y2051905D01*
%LPC*%
D12*
X27592500Y10680000D03*
D13*
X37752500Y10680000D03*
D12*
X3145000Y14172500D03*
D13*
X3145000Y4012500D03*
D14*
X41880000Y4012500D03*
X39340000Y4012500D03*
X36800000Y4012500D03*
X34260000Y4012500D03*
D15*
X31720000Y4012500D03*
D16*
X6510500Y15125000D03*
X9050500Y15125000D03*
X11590500Y15125000D03*
X14130500Y15125000D03*
X16670500Y15125000D03*
X19210500Y15125000D03*
X21750500Y15125000D03*
X24290500Y15125000D03*
X26830500Y15125000D03*
X29370500Y15125000D03*
X31910500Y15125000D03*
X34450500Y15125000D03*
X36990500Y15125000D03*
X39530500Y15125000D03*
X42070500Y15125000D03*
D17*
X44610500Y15125000D03*
D12*
X24290500Y4012500D03*
X6510500Y11632500D03*
X21750500Y4012500D03*
X9050500Y11632500D03*
X19210500Y4012500D03*
X11590500Y11632500D03*
X16670500Y4012500D03*
X14130500Y11632500D03*
X14130500Y4012500D03*
X16670500Y11632500D03*
X11590500Y4012500D03*
X19210500Y11632500D03*
X9050500Y4012500D03*
X21750500Y11632500D03*
X6510500Y4012500D03*
D18*
X24290500Y11632500D03*
D13*
X27592500Y6512500D03*
X27592500Y4012500D03*
M02*
