M48
; DRILL file {KiCad (5.1.4)-1} date 16/09/2019 22:10:49
; FORMAT={3:3/ absolute / metric / suppress leading zeros}
; #@! TF.CreationDate,2019-09-16T22:10:49+02:00
; #@! TF.GenerationSoftware,Kicad,Pcbnew,(5.1.4)-1
; #@! TF.FileFunction,Plated,1,2,PTH
FMAT,2
METRIC,TZ
T1C0.800
T2C1.000
%
G90
G05
T1
X20511Y-19368
X20511Y-26988
X23051Y-19368
X23051Y-26988
X25590Y-19368
X25590Y-26988
X28130Y-19368
X28130Y-26988
X30670Y-19368
X30670Y-26988
X33211Y-19368
X33211Y-26988
X35750Y-19368
X35750Y-26988
X38291Y-19368
X38291Y-26988
X41593Y-24487
X41593Y-26988
X41593Y-20320
X51753Y-20320
X17145Y-16828
X17145Y-26988
T2
X20511Y-15875
X23051Y-15875
X25590Y-15875
X28130Y-15875
X30670Y-15875
X33211Y-15875
X35750Y-15875
X38291Y-15875
X40831Y-15875
X43371Y-15875
X45911Y-15875
X48451Y-15875
X50990Y-15875
X53530Y-15875
X56070Y-15875
X58610Y-15875
X45720Y-26988
X48260Y-26988
X50800Y-26988
X53340Y-26988
X55880Y-26988
T0
M30
