G04 #@! TF.GenerationSoftware,KiCad,Pcbnew,(5.1.4)-1*
G04 #@! TF.CreationDate,2019-09-09T23:57:34+02:00*
G04 #@! TF.ProjectId,Display,44697370-6c61-4792-9e6b-696361645f70,1.0*
G04 #@! TF.SameCoordinates,PXd59f80PY1d905c0*
G04 #@! TF.FileFunction,Copper,L1,Top*
G04 #@! TF.FilePolarity,Positive*
%FSLAX46Y46*%
G04 Gerber Fmt 4.6, Leading zero omitted, Abs format (unit mm)*
G04 Created by KiCad (PCBNEW (5.1.4)-1) date 2019-09-09 23:57:34*
%MOMM*%
%LPD*%
G04 APERTURE LIST*
%ADD10C,0.300000*%
%ADD11O,2.032000X2.032000*%
%ADD12R,2.032000X2.032000*%
%ADD13O,1.700000X1.700000*%
%ADD14R,1.700000X1.700000*%
%ADD15O,1.600000X1.600000*%
%ADD16R,1.600000X1.600000*%
%ADD17O,2.400000X2.400000*%
%ADD18C,2.400000*%
%ADD19C,1.600000*%
%ADD20C,0.600000*%
%ADD21C,0.254000*%
G04 APERTURE END LIST*
D10*
X43709571Y1976429D02*
X44566714Y1976429D01*
X44138142Y476429D02*
X44138142Y1976429D01*
X45352428Y1976429D02*
X45638142Y1976429D01*
X45781000Y1905000D01*
X45923857Y1762143D01*
X45995285Y1476429D01*
X45995285Y976429D01*
X45923857Y690715D01*
X45781000Y547858D01*
X45638142Y476429D01*
X45352428Y476429D01*
X45209571Y547858D01*
X45066714Y690715D01*
X44995285Y976429D01*
X44995285Y1476429D01*
X45066714Y1762143D01*
X45209571Y1905000D01*
X45352428Y1976429D01*
X46638142Y476429D02*
X46638142Y1976429D01*
X47209571Y1976429D01*
X47352428Y1905000D01*
X47423857Y1833572D01*
X47495285Y1690715D01*
X47495285Y1476429D01*
X47423857Y1333572D01*
X47352428Y1262143D01*
X47209571Y1190715D01*
X46638142Y1190715D01*
D11*
X41880000Y4012500D03*
X39340000Y4012500D03*
X36800000Y4012500D03*
X34260000Y4012500D03*
D12*
X31720000Y4012500D03*
D13*
X6510500Y15125000D03*
X9050500Y15125000D03*
X11590500Y15125000D03*
X14130500Y15125000D03*
X16670500Y15125000D03*
X19210500Y15125000D03*
X21750500Y15125000D03*
X24290500Y15125000D03*
X26830500Y15125000D03*
X29370500Y15125000D03*
X31910500Y15125000D03*
X34450500Y15125000D03*
X36990500Y15125000D03*
X39530500Y15125000D03*
X42070500Y15125000D03*
D14*
X44610500Y15125000D03*
D15*
X24290500Y4012500D03*
X6510500Y11632500D03*
X21750500Y4012500D03*
X9050500Y11632500D03*
X19210500Y4012500D03*
X11590500Y11632500D03*
X16670500Y4012500D03*
X14130500Y11632500D03*
X14130500Y4012500D03*
X16670500Y11632500D03*
X11590500Y4012500D03*
X19210500Y11632500D03*
X9050500Y4012500D03*
X21750500Y11632500D03*
X6510500Y4012500D03*
D16*
X24290500Y11632500D03*
D17*
X27910000Y10426000D03*
D18*
X40610000Y10426000D03*
D17*
X2510000Y15125000D03*
D18*
X2510000Y2425000D03*
D19*
X27592500Y6512500D03*
X27592500Y4012500D03*
D20*
X31720000Y4012500D02*
X27592500Y4012500D01*
X24290500Y4012500D02*
X27592500Y4012500D01*
X3709999Y1225001D02*
X2510000Y2425000D01*
X3938531Y996469D02*
X3709999Y1225001D01*
X10935161Y996469D02*
X11368031Y996469D01*
X9050500Y2881130D02*
X10935161Y996469D01*
X9050500Y4012500D02*
X9050500Y2881130D01*
X11368031Y996469D02*
X3938531Y996469D01*
X41594469Y996469D02*
X11368031Y996469D01*
X44166000Y3568000D02*
X41594469Y996469D01*
X42070500Y15125000D02*
X44166000Y13029500D01*
X33660000Y7568500D02*
X44166000Y7568500D01*
X31720000Y5628500D02*
X33660000Y7568500D01*
X31720000Y4012500D02*
X31720000Y5628500D01*
X44166000Y13029500D02*
X44166000Y7568500D01*
X44166000Y7568500D02*
X44166000Y3568000D01*
D10*
X8200501Y14275001D02*
X9050500Y15125000D01*
X7653500Y13728000D02*
X8200501Y14275001D01*
X3907000Y13728000D02*
X7653500Y13728000D01*
X2510000Y15125000D02*
X3907000Y13728000D01*
X39530500Y11505500D02*
X40610000Y10426000D01*
X39530500Y15125000D02*
X39530500Y11505500D01*
X40864001Y2996501D02*
X41880000Y4012500D01*
X39513979Y1646479D02*
X40864001Y2996501D01*
X12254519Y1646479D02*
X39513979Y1646479D01*
X10440499Y3460499D02*
X12254519Y1646479D01*
X10440499Y4564501D02*
X10440499Y3460499D01*
X11038499Y5162501D02*
X10440499Y4564501D01*
X12980499Y5162501D02*
X11038499Y5162501D01*
X14130500Y4012500D02*
X12980499Y5162501D01*
X12390499Y3212501D02*
X11590500Y4012500D01*
X13456511Y2146489D02*
X12390499Y3212501D01*
X37473989Y2146489D02*
X13456511Y2146489D01*
X39340000Y4012500D02*
X37473989Y2146489D01*
X20010499Y3212501D02*
X19210500Y4012500D01*
X20576501Y2646499D02*
X20010499Y3212501D01*
X35433999Y2646499D02*
X20576501Y2646499D01*
X36800000Y4012500D02*
X35433999Y2646499D01*
X22550499Y4812499D02*
X21750500Y4012500D01*
X25941500Y8203500D02*
X22550499Y4812499D01*
X36990500Y15125000D02*
X30069000Y8203500D01*
X30069000Y8203500D02*
X25941500Y8203500D01*
X14130500Y12585000D02*
X14130500Y11632500D01*
X11590500Y15125000D02*
X14130500Y12585000D01*
X16670500Y12585000D02*
X16670500Y11632500D01*
X14130500Y15125000D02*
X16670500Y12585000D01*
X19210500Y12585000D02*
X19210500Y11632500D01*
X16670500Y15125000D02*
X19210500Y12585000D01*
X21750500Y12585000D02*
X21750500Y11632500D01*
X19210500Y15125000D02*
X21750500Y12585000D01*
X31060501Y14275001D02*
X31910500Y15125000D01*
X29751500Y12966000D02*
X31060501Y14275001D01*
X26724000Y12966000D02*
X29751500Y12966000D01*
X24290500Y11632500D02*
X25390500Y11632500D01*
X25390500Y11632500D02*
X26724000Y12966000D01*
D21*
G36*
X976871Y16149404D02*
G01*
X806479Y15830622D01*
X701552Y15484723D01*
X666122Y15125000D01*
X701552Y14765277D01*
X806479Y14419378D01*
X976871Y14100596D01*
X1206181Y13821181D01*
X1485596Y13591871D01*
X1804378Y13421479D01*
X2150277Y13316552D01*
X2419861Y13290000D01*
X2600139Y13290000D01*
X2869723Y13316552D01*
X3129491Y13395351D01*
X3324658Y13200184D01*
X3349236Y13170236D01*
X3379184Y13145658D01*
X3379187Y13145655D01*
X3382710Y13142764D01*
X3468767Y13072138D01*
X3605140Y12999246D01*
X3714738Y12966000D01*
X3753112Y12954359D01*
X3767490Y12952943D01*
X3868439Y12943000D01*
X3868446Y12943000D01*
X3906999Y12939203D01*
X3945552Y12943000D01*
X5918128Y12943000D01*
X5709399Y12831432D01*
X5490892Y12652108D01*
X5311568Y12433601D01*
X5178318Y12184308D01*
X5096264Y11913809D01*
X5068557Y11632500D01*
X5096264Y11351191D01*
X5178318Y11080692D01*
X5311568Y10831399D01*
X5490892Y10612892D01*
X5709399Y10433568D01*
X5958692Y10300318D01*
X6229191Y10218264D01*
X6440008Y10197500D01*
X6580992Y10197500D01*
X6791809Y10218264D01*
X7062308Y10300318D01*
X7311601Y10433568D01*
X7530108Y10612892D01*
X7709432Y10831399D01*
X7780500Y10964358D01*
X7851568Y10831399D01*
X8030892Y10612892D01*
X8249399Y10433568D01*
X8498692Y10300318D01*
X8769191Y10218264D01*
X8980008Y10197500D01*
X9120992Y10197500D01*
X9331809Y10218264D01*
X9602308Y10300318D01*
X9851601Y10433568D01*
X10070108Y10612892D01*
X10249432Y10831399D01*
X10320500Y10964358D01*
X10391568Y10831399D01*
X10570892Y10612892D01*
X10789399Y10433568D01*
X11038692Y10300318D01*
X11309191Y10218264D01*
X11520008Y10197500D01*
X11660992Y10197500D01*
X11871809Y10218264D01*
X12142308Y10300318D01*
X12391601Y10433568D01*
X12610108Y10612892D01*
X12789432Y10831399D01*
X12860500Y10964358D01*
X12931568Y10831399D01*
X13110892Y10612892D01*
X13329399Y10433568D01*
X13578692Y10300318D01*
X13849191Y10218264D01*
X14060008Y10197500D01*
X14200992Y10197500D01*
X14411809Y10218264D01*
X14682308Y10300318D01*
X14931601Y10433568D01*
X15150108Y10612892D01*
X15329432Y10831399D01*
X15400500Y10964358D01*
X15471568Y10831399D01*
X15650892Y10612892D01*
X15869399Y10433568D01*
X16118692Y10300318D01*
X16389191Y10218264D01*
X16600008Y10197500D01*
X16740992Y10197500D01*
X16951809Y10218264D01*
X17222308Y10300318D01*
X17471601Y10433568D01*
X17690108Y10612892D01*
X17869432Y10831399D01*
X17940500Y10964358D01*
X18011568Y10831399D01*
X18190892Y10612892D01*
X18409399Y10433568D01*
X18658692Y10300318D01*
X18929191Y10218264D01*
X19140008Y10197500D01*
X19280992Y10197500D01*
X19491809Y10218264D01*
X19762308Y10300318D01*
X20011601Y10433568D01*
X20230108Y10612892D01*
X20409432Y10831399D01*
X20480500Y10964358D01*
X20551568Y10831399D01*
X20730892Y10612892D01*
X20949399Y10433568D01*
X21198692Y10300318D01*
X21469191Y10218264D01*
X21680008Y10197500D01*
X21820992Y10197500D01*
X22031809Y10218264D01*
X22302308Y10300318D01*
X22551601Y10433568D01*
X22770108Y10612892D01*
X22862919Y10725982D01*
X22864688Y10708018D01*
X22900998Y10588320D01*
X22959963Y10478006D01*
X23039315Y10381315D01*
X23136006Y10301963D01*
X23246320Y10242998D01*
X23366018Y10206688D01*
X23490500Y10194428D01*
X25090500Y10194428D01*
X25214982Y10206688D01*
X25334680Y10242998D01*
X25444994Y10301963D01*
X25541685Y10381315D01*
X25621037Y10478006D01*
X25680002Y10588320D01*
X25716312Y10708018D01*
X25728572Y10832500D01*
X25728572Y10923101D01*
X25828733Y10976638D01*
X25948264Y11074736D01*
X25972847Y11104690D01*
X27049157Y12181000D01*
X27374082Y12181000D01*
X27204378Y12129521D01*
X26885596Y11959129D01*
X26606181Y11729819D01*
X26376871Y11450404D01*
X26206479Y11131622D01*
X26101552Y10785723D01*
X26066122Y10426000D01*
X26101552Y10066277D01*
X26206479Y9720378D01*
X26376871Y9401596D01*
X26606181Y9122181D01*
X26769072Y8988500D01*
X25980056Y8988500D01*
X25941500Y8992297D01*
X25902944Y8988500D01*
X25902939Y8988500D01*
X25862526Y8984520D01*
X25787613Y8977142D01*
X25639640Y8932254D01*
X25503267Y8859362D01*
X25383736Y8761264D01*
X25359155Y8731312D01*
X22049279Y5421436D01*
X22031809Y5426736D01*
X21820992Y5447500D01*
X21680008Y5447500D01*
X21469191Y5426736D01*
X21198692Y5344682D01*
X20949399Y5211432D01*
X20730892Y5032108D01*
X20551568Y4813601D01*
X20480500Y4680642D01*
X20409432Y4813601D01*
X20230108Y5032108D01*
X20011601Y5211432D01*
X19762308Y5344682D01*
X19491809Y5426736D01*
X19280992Y5447500D01*
X19140008Y5447500D01*
X18929191Y5426736D01*
X18658692Y5344682D01*
X18409399Y5211432D01*
X18190892Y5032108D01*
X18011568Y4813601D01*
X17940500Y4680642D01*
X17869432Y4813601D01*
X17690108Y5032108D01*
X17471601Y5211432D01*
X17222308Y5344682D01*
X16951809Y5426736D01*
X16740992Y5447500D01*
X16600008Y5447500D01*
X16389191Y5426736D01*
X16118692Y5344682D01*
X15869399Y5211432D01*
X15650892Y5032108D01*
X15471568Y4813601D01*
X15400500Y4680642D01*
X15329432Y4813601D01*
X15150108Y5032108D01*
X14931601Y5211432D01*
X14682308Y5344682D01*
X14411809Y5426736D01*
X14200992Y5447500D01*
X14060008Y5447500D01*
X13849191Y5426736D01*
X13831721Y5421437D01*
X13562846Y5690311D01*
X13538263Y5720265D01*
X13418732Y5818363D01*
X13282359Y5891255D01*
X13134386Y5936142D01*
X13019060Y5947501D01*
X13019052Y5947501D01*
X12980499Y5951298D01*
X12941946Y5947501D01*
X11077055Y5947501D01*
X11038499Y5951298D01*
X10999943Y5947501D01*
X10999938Y5947501D01*
X10959525Y5943521D01*
X10884612Y5936143D01*
X10736639Y5891255D01*
X10600266Y5818363D01*
X10480735Y5720265D01*
X10456152Y5690311D01*
X9915103Y5149262D01*
X9787920Y5243537D01*
X9533587Y5363746D01*
X9399539Y5404404D01*
X9177500Y5282415D01*
X9177500Y4139500D01*
X9197500Y4139500D01*
X9197500Y3885500D01*
X9177500Y3885500D01*
X9177500Y2742585D01*
X9399539Y2620596D01*
X9533587Y2661254D01*
X9787920Y2781463D01*
X9915103Y2875738D01*
X11672172Y1118669D01*
X11696755Y1088715D01*
X11816286Y990617D01*
X11952659Y917725D01*
X12100632Y872837D01*
X12175545Y865459D01*
X12215958Y861479D01*
X12215963Y861479D01*
X12254519Y857682D01*
X12293075Y861479D01*
X39475426Y861479D01*
X39513979Y857682D01*
X39552532Y861479D01*
X39552540Y861479D01*
X39667866Y872838D01*
X39815839Y917725D01*
X39952212Y990617D01*
X40071743Y1088715D01*
X40096326Y1118669D01*
X41408037Y2430379D01*
X41556347Y2385389D01*
X41798896Y2361500D01*
X41961104Y2361500D01*
X42203653Y2385389D01*
X42514867Y2479795D01*
X42801684Y2633102D01*
X42826714Y2653643D01*
X42826714Y660000D01*
X3018380Y660000D01*
X3265833Y743154D01*
X3488486Y862164D01*
X3608374Y1147020D01*
X2510000Y2245395D01*
X1411626Y1147020D01*
X1531514Y862164D01*
X1855210Y701301D01*
X2007480Y660000D01*
X660000Y660000D01*
X660000Y2370316D01*
X666933Y2370316D01*
X713015Y2011802D01*
X828154Y1669167D01*
X947164Y1446514D01*
X1232020Y1326626D01*
X2330395Y2425000D01*
X2689605Y2425000D01*
X3787980Y1326626D01*
X4072836Y1446514D01*
X4233699Y1770210D01*
X4328322Y2119069D01*
X4353067Y2479684D01*
X4306985Y2838198D01*
X4191846Y3180833D01*
X4072836Y3403486D01*
X3787980Y3523374D01*
X2689605Y2425000D01*
X2330395Y2425000D01*
X1232020Y3523374D01*
X947164Y3403486D01*
X786301Y3079790D01*
X691678Y2730931D01*
X666933Y2370316D01*
X660000Y2370316D01*
X660000Y3702980D01*
X1411626Y3702980D01*
X2510000Y2604605D01*
X3608374Y3702980D01*
X3488486Y3987836D01*
X3438856Y4012500D01*
X5068557Y4012500D01*
X5096264Y3731191D01*
X5178318Y3460692D01*
X5311568Y3211399D01*
X5490892Y2992892D01*
X5709399Y2813568D01*
X5958692Y2680318D01*
X6229191Y2598264D01*
X6440008Y2577500D01*
X6580992Y2577500D01*
X6791809Y2598264D01*
X7062308Y2680318D01*
X7311601Y2813568D01*
X7530108Y2992892D01*
X7709432Y3211399D01*
X7783079Y3349182D01*
X7898115Y3157369D01*
X8087086Y2948981D01*
X8313080Y2781463D01*
X8567413Y2661254D01*
X8701461Y2620596D01*
X8923500Y2742585D01*
X8923500Y3885500D01*
X8903500Y3885500D01*
X8903500Y4139500D01*
X8923500Y4139500D01*
X8923500Y5282415D01*
X8701461Y5404404D01*
X8567413Y5363746D01*
X8313080Y5243537D01*
X8087086Y5076019D01*
X7898115Y4867631D01*
X7783079Y4675818D01*
X7709432Y4813601D01*
X7530108Y5032108D01*
X7311601Y5211432D01*
X7062308Y5344682D01*
X6791809Y5426736D01*
X6580992Y5447500D01*
X6440008Y5447500D01*
X6229191Y5426736D01*
X5958692Y5344682D01*
X5709399Y5211432D01*
X5490892Y5032108D01*
X5311568Y4813601D01*
X5178318Y4564308D01*
X5096264Y4293809D01*
X5068557Y4012500D01*
X3438856Y4012500D01*
X3164790Y4148699D01*
X2815931Y4243322D01*
X2455316Y4268067D01*
X2096802Y4221985D01*
X1754167Y4106846D01*
X1531514Y3987836D01*
X1411626Y3702980D01*
X660000Y3702980D01*
X660000Y16340000D01*
X1133289Y16340000D01*
X976871Y16149404D01*
X976871Y16149404D01*
G37*
X976871Y16149404D02*
X806479Y15830622D01*
X701552Y15484723D01*
X666122Y15125000D01*
X701552Y14765277D01*
X806479Y14419378D01*
X976871Y14100596D01*
X1206181Y13821181D01*
X1485596Y13591871D01*
X1804378Y13421479D01*
X2150277Y13316552D01*
X2419861Y13290000D01*
X2600139Y13290000D01*
X2869723Y13316552D01*
X3129491Y13395351D01*
X3324658Y13200184D01*
X3349236Y13170236D01*
X3379184Y13145658D01*
X3379187Y13145655D01*
X3382710Y13142764D01*
X3468767Y13072138D01*
X3605140Y12999246D01*
X3714738Y12966000D01*
X3753112Y12954359D01*
X3767490Y12952943D01*
X3868439Y12943000D01*
X3868446Y12943000D01*
X3906999Y12939203D01*
X3945552Y12943000D01*
X5918128Y12943000D01*
X5709399Y12831432D01*
X5490892Y12652108D01*
X5311568Y12433601D01*
X5178318Y12184308D01*
X5096264Y11913809D01*
X5068557Y11632500D01*
X5096264Y11351191D01*
X5178318Y11080692D01*
X5311568Y10831399D01*
X5490892Y10612892D01*
X5709399Y10433568D01*
X5958692Y10300318D01*
X6229191Y10218264D01*
X6440008Y10197500D01*
X6580992Y10197500D01*
X6791809Y10218264D01*
X7062308Y10300318D01*
X7311601Y10433568D01*
X7530108Y10612892D01*
X7709432Y10831399D01*
X7780500Y10964358D01*
X7851568Y10831399D01*
X8030892Y10612892D01*
X8249399Y10433568D01*
X8498692Y10300318D01*
X8769191Y10218264D01*
X8980008Y10197500D01*
X9120992Y10197500D01*
X9331809Y10218264D01*
X9602308Y10300318D01*
X9851601Y10433568D01*
X10070108Y10612892D01*
X10249432Y10831399D01*
X10320500Y10964358D01*
X10391568Y10831399D01*
X10570892Y10612892D01*
X10789399Y10433568D01*
X11038692Y10300318D01*
X11309191Y10218264D01*
X11520008Y10197500D01*
X11660992Y10197500D01*
X11871809Y10218264D01*
X12142308Y10300318D01*
X12391601Y10433568D01*
X12610108Y10612892D01*
X12789432Y10831399D01*
X12860500Y10964358D01*
X12931568Y10831399D01*
X13110892Y10612892D01*
X13329399Y10433568D01*
X13578692Y10300318D01*
X13849191Y10218264D01*
X14060008Y10197500D01*
X14200992Y10197500D01*
X14411809Y10218264D01*
X14682308Y10300318D01*
X14931601Y10433568D01*
X15150108Y10612892D01*
X15329432Y10831399D01*
X15400500Y10964358D01*
X15471568Y10831399D01*
X15650892Y10612892D01*
X15869399Y10433568D01*
X16118692Y10300318D01*
X16389191Y10218264D01*
X16600008Y10197500D01*
X16740992Y10197500D01*
X16951809Y10218264D01*
X17222308Y10300318D01*
X17471601Y10433568D01*
X17690108Y10612892D01*
X17869432Y10831399D01*
X17940500Y10964358D01*
X18011568Y10831399D01*
X18190892Y10612892D01*
X18409399Y10433568D01*
X18658692Y10300318D01*
X18929191Y10218264D01*
X19140008Y10197500D01*
X19280992Y10197500D01*
X19491809Y10218264D01*
X19762308Y10300318D01*
X20011601Y10433568D01*
X20230108Y10612892D01*
X20409432Y10831399D01*
X20480500Y10964358D01*
X20551568Y10831399D01*
X20730892Y10612892D01*
X20949399Y10433568D01*
X21198692Y10300318D01*
X21469191Y10218264D01*
X21680008Y10197500D01*
X21820992Y10197500D01*
X22031809Y10218264D01*
X22302308Y10300318D01*
X22551601Y10433568D01*
X22770108Y10612892D01*
X22862919Y10725982D01*
X22864688Y10708018D01*
X22900998Y10588320D01*
X22959963Y10478006D01*
X23039315Y10381315D01*
X23136006Y10301963D01*
X23246320Y10242998D01*
X23366018Y10206688D01*
X23490500Y10194428D01*
X25090500Y10194428D01*
X25214982Y10206688D01*
X25334680Y10242998D01*
X25444994Y10301963D01*
X25541685Y10381315D01*
X25621037Y10478006D01*
X25680002Y10588320D01*
X25716312Y10708018D01*
X25728572Y10832500D01*
X25728572Y10923101D01*
X25828733Y10976638D01*
X25948264Y11074736D01*
X25972847Y11104690D01*
X27049157Y12181000D01*
X27374082Y12181000D01*
X27204378Y12129521D01*
X26885596Y11959129D01*
X26606181Y11729819D01*
X26376871Y11450404D01*
X26206479Y11131622D01*
X26101552Y10785723D01*
X26066122Y10426000D01*
X26101552Y10066277D01*
X26206479Y9720378D01*
X26376871Y9401596D01*
X26606181Y9122181D01*
X26769072Y8988500D01*
X25980056Y8988500D01*
X25941500Y8992297D01*
X25902944Y8988500D01*
X25902939Y8988500D01*
X25862526Y8984520D01*
X25787613Y8977142D01*
X25639640Y8932254D01*
X25503267Y8859362D01*
X25383736Y8761264D01*
X25359155Y8731312D01*
X22049279Y5421436D01*
X22031809Y5426736D01*
X21820992Y5447500D01*
X21680008Y5447500D01*
X21469191Y5426736D01*
X21198692Y5344682D01*
X20949399Y5211432D01*
X20730892Y5032108D01*
X20551568Y4813601D01*
X20480500Y4680642D01*
X20409432Y4813601D01*
X20230108Y5032108D01*
X20011601Y5211432D01*
X19762308Y5344682D01*
X19491809Y5426736D01*
X19280992Y5447500D01*
X19140008Y5447500D01*
X18929191Y5426736D01*
X18658692Y5344682D01*
X18409399Y5211432D01*
X18190892Y5032108D01*
X18011568Y4813601D01*
X17940500Y4680642D01*
X17869432Y4813601D01*
X17690108Y5032108D01*
X17471601Y5211432D01*
X17222308Y5344682D01*
X16951809Y5426736D01*
X16740992Y5447500D01*
X16600008Y5447500D01*
X16389191Y5426736D01*
X16118692Y5344682D01*
X15869399Y5211432D01*
X15650892Y5032108D01*
X15471568Y4813601D01*
X15400500Y4680642D01*
X15329432Y4813601D01*
X15150108Y5032108D01*
X14931601Y5211432D01*
X14682308Y5344682D01*
X14411809Y5426736D01*
X14200992Y5447500D01*
X14060008Y5447500D01*
X13849191Y5426736D01*
X13831721Y5421437D01*
X13562846Y5690311D01*
X13538263Y5720265D01*
X13418732Y5818363D01*
X13282359Y5891255D01*
X13134386Y5936142D01*
X13019060Y5947501D01*
X13019052Y5947501D01*
X12980499Y5951298D01*
X12941946Y5947501D01*
X11077055Y5947501D01*
X11038499Y5951298D01*
X10999943Y5947501D01*
X10999938Y5947501D01*
X10959525Y5943521D01*
X10884612Y5936143D01*
X10736639Y5891255D01*
X10600266Y5818363D01*
X10480735Y5720265D01*
X10456152Y5690311D01*
X9915103Y5149262D01*
X9787920Y5243537D01*
X9533587Y5363746D01*
X9399539Y5404404D01*
X9177500Y5282415D01*
X9177500Y4139500D01*
X9197500Y4139500D01*
X9197500Y3885500D01*
X9177500Y3885500D01*
X9177500Y2742585D01*
X9399539Y2620596D01*
X9533587Y2661254D01*
X9787920Y2781463D01*
X9915103Y2875738D01*
X11672172Y1118669D01*
X11696755Y1088715D01*
X11816286Y990617D01*
X11952659Y917725D01*
X12100632Y872837D01*
X12175545Y865459D01*
X12215958Y861479D01*
X12215963Y861479D01*
X12254519Y857682D01*
X12293075Y861479D01*
X39475426Y861479D01*
X39513979Y857682D01*
X39552532Y861479D01*
X39552540Y861479D01*
X39667866Y872838D01*
X39815839Y917725D01*
X39952212Y990617D01*
X40071743Y1088715D01*
X40096326Y1118669D01*
X41408037Y2430379D01*
X41556347Y2385389D01*
X41798896Y2361500D01*
X41961104Y2361500D01*
X42203653Y2385389D01*
X42514867Y2479795D01*
X42801684Y2633102D01*
X42826714Y2653643D01*
X42826714Y660000D01*
X3018380Y660000D01*
X3265833Y743154D01*
X3488486Y862164D01*
X3608374Y1147020D01*
X2510000Y2245395D01*
X1411626Y1147020D01*
X1531514Y862164D01*
X1855210Y701301D01*
X2007480Y660000D01*
X660000Y660000D01*
X660000Y2370316D01*
X666933Y2370316D01*
X713015Y2011802D01*
X828154Y1669167D01*
X947164Y1446514D01*
X1232020Y1326626D01*
X2330395Y2425000D01*
X2689605Y2425000D01*
X3787980Y1326626D01*
X4072836Y1446514D01*
X4233699Y1770210D01*
X4328322Y2119069D01*
X4353067Y2479684D01*
X4306985Y2838198D01*
X4191846Y3180833D01*
X4072836Y3403486D01*
X3787980Y3523374D01*
X2689605Y2425000D01*
X2330395Y2425000D01*
X1232020Y3523374D01*
X947164Y3403486D01*
X786301Y3079790D01*
X691678Y2730931D01*
X666933Y2370316D01*
X660000Y2370316D01*
X660000Y3702980D01*
X1411626Y3702980D01*
X2510000Y2604605D01*
X3608374Y3702980D01*
X3488486Y3987836D01*
X3438856Y4012500D01*
X5068557Y4012500D01*
X5096264Y3731191D01*
X5178318Y3460692D01*
X5311568Y3211399D01*
X5490892Y2992892D01*
X5709399Y2813568D01*
X5958692Y2680318D01*
X6229191Y2598264D01*
X6440008Y2577500D01*
X6580992Y2577500D01*
X6791809Y2598264D01*
X7062308Y2680318D01*
X7311601Y2813568D01*
X7530108Y2992892D01*
X7709432Y3211399D01*
X7783079Y3349182D01*
X7898115Y3157369D01*
X8087086Y2948981D01*
X8313080Y2781463D01*
X8567413Y2661254D01*
X8701461Y2620596D01*
X8923500Y2742585D01*
X8923500Y3885500D01*
X8903500Y3885500D01*
X8903500Y4139500D01*
X8923500Y4139500D01*
X8923500Y5282415D01*
X8701461Y5404404D01*
X8567413Y5363746D01*
X8313080Y5243537D01*
X8087086Y5076019D01*
X7898115Y4867631D01*
X7783079Y4675818D01*
X7709432Y4813601D01*
X7530108Y5032108D01*
X7311601Y5211432D01*
X7062308Y5344682D01*
X6791809Y5426736D01*
X6580992Y5447500D01*
X6440008Y5447500D01*
X6229191Y5426736D01*
X5958692Y5344682D01*
X5709399Y5211432D01*
X5490892Y5032108D01*
X5311568Y4813601D01*
X5178318Y4564308D01*
X5096264Y4293809D01*
X5068557Y4012500D01*
X3438856Y4012500D01*
X3164790Y4148699D01*
X2815931Y4243322D01*
X2455316Y4268067D01*
X2096802Y4221985D01*
X1754167Y4106846D01*
X1531514Y3987836D01*
X1411626Y3702980D01*
X660000Y3702980D01*
X660000Y16340000D01*
X1133289Y16340000D01*
X976871Y16149404D01*
G36*
X47340001Y2945000D02*
G01*
X43139730Y2945000D01*
X43259398Y3090816D01*
X43412705Y3377633D01*
X43507111Y3688847D01*
X43538988Y4012500D01*
X43507111Y4336153D01*
X43412705Y4647367D01*
X43259398Y4934184D01*
X43053082Y5185582D01*
X42801684Y5391898D01*
X42514867Y5545205D01*
X42203653Y5639611D01*
X41961104Y5663500D01*
X41798896Y5663500D01*
X41556347Y5639611D01*
X41245133Y5545205D01*
X40958316Y5391898D01*
X40706918Y5185582D01*
X40610000Y5067486D01*
X40513082Y5185582D01*
X40261684Y5391898D01*
X39974867Y5545205D01*
X39663653Y5639611D01*
X39421104Y5663500D01*
X39258896Y5663500D01*
X39016347Y5639611D01*
X38705133Y5545205D01*
X38418316Y5391898D01*
X38166918Y5185582D01*
X38070000Y5067486D01*
X37973082Y5185582D01*
X37721684Y5391898D01*
X37434867Y5545205D01*
X37123653Y5639611D01*
X36881104Y5663500D01*
X36718896Y5663500D01*
X36476347Y5639611D01*
X36165133Y5545205D01*
X35878316Y5391898D01*
X35626918Y5185582D01*
X35530000Y5067486D01*
X35433082Y5185582D01*
X35181684Y5391898D01*
X34894867Y5545205D01*
X34583653Y5639611D01*
X34341104Y5663500D01*
X34178896Y5663500D01*
X33936347Y5639611D01*
X33625133Y5545205D01*
X33338316Y5391898D01*
X33285115Y5348237D01*
X33266537Y5382994D01*
X33187185Y5479685D01*
X33090494Y5559037D01*
X32980180Y5618002D01*
X32860482Y5654312D01*
X32736000Y5666572D01*
X32005750Y5663500D01*
X31847000Y5504750D01*
X31847000Y4139500D01*
X31867000Y4139500D01*
X31867000Y3885500D01*
X31847000Y3885500D01*
X31847000Y3865500D01*
X31593000Y3865500D01*
X31593000Y3885500D01*
X30227750Y3885500D01*
X30069000Y3726750D01*
X30067758Y3431499D01*
X28905121Y3431499D01*
X28950071Y3526496D01*
X29018800Y3800684D01*
X29032717Y4083012D01*
X28991287Y4362630D01*
X28896103Y4628792D01*
X28829171Y4754014D01*
X28585202Y4825597D01*
X27772105Y4012500D01*
X27786248Y3998357D01*
X27606643Y3818752D01*
X27592500Y3832895D01*
X27578358Y3818752D01*
X27398753Y3998357D01*
X27412895Y4012500D01*
X26599798Y4825597D01*
X26355829Y4754014D01*
X26234929Y4498504D01*
X26166200Y4224316D01*
X26152283Y3941988D01*
X26193713Y3662370D01*
X26276276Y3431499D01*
X25599344Y3431499D01*
X25682409Y3663460D01*
X25561124Y3885500D01*
X24417500Y3885500D01*
X24417500Y3865500D01*
X24163500Y3865500D01*
X24163500Y3885500D01*
X24143500Y3885500D01*
X24143500Y4139500D01*
X24163500Y4139500D01*
X24163500Y4159500D01*
X24417500Y4159500D01*
X24417500Y4139500D01*
X25561124Y4139500D01*
X25682409Y4361540D01*
X25587570Y4626381D01*
X25442885Y4867631D01*
X25253914Y5076019D01*
X25027920Y5243537D01*
X24773587Y5363746D01*
X24639539Y5404404D01*
X24417502Y5282416D01*
X24417502Y5447500D01*
X24295657Y5447500D01*
X26266657Y7418500D01*
X26472010Y7418500D01*
X26320820Y7192227D01*
X26212647Y6931074D01*
X26157500Y6653835D01*
X26157500Y6371165D01*
X26212647Y6093926D01*
X26320820Y5832773D01*
X26477863Y5597741D01*
X26677741Y5397863D01*
X26878369Y5263808D01*
X26850986Y5249171D01*
X26779403Y5005202D01*
X27592500Y4192105D01*
X28405597Y5005202D01*
X28398762Y5028500D01*
X30065928Y5028500D01*
X30069000Y4298250D01*
X30227750Y4139500D01*
X31593000Y4139500D01*
X31593000Y5504750D01*
X31434250Y5663500D01*
X30704000Y5666572D01*
X30579518Y5654312D01*
X30459820Y5618002D01*
X30349506Y5559037D01*
X30252815Y5479685D01*
X30173463Y5382994D01*
X30114498Y5272680D01*
X30078188Y5152982D01*
X30065928Y5028500D01*
X28398762Y5028500D01*
X28334014Y5249171D01*
X28305159Y5262824D01*
X28507259Y5397863D01*
X28707137Y5597741D01*
X28864180Y5832773D01*
X28972353Y6093926D01*
X29027500Y6371165D01*
X29027500Y6653835D01*
X28972353Y6931074D01*
X28864180Y7192227D01*
X28712990Y7418500D01*
X30030447Y7418500D01*
X30069000Y7414703D01*
X30107553Y7418500D01*
X30107561Y7418500D01*
X30222887Y7429859D01*
X30370860Y7474746D01*
X30507233Y7547638D01*
X30626764Y7645736D01*
X30651347Y7675690D01*
X36651632Y13675974D01*
X36699389Y13661487D01*
X36917550Y13640000D01*
X37063450Y13640000D01*
X37281611Y13661487D01*
X37561534Y13746401D01*
X37819514Y13884294D01*
X38045634Y14069866D01*
X38231206Y14295986D01*
X38260500Y14350791D01*
X38289794Y14295986D01*
X38475366Y14069866D01*
X38701486Y13884294D01*
X38745500Y13860768D01*
X38745501Y11544063D01*
X38741703Y11505500D01*
X38756859Y11351614D01*
X38801746Y11203641D01*
X38801747Y11203640D01*
X38874639Y11067267D01*
X38884470Y11055288D01*
X38845518Y10961250D01*
X38775000Y10606732D01*
X38775000Y10245268D01*
X38845518Y9890750D01*
X38983844Y9556801D01*
X39184662Y9256256D01*
X39440256Y9000662D01*
X39740801Y8799844D01*
X40074750Y8661518D01*
X40429268Y8591000D01*
X40790732Y8591000D01*
X41145250Y8661518D01*
X41479199Y8799844D01*
X41779744Y9000662D01*
X42035338Y9256256D01*
X42236156Y9556801D01*
X42374482Y9890750D01*
X42445000Y10245268D01*
X42445000Y10606732D01*
X42374482Y10961250D01*
X42236156Y11295199D01*
X42035338Y11595744D01*
X41779744Y11851338D01*
X41479199Y12052156D01*
X41145250Y12190482D01*
X40790732Y12261000D01*
X40429268Y12261000D01*
X40315500Y12238370D01*
X40315500Y13860768D01*
X40359514Y13884294D01*
X40585634Y14069866D01*
X40771206Y14295986D01*
X40805701Y14360523D01*
X40875322Y14243645D01*
X41070231Y14027412D01*
X41303580Y13853359D01*
X41566401Y13728175D01*
X41713610Y13683524D01*
X41943500Y13804845D01*
X41943500Y14998000D01*
X41923500Y14998000D01*
X41923500Y15252000D01*
X41943500Y15252000D01*
X41943500Y15272000D01*
X42197500Y15272000D01*
X42197500Y15252000D01*
X42217500Y15252000D01*
X42217500Y14998000D01*
X42197500Y14998000D01*
X42197500Y13804845D01*
X42427390Y13683524D01*
X42574599Y13728175D01*
X42837420Y13853359D01*
X43070769Y14027412D01*
X43146534Y14111466D01*
X43170998Y14030820D01*
X43229963Y13920506D01*
X43309315Y13823815D01*
X43406006Y13744463D01*
X43516320Y13685498D01*
X43636018Y13649188D01*
X43760500Y13636928D01*
X45460500Y13636928D01*
X45584982Y13649188D01*
X45704680Y13685498D01*
X45814994Y13744463D01*
X45911685Y13823815D01*
X45991037Y13920506D01*
X46050002Y14030820D01*
X46086312Y14150518D01*
X46098572Y14275000D01*
X46098572Y15975000D01*
X46086312Y16099482D01*
X46050002Y16219180D01*
X45991037Y16329494D01*
X45982415Y16340000D01*
X47340000Y16340000D01*
X47340001Y2945000D01*
X47340001Y2945000D01*
G37*
X47340001Y2945000D02*
X43139730Y2945000D01*
X43259398Y3090816D01*
X43412705Y3377633D01*
X43507111Y3688847D01*
X43538988Y4012500D01*
X43507111Y4336153D01*
X43412705Y4647367D01*
X43259398Y4934184D01*
X43053082Y5185582D01*
X42801684Y5391898D01*
X42514867Y5545205D01*
X42203653Y5639611D01*
X41961104Y5663500D01*
X41798896Y5663500D01*
X41556347Y5639611D01*
X41245133Y5545205D01*
X40958316Y5391898D01*
X40706918Y5185582D01*
X40610000Y5067486D01*
X40513082Y5185582D01*
X40261684Y5391898D01*
X39974867Y5545205D01*
X39663653Y5639611D01*
X39421104Y5663500D01*
X39258896Y5663500D01*
X39016347Y5639611D01*
X38705133Y5545205D01*
X38418316Y5391898D01*
X38166918Y5185582D01*
X38070000Y5067486D01*
X37973082Y5185582D01*
X37721684Y5391898D01*
X37434867Y5545205D01*
X37123653Y5639611D01*
X36881104Y5663500D01*
X36718896Y5663500D01*
X36476347Y5639611D01*
X36165133Y5545205D01*
X35878316Y5391898D01*
X35626918Y5185582D01*
X35530000Y5067486D01*
X35433082Y5185582D01*
X35181684Y5391898D01*
X34894867Y5545205D01*
X34583653Y5639611D01*
X34341104Y5663500D01*
X34178896Y5663500D01*
X33936347Y5639611D01*
X33625133Y5545205D01*
X33338316Y5391898D01*
X33285115Y5348237D01*
X33266537Y5382994D01*
X33187185Y5479685D01*
X33090494Y5559037D01*
X32980180Y5618002D01*
X32860482Y5654312D01*
X32736000Y5666572D01*
X32005750Y5663500D01*
X31847000Y5504750D01*
X31847000Y4139500D01*
X31867000Y4139500D01*
X31867000Y3885500D01*
X31847000Y3885500D01*
X31847000Y3865500D01*
X31593000Y3865500D01*
X31593000Y3885500D01*
X30227750Y3885500D01*
X30069000Y3726750D01*
X30067758Y3431499D01*
X28905121Y3431499D01*
X28950071Y3526496D01*
X29018800Y3800684D01*
X29032717Y4083012D01*
X28991287Y4362630D01*
X28896103Y4628792D01*
X28829171Y4754014D01*
X28585202Y4825597D01*
X27772105Y4012500D01*
X27786248Y3998357D01*
X27606643Y3818752D01*
X27592500Y3832895D01*
X27578358Y3818752D01*
X27398753Y3998357D01*
X27412895Y4012500D01*
X26599798Y4825597D01*
X26355829Y4754014D01*
X26234929Y4498504D01*
X26166200Y4224316D01*
X26152283Y3941988D01*
X26193713Y3662370D01*
X26276276Y3431499D01*
X25599344Y3431499D01*
X25682409Y3663460D01*
X25561124Y3885500D01*
X24417500Y3885500D01*
X24417500Y3865500D01*
X24163500Y3865500D01*
X24163500Y3885500D01*
X24143500Y3885500D01*
X24143500Y4139500D01*
X24163500Y4139500D01*
X24163500Y4159500D01*
X24417500Y4159500D01*
X24417500Y4139500D01*
X25561124Y4139500D01*
X25682409Y4361540D01*
X25587570Y4626381D01*
X25442885Y4867631D01*
X25253914Y5076019D01*
X25027920Y5243537D01*
X24773587Y5363746D01*
X24639539Y5404404D01*
X24417502Y5282416D01*
X24417502Y5447500D01*
X24295657Y5447500D01*
X26266657Y7418500D01*
X26472010Y7418500D01*
X26320820Y7192227D01*
X26212647Y6931074D01*
X26157500Y6653835D01*
X26157500Y6371165D01*
X26212647Y6093926D01*
X26320820Y5832773D01*
X26477863Y5597741D01*
X26677741Y5397863D01*
X26878369Y5263808D01*
X26850986Y5249171D01*
X26779403Y5005202D01*
X27592500Y4192105D01*
X28405597Y5005202D01*
X28398762Y5028500D01*
X30065928Y5028500D01*
X30069000Y4298250D01*
X30227750Y4139500D01*
X31593000Y4139500D01*
X31593000Y5504750D01*
X31434250Y5663500D01*
X30704000Y5666572D01*
X30579518Y5654312D01*
X30459820Y5618002D01*
X30349506Y5559037D01*
X30252815Y5479685D01*
X30173463Y5382994D01*
X30114498Y5272680D01*
X30078188Y5152982D01*
X30065928Y5028500D01*
X28398762Y5028500D01*
X28334014Y5249171D01*
X28305159Y5262824D01*
X28507259Y5397863D01*
X28707137Y5597741D01*
X28864180Y5832773D01*
X28972353Y6093926D01*
X29027500Y6371165D01*
X29027500Y6653835D01*
X28972353Y6931074D01*
X28864180Y7192227D01*
X28712990Y7418500D01*
X30030447Y7418500D01*
X30069000Y7414703D01*
X30107553Y7418500D01*
X30107561Y7418500D01*
X30222887Y7429859D01*
X30370860Y7474746D01*
X30507233Y7547638D01*
X30626764Y7645736D01*
X30651347Y7675690D01*
X36651632Y13675974D01*
X36699389Y13661487D01*
X36917550Y13640000D01*
X37063450Y13640000D01*
X37281611Y13661487D01*
X37561534Y13746401D01*
X37819514Y13884294D01*
X38045634Y14069866D01*
X38231206Y14295986D01*
X38260500Y14350791D01*
X38289794Y14295986D01*
X38475366Y14069866D01*
X38701486Y13884294D01*
X38745500Y13860768D01*
X38745501Y11544063D01*
X38741703Y11505500D01*
X38756859Y11351614D01*
X38801746Y11203641D01*
X38801747Y11203640D01*
X38874639Y11067267D01*
X38884470Y11055288D01*
X38845518Y10961250D01*
X38775000Y10606732D01*
X38775000Y10245268D01*
X38845518Y9890750D01*
X38983844Y9556801D01*
X39184662Y9256256D01*
X39440256Y9000662D01*
X39740801Y8799844D01*
X40074750Y8661518D01*
X40429268Y8591000D01*
X40790732Y8591000D01*
X41145250Y8661518D01*
X41479199Y8799844D01*
X41779744Y9000662D01*
X42035338Y9256256D01*
X42236156Y9556801D01*
X42374482Y9890750D01*
X42445000Y10245268D01*
X42445000Y10606732D01*
X42374482Y10961250D01*
X42236156Y11295199D01*
X42035338Y11595744D01*
X41779744Y11851338D01*
X41479199Y12052156D01*
X41145250Y12190482D01*
X40790732Y12261000D01*
X40429268Y12261000D01*
X40315500Y12238370D01*
X40315500Y13860768D01*
X40359514Y13884294D01*
X40585634Y14069866D01*
X40771206Y14295986D01*
X40805701Y14360523D01*
X40875322Y14243645D01*
X41070231Y14027412D01*
X41303580Y13853359D01*
X41566401Y13728175D01*
X41713610Y13683524D01*
X41943500Y13804845D01*
X41943500Y14998000D01*
X41923500Y14998000D01*
X41923500Y15252000D01*
X41943500Y15252000D01*
X41943500Y15272000D01*
X42197500Y15272000D01*
X42197500Y15252000D01*
X42217500Y15252000D01*
X42217500Y14998000D01*
X42197500Y14998000D01*
X42197500Y13804845D01*
X42427390Y13683524D01*
X42574599Y13728175D01*
X42837420Y13853359D01*
X43070769Y14027412D01*
X43146534Y14111466D01*
X43170998Y14030820D01*
X43229963Y13920506D01*
X43309315Y13823815D01*
X43406006Y13744463D01*
X43516320Y13685498D01*
X43636018Y13649188D01*
X43760500Y13636928D01*
X45460500Y13636928D01*
X45584982Y13649188D01*
X45704680Y13685498D01*
X45814994Y13744463D01*
X45911685Y13823815D01*
X45991037Y13920506D01*
X46050002Y14030820D01*
X46086312Y14150518D01*
X46098572Y14275000D01*
X46098572Y15975000D01*
X46086312Y16099482D01*
X46050002Y16219180D01*
X45991037Y16329494D01*
X45982415Y16340000D01*
X47340000Y16340000D01*
X47340001Y2945000D01*
M02*
