G04 #@! TF.GenerationSoftware,KiCad,Pcbnew,(5.1.4)-1*
G04 #@! TF.CreationDate,2019-09-16T22:11:13+02:00*
G04 #@! TF.ProjectId,Display,44697370-6c61-4792-9e6b-696361645f70,1.1*
G04 #@! TF.SameCoordinates,PXd59f80PY1d905c0*
G04 #@! TF.FileFunction,Soldermask,Bot*
G04 #@! TF.FilePolarity,Negative*
%FSLAX46Y46*%
G04 Gerber Fmt 4.6, Leading zero omitted, Abs format (unit mm)*
G04 Created by KiCad (PCBNEW (5.1.4)-1) date 2019-09-16 22:11:13*
%MOMM*%
%LPD*%
G04 APERTURE LIST*
%ADD10C,0.100000*%
G04 APERTURE END LIST*
D10*
G36*
X36915114Y5073324D02*
G01*
X37009168Y5064061D01*
X37210299Y5003049D01*
X37296110Y4957182D01*
X37395661Y4903971D01*
X37558133Y4770633D01*
X37691471Y4608161D01*
X37744682Y4508610D01*
X37790549Y4422799D01*
X37851561Y4221668D01*
X37872162Y4012500D01*
X37851561Y3803332D01*
X37790549Y3602201D01*
X37744682Y3516390D01*
X37691471Y3416839D01*
X37558133Y3254367D01*
X37395661Y3121029D01*
X37296110Y3067818D01*
X37210299Y3021951D01*
X37009168Y2960939D01*
X36915114Y2951676D01*
X36852413Y2945500D01*
X36747587Y2945500D01*
X36684886Y2951676D01*
X36590832Y2960939D01*
X36389701Y3021951D01*
X36303890Y3067818D01*
X36204339Y3121029D01*
X36041867Y3254367D01*
X35908529Y3416839D01*
X35855318Y3516390D01*
X35809451Y3602201D01*
X35748439Y3803332D01*
X35727838Y4012500D01*
X35748439Y4221668D01*
X35809451Y4422799D01*
X35855318Y4508610D01*
X35908529Y4608161D01*
X36041867Y4770633D01*
X36204339Y4903971D01*
X36303890Y4957182D01*
X36389701Y5003049D01*
X36590832Y5064061D01*
X36684886Y5073324D01*
X36747587Y5079500D01*
X36852413Y5079500D01*
X36915114Y5073324D01*
X36915114Y5073324D01*
G37*
G36*
X39455114Y5073324D02*
G01*
X39549168Y5064061D01*
X39750299Y5003049D01*
X39836110Y4957182D01*
X39935661Y4903971D01*
X40098133Y4770633D01*
X40231471Y4608161D01*
X40284682Y4508610D01*
X40330549Y4422799D01*
X40391561Y4221668D01*
X40412162Y4012500D01*
X40391561Y3803332D01*
X40330549Y3602201D01*
X40284682Y3516390D01*
X40231471Y3416839D01*
X40098133Y3254367D01*
X39935661Y3121029D01*
X39836110Y3067818D01*
X39750299Y3021951D01*
X39549168Y2960939D01*
X39455114Y2951676D01*
X39392413Y2945500D01*
X39287587Y2945500D01*
X39224886Y2951676D01*
X39130832Y2960939D01*
X38929701Y3021951D01*
X38843890Y3067818D01*
X38744339Y3121029D01*
X38581867Y3254367D01*
X38448529Y3416839D01*
X38395318Y3516390D01*
X38349451Y3602201D01*
X38288439Y3803332D01*
X38267838Y4012500D01*
X38288439Y4221668D01*
X38349451Y4422799D01*
X38395318Y4508610D01*
X38448529Y4608161D01*
X38581867Y4770633D01*
X38744339Y4903971D01*
X38843890Y4957182D01*
X38929701Y5003049D01*
X39130832Y5064061D01*
X39224886Y5073324D01*
X39287587Y5079500D01*
X39392413Y5079500D01*
X39455114Y5073324D01*
X39455114Y5073324D01*
G37*
G36*
X41995114Y5073324D02*
G01*
X42089168Y5064061D01*
X42290299Y5003049D01*
X42376110Y4957182D01*
X42475661Y4903971D01*
X42638133Y4770633D01*
X42771471Y4608161D01*
X42824682Y4508610D01*
X42870549Y4422799D01*
X42931561Y4221668D01*
X42952162Y4012500D01*
X42931561Y3803332D01*
X42870549Y3602201D01*
X42824682Y3516390D01*
X42771471Y3416839D01*
X42638133Y3254367D01*
X42475661Y3121029D01*
X42376110Y3067818D01*
X42290299Y3021951D01*
X42089168Y2960939D01*
X41995114Y2951676D01*
X41932413Y2945500D01*
X41827587Y2945500D01*
X41764886Y2951676D01*
X41670832Y2960939D01*
X41469701Y3021951D01*
X41383890Y3067818D01*
X41284339Y3121029D01*
X41121867Y3254367D01*
X40988529Y3416839D01*
X40935318Y3516390D01*
X40889451Y3602201D01*
X40828439Y3803332D01*
X40807838Y4012500D01*
X40828439Y4221668D01*
X40889451Y4422799D01*
X40935318Y4508610D01*
X40988529Y4608161D01*
X41121867Y4770633D01*
X41284339Y4903971D01*
X41383890Y4957182D01*
X41469701Y5003049D01*
X41670832Y5064061D01*
X41764886Y5073324D01*
X41827587Y5079500D01*
X41932413Y5079500D01*
X41995114Y5073324D01*
X41995114Y5073324D01*
G37*
G36*
X34375114Y5073324D02*
G01*
X34469168Y5064061D01*
X34670299Y5003049D01*
X34756110Y4957182D01*
X34855661Y4903971D01*
X35018133Y4770633D01*
X35151471Y4608161D01*
X35204682Y4508610D01*
X35250549Y4422799D01*
X35311561Y4221668D01*
X35332162Y4012500D01*
X35311561Y3803332D01*
X35250549Y3602201D01*
X35204682Y3516390D01*
X35151471Y3416839D01*
X35018133Y3254367D01*
X34855661Y3121029D01*
X34756110Y3067818D01*
X34670299Y3021951D01*
X34469168Y2960939D01*
X34375114Y2951676D01*
X34312413Y2945500D01*
X34207587Y2945500D01*
X34144886Y2951676D01*
X34050832Y2960939D01*
X33849701Y3021951D01*
X33763890Y3067818D01*
X33664339Y3121029D01*
X33501867Y3254367D01*
X33368529Y3416839D01*
X33315318Y3516390D01*
X33269451Y3602201D01*
X33208439Y3803332D01*
X33187838Y4012500D01*
X33208439Y4221668D01*
X33269451Y4422799D01*
X33315318Y4508610D01*
X33368529Y4608161D01*
X33501867Y4770633D01*
X33664339Y4903971D01*
X33763890Y4957182D01*
X33849701Y5003049D01*
X34050832Y5064061D01*
X34144886Y5073324D01*
X34207587Y5079500D01*
X34312413Y5079500D01*
X34375114Y5073324D01*
X34375114Y5073324D01*
G37*
G36*
X32787000Y2945500D02*
G01*
X30653000Y2945500D01*
X30653000Y5079500D01*
X32787000Y5079500D01*
X32787000Y2945500D01*
X32787000Y2945500D01*
G37*
G36*
X11757323Y4851187D02*
G01*
X11917742Y4802524D01*
X11984861Y4766648D01*
X12065578Y4723504D01*
X12195159Y4617159D01*
X12301504Y4487578D01*
X12301505Y4487576D01*
X12380524Y4339742D01*
X12429187Y4179323D01*
X12445617Y4012500D01*
X12429187Y3845677D01*
X12380524Y3685258D01*
X12339977Y3609400D01*
X12301504Y3537422D01*
X12195159Y3407841D01*
X12065578Y3301496D01*
X12065576Y3301495D01*
X11917742Y3222476D01*
X11757323Y3173813D01*
X11632304Y3161500D01*
X11548696Y3161500D01*
X11423677Y3173813D01*
X11263258Y3222476D01*
X11115424Y3301495D01*
X11115422Y3301496D01*
X10985841Y3407841D01*
X10879496Y3537422D01*
X10841023Y3609400D01*
X10800476Y3685258D01*
X10751813Y3845677D01*
X10735383Y4012500D01*
X10751813Y4179323D01*
X10800476Y4339742D01*
X10879495Y4487576D01*
X10879496Y4487578D01*
X10985841Y4617159D01*
X11115422Y4723504D01*
X11196139Y4766648D01*
X11263258Y4802524D01*
X11423677Y4851187D01*
X11548696Y4863500D01*
X11632304Y4863500D01*
X11757323Y4851187D01*
X11757323Y4851187D01*
G37*
G36*
X6677323Y4851187D02*
G01*
X6837742Y4802524D01*
X6904861Y4766648D01*
X6985578Y4723504D01*
X7115159Y4617159D01*
X7221504Y4487578D01*
X7221505Y4487576D01*
X7300524Y4339742D01*
X7349187Y4179323D01*
X7365617Y4012500D01*
X7349187Y3845677D01*
X7300524Y3685258D01*
X7259977Y3609400D01*
X7221504Y3537422D01*
X7115159Y3407841D01*
X6985578Y3301496D01*
X6985576Y3301495D01*
X6837742Y3222476D01*
X6677323Y3173813D01*
X6552304Y3161500D01*
X6468696Y3161500D01*
X6343677Y3173813D01*
X6183258Y3222476D01*
X6035424Y3301495D01*
X6035422Y3301496D01*
X5905841Y3407841D01*
X5799496Y3537422D01*
X5761023Y3609400D01*
X5720476Y3685258D01*
X5671813Y3845677D01*
X5655383Y4012500D01*
X5671813Y4179323D01*
X5720476Y4339742D01*
X5799495Y4487576D01*
X5799496Y4487578D01*
X5905841Y4617159D01*
X6035422Y4723504D01*
X6116139Y4766648D01*
X6183258Y4802524D01*
X6343677Y4851187D01*
X6468696Y4863500D01*
X6552304Y4863500D01*
X6677323Y4851187D01*
X6677323Y4851187D01*
G37*
G36*
X9217323Y4851187D02*
G01*
X9377742Y4802524D01*
X9444861Y4766648D01*
X9525578Y4723504D01*
X9655159Y4617159D01*
X9761504Y4487578D01*
X9761505Y4487576D01*
X9840524Y4339742D01*
X9889187Y4179323D01*
X9905617Y4012500D01*
X9889187Y3845677D01*
X9840524Y3685258D01*
X9799977Y3609400D01*
X9761504Y3537422D01*
X9655159Y3407841D01*
X9525578Y3301496D01*
X9525576Y3301495D01*
X9377742Y3222476D01*
X9217323Y3173813D01*
X9092304Y3161500D01*
X9008696Y3161500D01*
X8883677Y3173813D01*
X8723258Y3222476D01*
X8575424Y3301495D01*
X8575422Y3301496D01*
X8445841Y3407841D01*
X8339496Y3537422D01*
X8301023Y3609400D01*
X8260476Y3685258D01*
X8211813Y3845677D01*
X8195383Y4012500D01*
X8211813Y4179323D01*
X8260476Y4339742D01*
X8339495Y4487576D01*
X8339496Y4487578D01*
X8445841Y4617159D01*
X8575422Y4723504D01*
X8656139Y4766648D01*
X8723258Y4802524D01*
X8883677Y4851187D01*
X9008696Y4863500D01*
X9092304Y4863500D01*
X9217323Y4851187D01*
X9217323Y4851187D01*
G37*
G36*
X14297323Y4851187D02*
G01*
X14457742Y4802524D01*
X14524861Y4766648D01*
X14605578Y4723504D01*
X14735159Y4617159D01*
X14841504Y4487578D01*
X14841505Y4487576D01*
X14920524Y4339742D01*
X14969187Y4179323D01*
X14985617Y4012500D01*
X14969187Y3845677D01*
X14920524Y3685258D01*
X14879977Y3609400D01*
X14841504Y3537422D01*
X14735159Y3407841D01*
X14605578Y3301496D01*
X14605576Y3301495D01*
X14457742Y3222476D01*
X14297323Y3173813D01*
X14172304Y3161500D01*
X14088696Y3161500D01*
X13963677Y3173813D01*
X13803258Y3222476D01*
X13655424Y3301495D01*
X13655422Y3301496D01*
X13525841Y3407841D01*
X13419496Y3537422D01*
X13381023Y3609400D01*
X13340476Y3685258D01*
X13291813Y3845677D01*
X13275383Y4012500D01*
X13291813Y4179323D01*
X13340476Y4339742D01*
X13419495Y4487576D01*
X13419496Y4487578D01*
X13525841Y4617159D01*
X13655422Y4723504D01*
X13736139Y4766648D01*
X13803258Y4802524D01*
X13963677Y4851187D01*
X14088696Y4863500D01*
X14172304Y4863500D01*
X14297323Y4851187D01*
X14297323Y4851187D01*
G37*
G36*
X16837323Y4851187D02*
G01*
X16997742Y4802524D01*
X17064861Y4766648D01*
X17145578Y4723504D01*
X17275159Y4617159D01*
X17381504Y4487578D01*
X17381505Y4487576D01*
X17460524Y4339742D01*
X17509187Y4179323D01*
X17525617Y4012500D01*
X17509187Y3845677D01*
X17460524Y3685258D01*
X17419977Y3609400D01*
X17381504Y3537422D01*
X17275159Y3407841D01*
X17145578Y3301496D01*
X17145576Y3301495D01*
X16997742Y3222476D01*
X16837323Y3173813D01*
X16712304Y3161500D01*
X16628696Y3161500D01*
X16503677Y3173813D01*
X16343258Y3222476D01*
X16195424Y3301495D01*
X16195422Y3301496D01*
X16065841Y3407841D01*
X15959496Y3537422D01*
X15921023Y3609400D01*
X15880476Y3685258D01*
X15831813Y3845677D01*
X15815383Y4012500D01*
X15831813Y4179323D01*
X15880476Y4339742D01*
X15959495Y4487576D01*
X15959496Y4487578D01*
X16065841Y4617159D01*
X16195422Y4723504D01*
X16276139Y4766648D01*
X16343258Y4802524D01*
X16503677Y4851187D01*
X16628696Y4863500D01*
X16712304Y4863500D01*
X16837323Y4851187D01*
X16837323Y4851187D01*
G37*
G36*
X19377323Y4851187D02*
G01*
X19537742Y4802524D01*
X19604861Y4766648D01*
X19685578Y4723504D01*
X19815159Y4617159D01*
X19921504Y4487578D01*
X19921505Y4487576D01*
X20000524Y4339742D01*
X20049187Y4179323D01*
X20065617Y4012500D01*
X20049187Y3845677D01*
X20000524Y3685258D01*
X19959977Y3609400D01*
X19921504Y3537422D01*
X19815159Y3407841D01*
X19685578Y3301496D01*
X19685576Y3301495D01*
X19537742Y3222476D01*
X19377323Y3173813D01*
X19252304Y3161500D01*
X19168696Y3161500D01*
X19043677Y3173813D01*
X18883258Y3222476D01*
X18735424Y3301495D01*
X18735422Y3301496D01*
X18605841Y3407841D01*
X18499496Y3537422D01*
X18461023Y3609400D01*
X18420476Y3685258D01*
X18371813Y3845677D01*
X18355383Y4012500D01*
X18371813Y4179323D01*
X18420476Y4339742D01*
X18499495Y4487576D01*
X18499496Y4487578D01*
X18605841Y4617159D01*
X18735422Y4723504D01*
X18816139Y4766648D01*
X18883258Y4802524D01*
X19043677Y4851187D01*
X19168696Y4863500D01*
X19252304Y4863500D01*
X19377323Y4851187D01*
X19377323Y4851187D01*
G37*
G36*
X21917323Y4851187D02*
G01*
X22077742Y4802524D01*
X22144861Y4766648D01*
X22225578Y4723504D01*
X22355159Y4617159D01*
X22461504Y4487578D01*
X22461505Y4487576D01*
X22540524Y4339742D01*
X22589187Y4179323D01*
X22605617Y4012500D01*
X22589187Y3845677D01*
X22540524Y3685258D01*
X22499977Y3609400D01*
X22461504Y3537422D01*
X22355159Y3407841D01*
X22225578Y3301496D01*
X22225576Y3301495D01*
X22077742Y3222476D01*
X21917323Y3173813D01*
X21792304Y3161500D01*
X21708696Y3161500D01*
X21583677Y3173813D01*
X21423258Y3222476D01*
X21275424Y3301495D01*
X21275422Y3301496D01*
X21145841Y3407841D01*
X21039496Y3537422D01*
X21001023Y3609400D01*
X20960476Y3685258D01*
X20911813Y3845677D01*
X20895383Y4012500D01*
X20911813Y4179323D01*
X20960476Y4339742D01*
X21039495Y4487576D01*
X21039496Y4487578D01*
X21145841Y4617159D01*
X21275422Y4723504D01*
X21356139Y4766648D01*
X21423258Y4802524D01*
X21583677Y4851187D01*
X21708696Y4863500D01*
X21792304Y4863500D01*
X21917323Y4851187D01*
X21917323Y4851187D01*
G37*
G36*
X24457323Y4851187D02*
G01*
X24617742Y4802524D01*
X24684861Y4766648D01*
X24765578Y4723504D01*
X24895159Y4617159D01*
X25001504Y4487578D01*
X25001505Y4487576D01*
X25080524Y4339742D01*
X25129187Y4179323D01*
X25145617Y4012500D01*
X25129187Y3845677D01*
X25080524Y3685258D01*
X25039977Y3609400D01*
X25001504Y3537422D01*
X24895159Y3407841D01*
X24765578Y3301496D01*
X24765576Y3301495D01*
X24617742Y3222476D01*
X24457323Y3173813D01*
X24332304Y3161500D01*
X24248696Y3161500D01*
X24123677Y3173813D01*
X23963258Y3222476D01*
X23815424Y3301495D01*
X23815422Y3301496D01*
X23685841Y3407841D01*
X23579496Y3537422D01*
X23541023Y3609400D01*
X23500476Y3685258D01*
X23451813Y3845677D01*
X23435383Y4012500D01*
X23451813Y4179323D01*
X23500476Y4339742D01*
X23579495Y4487576D01*
X23579496Y4487578D01*
X23685841Y4617159D01*
X23815422Y4723504D01*
X23896139Y4766648D01*
X23963258Y4802524D01*
X24123677Y4851187D01*
X24248696Y4863500D01*
X24332304Y4863500D01*
X24457323Y4851187D01*
X24457323Y4851187D01*
G37*
G36*
X27840728Y4830797D02*
G01*
X27995600Y4766647D01*
X28134981Y4673515D01*
X28253515Y4554981D01*
X28346647Y4415600D01*
X28410797Y4260728D01*
X28443500Y4096316D01*
X28443500Y3928684D01*
X28410797Y3764272D01*
X28346647Y3609400D01*
X28253515Y3470019D01*
X28134981Y3351485D01*
X27995600Y3258353D01*
X27840728Y3194203D01*
X27676316Y3161500D01*
X27508684Y3161500D01*
X27344272Y3194203D01*
X27189400Y3258353D01*
X27050019Y3351485D01*
X26931485Y3470019D01*
X26838353Y3609400D01*
X26774203Y3764272D01*
X26741500Y3928684D01*
X26741500Y4096316D01*
X26774203Y4260728D01*
X26838353Y4415600D01*
X26931485Y4554981D01*
X27050019Y4673515D01*
X27189400Y4766647D01*
X27344272Y4830797D01*
X27508684Y4863500D01*
X27676316Y4863500D01*
X27840728Y4830797D01*
X27840728Y4830797D01*
G37*
G36*
X3393228Y4830797D02*
G01*
X3548100Y4766647D01*
X3687481Y4673515D01*
X3806015Y4554981D01*
X3899147Y4415600D01*
X3963297Y4260728D01*
X3996000Y4096316D01*
X3996000Y3928684D01*
X3963297Y3764272D01*
X3899147Y3609400D01*
X3806015Y3470019D01*
X3687481Y3351485D01*
X3548100Y3258353D01*
X3393228Y3194203D01*
X3228816Y3161500D01*
X3061184Y3161500D01*
X2896772Y3194203D01*
X2741900Y3258353D01*
X2602519Y3351485D01*
X2483985Y3470019D01*
X2390853Y3609400D01*
X2326703Y3764272D01*
X2294000Y3928684D01*
X2294000Y4096316D01*
X2326703Y4260728D01*
X2390853Y4415600D01*
X2483985Y4554981D01*
X2602519Y4673515D01*
X2741900Y4766647D01*
X2896772Y4830797D01*
X3061184Y4863500D01*
X3228816Y4863500D01*
X3393228Y4830797D01*
X3393228Y4830797D01*
G37*
G36*
X27840728Y7330797D02*
G01*
X27995600Y7266647D01*
X28134981Y7173515D01*
X28253515Y7054981D01*
X28346647Y6915600D01*
X28410797Y6760728D01*
X28443500Y6596316D01*
X28443500Y6428684D01*
X28410797Y6264272D01*
X28346647Y6109400D01*
X28253515Y5970019D01*
X28134981Y5851485D01*
X27995600Y5758353D01*
X27840728Y5694203D01*
X27676316Y5661500D01*
X27508684Y5661500D01*
X27344272Y5694203D01*
X27189400Y5758353D01*
X27050019Y5851485D01*
X26931485Y5970019D01*
X26838353Y6109400D01*
X26774203Y6264272D01*
X26741500Y6428684D01*
X26741500Y6596316D01*
X26774203Y6760728D01*
X26838353Y6915600D01*
X26931485Y7054981D01*
X27050019Y7173515D01*
X27189400Y7266647D01*
X27344272Y7330797D01*
X27508684Y7363500D01*
X27676316Y7363500D01*
X27840728Y7330797D01*
X27840728Y7330797D01*
G37*
G36*
X27759323Y11518687D02*
G01*
X27919742Y11470024D01*
X27986861Y11434148D01*
X28067578Y11391004D01*
X28197159Y11284659D01*
X28303504Y11155078D01*
X28303505Y11155076D01*
X28382524Y11007242D01*
X28431187Y10846823D01*
X28447617Y10680000D01*
X28431187Y10513177D01*
X28382524Y10352758D01*
X28341977Y10276900D01*
X28303504Y10204922D01*
X28197159Y10075341D01*
X28067578Y9968996D01*
X28067576Y9968995D01*
X27919742Y9889976D01*
X27759323Y9841313D01*
X27634304Y9829000D01*
X27550696Y9829000D01*
X27425677Y9841313D01*
X27265258Y9889976D01*
X27117424Y9968995D01*
X27117422Y9968996D01*
X26987841Y10075341D01*
X26881496Y10204922D01*
X26843023Y10276900D01*
X26802476Y10352758D01*
X26753813Y10513177D01*
X26737383Y10680000D01*
X26753813Y10846823D01*
X26802476Y11007242D01*
X26881495Y11155076D01*
X26881496Y11155078D01*
X26987841Y11284659D01*
X27117422Y11391004D01*
X27198139Y11434148D01*
X27265258Y11470024D01*
X27425677Y11518687D01*
X27550696Y11531000D01*
X27634304Y11531000D01*
X27759323Y11518687D01*
X27759323Y11518687D01*
G37*
G36*
X38000728Y11498297D02*
G01*
X38155600Y11434147D01*
X38294981Y11341015D01*
X38413515Y11222481D01*
X38506647Y11083100D01*
X38570797Y10928228D01*
X38603500Y10763816D01*
X38603500Y10596184D01*
X38570797Y10431772D01*
X38506647Y10276900D01*
X38413515Y10137519D01*
X38294981Y10018985D01*
X38155600Y9925853D01*
X38000728Y9861703D01*
X37836316Y9829000D01*
X37668684Y9829000D01*
X37504272Y9861703D01*
X37349400Y9925853D01*
X37210019Y10018985D01*
X37091485Y10137519D01*
X36998353Y10276900D01*
X36934203Y10431772D01*
X36901500Y10596184D01*
X36901500Y10763816D01*
X36934203Y10928228D01*
X36998353Y11083100D01*
X37091485Y11222481D01*
X37210019Y11341015D01*
X37349400Y11434147D01*
X37504272Y11498297D01*
X37668684Y11531000D01*
X37836316Y11531000D01*
X38000728Y11498297D01*
X38000728Y11498297D01*
G37*
G36*
X21917323Y12471187D02*
G01*
X22077742Y12422524D01*
X22210406Y12351614D01*
X22225578Y12343504D01*
X22355159Y12237159D01*
X22461504Y12107578D01*
X22461505Y12107576D01*
X22540524Y11959742D01*
X22589187Y11799323D01*
X22605617Y11632500D01*
X22589187Y11465677D01*
X22540524Y11305258D01*
X22496278Y11222480D01*
X22461504Y11157422D01*
X22355159Y11027841D01*
X22225578Y10921496D01*
X22225576Y10921495D01*
X22077742Y10842476D01*
X21917323Y10793813D01*
X21792304Y10781500D01*
X21708696Y10781500D01*
X21583677Y10793813D01*
X21423258Y10842476D01*
X21275424Y10921495D01*
X21275422Y10921496D01*
X21145841Y11027841D01*
X21039496Y11157422D01*
X21004722Y11222480D01*
X20960476Y11305258D01*
X20911813Y11465677D01*
X20895383Y11632500D01*
X20911813Y11799323D01*
X20960476Y11959742D01*
X21039495Y12107576D01*
X21039496Y12107578D01*
X21145841Y12237159D01*
X21275422Y12343504D01*
X21290594Y12351614D01*
X21423258Y12422524D01*
X21583677Y12471187D01*
X21708696Y12483500D01*
X21792304Y12483500D01*
X21917323Y12471187D01*
X21917323Y12471187D01*
G37*
G36*
X19377323Y12471187D02*
G01*
X19537742Y12422524D01*
X19670406Y12351614D01*
X19685578Y12343504D01*
X19815159Y12237159D01*
X19921504Y12107578D01*
X19921505Y12107576D01*
X20000524Y11959742D01*
X20049187Y11799323D01*
X20065617Y11632500D01*
X20049187Y11465677D01*
X20000524Y11305258D01*
X19956278Y11222480D01*
X19921504Y11157422D01*
X19815159Y11027841D01*
X19685578Y10921496D01*
X19685576Y10921495D01*
X19537742Y10842476D01*
X19377323Y10793813D01*
X19252304Y10781500D01*
X19168696Y10781500D01*
X19043677Y10793813D01*
X18883258Y10842476D01*
X18735424Y10921495D01*
X18735422Y10921496D01*
X18605841Y11027841D01*
X18499496Y11157422D01*
X18464722Y11222480D01*
X18420476Y11305258D01*
X18371813Y11465677D01*
X18355383Y11632500D01*
X18371813Y11799323D01*
X18420476Y11959742D01*
X18499495Y12107576D01*
X18499496Y12107578D01*
X18605841Y12237159D01*
X18735422Y12343504D01*
X18750594Y12351614D01*
X18883258Y12422524D01*
X19043677Y12471187D01*
X19168696Y12483500D01*
X19252304Y12483500D01*
X19377323Y12471187D01*
X19377323Y12471187D01*
G37*
G36*
X14297323Y12471187D02*
G01*
X14457742Y12422524D01*
X14590406Y12351614D01*
X14605578Y12343504D01*
X14735159Y12237159D01*
X14841504Y12107578D01*
X14841505Y12107576D01*
X14920524Y11959742D01*
X14969187Y11799323D01*
X14985617Y11632500D01*
X14969187Y11465677D01*
X14920524Y11305258D01*
X14876278Y11222480D01*
X14841504Y11157422D01*
X14735159Y11027841D01*
X14605578Y10921496D01*
X14605576Y10921495D01*
X14457742Y10842476D01*
X14297323Y10793813D01*
X14172304Y10781500D01*
X14088696Y10781500D01*
X13963677Y10793813D01*
X13803258Y10842476D01*
X13655424Y10921495D01*
X13655422Y10921496D01*
X13525841Y11027841D01*
X13419496Y11157422D01*
X13384722Y11222480D01*
X13340476Y11305258D01*
X13291813Y11465677D01*
X13275383Y11632500D01*
X13291813Y11799323D01*
X13340476Y11959742D01*
X13419495Y12107576D01*
X13419496Y12107578D01*
X13525841Y12237159D01*
X13655422Y12343504D01*
X13670594Y12351614D01*
X13803258Y12422524D01*
X13963677Y12471187D01*
X14088696Y12483500D01*
X14172304Y12483500D01*
X14297323Y12471187D01*
X14297323Y12471187D01*
G37*
G36*
X9217323Y12471187D02*
G01*
X9377742Y12422524D01*
X9510406Y12351614D01*
X9525578Y12343504D01*
X9655159Y12237159D01*
X9761504Y12107578D01*
X9761505Y12107576D01*
X9840524Y11959742D01*
X9889187Y11799323D01*
X9905617Y11632500D01*
X9889187Y11465677D01*
X9840524Y11305258D01*
X9796278Y11222480D01*
X9761504Y11157422D01*
X9655159Y11027841D01*
X9525578Y10921496D01*
X9525576Y10921495D01*
X9377742Y10842476D01*
X9217323Y10793813D01*
X9092304Y10781500D01*
X9008696Y10781500D01*
X8883677Y10793813D01*
X8723258Y10842476D01*
X8575424Y10921495D01*
X8575422Y10921496D01*
X8445841Y11027841D01*
X8339496Y11157422D01*
X8304722Y11222480D01*
X8260476Y11305258D01*
X8211813Y11465677D01*
X8195383Y11632500D01*
X8211813Y11799323D01*
X8260476Y11959742D01*
X8339495Y12107576D01*
X8339496Y12107578D01*
X8445841Y12237159D01*
X8575422Y12343504D01*
X8590594Y12351614D01*
X8723258Y12422524D01*
X8883677Y12471187D01*
X9008696Y12483500D01*
X9092304Y12483500D01*
X9217323Y12471187D01*
X9217323Y12471187D01*
G37*
G36*
X6677323Y12471187D02*
G01*
X6837742Y12422524D01*
X6970406Y12351614D01*
X6985578Y12343504D01*
X7115159Y12237159D01*
X7221504Y12107578D01*
X7221505Y12107576D01*
X7300524Y11959742D01*
X7349187Y11799323D01*
X7365617Y11632500D01*
X7349187Y11465677D01*
X7300524Y11305258D01*
X7256278Y11222480D01*
X7221504Y11157422D01*
X7115159Y11027841D01*
X6985578Y10921496D01*
X6985576Y10921495D01*
X6837742Y10842476D01*
X6677323Y10793813D01*
X6552304Y10781500D01*
X6468696Y10781500D01*
X6343677Y10793813D01*
X6183258Y10842476D01*
X6035424Y10921495D01*
X6035422Y10921496D01*
X5905841Y11027841D01*
X5799496Y11157422D01*
X5764722Y11222480D01*
X5720476Y11305258D01*
X5671813Y11465677D01*
X5655383Y11632500D01*
X5671813Y11799323D01*
X5720476Y11959742D01*
X5799495Y12107576D01*
X5799496Y12107578D01*
X5905841Y12237159D01*
X6035422Y12343504D01*
X6050594Y12351614D01*
X6183258Y12422524D01*
X6343677Y12471187D01*
X6468696Y12483500D01*
X6552304Y12483500D01*
X6677323Y12471187D01*
X6677323Y12471187D01*
G37*
G36*
X25141500Y10781500D02*
G01*
X23439500Y10781500D01*
X23439500Y12483500D01*
X25141500Y12483500D01*
X25141500Y10781500D01*
X25141500Y10781500D01*
G37*
G36*
X16837323Y12471187D02*
G01*
X16997742Y12422524D01*
X17130406Y12351614D01*
X17145578Y12343504D01*
X17275159Y12237159D01*
X17381504Y12107578D01*
X17381505Y12107576D01*
X17460524Y11959742D01*
X17509187Y11799323D01*
X17525617Y11632500D01*
X17509187Y11465677D01*
X17460524Y11305258D01*
X17416278Y11222480D01*
X17381504Y11157422D01*
X17275159Y11027841D01*
X17145578Y10921496D01*
X17145576Y10921495D01*
X16997742Y10842476D01*
X16837323Y10793813D01*
X16712304Y10781500D01*
X16628696Y10781500D01*
X16503677Y10793813D01*
X16343258Y10842476D01*
X16195424Y10921495D01*
X16195422Y10921496D01*
X16065841Y11027841D01*
X15959496Y11157422D01*
X15924722Y11222480D01*
X15880476Y11305258D01*
X15831813Y11465677D01*
X15815383Y11632500D01*
X15831813Y11799323D01*
X15880476Y11959742D01*
X15959495Y12107576D01*
X15959496Y12107578D01*
X16065841Y12237159D01*
X16195422Y12343504D01*
X16210594Y12351614D01*
X16343258Y12422524D01*
X16503677Y12471187D01*
X16628696Y12483500D01*
X16712304Y12483500D01*
X16837323Y12471187D01*
X16837323Y12471187D01*
G37*
G36*
X11757323Y12471187D02*
G01*
X11917742Y12422524D01*
X12050406Y12351614D01*
X12065578Y12343504D01*
X12195159Y12237159D01*
X12301504Y12107578D01*
X12301505Y12107576D01*
X12380524Y11959742D01*
X12429187Y11799323D01*
X12445617Y11632500D01*
X12429187Y11465677D01*
X12380524Y11305258D01*
X12336278Y11222480D01*
X12301504Y11157422D01*
X12195159Y11027841D01*
X12065578Y10921496D01*
X12065576Y10921495D01*
X11917742Y10842476D01*
X11757323Y10793813D01*
X11632304Y10781500D01*
X11548696Y10781500D01*
X11423677Y10793813D01*
X11263258Y10842476D01*
X11115424Y10921495D01*
X11115422Y10921496D01*
X10985841Y11027841D01*
X10879496Y11157422D01*
X10844722Y11222480D01*
X10800476Y11305258D01*
X10751813Y11465677D01*
X10735383Y11632500D01*
X10751813Y11799323D01*
X10800476Y11959742D01*
X10879495Y12107576D01*
X10879496Y12107578D01*
X10985841Y12237159D01*
X11115422Y12343504D01*
X11130594Y12351614D01*
X11263258Y12422524D01*
X11423677Y12471187D01*
X11548696Y12483500D01*
X11632304Y12483500D01*
X11757323Y12471187D01*
X11757323Y12471187D01*
G37*
G36*
X3311823Y15011187D02*
G01*
X3472242Y14962524D01*
X3604906Y14891614D01*
X3620078Y14883504D01*
X3749659Y14777159D01*
X3856004Y14647578D01*
X3856005Y14647576D01*
X3935024Y14499742D01*
X3983687Y14339323D01*
X4000117Y14172500D01*
X3983687Y14005677D01*
X3935024Y13845258D01*
X3864114Y13712594D01*
X3856004Y13697422D01*
X3749659Y13567841D01*
X3620078Y13461496D01*
X3620076Y13461495D01*
X3472242Y13382476D01*
X3311823Y13333813D01*
X3186804Y13321500D01*
X3103196Y13321500D01*
X2978177Y13333813D01*
X2817758Y13382476D01*
X2669924Y13461495D01*
X2669922Y13461496D01*
X2540341Y13567841D01*
X2433996Y13697422D01*
X2425886Y13712594D01*
X2354976Y13845258D01*
X2306313Y14005677D01*
X2289883Y14172500D01*
X2306313Y14339323D01*
X2354976Y14499742D01*
X2433995Y14647576D01*
X2433996Y14647578D01*
X2540341Y14777159D01*
X2669922Y14883504D01*
X2685094Y14891614D01*
X2817758Y14962524D01*
X2978177Y15011187D01*
X3103196Y15023500D01*
X3186804Y15023500D01*
X3311823Y15011187D01*
X3311823Y15011187D01*
G37*
G36*
X16780942Y16019482D02*
G01*
X16847127Y16012963D01*
X17016966Y15961443D01*
X17173491Y15877778D01*
X17209229Y15848448D01*
X17310686Y15765186D01*
X17393948Y15663729D01*
X17423278Y15627991D01*
X17506943Y15471466D01*
X17558463Y15301627D01*
X17575859Y15125000D01*
X17558463Y14948373D01*
X17506943Y14778534D01*
X17423278Y14622009D01*
X17393948Y14586271D01*
X17310686Y14484814D01*
X17209229Y14401552D01*
X17173491Y14372222D01*
X17016966Y14288557D01*
X16847127Y14237037D01*
X16780942Y14230518D01*
X16714760Y14224000D01*
X16626240Y14224000D01*
X16560058Y14230518D01*
X16493873Y14237037D01*
X16324034Y14288557D01*
X16167509Y14372222D01*
X16131771Y14401552D01*
X16030314Y14484814D01*
X15947052Y14586271D01*
X15917722Y14622009D01*
X15834057Y14778534D01*
X15782537Y14948373D01*
X15765141Y15125000D01*
X15782537Y15301627D01*
X15834057Y15471466D01*
X15917722Y15627991D01*
X15947052Y15663729D01*
X16030314Y15765186D01*
X16131771Y15848448D01*
X16167509Y15877778D01*
X16324034Y15961443D01*
X16493873Y16012963D01*
X16560058Y16019482D01*
X16626240Y16026000D01*
X16714760Y16026000D01*
X16780942Y16019482D01*
X16780942Y16019482D01*
G37*
G36*
X19320942Y16019482D02*
G01*
X19387127Y16012963D01*
X19556966Y15961443D01*
X19713491Y15877778D01*
X19749229Y15848448D01*
X19850686Y15765186D01*
X19933948Y15663729D01*
X19963278Y15627991D01*
X20046943Y15471466D01*
X20098463Y15301627D01*
X20115859Y15125000D01*
X20098463Y14948373D01*
X20046943Y14778534D01*
X19963278Y14622009D01*
X19933948Y14586271D01*
X19850686Y14484814D01*
X19749229Y14401552D01*
X19713491Y14372222D01*
X19556966Y14288557D01*
X19387127Y14237037D01*
X19320942Y14230518D01*
X19254760Y14224000D01*
X19166240Y14224000D01*
X19100058Y14230518D01*
X19033873Y14237037D01*
X18864034Y14288557D01*
X18707509Y14372222D01*
X18671771Y14401552D01*
X18570314Y14484814D01*
X18487052Y14586271D01*
X18457722Y14622009D01*
X18374057Y14778534D01*
X18322537Y14948373D01*
X18305141Y15125000D01*
X18322537Y15301627D01*
X18374057Y15471466D01*
X18457722Y15627991D01*
X18487052Y15663729D01*
X18570314Y15765186D01*
X18671771Y15848448D01*
X18707509Y15877778D01*
X18864034Y15961443D01*
X19033873Y16012963D01*
X19100058Y16019482D01*
X19166240Y16026000D01*
X19254760Y16026000D01*
X19320942Y16019482D01*
X19320942Y16019482D01*
G37*
G36*
X24400942Y16019482D02*
G01*
X24467127Y16012963D01*
X24636966Y15961443D01*
X24793491Y15877778D01*
X24829229Y15848448D01*
X24930686Y15765186D01*
X25013948Y15663729D01*
X25043278Y15627991D01*
X25126943Y15471466D01*
X25178463Y15301627D01*
X25195859Y15125000D01*
X25178463Y14948373D01*
X25126943Y14778534D01*
X25043278Y14622009D01*
X25013948Y14586271D01*
X24930686Y14484814D01*
X24829229Y14401552D01*
X24793491Y14372222D01*
X24636966Y14288557D01*
X24467127Y14237037D01*
X24400942Y14230518D01*
X24334760Y14224000D01*
X24246240Y14224000D01*
X24180058Y14230518D01*
X24113873Y14237037D01*
X23944034Y14288557D01*
X23787509Y14372222D01*
X23751771Y14401552D01*
X23650314Y14484814D01*
X23567052Y14586271D01*
X23537722Y14622009D01*
X23454057Y14778534D01*
X23402537Y14948373D01*
X23385141Y15125000D01*
X23402537Y15301627D01*
X23454057Y15471466D01*
X23537722Y15627991D01*
X23567052Y15663729D01*
X23650314Y15765186D01*
X23751771Y15848448D01*
X23787509Y15877778D01*
X23944034Y15961443D01*
X24113873Y16012963D01*
X24180058Y16019482D01*
X24246240Y16026000D01*
X24334760Y16026000D01*
X24400942Y16019482D01*
X24400942Y16019482D01*
G37*
G36*
X26940942Y16019482D02*
G01*
X27007127Y16012963D01*
X27176966Y15961443D01*
X27333491Y15877778D01*
X27369229Y15848448D01*
X27470686Y15765186D01*
X27553948Y15663729D01*
X27583278Y15627991D01*
X27666943Y15471466D01*
X27718463Y15301627D01*
X27735859Y15125000D01*
X27718463Y14948373D01*
X27666943Y14778534D01*
X27583278Y14622009D01*
X27553948Y14586271D01*
X27470686Y14484814D01*
X27369229Y14401552D01*
X27333491Y14372222D01*
X27176966Y14288557D01*
X27007127Y14237037D01*
X26940942Y14230518D01*
X26874760Y14224000D01*
X26786240Y14224000D01*
X26720058Y14230518D01*
X26653873Y14237037D01*
X26484034Y14288557D01*
X26327509Y14372222D01*
X26291771Y14401552D01*
X26190314Y14484814D01*
X26107052Y14586271D01*
X26077722Y14622009D01*
X25994057Y14778534D01*
X25942537Y14948373D01*
X25925141Y15125000D01*
X25942537Y15301627D01*
X25994057Y15471466D01*
X26077722Y15627991D01*
X26107052Y15663729D01*
X26190314Y15765186D01*
X26291771Y15848448D01*
X26327509Y15877778D01*
X26484034Y15961443D01*
X26653873Y16012963D01*
X26720058Y16019482D01*
X26786240Y16026000D01*
X26874760Y16026000D01*
X26940942Y16019482D01*
X26940942Y16019482D01*
G37*
G36*
X29480942Y16019482D02*
G01*
X29547127Y16012963D01*
X29716966Y15961443D01*
X29873491Y15877778D01*
X29909229Y15848448D01*
X30010686Y15765186D01*
X30093948Y15663729D01*
X30123278Y15627991D01*
X30206943Y15471466D01*
X30258463Y15301627D01*
X30275859Y15125000D01*
X30258463Y14948373D01*
X30206943Y14778534D01*
X30123278Y14622009D01*
X30093948Y14586271D01*
X30010686Y14484814D01*
X29909229Y14401552D01*
X29873491Y14372222D01*
X29716966Y14288557D01*
X29547127Y14237037D01*
X29480942Y14230518D01*
X29414760Y14224000D01*
X29326240Y14224000D01*
X29260058Y14230518D01*
X29193873Y14237037D01*
X29024034Y14288557D01*
X28867509Y14372222D01*
X28831771Y14401552D01*
X28730314Y14484814D01*
X28647052Y14586271D01*
X28617722Y14622009D01*
X28534057Y14778534D01*
X28482537Y14948373D01*
X28465141Y15125000D01*
X28482537Y15301627D01*
X28534057Y15471466D01*
X28617722Y15627991D01*
X28647052Y15663729D01*
X28730314Y15765186D01*
X28831771Y15848448D01*
X28867509Y15877778D01*
X29024034Y15961443D01*
X29193873Y16012963D01*
X29260058Y16019482D01*
X29326240Y16026000D01*
X29414760Y16026000D01*
X29480942Y16019482D01*
X29480942Y16019482D01*
G37*
G36*
X32020942Y16019482D02*
G01*
X32087127Y16012963D01*
X32256966Y15961443D01*
X32413491Y15877778D01*
X32449229Y15848448D01*
X32550686Y15765186D01*
X32633948Y15663729D01*
X32663278Y15627991D01*
X32746943Y15471466D01*
X32798463Y15301627D01*
X32815859Y15125000D01*
X32798463Y14948373D01*
X32746943Y14778534D01*
X32663278Y14622009D01*
X32633948Y14586271D01*
X32550686Y14484814D01*
X32449229Y14401552D01*
X32413491Y14372222D01*
X32256966Y14288557D01*
X32087127Y14237037D01*
X32020942Y14230518D01*
X31954760Y14224000D01*
X31866240Y14224000D01*
X31800058Y14230518D01*
X31733873Y14237037D01*
X31564034Y14288557D01*
X31407509Y14372222D01*
X31371771Y14401552D01*
X31270314Y14484814D01*
X31187052Y14586271D01*
X31157722Y14622009D01*
X31074057Y14778534D01*
X31022537Y14948373D01*
X31005141Y15125000D01*
X31022537Y15301627D01*
X31074057Y15471466D01*
X31157722Y15627991D01*
X31187052Y15663729D01*
X31270314Y15765186D01*
X31371771Y15848448D01*
X31407509Y15877778D01*
X31564034Y15961443D01*
X31733873Y16012963D01*
X31800058Y16019482D01*
X31866240Y16026000D01*
X31954760Y16026000D01*
X32020942Y16019482D01*
X32020942Y16019482D01*
G37*
G36*
X34560942Y16019482D02*
G01*
X34627127Y16012963D01*
X34796966Y15961443D01*
X34953491Y15877778D01*
X34989229Y15848448D01*
X35090686Y15765186D01*
X35173948Y15663729D01*
X35203278Y15627991D01*
X35286943Y15471466D01*
X35338463Y15301627D01*
X35355859Y15125000D01*
X35338463Y14948373D01*
X35286943Y14778534D01*
X35203278Y14622009D01*
X35173948Y14586271D01*
X35090686Y14484814D01*
X34989229Y14401552D01*
X34953491Y14372222D01*
X34796966Y14288557D01*
X34627127Y14237037D01*
X34560942Y14230518D01*
X34494760Y14224000D01*
X34406240Y14224000D01*
X34340058Y14230518D01*
X34273873Y14237037D01*
X34104034Y14288557D01*
X33947509Y14372222D01*
X33911771Y14401552D01*
X33810314Y14484814D01*
X33727052Y14586271D01*
X33697722Y14622009D01*
X33614057Y14778534D01*
X33562537Y14948373D01*
X33545141Y15125000D01*
X33562537Y15301627D01*
X33614057Y15471466D01*
X33697722Y15627991D01*
X33727052Y15663729D01*
X33810314Y15765186D01*
X33911771Y15848448D01*
X33947509Y15877778D01*
X34104034Y15961443D01*
X34273873Y16012963D01*
X34340058Y16019482D01*
X34406240Y16026000D01*
X34494760Y16026000D01*
X34560942Y16019482D01*
X34560942Y16019482D01*
G37*
G36*
X37100942Y16019482D02*
G01*
X37167127Y16012963D01*
X37336966Y15961443D01*
X37493491Y15877778D01*
X37529229Y15848448D01*
X37630686Y15765186D01*
X37713948Y15663729D01*
X37743278Y15627991D01*
X37826943Y15471466D01*
X37878463Y15301627D01*
X37895859Y15125000D01*
X37878463Y14948373D01*
X37826943Y14778534D01*
X37743278Y14622009D01*
X37713948Y14586271D01*
X37630686Y14484814D01*
X37529229Y14401552D01*
X37493491Y14372222D01*
X37336966Y14288557D01*
X37167127Y14237037D01*
X37100942Y14230518D01*
X37034760Y14224000D01*
X36946240Y14224000D01*
X36880058Y14230518D01*
X36813873Y14237037D01*
X36644034Y14288557D01*
X36487509Y14372222D01*
X36451771Y14401552D01*
X36350314Y14484814D01*
X36267052Y14586271D01*
X36237722Y14622009D01*
X36154057Y14778534D01*
X36102537Y14948373D01*
X36085141Y15125000D01*
X36102537Y15301627D01*
X36154057Y15471466D01*
X36237722Y15627991D01*
X36267052Y15663729D01*
X36350314Y15765186D01*
X36451771Y15848448D01*
X36487509Y15877778D01*
X36644034Y15961443D01*
X36813873Y16012963D01*
X36880058Y16019482D01*
X36946240Y16026000D01*
X37034760Y16026000D01*
X37100942Y16019482D01*
X37100942Y16019482D01*
G37*
G36*
X39640942Y16019482D02*
G01*
X39707127Y16012963D01*
X39876966Y15961443D01*
X40033491Y15877778D01*
X40069229Y15848448D01*
X40170686Y15765186D01*
X40253948Y15663729D01*
X40283278Y15627991D01*
X40366943Y15471466D01*
X40418463Y15301627D01*
X40435859Y15125000D01*
X40418463Y14948373D01*
X40366943Y14778534D01*
X40283278Y14622009D01*
X40253948Y14586271D01*
X40170686Y14484814D01*
X40069229Y14401552D01*
X40033491Y14372222D01*
X39876966Y14288557D01*
X39707127Y14237037D01*
X39640942Y14230518D01*
X39574760Y14224000D01*
X39486240Y14224000D01*
X39420058Y14230518D01*
X39353873Y14237037D01*
X39184034Y14288557D01*
X39027509Y14372222D01*
X38991771Y14401552D01*
X38890314Y14484814D01*
X38807052Y14586271D01*
X38777722Y14622009D01*
X38694057Y14778534D01*
X38642537Y14948373D01*
X38625141Y15125000D01*
X38642537Y15301627D01*
X38694057Y15471466D01*
X38777722Y15627991D01*
X38807052Y15663729D01*
X38890314Y15765186D01*
X38991771Y15848448D01*
X39027509Y15877778D01*
X39184034Y15961443D01*
X39353873Y16012963D01*
X39420058Y16019482D01*
X39486240Y16026000D01*
X39574760Y16026000D01*
X39640942Y16019482D01*
X39640942Y16019482D01*
G37*
G36*
X42180942Y16019482D02*
G01*
X42247127Y16012963D01*
X42416966Y15961443D01*
X42573491Y15877778D01*
X42609229Y15848448D01*
X42710686Y15765186D01*
X42793948Y15663729D01*
X42823278Y15627991D01*
X42906943Y15471466D01*
X42958463Y15301627D01*
X42975859Y15125000D01*
X42958463Y14948373D01*
X42906943Y14778534D01*
X42823278Y14622009D01*
X42793948Y14586271D01*
X42710686Y14484814D01*
X42609229Y14401552D01*
X42573491Y14372222D01*
X42416966Y14288557D01*
X42247127Y14237037D01*
X42180942Y14230518D01*
X42114760Y14224000D01*
X42026240Y14224000D01*
X41960058Y14230518D01*
X41893873Y14237037D01*
X41724034Y14288557D01*
X41567509Y14372222D01*
X41531771Y14401552D01*
X41430314Y14484814D01*
X41347052Y14586271D01*
X41317722Y14622009D01*
X41234057Y14778534D01*
X41182537Y14948373D01*
X41165141Y15125000D01*
X41182537Y15301627D01*
X41234057Y15471466D01*
X41317722Y15627991D01*
X41347052Y15663729D01*
X41430314Y15765186D01*
X41531771Y15848448D01*
X41567509Y15877778D01*
X41724034Y15961443D01*
X41893873Y16012963D01*
X41960058Y16019482D01*
X42026240Y16026000D01*
X42114760Y16026000D01*
X42180942Y16019482D01*
X42180942Y16019482D01*
G37*
G36*
X45511500Y14224000D02*
G01*
X43709500Y14224000D01*
X43709500Y16026000D01*
X45511500Y16026000D01*
X45511500Y14224000D01*
X45511500Y14224000D01*
G37*
G36*
X14240942Y16019482D02*
G01*
X14307127Y16012963D01*
X14476966Y15961443D01*
X14633491Y15877778D01*
X14669229Y15848448D01*
X14770686Y15765186D01*
X14853948Y15663729D01*
X14883278Y15627991D01*
X14966943Y15471466D01*
X15018463Y15301627D01*
X15035859Y15125000D01*
X15018463Y14948373D01*
X14966943Y14778534D01*
X14883278Y14622009D01*
X14853948Y14586271D01*
X14770686Y14484814D01*
X14669229Y14401552D01*
X14633491Y14372222D01*
X14476966Y14288557D01*
X14307127Y14237037D01*
X14240942Y14230518D01*
X14174760Y14224000D01*
X14086240Y14224000D01*
X14020058Y14230518D01*
X13953873Y14237037D01*
X13784034Y14288557D01*
X13627509Y14372222D01*
X13591771Y14401552D01*
X13490314Y14484814D01*
X13407052Y14586271D01*
X13377722Y14622009D01*
X13294057Y14778534D01*
X13242537Y14948373D01*
X13225141Y15125000D01*
X13242537Y15301627D01*
X13294057Y15471466D01*
X13377722Y15627991D01*
X13407052Y15663729D01*
X13490314Y15765186D01*
X13591771Y15848448D01*
X13627509Y15877778D01*
X13784034Y15961443D01*
X13953873Y16012963D01*
X14020058Y16019482D01*
X14086240Y16026000D01*
X14174760Y16026000D01*
X14240942Y16019482D01*
X14240942Y16019482D01*
G37*
G36*
X11700942Y16019482D02*
G01*
X11767127Y16012963D01*
X11936966Y15961443D01*
X12093491Y15877778D01*
X12129229Y15848448D01*
X12230686Y15765186D01*
X12313948Y15663729D01*
X12343278Y15627991D01*
X12426943Y15471466D01*
X12478463Y15301627D01*
X12495859Y15125000D01*
X12478463Y14948373D01*
X12426943Y14778534D01*
X12343278Y14622009D01*
X12313948Y14586271D01*
X12230686Y14484814D01*
X12129229Y14401552D01*
X12093491Y14372222D01*
X11936966Y14288557D01*
X11767127Y14237037D01*
X11700942Y14230518D01*
X11634760Y14224000D01*
X11546240Y14224000D01*
X11480058Y14230518D01*
X11413873Y14237037D01*
X11244034Y14288557D01*
X11087509Y14372222D01*
X11051771Y14401552D01*
X10950314Y14484814D01*
X10867052Y14586271D01*
X10837722Y14622009D01*
X10754057Y14778534D01*
X10702537Y14948373D01*
X10685141Y15125000D01*
X10702537Y15301627D01*
X10754057Y15471466D01*
X10837722Y15627991D01*
X10867052Y15663729D01*
X10950314Y15765186D01*
X11051771Y15848448D01*
X11087509Y15877778D01*
X11244034Y15961443D01*
X11413873Y16012963D01*
X11480058Y16019482D01*
X11546240Y16026000D01*
X11634760Y16026000D01*
X11700942Y16019482D01*
X11700942Y16019482D01*
G37*
G36*
X9160942Y16019482D02*
G01*
X9227127Y16012963D01*
X9396966Y15961443D01*
X9553491Y15877778D01*
X9589229Y15848448D01*
X9690686Y15765186D01*
X9773948Y15663729D01*
X9803278Y15627991D01*
X9886943Y15471466D01*
X9938463Y15301627D01*
X9955859Y15125000D01*
X9938463Y14948373D01*
X9886943Y14778534D01*
X9803278Y14622009D01*
X9773948Y14586271D01*
X9690686Y14484814D01*
X9589229Y14401552D01*
X9553491Y14372222D01*
X9396966Y14288557D01*
X9227127Y14237037D01*
X9160942Y14230518D01*
X9094760Y14224000D01*
X9006240Y14224000D01*
X8940058Y14230518D01*
X8873873Y14237037D01*
X8704034Y14288557D01*
X8547509Y14372222D01*
X8511771Y14401552D01*
X8410314Y14484814D01*
X8327052Y14586271D01*
X8297722Y14622009D01*
X8214057Y14778534D01*
X8162537Y14948373D01*
X8145141Y15125000D01*
X8162537Y15301627D01*
X8214057Y15471466D01*
X8297722Y15627991D01*
X8327052Y15663729D01*
X8410314Y15765186D01*
X8511771Y15848448D01*
X8547509Y15877778D01*
X8704034Y15961443D01*
X8873873Y16012963D01*
X8940058Y16019482D01*
X9006240Y16026000D01*
X9094760Y16026000D01*
X9160942Y16019482D01*
X9160942Y16019482D01*
G37*
G36*
X6620942Y16019482D02*
G01*
X6687127Y16012963D01*
X6856966Y15961443D01*
X7013491Y15877778D01*
X7049229Y15848448D01*
X7150686Y15765186D01*
X7233948Y15663729D01*
X7263278Y15627991D01*
X7346943Y15471466D01*
X7398463Y15301627D01*
X7415859Y15125000D01*
X7398463Y14948373D01*
X7346943Y14778534D01*
X7263278Y14622009D01*
X7233948Y14586271D01*
X7150686Y14484814D01*
X7049229Y14401552D01*
X7013491Y14372222D01*
X6856966Y14288557D01*
X6687127Y14237037D01*
X6620942Y14230518D01*
X6554760Y14224000D01*
X6466240Y14224000D01*
X6400058Y14230518D01*
X6333873Y14237037D01*
X6164034Y14288557D01*
X6007509Y14372222D01*
X5971771Y14401552D01*
X5870314Y14484814D01*
X5787052Y14586271D01*
X5757722Y14622009D01*
X5674057Y14778534D01*
X5622537Y14948373D01*
X5605141Y15125000D01*
X5622537Y15301627D01*
X5674057Y15471466D01*
X5757722Y15627991D01*
X5787052Y15663729D01*
X5870314Y15765186D01*
X5971771Y15848448D01*
X6007509Y15877778D01*
X6164034Y15961443D01*
X6333873Y16012963D01*
X6400058Y16019482D01*
X6466240Y16026000D01*
X6554760Y16026000D01*
X6620942Y16019482D01*
X6620942Y16019482D01*
G37*
G36*
X21860942Y16019482D02*
G01*
X21927127Y16012963D01*
X22096966Y15961443D01*
X22253491Y15877778D01*
X22289229Y15848448D01*
X22390686Y15765186D01*
X22473948Y15663729D01*
X22503278Y15627991D01*
X22586943Y15471466D01*
X22638463Y15301627D01*
X22655859Y15125000D01*
X22638463Y14948373D01*
X22586943Y14778534D01*
X22503278Y14622009D01*
X22473948Y14586271D01*
X22390686Y14484814D01*
X22289229Y14401552D01*
X22253491Y14372222D01*
X22096966Y14288557D01*
X21927127Y14237037D01*
X21860942Y14230518D01*
X21794760Y14224000D01*
X21706240Y14224000D01*
X21640058Y14230518D01*
X21573873Y14237037D01*
X21404034Y14288557D01*
X21247509Y14372222D01*
X21211771Y14401552D01*
X21110314Y14484814D01*
X21027052Y14586271D01*
X20997722Y14622009D01*
X20914057Y14778534D01*
X20862537Y14948373D01*
X20845141Y15125000D01*
X20862537Y15301627D01*
X20914057Y15471466D01*
X20997722Y15627991D01*
X21027052Y15663729D01*
X21110314Y15765186D01*
X21211771Y15848448D01*
X21247509Y15877778D01*
X21404034Y15961443D01*
X21573873Y16012963D01*
X21640058Y16019482D01*
X21706240Y16026000D01*
X21794760Y16026000D01*
X21860942Y16019482D01*
X21860942Y16019482D01*
G37*
M02*
