G04 #@! TF.GenerationSoftware,KiCad,Pcbnew,(5.1.4)-1*
G04 #@! TF.CreationDate,2019-09-10T00:03:10+02:00*
G04 #@! TF.ProjectId,Display,44697370-6c61-4792-9e6b-696361645f70,1.0*
G04 #@! TF.SameCoordinates,PXd59f80PY1d905c0*
G04 #@! TF.FileFunction,Legend,Top*
G04 #@! TF.FilePolarity,Positive*
%FSLAX46Y46*%
G04 Gerber Fmt 4.6, Leading zero omitted, Abs format (unit mm)*
G04 Created by KiCad (PCBNEW (5.1.4)-1) date 2019-09-10 00:03:10*
%MOMM*%
%LPD*%
G04 APERTURE LIST*
%ADD10C,0.150000*%
%ADD11C,0.120000*%
%ADD12O,2.134000X2.134000*%
%ADD13R,2.134000X2.134000*%
%ADD14O,1.802000X1.802000*%
%ADD15R,1.802000X1.802000*%
%ADD16O,1.702000X1.702000*%
%ADD17R,1.702000X1.702000*%
%ADD18O,2.502000X2.502000*%
%ADD19C,2.502000*%
%ADD20C,1.702000*%
G04 APERTURE END LIST*
D10*
X31755000Y6412500D02*
X41755000Y6412500D01*
X43190000Y1412500D02*
X43190000Y7212500D01*
X32990000Y2742500D02*
X43190000Y2742500D01*
X30440000Y1412500D02*
X30440000Y7212500D01*
X30440000Y2462500D02*
X31920000Y2462500D01*
X32990000Y5282500D02*
X32990000Y2742500D01*
X30440000Y5562500D02*
X31920000Y5562500D01*
X32990000Y5282500D02*
X43190000Y5282500D01*
X30440000Y7212500D02*
X43190000Y7212500D01*
X30440000Y1412500D02*
X43190000Y1412500D01*
X31755000Y6412500D02*
X31755000Y7212500D01*
X41755000Y6412500D02*
X41755000Y7212500D01*
D11*
X25680500Y2682500D02*
X25680500Y12962500D01*
X5120500Y2682500D02*
X25680500Y2682500D01*
X5120500Y12962500D02*
X5120500Y2682500D01*
X25680500Y12962500D02*
X5120500Y12962500D01*
X25620500Y5172500D02*
X25620500Y6822500D01*
X5180500Y5172500D02*
X25620500Y5172500D01*
X5180500Y10472500D02*
X5180500Y5172500D01*
X25620500Y10472500D02*
X5180500Y10472500D01*
X25620500Y8822500D02*
X25620500Y10472500D01*
X25620500Y6822500D02*
G75*
G02X25620500Y8822500I0J1000000D01*
G01*
X29190000Y12346000D02*
X29190000Y11866000D01*
X39330000Y12346000D02*
X29190000Y12346000D01*
X39330000Y11866000D02*
X39330000Y12346000D01*
X29190000Y8506000D02*
X29190000Y8986000D01*
X39330000Y8506000D02*
X29190000Y8506000D01*
X39330000Y8986000D02*
X39330000Y8506000D01*
X4430000Y13845000D02*
X3950000Y13845000D01*
X4430000Y3705000D02*
X4430000Y13845000D01*
X3950000Y3705000D02*
X4430000Y3705000D01*
X590000Y13845000D02*
X1070000Y13845000D01*
X590000Y3705000D02*
X590000Y13845000D01*
X1070000Y3705000D02*
X590000Y3705000D01*
X28517500Y7082500D02*
X28762500Y7082500D01*
X26422500Y7082500D02*
X26667500Y7082500D01*
X28517500Y3442500D02*
X28762500Y3442500D01*
X26422500Y3442500D02*
X26667500Y3442500D01*
X28762500Y3442500D02*
X28762500Y7082500D01*
X26422500Y3442500D02*
X26422500Y7082500D01*
D10*
X44086666Y4560120D02*
X44086666Y3845834D01*
X44039047Y3702977D01*
X43943809Y3607739D01*
X43800952Y3560120D01*
X43705714Y3560120D01*
X45086666Y3560120D02*
X44515238Y3560120D01*
X44800952Y3560120D02*
X44800952Y4560120D01*
X44705714Y4417262D01*
X44610476Y4322024D01*
X44515238Y4274405D01*
X44801095Y12878620D02*
X44801095Y12069096D01*
X44848714Y11973858D01*
X44896333Y11926239D01*
X44991571Y11878620D01*
X45182047Y11878620D01*
X45277285Y11926239D01*
X45324904Y11973858D01*
X45372523Y12069096D01*
X45372523Y12878620D01*
X46277285Y12545286D02*
X46277285Y11878620D01*
X46039190Y12926239D02*
X45801095Y12211953D01*
X46420142Y12211953D01*
X22738095Y10047620D02*
X22738095Y9238096D01*
X22785714Y9142858D01*
X22833333Y9095239D01*
X22928571Y9047620D01*
X23119047Y9047620D01*
X23214285Y9095239D01*
X23261904Y9142858D01*
X23309523Y9238096D01*
X23309523Y10047620D01*
X23690476Y10047620D02*
X24309523Y10047620D01*
X23976190Y9666667D01*
X24119047Y9666667D01*
X24214285Y9619048D01*
X24261904Y9571429D01*
X24309523Y9476191D01*
X24309523Y9238096D01*
X24261904Y9142858D01*
X24214285Y9095239D01*
X24119047Y9047620D01*
X23833333Y9047620D01*
X23738095Y9095239D01*
X23690476Y9142858D01*
X33140952Y9973620D02*
X32807619Y10449810D01*
X32569523Y9973620D02*
X32569523Y10973620D01*
X32950476Y10973620D01*
X33045714Y10926000D01*
X33093333Y10878381D01*
X33140952Y10783143D01*
X33140952Y10640286D01*
X33093333Y10545048D01*
X33045714Y10497429D01*
X32950476Y10449810D01*
X32569523Y10449810D01*
X33474285Y10973620D02*
X34093333Y10973620D01*
X33760000Y10592667D01*
X33902857Y10592667D01*
X33998095Y10545048D01*
X34045714Y10497429D01*
X34093333Y10402191D01*
X34093333Y10164096D01*
X34045714Y10068858D01*
X33998095Y10021239D01*
X33902857Y9973620D01*
X33617142Y9973620D01*
X33521904Y10021239D01*
X33474285Y10068858D01*
X34712380Y10973620D02*
X34807619Y10973620D01*
X34902857Y10926000D01*
X34950476Y10878381D01*
X34998095Y10783143D01*
X35045714Y10592667D01*
X35045714Y10354572D01*
X34998095Y10164096D01*
X34950476Y10068858D01*
X34902857Y10021239D01*
X34807619Y9973620D01*
X34712380Y9973620D01*
X34617142Y10021239D01*
X34569523Y10068858D01*
X34521904Y10164096D01*
X34474285Y10354572D01*
X34474285Y10592667D01*
X34521904Y10783143D01*
X34569523Y10878381D01*
X34617142Y10926000D01*
X34712380Y10973620D01*
X35426666Y10878381D02*
X35474285Y10926000D01*
X35569523Y10973620D01*
X35807619Y10973620D01*
X35902857Y10926000D01*
X35950476Y10878381D01*
X35998095Y10783143D01*
X35998095Y10687905D01*
X35950476Y10545048D01*
X35379047Y9973620D01*
X35998095Y9973620D01*
X2962380Y7592453D02*
X2486190Y7259120D01*
X2962380Y7021024D02*
X1962380Y7021024D01*
X1962380Y7401977D01*
X2010000Y7497215D01*
X2057619Y7544834D01*
X2152857Y7592453D01*
X2295714Y7592453D01*
X2390952Y7544834D01*
X2438571Y7497215D01*
X2486190Y7401977D01*
X2486190Y7021024D01*
X1962380Y7925786D02*
X1962380Y8544834D01*
X2343333Y8211500D01*
X2343333Y8354358D01*
X2390952Y8449596D01*
X2438571Y8497215D01*
X2533809Y8544834D01*
X2771904Y8544834D01*
X2867142Y8497215D01*
X2914761Y8449596D01*
X2962380Y8354358D01*
X2962380Y8068643D01*
X2914761Y7973405D01*
X2867142Y7925786D01*
X1962380Y9163881D02*
X1962380Y9259120D01*
X2010000Y9354358D01*
X2057619Y9401977D01*
X2152857Y9449596D01*
X2343333Y9497215D01*
X2581428Y9497215D01*
X2771904Y9449596D01*
X2867142Y9401977D01*
X2914761Y9354358D01*
X2962380Y9259120D01*
X2962380Y9163881D01*
X2914761Y9068643D01*
X2867142Y9021024D01*
X2771904Y8973405D01*
X2581428Y8925786D01*
X2343333Y8925786D01*
X2152857Y8973405D01*
X2057619Y9021024D01*
X2010000Y9068643D01*
X1962380Y9163881D01*
X2962380Y10449596D02*
X2962380Y9878167D01*
X2962380Y10163881D02*
X1962380Y10163881D01*
X2105238Y10068643D01*
X2200476Y9973405D01*
X2248095Y9878167D01*
X26473452Y1432858D02*
X26425833Y1385239D01*
X26282976Y1337620D01*
X26187738Y1337620D01*
X26044880Y1385239D01*
X25949642Y1480477D01*
X25902023Y1575715D01*
X25854404Y1766191D01*
X25854404Y1909048D01*
X25902023Y2099524D01*
X25949642Y2194762D01*
X26044880Y2290000D01*
X26187738Y2337620D01*
X26282976Y2337620D01*
X26425833Y2290000D01*
X26473452Y2242381D01*
X26806785Y2337620D02*
X27425833Y2337620D01*
X27092500Y1956667D01*
X27235357Y1956667D01*
X27330595Y1909048D01*
X27378214Y1861429D01*
X27425833Y1766191D01*
X27425833Y1528096D01*
X27378214Y1432858D01*
X27330595Y1385239D01*
X27235357Y1337620D01*
X26949642Y1337620D01*
X26854404Y1385239D01*
X26806785Y1432858D01*
X28044880Y2337620D02*
X28140119Y2337620D01*
X28235357Y2290000D01*
X28282976Y2242381D01*
X28330595Y2147143D01*
X28378214Y1956667D01*
X28378214Y1718572D01*
X28330595Y1528096D01*
X28282976Y1432858D01*
X28235357Y1385239D01*
X28140119Y1337620D01*
X28044880Y1337620D01*
X27949642Y1385239D01*
X27902023Y1432858D01*
X27854404Y1528096D01*
X27806785Y1718572D01*
X27806785Y1956667D01*
X27854404Y2147143D01*
X27902023Y2242381D01*
X27949642Y2290000D01*
X28044880Y2337620D01*
X29330595Y1337620D02*
X28759166Y1337620D01*
X29044880Y1337620D02*
X29044880Y2337620D01*
X28949642Y2194762D01*
X28854404Y2099524D01*
X28759166Y2051905D01*
%LPC*%
D12*
X41880000Y4012500D03*
X39340000Y4012500D03*
X36800000Y4012500D03*
X34260000Y4012500D03*
D13*
X31720000Y4012500D03*
D14*
X6510500Y15125000D03*
X9050500Y15125000D03*
X11590500Y15125000D03*
X14130500Y15125000D03*
X16670500Y15125000D03*
X19210500Y15125000D03*
X21750500Y15125000D03*
X24290500Y15125000D03*
X26830500Y15125000D03*
X29370500Y15125000D03*
X31910500Y15125000D03*
X34450500Y15125000D03*
X36990500Y15125000D03*
X39530500Y15125000D03*
X42070500Y15125000D03*
D15*
X44610500Y15125000D03*
D16*
X24290500Y4012500D03*
X6510500Y11632500D03*
X21750500Y4012500D03*
X9050500Y11632500D03*
X19210500Y4012500D03*
X11590500Y11632500D03*
X16670500Y4012500D03*
X14130500Y11632500D03*
X14130500Y4012500D03*
X16670500Y11632500D03*
X11590500Y4012500D03*
X19210500Y11632500D03*
X9050500Y4012500D03*
X21750500Y11632500D03*
X6510500Y4012500D03*
D17*
X24290500Y11632500D03*
D18*
X27910000Y10426000D03*
D19*
X40610000Y10426000D03*
D18*
X2510000Y15125000D03*
D19*
X2510000Y2425000D03*
D20*
X27592500Y6512500D03*
X27592500Y4012500D03*
M02*
