M48
; DRILL file {KiCad (5.1.5)-2} date 20/02/2020 16:44:00
; FORMAT={3:3/ absolute / metric / suppress leading zeros}
; #@! TF.CreationDate,2020-02-20T16:44:00+01:00
; #@! TF.GenerationSoftware,Kicad,Pcbnew,(5.1.5)-2
; #@! TF.FileFunction,NonPlated,1,2,NPTH
FMAT,2
METRIC,TZ
T1C1.500
T2C2.700
%
G90
G05
T2
X12246Y65135
X12246Y34385
X86946Y65085
X86946Y34385
T1
G00X32610Y2308
M15
G01X32610Y2807
M16
G05
G00X36610Y2308
M15
G01X36610Y2807
M16
G05
G00X83410Y2308
M15
G01X83410Y2807
M16
G05
G00X63090Y2308
M15
G01X63090Y2807
M16
G05
G00X67090Y2308
M15
G01X67090Y2807
M16
G05
G00X42770Y2308
M15
G01X42770Y2807
M16
G05
G00X46770Y2308
M15
G01X46770Y2807
M16
G05
G00X12290Y2308
M15
G01X12290Y2807
M16
G05
G00X16290Y2308
M15
G01X16290Y2807
M16
G05
G00X73250Y2308
M15
G01X73250Y2807
M16
G05
G00X77250Y2308
M15
G01X77250Y2807
M16
G05
G00X52930Y2308
M15
G01X52930Y2807
M16
G05
G00X56930Y2308
M15
G01X56930Y2807
M16
G05
G00X22450Y2308
M15
G01X22450Y2807
M16
G05
G00X26450Y2308
M15
G01X26450Y2807
M16
G05
G00X87410Y2308
M15
G01X87410Y2807
M16
G05
T0
M30
