G04 #@! TF.GenerationSoftware,KiCad,Pcbnew,(5.1.5)-2*
G04 #@! TF.CreationDate,2020-02-20T16:43:49+01:00*
G04 #@! TF.ProjectId,BBMini32,42424d69-6e69-4333-922e-6b696361645f,V1.0*
G04 #@! TF.SameCoordinates,PX1312d00PY55d4a80*
G04 #@! TF.FileFunction,Copper,L1,Top*
G04 #@! TF.FilePolarity,Positive*
%FSLAX46Y46*%
G04 Gerber Fmt 4.6, Leading zero omitted, Abs format (unit mm)*
G04 Created by KiCad (PCBNEW (5.1.5)-2) date 2020-02-20 16:43:49*
%MOMM*%
%LPD*%
G04 APERTURE LIST*
%ADD10C,1.800000*%
%ADD11R,1.800000X1.800000*%
%ADD12C,2.000000*%
%ADD13C,1.500000*%
%ADD14C,6.400000*%
%ADD15C,5.000000*%
%ADD16O,1.600000X1.600000*%
%ADD17R,1.600000X1.600000*%
%ADD18C,0.100000*%
%ADD19C,1.600000*%
%ADD20R,1.050000X1.500000*%
%ADD21O,1.050000X1.500000*%
%ADD22O,1.700000X1.700000*%
%ADD23R,1.700000X1.700000*%
%ADD24C,0.600000*%
%ADD25C,0.250000*%
%ADD26C,0.300000*%
G04 APERTURE END LIST*
D10*
X2860000Y35771000D03*
D11*
X2860000Y33231000D03*
D12*
X10480000Y20785000D03*
X2860000Y20785000D03*
X10480000Y15705000D03*
X2860000Y15705000D03*
X10480000Y29040000D03*
X2860000Y29040000D03*
X10480000Y23960000D03*
X2860000Y23960000D03*
D13*
X65725000Y44280000D03*
X42865000Y44280000D03*
X40325000Y44280000D03*
X60645000Y44280000D03*
X20005000Y44280000D03*
X22545000Y44280000D03*
X25085000Y44280000D03*
X27625000Y44280000D03*
X30165000Y44280000D03*
X32705000Y44280000D03*
X35245000Y44280000D03*
X37785000Y44280000D03*
X63185000Y44280000D03*
X58105000Y44280000D03*
X55565000Y44280000D03*
X53025000Y44280000D03*
X50485000Y44280000D03*
X47945000Y44280000D03*
X45405000Y44280000D03*
X65725000Y18880000D03*
X60645000Y18880000D03*
X20005000Y18880000D03*
X22545000Y18880000D03*
X25085000Y18880000D03*
X27625000Y18880000D03*
X30165000Y18880000D03*
X32705000Y18880000D03*
X35245000Y18880000D03*
X37785000Y18880000D03*
X63185000Y18880000D03*
X58105000Y18880000D03*
X55565000Y18880000D03*
X53025000Y18880000D03*
X50485000Y18880000D03*
X47945000Y18880000D03*
X45405000Y18880000D03*
X42865000Y18880000D03*
X40325000Y18880000D03*
D14*
X5000000Y5000000D03*
X95000000Y5000000D03*
X95000000Y65000000D03*
X5000000Y65000000D03*
D10*
X43496000Y65235000D03*
X46036000Y65235000D03*
X48576000Y65235000D03*
X51116000Y65235000D03*
X53656000Y65235000D03*
X56196000Y65235000D03*
X58736000Y65235000D03*
X61276000Y65235000D03*
X63816000Y65235000D03*
X66356000Y65235000D03*
X68896000Y65235000D03*
X71436000Y65235000D03*
X73976000Y65235000D03*
X76516000Y65235000D03*
X79056000Y65235000D03*
D11*
X81596000Y65235000D03*
D15*
X12246000Y34385000D03*
X86946000Y34385000D03*
X12246000Y65135000D03*
X86946000Y65085000D03*
D16*
X78425000Y25865000D03*
X96205000Y18245000D03*
X80965000Y25865000D03*
X93665000Y18245000D03*
X83505000Y25865000D03*
X91125000Y18245000D03*
X86045000Y25865000D03*
X88585000Y18245000D03*
X88585000Y25865000D03*
X86045000Y18245000D03*
X91125000Y25865000D03*
X83505000Y18245000D03*
X93665000Y25865000D03*
X80965000Y18245000D03*
X96205000Y25865000D03*
D17*
X78425000Y18245000D03*
D16*
X58740000Y55075000D03*
X40960000Y62695000D03*
X56200000Y55075000D03*
X43500000Y62695000D03*
X53660000Y55075000D03*
X46040000Y62695000D03*
X51120000Y55075000D03*
X48580000Y62695000D03*
X48580000Y55075000D03*
X51120000Y62695000D03*
X46040000Y55075000D03*
X53660000Y62695000D03*
X43500000Y55075000D03*
X56200000Y62695000D03*
X40960000Y55075000D03*
D17*
X58740000Y62695000D03*
D13*
X80330000Y10307500D03*
X70170000Y10307500D03*
X60010000Y10307500D03*
X49850000Y10307500D03*
X39690000Y10307500D03*
X29530000Y10307500D03*
X19370000Y10307500D03*
X9210000Y10307500D03*
G04 #@! TA.AperFunction,ComponentPad*
D18*
G36*
X87639405Y8256055D02*
G01*
X87668527Y8251736D01*
X87697085Y8244582D01*
X87724805Y8234664D01*
X87751419Y8222076D01*
X87776671Y8206941D01*
X87800318Y8189403D01*
X87822132Y8169632D01*
X87841903Y8147818D01*
X87859441Y8124171D01*
X87874576Y8098919D01*
X87887164Y8072305D01*
X87897082Y8044585D01*
X87904236Y8016027D01*
X87908555Y7986905D01*
X87910000Y7957500D01*
X87910000Y6457500D01*
X87908555Y6428095D01*
X87904236Y6398973D01*
X87897082Y6370415D01*
X87887164Y6342695D01*
X87874576Y6316081D01*
X87859441Y6290829D01*
X87841903Y6267182D01*
X87822132Y6245368D01*
X87800318Y6225597D01*
X87776671Y6208059D01*
X87751419Y6192924D01*
X87724805Y6180336D01*
X87697085Y6170418D01*
X87668527Y6163264D01*
X87639405Y6158945D01*
X87610000Y6157500D01*
X87010000Y6157500D01*
X86980595Y6158945D01*
X86951473Y6163264D01*
X86922915Y6170418D01*
X86895195Y6180336D01*
X86868581Y6192924D01*
X86843329Y6208059D01*
X86819682Y6225597D01*
X86797868Y6245368D01*
X86778097Y6267182D01*
X86760559Y6290829D01*
X86745424Y6316081D01*
X86732836Y6342695D01*
X86722918Y6370415D01*
X86715764Y6398973D01*
X86711445Y6428095D01*
X86710000Y6457500D01*
X86710000Y7957500D01*
X86711445Y7986905D01*
X86715764Y8016027D01*
X86722918Y8044585D01*
X86732836Y8072305D01*
X86745424Y8098919D01*
X86760559Y8124171D01*
X86778097Y8147818D01*
X86797868Y8169632D01*
X86819682Y8189403D01*
X86843329Y8206941D01*
X86868581Y8222076D01*
X86895195Y8234664D01*
X86922915Y8244582D01*
X86951473Y8251736D01*
X86980595Y8256055D01*
X87010000Y8257500D01*
X87610000Y8257500D01*
X87639405Y8256055D01*
G37*
G04 #@! TD.AperFunction*
G04 #@! TA.AperFunction,ComponentPad*
G36*
X86189405Y10906055D02*
G01*
X86218527Y10901736D01*
X86247085Y10894582D01*
X86274805Y10884664D01*
X86301419Y10872076D01*
X86326671Y10856941D01*
X86350318Y10839403D01*
X86372132Y10819632D01*
X86391903Y10797818D01*
X86409441Y10774171D01*
X86424576Y10748919D01*
X86437164Y10722305D01*
X86447082Y10694585D01*
X86454236Y10666027D01*
X86458555Y10636905D01*
X86460000Y10607500D01*
X86460000Y10007500D01*
X86458555Y9978095D01*
X86454236Y9948973D01*
X86447082Y9920415D01*
X86437164Y9892695D01*
X86424576Y9866081D01*
X86409441Y9840829D01*
X86391903Y9817182D01*
X86372132Y9795368D01*
X86350318Y9775597D01*
X86326671Y9758059D01*
X86301419Y9742924D01*
X86274805Y9730336D01*
X86247085Y9720418D01*
X86218527Y9713264D01*
X86189405Y9708945D01*
X86160000Y9707500D01*
X84660000Y9707500D01*
X84630595Y9708945D01*
X84601473Y9713264D01*
X84572915Y9720418D01*
X84545195Y9730336D01*
X84518581Y9742924D01*
X84493329Y9758059D01*
X84469682Y9775597D01*
X84447868Y9795368D01*
X84428097Y9817182D01*
X84410559Y9840829D01*
X84395424Y9866081D01*
X84382836Y9892695D01*
X84372918Y9920415D01*
X84365764Y9948973D01*
X84361445Y9978095D01*
X84360000Y10007500D01*
X84360000Y10607500D01*
X84361445Y10636905D01*
X84365764Y10666027D01*
X84372918Y10694585D01*
X84382836Y10722305D01*
X84395424Y10748919D01*
X84410559Y10774171D01*
X84428097Y10797818D01*
X84447868Y10819632D01*
X84469682Y10839403D01*
X84493329Y10856941D01*
X84518581Y10872076D01*
X84545195Y10884664D01*
X84572915Y10894582D01*
X84601473Y10901736D01*
X84630595Y10906055D01*
X84660000Y10907500D01*
X86160000Y10907500D01*
X86189405Y10906055D01*
G37*
G04 #@! TD.AperFunction*
G04 #@! TA.AperFunction,ComponentPad*
G36*
X83839405Y8256055D02*
G01*
X83868527Y8251736D01*
X83897085Y8244582D01*
X83924805Y8234664D01*
X83951419Y8222076D01*
X83976671Y8206941D01*
X84000318Y8189403D01*
X84022132Y8169632D01*
X84041903Y8147818D01*
X84059441Y8124171D01*
X84074576Y8098919D01*
X84087164Y8072305D01*
X84097082Y8044585D01*
X84104236Y8016027D01*
X84108555Y7986905D01*
X84110000Y7957500D01*
X84110000Y6457500D01*
X84108555Y6428095D01*
X84104236Y6398973D01*
X84097082Y6370415D01*
X84087164Y6342695D01*
X84074576Y6316081D01*
X84059441Y6290829D01*
X84041903Y6267182D01*
X84022132Y6245368D01*
X84000318Y6225597D01*
X83976671Y6208059D01*
X83951419Y6192924D01*
X83924805Y6180336D01*
X83897085Y6170418D01*
X83868527Y6163264D01*
X83839405Y6158945D01*
X83810000Y6157500D01*
X83210000Y6157500D01*
X83180595Y6158945D01*
X83151473Y6163264D01*
X83122915Y6170418D01*
X83095195Y6180336D01*
X83068581Y6192924D01*
X83043329Y6208059D01*
X83019682Y6225597D01*
X82997868Y6245368D01*
X82978097Y6267182D01*
X82960559Y6290829D01*
X82945424Y6316081D01*
X82932836Y6342695D01*
X82922918Y6370415D01*
X82915764Y6398973D01*
X82911445Y6428095D01*
X82910000Y6457500D01*
X82910000Y7957500D01*
X82911445Y7986905D01*
X82915764Y8016027D01*
X82922918Y8044585D01*
X82932836Y8072305D01*
X82945424Y8098919D01*
X82960559Y8124171D01*
X82978097Y8147818D01*
X82997868Y8169632D01*
X83019682Y8189403D01*
X83043329Y8206941D01*
X83068581Y8222076D01*
X83095195Y8234664D01*
X83122915Y8244582D01*
X83151473Y8251736D01*
X83180595Y8256055D01*
X83210000Y8257500D01*
X83810000Y8257500D01*
X83839405Y8256055D01*
G37*
G04 #@! TD.AperFunction*
G04 #@! TA.AperFunction,ComponentPad*
G36*
X77479405Y8256055D02*
G01*
X77508527Y8251736D01*
X77537085Y8244582D01*
X77564805Y8234664D01*
X77591419Y8222076D01*
X77616671Y8206941D01*
X77640318Y8189403D01*
X77662132Y8169632D01*
X77681903Y8147818D01*
X77699441Y8124171D01*
X77714576Y8098919D01*
X77727164Y8072305D01*
X77737082Y8044585D01*
X77744236Y8016027D01*
X77748555Y7986905D01*
X77750000Y7957500D01*
X77750000Y6457500D01*
X77748555Y6428095D01*
X77744236Y6398973D01*
X77737082Y6370415D01*
X77727164Y6342695D01*
X77714576Y6316081D01*
X77699441Y6290829D01*
X77681903Y6267182D01*
X77662132Y6245368D01*
X77640318Y6225597D01*
X77616671Y6208059D01*
X77591419Y6192924D01*
X77564805Y6180336D01*
X77537085Y6170418D01*
X77508527Y6163264D01*
X77479405Y6158945D01*
X77450000Y6157500D01*
X76850000Y6157500D01*
X76820595Y6158945D01*
X76791473Y6163264D01*
X76762915Y6170418D01*
X76735195Y6180336D01*
X76708581Y6192924D01*
X76683329Y6208059D01*
X76659682Y6225597D01*
X76637868Y6245368D01*
X76618097Y6267182D01*
X76600559Y6290829D01*
X76585424Y6316081D01*
X76572836Y6342695D01*
X76562918Y6370415D01*
X76555764Y6398973D01*
X76551445Y6428095D01*
X76550000Y6457500D01*
X76550000Y7957500D01*
X76551445Y7986905D01*
X76555764Y8016027D01*
X76562918Y8044585D01*
X76572836Y8072305D01*
X76585424Y8098919D01*
X76600559Y8124171D01*
X76618097Y8147818D01*
X76637868Y8169632D01*
X76659682Y8189403D01*
X76683329Y8206941D01*
X76708581Y8222076D01*
X76735195Y8234664D01*
X76762915Y8244582D01*
X76791473Y8251736D01*
X76820595Y8256055D01*
X76850000Y8257500D01*
X77450000Y8257500D01*
X77479405Y8256055D01*
G37*
G04 #@! TD.AperFunction*
G04 #@! TA.AperFunction,ComponentPad*
G36*
X76029405Y10906055D02*
G01*
X76058527Y10901736D01*
X76087085Y10894582D01*
X76114805Y10884664D01*
X76141419Y10872076D01*
X76166671Y10856941D01*
X76190318Y10839403D01*
X76212132Y10819632D01*
X76231903Y10797818D01*
X76249441Y10774171D01*
X76264576Y10748919D01*
X76277164Y10722305D01*
X76287082Y10694585D01*
X76294236Y10666027D01*
X76298555Y10636905D01*
X76300000Y10607500D01*
X76300000Y10007500D01*
X76298555Y9978095D01*
X76294236Y9948973D01*
X76287082Y9920415D01*
X76277164Y9892695D01*
X76264576Y9866081D01*
X76249441Y9840829D01*
X76231903Y9817182D01*
X76212132Y9795368D01*
X76190318Y9775597D01*
X76166671Y9758059D01*
X76141419Y9742924D01*
X76114805Y9730336D01*
X76087085Y9720418D01*
X76058527Y9713264D01*
X76029405Y9708945D01*
X76000000Y9707500D01*
X74500000Y9707500D01*
X74470595Y9708945D01*
X74441473Y9713264D01*
X74412915Y9720418D01*
X74385195Y9730336D01*
X74358581Y9742924D01*
X74333329Y9758059D01*
X74309682Y9775597D01*
X74287868Y9795368D01*
X74268097Y9817182D01*
X74250559Y9840829D01*
X74235424Y9866081D01*
X74222836Y9892695D01*
X74212918Y9920415D01*
X74205764Y9948973D01*
X74201445Y9978095D01*
X74200000Y10007500D01*
X74200000Y10607500D01*
X74201445Y10636905D01*
X74205764Y10666027D01*
X74212918Y10694585D01*
X74222836Y10722305D01*
X74235424Y10748919D01*
X74250559Y10774171D01*
X74268097Y10797818D01*
X74287868Y10819632D01*
X74309682Y10839403D01*
X74333329Y10856941D01*
X74358581Y10872076D01*
X74385195Y10884664D01*
X74412915Y10894582D01*
X74441473Y10901736D01*
X74470595Y10906055D01*
X74500000Y10907500D01*
X76000000Y10907500D01*
X76029405Y10906055D01*
G37*
G04 #@! TD.AperFunction*
G04 #@! TA.AperFunction,ComponentPad*
G36*
X73679405Y8256055D02*
G01*
X73708527Y8251736D01*
X73737085Y8244582D01*
X73764805Y8234664D01*
X73791419Y8222076D01*
X73816671Y8206941D01*
X73840318Y8189403D01*
X73862132Y8169632D01*
X73881903Y8147818D01*
X73899441Y8124171D01*
X73914576Y8098919D01*
X73927164Y8072305D01*
X73937082Y8044585D01*
X73944236Y8016027D01*
X73948555Y7986905D01*
X73950000Y7957500D01*
X73950000Y6457500D01*
X73948555Y6428095D01*
X73944236Y6398973D01*
X73937082Y6370415D01*
X73927164Y6342695D01*
X73914576Y6316081D01*
X73899441Y6290829D01*
X73881903Y6267182D01*
X73862132Y6245368D01*
X73840318Y6225597D01*
X73816671Y6208059D01*
X73791419Y6192924D01*
X73764805Y6180336D01*
X73737085Y6170418D01*
X73708527Y6163264D01*
X73679405Y6158945D01*
X73650000Y6157500D01*
X73050000Y6157500D01*
X73020595Y6158945D01*
X72991473Y6163264D01*
X72962915Y6170418D01*
X72935195Y6180336D01*
X72908581Y6192924D01*
X72883329Y6208059D01*
X72859682Y6225597D01*
X72837868Y6245368D01*
X72818097Y6267182D01*
X72800559Y6290829D01*
X72785424Y6316081D01*
X72772836Y6342695D01*
X72762918Y6370415D01*
X72755764Y6398973D01*
X72751445Y6428095D01*
X72750000Y6457500D01*
X72750000Y7957500D01*
X72751445Y7986905D01*
X72755764Y8016027D01*
X72762918Y8044585D01*
X72772836Y8072305D01*
X72785424Y8098919D01*
X72800559Y8124171D01*
X72818097Y8147818D01*
X72837868Y8169632D01*
X72859682Y8189403D01*
X72883329Y8206941D01*
X72908581Y8222076D01*
X72935195Y8234664D01*
X72962915Y8244582D01*
X72991473Y8251736D01*
X73020595Y8256055D01*
X73050000Y8257500D01*
X73650000Y8257500D01*
X73679405Y8256055D01*
G37*
G04 #@! TD.AperFunction*
G04 #@! TA.AperFunction,ComponentPad*
G36*
X67319405Y8256055D02*
G01*
X67348527Y8251736D01*
X67377085Y8244582D01*
X67404805Y8234664D01*
X67431419Y8222076D01*
X67456671Y8206941D01*
X67480318Y8189403D01*
X67502132Y8169632D01*
X67521903Y8147818D01*
X67539441Y8124171D01*
X67554576Y8098919D01*
X67567164Y8072305D01*
X67577082Y8044585D01*
X67584236Y8016027D01*
X67588555Y7986905D01*
X67590000Y7957500D01*
X67590000Y6457500D01*
X67588555Y6428095D01*
X67584236Y6398973D01*
X67577082Y6370415D01*
X67567164Y6342695D01*
X67554576Y6316081D01*
X67539441Y6290829D01*
X67521903Y6267182D01*
X67502132Y6245368D01*
X67480318Y6225597D01*
X67456671Y6208059D01*
X67431419Y6192924D01*
X67404805Y6180336D01*
X67377085Y6170418D01*
X67348527Y6163264D01*
X67319405Y6158945D01*
X67290000Y6157500D01*
X66690000Y6157500D01*
X66660595Y6158945D01*
X66631473Y6163264D01*
X66602915Y6170418D01*
X66575195Y6180336D01*
X66548581Y6192924D01*
X66523329Y6208059D01*
X66499682Y6225597D01*
X66477868Y6245368D01*
X66458097Y6267182D01*
X66440559Y6290829D01*
X66425424Y6316081D01*
X66412836Y6342695D01*
X66402918Y6370415D01*
X66395764Y6398973D01*
X66391445Y6428095D01*
X66390000Y6457500D01*
X66390000Y7957500D01*
X66391445Y7986905D01*
X66395764Y8016027D01*
X66402918Y8044585D01*
X66412836Y8072305D01*
X66425424Y8098919D01*
X66440559Y8124171D01*
X66458097Y8147818D01*
X66477868Y8169632D01*
X66499682Y8189403D01*
X66523329Y8206941D01*
X66548581Y8222076D01*
X66575195Y8234664D01*
X66602915Y8244582D01*
X66631473Y8251736D01*
X66660595Y8256055D01*
X66690000Y8257500D01*
X67290000Y8257500D01*
X67319405Y8256055D01*
G37*
G04 #@! TD.AperFunction*
G04 #@! TA.AperFunction,ComponentPad*
G36*
X65869405Y10906055D02*
G01*
X65898527Y10901736D01*
X65927085Y10894582D01*
X65954805Y10884664D01*
X65981419Y10872076D01*
X66006671Y10856941D01*
X66030318Y10839403D01*
X66052132Y10819632D01*
X66071903Y10797818D01*
X66089441Y10774171D01*
X66104576Y10748919D01*
X66117164Y10722305D01*
X66127082Y10694585D01*
X66134236Y10666027D01*
X66138555Y10636905D01*
X66140000Y10607500D01*
X66140000Y10007500D01*
X66138555Y9978095D01*
X66134236Y9948973D01*
X66127082Y9920415D01*
X66117164Y9892695D01*
X66104576Y9866081D01*
X66089441Y9840829D01*
X66071903Y9817182D01*
X66052132Y9795368D01*
X66030318Y9775597D01*
X66006671Y9758059D01*
X65981419Y9742924D01*
X65954805Y9730336D01*
X65927085Y9720418D01*
X65898527Y9713264D01*
X65869405Y9708945D01*
X65840000Y9707500D01*
X64340000Y9707500D01*
X64310595Y9708945D01*
X64281473Y9713264D01*
X64252915Y9720418D01*
X64225195Y9730336D01*
X64198581Y9742924D01*
X64173329Y9758059D01*
X64149682Y9775597D01*
X64127868Y9795368D01*
X64108097Y9817182D01*
X64090559Y9840829D01*
X64075424Y9866081D01*
X64062836Y9892695D01*
X64052918Y9920415D01*
X64045764Y9948973D01*
X64041445Y9978095D01*
X64040000Y10007500D01*
X64040000Y10607500D01*
X64041445Y10636905D01*
X64045764Y10666027D01*
X64052918Y10694585D01*
X64062836Y10722305D01*
X64075424Y10748919D01*
X64090559Y10774171D01*
X64108097Y10797818D01*
X64127868Y10819632D01*
X64149682Y10839403D01*
X64173329Y10856941D01*
X64198581Y10872076D01*
X64225195Y10884664D01*
X64252915Y10894582D01*
X64281473Y10901736D01*
X64310595Y10906055D01*
X64340000Y10907500D01*
X65840000Y10907500D01*
X65869405Y10906055D01*
G37*
G04 #@! TD.AperFunction*
G04 #@! TA.AperFunction,ComponentPad*
G36*
X63519405Y8256055D02*
G01*
X63548527Y8251736D01*
X63577085Y8244582D01*
X63604805Y8234664D01*
X63631419Y8222076D01*
X63656671Y8206941D01*
X63680318Y8189403D01*
X63702132Y8169632D01*
X63721903Y8147818D01*
X63739441Y8124171D01*
X63754576Y8098919D01*
X63767164Y8072305D01*
X63777082Y8044585D01*
X63784236Y8016027D01*
X63788555Y7986905D01*
X63790000Y7957500D01*
X63790000Y6457500D01*
X63788555Y6428095D01*
X63784236Y6398973D01*
X63777082Y6370415D01*
X63767164Y6342695D01*
X63754576Y6316081D01*
X63739441Y6290829D01*
X63721903Y6267182D01*
X63702132Y6245368D01*
X63680318Y6225597D01*
X63656671Y6208059D01*
X63631419Y6192924D01*
X63604805Y6180336D01*
X63577085Y6170418D01*
X63548527Y6163264D01*
X63519405Y6158945D01*
X63490000Y6157500D01*
X62890000Y6157500D01*
X62860595Y6158945D01*
X62831473Y6163264D01*
X62802915Y6170418D01*
X62775195Y6180336D01*
X62748581Y6192924D01*
X62723329Y6208059D01*
X62699682Y6225597D01*
X62677868Y6245368D01*
X62658097Y6267182D01*
X62640559Y6290829D01*
X62625424Y6316081D01*
X62612836Y6342695D01*
X62602918Y6370415D01*
X62595764Y6398973D01*
X62591445Y6428095D01*
X62590000Y6457500D01*
X62590000Y7957500D01*
X62591445Y7986905D01*
X62595764Y8016027D01*
X62602918Y8044585D01*
X62612836Y8072305D01*
X62625424Y8098919D01*
X62640559Y8124171D01*
X62658097Y8147818D01*
X62677868Y8169632D01*
X62699682Y8189403D01*
X62723329Y8206941D01*
X62748581Y8222076D01*
X62775195Y8234664D01*
X62802915Y8244582D01*
X62831473Y8251736D01*
X62860595Y8256055D01*
X62890000Y8257500D01*
X63490000Y8257500D01*
X63519405Y8256055D01*
G37*
G04 #@! TD.AperFunction*
G04 #@! TA.AperFunction,ComponentPad*
G36*
X57159405Y8256055D02*
G01*
X57188527Y8251736D01*
X57217085Y8244582D01*
X57244805Y8234664D01*
X57271419Y8222076D01*
X57296671Y8206941D01*
X57320318Y8189403D01*
X57342132Y8169632D01*
X57361903Y8147818D01*
X57379441Y8124171D01*
X57394576Y8098919D01*
X57407164Y8072305D01*
X57417082Y8044585D01*
X57424236Y8016027D01*
X57428555Y7986905D01*
X57430000Y7957500D01*
X57430000Y6457500D01*
X57428555Y6428095D01*
X57424236Y6398973D01*
X57417082Y6370415D01*
X57407164Y6342695D01*
X57394576Y6316081D01*
X57379441Y6290829D01*
X57361903Y6267182D01*
X57342132Y6245368D01*
X57320318Y6225597D01*
X57296671Y6208059D01*
X57271419Y6192924D01*
X57244805Y6180336D01*
X57217085Y6170418D01*
X57188527Y6163264D01*
X57159405Y6158945D01*
X57130000Y6157500D01*
X56530000Y6157500D01*
X56500595Y6158945D01*
X56471473Y6163264D01*
X56442915Y6170418D01*
X56415195Y6180336D01*
X56388581Y6192924D01*
X56363329Y6208059D01*
X56339682Y6225597D01*
X56317868Y6245368D01*
X56298097Y6267182D01*
X56280559Y6290829D01*
X56265424Y6316081D01*
X56252836Y6342695D01*
X56242918Y6370415D01*
X56235764Y6398973D01*
X56231445Y6428095D01*
X56230000Y6457500D01*
X56230000Y7957500D01*
X56231445Y7986905D01*
X56235764Y8016027D01*
X56242918Y8044585D01*
X56252836Y8072305D01*
X56265424Y8098919D01*
X56280559Y8124171D01*
X56298097Y8147818D01*
X56317868Y8169632D01*
X56339682Y8189403D01*
X56363329Y8206941D01*
X56388581Y8222076D01*
X56415195Y8234664D01*
X56442915Y8244582D01*
X56471473Y8251736D01*
X56500595Y8256055D01*
X56530000Y8257500D01*
X57130000Y8257500D01*
X57159405Y8256055D01*
G37*
G04 #@! TD.AperFunction*
G04 #@! TA.AperFunction,ComponentPad*
G36*
X55709405Y10906055D02*
G01*
X55738527Y10901736D01*
X55767085Y10894582D01*
X55794805Y10884664D01*
X55821419Y10872076D01*
X55846671Y10856941D01*
X55870318Y10839403D01*
X55892132Y10819632D01*
X55911903Y10797818D01*
X55929441Y10774171D01*
X55944576Y10748919D01*
X55957164Y10722305D01*
X55967082Y10694585D01*
X55974236Y10666027D01*
X55978555Y10636905D01*
X55980000Y10607500D01*
X55980000Y10007500D01*
X55978555Y9978095D01*
X55974236Y9948973D01*
X55967082Y9920415D01*
X55957164Y9892695D01*
X55944576Y9866081D01*
X55929441Y9840829D01*
X55911903Y9817182D01*
X55892132Y9795368D01*
X55870318Y9775597D01*
X55846671Y9758059D01*
X55821419Y9742924D01*
X55794805Y9730336D01*
X55767085Y9720418D01*
X55738527Y9713264D01*
X55709405Y9708945D01*
X55680000Y9707500D01*
X54180000Y9707500D01*
X54150595Y9708945D01*
X54121473Y9713264D01*
X54092915Y9720418D01*
X54065195Y9730336D01*
X54038581Y9742924D01*
X54013329Y9758059D01*
X53989682Y9775597D01*
X53967868Y9795368D01*
X53948097Y9817182D01*
X53930559Y9840829D01*
X53915424Y9866081D01*
X53902836Y9892695D01*
X53892918Y9920415D01*
X53885764Y9948973D01*
X53881445Y9978095D01*
X53880000Y10007500D01*
X53880000Y10607500D01*
X53881445Y10636905D01*
X53885764Y10666027D01*
X53892918Y10694585D01*
X53902836Y10722305D01*
X53915424Y10748919D01*
X53930559Y10774171D01*
X53948097Y10797818D01*
X53967868Y10819632D01*
X53989682Y10839403D01*
X54013329Y10856941D01*
X54038581Y10872076D01*
X54065195Y10884664D01*
X54092915Y10894582D01*
X54121473Y10901736D01*
X54150595Y10906055D01*
X54180000Y10907500D01*
X55680000Y10907500D01*
X55709405Y10906055D01*
G37*
G04 #@! TD.AperFunction*
G04 #@! TA.AperFunction,ComponentPad*
G36*
X53359405Y8256055D02*
G01*
X53388527Y8251736D01*
X53417085Y8244582D01*
X53444805Y8234664D01*
X53471419Y8222076D01*
X53496671Y8206941D01*
X53520318Y8189403D01*
X53542132Y8169632D01*
X53561903Y8147818D01*
X53579441Y8124171D01*
X53594576Y8098919D01*
X53607164Y8072305D01*
X53617082Y8044585D01*
X53624236Y8016027D01*
X53628555Y7986905D01*
X53630000Y7957500D01*
X53630000Y6457500D01*
X53628555Y6428095D01*
X53624236Y6398973D01*
X53617082Y6370415D01*
X53607164Y6342695D01*
X53594576Y6316081D01*
X53579441Y6290829D01*
X53561903Y6267182D01*
X53542132Y6245368D01*
X53520318Y6225597D01*
X53496671Y6208059D01*
X53471419Y6192924D01*
X53444805Y6180336D01*
X53417085Y6170418D01*
X53388527Y6163264D01*
X53359405Y6158945D01*
X53330000Y6157500D01*
X52730000Y6157500D01*
X52700595Y6158945D01*
X52671473Y6163264D01*
X52642915Y6170418D01*
X52615195Y6180336D01*
X52588581Y6192924D01*
X52563329Y6208059D01*
X52539682Y6225597D01*
X52517868Y6245368D01*
X52498097Y6267182D01*
X52480559Y6290829D01*
X52465424Y6316081D01*
X52452836Y6342695D01*
X52442918Y6370415D01*
X52435764Y6398973D01*
X52431445Y6428095D01*
X52430000Y6457500D01*
X52430000Y7957500D01*
X52431445Y7986905D01*
X52435764Y8016027D01*
X52442918Y8044585D01*
X52452836Y8072305D01*
X52465424Y8098919D01*
X52480559Y8124171D01*
X52498097Y8147818D01*
X52517868Y8169632D01*
X52539682Y8189403D01*
X52563329Y8206941D01*
X52588581Y8222076D01*
X52615195Y8234664D01*
X52642915Y8244582D01*
X52671473Y8251736D01*
X52700595Y8256055D01*
X52730000Y8257500D01*
X53330000Y8257500D01*
X53359405Y8256055D01*
G37*
G04 #@! TD.AperFunction*
G04 #@! TA.AperFunction,ComponentPad*
G36*
X46999405Y8256055D02*
G01*
X47028527Y8251736D01*
X47057085Y8244582D01*
X47084805Y8234664D01*
X47111419Y8222076D01*
X47136671Y8206941D01*
X47160318Y8189403D01*
X47182132Y8169632D01*
X47201903Y8147818D01*
X47219441Y8124171D01*
X47234576Y8098919D01*
X47247164Y8072305D01*
X47257082Y8044585D01*
X47264236Y8016027D01*
X47268555Y7986905D01*
X47270000Y7957500D01*
X47270000Y6457500D01*
X47268555Y6428095D01*
X47264236Y6398973D01*
X47257082Y6370415D01*
X47247164Y6342695D01*
X47234576Y6316081D01*
X47219441Y6290829D01*
X47201903Y6267182D01*
X47182132Y6245368D01*
X47160318Y6225597D01*
X47136671Y6208059D01*
X47111419Y6192924D01*
X47084805Y6180336D01*
X47057085Y6170418D01*
X47028527Y6163264D01*
X46999405Y6158945D01*
X46970000Y6157500D01*
X46370000Y6157500D01*
X46340595Y6158945D01*
X46311473Y6163264D01*
X46282915Y6170418D01*
X46255195Y6180336D01*
X46228581Y6192924D01*
X46203329Y6208059D01*
X46179682Y6225597D01*
X46157868Y6245368D01*
X46138097Y6267182D01*
X46120559Y6290829D01*
X46105424Y6316081D01*
X46092836Y6342695D01*
X46082918Y6370415D01*
X46075764Y6398973D01*
X46071445Y6428095D01*
X46070000Y6457500D01*
X46070000Y7957500D01*
X46071445Y7986905D01*
X46075764Y8016027D01*
X46082918Y8044585D01*
X46092836Y8072305D01*
X46105424Y8098919D01*
X46120559Y8124171D01*
X46138097Y8147818D01*
X46157868Y8169632D01*
X46179682Y8189403D01*
X46203329Y8206941D01*
X46228581Y8222076D01*
X46255195Y8234664D01*
X46282915Y8244582D01*
X46311473Y8251736D01*
X46340595Y8256055D01*
X46370000Y8257500D01*
X46970000Y8257500D01*
X46999405Y8256055D01*
G37*
G04 #@! TD.AperFunction*
G04 #@! TA.AperFunction,ComponentPad*
G36*
X45549405Y10906055D02*
G01*
X45578527Y10901736D01*
X45607085Y10894582D01*
X45634805Y10884664D01*
X45661419Y10872076D01*
X45686671Y10856941D01*
X45710318Y10839403D01*
X45732132Y10819632D01*
X45751903Y10797818D01*
X45769441Y10774171D01*
X45784576Y10748919D01*
X45797164Y10722305D01*
X45807082Y10694585D01*
X45814236Y10666027D01*
X45818555Y10636905D01*
X45820000Y10607500D01*
X45820000Y10007500D01*
X45818555Y9978095D01*
X45814236Y9948973D01*
X45807082Y9920415D01*
X45797164Y9892695D01*
X45784576Y9866081D01*
X45769441Y9840829D01*
X45751903Y9817182D01*
X45732132Y9795368D01*
X45710318Y9775597D01*
X45686671Y9758059D01*
X45661419Y9742924D01*
X45634805Y9730336D01*
X45607085Y9720418D01*
X45578527Y9713264D01*
X45549405Y9708945D01*
X45520000Y9707500D01*
X44020000Y9707500D01*
X43990595Y9708945D01*
X43961473Y9713264D01*
X43932915Y9720418D01*
X43905195Y9730336D01*
X43878581Y9742924D01*
X43853329Y9758059D01*
X43829682Y9775597D01*
X43807868Y9795368D01*
X43788097Y9817182D01*
X43770559Y9840829D01*
X43755424Y9866081D01*
X43742836Y9892695D01*
X43732918Y9920415D01*
X43725764Y9948973D01*
X43721445Y9978095D01*
X43720000Y10007500D01*
X43720000Y10607500D01*
X43721445Y10636905D01*
X43725764Y10666027D01*
X43732918Y10694585D01*
X43742836Y10722305D01*
X43755424Y10748919D01*
X43770559Y10774171D01*
X43788097Y10797818D01*
X43807868Y10819632D01*
X43829682Y10839403D01*
X43853329Y10856941D01*
X43878581Y10872076D01*
X43905195Y10884664D01*
X43932915Y10894582D01*
X43961473Y10901736D01*
X43990595Y10906055D01*
X44020000Y10907500D01*
X45520000Y10907500D01*
X45549405Y10906055D01*
G37*
G04 #@! TD.AperFunction*
G04 #@! TA.AperFunction,ComponentPad*
G36*
X43199405Y8256055D02*
G01*
X43228527Y8251736D01*
X43257085Y8244582D01*
X43284805Y8234664D01*
X43311419Y8222076D01*
X43336671Y8206941D01*
X43360318Y8189403D01*
X43382132Y8169632D01*
X43401903Y8147818D01*
X43419441Y8124171D01*
X43434576Y8098919D01*
X43447164Y8072305D01*
X43457082Y8044585D01*
X43464236Y8016027D01*
X43468555Y7986905D01*
X43470000Y7957500D01*
X43470000Y6457500D01*
X43468555Y6428095D01*
X43464236Y6398973D01*
X43457082Y6370415D01*
X43447164Y6342695D01*
X43434576Y6316081D01*
X43419441Y6290829D01*
X43401903Y6267182D01*
X43382132Y6245368D01*
X43360318Y6225597D01*
X43336671Y6208059D01*
X43311419Y6192924D01*
X43284805Y6180336D01*
X43257085Y6170418D01*
X43228527Y6163264D01*
X43199405Y6158945D01*
X43170000Y6157500D01*
X42570000Y6157500D01*
X42540595Y6158945D01*
X42511473Y6163264D01*
X42482915Y6170418D01*
X42455195Y6180336D01*
X42428581Y6192924D01*
X42403329Y6208059D01*
X42379682Y6225597D01*
X42357868Y6245368D01*
X42338097Y6267182D01*
X42320559Y6290829D01*
X42305424Y6316081D01*
X42292836Y6342695D01*
X42282918Y6370415D01*
X42275764Y6398973D01*
X42271445Y6428095D01*
X42270000Y6457500D01*
X42270000Y7957500D01*
X42271445Y7986905D01*
X42275764Y8016027D01*
X42282918Y8044585D01*
X42292836Y8072305D01*
X42305424Y8098919D01*
X42320559Y8124171D01*
X42338097Y8147818D01*
X42357868Y8169632D01*
X42379682Y8189403D01*
X42403329Y8206941D01*
X42428581Y8222076D01*
X42455195Y8234664D01*
X42482915Y8244582D01*
X42511473Y8251736D01*
X42540595Y8256055D01*
X42570000Y8257500D01*
X43170000Y8257500D01*
X43199405Y8256055D01*
G37*
G04 #@! TD.AperFunction*
G04 #@! TA.AperFunction,ComponentPad*
G36*
X36839405Y8256055D02*
G01*
X36868527Y8251736D01*
X36897085Y8244582D01*
X36924805Y8234664D01*
X36951419Y8222076D01*
X36976671Y8206941D01*
X37000318Y8189403D01*
X37022132Y8169632D01*
X37041903Y8147818D01*
X37059441Y8124171D01*
X37074576Y8098919D01*
X37087164Y8072305D01*
X37097082Y8044585D01*
X37104236Y8016027D01*
X37108555Y7986905D01*
X37110000Y7957500D01*
X37110000Y6457500D01*
X37108555Y6428095D01*
X37104236Y6398973D01*
X37097082Y6370415D01*
X37087164Y6342695D01*
X37074576Y6316081D01*
X37059441Y6290829D01*
X37041903Y6267182D01*
X37022132Y6245368D01*
X37000318Y6225597D01*
X36976671Y6208059D01*
X36951419Y6192924D01*
X36924805Y6180336D01*
X36897085Y6170418D01*
X36868527Y6163264D01*
X36839405Y6158945D01*
X36810000Y6157500D01*
X36210000Y6157500D01*
X36180595Y6158945D01*
X36151473Y6163264D01*
X36122915Y6170418D01*
X36095195Y6180336D01*
X36068581Y6192924D01*
X36043329Y6208059D01*
X36019682Y6225597D01*
X35997868Y6245368D01*
X35978097Y6267182D01*
X35960559Y6290829D01*
X35945424Y6316081D01*
X35932836Y6342695D01*
X35922918Y6370415D01*
X35915764Y6398973D01*
X35911445Y6428095D01*
X35910000Y6457500D01*
X35910000Y7957500D01*
X35911445Y7986905D01*
X35915764Y8016027D01*
X35922918Y8044585D01*
X35932836Y8072305D01*
X35945424Y8098919D01*
X35960559Y8124171D01*
X35978097Y8147818D01*
X35997868Y8169632D01*
X36019682Y8189403D01*
X36043329Y8206941D01*
X36068581Y8222076D01*
X36095195Y8234664D01*
X36122915Y8244582D01*
X36151473Y8251736D01*
X36180595Y8256055D01*
X36210000Y8257500D01*
X36810000Y8257500D01*
X36839405Y8256055D01*
G37*
G04 #@! TD.AperFunction*
G04 #@! TA.AperFunction,ComponentPad*
G36*
X35389405Y10906055D02*
G01*
X35418527Y10901736D01*
X35447085Y10894582D01*
X35474805Y10884664D01*
X35501419Y10872076D01*
X35526671Y10856941D01*
X35550318Y10839403D01*
X35572132Y10819632D01*
X35591903Y10797818D01*
X35609441Y10774171D01*
X35624576Y10748919D01*
X35637164Y10722305D01*
X35647082Y10694585D01*
X35654236Y10666027D01*
X35658555Y10636905D01*
X35660000Y10607500D01*
X35660000Y10007500D01*
X35658555Y9978095D01*
X35654236Y9948973D01*
X35647082Y9920415D01*
X35637164Y9892695D01*
X35624576Y9866081D01*
X35609441Y9840829D01*
X35591903Y9817182D01*
X35572132Y9795368D01*
X35550318Y9775597D01*
X35526671Y9758059D01*
X35501419Y9742924D01*
X35474805Y9730336D01*
X35447085Y9720418D01*
X35418527Y9713264D01*
X35389405Y9708945D01*
X35360000Y9707500D01*
X33860000Y9707500D01*
X33830595Y9708945D01*
X33801473Y9713264D01*
X33772915Y9720418D01*
X33745195Y9730336D01*
X33718581Y9742924D01*
X33693329Y9758059D01*
X33669682Y9775597D01*
X33647868Y9795368D01*
X33628097Y9817182D01*
X33610559Y9840829D01*
X33595424Y9866081D01*
X33582836Y9892695D01*
X33572918Y9920415D01*
X33565764Y9948973D01*
X33561445Y9978095D01*
X33560000Y10007500D01*
X33560000Y10607500D01*
X33561445Y10636905D01*
X33565764Y10666027D01*
X33572918Y10694585D01*
X33582836Y10722305D01*
X33595424Y10748919D01*
X33610559Y10774171D01*
X33628097Y10797818D01*
X33647868Y10819632D01*
X33669682Y10839403D01*
X33693329Y10856941D01*
X33718581Y10872076D01*
X33745195Y10884664D01*
X33772915Y10894582D01*
X33801473Y10901736D01*
X33830595Y10906055D01*
X33860000Y10907500D01*
X35360000Y10907500D01*
X35389405Y10906055D01*
G37*
G04 #@! TD.AperFunction*
G04 #@! TA.AperFunction,ComponentPad*
G36*
X33039405Y8256055D02*
G01*
X33068527Y8251736D01*
X33097085Y8244582D01*
X33124805Y8234664D01*
X33151419Y8222076D01*
X33176671Y8206941D01*
X33200318Y8189403D01*
X33222132Y8169632D01*
X33241903Y8147818D01*
X33259441Y8124171D01*
X33274576Y8098919D01*
X33287164Y8072305D01*
X33297082Y8044585D01*
X33304236Y8016027D01*
X33308555Y7986905D01*
X33310000Y7957500D01*
X33310000Y6457500D01*
X33308555Y6428095D01*
X33304236Y6398973D01*
X33297082Y6370415D01*
X33287164Y6342695D01*
X33274576Y6316081D01*
X33259441Y6290829D01*
X33241903Y6267182D01*
X33222132Y6245368D01*
X33200318Y6225597D01*
X33176671Y6208059D01*
X33151419Y6192924D01*
X33124805Y6180336D01*
X33097085Y6170418D01*
X33068527Y6163264D01*
X33039405Y6158945D01*
X33010000Y6157500D01*
X32410000Y6157500D01*
X32380595Y6158945D01*
X32351473Y6163264D01*
X32322915Y6170418D01*
X32295195Y6180336D01*
X32268581Y6192924D01*
X32243329Y6208059D01*
X32219682Y6225597D01*
X32197868Y6245368D01*
X32178097Y6267182D01*
X32160559Y6290829D01*
X32145424Y6316081D01*
X32132836Y6342695D01*
X32122918Y6370415D01*
X32115764Y6398973D01*
X32111445Y6428095D01*
X32110000Y6457500D01*
X32110000Y7957500D01*
X32111445Y7986905D01*
X32115764Y8016027D01*
X32122918Y8044585D01*
X32132836Y8072305D01*
X32145424Y8098919D01*
X32160559Y8124171D01*
X32178097Y8147818D01*
X32197868Y8169632D01*
X32219682Y8189403D01*
X32243329Y8206941D01*
X32268581Y8222076D01*
X32295195Y8234664D01*
X32322915Y8244582D01*
X32351473Y8251736D01*
X32380595Y8256055D01*
X32410000Y8257500D01*
X33010000Y8257500D01*
X33039405Y8256055D01*
G37*
G04 #@! TD.AperFunction*
G04 #@! TA.AperFunction,ComponentPad*
G36*
X26679405Y8256055D02*
G01*
X26708527Y8251736D01*
X26737085Y8244582D01*
X26764805Y8234664D01*
X26791419Y8222076D01*
X26816671Y8206941D01*
X26840318Y8189403D01*
X26862132Y8169632D01*
X26881903Y8147818D01*
X26899441Y8124171D01*
X26914576Y8098919D01*
X26927164Y8072305D01*
X26937082Y8044585D01*
X26944236Y8016027D01*
X26948555Y7986905D01*
X26950000Y7957500D01*
X26950000Y6457500D01*
X26948555Y6428095D01*
X26944236Y6398973D01*
X26937082Y6370415D01*
X26927164Y6342695D01*
X26914576Y6316081D01*
X26899441Y6290829D01*
X26881903Y6267182D01*
X26862132Y6245368D01*
X26840318Y6225597D01*
X26816671Y6208059D01*
X26791419Y6192924D01*
X26764805Y6180336D01*
X26737085Y6170418D01*
X26708527Y6163264D01*
X26679405Y6158945D01*
X26650000Y6157500D01*
X26050000Y6157500D01*
X26020595Y6158945D01*
X25991473Y6163264D01*
X25962915Y6170418D01*
X25935195Y6180336D01*
X25908581Y6192924D01*
X25883329Y6208059D01*
X25859682Y6225597D01*
X25837868Y6245368D01*
X25818097Y6267182D01*
X25800559Y6290829D01*
X25785424Y6316081D01*
X25772836Y6342695D01*
X25762918Y6370415D01*
X25755764Y6398973D01*
X25751445Y6428095D01*
X25750000Y6457500D01*
X25750000Y7957500D01*
X25751445Y7986905D01*
X25755764Y8016027D01*
X25762918Y8044585D01*
X25772836Y8072305D01*
X25785424Y8098919D01*
X25800559Y8124171D01*
X25818097Y8147818D01*
X25837868Y8169632D01*
X25859682Y8189403D01*
X25883329Y8206941D01*
X25908581Y8222076D01*
X25935195Y8234664D01*
X25962915Y8244582D01*
X25991473Y8251736D01*
X26020595Y8256055D01*
X26050000Y8257500D01*
X26650000Y8257500D01*
X26679405Y8256055D01*
G37*
G04 #@! TD.AperFunction*
G04 #@! TA.AperFunction,ComponentPad*
G36*
X25229405Y10906055D02*
G01*
X25258527Y10901736D01*
X25287085Y10894582D01*
X25314805Y10884664D01*
X25341419Y10872076D01*
X25366671Y10856941D01*
X25390318Y10839403D01*
X25412132Y10819632D01*
X25431903Y10797818D01*
X25449441Y10774171D01*
X25464576Y10748919D01*
X25477164Y10722305D01*
X25487082Y10694585D01*
X25494236Y10666027D01*
X25498555Y10636905D01*
X25500000Y10607500D01*
X25500000Y10007500D01*
X25498555Y9978095D01*
X25494236Y9948973D01*
X25487082Y9920415D01*
X25477164Y9892695D01*
X25464576Y9866081D01*
X25449441Y9840829D01*
X25431903Y9817182D01*
X25412132Y9795368D01*
X25390318Y9775597D01*
X25366671Y9758059D01*
X25341419Y9742924D01*
X25314805Y9730336D01*
X25287085Y9720418D01*
X25258527Y9713264D01*
X25229405Y9708945D01*
X25200000Y9707500D01*
X23700000Y9707500D01*
X23670595Y9708945D01*
X23641473Y9713264D01*
X23612915Y9720418D01*
X23585195Y9730336D01*
X23558581Y9742924D01*
X23533329Y9758059D01*
X23509682Y9775597D01*
X23487868Y9795368D01*
X23468097Y9817182D01*
X23450559Y9840829D01*
X23435424Y9866081D01*
X23422836Y9892695D01*
X23412918Y9920415D01*
X23405764Y9948973D01*
X23401445Y9978095D01*
X23400000Y10007500D01*
X23400000Y10607500D01*
X23401445Y10636905D01*
X23405764Y10666027D01*
X23412918Y10694585D01*
X23422836Y10722305D01*
X23435424Y10748919D01*
X23450559Y10774171D01*
X23468097Y10797818D01*
X23487868Y10819632D01*
X23509682Y10839403D01*
X23533329Y10856941D01*
X23558581Y10872076D01*
X23585195Y10884664D01*
X23612915Y10894582D01*
X23641473Y10901736D01*
X23670595Y10906055D01*
X23700000Y10907500D01*
X25200000Y10907500D01*
X25229405Y10906055D01*
G37*
G04 #@! TD.AperFunction*
G04 #@! TA.AperFunction,ComponentPad*
G36*
X22879405Y8256055D02*
G01*
X22908527Y8251736D01*
X22937085Y8244582D01*
X22964805Y8234664D01*
X22991419Y8222076D01*
X23016671Y8206941D01*
X23040318Y8189403D01*
X23062132Y8169632D01*
X23081903Y8147818D01*
X23099441Y8124171D01*
X23114576Y8098919D01*
X23127164Y8072305D01*
X23137082Y8044585D01*
X23144236Y8016027D01*
X23148555Y7986905D01*
X23150000Y7957500D01*
X23150000Y6457500D01*
X23148555Y6428095D01*
X23144236Y6398973D01*
X23137082Y6370415D01*
X23127164Y6342695D01*
X23114576Y6316081D01*
X23099441Y6290829D01*
X23081903Y6267182D01*
X23062132Y6245368D01*
X23040318Y6225597D01*
X23016671Y6208059D01*
X22991419Y6192924D01*
X22964805Y6180336D01*
X22937085Y6170418D01*
X22908527Y6163264D01*
X22879405Y6158945D01*
X22850000Y6157500D01*
X22250000Y6157500D01*
X22220595Y6158945D01*
X22191473Y6163264D01*
X22162915Y6170418D01*
X22135195Y6180336D01*
X22108581Y6192924D01*
X22083329Y6208059D01*
X22059682Y6225597D01*
X22037868Y6245368D01*
X22018097Y6267182D01*
X22000559Y6290829D01*
X21985424Y6316081D01*
X21972836Y6342695D01*
X21962918Y6370415D01*
X21955764Y6398973D01*
X21951445Y6428095D01*
X21950000Y6457500D01*
X21950000Y7957500D01*
X21951445Y7986905D01*
X21955764Y8016027D01*
X21962918Y8044585D01*
X21972836Y8072305D01*
X21985424Y8098919D01*
X22000559Y8124171D01*
X22018097Y8147818D01*
X22037868Y8169632D01*
X22059682Y8189403D01*
X22083329Y8206941D01*
X22108581Y8222076D01*
X22135195Y8234664D01*
X22162915Y8244582D01*
X22191473Y8251736D01*
X22220595Y8256055D01*
X22250000Y8257500D01*
X22850000Y8257500D01*
X22879405Y8256055D01*
G37*
G04 #@! TD.AperFunction*
G04 #@! TA.AperFunction,ComponentPad*
G36*
X16519405Y8256055D02*
G01*
X16548527Y8251736D01*
X16577085Y8244582D01*
X16604805Y8234664D01*
X16631419Y8222076D01*
X16656671Y8206941D01*
X16680318Y8189403D01*
X16702132Y8169632D01*
X16721903Y8147818D01*
X16739441Y8124171D01*
X16754576Y8098919D01*
X16767164Y8072305D01*
X16777082Y8044585D01*
X16784236Y8016027D01*
X16788555Y7986905D01*
X16790000Y7957500D01*
X16790000Y6457500D01*
X16788555Y6428095D01*
X16784236Y6398973D01*
X16777082Y6370415D01*
X16767164Y6342695D01*
X16754576Y6316081D01*
X16739441Y6290829D01*
X16721903Y6267182D01*
X16702132Y6245368D01*
X16680318Y6225597D01*
X16656671Y6208059D01*
X16631419Y6192924D01*
X16604805Y6180336D01*
X16577085Y6170418D01*
X16548527Y6163264D01*
X16519405Y6158945D01*
X16490000Y6157500D01*
X15890000Y6157500D01*
X15860595Y6158945D01*
X15831473Y6163264D01*
X15802915Y6170418D01*
X15775195Y6180336D01*
X15748581Y6192924D01*
X15723329Y6208059D01*
X15699682Y6225597D01*
X15677868Y6245368D01*
X15658097Y6267182D01*
X15640559Y6290829D01*
X15625424Y6316081D01*
X15612836Y6342695D01*
X15602918Y6370415D01*
X15595764Y6398973D01*
X15591445Y6428095D01*
X15590000Y6457500D01*
X15590000Y7957500D01*
X15591445Y7986905D01*
X15595764Y8016027D01*
X15602918Y8044585D01*
X15612836Y8072305D01*
X15625424Y8098919D01*
X15640559Y8124171D01*
X15658097Y8147818D01*
X15677868Y8169632D01*
X15699682Y8189403D01*
X15723329Y8206941D01*
X15748581Y8222076D01*
X15775195Y8234664D01*
X15802915Y8244582D01*
X15831473Y8251736D01*
X15860595Y8256055D01*
X15890000Y8257500D01*
X16490000Y8257500D01*
X16519405Y8256055D01*
G37*
G04 #@! TD.AperFunction*
G04 #@! TA.AperFunction,ComponentPad*
G36*
X15069405Y10906055D02*
G01*
X15098527Y10901736D01*
X15127085Y10894582D01*
X15154805Y10884664D01*
X15181419Y10872076D01*
X15206671Y10856941D01*
X15230318Y10839403D01*
X15252132Y10819632D01*
X15271903Y10797818D01*
X15289441Y10774171D01*
X15304576Y10748919D01*
X15317164Y10722305D01*
X15327082Y10694585D01*
X15334236Y10666027D01*
X15338555Y10636905D01*
X15340000Y10607500D01*
X15340000Y10007500D01*
X15338555Y9978095D01*
X15334236Y9948973D01*
X15327082Y9920415D01*
X15317164Y9892695D01*
X15304576Y9866081D01*
X15289441Y9840829D01*
X15271903Y9817182D01*
X15252132Y9795368D01*
X15230318Y9775597D01*
X15206671Y9758059D01*
X15181419Y9742924D01*
X15154805Y9730336D01*
X15127085Y9720418D01*
X15098527Y9713264D01*
X15069405Y9708945D01*
X15040000Y9707500D01*
X13540000Y9707500D01*
X13510595Y9708945D01*
X13481473Y9713264D01*
X13452915Y9720418D01*
X13425195Y9730336D01*
X13398581Y9742924D01*
X13373329Y9758059D01*
X13349682Y9775597D01*
X13327868Y9795368D01*
X13308097Y9817182D01*
X13290559Y9840829D01*
X13275424Y9866081D01*
X13262836Y9892695D01*
X13252918Y9920415D01*
X13245764Y9948973D01*
X13241445Y9978095D01*
X13240000Y10007500D01*
X13240000Y10607500D01*
X13241445Y10636905D01*
X13245764Y10666027D01*
X13252918Y10694585D01*
X13262836Y10722305D01*
X13275424Y10748919D01*
X13290559Y10774171D01*
X13308097Y10797818D01*
X13327868Y10819632D01*
X13349682Y10839403D01*
X13373329Y10856941D01*
X13398581Y10872076D01*
X13425195Y10884664D01*
X13452915Y10894582D01*
X13481473Y10901736D01*
X13510595Y10906055D01*
X13540000Y10907500D01*
X15040000Y10907500D01*
X15069405Y10906055D01*
G37*
G04 #@! TD.AperFunction*
G04 #@! TA.AperFunction,ComponentPad*
G36*
X12719405Y8256055D02*
G01*
X12748527Y8251736D01*
X12777085Y8244582D01*
X12804805Y8234664D01*
X12831419Y8222076D01*
X12856671Y8206941D01*
X12880318Y8189403D01*
X12902132Y8169632D01*
X12921903Y8147818D01*
X12939441Y8124171D01*
X12954576Y8098919D01*
X12967164Y8072305D01*
X12977082Y8044585D01*
X12984236Y8016027D01*
X12988555Y7986905D01*
X12990000Y7957500D01*
X12990000Y6457500D01*
X12988555Y6428095D01*
X12984236Y6398973D01*
X12977082Y6370415D01*
X12967164Y6342695D01*
X12954576Y6316081D01*
X12939441Y6290829D01*
X12921903Y6267182D01*
X12902132Y6245368D01*
X12880318Y6225597D01*
X12856671Y6208059D01*
X12831419Y6192924D01*
X12804805Y6180336D01*
X12777085Y6170418D01*
X12748527Y6163264D01*
X12719405Y6158945D01*
X12690000Y6157500D01*
X12090000Y6157500D01*
X12060595Y6158945D01*
X12031473Y6163264D01*
X12002915Y6170418D01*
X11975195Y6180336D01*
X11948581Y6192924D01*
X11923329Y6208059D01*
X11899682Y6225597D01*
X11877868Y6245368D01*
X11858097Y6267182D01*
X11840559Y6290829D01*
X11825424Y6316081D01*
X11812836Y6342695D01*
X11802918Y6370415D01*
X11795764Y6398973D01*
X11791445Y6428095D01*
X11790000Y6457500D01*
X11790000Y7957500D01*
X11791445Y7986905D01*
X11795764Y8016027D01*
X11802918Y8044585D01*
X11812836Y8072305D01*
X11825424Y8098919D01*
X11840559Y8124171D01*
X11858097Y8147818D01*
X11877868Y8169632D01*
X11899682Y8189403D01*
X11923329Y8206941D01*
X11948581Y8222076D01*
X11975195Y8234664D01*
X12002915Y8244582D01*
X12031473Y8251736D01*
X12060595Y8256055D01*
X12090000Y8257500D01*
X12690000Y8257500D01*
X12719405Y8256055D01*
G37*
G04 #@! TD.AperFunction*
D16*
X66360000Y60790000D03*
D19*
X76520000Y60790000D03*
D16*
X37150000Y65235000D03*
D19*
X37150000Y55075000D03*
D16*
X80330000Y49995000D03*
D19*
X70170000Y49995000D03*
D16*
X32705000Y47455000D03*
D19*
X22545000Y47455000D03*
D16*
X32705000Y50630000D03*
D19*
X22545000Y50630000D03*
D16*
X82870000Y37295000D03*
D19*
X72710000Y37295000D03*
D16*
X72710000Y34120000D03*
D19*
X82870000Y34120000D03*
D16*
X7305000Y42375000D03*
D19*
X7305000Y32215000D03*
D20*
X81600000Y55075000D03*
D21*
X79060000Y55075000D03*
X80330000Y55075000D03*
D22*
X75885000Y29040000D03*
D23*
X78425000Y29040000D03*
D19*
X61915000Y60075000D03*
X61915000Y55075000D03*
X74615000Y20865000D03*
X74615000Y25865000D03*
D24*
X16190000Y7201000D02*
X19116000Y4275000D01*
X16190000Y7207500D02*
X16190000Y7201000D01*
X26350000Y4280000D02*
X26350000Y7207500D01*
X26355000Y4275000D02*
X26350000Y4280000D01*
X19116000Y4275000D02*
X26355000Y4275000D01*
X36510000Y4280000D02*
X36510000Y7207500D01*
X36515000Y4275000D02*
X36510000Y4280000D01*
X26355000Y4275000D02*
X36515000Y4275000D01*
X46670000Y4280000D02*
X46670000Y7207500D01*
X46675000Y4275000D02*
X46670000Y4280000D01*
X36515000Y4275000D02*
X46675000Y4275000D01*
X56830000Y4280000D02*
X56830000Y7207500D01*
X56835000Y4275000D02*
X56830000Y4280000D01*
X46675000Y4275000D02*
X56835000Y4275000D01*
X66990000Y4280000D02*
X66990000Y7207500D01*
X66995000Y4275000D02*
X66990000Y4280000D01*
X56835000Y4275000D02*
X66995000Y4275000D01*
X77150000Y4280000D02*
X77150000Y7207500D01*
X77155000Y4275000D02*
X77150000Y4280000D01*
X66995000Y4275000D02*
X77155000Y4275000D01*
X87310000Y4280000D02*
X87310000Y7207500D01*
X87315000Y4275000D02*
X87310000Y4280000D01*
X77155000Y4275000D02*
X87315000Y4275000D01*
X74615000Y25865000D02*
X78425000Y25865000D01*
X80965000Y25865000D02*
X78425000Y25865000D01*
X78425000Y29040000D02*
X78425000Y25865000D01*
X78425000Y22626500D02*
X80266500Y20785000D01*
X78425000Y25865000D02*
X78425000Y22626500D01*
X80266500Y20785000D02*
X96205000Y20785000D01*
X96205000Y20785000D02*
X98110000Y18880000D01*
X98110000Y15070000D02*
X87315000Y4275000D01*
X98110000Y18880000D02*
X98110000Y15070000D01*
X73483630Y25865000D02*
X74615000Y25865000D01*
X69408000Y25865000D02*
X73483630Y25865000D01*
X65725000Y18880000D02*
X65725000Y22182000D01*
X65725000Y22182000D02*
X69408000Y25865000D01*
X85410000Y55075000D02*
X81600000Y55075000D01*
X98110000Y42375000D02*
X85410000Y55075000D01*
X96205000Y20785000D02*
X98110000Y22690000D01*
X98110000Y22690000D02*
X98110000Y42375000D01*
D25*
X2860000Y37930000D02*
X7305000Y42375000D01*
X2860000Y35771000D02*
X2860000Y37930000D01*
X54993500Y44851500D02*
X55565000Y44280000D01*
X53977500Y56662500D02*
X54993500Y55646500D01*
X44833500Y55964000D02*
X45532000Y56662500D01*
X2860000Y33231000D02*
X3480998Y33231000D01*
X22784998Y52535000D02*
X43436500Y52535000D01*
X54993500Y55646500D02*
X54993500Y44851500D01*
X43436500Y52535000D02*
X44833500Y53932000D01*
X45532000Y56662500D02*
X53977500Y56662500D01*
X3480998Y33231000D02*
X22784998Y52535000D01*
X44833500Y53932000D02*
X44833500Y55964000D01*
X80330000Y55075000D02*
X80330000Y49995000D01*
D26*
X2860000Y20785000D02*
X2860000Y15705000D01*
X2860000Y20785000D02*
X2860000Y23960000D01*
X2860000Y27625787D02*
X2860000Y23960000D01*
X2860000Y29040000D02*
X2860000Y27625787D01*
X6035000Y32215000D02*
X7305000Y32215000D01*
X2860000Y29040000D02*
X6035000Y32215000D01*
X19255001Y18130001D02*
X20005000Y18880000D01*
X14734500Y13609500D02*
X19255001Y18130001D01*
X2860000Y15705000D02*
X4955500Y13609500D01*
X4955500Y13609500D02*
X14734500Y13609500D01*
D25*
X72710000Y36163630D02*
X72710000Y34120000D01*
X72710000Y37295000D02*
X72710000Y36163630D01*
X50485000Y34120000D02*
X40325000Y44280000D01*
X72710000Y34120000D02*
X50485000Y34120000D01*
X82870000Y31580000D02*
X88585000Y25865000D01*
X82870000Y34120000D02*
X82870000Y31580000D01*
X10480000Y15705000D02*
X10480000Y20785000D01*
X25085000Y48090000D02*
X25085000Y44280000D01*
X22545000Y50630000D02*
X25085000Y48090000D01*
X25085000Y43219340D02*
X25085000Y44280000D01*
X10480000Y20785000D02*
X25085000Y35390000D01*
X25085000Y35390000D02*
X25085000Y43219340D01*
X10480000Y25374213D02*
X10480000Y29040000D01*
X10480000Y23960000D02*
X10480000Y25374213D01*
X22545000Y45340660D02*
X22545000Y47455000D01*
X22545000Y44280000D02*
X22545000Y45340660D01*
X22545000Y43219340D02*
X22545000Y44280000D01*
X22545000Y40502998D02*
X22545000Y43219340D01*
X10480000Y29040000D02*
X11082002Y29040000D01*
X11082002Y29040000D02*
X22545000Y40502998D01*
X63820000Y49995000D02*
X70170000Y49995000D01*
X58105000Y44280000D02*
X63820000Y49995000D01*
X37949999Y66034999D02*
X37150000Y65235000D01*
X38375001Y66460001D02*
X37949999Y66034999D01*
X44810999Y66460001D02*
X38375001Y66460001D01*
X46036000Y65235000D02*
X44810999Y66460001D01*
X76516000Y60794000D02*
X76520000Y60790000D01*
X76516000Y65235000D02*
X76516000Y60794000D01*
X9210000Y10307500D02*
X14290000Y10307500D01*
X14290000Y10307500D02*
X18704560Y14722060D01*
X74902060Y14722060D02*
X78425000Y18245000D01*
X18704560Y14722060D02*
X74902060Y14722060D01*
X24450000Y10307500D02*
X19370000Y10307500D01*
X76992050Y14272050D02*
X80165001Y17445001D01*
X28414550Y14272050D02*
X76992050Y14272050D01*
X80165001Y17445001D02*
X80965000Y18245000D01*
X24450000Y10307500D02*
X28414550Y14272050D01*
X30590660Y10307500D02*
X34610000Y10307500D01*
X29530000Y10307500D02*
X30590660Y10307500D01*
X82705001Y17445001D02*
X83505000Y18245000D01*
X79082040Y13822040D02*
X82705001Y17445001D01*
X38124540Y13822040D02*
X79082040Y13822040D01*
X34610000Y10307500D02*
X38124540Y13822040D01*
X39690000Y10307500D02*
X44770000Y10307500D01*
X85245001Y17445001D02*
X86045000Y18245000D01*
X81172030Y13372030D02*
X85245001Y17445001D01*
X47834530Y13372030D02*
X81172030Y13372030D01*
X44770000Y10307500D02*
X47834530Y13372030D01*
X49850000Y10307500D02*
X54930000Y10307500D01*
X87785001Y17445001D02*
X88585000Y18245000D01*
X83262020Y12922020D02*
X87785001Y17445001D01*
X57544520Y12922020D02*
X83262020Y12922020D01*
X54930000Y10307500D02*
X57544520Y12922020D01*
X61070660Y10307500D02*
X65090000Y10307500D01*
X60010000Y10307500D02*
X61070660Y10307500D01*
X90325001Y17445001D02*
X91125000Y18245000D01*
X85352010Y12472010D02*
X90325001Y17445001D01*
X67254510Y12472010D02*
X85352010Y12472010D01*
X65090000Y10307500D02*
X67254510Y12472010D01*
X75250000Y10307500D02*
X70170000Y10307500D01*
X92865001Y17445001D02*
X93665000Y18245000D01*
X87442000Y12022000D02*
X92865001Y17445001D01*
X75250000Y10307500D02*
X76964500Y12022000D01*
X76964500Y12022000D02*
X87442000Y12022000D01*
X81390660Y10307500D02*
X85410000Y10307500D01*
X80330000Y10307500D02*
X81390660Y10307500D01*
X88267500Y10307500D02*
X96205000Y18245000D01*
X85410000Y10307500D02*
X88267500Y10307500D01*
X87315000Y26498590D02*
X82419989Y31393600D01*
X82419989Y31393600D02*
X82419989Y31395011D01*
X88140500Y24468000D02*
X87315000Y25293500D01*
X43614999Y43530001D02*
X42865000Y44280000D01*
X82419989Y31395011D02*
X75250000Y38565000D01*
X75250000Y38565000D02*
X48580000Y38565000D01*
X48580000Y38565000D02*
X43614999Y43530001D01*
X87315000Y25293500D02*
X87315000Y26498590D01*
X89728000Y24468000D02*
X88140500Y24468000D01*
X91125000Y25865000D02*
X89728000Y24468000D01*
X48039999Y56200001D02*
X52534999Y56200001D01*
X52860001Y55874999D02*
X53660000Y55075000D01*
X47454999Y55615001D02*
X48039999Y56200001D01*
X52534999Y56200001D02*
X52860001Y55874999D01*
X47454999Y48869999D02*
X47454999Y55615001D01*
X42865000Y44280000D02*
X47454999Y48869999D01*
X33454999Y43530001D02*
X32705000Y44280000D01*
X84775000Y26411751D02*
X78786761Y32399990D01*
X44585010Y32399990D02*
X33454999Y43530001D01*
X93665000Y24733630D02*
X92949360Y24017990D01*
X92949360Y24017990D02*
X85479010Y24017990D01*
X93665000Y25865000D02*
X93665000Y24733630D01*
X78786761Y32399990D02*
X44585010Y32399990D01*
X85479010Y24017990D02*
X84775000Y24722000D01*
X84775000Y24722000D02*
X84775000Y26411751D01*
X38534999Y43530001D02*
X37785000Y44280000D01*
X49215000Y32850000D02*
X38534999Y43530001D01*
X86045000Y25865000D02*
X79060000Y32850000D01*
X79060000Y32850000D02*
X49215000Y32850000D01*
X46040000Y52535000D02*
X46040000Y55075000D01*
X37785000Y44280000D02*
X46040000Y52535000D01*
X48580000Y46185000D02*
X50485000Y44280000D01*
X48580000Y55075000D02*
X48580000Y46185000D01*
X73076001Y64335001D02*
X73976000Y65235000D01*
X56200000Y55075000D02*
X58232000Y53043000D01*
X73076001Y62362501D02*
X73076001Y64335001D01*
X63756500Y53043000D02*
X73076001Y62362501D01*
X58232000Y53043000D02*
X63756500Y53043000D01*
X48576000Y62699000D02*
X48580000Y62695000D01*
X48576000Y65235000D02*
X48576000Y62699000D01*
X51120000Y65231000D02*
X51116000Y65235000D01*
X51120000Y62695000D02*
X51120000Y65231000D01*
X53656000Y62699000D02*
X53660000Y62695000D01*
X53656000Y65235000D02*
X53656000Y62699000D01*
X56196000Y62699000D02*
X56200000Y62695000D01*
X56196000Y65235000D02*
X56196000Y62699000D01*
X68896000Y65235000D02*
X66356000Y62695000D01*
X62042000Y62695000D02*
X58740000Y62695000D01*
X66356000Y62695000D02*
X62042000Y62695000D01*
D24*
X58740000Y55075000D02*
X61915000Y55075000D01*
X58740000Y55075000D02*
X54930000Y58885000D01*
X43500000Y58885000D02*
X43500000Y55075000D01*
X54930000Y58885000D02*
X43500000Y58885000D01*
X78156001Y66134999D02*
X79056000Y65235000D01*
X36388000Y58885000D02*
X34610000Y60663000D01*
X34610000Y60663000D02*
X34610000Y64767002D01*
X34610000Y64767002D02*
X37028009Y67185011D01*
X77105989Y67185011D02*
X78156001Y66134999D01*
X37028009Y67185011D02*
X77105989Y67185011D01*
X37150000Y58885000D02*
X37150000Y55075000D01*
X37150000Y58885000D02*
X36388000Y58885000D01*
X43500000Y58885000D02*
X37150000Y58885000D01*
X79056000Y55079000D02*
X79060000Y55075000D01*
X79056000Y65235000D02*
X79056000Y55079000D01*
M02*
