G04 #@! TF.GenerationSoftware,KiCad,Pcbnew,(5.1.5)-2*
G04 #@! TF.CreationDate,2020-02-20T16:43:49+01:00*
G04 #@! TF.ProjectId,BBMini32,42424d69-6e69-4333-922e-6b696361645f,V1.0*
G04 #@! TF.SameCoordinates,PX1312d00PY55d4a80*
G04 #@! TF.FileFunction,Legend,Bot*
G04 #@! TF.FilePolarity,Positive*
%FSLAX46Y46*%
G04 Gerber Fmt 4.6, Leading zero omitted, Abs format (unit mm)*
G04 Created by KiCad (PCBNEW (5.1.5)-2) date 2020-02-20 16:43:49*
%MOMM*%
%LPD*%
G04 APERTURE LIST*
%ADD10C,0.120000*%
%ADD11C,0.150000*%
%ADD12C,1.902000*%
%ADD13R,1.902000X1.902000*%
%ADD14C,2.102000*%
%ADD15C,1.602000*%
%ADD16C,6.502000*%
%ADD17C,5.102000*%
%ADD18O,1.702000X1.702000*%
%ADD19R,1.702000X1.702000*%
%ADD20C,0.100000*%
%ADD21O,1.602000X2.102000*%
%ADD22C,1.702000*%
%ADD23R,1.152000X1.602000*%
%ADD24O,1.152000X1.602000*%
%ADD25O,1.802000X1.802000*%
%ADD26R,1.802000X1.802000*%
G04 APERTURE END LIST*
D10*
X1780000Y32941000D02*
X1624000Y32941000D01*
X4096000Y32941000D02*
X3940000Y32941000D01*
X1780163Y35542130D02*
G75*
G03X1780000Y33460039I1079837J-1041130D01*
G01*
X3939837Y35542130D02*
G75*
G02X3940000Y33460039I-1079837J-1041130D01*
G01*
X1781392Y36173335D02*
G75*
G03X1624484Y32941000I1078608J-1672335D01*
G01*
X3938608Y36173335D02*
G75*
G02X4095516Y32941000I-1078608J-1672335D01*
G01*
D11*
X4970000Y15245000D02*
G75*
G03X3670000Y16545000I-1300000J0D01*
G01*
X9670000Y16545000D02*
G75*
G03X8370000Y15245000I0J-1300000D01*
G01*
X8370000Y21245000D02*
G75*
G03X9670000Y19945000I1300000J0D01*
G01*
X3670000Y19945000D02*
G75*
G03X4970000Y21245000I0J1300000D01*
G01*
X9670000Y16545000D02*
X9670000Y19945000D01*
X3670000Y19945000D02*
X3670000Y16545000D01*
X4970000Y15245000D02*
X8370000Y15245000D01*
X4970000Y21245000D02*
X8370000Y21245000D01*
X8422600Y18245000D02*
G75*
G03X8422600Y18245000I-1752600J0D01*
G01*
X4970000Y23500000D02*
G75*
G03X3670000Y24800000I-1300000J0D01*
G01*
X9670000Y24800000D02*
G75*
G03X8370000Y23500000I0J-1300000D01*
G01*
X8370000Y29500000D02*
G75*
G03X9670000Y28200000I1300000J0D01*
G01*
X3670000Y28200000D02*
G75*
G03X4970000Y29500000I0J1300000D01*
G01*
X9670000Y24800000D02*
X9670000Y28200000D01*
X3670000Y28200000D02*
X3670000Y24800000D01*
X4970000Y23500000D02*
X8370000Y23500000D01*
X4970000Y29500000D02*
X8370000Y29500000D01*
X8422600Y26500000D02*
G75*
G03X8422600Y26500000I-1752600J0D01*
G01*
X89696000Y67835000D02*
X89696000Y31635000D01*
X9496000Y67835000D02*
X9496000Y31635000D01*
X89696000Y67835000D02*
X9496000Y67835000D01*
X89696000Y31635000D02*
X9496000Y31635000D01*
%LPC*%
D12*
X2860000Y35771000D03*
D13*
X2860000Y33231000D03*
D14*
X10480000Y20785000D03*
X2860000Y20785000D03*
X10480000Y15705000D03*
X2860000Y15705000D03*
X10480000Y29040000D03*
X2860000Y29040000D03*
X10480000Y23960000D03*
X2860000Y23960000D03*
D15*
X65725000Y44280000D03*
X42865000Y44280000D03*
X40325000Y44280000D03*
X60645000Y44280000D03*
X20005000Y44280000D03*
X22545000Y44280000D03*
X25085000Y44280000D03*
X27625000Y44280000D03*
X30165000Y44280000D03*
X32705000Y44280000D03*
X35245000Y44280000D03*
X37785000Y44280000D03*
X63185000Y44280000D03*
X58105000Y44280000D03*
X55565000Y44280000D03*
X53025000Y44280000D03*
X50485000Y44280000D03*
X47945000Y44280000D03*
X45405000Y44280000D03*
X65725000Y18880000D03*
X60645000Y18880000D03*
X20005000Y18880000D03*
X22545000Y18880000D03*
X25085000Y18880000D03*
X27625000Y18880000D03*
X30165000Y18880000D03*
X32705000Y18880000D03*
X35245000Y18880000D03*
X37785000Y18880000D03*
X63185000Y18880000D03*
X58105000Y18880000D03*
X55565000Y18880000D03*
X53025000Y18880000D03*
X50485000Y18880000D03*
X47945000Y18880000D03*
X45405000Y18880000D03*
X42865000Y18880000D03*
X40325000Y18880000D03*
D16*
X5000000Y5000000D03*
X95000000Y5000000D03*
X95000000Y65000000D03*
X5000000Y65000000D03*
D12*
X43496000Y65235000D03*
X46036000Y65235000D03*
X48576000Y65235000D03*
X51116000Y65235000D03*
X53656000Y65235000D03*
X56196000Y65235000D03*
X58736000Y65235000D03*
X61276000Y65235000D03*
X63816000Y65235000D03*
X66356000Y65235000D03*
X68896000Y65235000D03*
X71436000Y65235000D03*
X73976000Y65235000D03*
X76516000Y65235000D03*
X79056000Y65235000D03*
D13*
X81596000Y65235000D03*
D17*
X12246000Y34385000D03*
X86946000Y34385000D03*
X12246000Y65135000D03*
X86946000Y65085000D03*
D18*
X78425000Y25865000D03*
X96205000Y18245000D03*
X80965000Y25865000D03*
X93665000Y18245000D03*
X83505000Y25865000D03*
X91125000Y18245000D03*
X86045000Y25865000D03*
X88585000Y18245000D03*
X88585000Y25865000D03*
X86045000Y18245000D03*
X91125000Y25865000D03*
X83505000Y18245000D03*
X93665000Y25865000D03*
X80965000Y18245000D03*
X96205000Y25865000D03*
D19*
X78425000Y18245000D03*
D18*
X58740000Y55075000D03*
X40960000Y62695000D03*
X56200000Y55075000D03*
X43500000Y62695000D03*
X53660000Y55075000D03*
X46040000Y62695000D03*
X51120000Y55075000D03*
X48580000Y62695000D03*
X48580000Y55075000D03*
X51120000Y62695000D03*
X46040000Y55075000D03*
X53660000Y62695000D03*
X43500000Y55075000D03*
X56200000Y62695000D03*
X40960000Y55075000D03*
D19*
X58740000Y62695000D03*
D20*
G36*
X87667405Y8306933D02*
G01*
X87699002Y8302246D01*
X87729988Y8294484D01*
X87760063Y8283723D01*
X87788940Y8270065D01*
X87816338Y8253643D01*
X87841995Y8234615D01*
X87865663Y8213163D01*
X87887115Y8189495D01*
X87906143Y8163838D01*
X87922565Y8136440D01*
X87936223Y8107563D01*
X87946984Y8077488D01*
X87954746Y8046502D01*
X87959433Y8014905D01*
X87961000Y7983000D01*
X87961000Y6432000D01*
X87959433Y6400095D01*
X87954746Y6368498D01*
X87946984Y6337512D01*
X87936223Y6307437D01*
X87922565Y6278560D01*
X87906143Y6251162D01*
X87887115Y6225505D01*
X87865663Y6201837D01*
X87841995Y6180385D01*
X87816338Y6161357D01*
X87788940Y6144935D01*
X87760063Y6131277D01*
X87729988Y6120516D01*
X87699002Y6112754D01*
X87667405Y6108067D01*
X87635500Y6106500D01*
X86984500Y6106500D01*
X86952595Y6108067D01*
X86920998Y6112754D01*
X86890012Y6120516D01*
X86859937Y6131277D01*
X86831060Y6144935D01*
X86803662Y6161357D01*
X86778005Y6180385D01*
X86754337Y6201837D01*
X86732885Y6225505D01*
X86713857Y6251162D01*
X86697435Y6278560D01*
X86683777Y6307437D01*
X86673016Y6337512D01*
X86665254Y6368498D01*
X86660567Y6400095D01*
X86659000Y6432000D01*
X86659000Y7983000D01*
X86660567Y8014905D01*
X86665254Y8046502D01*
X86673016Y8077488D01*
X86683777Y8107563D01*
X86697435Y8136440D01*
X86713857Y8163838D01*
X86732885Y8189495D01*
X86754337Y8213163D01*
X86778005Y8234615D01*
X86803662Y8253643D01*
X86831060Y8270065D01*
X86859937Y8283723D01*
X86890012Y8294484D01*
X86920998Y8302246D01*
X86952595Y8306933D01*
X86984500Y8308500D01*
X87635500Y8308500D01*
X87667405Y8306933D01*
G37*
G36*
X86217405Y10956933D02*
G01*
X86249002Y10952246D01*
X86279988Y10944484D01*
X86310063Y10933723D01*
X86338940Y10920065D01*
X86366338Y10903643D01*
X86391995Y10884615D01*
X86415663Y10863163D01*
X86437115Y10839495D01*
X86456143Y10813838D01*
X86472565Y10786440D01*
X86486223Y10757563D01*
X86496984Y10727488D01*
X86504746Y10696502D01*
X86509433Y10664905D01*
X86511000Y10633000D01*
X86511000Y9982000D01*
X86509433Y9950095D01*
X86504746Y9918498D01*
X86496984Y9887512D01*
X86486223Y9857437D01*
X86472565Y9828560D01*
X86456143Y9801162D01*
X86437115Y9775505D01*
X86415663Y9751837D01*
X86391995Y9730385D01*
X86366338Y9711357D01*
X86338940Y9694935D01*
X86310063Y9681277D01*
X86279988Y9670516D01*
X86249002Y9662754D01*
X86217405Y9658067D01*
X86185500Y9656500D01*
X84634500Y9656500D01*
X84602595Y9658067D01*
X84570998Y9662754D01*
X84540012Y9670516D01*
X84509937Y9681277D01*
X84481060Y9694935D01*
X84453662Y9711357D01*
X84428005Y9730385D01*
X84404337Y9751837D01*
X84382885Y9775505D01*
X84363857Y9801162D01*
X84347435Y9828560D01*
X84333777Y9857437D01*
X84323016Y9887512D01*
X84315254Y9918498D01*
X84310567Y9950095D01*
X84309000Y9982000D01*
X84309000Y10633000D01*
X84310567Y10664905D01*
X84315254Y10696502D01*
X84323016Y10727488D01*
X84333777Y10757563D01*
X84347435Y10786440D01*
X84363857Y10813838D01*
X84382885Y10839495D01*
X84404337Y10863163D01*
X84428005Y10884615D01*
X84453662Y10903643D01*
X84481060Y10920065D01*
X84509937Y10933723D01*
X84540012Y10944484D01*
X84570998Y10952246D01*
X84602595Y10956933D01*
X84634500Y10958500D01*
X86185500Y10958500D01*
X86217405Y10956933D01*
G37*
G36*
X83867405Y8306933D02*
G01*
X83899002Y8302246D01*
X83929988Y8294484D01*
X83960063Y8283723D01*
X83988940Y8270065D01*
X84016338Y8253643D01*
X84041995Y8234615D01*
X84065663Y8213163D01*
X84087115Y8189495D01*
X84106143Y8163838D01*
X84122565Y8136440D01*
X84136223Y8107563D01*
X84146984Y8077488D01*
X84154746Y8046502D01*
X84159433Y8014905D01*
X84161000Y7983000D01*
X84161000Y6432000D01*
X84159433Y6400095D01*
X84154746Y6368498D01*
X84146984Y6337512D01*
X84136223Y6307437D01*
X84122565Y6278560D01*
X84106143Y6251162D01*
X84087115Y6225505D01*
X84065663Y6201837D01*
X84041995Y6180385D01*
X84016338Y6161357D01*
X83988940Y6144935D01*
X83960063Y6131277D01*
X83929988Y6120516D01*
X83899002Y6112754D01*
X83867405Y6108067D01*
X83835500Y6106500D01*
X83184500Y6106500D01*
X83152595Y6108067D01*
X83120998Y6112754D01*
X83090012Y6120516D01*
X83059937Y6131277D01*
X83031060Y6144935D01*
X83003662Y6161357D01*
X82978005Y6180385D01*
X82954337Y6201837D01*
X82932885Y6225505D01*
X82913857Y6251162D01*
X82897435Y6278560D01*
X82883777Y6307437D01*
X82873016Y6337512D01*
X82865254Y6368498D01*
X82860567Y6400095D01*
X82859000Y6432000D01*
X82859000Y7983000D01*
X82860567Y8014905D01*
X82865254Y8046502D01*
X82873016Y8077488D01*
X82883777Y8107563D01*
X82897435Y8136440D01*
X82913857Y8163838D01*
X82932885Y8189495D01*
X82954337Y8213163D01*
X82978005Y8234615D01*
X83003662Y8253643D01*
X83031060Y8270065D01*
X83059937Y8283723D01*
X83090012Y8294484D01*
X83120998Y8302246D01*
X83152595Y8306933D01*
X83184500Y8308500D01*
X83835500Y8308500D01*
X83867405Y8306933D01*
G37*
D21*
X87410000Y2557500D03*
X83410000Y2557500D03*
D20*
G36*
X77507405Y8306933D02*
G01*
X77539002Y8302246D01*
X77569988Y8294484D01*
X77600063Y8283723D01*
X77628940Y8270065D01*
X77656338Y8253643D01*
X77681995Y8234615D01*
X77705663Y8213163D01*
X77727115Y8189495D01*
X77746143Y8163838D01*
X77762565Y8136440D01*
X77776223Y8107563D01*
X77786984Y8077488D01*
X77794746Y8046502D01*
X77799433Y8014905D01*
X77801000Y7983000D01*
X77801000Y6432000D01*
X77799433Y6400095D01*
X77794746Y6368498D01*
X77786984Y6337512D01*
X77776223Y6307437D01*
X77762565Y6278560D01*
X77746143Y6251162D01*
X77727115Y6225505D01*
X77705663Y6201837D01*
X77681995Y6180385D01*
X77656338Y6161357D01*
X77628940Y6144935D01*
X77600063Y6131277D01*
X77569988Y6120516D01*
X77539002Y6112754D01*
X77507405Y6108067D01*
X77475500Y6106500D01*
X76824500Y6106500D01*
X76792595Y6108067D01*
X76760998Y6112754D01*
X76730012Y6120516D01*
X76699937Y6131277D01*
X76671060Y6144935D01*
X76643662Y6161357D01*
X76618005Y6180385D01*
X76594337Y6201837D01*
X76572885Y6225505D01*
X76553857Y6251162D01*
X76537435Y6278560D01*
X76523777Y6307437D01*
X76513016Y6337512D01*
X76505254Y6368498D01*
X76500567Y6400095D01*
X76499000Y6432000D01*
X76499000Y7983000D01*
X76500567Y8014905D01*
X76505254Y8046502D01*
X76513016Y8077488D01*
X76523777Y8107563D01*
X76537435Y8136440D01*
X76553857Y8163838D01*
X76572885Y8189495D01*
X76594337Y8213163D01*
X76618005Y8234615D01*
X76643662Y8253643D01*
X76671060Y8270065D01*
X76699937Y8283723D01*
X76730012Y8294484D01*
X76760998Y8302246D01*
X76792595Y8306933D01*
X76824500Y8308500D01*
X77475500Y8308500D01*
X77507405Y8306933D01*
G37*
G36*
X76057405Y10956933D02*
G01*
X76089002Y10952246D01*
X76119988Y10944484D01*
X76150063Y10933723D01*
X76178940Y10920065D01*
X76206338Y10903643D01*
X76231995Y10884615D01*
X76255663Y10863163D01*
X76277115Y10839495D01*
X76296143Y10813838D01*
X76312565Y10786440D01*
X76326223Y10757563D01*
X76336984Y10727488D01*
X76344746Y10696502D01*
X76349433Y10664905D01*
X76351000Y10633000D01*
X76351000Y9982000D01*
X76349433Y9950095D01*
X76344746Y9918498D01*
X76336984Y9887512D01*
X76326223Y9857437D01*
X76312565Y9828560D01*
X76296143Y9801162D01*
X76277115Y9775505D01*
X76255663Y9751837D01*
X76231995Y9730385D01*
X76206338Y9711357D01*
X76178940Y9694935D01*
X76150063Y9681277D01*
X76119988Y9670516D01*
X76089002Y9662754D01*
X76057405Y9658067D01*
X76025500Y9656500D01*
X74474500Y9656500D01*
X74442595Y9658067D01*
X74410998Y9662754D01*
X74380012Y9670516D01*
X74349937Y9681277D01*
X74321060Y9694935D01*
X74293662Y9711357D01*
X74268005Y9730385D01*
X74244337Y9751837D01*
X74222885Y9775505D01*
X74203857Y9801162D01*
X74187435Y9828560D01*
X74173777Y9857437D01*
X74163016Y9887512D01*
X74155254Y9918498D01*
X74150567Y9950095D01*
X74149000Y9982000D01*
X74149000Y10633000D01*
X74150567Y10664905D01*
X74155254Y10696502D01*
X74163016Y10727488D01*
X74173777Y10757563D01*
X74187435Y10786440D01*
X74203857Y10813838D01*
X74222885Y10839495D01*
X74244337Y10863163D01*
X74268005Y10884615D01*
X74293662Y10903643D01*
X74321060Y10920065D01*
X74349937Y10933723D01*
X74380012Y10944484D01*
X74410998Y10952246D01*
X74442595Y10956933D01*
X74474500Y10958500D01*
X76025500Y10958500D01*
X76057405Y10956933D01*
G37*
G36*
X73707405Y8306933D02*
G01*
X73739002Y8302246D01*
X73769988Y8294484D01*
X73800063Y8283723D01*
X73828940Y8270065D01*
X73856338Y8253643D01*
X73881995Y8234615D01*
X73905663Y8213163D01*
X73927115Y8189495D01*
X73946143Y8163838D01*
X73962565Y8136440D01*
X73976223Y8107563D01*
X73986984Y8077488D01*
X73994746Y8046502D01*
X73999433Y8014905D01*
X74001000Y7983000D01*
X74001000Y6432000D01*
X73999433Y6400095D01*
X73994746Y6368498D01*
X73986984Y6337512D01*
X73976223Y6307437D01*
X73962565Y6278560D01*
X73946143Y6251162D01*
X73927115Y6225505D01*
X73905663Y6201837D01*
X73881995Y6180385D01*
X73856338Y6161357D01*
X73828940Y6144935D01*
X73800063Y6131277D01*
X73769988Y6120516D01*
X73739002Y6112754D01*
X73707405Y6108067D01*
X73675500Y6106500D01*
X73024500Y6106500D01*
X72992595Y6108067D01*
X72960998Y6112754D01*
X72930012Y6120516D01*
X72899937Y6131277D01*
X72871060Y6144935D01*
X72843662Y6161357D01*
X72818005Y6180385D01*
X72794337Y6201837D01*
X72772885Y6225505D01*
X72753857Y6251162D01*
X72737435Y6278560D01*
X72723777Y6307437D01*
X72713016Y6337512D01*
X72705254Y6368498D01*
X72700567Y6400095D01*
X72699000Y6432000D01*
X72699000Y7983000D01*
X72700567Y8014905D01*
X72705254Y8046502D01*
X72713016Y8077488D01*
X72723777Y8107563D01*
X72737435Y8136440D01*
X72753857Y8163838D01*
X72772885Y8189495D01*
X72794337Y8213163D01*
X72818005Y8234615D01*
X72843662Y8253643D01*
X72871060Y8270065D01*
X72899937Y8283723D01*
X72930012Y8294484D01*
X72960998Y8302246D01*
X72992595Y8306933D01*
X73024500Y8308500D01*
X73675500Y8308500D01*
X73707405Y8306933D01*
G37*
D21*
X77250000Y2557500D03*
X73250000Y2557500D03*
D20*
G36*
X67347405Y8306933D02*
G01*
X67379002Y8302246D01*
X67409988Y8294484D01*
X67440063Y8283723D01*
X67468940Y8270065D01*
X67496338Y8253643D01*
X67521995Y8234615D01*
X67545663Y8213163D01*
X67567115Y8189495D01*
X67586143Y8163838D01*
X67602565Y8136440D01*
X67616223Y8107563D01*
X67626984Y8077488D01*
X67634746Y8046502D01*
X67639433Y8014905D01*
X67641000Y7983000D01*
X67641000Y6432000D01*
X67639433Y6400095D01*
X67634746Y6368498D01*
X67626984Y6337512D01*
X67616223Y6307437D01*
X67602565Y6278560D01*
X67586143Y6251162D01*
X67567115Y6225505D01*
X67545663Y6201837D01*
X67521995Y6180385D01*
X67496338Y6161357D01*
X67468940Y6144935D01*
X67440063Y6131277D01*
X67409988Y6120516D01*
X67379002Y6112754D01*
X67347405Y6108067D01*
X67315500Y6106500D01*
X66664500Y6106500D01*
X66632595Y6108067D01*
X66600998Y6112754D01*
X66570012Y6120516D01*
X66539937Y6131277D01*
X66511060Y6144935D01*
X66483662Y6161357D01*
X66458005Y6180385D01*
X66434337Y6201837D01*
X66412885Y6225505D01*
X66393857Y6251162D01*
X66377435Y6278560D01*
X66363777Y6307437D01*
X66353016Y6337512D01*
X66345254Y6368498D01*
X66340567Y6400095D01*
X66339000Y6432000D01*
X66339000Y7983000D01*
X66340567Y8014905D01*
X66345254Y8046502D01*
X66353016Y8077488D01*
X66363777Y8107563D01*
X66377435Y8136440D01*
X66393857Y8163838D01*
X66412885Y8189495D01*
X66434337Y8213163D01*
X66458005Y8234615D01*
X66483662Y8253643D01*
X66511060Y8270065D01*
X66539937Y8283723D01*
X66570012Y8294484D01*
X66600998Y8302246D01*
X66632595Y8306933D01*
X66664500Y8308500D01*
X67315500Y8308500D01*
X67347405Y8306933D01*
G37*
G36*
X65897405Y10956933D02*
G01*
X65929002Y10952246D01*
X65959988Y10944484D01*
X65990063Y10933723D01*
X66018940Y10920065D01*
X66046338Y10903643D01*
X66071995Y10884615D01*
X66095663Y10863163D01*
X66117115Y10839495D01*
X66136143Y10813838D01*
X66152565Y10786440D01*
X66166223Y10757563D01*
X66176984Y10727488D01*
X66184746Y10696502D01*
X66189433Y10664905D01*
X66191000Y10633000D01*
X66191000Y9982000D01*
X66189433Y9950095D01*
X66184746Y9918498D01*
X66176984Y9887512D01*
X66166223Y9857437D01*
X66152565Y9828560D01*
X66136143Y9801162D01*
X66117115Y9775505D01*
X66095663Y9751837D01*
X66071995Y9730385D01*
X66046338Y9711357D01*
X66018940Y9694935D01*
X65990063Y9681277D01*
X65959988Y9670516D01*
X65929002Y9662754D01*
X65897405Y9658067D01*
X65865500Y9656500D01*
X64314500Y9656500D01*
X64282595Y9658067D01*
X64250998Y9662754D01*
X64220012Y9670516D01*
X64189937Y9681277D01*
X64161060Y9694935D01*
X64133662Y9711357D01*
X64108005Y9730385D01*
X64084337Y9751837D01*
X64062885Y9775505D01*
X64043857Y9801162D01*
X64027435Y9828560D01*
X64013777Y9857437D01*
X64003016Y9887512D01*
X63995254Y9918498D01*
X63990567Y9950095D01*
X63989000Y9982000D01*
X63989000Y10633000D01*
X63990567Y10664905D01*
X63995254Y10696502D01*
X64003016Y10727488D01*
X64013777Y10757563D01*
X64027435Y10786440D01*
X64043857Y10813838D01*
X64062885Y10839495D01*
X64084337Y10863163D01*
X64108005Y10884615D01*
X64133662Y10903643D01*
X64161060Y10920065D01*
X64189937Y10933723D01*
X64220012Y10944484D01*
X64250998Y10952246D01*
X64282595Y10956933D01*
X64314500Y10958500D01*
X65865500Y10958500D01*
X65897405Y10956933D01*
G37*
G36*
X63547405Y8306933D02*
G01*
X63579002Y8302246D01*
X63609988Y8294484D01*
X63640063Y8283723D01*
X63668940Y8270065D01*
X63696338Y8253643D01*
X63721995Y8234615D01*
X63745663Y8213163D01*
X63767115Y8189495D01*
X63786143Y8163838D01*
X63802565Y8136440D01*
X63816223Y8107563D01*
X63826984Y8077488D01*
X63834746Y8046502D01*
X63839433Y8014905D01*
X63841000Y7983000D01*
X63841000Y6432000D01*
X63839433Y6400095D01*
X63834746Y6368498D01*
X63826984Y6337512D01*
X63816223Y6307437D01*
X63802565Y6278560D01*
X63786143Y6251162D01*
X63767115Y6225505D01*
X63745663Y6201837D01*
X63721995Y6180385D01*
X63696338Y6161357D01*
X63668940Y6144935D01*
X63640063Y6131277D01*
X63609988Y6120516D01*
X63579002Y6112754D01*
X63547405Y6108067D01*
X63515500Y6106500D01*
X62864500Y6106500D01*
X62832595Y6108067D01*
X62800998Y6112754D01*
X62770012Y6120516D01*
X62739937Y6131277D01*
X62711060Y6144935D01*
X62683662Y6161357D01*
X62658005Y6180385D01*
X62634337Y6201837D01*
X62612885Y6225505D01*
X62593857Y6251162D01*
X62577435Y6278560D01*
X62563777Y6307437D01*
X62553016Y6337512D01*
X62545254Y6368498D01*
X62540567Y6400095D01*
X62539000Y6432000D01*
X62539000Y7983000D01*
X62540567Y8014905D01*
X62545254Y8046502D01*
X62553016Y8077488D01*
X62563777Y8107563D01*
X62577435Y8136440D01*
X62593857Y8163838D01*
X62612885Y8189495D01*
X62634337Y8213163D01*
X62658005Y8234615D01*
X62683662Y8253643D01*
X62711060Y8270065D01*
X62739937Y8283723D01*
X62770012Y8294484D01*
X62800998Y8302246D01*
X62832595Y8306933D01*
X62864500Y8308500D01*
X63515500Y8308500D01*
X63547405Y8306933D01*
G37*
D21*
X67090000Y2557500D03*
X63090000Y2557500D03*
D20*
G36*
X57187405Y8306933D02*
G01*
X57219002Y8302246D01*
X57249988Y8294484D01*
X57280063Y8283723D01*
X57308940Y8270065D01*
X57336338Y8253643D01*
X57361995Y8234615D01*
X57385663Y8213163D01*
X57407115Y8189495D01*
X57426143Y8163838D01*
X57442565Y8136440D01*
X57456223Y8107563D01*
X57466984Y8077488D01*
X57474746Y8046502D01*
X57479433Y8014905D01*
X57481000Y7983000D01*
X57481000Y6432000D01*
X57479433Y6400095D01*
X57474746Y6368498D01*
X57466984Y6337512D01*
X57456223Y6307437D01*
X57442565Y6278560D01*
X57426143Y6251162D01*
X57407115Y6225505D01*
X57385663Y6201837D01*
X57361995Y6180385D01*
X57336338Y6161357D01*
X57308940Y6144935D01*
X57280063Y6131277D01*
X57249988Y6120516D01*
X57219002Y6112754D01*
X57187405Y6108067D01*
X57155500Y6106500D01*
X56504500Y6106500D01*
X56472595Y6108067D01*
X56440998Y6112754D01*
X56410012Y6120516D01*
X56379937Y6131277D01*
X56351060Y6144935D01*
X56323662Y6161357D01*
X56298005Y6180385D01*
X56274337Y6201837D01*
X56252885Y6225505D01*
X56233857Y6251162D01*
X56217435Y6278560D01*
X56203777Y6307437D01*
X56193016Y6337512D01*
X56185254Y6368498D01*
X56180567Y6400095D01*
X56179000Y6432000D01*
X56179000Y7983000D01*
X56180567Y8014905D01*
X56185254Y8046502D01*
X56193016Y8077488D01*
X56203777Y8107563D01*
X56217435Y8136440D01*
X56233857Y8163838D01*
X56252885Y8189495D01*
X56274337Y8213163D01*
X56298005Y8234615D01*
X56323662Y8253643D01*
X56351060Y8270065D01*
X56379937Y8283723D01*
X56410012Y8294484D01*
X56440998Y8302246D01*
X56472595Y8306933D01*
X56504500Y8308500D01*
X57155500Y8308500D01*
X57187405Y8306933D01*
G37*
G36*
X55737405Y10956933D02*
G01*
X55769002Y10952246D01*
X55799988Y10944484D01*
X55830063Y10933723D01*
X55858940Y10920065D01*
X55886338Y10903643D01*
X55911995Y10884615D01*
X55935663Y10863163D01*
X55957115Y10839495D01*
X55976143Y10813838D01*
X55992565Y10786440D01*
X56006223Y10757563D01*
X56016984Y10727488D01*
X56024746Y10696502D01*
X56029433Y10664905D01*
X56031000Y10633000D01*
X56031000Y9982000D01*
X56029433Y9950095D01*
X56024746Y9918498D01*
X56016984Y9887512D01*
X56006223Y9857437D01*
X55992565Y9828560D01*
X55976143Y9801162D01*
X55957115Y9775505D01*
X55935663Y9751837D01*
X55911995Y9730385D01*
X55886338Y9711357D01*
X55858940Y9694935D01*
X55830063Y9681277D01*
X55799988Y9670516D01*
X55769002Y9662754D01*
X55737405Y9658067D01*
X55705500Y9656500D01*
X54154500Y9656500D01*
X54122595Y9658067D01*
X54090998Y9662754D01*
X54060012Y9670516D01*
X54029937Y9681277D01*
X54001060Y9694935D01*
X53973662Y9711357D01*
X53948005Y9730385D01*
X53924337Y9751837D01*
X53902885Y9775505D01*
X53883857Y9801162D01*
X53867435Y9828560D01*
X53853777Y9857437D01*
X53843016Y9887512D01*
X53835254Y9918498D01*
X53830567Y9950095D01*
X53829000Y9982000D01*
X53829000Y10633000D01*
X53830567Y10664905D01*
X53835254Y10696502D01*
X53843016Y10727488D01*
X53853777Y10757563D01*
X53867435Y10786440D01*
X53883857Y10813838D01*
X53902885Y10839495D01*
X53924337Y10863163D01*
X53948005Y10884615D01*
X53973662Y10903643D01*
X54001060Y10920065D01*
X54029937Y10933723D01*
X54060012Y10944484D01*
X54090998Y10952246D01*
X54122595Y10956933D01*
X54154500Y10958500D01*
X55705500Y10958500D01*
X55737405Y10956933D01*
G37*
G36*
X53387405Y8306933D02*
G01*
X53419002Y8302246D01*
X53449988Y8294484D01*
X53480063Y8283723D01*
X53508940Y8270065D01*
X53536338Y8253643D01*
X53561995Y8234615D01*
X53585663Y8213163D01*
X53607115Y8189495D01*
X53626143Y8163838D01*
X53642565Y8136440D01*
X53656223Y8107563D01*
X53666984Y8077488D01*
X53674746Y8046502D01*
X53679433Y8014905D01*
X53681000Y7983000D01*
X53681000Y6432000D01*
X53679433Y6400095D01*
X53674746Y6368498D01*
X53666984Y6337512D01*
X53656223Y6307437D01*
X53642565Y6278560D01*
X53626143Y6251162D01*
X53607115Y6225505D01*
X53585663Y6201837D01*
X53561995Y6180385D01*
X53536338Y6161357D01*
X53508940Y6144935D01*
X53480063Y6131277D01*
X53449988Y6120516D01*
X53419002Y6112754D01*
X53387405Y6108067D01*
X53355500Y6106500D01*
X52704500Y6106500D01*
X52672595Y6108067D01*
X52640998Y6112754D01*
X52610012Y6120516D01*
X52579937Y6131277D01*
X52551060Y6144935D01*
X52523662Y6161357D01*
X52498005Y6180385D01*
X52474337Y6201837D01*
X52452885Y6225505D01*
X52433857Y6251162D01*
X52417435Y6278560D01*
X52403777Y6307437D01*
X52393016Y6337512D01*
X52385254Y6368498D01*
X52380567Y6400095D01*
X52379000Y6432000D01*
X52379000Y7983000D01*
X52380567Y8014905D01*
X52385254Y8046502D01*
X52393016Y8077488D01*
X52403777Y8107563D01*
X52417435Y8136440D01*
X52433857Y8163838D01*
X52452885Y8189495D01*
X52474337Y8213163D01*
X52498005Y8234615D01*
X52523662Y8253643D01*
X52551060Y8270065D01*
X52579937Y8283723D01*
X52610012Y8294484D01*
X52640998Y8302246D01*
X52672595Y8306933D01*
X52704500Y8308500D01*
X53355500Y8308500D01*
X53387405Y8306933D01*
G37*
D21*
X56930000Y2557500D03*
X52930000Y2557500D03*
D20*
G36*
X47027405Y8306933D02*
G01*
X47059002Y8302246D01*
X47089988Y8294484D01*
X47120063Y8283723D01*
X47148940Y8270065D01*
X47176338Y8253643D01*
X47201995Y8234615D01*
X47225663Y8213163D01*
X47247115Y8189495D01*
X47266143Y8163838D01*
X47282565Y8136440D01*
X47296223Y8107563D01*
X47306984Y8077488D01*
X47314746Y8046502D01*
X47319433Y8014905D01*
X47321000Y7983000D01*
X47321000Y6432000D01*
X47319433Y6400095D01*
X47314746Y6368498D01*
X47306984Y6337512D01*
X47296223Y6307437D01*
X47282565Y6278560D01*
X47266143Y6251162D01*
X47247115Y6225505D01*
X47225663Y6201837D01*
X47201995Y6180385D01*
X47176338Y6161357D01*
X47148940Y6144935D01*
X47120063Y6131277D01*
X47089988Y6120516D01*
X47059002Y6112754D01*
X47027405Y6108067D01*
X46995500Y6106500D01*
X46344500Y6106500D01*
X46312595Y6108067D01*
X46280998Y6112754D01*
X46250012Y6120516D01*
X46219937Y6131277D01*
X46191060Y6144935D01*
X46163662Y6161357D01*
X46138005Y6180385D01*
X46114337Y6201837D01*
X46092885Y6225505D01*
X46073857Y6251162D01*
X46057435Y6278560D01*
X46043777Y6307437D01*
X46033016Y6337512D01*
X46025254Y6368498D01*
X46020567Y6400095D01*
X46019000Y6432000D01*
X46019000Y7983000D01*
X46020567Y8014905D01*
X46025254Y8046502D01*
X46033016Y8077488D01*
X46043777Y8107563D01*
X46057435Y8136440D01*
X46073857Y8163838D01*
X46092885Y8189495D01*
X46114337Y8213163D01*
X46138005Y8234615D01*
X46163662Y8253643D01*
X46191060Y8270065D01*
X46219937Y8283723D01*
X46250012Y8294484D01*
X46280998Y8302246D01*
X46312595Y8306933D01*
X46344500Y8308500D01*
X46995500Y8308500D01*
X47027405Y8306933D01*
G37*
G36*
X45577405Y10956933D02*
G01*
X45609002Y10952246D01*
X45639988Y10944484D01*
X45670063Y10933723D01*
X45698940Y10920065D01*
X45726338Y10903643D01*
X45751995Y10884615D01*
X45775663Y10863163D01*
X45797115Y10839495D01*
X45816143Y10813838D01*
X45832565Y10786440D01*
X45846223Y10757563D01*
X45856984Y10727488D01*
X45864746Y10696502D01*
X45869433Y10664905D01*
X45871000Y10633000D01*
X45871000Y9982000D01*
X45869433Y9950095D01*
X45864746Y9918498D01*
X45856984Y9887512D01*
X45846223Y9857437D01*
X45832565Y9828560D01*
X45816143Y9801162D01*
X45797115Y9775505D01*
X45775663Y9751837D01*
X45751995Y9730385D01*
X45726338Y9711357D01*
X45698940Y9694935D01*
X45670063Y9681277D01*
X45639988Y9670516D01*
X45609002Y9662754D01*
X45577405Y9658067D01*
X45545500Y9656500D01*
X43994500Y9656500D01*
X43962595Y9658067D01*
X43930998Y9662754D01*
X43900012Y9670516D01*
X43869937Y9681277D01*
X43841060Y9694935D01*
X43813662Y9711357D01*
X43788005Y9730385D01*
X43764337Y9751837D01*
X43742885Y9775505D01*
X43723857Y9801162D01*
X43707435Y9828560D01*
X43693777Y9857437D01*
X43683016Y9887512D01*
X43675254Y9918498D01*
X43670567Y9950095D01*
X43669000Y9982000D01*
X43669000Y10633000D01*
X43670567Y10664905D01*
X43675254Y10696502D01*
X43683016Y10727488D01*
X43693777Y10757563D01*
X43707435Y10786440D01*
X43723857Y10813838D01*
X43742885Y10839495D01*
X43764337Y10863163D01*
X43788005Y10884615D01*
X43813662Y10903643D01*
X43841060Y10920065D01*
X43869937Y10933723D01*
X43900012Y10944484D01*
X43930998Y10952246D01*
X43962595Y10956933D01*
X43994500Y10958500D01*
X45545500Y10958500D01*
X45577405Y10956933D01*
G37*
G36*
X43227405Y8306933D02*
G01*
X43259002Y8302246D01*
X43289988Y8294484D01*
X43320063Y8283723D01*
X43348940Y8270065D01*
X43376338Y8253643D01*
X43401995Y8234615D01*
X43425663Y8213163D01*
X43447115Y8189495D01*
X43466143Y8163838D01*
X43482565Y8136440D01*
X43496223Y8107563D01*
X43506984Y8077488D01*
X43514746Y8046502D01*
X43519433Y8014905D01*
X43521000Y7983000D01*
X43521000Y6432000D01*
X43519433Y6400095D01*
X43514746Y6368498D01*
X43506984Y6337512D01*
X43496223Y6307437D01*
X43482565Y6278560D01*
X43466143Y6251162D01*
X43447115Y6225505D01*
X43425663Y6201837D01*
X43401995Y6180385D01*
X43376338Y6161357D01*
X43348940Y6144935D01*
X43320063Y6131277D01*
X43289988Y6120516D01*
X43259002Y6112754D01*
X43227405Y6108067D01*
X43195500Y6106500D01*
X42544500Y6106500D01*
X42512595Y6108067D01*
X42480998Y6112754D01*
X42450012Y6120516D01*
X42419937Y6131277D01*
X42391060Y6144935D01*
X42363662Y6161357D01*
X42338005Y6180385D01*
X42314337Y6201837D01*
X42292885Y6225505D01*
X42273857Y6251162D01*
X42257435Y6278560D01*
X42243777Y6307437D01*
X42233016Y6337512D01*
X42225254Y6368498D01*
X42220567Y6400095D01*
X42219000Y6432000D01*
X42219000Y7983000D01*
X42220567Y8014905D01*
X42225254Y8046502D01*
X42233016Y8077488D01*
X42243777Y8107563D01*
X42257435Y8136440D01*
X42273857Y8163838D01*
X42292885Y8189495D01*
X42314337Y8213163D01*
X42338005Y8234615D01*
X42363662Y8253643D01*
X42391060Y8270065D01*
X42419937Y8283723D01*
X42450012Y8294484D01*
X42480998Y8302246D01*
X42512595Y8306933D01*
X42544500Y8308500D01*
X43195500Y8308500D01*
X43227405Y8306933D01*
G37*
D21*
X46770000Y2557500D03*
X42770000Y2557500D03*
D20*
G36*
X36867405Y8306933D02*
G01*
X36899002Y8302246D01*
X36929988Y8294484D01*
X36960063Y8283723D01*
X36988940Y8270065D01*
X37016338Y8253643D01*
X37041995Y8234615D01*
X37065663Y8213163D01*
X37087115Y8189495D01*
X37106143Y8163838D01*
X37122565Y8136440D01*
X37136223Y8107563D01*
X37146984Y8077488D01*
X37154746Y8046502D01*
X37159433Y8014905D01*
X37161000Y7983000D01*
X37161000Y6432000D01*
X37159433Y6400095D01*
X37154746Y6368498D01*
X37146984Y6337512D01*
X37136223Y6307437D01*
X37122565Y6278560D01*
X37106143Y6251162D01*
X37087115Y6225505D01*
X37065663Y6201837D01*
X37041995Y6180385D01*
X37016338Y6161357D01*
X36988940Y6144935D01*
X36960063Y6131277D01*
X36929988Y6120516D01*
X36899002Y6112754D01*
X36867405Y6108067D01*
X36835500Y6106500D01*
X36184500Y6106500D01*
X36152595Y6108067D01*
X36120998Y6112754D01*
X36090012Y6120516D01*
X36059937Y6131277D01*
X36031060Y6144935D01*
X36003662Y6161357D01*
X35978005Y6180385D01*
X35954337Y6201837D01*
X35932885Y6225505D01*
X35913857Y6251162D01*
X35897435Y6278560D01*
X35883777Y6307437D01*
X35873016Y6337512D01*
X35865254Y6368498D01*
X35860567Y6400095D01*
X35859000Y6432000D01*
X35859000Y7983000D01*
X35860567Y8014905D01*
X35865254Y8046502D01*
X35873016Y8077488D01*
X35883777Y8107563D01*
X35897435Y8136440D01*
X35913857Y8163838D01*
X35932885Y8189495D01*
X35954337Y8213163D01*
X35978005Y8234615D01*
X36003662Y8253643D01*
X36031060Y8270065D01*
X36059937Y8283723D01*
X36090012Y8294484D01*
X36120998Y8302246D01*
X36152595Y8306933D01*
X36184500Y8308500D01*
X36835500Y8308500D01*
X36867405Y8306933D01*
G37*
G36*
X35417405Y10956933D02*
G01*
X35449002Y10952246D01*
X35479988Y10944484D01*
X35510063Y10933723D01*
X35538940Y10920065D01*
X35566338Y10903643D01*
X35591995Y10884615D01*
X35615663Y10863163D01*
X35637115Y10839495D01*
X35656143Y10813838D01*
X35672565Y10786440D01*
X35686223Y10757563D01*
X35696984Y10727488D01*
X35704746Y10696502D01*
X35709433Y10664905D01*
X35711000Y10633000D01*
X35711000Y9982000D01*
X35709433Y9950095D01*
X35704746Y9918498D01*
X35696984Y9887512D01*
X35686223Y9857437D01*
X35672565Y9828560D01*
X35656143Y9801162D01*
X35637115Y9775505D01*
X35615663Y9751837D01*
X35591995Y9730385D01*
X35566338Y9711357D01*
X35538940Y9694935D01*
X35510063Y9681277D01*
X35479988Y9670516D01*
X35449002Y9662754D01*
X35417405Y9658067D01*
X35385500Y9656500D01*
X33834500Y9656500D01*
X33802595Y9658067D01*
X33770998Y9662754D01*
X33740012Y9670516D01*
X33709937Y9681277D01*
X33681060Y9694935D01*
X33653662Y9711357D01*
X33628005Y9730385D01*
X33604337Y9751837D01*
X33582885Y9775505D01*
X33563857Y9801162D01*
X33547435Y9828560D01*
X33533777Y9857437D01*
X33523016Y9887512D01*
X33515254Y9918498D01*
X33510567Y9950095D01*
X33509000Y9982000D01*
X33509000Y10633000D01*
X33510567Y10664905D01*
X33515254Y10696502D01*
X33523016Y10727488D01*
X33533777Y10757563D01*
X33547435Y10786440D01*
X33563857Y10813838D01*
X33582885Y10839495D01*
X33604337Y10863163D01*
X33628005Y10884615D01*
X33653662Y10903643D01*
X33681060Y10920065D01*
X33709937Y10933723D01*
X33740012Y10944484D01*
X33770998Y10952246D01*
X33802595Y10956933D01*
X33834500Y10958500D01*
X35385500Y10958500D01*
X35417405Y10956933D01*
G37*
G36*
X33067405Y8306933D02*
G01*
X33099002Y8302246D01*
X33129988Y8294484D01*
X33160063Y8283723D01*
X33188940Y8270065D01*
X33216338Y8253643D01*
X33241995Y8234615D01*
X33265663Y8213163D01*
X33287115Y8189495D01*
X33306143Y8163838D01*
X33322565Y8136440D01*
X33336223Y8107563D01*
X33346984Y8077488D01*
X33354746Y8046502D01*
X33359433Y8014905D01*
X33361000Y7983000D01*
X33361000Y6432000D01*
X33359433Y6400095D01*
X33354746Y6368498D01*
X33346984Y6337512D01*
X33336223Y6307437D01*
X33322565Y6278560D01*
X33306143Y6251162D01*
X33287115Y6225505D01*
X33265663Y6201837D01*
X33241995Y6180385D01*
X33216338Y6161357D01*
X33188940Y6144935D01*
X33160063Y6131277D01*
X33129988Y6120516D01*
X33099002Y6112754D01*
X33067405Y6108067D01*
X33035500Y6106500D01*
X32384500Y6106500D01*
X32352595Y6108067D01*
X32320998Y6112754D01*
X32290012Y6120516D01*
X32259937Y6131277D01*
X32231060Y6144935D01*
X32203662Y6161357D01*
X32178005Y6180385D01*
X32154337Y6201837D01*
X32132885Y6225505D01*
X32113857Y6251162D01*
X32097435Y6278560D01*
X32083777Y6307437D01*
X32073016Y6337512D01*
X32065254Y6368498D01*
X32060567Y6400095D01*
X32059000Y6432000D01*
X32059000Y7983000D01*
X32060567Y8014905D01*
X32065254Y8046502D01*
X32073016Y8077488D01*
X32083777Y8107563D01*
X32097435Y8136440D01*
X32113857Y8163838D01*
X32132885Y8189495D01*
X32154337Y8213163D01*
X32178005Y8234615D01*
X32203662Y8253643D01*
X32231060Y8270065D01*
X32259937Y8283723D01*
X32290012Y8294484D01*
X32320998Y8302246D01*
X32352595Y8306933D01*
X32384500Y8308500D01*
X33035500Y8308500D01*
X33067405Y8306933D01*
G37*
D21*
X36610000Y2557500D03*
X32610000Y2557500D03*
D20*
G36*
X26707405Y8306933D02*
G01*
X26739002Y8302246D01*
X26769988Y8294484D01*
X26800063Y8283723D01*
X26828940Y8270065D01*
X26856338Y8253643D01*
X26881995Y8234615D01*
X26905663Y8213163D01*
X26927115Y8189495D01*
X26946143Y8163838D01*
X26962565Y8136440D01*
X26976223Y8107563D01*
X26986984Y8077488D01*
X26994746Y8046502D01*
X26999433Y8014905D01*
X27001000Y7983000D01*
X27001000Y6432000D01*
X26999433Y6400095D01*
X26994746Y6368498D01*
X26986984Y6337512D01*
X26976223Y6307437D01*
X26962565Y6278560D01*
X26946143Y6251162D01*
X26927115Y6225505D01*
X26905663Y6201837D01*
X26881995Y6180385D01*
X26856338Y6161357D01*
X26828940Y6144935D01*
X26800063Y6131277D01*
X26769988Y6120516D01*
X26739002Y6112754D01*
X26707405Y6108067D01*
X26675500Y6106500D01*
X26024500Y6106500D01*
X25992595Y6108067D01*
X25960998Y6112754D01*
X25930012Y6120516D01*
X25899937Y6131277D01*
X25871060Y6144935D01*
X25843662Y6161357D01*
X25818005Y6180385D01*
X25794337Y6201837D01*
X25772885Y6225505D01*
X25753857Y6251162D01*
X25737435Y6278560D01*
X25723777Y6307437D01*
X25713016Y6337512D01*
X25705254Y6368498D01*
X25700567Y6400095D01*
X25699000Y6432000D01*
X25699000Y7983000D01*
X25700567Y8014905D01*
X25705254Y8046502D01*
X25713016Y8077488D01*
X25723777Y8107563D01*
X25737435Y8136440D01*
X25753857Y8163838D01*
X25772885Y8189495D01*
X25794337Y8213163D01*
X25818005Y8234615D01*
X25843662Y8253643D01*
X25871060Y8270065D01*
X25899937Y8283723D01*
X25930012Y8294484D01*
X25960998Y8302246D01*
X25992595Y8306933D01*
X26024500Y8308500D01*
X26675500Y8308500D01*
X26707405Y8306933D01*
G37*
G36*
X25257405Y10956933D02*
G01*
X25289002Y10952246D01*
X25319988Y10944484D01*
X25350063Y10933723D01*
X25378940Y10920065D01*
X25406338Y10903643D01*
X25431995Y10884615D01*
X25455663Y10863163D01*
X25477115Y10839495D01*
X25496143Y10813838D01*
X25512565Y10786440D01*
X25526223Y10757563D01*
X25536984Y10727488D01*
X25544746Y10696502D01*
X25549433Y10664905D01*
X25551000Y10633000D01*
X25551000Y9982000D01*
X25549433Y9950095D01*
X25544746Y9918498D01*
X25536984Y9887512D01*
X25526223Y9857437D01*
X25512565Y9828560D01*
X25496143Y9801162D01*
X25477115Y9775505D01*
X25455663Y9751837D01*
X25431995Y9730385D01*
X25406338Y9711357D01*
X25378940Y9694935D01*
X25350063Y9681277D01*
X25319988Y9670516D01*
X25289002Y9662754D01*
X25257405Y9658067D01*
X25225500Y9656500D01*
X23674500Y9656500D01*
X23642595Y9658067D01*
X23610998Y9662754D01*
X23580012Y9670516D01*
X23549937Y9681277D01*
X23521060Y9694935D01*
X23493662Y9711357D01*
X23468005Y9730385D01*
X23444337Y9751837D01*
X23422885Y9775505D01*
X23403857Y9801162D01*
X23387435Y9828560D01*
X23373777Y9857437D01*
X23363016Y9887512D01*
X23355254Y9918498D01*
X23350567Y9950095D01*
X23349000Y9982000D01*
X23349000Y10633000D01*
X23350567Y10664905D01*
X23355254Y10696502D01*
X23363016Y10727488D01*
X23373777Y10757563D01*
X23387435Y10786440D01*
X23403857Y10813838D01*
X23422885Y10839495D01*
X23444337Y10863163D01*
X23468005Y10884615D01*
X23493662Y10903643D01*
X23521060Y10920065D01*
X23549937Y10933723D01*
X23580012Y10944484D01*
X23610998Y10952246D01*
X23642595Y10956933D01*
X23674500Y10958500D01*
X25225500Y10958500D01*
X25257405Y10956933D01*
G37*
G36*
X22907405Y8306933D02*
G01*
X22939002Y8302246D01*
X22969988Y8294484D01*
X23000063Y8283723D01*
X23028940Y8270065D01*
X23056338Y8253643D01*
X23081995Y8234615D01*
X23105663Y8213163D01*
X23127115Y8189495D01*
X23146143Y8163838D01*
X23162565Y8136440D01*
X23176223Y8107563D01*
X23186984Y8077488D01*
X23194746Y8046502D01*
X23199433Y8014905D01*
X23201000Y7983000D01*
X23201000Y6432000D01*
X23199433Y6400095D01*
X23194746Y6368498D01*
X23186984Y6337512D01*
X23176223Y6307437D01*
X23162565Y6278560D01*
X23146143Y6251162D01*
X23127115Y6225505D01*
X23105663Y6201837D01*
X23081995Y6180385D01*
X23056338Y6161357D01*
X23028940Y6144935D01*
X23000063Y6131277D01*
X22969988Y6120516D01*
X22939002Y6112754D01*
X22907405Y6108067D01*
X22875500Y6106500D01*
X22224500Y6106500D01*
X22192595Y6108067D01*
X22160998Y6112754D01*
X22130012Y6120516D01*
X22099937Y6131277D01*
X22071060Y6144935D01*
X22043662Y6161357D01*
X22018005Y6180385D01*
X21994337Y6201837D01*
X21972885Y6225505D01*
X21953857Y6251162D01*
X21937435Y6278560D01*
X21923777Y6307437D01*
X21913016Y6337512D01*
X21905254Y6368498D01*
X21900567Y6400095D01*
X21899000Y6432000D01*
X21899000Y7983000D01*
X21900567Y8014905D01*
X21905254Y8046502D01*
X21913016Y8077488D01*
X21923777Y8107563D01*
X21937435Y8136440D01*
X21953857Y8163838D01*
X21972885Y8189495D01*
X21994337Y8213163D01*
X22018005Y8234615D01*
X22043662Y8253643D01*
X22071060Y8270065D01*
X22099937Y8283723D01*
X22130012Y8294484D01*
X22160998Y8302246D01*
X22192595Y8306933D01*
X22224500Y8308500D01*
X22875500Y8308500D01*
X22907405Y8306933D01*
G37*
D21*
X26450000Y2557500D03*
X22450000Y2557500D03*
D20*
G36*
X16547405Y8306933D02*
G01*
X16579002Y8302246D01*
X16609988Y8294484D01*
X16640063Y8283723D01*
X16668940Y8270065D01*
X16696338Y8253643D01*
X16721995Y8234615D01*
X16745663Y8213163D01*
X16767115Y8189495D01*
X16786143Y8163838D01*
X16802565Y8136440D01*
X16816223Y8107563D01*
X16826984Y8077488D01*
X16834746Y8046502D01*
X16839433Y8014905D01*
X16841000Y7983000D01*
X16841000Y6432000D01*
X16839433Y6400095D01*
X16834746Y6368498D01*
X16826984Y6337512D01*
X16816223Y6307437D01*
X16802565Y6278560D01*
X16786143Y6251162D01*
X16767115Y6225505D01*
X16745663Y6201837D01*
X16721995Y6180385D01*
X16696338Y6161357D01*
X16668940Y6144935D01*
X16640063Y6131277D01*
X16609988Y6120516D01*
X16579002Y6112754D01*
X16547405Y6108067D01*
X16515500Y6106500D01*
X15864500Y6106500D01*
X15832595Y6108067D01*
X15800998Y6112754D01*
X15770012Y6120516D01*
X15739937Y6131277D01*
X15711060Y6144935D01*
X15683662Y6161357D01*
X15658005Y6180385D01*
X15634337Y6201837D01*
X15612885Y6225505D01*
X15593857Y6251162D01*
X15577435Y6278560D01*
X15563777Y6307437D01*
X15553016Y6337512D01*
X15545254Y6368498D01*
X15540567Y6400095D01*
X15539000Y6432000D01*
X15539000Y7983000D01*
X15540567Y8014905D01*
X15545254Y8046502D01*
X15553016Y8077488D01*
X15563777Y8107563D01*
X15577435Y8136440D01*
X15593857Y8163838D01*
X15612885Y8189495D01*
X15634337Y8213163D01*
X15658005Y8234615D01*
X15683662Y8253643D01*
X15711060Y8270065D01*
X15739937Y8283723D01*
X15770012Y8294484D01*
X15800998Y8302246D01*
X15832595Y8306933D01*
X15864500Y8308500D01*
X16515500Y8308500D01*
X16547405Y8306933D01*
G37*
G36*
X15097405Y10956933D02*
G01*
X15129002Y10952246D01*
X15159988Y10944484D01*
X15190063Y10933723D01*
X15218940Y10920065D01*
X15246338Y10903643D01*
X15271995Y10884615D01*
X15295663Y10863163D01*
X15317115Y10839495D01*
X15336143Y10813838D01*
X15352565Y10786440D01*
X15366223Y10757563D01*
X15376984Y10727488D01*
X15384746Y10696502D01*
X15389433Y10664905D01*
X15391000Y10633000D01*
X15391000Y9982000D01*
X15389433Y9950095D01*
X15384746Y9918498D01*
X15376984Y9887512D01*
X15366223Y9857437D01*
X15352565Y9828560D01*
X15336143Y9801162D01*
X15317115Y9775505D01*
X15295663Y9751837D01*
X15271995Y9730385D01*
X15246338Y9711357D01*
X15218940Y9694935D01*
X15190063Y9681277D01*
X15159988Y9670516D01*
X15129002Y9662754D01*
X15097405Y9658067D01*
X15065500Y9656500D01*
X13514500Y9656500D01*
X13482595Y9658067D01*
X13450998Y9662754D01*
X13420012Y9670516D01*
X13389937Y9681277D01*
X13361060Y9694935D01*
X13333662Y9711357D01*
X13308005Y9730385D01*
X13284337Y9751837D01*
X13262885Y9775505D01*
X13243857Y9801162D01*
X13227435Y9828560D01*
X13213777Y9857437D01*
X13203016Y9887512D01*
X13195254Y9918498D01*
X13190567Y9950095D01*
X13189000Y9982000D01*
X13189000Y10633000D01*
X13190567Y10664905D01*
X13195254Y10696502D01*
X13203016Y10727488D01*
X13213777Y10757563D01*
X13227435Y10786440D01*
X13243857Y10813838D01*
X13262885Y10839495D01*
X13284337Y10863163D01*
X13308005Y10884615D01*
X13333662Y10903643D01*
X13361060Y10920065D01*
X13389937Y10933723D01*
X13420012Y10944484D01*
X13450998Y10952246D01*
X13482595Y10956933D01*
X13514500Y10958500D01*
X15065500Y10958500D01*
X15097405Y10956933D01*
G37*
G36*
X12747405Y8306933D02*
G01*
X12779002Y8302246D01*
X12809988Y8294484D01*
X12840063Y8283723D01*
X12868940Y8270065D01*
X12896338Y8253643D01*
X12921995Y8234615D01*
X12945663Y8213163D01*
X12967115Y8189495D01*
X12986143Y8163838D01*
X13002565Y8136440D01*
X13016223Y8107563D01*
X13026984Y8077488D01*
X13034746Y8046502D01*
X13039433Y8014905D01*
X13041000Y7983000D01*
X13041000Y6432000D01*
X13039433Y6400095D01*
X13034746Y6368498D01*
X13026984Y6337512D01*
X13016223Y6307437D01*
X13002565Y6278560D01*
X12986143Y6251162D01*
X12967115Y6225505D01*
X12945663Y6201837D01*
X12921995Y6180385D01*
X12896338Y6161357D01*
X12868940Y6144935D01*
X12840063Y6131277D01*
X12809988Y6120516D01*
X12779002Y6112754D01*
X12747405Y6108067D01*
X12715500Y6106500D01*
X12064500Y6106500D01*
X12032595Y6108067D01*
X12000998Y6112754D01*
X11970012Y6120516D01*
X11939937Y6131277D01*
X11911060Y6144935D01*
X11883662Y6161357D01*
X11858005Y6180385D01*
X11834337Y6201837D01*
X11812885Y6225505D01*
X11793857Y6251162D01*
X11777435Y6278560D01*
X11763777Y6307437D01*
X11753016Y6337512D01*
X11745254Y6368498D01*
X11740567Y6400095D01*
X11739000Y6432000D01*
X11739000Y7983000D01*
X11740567Y8014905D01*
X11745254Y8046502D01*
X11753016Y8077488D01*
X11763777Y8107563D01*
X11777435Y8136440D01*
X11793857Y8163838D01*
X11812885Y8189495D01*
X11834337Y8213163D01*
X11858005Y8234615D01*
X11883662Y8253643D01*
X11911060Y8270065D01*
X11939937Y8283723D01*
X11970012Y8294484D01*
X12000998Y8302246D01*
X12032595Y8306933D01*
X12064500Y8308500D01*
X12715500Y8308500D01*
X12747405Y8306933D01*
G37*
D21*
X16290000Y2557500D03*
X12290000Y2557500D03*
D18*
X66360000Y60790000D03*
D22*
X76520000Y60790000D03*
D18*
X37150000Y65235000D03*
D22*
X37150000Y55075000D03*
D18*
X80330000Y49995000D03*
D22*
X70170000Y49995000D03*
D18*
X32705000Y47455000D03*
D22*
X22545000Y47455000D03*
D18*
X32705000Y50630000D03*
D22*
X22545000Y50630000D03*
D18*
X82870000Y37295000D03*
D22*
X72710000Y37295000D03*
D18*
X72710000Y34120000D03*
D22*
X82870000Y34120000D03*
D18*
X7305000Y42375000D03*
D22*
X7305000Y32215000D03*
D23*
X81600000Y55075000D03*
D24*
X79060000Y55075000D03*
X80330000Y55075000D03*
D25*
X75885000Y29040000D03*
D26*
X78425000Y29040000D03*
D22*
X61915000Y60075000D03*
X61915000Y55075000D03*
X74615000Y20865000D03*
X74615000Y25865000D03*
M02*
