G04 #@! TF.GenerationSoftware,KiCad,Pcbnew,(5.1.5)-2*
G04 #@! TF.CreationDate,2020-02-20T16:43:49+01:00*
G04 #@! TF.ProjectId,BBMini32,42424d69-6e69-4333-922e-6b696361645f,V1.0*
G04 #@! TF.SameCoordinates,PX1312d00PY55d4a80*
G04 #@! TF.FileFunction,Soldermask,Top*
G04 #@! TF.FilePolarity,Negative*
%FSLAX46Y46*%
G04 Gerber Fmt 4.6, Leading zero omitted, Abs format (unit mm)*
G04 Created by KiCad (PCBNEW (5.1.5)-2) date 2020-02-20 16:43:49*
%MOMM*%
%LPD*%
G04 APERTURE LIST*
%ADD10C,0.100000*%
G04 APERTURE END LIST*
D10*
G36*
X87567023Y3596910D02*
G01*
X87667682Y3566375D01*
X87718013Y3551108D01*
X87857165Y3476729D01*
X87979133Y3376633D01*
X88079229Y3254665D01*
X88153608Y3115513D01*
X88153608Y3115512D01*
X88199410Y2964523D01*
X88211000Y2846845D01*
X88211000Y2268155D01*
X88199410Y2150477D01*
X88168875Y2049818D01*
X88153608Y1999487D01*
X88086498Y1873934D01*
X88079229Y1860335D01*
X87979133Y1738367D01*
X87857164Y1638271D01*
X87718012Y1563892D01*
X87667681Y1548625D01*
X87567022Y1518090D01*
X87410000Y1502625D01*
X87252977Y1518090D01*
X87152318Y1548625D01*
X87101987Y1563892D01*
X86962835Y1638271D01*
X86840867Y1738367D01*
X86740771Y1860336D01*
X86666393Y1999487D01*
X86666392Y1999488D01*
X86651125Y2049819D01*
X86620590Y2150478D01*
X86609000Y2268156D01*
X86609000Y2846845D01*
X86620590Y2964523D01*
X86666392Y3115512D01*
X86666392Y3115513D01*
X86685607Y3151461D01*
X86740771Y3254665D01*
X86840868Y3376633D01*
X86962836Y3476729D01*
X87101988Y3551108D01*
X87152319Y3566375D01*
X87252978Y3596910D01*
X87410000Y3612375D01*
X87567023Y3596910D01*
G37*
G36*
X42927023Y3596910D02*
G01*
X43027682Y3566375D01*
X43078013Y3551108D01*
X43217165Y3476729D01*
X43339133Y3376633D01*
X43439229Y3254665D01*
X43513608Y3115513D01*
X43513608Y3115512D01*
X43559410Y2964523D01*
X43571000Y2846845D01*
X43571000Y2268155D01*
X43559410Y2150477D01*
X43528875Y2049818D01*
X43513608Y1999487D01*
X43446498Y1873934D01*
X43439229Y1860335D01*
X43339133Y1738367D01*
X43217164Y1638271D01*
X43078012Y1563892D01*
X43027681Y1548625D01*
X42927022Y1518090D01*
X42770000Y1502625D01*
X42612977Y1518090D01*
X42512318Y1548625D01*
X42461987Y1563892D01*
X42322835Y1638271D01*
X42200867Y1738367D01*
X42100771Y1860336D01*
X42026393Y1999487D01*
X42026392Y1999488D01*
X42011125Y2049819D01*
X41980590Y2150478D01*
X41969000Y2268156D01*
X41969000Y2846845D01*
X41980590Y2964523D01*
X42026392Y3115512D01*
X42026392Y3115513D01*
X42045607Y3151461D01*
X42100771Y3254665D01*
X42200868Y3376633D01*
X42322836Y3476729D01*
X42461988Y3551108D01*
X42512319Y3566375D01*
X42612978Y3596910D01*
X42770000Y3612375D01*
X42927023Y3596910D01*
G37*
G36*
X12447023Y3596910D02*
G01*
X12547682Y3566375D01*
X12598013Y3551108D01*
X12737165Y3476729D01*
X12859133Y3376633D01*
X12959229Y3254665D01*
X13033608Y3115513D01*
X13033608Y3115512D01*
X13079410Y2964523D01*
X13091000Y2846845D01*
X13091000Y2268155D01*
X13079410Y2150477D01*
X13048875Y2049818D01*
X13033608Y1999487D01*
X12966498Y1873934D01*
X12959229Y1860335D01*
X12859133Y1738367D01*
X12737164Y1638271D01*
X12598012Y1563892D01*
X12547681Y1548625D01*
X12447022Y1518090D01*
X12290000Y1502625D01*
X12132977Y1518090D01*
X12032318Y1548625D01*
X11981987Y1563892D01*
X11842835Y1638271D01*
X11720867Y1738367D01*
X11620771Y1860336D01*
X11546393Y1999487D01*
X11546392Y1999488D01*
X11531125Y2049819D01*
X11500590Y2150478D01*
X11489000Y2268156D01*
X11489000Y2846845D01*
X11500590Y2964523D01*
X11546392Y3115512D01*
X11546392Y3115513D01*
X11565607Y3151461D01*
X11620771Y3254665D01*
X11720868Y3376633D01*
X11842836Y3476729D01*
X11981988Y3551108D01*
X12032319Y3566375D01*
X12132978Y3596910D01*
X12290000Y3612375D01*
X12447023Y3596910D01*
G37*
G36*
X16447023Y3596910D02*
G01*
X16547682Y3566375D01*
X16598013Y3551108D01*
X16737165Y3476729D01*
X16859133Y3376633D01*
X16959229Y3254665D01*
X17033608Y3115513D01*
X17033608Y3115512D01*
X17079410Y2964523D01*
X17091000Y2846845D01*
X17091000Y2268155D01*
X17079410Y2150477D01*
X17048875Y2049818D01*
X17033608Y1999487D01*
X16966498Y1873934D01*
X16959229Y1860335D01*
X16859133Y1738367D01*
X16737164Y1638271D01*
X16598012Y1563892D01*
X16547681Y1548625D01*
X16447022Y1518090D01*
X16290000Y1502625D01*
X16132977Y1518090D01*
X16032318Y1548625D01*
X15981987Y1563892D01*
X15842835Y1638271D01*
X15720867Y1738367D01*
X15620771Y1860336D01*
X15546393Y1999487D01*
X15546392Y1999488D01*
X15531125Y2049819D01*
X15500590Y2150478D01*
X15489000Y2268156D01*
X15489000Y2846845D01*
X15500590Y2964523D01*
X15546392Y3115512D01*
X15546392Y3115513D01*
X15565607Y3151461D01*
X15620771Y3254665D01*
X15720868Y3376633D01*
X15842836Y3476729D01*
X15981988Y3551108D01*
X16032319Y3566375D01*
X16132978Y3596910D01*
X16290000Y3612375D01*
X16447023Y3596910D01*
G37*
G36*
X22607023Y3596910D02*
G01*
X22707682Y3566375D01*
X22758013Y3551108D01*
X22897165Y3476729D01*
X23019133Y3376633D01*
X23119229Y3254665D01*
X23193608Y3115513D01*
X23193608Y3115512D01*
X23239410Y2964523D01*
X23251000Y2846845D01*
X23251000Y2268155D01*
X23239410Y2150477D01*
X23208875Y2049818D01*
X23193608Y1999487D01*
X23126498Y1873934D01*
X23119229Y1860335D01*
X23019133Y1738367D01*
X22897164Y1638271D01*
X22758012Y1563892D01*
X22707681Y1548625D01*
X22607022Y1518090D01*
X22450000Y1502625D01*
X22292977Y1518090D01*
X22192318Y1548625D01*
X22141987Y1563892D01*
X22002835Y1638271D01*
X21880867Y1738367D01*
X21780771Y1860336D01*
X21706393Y1999487D01*
X21706392Y1999488D01*
X21691125Y2049819D01*
X21660590Y2150478D01*
X21649000Y2268156D01*
X21649000Y2846845D01*
X21660590Y2964523D01*
X21706392Y3115512D01*
X21706392Y3115513D01*
X21725607Y3151461D01*
X21780771Y3254665D01*
X21880868Y3376633D01*
X22002836Y3476729D01*
X22141988Y3551108D01*
X22192319Y3566375D01*
X22292978Y3596910D01*
X22450000Y3612375D01*
X22607023Y3596910D01*
G37*
G36*
X26607023Y3596910D02*
G01*
X26707682Y3566375D01*
X26758013Y3551108D01*
X26897165Y3476729D01*
X27019133Y3376633D01*
X27119229Y3254665D01*
X27193608Y3115513D01*
X27193608Y3115512D01*
X27239410Y2964523D01*
X27251000Y2846845D01*
X27251000Y2268155D01*
X27239410Y2150477D01*
X27208875Y2049818D01*
X27193608Y1999487D01*
X27126498Y1873934D01*
X27119229Y1860335D01*
X27019133Y1738367D01*
X26897164Y1638271D01*
X26758012Y1563892D01*
X26707681Y1548625D01*
X26607022Y1518090D01*
X26450000Y1502625D01*
X26292977Y1518090D01*
X26192318Y1548625D01*
X26141987Y1563892D01*
X26002835Y1638271D01*
X25880867Y1738367D01*
X25780771Y1860336D01*
X25706393Y1999487D01*
X25706392Y1999488D01*
X25691125Y2049819D01*
X25660590Y2150478D01*
X25649000Y2268156D01*
X25649000Y2846845D01*
X25660590Y2964523D01*
X25706392Y3115512D01*
X25706392Y3115513D01*
X25725607Y3151461D01*
X25780771Y3254665D01*
X25880868Y3376633D01*
X26002836Y3476729D01*
X26141988Y3551108D01*
X26192319Y3566375D01*
X26292978Y3596910D01*
X26450000Y3612375D01*
X26607023Y3596910D01*
G37*
G36*
X32767023Y3596910D02*
G01*
X32867682Y3566375D01*
X32918013Y3551108D01*
X33057165Y3476729D01*
X33179133Y3376633D01*
X33279229Y3254665D01*
X33353608Y3115513D01*
X33353608Y3115512D01*
X33399410Y2964523D01*
X33411000Y2846845D01*
X33411000Y2268155D01*
X33399410Y2150477D01*
X33368875Y2049818D01*
X33353608Y1999487D01*
X33286498Y1873934D01*
X33279229Y1860335D01*
X33179133Y1738367D01*
X33057164Y1638271D01*
X32918012Y1563892D01*
X32867681Y1548625D01*
X32767022Y1518090D01*
X32610000Y1502625D01*
X32452977Y1518090D01*
X32352318Y1548625D01*
X32301987Y1563892D01*
X32162835Y1638271D01*
X32040867Y1738367D01*
X31940771Y1860336D01*
X31866393Y1999487D01*
X31866392Y1999488D01*
X31851125Y2049819D01*
X31820590Y2150478D01*
X31809000Y2268156D01*
X31809000Y2846845D01*
X31820590Y2964523D01*
X31866392Y3115512D01*
X31866392Y3115513D01*
X31885607Y3151461D01*
X31940771Y3254665D01*
X32040868Y3376633D01*
X32162836Y3476729D01*
X32301988Y3551108D01*
X32352319Y3566375D01*
X32452978Y3596910D01*
X32610000Y3612375D01*
X32767023Y3596910D01*
G37*
G36*
X36767023Y3596910D02*
G01*
X36867682Y3566375D01*
X36918013Y3551108D01*
X37057165Y3476729D01*
X37179133Y3376633D01*
X37279229Y3254665D01*
X37353608Y3115513D01*
X37353608Y3115512D01*
X37399410Y2964523D01*
X37411000Y2846845D01*
X37411000Y2268155D01*
X37399410Y2150477D01*
X37368875Y2049818D01*
X37353608Y1999487D01*
X37286498Y1873934D01*
X37279229Y1860335D01*
X37179133Y1738367D01*
X37057164Y1638271D01*
X36918012Y1563892D01*
X36867681Y1548625D01*
X36767022Y1518090D01*
X36610000Y1502625D01*
X36452977Y1518090D01*
X36352318Y1548625D01*
X36301987Y1563892D01*
X36162835Y1638271D01*
X36040867Y1738367D01*
X35940771Y1860336D01*
X35866393Y1999487D01*
X35866392Y1999488D01*
X35851125Y2049819D01*
X35820590Y2150478D01*
X35809000Y2268156D01*
X35809000Y2846845D01*
X35820590Y2964523D01*
X35866392Y3115512D01*
X35866392Y3115513D01*
X35885607Y3151461D01*
X35940771Y3254665D01*
X36040868Y3376633D01*
X36162836Y3476729D01*
X36301988Y3551108D01*
X36352319Y3566375D01*
X36452978Y3596910D01*
X36610000Y3612375D01*
X36767023Y3596910D01*
G37*
G36*
X77407023Y3596910D02*
G01*
X77507682Y3566375D01*
X77558013Y3551108D01*
X77697165Y3476729D01*
X77819133Y3376633D01*
X77919229Y3254665D01*
X77993608Y3115513D01*
X77993608Y3115512D01*
X78039410Y2964523D01*
X78051000Y2846845D01*
X78051000Y2268155D01*
X78039410Y2150477D01*
X78008875Y2049818D01*
X77993608Y1999487D01*
X77926498Y1873934D01*
X77919229Y1860335D01*
X77819133Y1738367D01*
X77697164Y1638271D01*
X77558012Y1563892D01*
X77507681Y1548625D01*
X77407022Y1518090D01*
X77250000Y1502625D01*
X77092977Y1518090D01*
X76992318Y1548625D01*
X76941987Y1563892D01*
X76802835Y1638271D01*
X76680867Y1738367D01*
X76580771Y1860336D01*
X76506393Y1999487D01*
X76506392Y1999488D01*
X76491125Y2049819D01*
X76460590Y2150478D01*
X76449000Y2268156D01*
X76449000Y2846845D01*
X76460590Y2964523D01*
X76506392Y3115512D01*
X76506392Y3115513D01*
X76525607Y3151461D01*
X76580771Y3254665D01*
X76680868Y3376633D01*
X76802836Y3476729D01*
X76941988Y3551108D01*
X76992319Y3566375D01*
X77092978Y3596910D01*
X77250000Y3612375D01*
X77407023Y3596910D01*
G37*
G36*
X53087023Y3596910D02*
G01*
X53187682Y3566375D01*
X53238013Y3551108D01*
X53377165Y3476729D01*
X53499133Y3376633D01*
X53599229Y3254665D01*
X53673608Y3115513D01*
X53673608Y3115512D01*
X53719410Y2964523D01*
X53731000Y2846845D01*
X53731000Y2268155D01*
X53719410Y2150477D01*
X53688875Y2049818D01*
X53673608Y1999487D01*
X53606498Y1873934D01*
X53599229Y1860335D01*
X53499133Y1738367D01*
X53377164Y1638271D01*
X53238012Y1563892D01*
X53187681Y1548625D01*
X53087022Y1518090D01*
X52930000Y1502625D01*
X52772977Y1518090D01*
X52672318Y1548625D01*
X52621987Y1563892D01*
X52482835Y1638271D01*
X52360867Y1738367D01*
X52260771Y1860336D01*
X52186393Y1999487D01*
X52186392Y1999488D01*
X52171125Y2049819D01*
X52140590Y2150478D01*
X52129000Y2268156D01*
X52129000Y2846845D01*
X52140590Y2964523D01*
X52186392Y3115512D01*
X52186392Y3115513D01*
X52205607Y3151461D01*
X52260771Y3254665D01*
X52360868Y3376633D01*
X52482836Y3476729D01*
X52621988Y3551108D01*
X52672319Y3566375D01*
X52772978Y3596910D01*
X52930000Y3612375D01*
X53087023Y3596910D01*
G37*
G36*
X57087023Y3596910D02*
G01*
X57187682Y3566375D01*
X57238013Y3551108D01*
X57377165Y3476729D01*
X57499133Y3376633D01*
X57599229Y3254665D01*
X57673608Y3115513D01*
X57673608Y3115512D01*
X57719410Y2964523D01*
X57731000Y2846845D01*
X57731000Y2268155D01*
X57719410Y2150477D01*
X57688875Y2049818D01*
X57673608Y1999487D01*
X57606498Y1873934D01*
X57599229Y1860335D01*
X57499133Y1738367D01*
X57377164Y1638271D01*
X57238012Y1563892D01*
X57187681Y1548625D01*
X57087022Y1518090D01*
X56930000Y1502625D01*
X56772977Y1518090D01*
X56672318Y1548625D01*
X56621987Y1563892D01*
X56482835Y1638271D01*
X56360867Y1738367D01*
X56260771Y1860336D01*
X56186393Y1999487D01*
X56186392Y1999488D01*
X56171125Y2049819D01*
X56140590Y2150478D01*
X56129000Y2268156D01*
X56129000Y2846845D01*
X56140590Y2964523D01*
X56186392Y3115512D01*
X56186392Y3115513D01*
X56205607Y3151461D01*
X56260771Y3254665D01*
X56360868Y3376633D01*
X56482836Y3476729D01*
X56621988Y3551108D01*
X56672319Y3566375D01*
X56772978Y3596910D01*
X56930000Y3612375D01*
X57087023Y3596910D01*
G37*
G36*
X63247023Y3596910D02*
G01*
X63347682Y3566375D01*
X63398013Y3551108D01*
X63537165Y3476729D01*
X63659133Y3376633D01*
X63759229Y3254665D01*
X63833608Y3115513D01*
X63833608Y3115512D01*
X63879410Y2964523D01*
X63891000Y2846845D01*
X63891000Y2268155D01*
X63879410Y2150477D01*
X63848875Y2049818D01*
X63833608Y1999487D01*
X63766498Y1873934D01*
X63759229Y1860335D01*
X63659133Y1738367D01*
X63537164Y1638271D01*
X63398012Y1563892D01*
X63347681Y1548625D01*
X63247022Y1518090D01*
X63090000Y1502625D01*
X62932977Y1518090D01*
X62832318Y1548625D01*
X62781987Y1563892D01*
X62642835Y1638271D01*
X62520867Y1738367D01*
X62420771Y1860336D01*
X62346393Y1999487D01*
X62346392Y1999488D01*
X62331125Y2049819D01*
X62300590Y2150478D01*
X62289000Y2268156D01*
X62289000Y2846845D01*
X62300590Y2964523D01*
X62346392Y3115512D01*
X62346392Y3115513D01*
X62365607Y3151461D01*
X62420771Y3254665D01*
X62520868Y3376633D01*
X62642836Y3476729D01*
X62781988Y3551108D01*
X62832319Y3566375D01*
X62932978Y3596910D01*
X63090000Y3612375D01*
X63247023Y3596910D01*
G37*
G36*
X67247023Y3596910D02*
G01*
X67347682Y3566375D01*
X67398013Y3551108D01*
X67537165Y3476729D01*
X67659133Y3376633D01*
X67759229Y3254665D01*
X67833608Y3115513D01*
X67833608Y3115512D01*
X67879410Y2964523D01*
X67891000Y2846845D01*
X67891000Y2268155D01*
X67879410Y2150477D01*
X67848875Y2049818D01*
X67833608Y1999487D01*
X67766498Y1873934D01*
X67759229Y1860335D01*
X67659133Y1738367D01*
X67537164Y1638271D01*
X67398012Y1563892D01*
X67347681Y1548625D01*
X67247022Y1518090D01*
X67090000Y1502625D01*
X66932977Y1518090D01*
X66832318Y1548625D01*
X66781987Y1563892D01*
X66642835Y1638271D01*
X66520867Y1738367D01*
X66420771Y1860336D01*
X66346393Y1999487D01*
X66346392Y1999488D01*
X66331125Y2049819D01*
X66300590Y2150478D01*
X66289000Y2268156D01*
X66289000Y2846845D01*
X66300590Y2964523D01*
X66346392Y3115512D01*
X66346392Y3115513D01*
X66365607Y3151461D01*
X66420771Y3254665D01*
X66520868Y3376633D01*
X66642836Y3476729D01*
X66781988Y3551108D01*
X66832319Y3566375D01*
X66932978Y3596910D01*
X67090000Y3612375D01*
X67247023Y3596910D01*
G37*
G36*
X73407023Y3596910D02*
G01*
X73507682Y3566375D01*
X73558013Y3551108D01*
X73697165Y3476729D01*
X73819133Y3376633D01*
X73919229Y3254665D01*
X73993608Y3115513D01*
X73993608Y3115512D01*
X74039410Y2964523D01*
X74051000Y2846845D01*
X74051000Y2268155D01*
X74039410Y2150477D01*
X74008875Y2049818D01*
X73993608Y1999487D01*
X73926498Y1873934D01*
X73919229Y1860335D01*
X73819133Y1738367D01*
X73697164Y1638271D01*
X73558012Y1563892D01*
X73507681Y1548625D01*
X73407022Y1518090D01*
X73250000Y1502625D01*
X73092977Y1518090D01*
X72992318Y1548625D01*
X72941987Y1563892D01*
X72802835Y1638271D01*
X72680867Y1738367D01*
X72580771Y1860336D01*
X72506393Y1999487D01*
X72506392Y1999488D01*
X72491125Y2049819D01*
X72460590Y2150478D01*
X72449000Y2268156D01*
X72449000Y2846845D01*
X72460590Y2964523D01*
X72506392Y3115512D01*
X72506392Y3115513D01*
X72525607Y3151461D01*
X72580771Y3254665D01*
X72680868Y3376633D01*
X72802836Y3476729D01*
X72941988Y3551108D01*
X72992319Y3566375D01*
X73092978Y3596910D01*
X73250000Y3612375D01*
X73407023Y3596910D01*
G37*
G36*
X83567023Y3596910D02*
G01*
X83667682Y3566375D01*
X83718013Y3551108D01*
X83857165Y3476729D01*
X83979133Y3376633D01*
X84079229Y3254665D01*
X84153608Y3115513D01*
X84153608Y3115512D01*
X84199410Y2964523D01*
X84211000Y2846845D01*
X84211000Y2268155D01*
X84199410Y2150477D01*
X84168875Y2049818D01*
X84153608Y1999487D01*
X84086498Y1873934D01*
X84079229Y1860335D01*
X83979133Y1738367D01*
X83857164Y1638271D01*
X83718012Y1563892D01*
X83667681Y1548625D01*
X83567022Y1518090D01*
X83410000Y1502625D01*
X83252977Y1518090D01*
X83152318Y1548625D01*
X83101987Y1563892D01*
X82962835Y1638271D01*
X82840867Y1738367D01*
X82740771Y1860336D01*
X82666393Y1999487D01*
X82666392Y1999488D01*
X82651125Y2049819D01*
X82620590Y2150478D01*
X82609000Y2268156D01*
X82609000Y2846845D01*
X82620590Y2964523D01*
X82666392Y3115512D01*
X82666392Y3115513D01*
X82685607Y3151461D01*
X82740771Y3254665D01*
X82840868Y3376633D01*
X82962836Y3476729D01*
X83101988Y3551108D01*
X83152319Y3566375D01*
X83252978Y3596910D01*
X83410000Y3612375D01*
X83567023Y3596910D01*
G37*
G36*
X46927023Y3596910D02*
G01*
X47027682Y3566375D01*
X47078013Y3551108D01*
X47217165Y3476729D01*
X47339133Y3376633D01*
X47439229Y3254665D01*
X47513608Y3115513D01*
X47513608Y3115512D01*
X47559410Y2964523D01*
X47571000Y2846845D01*
X47571000Y2268155D01*
X47559410Y2150477D01*
X47528875Y2049818D01*
X47513608Y1999487D01*
X47446498Y1873934D01*
X47439229Y1860335D01*
X47339133Y1738367D01*
X47217164Y1638271D01*
X47078012Y1563892D01*
X47027681Y1548625D01*
X46927022Y1518090D01*
X46770000Y1502625D01*
X46612977Y1518090D01*
X46512318Y1548625D01*
X46461987Y1563892D01*
X46322835Y1638271D01*
X46200867Y1738367D01*
X46100771Y1860336D01*
X46026393Y1999487D01*
X46026392Y1999488D01*
X46011125Y2049819D01*
X45980590Y2150478D01*
X45969000Y2268156D01*
X45969000Y2846845D01*
X45980590Y2964523D01*
X46026392Y3115512D01*
X46026392Y3115513D01*
X46045607Y3151461D01*
X46100771Y3254665D01*
X46200868Y3376633D01*
X46322836Y3476729D01*
X46461988Y3551108D01*
X46512319Y3566375D01*
X46612978Y3596910D01*
X46770000Y3612375D01*
X46927023Y3596910D01*
G37*
G36*
X95420532Y8231042D02*
G01*
X95948282Y8126066D01*
X96539926Y7880999D01*
X97072392Y7525216D01*
X97525216Y7072392D01*
X97880999Y6539926D01*
X98126066Y5948282D01*
X98251000Y5320196D01*
X98251000Y4679804D01*
X98126066Y4051718D01*
X97880999Y3460074D01*
X97525216Y2927608D01*
X97072392Y2474784D01*
X96539926Y2119001D01*
X95948282Y1873934D01*
X95634239Y1811467D01*
X95320197Y1749000D01*
X94679803Y1749000D01*
X94365761Y1811467D01*
X94051718Y1873934D01*
X93460074Y2119001D01*
X92927608Y2474784D01*
X92474784Y2927608D01*
X92119001Y3460074D01*
X91873934Y4051718D01*
X91749000Y4679804D01*
X91749000Y5320196D01*
X91873934Y5948282D01*
X92119001Y6539926D01*
X92474784Y7072392D01*
X92927608Y7525216D01*
X93460074Y7880999D01*
X94051718Y8126066D01*
X94579468Y8231042D01*
X94679803Y8251000D01*
X95320197Y8251000D01*
X95420532Y8231042D01*
G37*
G36*
X5420532Y8231042D02*
G01*
X5948282Y8126066D01*
X6539926Y7880999D01*
X7072392Y7525216D01*
X7525216Y7072392D01*
X7880999Y6539926D01*
X8126066Y5948282D01*
X8251000Y5320196D01*
X8251000Y4679804D01*
X8126066Y4051718D01*
X7880999Y3460074D01*
X7525216Y2927608D01*
X7072392Y2474784D01*
X6539926Y2119001D01*
X5948282Y1873934D01*
X5634239Y1811467D01*
X5320197Y1749000D01*
X4679803Y1749000D01*
X4365761Y1811467D01*
X4051718Y1873934D01*
X3460074Y2119001D01*
X2927608Y2474784D01*
X2474784Y2927608D01*
X2119001Y3460074D01*
X1873934Y4051718D01*
X1749000Y4679804D01*
X1749000Y5320196D01*
X1873934Y5948282D01*
X2119001Y6539926D01*
X2474784Y7072392D01*
X2927608Y7525216D01*
X3460074Y7880999D01*
X4051718Y8126066D01*
X4579468Y8231042D01*
X4679803Y8251000D01*
X5320197Y8251000D01*
X5420532Y8231042D01*
G37*
G36*
X73789192Y8302854D02*
G01*
X73838414Y8287922D01*
X73883778Y8263674D01*
X73923542Y8231042D01*
X73956174Y8191278D01*
X73980422Y8145914D01*
X73995354Y8096692D01*
X74001000Y8039360D01*
X74001000Y6375640D01*
X73995354Y6318308D01*
X73980422Y6269086D01*
X73956174Y6223722D01*
X73923542Y6183958D01*
X73883778Y6151326D01*
X73838414Y6127078D01*
X73789192Y6112146D01*
X73731860Y6106500D01*
X72968140Y6106500D01*
X72910808Y6112146D01*
X72861586Y6127078D01*
X72816222Y6151326D01*
X72776458Y6183958D01*
X72743826Y6223722D01*
X72719578Y6269086D01*
X72704646Y6318308D01*
X72699000Y6375640D01*
X72699000Y8039360D01*
X72704646Y8096692D01*
X72719578Y8145914D01*
X72743826Y8191278D01*
X72776458Y8231042D01*
X72816222Y8263674D01*
X72861586Y8287922D01*
X72910808Y8302854D01*
X72968140Y8308500D01*
X73731860Y8308500D01*
X73789192Y8302854D01*
G37*
G36*
X67429192Y8302854D02*
G01*
X67478414Y8287922D01*
X67523778Y8263674D01*
X67563542Y8231042D01*
X67596174Y8191278D01*
X67620422Y8145914D01*
X67635354Y8096692D01*
X67641000Y8039360D01*
X67641000Y6375640D01*
X67635354Y6318308D01*
X67620422Y6269086D01*
X67596174Y6223722D01*
X67563542Y6183958D01*
X67523778Y6151326D01*
X67478414Y6127078D01*
X67429192Y6112146D01*
X67371860Y6106500D01*
X66608140Y6106500D01*
X66550808Y6112146D01*
X66501586Y6127078D01*
X66456222Y6151326D01*
X66416458Y6183958D01*
X66383826Y6223722D01*
X66359578Y6269086D01*
X66344646Y6318308D01*
X66339000Y6375640D01*
X66339000Y8039360D01*
X66344646Y8096692D01*
X66359578Y8145914D01*
X66383826Y8191278D01*
X66416458Y8231042D01*
X66456222Y8263674D01*
X66501586Y8287922D01*
X66550808Y8302854D01*
X66608140Y8308500D01*
X67371860Y8308500D01*
X67429192Y8302854D01*
G37*
G36*
X57269192Y8302854D02*
G01*
X57318414Y8287922D01*
X57363778Y8263674D01*
X57403542Y8231042D01*
X57436174Y8191278D01*
X57460422Y8145914D01*
X57475354Y8096692D01*
X57481000Y8039360D01*
X57481000Y6375640D01*
X57475354Y6318308D01*
X57460422Y6269086D01*
X57436174Y6223722D01*
X57403542Y6183958D01*
X57363778Y6151326D01*
X57318414Y6127078D01*
X57269192Y6112146D01*
X57211860Y6106500D01*
X56448140Y6106500D01*
X56390808Y6112146D01*
X56341586Y6127078D01*
X56296222Y6151326D01*
X56256458Y6183958D01*
X56223826Y6223722D01*
X56199578Y6269086D01*
X56184646Y6318308D01*
X56179000Y6375640D01*
X56179000Y8039360D01*
X56184646Y8096692D01*
X56199578Y8145914D01*
X56223826Y8191278D01*
X56256458Y8231042D01*
X56296222Y8263674D01*
X56341586Y8287922D01*
X56390808Y8302854D01*
X56448140Y8308500D01*
X57211860Y8308500D01*
X57269192Y8302854D01*
G37*
G36*
X53469192Y8302854D02*
G01*
X53518414Y8287922D01*
X53563778Y8263674D01*
X53603542Y8231042D01*
X53636174Y8191278D01*
X53660422Y8145914D01*
X53675354Y8096692D01*
X53681000Y8039360D01*
X53681000Y6375640D01*
X53675354Y6318308D01*
X53660422Y6269086D01*
X53636174Y6223722D01*
X53603542Y6183958D01*
X53563778Y6151326D01*
X53518414Y6127078D01*
X53469192Y6112146D01*
X53411860Y6106500D01*
X52648140Y6106500D01*
X52590808Y6112146D01*
X52541586Y6127078D01*
X52496222Y6151326D01*
X52456458Y6183958D01*
X52423826Y6223722D01*
X52399578Y6269086D01*
X52384646Y6318308D01*
X52379000Y6375640D01*
X52379000Y8039360D01*
X52384646Y8096692D01*
X52399578Y8145914D01*
X52423826Y8191278D01*
X52456458Y8231042D01*
X52496222Y8263674D01*
X52541586Y8287922D01*
X52590808Y8302854D01*
X52648140Y8308500D01*
X53411860Y8308500D01*
X53469192Y8302854D01*
G37*
G36*
X47109192Y8302854D02*
G01*
X47158414Y8287922D01*
X47203778Y8263674D01*
X47243542Y8231042D01*
X47276174Y8191278D01*
X47300422Y8145914D01*
X47315354Y8096692D01*
X47321000Y8039360D01*
X47321000Y6375640D01*
X47315354Y6318308D01*
X47300422Y6269086D01*
X47276174Y6223722D01*
X47243542Y6183958D01*
X47203778Y6151326D01*
X47158414Y6127078D01*
X47109192Y6112146D01*
X47051860Y6106500D01*
X46288140Y6106500D01*
X46230808Y6112146D01*
X46181586Y6127078D01*
X46136222Y6151326D01*
X46096458Y6183958D01*
X46063826Y6223722D01*
X46039578Y6269086D01*
X46024646Y6318308D01*
X46019000Y6375640D01*
X46019000Y8039360D01*
X46024646Y8096692D01*
X46039578Y8145914D01*
X46063826Y8191278D01*
X46096458Y8231042D01*
X46136222Y8263674D01*
X46181586Y8287922D01*
X46230808Y8302854D01*
X46288140Y8308500D01*
X47051860Y8308500D01*
X47109192Y8302854D01*
G37*
G36*
X43309192Y8302854D02*
G01*
X43358414Y8287922D01*
X43403778Y8263674D01*
X43443542Y8231042D01*
X43476174Y8191278D01*
X43500422Y8145914D01*
X43515354Y8096692D01*
X43521000Y8039360D01*
X43521000Y6375640D01*
X43515354Y6318308D01*
X43500422Y6269086D01*
X43476174Y6223722D01*
X43443542Y6183958D01*
X43403778Y6151326D01*
X43358414Y6127078D01*
X43309192Y6112146D01*
X43251860Y6106500D01*
X42488140Y6106500D01*
X42430808Y6112146D01*
X42381586Y6127078D01*
X42336222Y6151326D01*
X42296458Y6183958D01*
X42263826Y6223722D01*
X42239578Y6269086D01*
X42224646Y6318308D01*
X42219000Y6375640D01*
X42219000Y8039360D01*
X42224646Y8096692D01*
X42239578Y8145914D01*
X42263826Y8191278D01*
X42296458Y8231042D01*
X42336222Y8263674D01*
X42381586Y8287922D01*
X42430808Y8302854D01*
X42488140Y8308500D01*
X43251860Y8308500D01*
X43309192Y8302854D01*
G37*
G36*
X12829192Y8302854D02*
G01*
X12878414Y8287922D01*
X12923778Y8263674D01*
X12963542Y8231042D01*
X12996174Y8191278D01*
X13020422Y8145914D01*
X13035354Y8096692D01*
X13041000Y8039360D01*
X13041000Y6375640D01*
X13035354Y6318308D01*
X13020422Y6269086D01*
X12996174Y6223722D01*
X12963542Y6183958D01*
X12923778Y6151326D01*
X12878414Y6127078D01*
X12829192Y6112146D01*
X12771860Y6106500D01*
X12008140Y6106500D01*
X11950808Y6112146D01*
X11901586Y6127078D01*
X11856222Y6151326D01*
X11816458Y6183958D01*
X11783826Y6223722D01*
X11759578Y6269086D01*
X11744646Y6318308D01*
X11739000Y6375640D01*
X11739000Y8039360D01*
X11744646Y8096692D01*
X11759578Y8145914D01*
X11783826Y8191278D01*
X11816458Y8231042D01*
X11856222Y8263674D01*
X11901586Y8287922D01*
X11950808Y8302854D01*
X12008140Y8308500D01*
X12771860Y8308500D01*
X12829192Y8302854D01*
G37*
G36*
X36949192Y8302854D02*
G01*
X36998414Y8287922D01*
X37043778Y8263674D01*
X37083542Y8231042D01*
X37116174Y8191278D01*
X37140422Y8145914D01*
X37155354Y8096692D01*
X37161000Y8039360D01*
X37161000Y6375640D01*
X37155354Y6318308D01*
X37140422Y6269086D01*
X37116174Y6223722D01*
X37083542Y6183958D01*
X37043778Y6151326D01*
X36998414Y6127078D01*
X36949192Y6112146D01*
X36891860Y6106500D01*
X36128140Y6106500D01*
X36070808Y6112146D01*
X36021586Y6127078D01*
X35976222Y6151326D01*
X35936458Y6183958D01*
X35903826Y6223722D01*
X35879578Y6269086D01*
X35864646Y6318308D01*
X35859000Y6375640D01*
X35859000Y8039360D01*
X35864646Y8096692D01*
X35879578Y8145914D01*
X35903826Y8191278D01*
X35936458Y8231042D01*
X35976222Y8263674D01*
X36021586Y8287922D01*
X36070808Y8302854D01*
X36128140Y8308500D01*
X36891860Y8308500D01*
X36949192Y8302854D01*
G37*
G36*
X63629192Y8302854D02*
G01*
X63678414Y8287922D01*
X63723778Y8263674D01*
X63763542Y8231042D01*
X63796174Y8191278D01*
X63820422Y8145914D01*
X63835354Y8096692D01*
X63841000Y8039360D01*
X63841000Y6375640D01*
X63835354Y6318308D01*
X63820422Y6269086D01*
X63796174Y6223722D01*
X63763542Y6183958D01*
X63723778Y6151326D01*
X63678414Y6127078D01*
X63629192Y6112146D01*
X63571860Y6106500D01*
X62808140Y6106500D01*
X62750808Y6112146D01*
X62701586Y6127078D01*
X62656222Y6151326D01*
X62616458Y6183958D01*
X62583826Y6223722D01*
X62559578Y6269086D01*
X62544646Y6318308D01*
X62539000Y6375640D01*
X62539000Y8039360D01*
X62544646Y8096692D01*
X62559578Y8145914D01*
X62583826Y8191278D01*
X62616458Y8231042D01*
X62656222Y8263674D01*
X62701586Y8287922D01*
X62750808Y8302854D01*
X62808140Y8308500D01*
X63571860Y8308500D01*
X63629192Y8302854D01*
G37*
G36*
X33149192Y8302854D02*
G01*
X33198414Y8287922D01*
X33243778Y8263674D01*
X33283542Y8231042D01*
X33316174Y8191278D01*
X33340422Y8145914D01*
X33355354Y8096692D01*
X33361000Y8039360D01*
X33361000Y6375640D01*
X33355354Y6318308D01*
X33340422Y6269086D01*
X33316174Y6223722D01*
X33283542Y6183958D01*
X33243778Y6151326D01*
X33198414Y6127078D01*
X33149192Y6112146D01*
X33091860Y6106500D01*
X32328140Y6106500D01*
X32270808Y6112146D01*
X32221586Y6127078D01*
X32176222Y6151326D01*
X32136458Y6183958D01*
X32103826Y6223722D01*
X32079578Y6269086D01*
X32064646Y6318308D01*
X32059000Y6375640D01*
X32059000Y8039360D01*
X32064646Y8096692D01*
X32079578Y8145914D01*
X32103826Y8191278D01*
X32136458Y8231042D01*
X32176222Y8263674D01*
X32221586Y8287922D01*
X32270808Y8302854D01*
X32328140Y8308500D01*
X33091860Y8308500D01*
X33149192Y8302854D01*
G37*
G36*
X87749192Y8302854D02*
G01*
X87798414Y8287922D01*
X87843778Y8263674D01*
X87883542Y8231042D01*
X87916174Y8191278D01*
X87940422Y8145914D01*
X87955354Y8096692D01*
X87961000Y8039360D01*
X87961000Y6375640D01*
X87955354Y6318308D01*
X87940422Y6269086D01*
X87916174Y6223722D01*
X87883542Y6183958D01*
X87843778Y6151326D01*
X87798414Y6127078D01*
X87749192Y6112146D01*
X87691860Y6106500D01*
X86928140Y6106500D01*
X86870808Y6112146D01*
X86821586Y6127078D01*
X86776222Y6151326D01*
X86736458Y6183958D01*
X86703826Y6223722D01*
X86679578Y6269086D01*
X86664646Y6318308D01*
X86659000Y6375640D01*
X86659000Y8039360D01*
X86664646Y8096692D01*
X86679578Y8145914D01*
X86703826Y8191278D01*
X86736458Y8231042D01*
X86776222Y8263674D01*
X86821586Y8287922D01*
X86870808Y8302854D01*
X86928140Y8308500D01*
X87691860Y8308500D01*
X87749192Y8302854D01*
G37*
G36*
X16629192Y8302854D02*
G01*
X16678414Y8287922D01*
X16723778Y8263674D01*
X16763542Y8231042D01*
X16796174Y8191278D01*
X16820422Y8145914D01*
X16835354Y8096692D01*
X16841000Y8039360D01*
X16841000Y6375640D01*
X16835354Y6318308D01*
X16820422Y6269086D01*
X16796174Y6223722D01*
X16763542Y6183958D01*
X16723778Y6151326D01*
X16678414Y6127078D01*
X16629192Y6112146D01*
X16571860Y6106500D01*
X15808140Y6106500D01*
X15750808Y6112146D01*
X15701586Y6127078D01*
X15656222Y6151326D01*
X15616458Y6183958D01*
X15583826Y6223722D01*
X15559578Y6269086D01*
X15544646Y6318308D01*
X15539000Y6375640D01*
X15539000Y8039360D01*
X15544646Y8096692D01*
X15559578Y8145914D01*
X15583826Y8191278D01*
X15616458Y8231042D01*
X15656222Y8263674D01*
X15701586Y8287922D01*
X15750808Y8302854D01*
X15808140Y8308500D01*
X16571860Y8308500D01*
X16629192Y8302854D01*
G37*
G36*
X83949192Y8302854D02*
G01*
X83998414Y8287922D01*
X84043778Y8263674D01*
X84083542Y8231042D01*
X84116174Y8191278D01*
X84140422Y8145914D01*
X84155354Y8096692D01*
X84161000Y8039360D01*
X84161000Y6375640D01*
X84155354Y6318308D01*
X84140422Y6269086D01*
X84116174Y6223722D01*
X84083542Y6183958D01*
X84043778Y6151326D01*
X83998414Y6127078D01*
X83949192Y6112146D01*
X83891860Y6106500D01*
X83128140Y6106500D01*
X83070808Y6112146D01*
X83021586Y6127078D01*
X82976222Y6151326D01*
X82936458Y6183958D01*
X82903826Y6223722D01*
X82879578Y6269086D01*
X82864646Y6318308D01*
X82859000Y6375640D01*
X82859000Y8039360D01*
X82864646Y8096692D01*
X82879578Y8145914D01*
X82903826Y8191278D01*
X82936458Y8231042D01*
X82976222Y8263674D01*
X83021586Y8287922D01*
X83070808Y8302854D01*
X83128140Y8308500D01*
X83891860Y8308500D01*
X83949192Y8302854D01*
G37*
G36*
X22989192Y8302854D02*
G01*
X23038414Y8287922D01*
X23083778Y8263674D01*
X23123542Y8231042D01*
X23156174Y8191278D01*
X23180422Y8145914D01*
X23195354Y8096692D01*
X23201000Y8039360D01*
X23201000Y6375640D01*
X23195354Y6318308D01*
X23180422Y6269086D01*
X23156174Y6223722D01*
X23123542Y6183958D01*
X23083778Y6151326D01*
X23038414Y6127078D01*
X22989192Y6112146D01*
X22931860Y6106500D01*
X22168140Y6106500D01*
X22110808Y6112146D01*
X22061586Y6127078D01*
X22016222Y6151326D01*
X21976458Y6183958D01*
X21943826Y6223722D01*
X21919578Y6269086D01*
X21904646Y6318308D01*
X21899000Y6375640D01*
X21899000Y8039360D01*
X21904646Y8096692D01*
X21919578Y8145914D01*
X21943826Y8191278D01*
X21976458Y8231042D01*
X22016222Y8263674D01*
X22061586Y8287922D01*
X22110808Y8302854D01*
X22168140Y8308500D01*
X22931860Y8308500D01*
X22989192Y8302854D01*
G37*
G36*
X26789192Y8302854D02*
G01*
X26838414Y8287922D01*
X26883778Y8263674D01*
X26923542Y8231042D01*
X26956174Y8191278D01*
X26980422Y8145914D01*
X26995354Y8096692D01*
X27001000Y8039360D01*
X27001000Y6375640D01*
X26995354Y6318308D01*
X26980422Y6269086D01*
X26956174Y6223722D01*
X26923542Y6183958D01*
X26883778Y6151326D01*
X26838414Y6127078D01*
X26789192Y6112146D01*
X26731860Y6106500D01*
X25968140Y6106500D01*
X25910808Y6112146D01*
X25861586Y6127078D01*
X25816222Y6151326D01*
X25776458Y6183958D01*
X25743826Y6223722D01*
X25719578Y6269086D01*
X25704646Y6318308D01*
X25699000Y6375640D01*
X25699000Y8039360D01*
X25704646Y8096692D01*
X25719578Y8145914D01*
X25743826Y8191278D01*
X25776458Y8231042D01*
X25816222Y8263674D01*
X25861586Y8287922D01*
X25910808Y8302854D01*
X25968140Y8308500D01*
X26731860Y8308500D01*
X26789192Y8302854D01*
G37*
G36*
X77589192Y8302854D02*
G01*
X77638414Y8287922D01*
X77683778Y8263674D01*
X77723542Y8231042D01*
X77756174Y8191278D01*
X77780422Y8145914D01*
X77795354Y8096692D01*
X77801000Y8039360D01*
X77801000Y6375640D01*
X77795354Y6318308D01*
X77780422Y6269086D01*
X77756174Y6223722D01*
X77723542Y6183958D01*
X77683778Y6151326D01*
X77638414Y6127078D01*
X77589192Y6112146D01*
X77531860Y6106500D01*
X76768140Y6106500D01*
X76710808Y6112146D01*
X76661586Y6127078D01*
X76616222Y6151326D01*
X76576458Y6183958D01*
X76543826Y6223722D01*
X76519578Y6269086D01*
X76504646Y6318308D01*
X76499000Y6375640D01*
X76499000Y8039360D01*
X76504646Y8096692D01*
X76519578Y8145914D01*
X76543826Y8191278D01*
X76576458Y8231042D01*
X76616222Y8263674D01*
X76661586Y8287922D01*
X76710808Y8302854D01*
X76768140Y8308500D01*
X77531860Y8308500D01*
X77589192Y8302854D01*
G37*
G36*
X60243642Y11077719D02*
G01*
X60389414Y11017338D01*
X60389416Y11017337D01*
X60520608Y10929678D01*
X60632178Y10818108D01*
X60679896Y10746692D01*
X60719838Y10686914D01*
X60780219Y10541142D01*
X60811000Y10386393D01*
X60811000Y10228607D01*
X60780219Y10073858D01*
X60742170Y9982000D01*
X60719837Y9928084D01*
X60632178Y9796892D01*
X60520608Y9685322D01*
X60389416Y9597663D01*
X60389415Y9597662D01*
X60389414Y9597662D01*
X60243642Y9537281D01*
X60088893Y9506500D01*
X59931107Y9506500D01*
X59776358Y9537281D01*
X59630586Y9597662D01*
X59630585Y9597662D01*
X59630584Y9597663D01*
X59499392Y9685322D01*
X59387822Y9796892D01*
X59300163Y9928084D01*
X59277830Y9982000D01*
X59239781Y10073858D01*
X59209000Y10228607D01*
X59209000Y10386393D01*
X59239781Y10541142D01*
X59300162Y10686914D01*
X59340104Y10746692D01*
X59387822Y10818108D01*
X59499392Y10929678D01*
X59630584Y11017337D01*
X59630586Y11017338D01*
X59776358Y11077719D01*
X59931107Y11108500D01*
X60088893Y11108500D01*
X60243642Y11077719D01*
G37*
G36*
X70403642Y11077719D02*
G01*
X70549414Y11017338D01*
X70549416Y11017337D01*
X70680608Y10929678D01*
X70792178Y10818108D01*
X70839896Y10746692D01*
X70879838Y10686914D01*
X70940219Y10541142D01*
X70971000Y10386393D01*
X70971000Y10228607D01*
X70940219Y10073858D01*
X70902170Y9982000D01*
X70879837Y9928084D01*
X70792178Y9796892D01*
X70680608Y9685322D01*
X70549416Y9597663D01*
X70549415Y9597662D01*
X70549414Y9597662D01*
X70403642Y9537281D01*
X70248893Y9506500D01*
X70091107Y9506500D01*
X69936358Y9537281D01*
X69790586Y9597662D01*
X69790585Y9597662D01*
X69790584Y9597663D01*
X69659392Y9685322D01*
X69547822Y9796892D01*
X69460163Y9928084D01*
X69437830Y9982000D01*
X69399781Y10073858D01*
X69369000Y10228607D01*
X69369000Y10386393D01*
X69399781Y10541142D01*
X69460162Y10686914D01*
X69500104Y10746692D01*
X69547822Y10818108D01*
X69659392Y10929678D01*
X69790584Y11017337D01*
X69790586Y11017338D01*
X69936358Y11077719D01*
X70091107Y11108500D01*
X70248893Y11108500D01*
X70403642Y11077719D01*
G37*
G36*
X9443642Y11077719D02*
G01*
X9589414Y11017338D01*
X9589416Y11017337D01*
X9720608Y10929678D01*
X9832178Y10818108D01*
X9879896Y10746692D01*
X9919838Y10686914D01*
X9980219Y10541142D01*
X10011000Y10386393D01*
X10011000Y10228607D01*
X9980219Y10073858D01*
X9942170Y9982000D01*
X9919837Y9928084D01*
X9832178Y9796892D01*
X9720608Y9685322D01*
X9589416Y9597663D01*
X9589415Y9597662D01*
X9589414Y9597662D01*
X9443642Y9537281D01*
X9288893Y9506500D01*
X9131107Y9506500D01*
X8976358Y9537281D01*
X8830586Y9597662D01*
X8830585Y9597662D01*
X8830584Y9597663D01*
X8699392Y9685322D01*
X8587822Y9796892D01*
X8500163Y9928084D01*
X8477830Y9982000D01*
X8439781Y10073858D01*
X8409000Y10228607D01*
X8409000Y10386393D01*
X8439781Y10541142D01*
X8500162Y10686914D01*
X8540104Y10746692D01*
X8587822Y10818108D01*
X8699392Y10929678D01*
X8830584Y11017337D01*
X8830586Y11017338D01*
X8976358Y11077719D01*
X9131107Y11108500D01*
X9288893Y11108500D01*
X9443642Y11077719D01*
G37*
G36*
X19603642Y11077719D02*
G01*
X19749414Y11017338D01*
X19749416Y11017337D01*
X19880608Y10929678D01*
X19992178Y10818108D01*
X20039896Y10746692D01*
X20079838Y10686914D01*
X20140219Y10541142D01*
X20171000Y10386393D01*
X20171000Y10228607D01*
X20140219Y10073858D01*
X20102170Y9982000D01*
X20079837Y9928084D01*
X19992178Y9796892D01*
X19880608Y9685322D01*
X19749416Y9597663D01*
X19749415Y9597662D01*
X19749414Y9597662D01*
X19603642Y9537281D01*
X19448893Y9506500D01*
X19291107Y9506500D01*
X19136358Y9537281D01*
X18990586Y9597662D01*
X18990585Y9597662D01*
X18990584Y9597663D01*
X18859392Y9685322D01*
X18747822Y9796892D01*
X18660163Y9928084D01*
X18637830Y9982000D01*
X18599781Y10073858D01*
X18569000Y10228607D01*
X18569000Y10386393D01*
X18599781Y10541142D01*
X18660162Y10686914D01*
X18700104Y10746692D01*
X18747822Y10818108D01*
X18859392Y10929678D01*
X18990584Y11017337D01*
X18990586Y11017338D01*
X19136358Y11077719D01*
X19291107Y11108500D01*
X19448893Y11108500D01*
X19603642Y11077719D01*
G37*
G36*
X29763642Y11077719D02*
G01*
X29909414Y11017338D01*
X29909416Y11017337D01*
X30040608Y10929678D01*
X30152178Y10818108D01*
X30199896Y10746692D01*
X30239838Y10686914D01*
X30300219Y10541142D01*
X30331000Y10386393D01*
X30331000Y10228607D01*
X30300219Y10073858D01*
X30262170Y9982000D01*
X30239837Y9928084D01*
X30152178Y9796892D01*
X30040608Y9685322D01*
X29909416Y9597663D01*
X29909415Y9597662D01*
X29909414Y9597662D01*
X29763642Y9537281D01*
X29608893Y9506500D01*
X29451107Y9506500D01*
X29296358Y9537281D01*
X29150586Y9597662D01*
X29150585Y9597662D01*
X29150584Y9597663D01*
X29019392Y9685322D01*
X28907822Y9796892D01*
X28820163Y9928084D01*
X28797830Y9982000D01*
X28759781Y10073858D01*
X28729000Y10228607D01*
X28729000Y10386393D01*
X28759781Y10541142D01*
X28820162Y10686914D01*
X28860104Y10746692D01*
X28907822Y10818108D01*
X29019392Y10929678D01*
X29150584Y11017337D01*
X29150586Y11017338D01*
X29296358Y11077719D01*
X29451107Y11108500D01*
X29608893Y11108500D01*
X29763642Y11077719D01*
G37*
G36*
X39923642Y11077719D02*
G01*
X40069414Y11017338D01*
X40069416Y11017337D01*
X40200608Y10929678D01*
X40312178Y10818108D01*
X40359896Y10746692D01*
X40399838Y10686914D01*
X40460219Y10541142D01*
X40491000Y10386393D01*
X40491000Y10228607D01*
X40460219Y10073858D01*
X40422170Y9982000D01*
X40399837Y9928084D01*
X40312178Y9796892D01*
X40200608Y9685322D01*
X40069416Y9597663D01*
X40069415Y9597662D01*
X40069414Y9597662D01*
X39923642Y9537281D01*
X39768893Y9506500D01*
X39611107Y9506500D01*
X39456358Y9537281D01*
X39310586Y9597662D01*
X39310585Y9597662D01*
X39310584Y9597663D01*
X39179392Y9685322D01*
X39067822Y9796892D01*
X38980163Y9928084D01*
X38957830Y9982000D01*
X38919781Y10073858D01*
X38889000Y10228607D01*
X38889000Y10386393D01*
X38919781Y10541142D01*
X38980162Y10686914D01*
X39020104Y10746692D01*
X39067822Y10818108D01*
X39179392Y10929678D01*
X39310584Y11017337D01*
X39310586Y11017338D01*
X39456358Y11077719D01*
X39611107Y11108500D01*
X39768893Y11108500D01*
X39923642Y11077719D01*
G37*
G36*
X50083642Y11077719D02*
G01*
X50229414Y11017338D01*
X50229416Y11017337D01*
X50360608Y10929678D01*
X50472178Y10818108D01*
X50519896Y10746692D01*
X50559838Y10686914D01*
X50620219Y10541142D01*
X50651000Y10386393D01*
X50651000Y10228607D01*
X50620219Y10073858D01*
X50582170Y9982000D01*
X50559837Y9928084D01*
X50472178Y9796892D01*
X50360608Y9685322D01*
X50229416Y9597663D01*
X50229415Y9597662D01*
X50229414Y9597662D01*
X50083642Y9537281D01*
X49928893Y9506500D01*
X49771107Y9506500D01*
X49616358Y9537281D01*
X49470586Y9597662D01*
X49470585Y9597662D01*
X49470584Y9597663D01*
X49339392Y9685322D01*
X49227822Y9796892D01*
X49140163Y9928084D01*
X49117830Y9982000D01*
X49079781Y10073858D01*
X49049000Y10228607D01*
X49049000Y10386393D01*
X49079781Y10541142D01*
X49140162Y10686914D01*
X49180104Y10746692D01*
X49227822Y10818108D01*
X49339392Y10929678D01*
X49470584Y11017337D01*
X49470586Y11017338D01*
X49616358Y11077719D01*
X49771107Y11108500D01*
X49928893Y11108500D01*
X50083642Y11077719D01*
G37*
G36*
X80563642Y11077719D02*
G01*
X80709414Y11017338D01*
X80709416Y11017337D01*
X80840608Y10929678D01*
X80952178Y10818108D01*
X80999896Y10746692D01*
X81039838Y10686914D01*
X81100219Y10541142D01*
X81131000Y10386393D01*
X81131000Y10228607D01*
X81100219Y10073858D01*
X81062170Y9982000D01*
X81039837Y9928084D01*
X80952178Y9796892D01*
X80840608Y9685322D01*
X80709416Y9597663D01*
X80709415Y9597662D01*
X80709414Y9597662D01*
X80563642Y9537281D01*
X80408893Y9506500D01*
X80251107Y9506500D01*
X80096358Y9537281D01*
X79950586Y9597662D01*
X79950585Y9597662D01*
X79950584Y9597663D01*
X79819392Y9685322D01*
X79707822Y9796892D01*
X79620163Y9928084D01*
X79597830Y9982000D01*
X79559781Y10073858D01*
X79529000Y10228607D01*
X79529000Y10386393D01*
X79559781Y10541142D01*
X79620162Y10686914D01*
X79660104Y10746692D01*
X79707822Y10818108D01*
X79819392Y10929678D01*
X79950584Y11017337D01*
X79950586Y11017338D01*
X80096358Y11077719D01*
X80251107Y11108500D01*
X80408893Y11108500D01*
X80563642Y11077719D01*
G37*
G36*
X15179192Y10952854D02*
G01*
X15228414Y10937922D01*
X15273778Y10913674D01*
X15313542Y10881042D01*
X15346174Y10841278D01*
X15370422Y10795914D01*
X15385354Y10746692D01*
X15391000Y10689360D01*
X15391000Y9925640D01*
X15385354Y9868308D01*
X15370422Y9819086D01*
X15346174Y9773722D01*
X15313542Y9733958D01*
X15273778Y9701326D01*
X15228414Y9677078D01*
X15179192Y9662146D01*
X15121860Y9656500D01*
X13458140Y9656500D01*
X13400808Y9662146D01*
X13351586Y9677078D01*
X13306222Y9701326D01*
X13266458Y9733958D01*
X13233826Y9773722D01*
X13209578Y9819086D01*
X13194646Y9868308D01*
X13189000Y9925640D01*
X13189000Y10689360D01*
X13194646Y10746692D01*
X13209578Y10795914D01*
X13233826Y10841278D01*
X13266458Y10881042D01*
X13306222Y10913674D01*
X13351586Y10937922D01*
X13400808Y10952854D01*
X13458140Y10958500D01*
X15121860Y10958500D01*
X15179192Y10952854D01*
G37*
G36*
X76139192Y10952854D02*
G01*
X76188414Y10937922D01*
X76233778Y10913674D01*
X76273542Y10881042D01*
X76306174Y10841278D01*
X76330422Y10795914D01*
X76345354Y10746692D01*
X76351000Y10689360D01*
X76351000Y9925640D01*
X76345354Y9868308D01*
X76330422Y9819086D01*
X76306174Y9773722D01*
X76273542Y9733958D01*
X76233778Y9701326D01*
X76188414Y9677078D01*
X76139192Y9662146D01*
X76081860Y9656500D01*
X74418140Y9656500D01*
X74360808Y9662146D01*
X74311586Y9677078D01*
X74266222Y9701326D01*
X74226458Y9733958D01*
X74193826Y9773722D01*
X74169578Y9819086D01*
X74154646Y9868308D01*
X74149000Y9925640D01*
X74149000Y10689360D01*
X74154646Y10746692D01*
X74169578Y10795914D01*
X74193826Y10841278D01*
X74226458Y10881042D01*
X74266222Y10913674D01*
X74311586Y10937922D01*
X74360808Y10952854D01*
X74418140Y10958500D01*
X76081860Y10958500D01*
X76139192Y10952854D01*
G37*
G36*
X25339192Y10952854D02*
G01*
X25388414Y10937922D01*
X25433778Y10913674D01*
X25473542Y10881042D01*
X25506174Y10841278D01*
X25530422Y10795914D01*
X25545354Y10746692D01*
X25551000Y10689360D01*
X25551000Y9925640D01*
X25545354Y9868308D01*
X25530422Y9819086D01*
X25506174Y9773722D01*
X25473542Y9733958D01*
X25433778Y9701326D01*
X25388414Y9677078D01*
X25339192Y9662146D01*
X25281860Y9656500D01*
X23618140Y9656500D01*
X23560808Y9662146D01*
X23511586Y9677078D01*
X23466222Y9701326D01*
X23426458Y9733958D01*
X23393826Y9773722D01*
X23369578Y9819086D01*
X23354646Y9868308D01*
X23349000Y9925640D01*
X23349000Y10689360D01*
X23354646Y10746692D01*
X23369578Y10795914D01*
X23393826Y10841278D01*
X23426458Y10881042D01*
X23466222Y10913674D01*
X23511586Y10937922D01*
X23560808Y10952854D01*
X23618140Y10958500D01*
X25281860Y10958500D01*
X25339192Y10952854D01*
G37*
G36*
X65979192Y10952854D02*
G01*
X66028414Y10937922D01*
X66073778Y10913674D01*
X66113542Y10881042D01*
X66146174Y10841278D01*
X66170422Y10795914D01*
X66185354Y10746692D01*
X66191000Y10689360D01*
X66191000Y9925640D01*
X66185354Y9868308D01*
X66170422Y9819086D01*
X66146174Y9773722D01*
X66113542Y9733958D01*
X66073778Y9701326D01*
X66028414Y9677078D01*
X65979192Y9662146D01*
X65921860Y9656500D01*
X64258140Y9656500D01*
X64200808Y9662146D01*
X64151586Y9677078D01*
X64106222Y9701326D01*
X64066458Y9733958D01*
X64033826Y9773722D01*
X64009578Y9819086D01*
X63994646Y9868308D01*
X63989000Y9925640D01*
X63989000Y10689360D01*
X63994646Y10746692D01*
X64009578Y10795914D01*
X64033826Y10841278D01*
X64066458Y10881042D01*
X64106222Y10913674D01*
X64151586Y10937922D01*
X64200808Y10952854D01*
X64258140Y10958500D01*
X65921860Y10958500D01*
X65979192Y10952854D01*
G37*
G36*
X35499192Y10952854D02*
G01*
X35548414Y10937922D01*
X35593778Y10913674D01*
X35633542Y10881042D01*
X35666174Y10841278D01*
X35690422Y10795914D01*
X35705354Y10746692D01*
X35711000Y10689360D01*
X35711000Y9925640D01*
X35705354Y9868308D01*
X35690422Y9819086D01*
X35666174Y9773722D01*
X35633542Y9733958D01*
X35593778Y9701326D01*
X35548414Y9677078D01*
X35499192Y9662146D01*
X35441860Y9656500D01*
X33778140Y9656500D01*
X33720808Y9662146D01*
X33671586Y9677078D01*
X33626222Y9701326D01*
X33586458Y9733958D01*
X33553826Y9773722D01*
X33529578Y9819086D01*
X33514646Y9868308D01*
X33509000Y9925640D01*
X33509000Y10689360D01*
X33514646Y10746692D01*
X33529578Y10795914D01*
X33553826Y10841278D01*
X33586458Y10881042D01*
X33626222Y10913674D01*
X33671586Y10937922D01*
X33720808Y10952854D01*
X33778140Y10958500D01*
X35441860Y10958500D01*
X35499192Y10952854D01*
G37*
G36*
X45659192Y10952854D02*
G01*
X45708414Y10937922D01*
X45753778Y10913674D01*
X45793542Y10881042D01*
X45826174Y10841278D01*
X45850422Y10795914D01*
X45865354Y10746692D01*
X45871000Y10689360D01*
X45871000Y9925640D01*
X45865354Y9868308D01*
X45850422Y9819086D01*
X45826174Y9773722D01*
X45793542Y9733958D01*
X45753778Y9701326D01*
X45708414Y9677078D01*
X45659192Y9662146D01*
X45601860Y9656500D01*
X43938140Y9656500D01*
X43880808Y9662146D01*
X43831586Y9677078D01*
X43786222Y9701326D01*
X43746458Y9733958D01*
X43713826Y9773722D01*
X43689578Y9819086D01*
X43674646Y9868308D01*
X43669000Y9925640D01*
X43669000Y10689360D01*
X43674646Y10746692D01*
X43689578Y10795914D01*
X43713826Y10841278D01*
X43746458Y10881042D01*
X43786222Y10913674D01*
X43831586Y10937922D01*
X43880808Y10952854D01*
X43938140Y10958500D01*
X45601860Y10958500D01*
X45659192Y10952854D01*
G37*
G36*
X55819192Y10952854D02*
G01*
X55868414Y10937922D01*
X55913778Y10913674D01*
X55953542Y10881042D01*
X55986174Y10841278D01*
X56010422Y10795914D01*
X56025354Y10746692D01*
X56031000Y10689360D01*
X56031000Y9925640D01*
X56025354Y9868308D01*
X56010422Y9819086D01*
X55986174Y9773722D01*
X55953542Y9733958D01*
X55913778Y9701326D01*
X55868414Y9677078D01*
X55819192Y9662146D01*
X55761860Y9656500D01*
X54098140Y9656500D01*
X54040808Y9662146D01*
X53991586Y9677078D01*
X53946222Y9701326D01*
X53906458Y9733958D01*
X53873826Y9773722D01*
X53849578Y9819086D01*
X53834646Y9868308D01*
X53829000Y9925640D01*
X53829000Y10689360D01*
X53834646Y10746692D01*
X53849578Y10795914D01*
X53873826Y10841278D01*
X53906458Y10881042D01*
X53946222Y10913674D01*
X53991586Y10937922D01*
X54040808Y10952854D01*
X54098140Y10958500D01*
X55761860Y10958500D01*
X55819192Y10952854D01*
G37*
G36*
X86299192Y10952854D02*
G01*
X86348414Y10937922D01*
X86393778Y10913674D01*
X86433542Y10881042D01*
X86466174Y10841278D01*
X86490422Y10795914D01*
X86505354Y10746692D01*
X86511000Y10689360D01*
X86511000Y9925640D01*
X86505354Y9868308D01*
X86490422Y9819086D01*
X86466174Y9773722D01*
X86433542Y9733958D01*
X86393778Y9701326D01*
X86348414Y9677078D01*
X86299192Y9662146D01*
X86241860Y9656500D01*
X84578140Y9656500D01*
X84520808Y9662146D01*
X84471586Y9677078D01*
X84426222Y9701326D01*
X84386458Y9733958D01*
X84353826Y9773722D01*
X84329578Y9819086D01*
X84314646Y9868308D01*
X84309000Y9925640D01*
X84309000Y10689360D01*
X84314646Y10746692D01*
X84329578Y10795914D01*
X84353826Y10841278D01*
X84386458Y10881042D01*
X84426222Y10913674D01*
X84471586Y10937922D01*
X84520808Y10952854D01*
X84578140Y10958500D01*
X86241860Y10958500D01*
X86299192Y10952854D01*
G37*
G36*
X10786564Y16715611D02*
G01*
X10977833Y16636385D01*
X10977835Y16636384D01*
X11149973Y16521365D01*
X11296365Y16374973D01*
X11411385Y16202833D01*
X11490611Y16011564D01*
X11531000Y15808516D01*
X11531000Y15601484D01*
X11490611Y15398436D01*
X11411385Y15207167D01*
X11411384Y15207165D01*
X11296365Y15035027D01*
X11149973Y14888635D01*
X10977835Y14773616D01*
X10977834Y14773615D01*
X10977833Y14773615D01*
X10786564Y14694389D01*
X10583516Y14654000D01*
X10376484Y14654000D01*
X10173436Y14694389D01*
X9982167Y14773615D01*
X9982166Y14773615D01*
X9982165Y14773616D01*
X9810027Y14888635D01*
X9663635Y15035027D01*
X9548616Y15207165D01*
X9548615Y15207167D01*
X9469389Y15398436D01*
X9429000Y15601484D01*
X9429000Y15808516D01*
X9469389Y16011564D01*
X9548615Y16202833D01*
X9663635Y16374973D01*
X9810027Y16521365D01*
X9982165Y16636384D01*
X9982167Y16636385D01*
X10173436Y16715611D01*
X10376484Y16756000D01*
X10583516Y16756000D01*
X10786564Y16715611D01*
G37*
G36*
X3166564Y16715611D02*
G01*
X3357833Y16636385D01*
X3357835Y16636384D01*
X3529973Y16521365D01*
X3676365Y16374973D01*
X3791385Y16202833D01*
X3870611Y16011564D01*
X3911000Y15808516D01*
X3911000Y15601484D01*
X3870611Y15398436D01*
X3791385Y15207167D01*
X3791384Y15207165D01*
X3676365Y15035027D01*
X3529973Y14888635D01*
X3357835Y14773616D01*
X3357834Y14773615D01*
X3357833Y14773615D01*
X3166564Y14694389D01*
X2963516Y14654000D01*
X2756484Y14654000D01*
X2553436Y14694389D01*
X2362167Y14773615D01*
X2362166Y14773615D01*
X2362165Y14773616D01*
X2190027Y14888635D01*
X2043635Y15035027D01*
X1928616Y15207165D01*
X1928615Y15207167D01*
X1849389Y15398436D01*
X1809000Y15601484D01*
X1809000Y15808516D01*
X1849389Y16011564D01*
X1928615Y16202833D01*
X2043635Y16374973D01*
X2190027Y16521365D01*
X2362165Y16636384D01*
X2362167Y16636385D01*
X2553436Y16715611D01*
X2756484Y16756000D01*
X2963516Y16756000D01*
X3166564Y16715611D01*
G37*
G36*
X79276000Y17394000D02*
G01*
X77574000Y17394000D01*
X77574000Y19096000D01*
X79276000Y19096000D01*
X79276000Y17394000D01*
G37*
G36*
X96453228Y19063297D02*
G01*
X96608100Y18999147D01*
X96747481Y18906015D01*
X96866015Y18787481D01*
X96959147Y18648100D01*
X97023297Y18493228D01*
X97056000Y18328816D01*
X97056000Y18161184D01*
X97023297Y17996772D01*
X96959147Y17841900D01*
X96866015Y17702519D01*
X96747481Y17583985D01*
X96608100Y17490853D01*
X96453228Y17426703D01*
X96288816Y17394000D01*
X96121184Y17394000D01*
X95956772Y17426703D01*
X95801900Y17490853D01*
X95662519Y17583985D01*
X95543985Y17702519D01*
X95450853Y17841900D01*
X95386703Y17996772D01*
X95354000Y18161184D01*
X95354000Y18328816D01*
X95386703Y18493228D01*
X95450853Y18648100D01*
X95543985Y18787481D01*
X95662519Y18906015D01*
X95801900Y18999147D01*
X95956772Y19063297D01*
X96121184Y19096000D01*
X96288816Y19096000D01*
X96453228Y19063297D01*
G37*
G36*
X81213228Y19063297D02*
G01*
X81368100Y18999147D01*
X81507481Y18906015D01*
X81626015Y18787481D01*
X81719147Y18648100D01*
X81783297Y18493228D01*
X81816000Y18328816D01*
X81816000Y18161184D01*
X81783297Y17996772D01*
X81719147Y17841900D01*
X81626015Y17702519D01*
X81507481Y17583985D01*
X81368100Y17490853D01*
X81213228Y17426703D01*
X81048816Y17394000D01*
X80881184Y17394000D01*
X80716772Y17426703D01*
X80561900Y17490853D01*
X80422519Y17583985D01*
X80303985Y17702519D01*
X80210853Y17841900D01*
X80146703Y17996772D01*
X80114000Y18161184D01*
X80114000Y18328816D01*
X80146703Y18493228D01*
X80210853Y18648100D01*
X80303985Y18787481D01*
X80422519Y18906015D01*
X80561900Y18999147D01*
X80716772Y19063297D01*
X80881184Y19096000D01*
X81048816Y19096000D01*
X81213228Y19063297D01*
G37*
G36*
X83753228Y19063297D02*
G01*
X83908100Y18999147D01*
X84047481Y18906015D01*
X84166015Y18787481D01*
X84259147Y18648100D01*
X84323297Y18493228D01*
X84356000Y18328816D01*
X84356000Y18161184D01*
X84323297Y17996772D01*
X84259147Y17841900D01*
X84166015Y17702519D01*
X84047481Y17583985D01*
X83908100Y17490853D01*
X83753228Y17426703D01*
X83588816Y17394000D01*
X83421184Y17394000D01*
X83256772Y17426703D01*
X83101900Y17490853D01*
X82962519Y17583985D01*
X82843985Y17702519D01*
X82750853Y17841900D01*
X82686703Y17996772D01*
X82654000Y18161184D01*
X82654000Y18328816D01*
X82686703Y18493228D01*
X82750853Y18648100D01*
X82843985Y18787481D01*
X82962519Y18906015D01*
X83101900Y18999147D01*
X83256772Y19063297D01*
X83421184Y19096000D01*
X83588816Y19096000D01*
X83753228Y19063297D01*
G37*
G36*
X86293228Y19063297D02*
G01*
X86448100Y18999147D01*
X86587481Y18906015D01*
X86706015Y18787481D01*
X86799147Y18648100D01*
X86863297Y18493228D01*
X86896000Y18328816D01*
X86896000Y18161184D01*
X86863297Y17996772D01*
X86799147Y17841900D01*
X86706015Y17702519D01*
X86587481Y17583985D01*
X86448100Y17490853D01*
X86293228Y17426703D01*
X86128816Y17394000D01*
X85961184Y17394000D01*
X85796772Y17426703D01*
X85641900Y17490853D01*
X85502519Y17583985D01*
X85383985Y17702519D01*
X85290853Y17841900D01*
X85226703Y17996772D01*
X85194000Y18161184D01*
X85194000Y18328816D01*
X85226703Y18493228D01*
X85290853Y18648100D01*
X85383985Y18787481D01*
X85502519Y18906015D01*
X85641900Y18999147D01*
X85796772Y19063297D01*
X85961184Y19096000D01*
X86128816Y19096000D01*
X86293228Y19063297D01*
G37*
G36*
X88833228Y19063297D02*
G01*
X88988100Y18999147D01*
X89127481Y18906015D01*
X89246015Y18787481D01*
X89339147Y18648100D01*
X89403297Y18493228D01*
X89436000Y18328816D01*
X89436000Y18161184D01*
X89403297Y17996772D01*
X89339147Y17841900D01*
X89246015Y17702519D01*
X89127481Y17583985D01*
X88988100Y17490853D01*
X88833228Y17426703D01*
X88668816Y17394000D01*
X88501184Y17394000D01*
X88336772Y17426703D01*
X88181900Y17490853D01*
X88042519Y17583985D01*
X87923985Y17702519D01*
X87830853Y17841900D01*
X87766703Y17996772D01*
X87734000Y18161184D01*
X87734000Y18328816D01*
X87766703Y18493228D01*
X87830853Y18648100D01*
X87923985Y18787481D01*
X88042519Y18906015D01*
X88181900Y18999147D01*
X88336772Y19063297D01*
X88501184Y19096000D01*
X88668816Y19096000D01*
X88833228Y19063297D01*
G37*
G36*
X91373228Y19063297D02*
G01*
X91528100Y18999147D01*
X91667481Y18906015D01*
X91786015Y18787481D01*
X91879147Y18648100D01*
X91943297Y18493228D01*
X91976000Y18328816D01*
X91976000Y18161184D01*
X91943297Y17996772D01*
X91879147Y17841900D01*
X91786015Y17702519D01*
X91667481Y17583985D01*
X91528100Y17490853D01*
X91373228Y17426703D01*
X91208816Y17394000D01*
X91041184Y17394000D01*
X90876772Y17426703D01*
X90721900Y17490853D01*
X90582519Y17583985D01*
X90463985Y17702519D01*
X90370853Y17841900D01*
X90306703Y17996772D01*
X90274000Y18161184D01*
X90274000Y18328816D01*
X90306703Y18493228D01*
X90370853Y18648100D01*
X90463985Y18787481D01*
X90582519Y18906015D01*
X90721900Y18999147D01*
X90876772Y19063297D01*
X91041184Y19096000D01*
X91208816Y19096000D01*
X91373228Y19063297D01*
G37*
G36*
X93913228Y19063297D02*
G01*
X94068100Y18999147D01*
X94207481Y18906015D01*
X94326015Y18787481D01*
X94419147Y18648100D01*
X94483297Y18493228D01*
X94516000Y18328816D01*
X94516000Y18161184D01*
X94483297Y17996772D01*
X94419147Y17841900D01*
X94326015Y17702519D01*
X94207481Y17583985D01*
X94068100Y17490853D01*
X93913228Y17426703D01*
X93748816Y17394000D01*
X93581184Y17394000D01*
X93416772Y17426703D01*
X93261900Y17490853D01*
X93122519Y17583985D01*
X93003985Y17702519D01*
X92910853Y17841900D01*
X92846703Y17996772D01*
X92814000Y18161184D01*
X92814000Y18328816D01*
X92846703Y18493228D01*
X92910853Y18648100D01*
X93003985Y18787481D01*
X93122519Y18906015D01*
X93261900Y18999147D01*
X93416772Y19063297D01*
X93581184Y19096000D01*
X93748816Y19096000D01*
X93913228Y19063297D01*
G37*
G36*
X32938642Y19650219D02*
G01*
X33084414Y19589838D01*
X33084416Y19589837D01*
X33215608Y19502178D01*
X33327178Y19390608D01*
X33414837Y19259416D01*
X33414838Y19259414D01*
X33475219Y19113642D01*
X33506000Y18958893D01*
X33506000Y18801107D01*
X33475219Y18646358D01*
X33414838Y18500586D01*
X33414837Y18500584D01*
X33327178Y18369392D01*
X33215608Y18257822D01*
X33084416Y18170163D01*
X33084415Y18170162D01*
X33084414Y18170162D01*
X32938642Y18109781D01*
X32783893Y18079000D01*
X32626107Y18079000D01*
X32471358Y18109781D01*
X32325586Y18170162D01*
X32325585Y18170162D01*
X32325584Y18170163D01*
X32194392Y18257822D01*
X32082822Y18369392D01*
X31995163Y18500584D01*
X31995162Y18500586D01*
X31934781Y18646358D01*
X31904000Y18801107D01*
X31904000Y18958893D01*
X31934781Y19113642D01*
X31995162Y19259414D01*
X31995163Y19259416D01*
X32082822Y19390608D01*
X32194392Y19502178D01*
X32325584Y19589837D01*
X32325586Y19589838D01*
X32471358Y19650219D01*
X32626107Y19681000D01*
X32783893Y19681000D01*
X32938642Y19650219D01*
G37*
G36*
X20238642Y19650219D02*
G01*
X20384414Y19589838D01*
X20384416Y19589837D01*
X20515608Y19502178D01*
X20627178Y19390608D01*
X20714837Y19259416D01*
X20714838Y19259414D01*
X20775219Y19113642D01*
X20806000Y18958893D01*
X20806000Y18801107D01*
X20775219Y18646358D01*
X20714838Y18500586D01*
X20714837Y18500584D01*
X20627178Y18369392D01*
X20515608Y18257822D01*
X20384416Y18170163D01*
X20384415Y18170162D01*
X20384414Y18170162D01*
X20238642Y18109781D01*
X20083893Y18079000D01*
X19926107Y18079000D01*
X19771358Y18109781D01*
X19625586Y18170162D01*
X19625585Y18170162D01*
X19625584Y18170163D01*
X19494392Y18257822D01*
X19382822Y18369392D01*
X19295163Y18500584D01*
X19295162Y18500586D01*
X19234781Y18646358D01*
X19204000Y18801107D01*
X19204000Y18958893D01*
X19234781Y19113642D01*
X19295162Y19259414D01*
X19295163Y19259416D01*
X19382822Y19390608D01*
X19494392Y19502178D01*
X19625584Y19589837D01*
X19625586Y19589838D01*
X19771358Y19650219D01*
X19926107Y19681000D01*
X20083893Y19681000D01*
X20238642Y19650219D01*
G37*
G36*
X35478642Y19650219D02*
G01*
X35624414Y19589838D01*
X35624416Y19589837D01*
X35755608Y19502178D01*
X35867178Y19390608D01*
X35954837Y19259416D01*
X35954838Y19259414D01*
X36015219Y19113642D01*
X36046000Y18958893D01*
X36046000Y18801107D01*
X36015219Y18646358D01*
X35954838Y18500586D01*
X35954837Y18500584D01*
X35867178Y18369392D01*
X35755608Y18257822D01*
X35624416Y18170163D01*
X35624415Y18170162D01*
X35624414Y18170162D01*
X35478642Y18109781D01*
X35323893Y18079000D01*
X35166107Y18079000D01*
X35011358Y18109781D01*
X34865586Y18170162D01*
X34865585Y18170162D01*
X34865584Y18170163D01*
X34734392Y18257822D01*
X34622822Y18369392D01*
X34535163Y18500584D01*
X34535162Y18500586D01*
X34474781Y18646358D01*
X34444000Y18801107D01*
X34444000Y18958893D01*
X34474781Y19113642D01*
X34535162Y19259414D01*
X34535163Y19259416D01*
X34622822Y19390608D01*
X34734392Y19502178D01*
X34865584Y19589837D01*
X34865586Y19589838D01*
X35011358Y19650219D01*
X35166107Y19681000D01*
X35323893Y19681000D01*
X35478642Y19650219D01*
G37*
G36*
X38018642Y19650219D02*
G01*
X38164414Y19589838D01*
X38164416Y19589837D01*
X38295608Y19502178D01*
X38407178Y19390608D01*
X38494837Y19259416D01*
X38494838Y19259414D01*
X38555219Y19113642D01*
X38586000Y18958893D01*
X38586000Y18801107D01*
X38555219Y18646358D01*
X38494838Y18500586D01*
X38494837Y18500584D01*
X38407178Y18369392D01*
X38295608Y18257822D01*
X38164416Y18170163D01*
X38164415Y18170162D01*
X38164414Y18170162D01*
X38018642Y18109781D01*
X37863893Y18079000D01*
X37706107Y18079000D01*
X37551358Y18109781D01*
X37405586Y18170162D01*
X37405585Y18170162D01*
X37405584Y18170163D01*
X37274392Y18257822D01*
X37162822Y18369392D01*
X37075163Y18500584D01*
X37075162Y18500586D01*
X37014781Y18646358D01*
X36984000Y18801107D01*
X36984000Y18958893D01*
X37014781Y19113642D01*
X37075162Y19259414D01*
X37075163Y19259416D01*
X37162822Y19390608D01*
X37274392Y19502178D01*
X37405584Y19589837D01*
X37405586Y19589838D01*
X37551358Y19650219D01*
X37706107Y19681000D01*
X37863893Y19681000D01*
X38018642Y19650219D01*
G37*
G36*
X58338642Y19650219D02*
G01*
X58484414Y19589838D01*
X58484416Y19589837D01*
X58615608Y19502178D01*
X58727178Y19390608D01*
X58814837Y19259416D01*
X58814838Y19259414D01*
X58875219Y19113642D01*
X58906000Y18958893D01*
X58906000Y18801107D01*
X58875219Y18646358D01*
X58814838Y18500586D01*
X58814837Y18500584D01*
X58727178Y18369392D01*
X58615608Y18257822D01*
X58484416Y18170163D01*
X58484415Y18170162D01*
X58484414Y18170162D01*
X58338642Y18109781D01*
X58183893Y18079000D01*
X58026107Y18079000D01*
X57871358Y18109781D01*
X57725586Y18170162D01*
X57725585Y18170162D01*
X57725584Y18170163D01*
X57594392Y18257822D01*
X57482822Y18369392D01*
X57395163Y18500584D01*
X57395162Y18500586D01*
X57334781Y18646358D01*
X57304000Y18801107D01*
X57304000Y18958893D01*
X57334781Y19113642D01*
X57395162Y19259414D01*
X57395163Y19259416D01*
X57482822Y19390608D01*
X57594392Y19502178D01*
X57725584Y19589837D01*
X57725586Y19589838D01*
X57871358Y19650219D01*
X58026107Y19681000D01*
X58183893Y19681000D01*
X58338642Y19650219D01*
G37*
G36*
X55798642Y19650219D02*
G01*
X55944414Y19589838D01*
X55944416Y19589837D01*
X56075608Y19502178D01*
X56187178Y19390608D01*
X56274837Y19259416D01*
X56274838Y19259414D01*
X56335219Y19113642D01*
X56366000Y18958893D01*
X56366000Y18801107D01*
X56335219Y18646358D01*
X56274838Y18500586D01*
X56274837Y18500584D01*
X56187178Y18369392D01*
X56075608Y18257822D01*
X55944416Y18170163D01*
X55944415Y18170162D01*
X55944414Y18170162D01*
X55798642Y18109781D01*
X55643893Y18079000D01*
X55486107Y18079000D01*
X55331358Y18109781D01*
X55185586Y18170162D01*
X55185585Y18170162D01*
X55185584Y18170163D01*
X55054392Y18257822D01*
X54942822Y18369392D01*
X54855163Y18500584D01*
X54855162Y18500586D01*
X54794781Y18646358D01*
X54764000Y18801107D01*
X54764000Y18958893D01*
X54794781Y19113642D01*
X54855162Y19259414D01*
X54855163Y19259416D01*
X54942822Y19390608D01*
X55054392Y19502178D01*
X55185584Y19589837D01*
X55185586Y19589838D01*
X55331358Y19650219D01*
X55486107Y19681000D01*
X55643893Y19681000D01*
X55798642Y19650219D01*
G37*
G36*
X53258642Y19650219D02*
G01*
X53404414Y19589838D01*
X53404416Y19589837D01*
X53535608Y19502178D01*
X53647178Y19390608D01*
X53734837Y19259416D01*
X53734838Y19259414D01*
X53795219Y19113642D01*
X53826000Y18958893D01*
X53826000Y18801107D01*
X53795219Y18646358D01*
X53734838Y18500586D01*
X53734837Y18500584D01*
X53647178Y18369392D01*
X53535608Y18257822D01*
X53404416Y18170163D01*
X53404415Y18170162D01*
X53404414Y18170162D01*
X53258642Y18109781D01*
X53103893Y18079000D01*
X52946107Y18079000D01*
X52791358Y18109781D01*
X52645586Y18170162D01*
X52645585Y18170162D01*
X52645584Y18170163D01*
X52514392Y18257822D01*
X52402822Y18369392D01*
X52315163Y18500584D01*
X52315162Y18500586D01*
X52254781Y18646358D01*
X52224000Y18801107D01*
X52224000Y18958893D01*
X52254781Y19113642D01*
X52315162Y19259414D01*
X52315163Y19259416D01*
X52402822Y19390608D01*
X52514392Y19502178D01*
X52645584Y19589837D01*
X52645586Y19589838D01*
X52791358Y19650219D01*
X52946107Y19681000D01*
X53103893Y19681000D01*
X53258642Y19650219D01*
G37*
G36*
X50718642Y19650219D02*
G01*
X50864414Y19589838D01*
X50864416Y19589837D01*
X50995608Y19502178D01*
X51107178Y19390608D01*
X51194837Y19259416D01*
X51194838Y19259414D01*
X51255219Y19113642D01*
X51286000Y18958893D01*
X51286000Y18801107D01*
X51255219Y18646358D01*
X51194838Y18500586D01*
X51194837Y18500584D01*
X51107178Y18369392D01*
X50995608Y18257822D01*
X50864416Y18170163D01*
X50864415Y18170162D01*
X50864414Y18170162D01*
X50718642Y18109781D01*
X50563893Y18079000D01*
X50406107Y18079000D01*
X50251358Y18109781D01*
X50105586Y18170162D01*
X50105585Y18170162D01*
X50105584Y18170163D01*
X49974392Y18257822D01*
X49862822Y18369392D01*
X49775163Y18500584D01*
X49775162Y18500586D01*
X49714781Y18646358D01*
X49684000Y18801107D01*
X49684000Y18958893D01*
X49714781Y19113642D01*
X49775162Y19259414D01*
X49775163Y19259416D01*
X49862822Y19390608D01*
X49974392Y19502178D01*
X50105584Y19589837D01*
X50105586Y19589838D01*
X50251358Y19650219D01*
X50406107Y19681000D01*
X50563893Y19681000D01*
X50718642Y19650219D01*
G37*
G36*
X48178642Y19650219D02*
G01*
X48324414Y19589838D01*
X48324416Y19589837D01*
X48455608Y19502178D01*
X48567178Y19390608D01*
X48654837Y19259416D01*
X48654838Y19259414D01*
X48715219Y19113642D01*
X48746000Y18958893D01*
X48746000Y18801107D01*
X48715219Y18646358D01*
X48654838Y18500586D01*
X48654837Y18500584D01*
X48567178Y18369392D01*
X48455608Y18257822D01*
X48324416Y18170163D01*
X48324415Y18170162D01*
X48324414Y18170162D01*
X48178642Y18109781D01*
X48023893Y18079000D01*
X47866107Y18079000D01*
X47711358Y18109781D01*
X47565586Y18170162D01*
X47565585Y18170162D01*
X47565584Y18170163D01*
X47434392Y18257822D01*
X47322822Y18369392D01*
X47235163Y18500584D01*
X47235162Y18500586D01*
X47174781Y18646358D01*
X47144000Y18801107D01*
X47144000Y18958893D01*
X47174781Y19113642D01*
X47235162Y19259414D01*
X47235163Y19259416D01*
X47322822Y19390608D01*
X47434392Y19502178D01*
X47565584Y19589837D01*
X47565586Y19589838D01*
X47711358Y19650219D01*
X47866107Y19681000D01*
X48023893Y19681000D01*
X48178642Y19650219D01*
G37*
G36*
X45638642Y19650219D02*
G01*
X45784414Y19589838D01*
X45784416Y19589837D01*
X45915608Y19502178D01*
X46027178Y19390608D01*
X46114837Y19259416D01*
X46114838Y19259414D01*
X46175219Y19113642D01*
X46206000Y18958893D01*
X46206000Y18801107D01*
X46175219Y18646358D01*
X46114838Y18500586D01*
X46114837Y18500584D01*
X46027178Y18369392D01*
X45915608Y18257822D01*
X45784416Y18170163D01*
X45784415Y18170162D01*
X45784414Y18170162D01*
X45638642Y18109781D01*
X45483893Y18079000D01*
X45326107Y18079000D01*
X45171358Y18109781D01*
X45025586Y18170162D01*
X45025585Y18170162D01*
X45025584Y18170163D01*
X44894392Y18257822D01*
X44782822Y18369392D01*
X44695163Y18500584D01*
X44695162Y18500586D01*
X44634781Y18646358D01*
X44604000Y18801107D01*
X44604000Y18958893D01*
X44634781Y19113642D01*
X44695162Y19259414D01*
X44695163Y19259416D01*
X44782822Y19390608D01*
X44894392Y19502178D01*
X45025584Y19589837D01*
X45025586Y19589838D01*
X45171358Y19650219D01*
X45326107Y19681000D01*
X45483893Y19681000D01*
X45638642Y19650219D01*
G37*
G36*
X60878642Y19650219D02*
G01*
X61024414Y19589838D01*
X61024416Y19589837D01*
X61155608Y19502178D01*
X61267178Y19390608D01*
X61354837Y19259416D01*
X61354838Y19259414D01*
X61415219Y19113642D01*
X61446000Y18958893D01*
X61446000Y18801107D01*
X61415219Y18646358D01*
X61354838Y18500586D01*
X61354837Y18500584D01*
X61267178Y18369392D01*
X61155608Y18257822D01*
X61024416Y18170163D01*
X61024415Y18170162D01*
X61024414Y18170162D01*
X60878642Y18109781D01*
X60723893Y18079000D01*
X60566107Y18079000D01*
X60411358Y18109781D01*
X60265586Y18170162D01*
X60265585Y18170162D01*
X60265584Y18170163D01*
X60134392Y18257822D01*
X60022822Y18369392D01*
X59935163Y18500584D01*
X59935162Y18500586D01*
X59874781Y18646358D01*
X59844000Y18801107D01*
X59844000Y18958893D01*
X59874781Y19113642D01*
X59935162Y19259414D01*
X59935163Y19259416D01*
X60022822Y19390608D01*
X60134392Y19502178D01*
X60265584Y19589837D01*
X60265586Y19589838D01*
X60411358Y19650219D01*
X60566107Y19681000D01*
X60723893Y19681000D01*
X60878642Y19650219D01*
G37*
G36*
X30398642Y19650219D02*
G01*
X30544414Y19589838D01*
X30544416Y19589837D01*
X30675608Y19502178D01*
X30787178Y19390608D01*
X30874837Y19259416D01*
X30874838Y19259414D01*
X30935219Y19113642D01*
X30966000Y18958893D01*
X30966000Y18801107D01*
X30935219Y18646358D01*
X30874838Y18500586D01*
X30874837Y18500584D01*
X30787178Y18369392D01*
X30675608Y18257822D01*
X30544416Y18170163D01*
X30544415Y18170162D01*
X30544414Y18170162D01*
X30398642Y18109781D01*
X30243893Y18079000D01*
X30086107Y18079000D01*
X29931358Y18109781D01*
X29785586Y18170162D01*
X29785585Y18170162D01*
X29785584Y18170163D01*
X29654392Y18257822D01*
X29542822Y18369392D01*
X29455163Y18500584D01*
X29455162Y18500586D01*
X29394781Y18646358D01*
X29364000Y18801107D01*
X29364000Y18958893D01*
X29394781Y19113642D01*
X29455162Y19259414D01*
X29455163Y19259416D01*
X29542822Y19390608D01*
X29654392Y19502178D01*
X29785584Y19589837D01*
X29785586Y19589838D01*
X29931358Y19650219D01*
X30086107Y19681000D01*
X30243893Y19681000D01*
X30398642Y19650219D01*
G37*
G36*
X27858642Y19650219D02*
G01*
X28004414Y19589838D01*
X28004416Y19589837D01*
X28135608Y19502178D01*
X28247178Y19390608D01*
X28334837Y19259416D01*
X28334838Y19259414D01*
X28395219Y19113642D01*
X28426000Y18958893D01*
X28426000Y18801107D01*
X28395219Y18646358D01*
X28334838Y18500586D01*
X28334837Y18500584D01*
X28247178Y18369392D01*
X28135608Y18257822D01*
X28004416Y18170163D01*
X28004415Y18170162D01*
X28004414Y18170162D01*
X27858642Y18109781D01*
X27703893Y18079000D01*
X27546107Y18079000D01*
X27391358Y18109781D01*
X27245586Y18170162D01*
X27245585Y18170162D01*
X27245584Y18170163D01*
X27114392Y18257822D01*
X27002822Y18369392D01*
X26915163Y18500584D01*
X26915162Y18500586D01*
X26854781Y18646358D01*
X26824000Y18801107D01*
X26824000Y18958893D01*
X26854781Y19113642D01*
X26915162Y19259414D01*
X26915163Y19259416D01*
X27002822Y19390608D01*
X27114392Y19502178D01*
X27245584Y19589837D01*
X27245586Y19589838D01*
X27391358Y19650219D01*
X27546107Y19681000D01*
X27703893Y19681000D01*
X27858642Y19650219D01*
G37*
G36*
X25318642Y19650219D02*
G01*
X25464414Y19589838D01*
X25464416Y19589837D01*
X25595608Y19502178D01*
X25707178Y19390608D01*
X25794837Y19259416D01*
X25794838Y19259414D01*
X25855219Y19113642D01*
X25886000Y18958893D01*
X25886000Y18801107D01*
X25855219Y18646358D01*
X25794838Y18500586D01*
X25794837Y18500584D01*
X25707178Y18369392D01*
X25595608Y18257822D01*
X25464416Y18170163D01*
X25464415Y18170162D01*
X25464414Y18170162D01*
X25318642Y18109781D01*
X25163893Y18079000D01*
X25006107Y18079000D01*
X24851358Y18109781D01*
X24705586Y18170162D01*
X24705585Y18170162D01*
X24705584Y18170163D01*
X24574392Y18257822D01*
X24462822Y18369392D01*
X24375163Y18500584D01*
X24375162Y18500586D01*
X24314781Y18646358D01*
X24284000Y18801107D01*
X24284000Y18958893D01*
X24314781Y19113642D01*
X24375162Y19259414D01*
X24375163Y19259416D01*
X24462822Y19390608D01*
X24574392Y19502178D01*
X24705584Y19589837D01*
X24705586Y19589838D01*
X24851358Y19650219D01*
X25006107Y19681000D01*
X25163893Y19681000D01*
X25318642Y19650219D01*
G37*
G36*
X65958642Y19650219D02*
G01*
X66104414Y19589838D01*
X66104416Y19589837D01*
X66235608Y19502178D01*
X66347178Y19390608D01*
X66434837Y19259416D01*
X66434838Y19259414D01*
X66495219Y19113642D01*
X66526000Y18958893D01*
X66526000Y18801107D01*
X66495219Y18646358D01*
X66434838Y18500586D01*
X66434837Y18500584D01*
X66347178Y18369392D01*
X66235608Y18257822D01*
X66104416Y18170163D01*
X66104415Y18170162D01*
X66104414Y18170162D01*
X65958642Y18109781D01*
X65803893Y18079000D01*
X65646107Y18079000D01*
X65491358Y18109781D01*
X65345586Y18170162D01*
X65345585Y18170162D01*
X65345584Y18170163D01*
X65214392Y18257822D01*
X65102822Y18369392D01*
X65015163Y18500584D01*
X65015162Y18500586D01*
X64954781Y18646358D01*
X64924000Y18801107D01*
X64924000Y18958893D01*
X64954781Y19113642D01*
X65015162Y19259414D01*
X65015163Y19259416D01*
X65102822Y19390608D01*
X65214392Y19502178D01*
X65345584Y19589837D01*
X65345586Y19589838D01*
X65491358Y19650219D01*
X65646107Y19681000D01*
X65803893Y19681000D01*
X65958642Y19650219D01*
G37*
G36*
X22778642Y19650219D02*
G01*
X22924414Y19589838D01*
X22924416Y19589837D01*
X23055608Y19502178D01*
X23167178Y19390608D01*
X23254837Y19259416D01*
X23254838Y19259414D01*
X23315219Y19113642D01*
X23346000Y18958893D01*
X23346000Y18801107D01*
X23315219Y18646358D01*
X23254838Y18500586D01*
X23254837Y18500584D01*
X23167178Y18369392D01*
X23055608Y18257822D01*
X22924416Y18170163D01*
X22924415Y18170162D01*
X22924414Y18170162D01*
X22778642Y18109781D01*
X22623893Y18079000D01*
X22466107Y18079000D01*
X22311358Y18109781D01*
X22165586Y18170162D01*
X22165585Y18170162D01*
X22165584Y18170163D01*
X22034392Y18257822D01*
X21922822Y18369392D01*
X21835163Y18500584D01*
X21835162Y18500586D01*
X21774781Y18646358D01*
X21744000Y18801107D01*
X21744000Y18958893D01*
X21774781Y19113642D01*
X21835162Y19259414D01*
X21835163Y19259416D01*
X21922822Y19390608D01*
X22034392Y19502178D01*
X22165584Y19589837D01*
X22165586Y19589838D01*
X22311358Y19650219D01*
X22466107Y19681000D01*
X22623893Y19681000D01*
X22778642Y19650219D01*
G37*
G36*
X63418642Y19650219D02*
G01*
X63564414Y19589838D01*
X63564416Y19589837D01*
X63695608Y19502178D01*
X63807178Y19390608D01*
X63894837Y19259416D01*
X63894838Y19259414D01*
X63955219Y19113642D01*
X63986000Y18958893D01*
X63986000Y18801107D01*
X63955219Y18646358D01*
X63894838Y18500586D01*
X63894837Y18500584D01*
X63807178Y18369392D01*
X63695608Y18257822D01*
X63564416Y18170163D01*
X63564415Y18170162D01*
X63564414Y18170162D01*
X63418642Y18109781D01*
X63263893Y18079000D01*
X63106107Y18079000D01*
X62951358Y18109781D01*
X62805586Y18170162D01*
X62805585Y18170162D01*
X62805584Y18170163D01*
X62674392Y18257822D01*
X62562822Y18369392D01*
X62475163Y18500584D01*
X62475162Y18500586D01*
X62414781Y18646358D01*
X62384000Y18801107D01*
X62384000Y18958893D01*
X62414781Y19113642D01*
X62475162Y19259414D01*
X62475163Y19259416D01*
X62562822Y19390608D01*
X62674392Y19502178D01*
X62805584Y19589837D01*
X62805586Y19589838D01*
X62951358Y19650219D01*
X63106107Y19681000D01*
X63263893Y19681000D01*
X63418642Y19650219D01*
G37*
G36*
X40558642Y19650219D02*
G01*
X40704414Y19589838D01*
X40704416Y19589837D01*
X40835608Y19502178D01*
X40947178Y19390608D01*
X41034837Y19259416D01*
X41034838Y19259414D01*
X41095219Y19113642D01*
X41126000Y18958893D01*
X41126000Y18801107D01*
X41095219Y18646358D01*
X41034838Y18500586D01*
X41034837Y18500584D01*
X40947178Y18369392D01*
X40835608Y18257822D01*
X40704416Y18170163D01*
X40704415Y18170162D01*
X40704414Y18170162D01*
X40558642Y18109781D01*
X40403893Y18079000D01*
X40246107Y18079000D01*
X40091358Y18109781D01*
X39945586Y18170162D01*
X39945585Y18170162D01*
X39945584Y18170163D01*
X39814392Y18257822D01*
X39702822Y18369392D01*
X39615163Y18500584D01*
X39615162Y18500586D01*
X39554781Y18646358D01*
X39524000Y18801107D01*
X39524000Y18958893D01*
X39554781Y19113642D01*
X39615162Y19259414D01*
X39615163Y19259416D01*
X39702822Y19390608D01*
X39814392Y19502178D01*
X39945584Y19589837D01*
X39945586Y19589838D01*
X40091358Y19650219D01*
X40246107Y19681000D01*
X40403893Y19681000D01*
X40558642Y19650219D01*
G37*
G36*
X43098642Y19650219D02*
G01*
X43244414Y19589838D01*
X43244416Y19589837D01*
X43375608Y19502178D01*
X43487178Y19390608D01*
X43574837Y19259416D01*
X43574838Y19259414D01*
X43635219Y19113642D01*
X43666000Y18958893D01*
X43666000Y18801107D01*
X43635219Y18646358D01*
X43574838Y18500586D01*
X43574837Y18500584D01*
X43487178Y18369392D01*
X43375608Y18257822D01*
X43244416Y18170163D01*
X43244415Y18170162D01*
X43244414Y18170162D01*
X43098642Y18109781D01*
X42943893Y18079000D01*
X42786107Y18079000D01*
X42631358Y18109781D01*
X42485586Y18170162D01*
X42485585Y18170162D01*
X42485584Y18170163D01*
X42354392Y18257822D01*
X42242822Y18369392D01*
X42155163Y18500584D01*
X42155162Y18500586D01*
X42094781Y18646358D01*
X42064000Y18801107D01*
X42064000Y18958893D01*
X42094781Y19113642D01*
X42155162Y19259414D01*
X42155163Y19259416D01*
X42242822Y19390608D01*
X42354392Y19502178D01*
X42485584Y19589837D01*
X42485586Y19589838D01*
X42631358Y19650219D01*
X42786107Y19681000D01*
X42943893Y19681000D01*
X43098642Y19650219D01*
G37*
G36*
X10786564Y21795611D02*
G01*
X10977833Y21716385D01*
X10977835Y21716384D01*
X11027353Y21683297D01*
X11149973Y21601365D01*
X11296365Y21454973D01*
X11411385Y21282833D01*
X11490611Y21091564D01*
X11531000Y20888516D01*
X11531000Y20681484D01*
X11490611Y20478436D01*
X11426028Y20322519D01*
X11411384Y20287165D01*
X11296365Y20115027D01*
X11149973Y19968635D01*
X10977835Y19853616D01*
X10977834Y19853615D01*
X10977833Y19853615D01*
X10786564Y19774389D01*
X10583516Y19734000D01*
X10376484Y19734000D01*
X10173436Y19774389D01*
X9982167Y19853615D01*
X9982166Y19853615D01*
X9982165Y19853616D01*
X9810027Y19968635D01*
X9663635Y20115027D01*
X9548616Y20287165D01*
X9533972Y20322519D01*
X9469389Y20478436D01*
X9429000Y20681484D01*
X9429000Y20888516D01*
X9469389Y21091564D01*
X9548615Y21282833D01*
X9663635Y21454973D01*
X9810027Y21601365D01*
X9932647Y21683297D01*
X9982165Y21716384D01*
X9982167Y21716385D01*
X10173436Y21795611D01*
X10376484Y21836000D01*
X10583516Y21836000D01*
X10786564Y21795611D01*
G37*
G36*
X3166564Y21795611D02*
G01*
X3357833Y21716385D01*
X3357835Y21716384D01*
X3407353Y21683297D01*
X3529973Y21601365D01*
X3676365Y21454973D01*
X3791385Y21282833D01*
X3870611Y21091564D01*
X3911000Y20888516D01*
X3911000Y20681484D01*
X3870611Y20478436D01*
X3806028Y20322519D01*
X3791384Y20287165D01*
X3676365Y20115027D01*
X3529973Y19968635D01*
X3357835Y19853616D01*
X3357834Y19853615D01*
X3357833Y19853615D01*
X3166564Y19774389D01*
X2963516Y19734000D01*
X2756484Y19734000D01*
X2553436Y19774389D01*
X2362167Y19853615D01*
X2362166Y19853615D01*
X2362165Y19853616D01*
X2190027Y19968635D01*
X2043635Y20115027D01*
X1928616Y20287165D01*
X1913972Y20322519D01*
X1849389Y20478436D01*
X1809000Y20681484D01*
X1809000Y20888516D01*
X1849389Y21091564D01*
X1928615Y21282833D01*
X2043635Y21454973D01*
X2190027Y21601365D01*
X2312647Y21683297D01*
X2362165Y21716384D01*
X2362167Y21716385D01*
X2553436Y21795611D01*
X2756484Y21836000D01*
X2963516Y21836000D01*
X3166564Y21795611D01*
G37*
G36*
X74863228Y21683297D02*
G01*
X75018100Y21619147D01*
X75157481Y21526015D01*
X75276015Y21407481D01*
X75369147Y21268100D01*
X75433297Y21113228D01*
X75466000Y20948816D01*
X75466000Y20781184D01*
X75433297Y20616772D01*
X75369147Y20461900D01*
X75276015Y20322519D01*
X75157481Y20203985D01*
X75018100Y20110853D01*
X74863228Y20046703D01*
X74698816Y20014000D01*
X74531184Y20014000D01*
X74366772Y20046703D01*
X74211900Y20110853D01*
X74072519Y20203985D01*
X73953985Y20322519D01*
X73860853Y20461900D01*
X73796703Y20616772D01*
X73764000Y20781184D01*
X73764000Y20948816D01*
X73796703Y21113228D01*
X73860853Y21268100D01*
X73953985Y21407481D01*
X74072519Y21526015D01*
X74211900Y21619147D01*
X74366772Y21683297D01*
X74531184Y21716000D01*
X74698816Y21716000D01*
X74863228Y21683297D01*
G37*
G36*
X3166564Y24970611D02*
G01*
X3357833Y24891385D01*
X3357835Y24891384D01*
X3529973Y24776365D01*
X3676365Y24629973D01*
X3791385Y24457833D01*
X3870611Y24266564D01*
X3911000Y24063516D01*
X3911000Y23856484D01*
X3870611Y23653436D01*
X3791385Y23462167D01*
X3791384Y23462165D01*
X3676365Y23290027D01*
X3529973Y23143635D01*
X3357835Y23028616D01*
X3357834Y23028615D01*
X3357833Y23028615D01*
X3166564Y22949389D01*
X2963516Y22909000D01*
X2756484Y22909000D01*
X2553436Y22949389D01*
X2362167Y23028615D01*
X2362166Y23028615D01*
X2362165Y23028616D01*
X2190027Y23143635D01*
X2043635Y23290027D01*
X1928616Y23462165D01*
X1928615Y23462167D01*
X1849389Y23653436D01*
X1809000Y23856484D01*
X1809000Y24063516D01*
X1849389Y24266564D01*
X1928615Y24457833D01*
X2043635Y24629973D01*
X2190027Y24776365D01*
X2362165Y24891384D01*
X2362167Y24891385D01*
X2553436Y24970611D01*
X2756484Y25011000D01*
X2963516Y25011000D01*
X3166564Y24970611D01*
G37*
G36*
X10786564Y24970611D02*
G01*
X10977833Y24891385D01*
X10977835Y24891384D01*
X11149973Y24776365D01*
X11296365Y24629973D01*
X11411385Y24457833D01*
X11490611Y24266564D01*
X11531000Y24063516D01*
X11531000Y23856484D01*
X11490611Y23653436D01*
X11411385Y23462167D01*
X11411384Y23462165D01*
X11296365Y23290027D01*
X11149973Y23143635D01*
X10977835Y23028616D01*
X10977834Y23028615D01*
X10977833Y23028615D01*
X10786564Y22949389D01*
X10583516Y22909000D01*
X10376484Y22909000D01*
X10173436Y22949389D01*
X9982167Y23028615D01*
X9982166Y23028615D01*
X9982165Y23028616D01*
X9810027Y23143635D01*
X9663635Y23290027D01*
X9548616Y23462165D01*
X9548615Y23462167D01*
X9469389Y23653436D01*
X9429000Y23856484D01*
X9429000Y24063516D01*
X9469389Y24266564D01*
X9548615Y24457833D01*
X9663635Y24629973D01*
X9810027Y24776365D01*
X9982165Y24891384D01*
X9982167Y24891385D01*
X10173436Y24970611D01*
X10376484Y25011000D01*
X10583516Y25011000D01*
X10786564Y24970611D01*
G37*
G36*
X74863228Y26683297D02*
G01*
X75018100Y26619147D01*
X75157481Y26526015D01*
X75276015Y26407481D01*
X75369147Y26268100D01*
X75433297Y26113228D01*
X75466000Y25948816D01*
X75466000Y25781184D01*
X75433297Y25616772D01*
X75369147Y25461900D01*
X75276015Y25322519D01*
X75157481Y25203985D01*
X75018100Y25110853D01*
X74863228Y25046703D01*
X74698816Y25014000D01*
X74531184Y25014000D01*
X74366772Y25046703D01*
X74211900Y25110853D01*
X74072519Y25203985D01*
X73953985Y25322519D01*
X73860853Y25461900D01*
X73796703Y25616772D01*
X73764000Y25781184D01*
X73764000Y25948816D01*
X73796703Y26113228D01*
X73860853Y26268100D01*
X73953985Y26407481D01*
X74072519Y26526015D01*
X74211900Y26619147D01*
X74366772Y26683297D01*
X74531184Y26716000D01*
X74698816Y26716000D01*
X74863228Y26683297D01*
G37*
G36*
X96453228Y26683297D02*
G01*
X96608100Y26619147D01*
X96747481Y26526015D01*
X96866015Y26407481D01*
X96959147Y26268100D01*
X97023297Y26113228D01*
X97056000Y25948816D01*
X97056000Y25781184D01*
X97023297Y25616772D01*
X96959147Y25461900D01*
X96866015Y25322519D01*
X96747481Y25203985D01*
X96608100Y25110853D01*
X96453228Y25046703D01*
X96288816Y25014000D01*
X96121184Y25014000D01*
X95956772Y25046703D01*
X95801900Y25110853D01*
X95662519Y25203985D01*
X95543985Y25322519D01*
X95450853Y25461900D01*
X95386703Y25616772D01*
X95354000Y25781184D01*
X95354000Y25948816D01*
X95386703Y26113228D01*
X95450853Y26268100D01*
X95543985Y26407481D01*
X95662519Y26526015D01*
X95801900Y26619147D01*
X95956772Y26683297D01*
X96121184Y26716000D01*
X96288816Y26716000D01*
X96453228Y26683297D01*
G37*
G36*
X93913228Y26683297D02*
G01*
X94068100Y26619147D01*
X94207481Y26526015D01*
X94326015Y26407481D01*
X94419147Y26268100D01*
X94483297Y26113228D01*
X94516000Y25948816D01*
X94516000Y25781184D01*
X94483297Y25616772D01*
X94419147Y25461900D01*
X94326015Y25322519D01*
X94207481Y25203985D01*
X94068100Y25110853D01*
X93913228Y25046703D01*
X93748816Y25014000D01*
X93581184Y25014000D01*
X93416772Y25046703D01*
X93261900Y25110853D01*
X93122519Y25203985D01*
X93003985Y25322519D01*
X92910853Y25461900D01*
X92846703Y25616772D01*
X92814000Y25781184D01*
X92814000Y25948816D01*
X92846703Y26113228D01*
X92910853Y26268100D01*
X93003985Y26407481D01*
X93122519Y26526015D01*
X93261900Y26619147D01*
X93416772Y26683297D01*
X93581184Y26716000D01*
X93748816Y26716000D01*
X93913228Y26683297D01*
G37*
G36*
X91373228Y26683297D02*
G01*
X91528100Y26619147D01*
X91667481Y26526015D01*
X91786015Y26407481D01*
X91879147Y26268100D01*
X91943297Y26113228D01*
X91976000Y25948816D01*
X91976000Y25781184D01*
X91943297Y25616772D01*
X91879147Y25461900D01*
X91786015Y25322519D01*
X91667481Y25203985D01*
X91528100Y25110853D01*
X91373228Y25046703D01*
X91208816Y25014000D01*
X91041184Y25014000D01*
X90876772Y25046703D01*
X90721900Y25110853D01*
X90582519Y25203985D01*
X90463985Y25322519D01*
X90370853Y25461900D01*
X90306703Y25616772D01*
X90274000Y25781184D01*
X90274000Y25948816D01*
X90306703Y26113228D01*
X90370853Y26268100D01*
X90463985Y26407481D01*
X90582519Y26526015D01*
X90721900Y26619147D01*
X90876772Y26683297D01*
X91041184Y26716000D01*
X91208816Y26716000D01*
X91373228Y26683297D01*
G37*
G36*
X86293228Y26683297D02*
G01*
X86448100Y26619147D01*
X86587481Y26526015D01*
X86706015Y26407481D01*
X86799147Y26268100D01*
X86863297Y26113228D01*
X86896000Y25948816D01*
X86896000Y25781184D01*
X86863297Y25616772D01*
X86799147Y25461900D01*
X86706015Y25322519D01*
X86587481Y25203985D01*
X86448100Y25110853D01*
X86293228Y25046703D01*
X86128816Y25014000D01*
X85961184Y25014000D01*
X85796772Y25046703D01*
X85641900Y25110853D01*
X85502519Y25203985D01*
X85383985Y25322519D01*
X85290853Y25461900D01*
X85226703Y25616772D01*
X85194000Y25781184D01*
X85194000Y25948816D01*
X85226703Y26113228D01*
X85290853Y26268100D01*
X85383985Y26407481D01*
X85502519Y26526015D01*
X85641900Y26619147D01*
X85796772Y26683297D01*
X85961184Y26716000D01*
X86128816Y26716000D01*
X86293228Y26683297D01*
G37*
G36*
X83753228Y26683297D02*
G01*
X83908100Y26619147D01*
X84047481Y26526015D01*
X84166015Y26407481D01*
X84259147Y26268100D01*
X84323297Y26113228D01*
X84356000Y25948816D01*
X84356000Y25781184D01*
X84323297Y25616772D01*
X84259147Y25461900D01*
X84166015Y25322519D01*
X84047481Y25203985D01*
X83908100Y25110853D01*
X83753228Y25046703D01*
X83588816Y25014000D01*
X83421184Y25014000D01*
X83256772Y25046703D01*
X83101900Y25110853D01*
X82962519Y25203985D01*
X82843985Y25322519D01*
X82750853Y25461900D01*
X82686703Y25616772D01*
X82654000Y25781184D01*
X82654000Y25948816D01*
X82686703Y26113228D01*
X82750853Y26268100D01*
X82843985Y26407481D01*
X82962519Y26526015D01*
X83101900Y26619147D01*
X83256772Y26683297D01*
X83421184Y26716000D01*
X83588816Y26716000D01*
X83753228Y26683297D01*
G37*
G36*
X81213228Y26683297D02*
G01*
X81368100Y26619147D01*
X81507481Y26526015D01*
X81626015Y26407481D01*
X81719147Y26268100D01*
X81783297Y26113228D01*
X81816000Y25948816D01*
X81816000Y25781184D01*
X81783297Y25616772D01*
X81719147Y25461900D01*
X81626015Y25322519D01*
X81507481Y25203985D01*
X81368100Y25110853D01*
X81213228Y25046703D01*
X81048816Y25014000D01*
X80881184Y25014000D01*
X80716772Y25046703D01*
X80561900Y25110853D01*
X80422519Y25203985D01*
X80303985Y25322519D01*
X80210853Y25461900D01*
X80146703Y25616772D01*
X80114000Y25781184D01*
X80114000Y25948816D01*
X80146703Y26113228D01*
X80210853Y26268100D01*
X80303985Y26407481D01*
X80422519Y26526015D01*
X80561900Y26619147D01*
X80716772Y26683297D01*
X80881184Y26716000D01*
X81048816Y26716000D01*
X81213228Y26683297D01*
G37*
G36*
X78673228Y26683297D02*
G01*
X78828100Y26619147D01*
X78967481Y26526015D01*
X79086015Y26407481D01*
X79179147Y26268100D01*
X79243297Y26113228D01*
X79276000Y25948816D01*
X79276000Y25781184D01*
X79243297Y25616772D01*
X79179147Y25461900D01*
X79086015Y25322519D01*
X78967481Y25203985D01*
X78828100Y25110853D01*
X78673228Y25046703D01*
X78508816Y25014000D01*
X78341184Y25014000D01*
X78176772Y25046703D01*
X78021900Y25110853D01*
X77882519Y25203985D01*
X77763985Y25322519D01*
X77670853Y25461900D01*
X77606703Y25616772D01*
X77574000Y25781184D01*
X77574000Y25948816D01*
X77606703Y26113228D01*
X77670853Y26268100D01*
X77763985Y26407481D01*
X77882519Y26526015D01*
X78021900Y26619147D01*
X78176772Y26683297D01*
X78341184Y26716000D01*
X78508816Y26716000D01*
X78673228Y26683297D01*
G37*
G36*
X88833228Y26683297D02*
G01*
X88988100Y26619147D01*
X89127481Y26526015D01*
X89246015Y26407481D01*
X89339147Y26268100D01*
X89403297Y26113228D01*
X89436000Y25948816D01*
X89436000Y25781184D01*
X89403297Y25616772D01*
X89339147Y25461900D01*
X89246015Y25322519D01*
X89127481Y25203985D01*
X88988100Y25110853D01*
X88833228Y25046703D01*
X88668816Y25014000D01*
X88501184Y25014000D01*
X88336772Y25046703D01*
X88181900Y25110853D01*
X88042519Y25203985D01*
X87923985Y25322519D01*
X87830853Y25461900D01*
X87766703Y25616772D01*
X87734000Y25781184D01*
X87734000Y25948816D01*
X87766703Y26113228D01*
X87830853Y26268100D01*
X87923985Y26407481D01*
X88042519Y26526015D01*
X88181900Y26619147D01*
X88336772Y26683297D01*
X88501184Y26716000D01*
X88668816Y26716000D01*
X88833228Y26683297D01*
G37*
G36*
X3166564Y30050611D02*
G01*
X3357833Y29971385D01*
X3357835Y29971384D01*
X3529973Y29856365D01*
X3676365Y29709973D01*
X3740256Y29614354D01*
X3791385Y29537833D01*
X3870611Y29346564D01*
X3911000Y29143516D01*
X3911000Y28936484D01*
X3870611Y28733436D01*
X3820815Y28613218D01*
X3791384Y28542165D01*
X3676365Y28370027D01*
X3529973Y28223635D01*
X3357835Y28108616D01*
X3357834Y28108615D01*
X3357833Y28108615D01*
X3166564Y28029389D01*
X2963516Y27989000D01*
X2756484Y27989000D01*
X2553436Y28029389D01*
X2362167Y28108615D01*
X2362166Y28108615D01*
X2362165Y28108616D01*
X2190027Y28223635D01*
X2043635Y28370027D01*
X1928616Y28542165D01*
X1899185Y28613218D01*
X1849389Y28733436D01*
X1809000Y28936484D01*
X1809000Y29143516D01*
X1849389Y29346564D01*
X1928615Y29537833D01*
X1979745Y29614354D01*
X2043635Y29709973D01*
X2190027Y29856365D01*
X2362165Y29971384D01*
X2362167Y29971385D01*
X2553436Y30050611D01*
X2756484Y30091000D01*
X2963516Y30091000D01*
X3166564Y30050611D01*
G37*
G36*
X10786564Y30050611D02*
G01*
X10977833Y29971385D01*
X10977835Y29971384D01*
X11149973Y29856365D01*
X11296365Y29709973D01*
X11360256Y29614354D01*
X11411385Y29537833D01*
X11490611Y29346564D01*
X11531000Y29143516D01*
X11531000Y28936484D01*
X11490611Y28733436D01*
X11440815Y28613218D01*
X11411384Y28542165D01*
X11296365Y28370027D01*
X11149973Y28223635D01*
X10977835Y28108616D01*
X10977834Y28108615D01*
X10977833Y28108615D01*
X10786564Y28029389D01*
X10583516Y27989000D01*
X10376484Y27989000D01*
X10173436Y28029389D01*
X9982167Y28108615D01*
X9982166Y28108615D01*
X9982165Y28108616D01*
X9810027Y28223635D01*
X9663635Y28370027D01*
X9548616Y28542165D01*
X9519185Y28613218D01*
X9469389Y28733436D01*
X9429000Y28936484D01*
X9429000Y29143516D01*
X9469389Y29346564D01*
X9548615Y29537833D01*
X9599745Y29614354D01*
X9663635Y29709973D01*
X9810027Y29856365D01*
X9982165Y29971384D01*
X9982167Y29971385D01*
X10173436Y30050611D01*
X10376484Y30091000D01*
X10583516Y30091000D01*
X10786564Y30050611D01*
G37*
G36*
X75998512Y29936073D02*
G01*
X76147812Y29906376D01*
X76311784Y29838456D01*
X76459354Y29739853D01*
X76584853Y29614354D01*
X76683456Y29466784D01*
X76751376Y29302812D01*
X76786000Y29128741D01*
X76786000Y28951259D01*
X76751376Y28777188D01*
X76683456Y28613216D01*
X76584853Y28465646D01*
X76459354Y28340147D01*
X76311784Y28241544D01*
X76147812Y28173624D01*
X75998512Y28143927D01*
X75973742Y28139000D01*
X75796258Y28139000D01*
X75771488Y28143927D01*
X75622188Y28173624D01*
X75458216Y28241544D01*
X75310646Y28340147D01*
X75185147Y28465646D01*
X75086544Y28613216D01*
X75018624Y28777188D01*
X74984000Y28951259D01*
X74984000Y29128741D01*
X75018624Y29302812D01*
X75086544Y29466784D01*
X75185147Y29614354D01*
X75310646Y29739853D01*
X75458216Y29838456D01*
X75622188Y29906376D01*
X75771488Y29936073D01*
X75796258Y29941000D01*
X75973742Y29941000D01*
X75998512Y29936073D01*
G37*
G36*
X79326000Y28139000D02*
G01*
X77524000Y28139000D01*
X77524000Y29941000D01*
X79326000Y29941000D01*
X79326000Y28139000D01*
G37*
G36*
X7553228Y33033297D02*
G01*
X7708100Y32969147D01*
X7847481Y32876015D01*
X7966015Y32757481D01*
X8059147Y32618100D01*
X8123297Y32463228D01*
X8156000Y32298816D01*
X8156000Y32131184D01*
X8123297Y31966772D01*
X8059147Y31811900D01*
X7966015Y31672519D01*
X7847481Y31553985D01*
X7708100Y31460853D01*
X7553228Y31396703D01*
X7388816Y31364000D01*
X7221184Y31364000D01*
X7056772Y31396703D01*
X6901900Y31460853D01*
X6762519Y31553985D01*
X6643985Y31672519D01*
X6550853Y31811900D01*
X6486703Y31966772D01*
X6454000Y32131184D01*
X6454000Y32298816D01*
X6486703Y32463228D01*
X6550853Y32618100D01*
X6643985Y32757481D01*
X6762519Y32876015D01*
X6901900Y32969147D01*
X7056772Y33033297D01*
X7221184Y33066000D01*
X7388816Y33066000D01*
X7553228Y33033297D01*
G37*
G36*
X12990098Y36837967D02*
G01*
X13358300Y36685453D01*
X13454352Y36645667D01*
X13872168Y36366491D01*
X14227491Y36011168D01*
X14506667Y35593352D01*
X14506668Y35593350D01*
X14698967Y35129098D01*
X14797000Y34636253D01*
X14797000Y34133747D01*
X14698967Y33640902D01*
X14506668Y33176650D01*
X14506667Y33176648D01*
X14227491Y32758832D01*
X13872168Y32403509D01*
X13454352Y32124333D01*
X13454351Y32124332D01*
X13454350Y32124332D01*
X12990098Y31932033D01*
X12497253Y31834000D01*
X11994747Y31834000D01*
X11501902Y31932033D01*
X11037650Y32124332D01*
X11037649Y32124332D01*
X11037648Y32124333D01*
X10619832Y32403509D01*
X10264509Y32758832D01*
X9985333Y33176648D01*
X9985332Y33176650D01*
X9793033Y33640902D01*
X9695000Y34133747D01*
X9695000Y34636253D01*
X9793033Y35129098D01*
X9985332Y35593350D01*
X9985333Y35593352D01*
X10264509Y36011168D01*
X10619832Y36366491D01*
X11037648Y36645667D01*
X11133700Y36685453D01*
X11501902Y36837967D01*
X11994747Y36936000D01*
X12497253Y36936000D01*
X12990098Y36837967D01*
G37*
G36*
X87690098Y36837967D02*
G01*
X88058300Y36685453D01*
X88154352Y36645667D01*
X88572168Y36366491D01*
X88927491Y36011168D01*
X89206667Y35593352D01*
X89206668Y35593350D01*
X89398967Y35129098D01*
X89497000Y34636253D01*
X89497000Y34133747D01*
X89398967Y33640902D01*
X89206668Y33176650D01*
X89206667Y33176648D01*
X88927491Y32758832D01*
X88572168Y32403509D01*
X88154352Y32124333D01*
X88154351Y32124332D01*
X88154350Y32124332D01*
X87690098Y31932033D01*
X87197253Y31834000D01*
X86694747Y31834000D01*
X86201902Y31932033D01*
X85737650Y32124332D01*
X85737649Y32124332D01*
X85737648Y32124333D01*
X85319832Y32403509D01*
X84964509Y32758832D01*
X84685333Y33176648D01*
X84685332Y33176650D01*
X84493033Y33640902D01*
X84395000Y34133747D01*
X84395000Y34636253D01*
X84493033Y35129098D01*
X84685332Y35593350D01*
X84685333Y35593352D01*
X84964509Y36011168D01*
X85319832Y36366491D01*
X85737648Y36645667D01*
X85833700Y36685453D01*
X86201902Y36837967D01*
X86694747Y36936000D01*
X87197253Y36936000D01*
X87690098Y36837967D01*
G37*
G36*
X3811000Y32280000D02*
G01*
X1909000Y32280000D01*
X1909000Y34182000D01*
X3811000Y34182000D01*
X3811000Y32280000D01*
G37*
G36*
X83118228Y34938297D02*
G01*
X83273100Y34874147D01*
X83412481Y34781015D01*
X83531015Y34662481D01*
X83624147Y34523100D01*
X83688297Y34368228D01*
X83721000Y34203816D01*
X83721000Y34036184D01*
X83688297Y33871772D01*
X83624147Y33716900D01*
X83531015Y33577519D01*
X83412481Y33458985D01*
X83273100Y33365853D01*
X83118228Y33301703D01*
X82953816Y33269000D01*
X82786184Y33269000D01*
X82621772Y33301703D01*
X82466900Y33365853D01*
X82327519Y33458985D01*
X82208985Y33577519D01*
X82115853Y33716900D01*
X82051703Y33871772D01*
X82019000Y34036184D01*
X82019000Y34203816D01*
X82051703Y34368228D01*
X82115853Y34523100D01*
X82208985Y34662481D01*
X82327519Y34781015D01*
X82466900Y34874147D01*
X82621772Y34938297D01*
X82786184Y34971000D01*
X82953816Y34971000D01*
X83118228Y34938297D01*
G37*
G36*
X72958228Y34938297D02*
G01*
X73113100Y34874147D01*
X73252481Y34781015D01*
X73371015Y34662481D01*
X73464147Y34523100D01*
X73528297Y34368228D01*
X73561000Y34203816D01*
X73561000Y34036184D01*
X73528297Y33871772D01*
X73464147Y33716900D01*
X73371015Y33577519D01*
X73252481Y33458985D01*
X73113100Y33365853D01*
X72958228Y33301703D01*
X72793816Y33269000D01*
X72626184Y33269000D01*
X72461772Y33301703D01*
X72306900Y33365853D01*
X72167519Y33458985D01*
X72048985Y33577519D01*
X71955853Y33716900D01*
X71891703Y33871772D01*
X71859000Y34036184D01*
X71859000Y34203816D01*
X71891703Y34368228D01*
X71955853Y34523100D01*
X72048985Y34662481D01*
X72167519Y34781015D01*
X72306900Y34874147D01*
X72461772Y34938297D01*
X72626184Y34971000D01*
X72793816Y34971000D01*
X72958228Y34938297D01*
G37*
G36*
X3137395Y36685454D02*
G01*
X3310466Y36613766D01*
X3310467Y36613765D01*
X3466227Y36509690D01*
X3598690Y36377227D01*
X3651081Y36298818D01*
X3702766Y36221466D01*
X3774454Y36048395D01*
X3811000Y35864667D01*
X3811000Y35677333D01*
X3774454Y35493605D01*
X3702766Y35320534D01*
X3702765Y35320533D01*
X3598690Y35164773D01*
X3466227Y35032310D01*
X3387818Y34979919D01*
X3310466Y34928234D01*
X3137395Y34856546D01*
X2953667Y34820000D01*
X2766333Y34820000D01*
X2582605Y34856546D01*
X2409534Y34928234D01*
X2332182Y34979919D01*
X2253773Y35032310D01*
X2121310Y35164773D01*
X2017235Y35320533D01*
X2017234Y35320534D01*
X1945546Y35493605D01*
X1909000Y35677333D01*
X1909000Y35864667D01*
X1945546Y36048395D01*
X2017234Y36221466D01*
X2068919Y36298818D01*
X2121310Y36377227D01*
X2253773Y36509690D01*
X2409533Y36613765D01*
X2409534Y36613766D01*
X2582605Y36685454D01*
X2766333Y36722000D01*
X2953667Y36722000D01*
X3137395Y36685454D01*
G37*
G36*
X83118228Y38113297D02*
G01*
X83273100Y38049147D01*
X83412481Y37956015D01*
X83531015Y37837481D01*
X83624147Y37698100D01*
X83688297Y37543228D01*
X83721000Y37378816D01*
X83721000Y37211184D01*
X83688297Y37046772D01*
X83624147Y36891900D01*
X83531015Y36752519D01*
X83412481Y36633985D01*
X83273100Y36540853D01*
X83118228Y36476703D01*
X82953816Y36444000D01*
X82786184Y36444000D01*
X82621772Y36476703D01*
X82466900Y36540853D01*
X82327519Y36633985D01*
X82208985Y36752519D01*
X82115853Y36891900D01*
X82051703Y37046772D01*
X82019000Y37211184D01*
X82019000Y37378816D01*
X82051703Y37543228D01*
X82115853Y37698100D01*
X82208985Y37837481D01*
X82327519Y37956015D01*
X82466900Y38049147D01*
X82621772Y38113297D01*
X82786184Y38146000D01*
X82953816Y38146000D01*
X83118228Y38113297D01*
G37*
G36*
X72958228Y38113297D02*
G01*
X73113100Y38049147D01*
X73252481Y37956015D01*
X73371015Y37837481D01*
X73464147Y37698100D01*
X73528297Y37543228D01*
X73561000Y37378816D01*
X73561000Y37211184D01*
X73528297Y37046772D01*
X73464147Y36891900D01*
X73371015Y36752519D01*
X73252481Y36633985D01*
X73113100Y36540853D01*
X72958228Y36476703D01*
X72793816Y36444000D01*
X72626184Y36444000D01*
X72461772Y36476703D01*
X72306900Y36540853D01*
X72167519Y36633985D01*
X72048985Y36752519D01*
X71955853Y36891900D01*
X71891703Y37046772D01*
X71859000Y37211184D01*
X71859000Y37378816D01*
X71891703Y37543228D01*
X71955853Y37698100D01*
X72048985Y37837481D01*
X72167519Y37956015D01*
X72306900Y38049147D01*
X72461772Y38113297D01*
X72626184Y38146000D01*
X72793816Y38146000D01*
X72958228Y38113297D01*
G37*
G36*
X7553228Y43193297D02*
G01*
X7708100Y43129147D01*
X7847481Y43036015D01*
X7966015Y42917481D01*
X8059147Y42778100D01*
X8123297Y42623228D01*
X8156000Y42458816D01*
X8156000Y42291184D01*
X8123297Y42126772D01*
X8059147Y41971900D01*
X7966015Y41832519D01*
X7847481Y41713985D01*
X7708100Y41620853D01*
X7553228Y41556703D01*
X7388816Y41524000D01*
X7221184Y41524000D01*
X7056772Y41556703D01*
X6901900Y41620853D01*
X6762519Y41713985D01*
X6643985Y41832519D01*
X6550853Y41971900D01*
X6486703Y42126772D01*
X6454000Y42291184D01*
X6454000Y42458816D01*
X6486703Y42623228D01*
X6550853Y42778100D01*
X6643985Y42917481D01*
X6762519Y43036015D01*
X6901900Y43129147D01*
X7056772Y43193297D01*
X7221184Y43226000D01*
X7388816Y43226000D01*
X7553228Y43193297D01*
G37*
G36*
X22778642Y45050219D02*
G01*
X22924414Y44989838D01*
X22924416Y44989837D01*
X23055608Y44902178D01*
X23167178Y44790608D01*
X23254837Y44659416D01*
X23254838Y44659414D01*
X23315219Y44513642D01*
X23346000Y44358893D01*
X23346000Y44201107D01*
X23315219Y44046358D01*
X23254838Y43900586D01*
X23254837Y43900584D01*
X23167178Y43769392D01*
X23055608Y43657822D01*
X22924416Y43570163D01*
X22924415Y43570162D01*
X22924414Y43570162D01*
X22778642Y43509781D01*
X22623893Y43479000D01*
X22466107Y43479000D01*
X22311358Y43509781D01*
X22165586Y43570162D01*
X22165585Y43570162D01*
X22165584Y43570163D01*
X22034392Y43657822D01*
X21922822Y43769392D01*
X21835163Y43900584D01*
X21835162Y43900586D01*
X21774781Y44046358D01*
X21744000Y44201107D01*
X21744000Y44358893D01*
X21774781Y44513642D01*
X21835162Y44659414D01*
X21835163Y44659416D01*
X21922822Y44790608D01*
X22034392Y44902178D01*
X22165584Y44989837D01*
X22165586Y44989838D01*
X22311358Y45050219D01*
X22466107Y45081000D01*
X22623893Y45081000D01*
X22778642Y45050219D01*
G37*
G36*
X58338642Y45050219D02*
G01*
X58484414Y44989838D01*
X58484416Y44989837D01*
X58615608Y44902178D01*
X58727178Y44790608D01*
X58814837Y44659416D01*
X58814838Y44659414D01*
X58875219Y44513642D01*
X58906000Y44358893D01*
X58906000Y44201107D01*
X58875219Y44046358D01*
X58814838Y43900586D01*
X58814837Y43900584D01*
X58727178Y43769392D01*
X58615608Y43657822D01*
X58484416Y43570163D01*
X58484415Y43570162D01*
X58484414Y43570162D01*
X58338642Y43509781D01*
X58183893Y43479000D01*
X58026107Y43479000D01*
X57871358Y43509781D01*
X57725586Y43570162D01*
X57725585Y43570162D01*
X57725584Y43570163D01*
X57594392Y43657822D01*
X57482822Y43769392D01*
X57395163Y43900584D01*
X57395162Y43900586D01*
X57334781Y44046358D01*
X57304000Y44201107D01*
X57304000Y44358893D01*
X57334781Y44513642D01*
X57395162Y44659414D01*
X57395163Y44659416D01*
X57482822Y44790608D01*
X57594392Y44902178D01*
X57725584Y44989837D01*
X57725586Y44989838D01*
X57871358Y45050219D01*
X58026107Y45081000D01*
X58183893Y45081000D01*
X58338642Y45050219D01*
G37*
G36*
X55798642Y45050219D02*
G01*
X55944414Y44989838D01*
X55944416Y44989837D01*
X56075608Y44902178D01*
X56187178Y44790608D01*
X56274837Y44659416D01*
X56274838Y44659414D01*
X56335219Y44513642D01*
X56366000Y44358893D01*
X56366000Y44201107D01*
X56335219Y44046358D01*
X56274838Y43900586D01*
X56274837Y43900584D01*
X56187178Y43769392D01*
X56075608Y43657822D01*
X55944416Y43570163D01*
X55944415Y43570162D01*
X55944414Y43570162D01*
X55798642Y43509781D01*
X55643893Y43479000D01*
X55486107Y43479000D01*
X55331358Y43509781D01*
X55185586Y43570162D01*
X55185585Y43570162D01*
X55185584Y43570163D01*
X55054392Y43657822D01*
X54942822Y43769392D01*
X54855163Y43900584D01*
X54855162Y43900586D01*
X54794781Y44046358D01*
X54764000Y44201107D01*
X54764000Y44358893D01*
X54794781Y44513642D01*
X54855162Y44659414D01*
X54855163Y44659416D01*
X54942822Y44790608D01*
X55054392Y44902178D01*
X55185584Y44989837D01*
X55185586Y44989838D01*
X55331358Y45050219D01*
X55486107Y45081000D01*
X55643893Y45081000D01*
X55798642Y45050219D01*
G37*
G36*
X50718642Y45050219D02*
G01*
X50864414Y44989838D01*
X50864416Y44989837D01*
X50995608Y44902178D01*
X51107178Y44790608D01*
X51194837Y44659416D01*
X51194838Y44659414D01*
X51255219Y44513642D01*
X51286000Y44358893D01*
X51286000Y44201107D01*
X51255219Y44046358D01*
X51194838Y43900586D01*
X51194837Y43900584D01*
X51107178Y43769392D01*
X50995608Y43657822D01*
X50864416Y43570163D01*
X50864415Y43570162D01*
X50864414Y43570162D01*
X50718642Y43509781D01*
X50563893Y43479000D01*
X50406107Y43479000D01*
X50251358Y43509781D01*
X50105586Y43570162D01*
X50105585Y43570162D01*
X50105584Y43570163D01*
X49974392Y43657822D01*
X49862822Y43769392D01*
X49775163Y43900584D01*
X49775162Y43900586D01*
X49714781Y44046358D01*
X49684000Y44201107D01*
X49684000Y44358893D01*
X49714781Y44513642D01*
X49775162Y44659414D01*
X49775163Y44659416D01*
X49862822Y44790608D01*
X49974392Y44902178D01*
X50105584Y44989837D01*
X50105586Y44989838D01*
X50251358Y45050219D01*
X50406107Y45081000D01*
X50563893Y45081000D01*
X50718642Y45050219D01*
G37*
G36*
X48178642Y45050219D02*
G01*
X48324414Y44989838D01*
X48324416Y44989837D01*
X48455608Y44902178D01*
X48567178Y44790608D01*
X48654837Y44659416D01*
X48654838Y44659414D01*
X48715219Y44513642D01*
X48746000Y44358893D01*
X48746000Y44201107D01*
X48715219Y44046358D01*
X48654838Y43900586D01*
X48654837Y43900584D01*
X48567178Y43769392D01*
X48455608Y43657822D01*
X48324416Y43570163D01*
X48324415Y43570162D01*
X48324414Y43570162D01*
X48178642Y43509781D01*
X48023893Y43479000D01*
X47866107Y43479000D01*
X47711358Y43509781D01*
X47565586Y43570162D01*
X47565585Y43570162D01*
X47565584Y43570163D01*
X47434392Y43657822D01*
X47322822Y43769392D01*
X47235163Y43900584D01*
X47235162Y43900586D01*
X47174781Y44046358D01*
X47144000Y44201107D01*
X47144000Y44358893D01*
X47174781Y44513642D01*
X47235162Y44659414D01*
X47235163Y44659416D01*
X47322822Y44790608D01*
X47434392Y44902178D01*
X47565584Y44989837D01*
X47565586Y44989838D01*
X47711358Y45050219D01*
X47866107Y45081000D01*
X48023893Y45081000D01*
X48178642Y45050219D01*
G37*
G36*
X45638642Y45050219D02*
G01*
X45784414Y44989838D01*
X45784416Y44989837D01*
X45915608Y44902178D01*
X46027178Y44790608D01*
X46114837Y44659416D01*
X46114838Y44659414D01*
X46175219Y44513642D01*
X46206000Y44358893D01*
X46206000Y44201107D01*
X46175219Y44046358D01*
X46114838Y43900586D01*
X46114837Y43900584D01*
X46027178Y43769392D01*
X45915608Y43657822D01*
X45784416Y43570163D01*
X45784415Y43570162D01*
X45784414Y43570162D01*
X45638642Y43509781D01*
X45483893Y43479000D01*
X45326107Y43479000D01*
X45171358Y43509781D01*
X45025586Y43570162D01*
X45025585Y43570162D01*
X45025584Y43570163D01*
X44894392Y43657822D01*
X44782822Y43769392D01*
X44695163Y43900584D01*
X44695162Y43900586D01*
X44634781Y44046358D01*
X44604000Y44201107D01*
X44604000Y44358893D01*
X44634781Y44513642D01*
X44695162Y44659414D01*
X44695163Y44659416D01*
X44782822Y44790608D01*
X44894392Y44902178D01*
X45025584Y44989837D01*
X45025586Y44989838D01*
X45171358Y45050219D01*
X45326107Y45081000D01*
X45483893Y45081000D01*
X45638642Y45050219D01*
G37*
G36*
X43098642Y45050219D02*
G01*
X43244414Y44989838D01*
X43244416Y44989837D01*
X43375608Y44902178D01*
X43487178Y44790608D01*
X43574837Y44659416D01*
X43574838Y44659414D01*
X43635219Y44513642D01*
X43666000Y44358893D01*
X43666000Y44201107D01*
X43635219Y44046358D01*
X43574838Y43900586D01*
X43574837Y43900584D01*
X43487178Y43769392D01*
X43375608Y43657822D01*
X43244416Y43570163D01*
X43244415Y43570162D01*
X43244414Y43570162D01*
X43098642Y43509781D01*
X42943893Y43479000D01*
X42786107Y43479000D01*
X42631358Y43509781D01*
X42485586Y43570162D01*
X42485585Y43570162D01*
X42485584Y43570163D01*
X42354392Y43657822D01*
X42242822Y43769392D01*
X42155163Y43900584D01*
X42155162Y43900586D01*
X42094781Y44046358D01*
X42064000Y44201107D01*
X42064000Y44358893D01*
X42094781Y44513642D01*
X42155162Y44659414D01*
X42155163Y44659416D01*
X42242822Y44790608D01*
X42354392Y44902178D01*
X42485584Y44989837D01*
X42485586Y44989838D01*
X42631358Y45050219D01*
X42786107Y45081000D01*
X42943893Y45081000D01*
X43098642Y45050219D01*
G37*
G36*
X60878642Y45050219D02*
G01*
X61024414Y44989838D01*
X61024416Y44989837D01*
X61155608Y44902178D01*
X61267178Y44790608D01*
X61354837Y44659416D01*
X61354838Y44659414D01*
X61415219Y44513642D01*
X61446000Y44358893D01*
X61446000Y44201107D01*
X61415219Y44046358D01*
X61354838Y43900586D01*
X61354837Y43900584D01*
X61267178Y43769392D01*
X61155608Y43657822D01*
X61024416Y43570163D01*
X61024415Y43570162D01*
X61024414Y43570162D01*
X60878642Y43509781D01*
X60723893Y43479000D01*
X60566107Y43479000D01*
X60411358Y43509781D01*
X60265586Y43570162D01*
X60265585Y43570162D01*
X60265584Y43570163D01*
X60134392Y43657822D01*
X60022822Y43769392D01*
X59935163Y43900584D01*
X59935162Y43900586D01*
X59874781Y44046358D01*
X59844000Y44201107D01*
X59844000Y44358893D01*
X59874781Y44513642D01*
X59935162Y44659414D01*
X59935163Y44659416D01*
X60022822Y44790608D01*
X60134392Y44902178D01*
X60265584Y44989837D01*
X60265586Y44989838D01*
X60411358Y45050219D01*
X60566107Y45081000D01*
X60723893Y45081000D01*
X60878642Y45050219D01*
G37*
G36*
X38018642Y45050219D02*
G01*
X38164414Y44989838D01*
X38164416Y44989837D01*
X38295608Y44902178D01*
X38407178Y44790608D01*
X38494837Y44659416D01*
X38494838Y44659414D01*
X38555219Y44513642D01*
X38586000Y44358893D01*
X38586000Y44201107D01*
X38555219Y44046358D01*
X38494838Y43900586D01*
X38494837Y43900584D01*
X38407178Y43769392D01*
X38295608Y43657822D01*
X38164416Y43570163D01*
X38164415Y43570162D01*
X38164414Y43570162D01*
X38018642Y43509781D01*
X37863893Y43479000D01*
X37706107Y43479000D01*
X37551358Y43509781D01*
X37405586Y43570162D01*
X37405585Y43570162D01*
X37405584Y43570163D01*
X37274392Y43657822D01*
X37162822Y43769392D01*
X37075163Y43900584D01*
X37075162Y43900586D01*
X37014781Y44046358D01*
X36984000Y44201107D01*
X36984000Y44358893D01*
X37014781Y44513642D01*
X37075162Y44659414D01*
X37075163Y44659416D01*
X37162822Y44790608D01*
X37274392Y44902178D01*
X37405584Y44989837D01*
X37405586Y44989838D01*
X37551358Y45050219D01*
X37706107Y45081000D01*
X37863893Y45081000D01*
X38018642Y45050219D01*
G37*
G36*
X35478642Y45050219D02*
G01*
X35624414Y44989838D01*
X35624416Y44989837D01*
X35755608Y44902178D01*
X35867178Y44790608D01*
X35954837Y44659416D01*
X35954838Y44659414D01*
X36015219Y44513642D01*
X36046000Y44358893D01*
X36046000Y44201107D01*
X36015219Y44046358D01*
X35954838Y43900586D01*
X35954837Y43900584D01*
X35867178Y43769392D01*
X35755608Y43657822D01*
X35624416Y43570163D01*
X35624415Y43570162D01*
X35624414Y43570162D01*
X35478642Y43509781D01*
X35323893Y43479000D01*
X35166107Y43479000D01*
X35011358Y43509781D01*
X34865586Y43570162D01*
X34865585Y43570162D01*
X34865584Y43570163D01*
X34734392Y43657822D01*
X34622822Y43769392D01*
X34535163Y43900584D01*
X34535162Y43900586D01*
X34474781Y44046358D01*
X34444000Y44201107D01*
X34444000Y44358893D01*
X34474781Y44513642D01*
X34535162Y44659414D01*
X34535163Y44659416D01*
X34622822Y44790608D01*
X34734392Y44902178D01*
X34865584Y44989837D01*
X34865586Y44989838D01*
X35011358Y45050219D01*
X35166107Y45081000D01*
X35323893Y45081000D01*
X35478642Y45050219D01*
G37*
G36*
X30398642Y45050219D02*
G01*
X30544414Y44989838D01*
X30544416Y44989837D01*
X30675608Y44902178D01*
X30787178Y44790608D01*
X30874837Y44659416D01*
X30874838Y44659414D01*
X30935219Y44513642D01*
X30966000Y44358893D01*
X30966000Y44201107D01*
X30935219Y44046358D01*
X30874838Y43900586D01*
X30874837Y43900584D01*
X30787178Y43769392D01*
X30675608Y43657822D01*
X30544416Y43570163D01*
X30544415Y43570162D01*
X30544414Y43570162D01*
X30398642Y43509781D01*
X30243893Y43479000D01*
X30086107Y43479000D01*
X29931358Y43509781D01*
X29785586Y43570162D01*
X29785585Y43570162D01*
X29785584Y43570163D01*
X29654392Y43657822D01*
X29542822Y43769392D01*
X29455163Y43900584D01*
X29455162Y43900586D01*
X29394781Y44046358D01*
X29364000Y44201107D01*
X29364000Y44358893D01*
X29394781Y44513642D01*
X29455162Y44659414D01*
X29455163Y44659416D01*
X29542822Y44790608D01*
X29654392Y44902178D01*
X29785584Y44989837D01*
X29785586Y44989838D01*
X29931358Y45050219D01*
X30086107Y45081000D01*
X30243893Y45081000D01*
X30398642Y45050219D01*
G37*
G36*
X27858642Y45050219D02*
G01*
X28004414Y44989838D01*
X28004416Y44989837D01*
X28135608Y44902178D01*
X28247178Y44790608D01*
X28334837Y44659416D01*
X28334838Y44659414D01*
X28395219Y44513642D01*
X28426000Y44358893D01*
X28426000Y44201107D01*
X28395219Y44046358D01*
X28334838Y43900586D01*
X28334837Y43900584D01*
X28247178Y43769392D01*
X28135608Y43657822D01*
X28004416Y43570163D01*
X28004415Y43570162D01*
X28004414Y43570162D01*
X27858642Y43509781D01*
X27703893Y43479000D01*
X27546107Y43479000D01*
X27391358Y43509781D01*
X27245586Y43570162D01*
X27245585Y43570162D01*
X27245584Y43570163D01*
X27114392Y43657822D01*
X27002822Y43769392D01*
X26915163Y43900584D01*
X26915162Y43900586D01*
X26854781Y44046358D01*
X26824000Y44201107D01*
X26824000Y44358893D01*
X26854781Y44513642D01*
X26915162Y44659414D01*
X26915163Y44659416D01*
X27002822Y44790608D01*
X27114392Y44902178D01*
X27245584Y44989837D01*
X27245586Y44989838D01*
X27391358Y45050219D01*
X27546107Y45081000D01*
X27703893Y45081000D01*
X27858642Y45050219D01*
G37*
G36*
X25318642Y45050219D02*
G01*
X25464414Y44989838D01*
X25464416Y44989837D01*
X25595608Y44902178D01*
X25707178Y44790608D01*
X25794837Y44659416D01*
X25794838Y44659414D01*
X25855219Y44513642D01*
X25886000Y44358893D01*
X25886000Y44201107D01*
X25855219Y44046358D01*
X25794838Y43900586D01*
X25794837Y43900584D01*
X25707178Y43769392D01*
X25595608Y43657822D01*
X25464416Y43570163D01*
X25464415Y43570162D01*
X25464414Y43570162D01*
X25318642Y43509781D01*
X25163893Y43479000D01*
X25006107Y43479000D01*
X24851358Y43509781D01*
X24705586Y43570162D01*
X24705585Y43570162D01*
X24705584Y43570163D01*
X24574392Y43657822D01*
X24462822Y43769392D01*
X24375163Y43900584D01*
X24375162Y43900586D01*
X24314781Y44046358D01*
X24284000Y44201107D01*
X24284000Y44358893D01*
X24314781Y44513642D01*
X24375162Y44659414D01*
X24375163Y44659416D01*
X24462822Y44790608D01*
X24574392Y44902178D01*
X24705584Y44989837D01*
X24705586Y44989838D01*
X24851358Y45050219D01*
X25006107Y45081000D01*
X25163893Y45081000D01*
X25318642Y45050219D01*
G37*
G36*
X53258642Y45050219D02*
G01*
X53404414Y44989838D01*
X53404416Y44989837D01*
X53535608Y44902178D01*
X53647178Y44790608D01*
X53734837Y44659416D01*
X53734838Y44659414D01*
X53795219Y44513642D01*
X53826000Y44358893D01*
X53826000Y44201107D01*
X53795219Y44046358D01*
X53734838Y43900586D01*
X53734837Y43900584D01*
X53647178Y43769392D01*
X53535608Y43657822D01*
X53404416Y43570163D01*
X53404415Y43570162D01*
X53404414Y43570162D01*
X53258642Y43509781D01*
X53103893Y43479000D01*
X52946107Y43479000D01*
X52791358Y43509781D01*
X52645586Y43570162D01*
X52645585Y43570162D01*
X52645584Y43570163D01*
X52514392Y43657822D01*
X52402822Y43769392D01*
X52315163Y43900584D01*
X52315162Y43900586D01*
X52254781Y44046358D01*
X52224000Y44201107D01*
X52224000Y44358893D01*
X52254781Y44513642D01*
X52315162Y44659414D01*
X52315163Y44659416D01*
X52402822Y44790608D01*
X52514392Y44902178D01*
X52645584Y44989837D01*
X52645586Y44989838D01*
X52791358Y45050219D01*
X52946107Y45081000D01*
X53103893Y45081000D01*
X53258642Y45050219D01*
G37*
G36*
X20238642Y45050219D02*
G01*
X20384414Y44989838D01*
X20384416Y44989837D01*
X20515608Y44902178D01*
X20627178Y44790608D01*
X20714837Y44659416D01*
X20714838Y44659414D01*
X20775219Y44513642D01*
X20806000Y44358893D01*
X20806000Y44201107D01*
X20775219Y44046358D01*
X20714838Y43900586D01*
X20714837Y43900584D01*
X20627178Y43769392D01*
X20515608Y43657822D01*
X20384416Y43570163D01*
X20384415Y43570162D01*
X20384414Y43570162D01*
X20238642Y43509781D01*
X20083893Y43479000D01*
X19926107Y43479000D01*
X19771358Y43509781D01*
X19625586Y43570162D01*
X19625585Y43570162D01*
X19625584Y43570163D01*
X19494392Y43657822D01*
X19382822Y43769392D01*
X19295163Y43900584D01*
X19295162Y43900586D01*
X19234781Y44046358D01*
X19204000Y44201107D01*
X19204000Y44358893D01*
X19234781Y44513642D01*
X19295162Y44659414D01*
X19295163Y44659416D01*
X19382822Y44790608D01*
X19494392Y44902178D01*
X19625584Y44989837D01*
X19625586Y44989838D01*
X19771358Y45050219D01*
X19926107Y45081000D01*
X20083893Y45081000D01*
X20238642Y45050219D01*
G37*
G36*
X40558642Y45050219D02*
G01*
X40704414Y44989838D01*
X40704416Y44989837D01*
X40835608Y44902178D01*
X40947178Y44790608D01*
X41034837Y44659416D01*
X41034838Y44659414D01*
X41095219Y44513642D01*
X41126000Y44358893D01*
X41126000Y44201107D01*
X41095219Y44046358D01*
X41034838Y43900586D01*
X41034837Y43900584D01*
X40947178Y43769392D01*
X40835608Y43657822D01*
X40704416Y43570163D01*
X40704415Y43570162D01*
X40704414Y43570162D01*
X40558642Y43509781D01*
X40403893Y43479000D01*
X40246107Y43479000D01*
X40091358Y43509781D01*
X39945586Y43570162D01*
X39945585Y43570162D01*
X39945584Y43570163D01*
X39814392Y43657822D01*
X39702822Y43769392D01*
X39615163Y43900584D01*
X39615162Y43900586D01*
X39554781Y44046358D01*
X39524000Y44201107D01*
X39524000Y44358893D01*
X39554781Y44513642D01*
X39615162Y44659414D01*
X39615163Y44659416D01*
X39702822Y44790608D01*
X39814392Y44902178D01*
X39945584Y44989837D01*
X39945586Y44989838D01*
X40091358Y45050219D01*
X40246107Y45081000D01*
X40403893Y45081000D01*
X40558642Y45050219D01*
G37*
G36*
X63418642Y45050219D02*
G01*
X63564414Y44989838D01*
X63564416Y44989837D01*
X63695608Y44902178D01*
X63807178Y44790608D01*
X63894837Y44659416D01*
X63894838Y44659414D01*
X63955219Y44513642D01*
X63986000Y44358893D01*
X63986000Y44201107D01*
X63955219Y44046358D01*
X63894838Y43900586D01*
X63894837Y43900584D01*
X63807178Y43769392D01*
X63695608Y43657822D01*
X63564416Y43570163D01*
X63564415Y43570162D01*
X63564414Y43570162D01*
X63418642Y43509781D01*
X63263893Y43479000D01*
X63106107Y43479000D01*
X62951358Y43509781D01*
X62805586Y43570162D01*
X62805585Y43570162D01*
X62805584Y43570163D01*
X62674392Y43657822D01*
X62562822Y43769392D01*
X62475163Y43900584D01*
X62475162Y43900586D01*
X62414781Y44046358D01*
X62384000Y44201107D01*
X62384000Y44358893D01*
X62414781Y44513642D01*
X62475162Y44659414D01*
X62475163Y44659416D01*
X62562822Y44790608D01*
X62674392Y44902178D01*
X62805584Y44989837D01*
X62805586Y44989838D01*
X62951358Y45050219D01*
X63106107Y45081000D01*
X63263893Y45081000D01*
X63418642Y45050219D01*
G37*
G36*
X65958642Y45050219D02*
G01*
X66104414Y44989838D01*
X66104416Y44989837D01*
X66235608Y44902178D01*
X66347178Y44790608D01*
X66434837Y44659416D01*
X66434838Y44659414D01*
X66495219Y44513642D01*
X66526000Y44358893D01*
X66526000Y44201107D01*
X66495219Y44046358D01*
X66434838Y43900586D01*
X66434837Y43900584D01*
X66347178Y43769392D01*
X66235608Y43657822D01*
X66104416Y43570163D01*
X66104415Y43570162D01*
X66104414Y43570162D01*
X65958642Y43509781D01*
X65803893Y43479000D01*
X65646107Y43479000D01*
X65491358Y43509781D01*
X65345586Y43570162D01*
X65345585Y43570162D01*
X65345584Y43570163D01*
X65214392Y43657822D01*
X65102822Y43769392D01*
X65015163Y43900584D01*
X65015162Y43900586D01*
X64954781Y44046358D01*
X64924000Y44201107D01*
X64924000Y44358893D01*
X64954781Y44513642D01*
X65015162Y44659414D01*
X65015163Y44659416D01*
X65102822Y44790608D01*
X65214392Y44902178D01*
X65345584Y44989837D01*
X65345586Y44989838D01*
X65491358Y45050219D01*
X65646107Y45081000D01*
X65803893Y45081000D01*
X65958642Y45050219D01*
G37*
G36*
X32938642Y45050219D02*
G01*
X33084414Y44989838D01*
X33084416Y44989837D01*
X33215608Y44902178D01*
X33327178Y44790608D01*
X33414837Y44659416D01*
X33414838Y44659414D01*
X33475219Y44513642D01*
X33506000Y44358893D01*
X33506000Y44201107D01*
X33475219Y44046358D01*
X33414838Y43900586D01*
X33414837Y43900584D01*
X33327178Y43769392D01*
X33215608Y43657822D01*
X33084416Y43570163D01*
X33084415Y43570162D01*
X33084414Y43570162D01*
X32938642Y43509781D01*
X32783893Y43479000D01*
X32626107Y43479000D01*
X32471358Y43509781D01*
X32325586Y43570162D01*
X32325585Y43570162D01*
X32325584Y43570163D01*
X32194392Y43657822D01*
X32082822Y43769392D01*
X31995163Y43900584D01*
X31995162Y43900586D01*
X31934781Y44046358D01*
X31904000Y44201107D01*
X31904000Y44358893D01*
X31934781Y44513642D01*
X31995162Y44659414D01*
X31995163Y44659416D01*
X32082822Y44790608D01*
X32194392Y44902178D01*
X32325584Y44989837D01*
X32325586Y44989838D01*
X32471358Y45050219D01*
X32626107Y45081000D01*
X32783893Y45081000D01*
X32938642Y45050219D01*
G37*
G36*
X32953228Y48273297D02*
G01*
X33108100Y48209147D01*
X33247481Y48116015D01*
X33366015Y47997481D01*
X33459147Y47858100D01*
X33523297Y47703228D01*
X33556000Y47538816D01*
X33556000Y47371184D01*
X33523297Y47206772D01*
X33459147Y47051900D01*
X33366015Y46912519D01*
X33247481Y46793985D01*
X33108100Y46700853D01*
X32953228Y46636703D01*
X32788816Y46604000D01*
X32621184Y46604000D01*
X32456772Y46636703D01*
X32301900Y46700853D01*
X32162519Y46793985D01*
X32043985Y46912519D01*
X31950853Y47051900D01*
X31886703Y47206772D01*
X31854000Y47371184D01*
X31854000Y47538816D01*
X31886703Y47703228D01*
X31950853Y47858100D01*
X32043985Y47997481D01*
X32162519Y48116015D01*
X32301900Y48209147D01*
X32456772Y48273297D01*
X32621184Y48306000D01*
X32788816Y48306000D01*
X32953228Y48273297D01*
G37*
G36*
X22793228Y48273297D02*
G01*
X22948100Y48209147D01*
X23087481Y48116015D01*
X23206015Y47997481D01*
X23299147Y47858100D01*
X23363297Y47703228D01*
X23396000Y47538816D01*
X23396000Y47371184D01*
X23363297Y47206772D01*
X23299147Y47051900D01*
X23206015Y46912519D01*
X23087481Y46793985D01*
X22948100Y46700853D01*
X22793228Y46636703D01*
X22628816Y46604000D01*
X22461184Y46604000D01*
X22296772Y46636703D01*
X22141900Y46700853D01*
X22002519Y46793985D01*
X21883985Y46912519D01*
X21790853Y47051900D01*
X21726703Y47206772D01*
X21694000Y47371184D01*
X21694000Y47538816D01*
X21726703Y47703228D01*
X21790853Y47858100D01*
X21883985Y47997481D01*
X22002519Y48116015D01*
X22141900Y48209147D01*
X22296772Y48273297D01*
X22461184Y48306000D01*
X22628816Y48306000D01*
X22793228Y48273297D01*
G37*
G36*
X70418228Y50813297D02*
G01*
X70573100Y50749147D01*
X70712481Y50656015D01*
X70831015Y50537481D01*
X70924147Y50398100D01*
X70988297Y50243228D01*
X71021000Y50078816D01*
X71021000Y49911184D01*
X70988297Y49746772D01*
X70924147Y49591900D01*
X70831015Y49452519D01*
X70712481Y49333985D01*
X70573100Y49240853D01*
X70418228Y49176703D01*
X70253816Y49144000D01*
X70086184Y49144000D01*
X69921772Y49176703D01*
X69766900Y49240853D01*
X69627519Y49333985D01*
X69508985Y49452519D01*
X69415853Y49591900D01*
X69351703Y49746772D01*
X69319000Y49911184D01*
X69319000Y50078816D01*
X69351703Y50243228D01*
X69415853Y50398100D01*
X69508985Y50537481D01*
X69627519Y50656015D01*
X69766900Y50749147D01*
X69921772Y50813297D01*
X70086184Y50846000D01*
X70253816Y50846000D01*
X70418228Y50813297D01*
G37*
G36*
X80578228Y50813297D02*
G01*
X80733100Y50749147D01*
X80872481Y50656015D01*
X80991015Y50537481D01*
X81084147Y50398100D01*
X81148297Y50243228D01*
X81181000Y50078816D01*
X81181000Y49911184D01*
X81148297Y49746772D01*
X81084147Y49591900D01*
X80991015Y49452519D01*
X80872481Y49333985D01*
X80733100Y49240853D01*
X80578228Y49176703D01*
X80413816Y49144000D01*
X80246184Y49144000D01*
X80081772Y49176703D01*
X79926900Y49240853D01*
X79787519Y49333985D01*
X79668985Y49452519D01*
X79575853Y49591900D01*
X79511703Y49746772D01*
X79479000Y49911184D01*
X79479000Y50078816D01*
X79511703Y50243228D01*
X79575853Y50398100D01*
X79668985Y50537481D01*
X79787519Y50656015D01*
X79926900Y50749147D01*
X80081772Y50813297D01*
X80246184Y50846000D01*
X80413816Y50846000D01*
X80578228Y50813297D01*
G37*
G36*
X32953228Y51448297D02*
G01*
X33108100Y51384147D01*
X33247481Y51291015D01*
X33366015Y51172481D01*
X33459147Y51033100D01*
X33523297Y50878228D01*
X33556000Y50713816D01*
X33556000Y50546184D01*
X33523297Y50381772D01*
X33459147Y50226900D01*
X33366015Y50087519D01*
X33247481Y49968985D01*
X33108100Y49875853D01*
X32953228Y49811703D01*
X32788816Y49779000D01*
X32621184Y49779000D01*
X32456772Y49811703D01*
X32301900Y49875853D01*
X32162519Y49968985D01*
X32043985Y50087519D01*
X31950853Y50226900D01*
X31886703Y50381772D01*
X31854000Y50546184D01*
X31854000Y50713816D01*
X31886703Y50878228D01*
X31950853Y51033100D01*
X32043985Y51172481D01*
X32162519Y51291015D01*
X32301900Y51384147D01*
X32456772Y51448297D01*
X32621184Y51481000D01*
X32788816Y51481000D01*
X32953228Y51448297D01*
G37*
G36*
X22793228Y51448297D02*
G01*
X22948100Y51384147D01*
X23087481Y51291015D01*
X23206015Y51172481D01*
X23299147Y51033100D01*
X23363297Y50878228D01*
X23396000Y50713816D01*
X23396000Y50546184D01*
X23363297Y50381772D01*
X23299147Y50226900D01*
X23206015Y50087519D01*
X23087481Y49968985D01*
X22948100Y49875853D01*
X22793228Y49811703D01*
X22628816Y49779000D01*
X22461184Y49779000D01*
X22296772Y49811703D01*
X22141900Y49875853D01*
X22002519Y49968985D01*
X21883985Y50087519D01*
X21790853Y50226900D01*
X21726703Y50381772D01*
X21694000Y50546184D01*
X21694000Y50713816D01*
X21726703Y50878228D01*
X21790853Y51033100D01*
X21883985Y51172481D01*
X22002519Y51291015D01*
X22141900Y51384147D01*
X22296772Y51448297D01*
X22461184Y51481000D01*
X22628816Y51481000D01*
X22793228Y51448297D01*
G37*
G36*
X53908228Y55893297D02*
G01*
X54063100Y55829147D01*
X54202481Y55736015D01*
X54321015Y55617481D01*
X54414147Y55478100D01*
X54478297Y55323228D01*
X54511000Y55158816D01*
X54511000Y54991184D01*
X54478297Y54826772D01*
X54414147Y54671900D01*
X54321015Y54532519D01*
X54202481Y54413985D01*
X54063100Y54320853D01*
X53908228Y54256703D01*
X53743816Y54224000D01*
X53576184Y54224000D01*
X53411772Y54256703D01*
X53256900Y54320853D01*
X53117519Y54413985D01*
X52998985Y54532519D01*
X52905853Y54671900D01*
X52841703Y54826772D01*
X52809000Y54991184D01*
X52809000Y55158816D01*
X52841703Y55323228D01*
X52905853Y55478100D01*
X52998985Y55617481D01*
X53117519Y55736015D01*
X53256900Y55829147D01*
X53411772Y55893297D01*
X53576184Y55926000D01*
X53743816Y55926000D01*
X53908228Y55893297D01*
G37*
G36*
X62163228Y55893297D02*
G01*
X62318100Y55829147D01*
X62457481Y55736015D01*
X62576015Y55617481D01*
X62669147Y55478100D01*
X62733297Y55323228D01*
X62766000Y55158816D01*
X62766000Y54991184D01*
X62733297Y54826772D01*
X62669147Y54671900D01*
X62576015Y54532519D01*
X62457481Y54413985D01*
X62318100Y54320853D01*
X62163228Y54256703D01*
X61998816Y54224000D01*
X61831184Y54224000D01*
X61666772Y54256703D01*
X61511900Y54320853D01*
X61372519Y54413985D01*
X61253985Y54532519D01*
X61160853Y54671900D01*
X61096703Y54826772D01*
X61064000Y54991184D01*
X61064000Y55158816D01*
X61096703Y55323228D01*
X61160853Y55478100D01*
X61253985Y55617481D01*
X61372519Y55736015D01*
X61511900Y55829147D01*
X61666772Y55893297D01*
X61831184Y55926000D01*
X61998816Y55926000D01*
X62163228Y55893297D01*
G37*
G36*
X51368228Y55893297D02*
G01*
X51523100Y55829147D01*
X51662481Y55736015D01*
X51781015Y55617481D01*
X51874147Y55478100D01*
X51938297Y55323228D01*
X51971000Y55158816D01*
X51971000Y54991184D01*
X51938297Y54826772D01*
X51874147Y54671900D01*
X51781015Y54532519D01*
X51662481Y54413985D01*
X51523100Y54320853D01*
X51368228Y54256703D01*
X51203816Y54224000D01*
X51036184Y54224000D01*
X50871772Y54256703D01*
X50716900Y54320853D01*
X50577519Y54413985D01*
X50458985Y54532519D01*
X50365853Y54671900D01*
X50301703Y54826772D01*
X50269000Y54991184D01*
X50269000Y55158816D01*
X50301703Y55323228D01*
X50365853Y55478100D01*
X50458985Y55617481D01*
X50577519Y55736015D01*
X50716900Y55829147D01*
X50871772Y55893297D01*
X51036184Y55926000D01*
X51203816Y55926000D01*
X51368228Y55893297D01*
G37*
G36*
X48828228Y55893297D02*
G01*
X48983100Y55829147D01*
X49122481Y55736015D01*
X49241015Y55617481D01*
X49334147Y55478100D01*
X49398297Y55323228D01*
X49431000Y55158816D01*
X49431000Y54991184D01*
X49398297Y54826772D01*
X49334147Y54671900D01*
X49241015Y54532519D01*
X49122481Y54413985D01*
X48983100Y54320853D01*
X48828228Y54256703D01*
X48663816Y54224000D01*
X48496184Y54224000D01*
X48331772Y54256703D01*
X48176900Y54320853D01*
X48037519Y54413985D01*
X47918985Y54532519D01*
X47825853Y54671900D01*
X47761703Y54826772D01*
X47729000Y54991184D01*
X47729000Y55158816D01*
X47761703Y55323228D01*
X47825853Y55478100D01*
X47918985Y55617481D01*
X48037519Y55736015D01*
X48176900Y55829147D01*
X48331772Y55893297D01*
X48496184Y55926000D01*
X48663816Y55926000D01*
X48828228Y55893297D01*
G37*
G36*
X46288228Y55893297D02*
G01*
X46443100Y55829147D01*
X46582481Y55736015D01*
X46701015Y55617481D01*
X46794147Y55478100D01*
X46858297Y55323228D01*
X46891000Y55158816D01*
X46891000Y54991184D01*
X46858297Y54826772D01*
X46794147Y54671900D01*
X46701015Y54532519D01*
X46582481Y54413985D01*
X46443100Y54320853D01*
X46288228Y54256703D01*
X46123816Y54224000D01*
X45956184Y54224000D01*
X45791772Y54256703D01*
X45636900Y54320853D01*
X45497519Y54413985D01*
X45378985Y54532519D01*
X45285853Y54671900D01*
X45221703Y54826772D01*
X45189000Y54991184D01*
X45189000Y55158816D01*
X45221703Y55323228D01*
X45285853Y55478100D01*
X45378985Y55617481D01*
X45497519Y55736015D01*
X45636900Y55829147D01*
X45791772Y55893297D01*
X45956184Y55926000D01*
X46123816Y55926000D01*
X46288228Y55893297D01*
G37*
G36*
X41208228Y55893297D02*
G01*
X41363100Y55829147D01*
X41502481Y55736015D01*
X41621015Y55617481D01*
X41714147Y55478100D01*
X41778297Y55323228D01*
X41811000Y55158816D01*
X41811000Y54991184D01*
X41778297Y54826772D01*
X41714147Y54671900D01*
X41621015Y54532519D01*
X41502481Y54413985D01*
X41363100Y54320853D01*
X41208228Y54256703D01*
X41043816Y54224000D01*
X40876184Y54224000D01*
X40711772Y54256703D01*
X40556900Y54320853D01*
X40417519Y54413985D01*
X40298985Y54532519D01*
X40205853Y54671900D01*
X40141703Y54826772D01*
X40109000Y54991184D01*
X40109000Y55158816D01*
X40141703Y55323228D01*
X40205853Y55478100D01*
X40298985Y55617481D01*
X40417519Y55736015D01*
X40556900Y55829147D01*
X40711772Y55893297D01*
X40876184Y55926000D01*
X41043816Y55926000D01*
X41208228Y55893297D01*
G37*
G36*
X58988228Y55893297D02*
G01*
X59143100Y55829147D01*
X59282481Y55736015D01*
X59401015Y55617481D01*
X59494147Y55478100D01*
X59558297Y55323228D01*
X59591000Y55158816D01*
X59591000Y54991184D01*
X59558297Y54826772D01*
X59494147Y54671900D01*
X59401015Y54532519D01*
X59282481Y54413985D01*
X59143100Y54320853D01*
X58988228Y54256703D01*
X58823816Y54224000D01*
X58656184Y54224000D01*
X58491772Y54256703D01*
X58336900Y54320853D01*
X58197519Y54413985D01*
X58078985Y54532519D01*
X57985853Y54671900D01*
X57921703Y54826772D01*
X57889000Y54991184D01*
X57889000Y55158816D01*
X57921703Y55323228D01*
X57985853Y55478100D01*
X58078985Y55617481D01*
X58197519Y55736015D01*
X58336900Y55829147D01*
X58491772Y55893297D01*
X58656184Y55926000D01*
X58823816Y55926000D01*
X58988228Y55893297D01*
G37*
G36*
X37398228Y55893297D02*
G01*
X37553100Y55829147D01*
X37692481Y55736015D01*
X37811015Y55617481D01*
X37904147Y55478100D01*
X37968297Y55323228D01*
X38001000Y55158816D01*
X38001000Y54991184D01*
X37968297Y54826772D01*
X37904147Y54671900D01*
X37811015Y54532519D01*
X37692481Y54413985D01*
X37553100Y54320853D01*
X37398228Y54256703D01*
X37233816Y54224000D01*
X37066184Y54224000D01*
X36901772Y54256703D01*
X36746900Y54320853D01*
X36607519Y54413985D01*
X36488985Y54532519D01*
X36395853Y54671900D01*
X36331703Y54826772D01*
X36299000Y54991184D01*
X36299000Y55158816D01*
X36331703Y55323228D01*
X36395853Y55478100D01*
X36488985Y55617481D01*
X36607519Y55736015D01*
X36746900Y55829147D01*
X36901772Y55893297D01*
X37066184Y55926000D01*
X37233816Y55926000D01*
X37398228Y55893297D01*
G37*
G36*
X56448228Y55893297D02*
G01*
X56603100Y55829147D01*
X56742481Y55736015D01*
X56861015Y55617481D01*
X56954147Y55478100D01*
X57018297Y55323228D01*
X57051000Y55158816D01*
X57051000Y54991184D01*
X57018297Y54826772D01*
X56954147Y54671900D01*
X56861015Y54532519D01*
X56742481Y54413985D01*
X56603100Y54320853D01*
X56448228Y54256703D01*
X56283816Y54224000D01*
X56116184Y54224000D01*
X55951772Y54256703D01*
X55796900Y54320853D01*
X55657519Y54413985D01*
X55538985Y54532519D01*
X55445853Y54671900D01*
X55381703Y54826772D01*
X55349000Y54991184D01*
X55349000Y55158816D01*
X55381703Y55323228D01*
X55445853Y55478100D01*
X55538985Y55617481D01*
X55657519Y55736015D01*
X55796900Y55829147D01*
X55951772Y55893297D01*
X56116184Y55926000D01*
X56283816Y55926000D01*
X56448228Y55893297D01*
G37*
G36*
X43748228Y55893297D02*
G01*
X43903100Y55829147D01*
X44042481Y55736015D01*
X44161015Y55617481D01*
X44254147Y55478100D01*
X44318297Y55323228D01*
X44351000Y55158816D01*
X44351000Y54991184D01*
X44318297Y54826772D01*
X44254147Y54671900D01*
X44161015Y54532519D01*
X44042481Y54413985D01*
X43903100Y54320853D01*
X43748228Y54256703D01*
X43583816Y54224000D01*
X43416184Y54224000D01*
X43251772Y54256703D01*
X43096900Y54320853D01*
X42957519Y54413985D01*
X42838985Y54532519D01*
X42745853Y54671900D01*
X42681703Y54826772D01*
X42649000Y54991184D01*
X42649000Y55158816D01*
X42681703Y55323228D01*
X42745853Y55478100D01*
X42838985Y55617481D01*
X42957519Y55736015D01*
X43096900Y55829147D01*
X43251772Y55893297D01*
X43416184Y55926000D01*
X43583816Y55926000D01*
X43748228Y55893297D01*
G37*
G36*
X80442916Y55867666D02*
G01*
X80551492Y55834729D01*
X80551495Y55834728D01*
X80587601Y55815429D01*
X80651557Y55781244D01*
X80739264Y55709264D01*
X80802383Y55632354D01*
X80819702Y55615035D01*
X80840077Y55601421D01*
X80862716Y55592043D01*
X80886749Y55587263D01*
X80911253Y55587263D01*
X80935286Y55592043D01*
X80957925Y55601421D01*
X80978299Y55615034D01*
X80995626Y55632361D01*
X81009240Y55652736D01*
X81018618Y55675375D01*
X81023398Y55699408D01*
X81024000Y55711660D01*
X81024000Y55876000D01*
X82176000Y55876000D01*
X82176000Y54274000D01*
X81024000Y54274000D01*
X81024000Y54438340D01*
X81021598Y54462726D01*
X81014485Y54486175D01*
X81002934Y54507786D01*
X80987389Y54526728D01*
X80968447Y54542273D01*
X80946836Y54553824D01*
X80923387Y54560937D01*
X80899001Y54563339D01*
X80874615Y54560937D01*
X80851166Y54553824D01*
X80829555Y54542273D01*
X80802381Y54517644D01*
X80739264Y54440736D01*
X80651556Y54368756D01*
X80587600Y54334571D01*
X80551494Y54315272D01*
X80551491Y54315271D01*
X80442915Y54282334D01*
X80330000Y54271213D01*
X80217084Y54282334D01*
X80108508Y54315271D01*
X80108505Y54315272D01*
X80072399Y54334571D01*
X80008443Y54368756D01*
X79920736Y54440736D01*
X79848756Y54528444D01*
X79805239Y54609860D01*
X79791625Y54630234D01*
X79774298Y54647561D01*
X79753924Y54661175D01*
X79731285Y54670552D01*
X79707251Y54675332D01*
X79682747Y54675332D01*
X79658714Y54670551D01*
X79636075Y54661174D01*
X79615701Y54647560D01*
X79598374Y54630233D01*
X79584762Y54609860D01*
X79541244Y54528443D01*
X79469264Y54440736D01*
X79381556Y54368756D01*
X79317600Y54334571D01*
X79281494Y54315272D01*
X79281491Y54315271D01*
X79172915Y54282334D01*
X79060000Y54271213D01*
X78947084Y54282334D01*
X78838508Y54315271D01*
X78838505Y54315272D01*
X78802399Y54334571D01*
X78738443Y54368756D01*
X78650736Y54440736D01*
X78578756Y54528444D01*
X78535239Y54609860D01*
X78525272Y54628506D01*
X78519492Y54647560D01*
X78492334Y54737085D01*
X78484000Y54821703D01*
X78484000Y55328298D01*
X78492334Y55412916D01*
X78525271Y55521492D01*
X78525272Y55521495D01*
X78578756Y55621555D01*
X78578757Y55621557D01*
X78650737Y55709264D01*
X78738444Y55781244D01*
X78802400Y55815429D01*
X78838506Y55834728D01*
X78838509Y55834729D01*
X78947085Y55867666D01*
X79060000Y55878787D01*
X79172916Y55867666D01*
X79281492Y55834729D01*
X79281495Y55834728D01*
X79317601Y55815429D01*
X79381557Y55781244D01*
X79469264Y55709264D01*
X79541244Y55621557D01*
X79557019Y55592043D01*
X79584761Y55540141D01*
X79598375Y55519766D01*
X79615702Y55502439D01*
X79636076Y55488826D01*
X79658715Y55479448D01*
X79682748Y55474668D01*
X79707252Y55474668D01*
X79731285Y55479448D01*
X79753924Y55488826D01*
X79774299Y55502440D01*
X79791626Y55519767D01*
X79805239Y55540141D01*
X79848756Y55621555D01*
X79848757Y55621557D01*
X79920737Y55709264D01*
X80008444Y55781244D01*
X80072400Y55815429D01*
X80108506Y55834728D01*
X80108509Y55834729D01*
X80217085Y55867666D01*
X80330000Y55878787D01*
X80442916Y55867666D01*
G37*
G36*
X62163228Y60893297D02*
G01*
X62318100Y60829147D01*
X62457481Y60736015D01*
X62576015Y60617481D01*
X62669147Y60478100D01*
X62733297Y60323228D01*
X62766000Y60158816D01*
X62766000Y59991184D01*
X62733297Y59826772D01*
X62669147Y59671900D01*
X62576015Y59532519D01*
X62457481Y59413985D01*
X62318100Y59320853D01*
X62163228Y59256703D01*
X61998816Y59224000D01*
X61831184Y59224000D01*
X61666772Y59256703D01*
X61511900Y59320853D01*
X61372519Y59413985D01*
X61253985Y59532519D01*
X61160853Y59671900D01*
X61096703Y59826772D01*
X61064000Y59991184D01*
X61064000Y60158816D01*
X61096703Y60323228D01*
X61160853Y60478100D01*
X61253985Y60617481D01*
X61372519Y60736015D01*
X61511900Y60829147D01*
X61666772Y60893297D01*
X61831184Y60926000D01*
X61998816Y60926000D01*
X62163228Y60893297D01*
G37*
G36*
X76768228Y61608297D02*
G01*
X76923100Y61544147D01*
X77062481Y61451015D01*
X77181015Y61332481D01*
X77274147Y61193100D01*
X77338297Y61038228D01*
X77371000Y60873816D01*
X77371000Y60706184D01*
X77338297Y60541772D01*
X77274147Y60386900D01*
X77181015Y60247519D01*
X77062481Y60128985D01*
X76923100Y60035853D01*
X76768228Y59971703D01*
X76603816Y59939000D01*
X76436184Y59939000D01*
X76271772Y59971703D01*
X76116900Y60035853D01*
X75977519Y60128985D01*
X75858985Y60247519D01*
X75765853Y60386900D01*
X75701703Y60541772D01*
X75669000Y60706184D01*
X75669000Y60873816D01*
X75701703Y61038228D01*
X75765853Y61193100D01*
X75858985Y61332481D01*
X75977519Y61451015D01*
X76116900Y61544147D01*
X76271772Y61608297D01*
X76436184Y61641000D01*
X76603816Y61641000D01*
X76768228Y61608297D01*
G37*
G36*
X66608228Y61608297D02*
G01*
X66763100Y61544147D01*
X66902481Y61451015D01*
X67021015Y61332481D01*
X67114147Y61193100D01*
X67178297Y61038228D01*
X67211000Y60873816D01*
X67211000Y60706184D01*
X67178297Y60541772D01*
X67114147Y60386900D01*
X67021015Y60247519D01*
X66902481Y60128985D01*
X66763100Y60035853D01*
X66608228Y59971703D01*
X66443816Y59939000D01*
X66276184Y59939000D01*
X66111772Y59971703D01*
X65956900Y60035853D01*
X65817519Y60128985D01*
X65698985Y60247519D01*
X65605853Y60386900D01*
X65541703Y60541772D01*
X65509000Y60706184D01*
X65509000Y60873816D01*
X65541703Y61038228D01*
X65605853Y61193100D01*
X65698985Y61332481D01*
X65817519Y61451015D01*
X65956900Y61544147D01*
X66111772Y61608297D01*
X66276184Y61641000D01*
X66443816Y61641000D01*
X66608228Y61608297D01*
G37*
G36*
X5634239Y68188533D02*
G01*
X5948282Y68126066D01*
X6539926Y67880999D01*
X6831762Y67686000D01*
X7053311Y67537966D01*
X7072392Y67525216D01*
X7525216Y67072392D01*
X7880999Y66539926D01*
X8126066Y65948282D01*
X8147361Y65841225D01*
X8249316Y65328665D01*
X8251000Y65320196D01*
X8251000Y64679804D01*
X8126066Y64051718D01*
X7880999Y63460074D01*
X7525216Y62927608D01*
X7072392Y62474784D01*
X6539926Y62119001D01*
X5948282Y61873934D01*
X5634239Y61811467D01*
X5320197Y61749000D01*
X4679803Y61749000D01*
X4365761Y61811467D01*
X4051718Y61873934D01*
X3460074Y62119001D01*
X2927608Y62474784D01*
X2474784Y62927608D01*
X2119001Y63460074D01*
X1873934Y64051718D01*
X1749000Y64679804D01*
X1749000Y65320196D01*
X1750685Y65328665D01*
X1852639Y65841225D01*
X1873934Y65948282D01*
X2119001Y66539926D01*
X2474784Y67072392D01*
X2927608Y67525216D01*
X2946690Y67537966D01*
X3168238Y67686000D01*
X3460074Y67880999D01*
X4051718Y68126066D01*
X4365761Y68188533D01*
X4679803Y68251000D01*
X5320197Y68251000D01*
X5634239Y68188533D01*
G37*
G36*
X95634239Y68188533D02*
G01*
X95948282Y68126066D01*
X96539926Y67880999D01*
X96831762Y67686000D01*
X97053311Y67537966D01*
X97072392Y67525216D01*
X97525216Y67072392D01*
X97880999Y66539926D01*
X98126066Y65948282D01*
X98147361Y65841225D01*
X98249316Y65328665D01*
X98251000Y65320196D01*
X98251000Y64679804D01*
X98126066Y64051718D01*
X97880999Y63460074D01*
X97525216Y62927608D01*
X97072392Y62474784D01*
X96539926Y62119001D01*
X95948282Y61873934D01*
X95634239Y61811467D01*
X95320197Y61749000D01*
X94679803Y61749000D01*
X94365761Y61811467D01*
X94051718Y61873934D01*
X93460074Y62119001D01*
X92927608Y62474784D01*
X92474784Y62927608D01*
X92119001Y63460074D01*
X91873934Y64051718D01*
X91749000Y64679804D01*
X91749000Y65320196D01*
X91750685Y65328665D01*
X91852639Y65841225D01*
X91873934Y65948282D01*
X92119001Y66539926D01*
X92474784Y67072392D01*
X92927608Y67525216D01*
X92946690Y67537966D01*
X93168238Y67686000D01*
X93460074Y67880999D01*
X94051718Y68126066D01*
X94365761Y68188533D01*
X94679803Y68251000D01*
X95320197Y68251000D01*
X95634239Y68188533D01*
G37*
G36*
X51368228Y63513297D02*
G01*
X51523100Y63449147D01*
X51662481Y63356015D01*
X51781015Y63237481D01*
X51874147Y63098100D01*
X51938297Y62943228D01*
X51971000Y62778816D01*
X51971000Y62611184D01*
X51938297Y62446772D01*
X51874147Y62291900D01*
X51781015Y62152519D01*
X51662481Y62033985D01*
X51523100Y61940853D01*
X51368228Y61876703D01*
X51203816Y61844000D01*
X51036184Y61844000D01*
X50871772Y61876703D01*
X50716900Y61940853D01*
X50577519Y62033985D01*
X50458985Y62152519D01*
X50365853Y62291900D01*
X50301703Y62446772D01*
X50269000Y62611184D01*
X50269000Y62778816D01*
X50301703Y62943228D01*
X50365853Y63098100D01*
X50458985Y63237481D01*
X50577519Y63356015D01*
X50716900Y63449147D01*
X50871772Y63513297D01*
X51036184Y63546000D01*
X51203816Y63546000D01*
X51368228Y63513297D01*
G37*
G36*
X48828228Y63513297D02*
G01*
X48983100Y63449147D01*
X49122481Y63356015D01*
X49241015Y63237481D01*
X49334147Y63098100D01*
X49398297Y62943228D01*
X49431000Y62778816D01*
X49431000Y62611184D01*
X49398297Y62446772D01*
X49334147Y62291900D01*
X49241015Y62152519D01*
X49122481Y62033985D01*
X48983100Y61940853D01*
X48828228Y61876703D01*
X48663816Y61844000D01*
X48496184Y61844000D01*
X48331772Y61876703D01*
X48176900Y61940853D01*
X48037519Y62033985D01*
X47918985Y62152519D01*
X47825853Y62291900D01*
X47761703Y62446772D01*
X47729000Y62611184D01*
X47729000Y62778816D01*
X47761703Y62943228D01*
X47825853Y63098100D01*
X47918985Y63237481D01*
X48037519Y63356015D01*
X48176900Y63449147D01*
X48331772Y63513297D01*
X48496184Y63546000D01*
X48663816Y63546000D01*
X48828228Y63513297D01*
G37*
G36*
X53908228Y63513297D02*
G01*
X54063100Y63449147D01*
X54202481Y63356015D01*
X54321015Y63237481D01*
X54414147Y63098100D01*
X54478297Y62943228D01*
X54511000Y62778816D01*
X54511000Y62611184D01*
X54478297Y62446772D01*
X54414147Y62291900D01*
X54321015Y62152519D01*
X54202481Y62033985D01*
X54063100Y61940853D01*
X53908228Y61876703D01*
X53743816Y61844000D01*
X53576184Y61844000D01*
X53411772Y61876703D01*
X53256900Y61940853D01*
X53117519Y62033985D01*
X52998985Y62152519D01*
X52905853Y62291900D01*
X52841703Y62446772D01*
X52809000Y62611184D01*
X52809000Y62778816D01*
X52841703Y62943228D01*
X52905853Y63098100D01*
X52998985Y63237481D01*
X53117519Y63356015D01*
X53256900Y63449147D01*
X53411772Y63513297D01*
X53576184Y63546000D01*
X53743816Y63546000D01*
X53908228Y63513297D01*
G37*
G36*
X43748228Y63513297D02*
G01*
X43903100Y63449147D01*
X44042481Y63356015D01*
X44161015Y63237481D01*
X44254147Y63098100D01*
X44318297Y62943228D01*
X44351000Y62778816D01*
X44351000Y62611184D01*
X44318297Y62446772D01*
X44254147Y62291900D01*
X44161015Y62152519D01*
X44042481Y62033985D01*
X43903100Y61940853D01*
X43748228Y61876703D01*
X43583816Y61844000D01*
X43416184Y61844000D01*
X43251772Y61876703D01*
X43096900Y61940853D01*
X42957519Y62033985D01*
X42838985Y62152519D01*
X42745853Y62291900D01*
X42681703Y62446772D01*
X42649000Y62611184D01*
X42649000Y62778816D01*
X42681703Y62943228D01*
X42745853Y63098100D01*
X42838985Y63237481D01*
X42957519Y63356015D01*
X43096900Y63449147D01*
X43251772Y63513297D01*
X43416184Y63546000D01*
X43583816Y63546000D01*
X43748228Y63513297D01*
G37*
G36*
X59591000Y61844000D02*
G01*
X57889000Y61844000D01*
X57889000Y63546000D01*
X59591000Y63546000D01*
X59591000Y61844000D01*
G37*
G36*
X46288228Y63513297D02*
G01*
X46443100Y63449147D01*
X46582481Y63356015D01*
X46701015Y63237481D01*
X46794147Y63098100D01*
X46858297Y62943228D01*
X46891000Y62778816D01*
X46891000Y62611184D01*
X46858297Y62446772D01*
X46794147Y62291900D01*
X46701015Y62152519D01*
X46582481Y62033985D01*
X46443100Y61940853D01*
X46288228Y61876703D01*
X46123816Y61844000D01*
X45956184Y61844000D01*
X45791772Y61876703D01*
X45636900Y61940853D01*
X45497519Y62033985D01*
X45378985Y62152519D01*
X45285853Y62291900D01*
X45221703Y62446772D01*
X45189000Y62611184D01*
X45189000Y62778816D01*
X45221703Y62943228D01*
X45285853Y63098100D01*
X45378985Y63237481D01*
X45497519Y63356015D01*
X45636900Y63449147D01*
X45791772Y63513297D01*
X45956184Y63546000D01*
X46123816Y63546000D01*
X46288228Y63513297D01*
G37*
G36*
X56448228Y63513297D02*
G01*
X56603100Y63449147D01*
X56742481Y63356015D01*
X56861015Y63237481D01*
X56954147Y63098100D01*
X57018297Y62943228D01*
X57051000Y62778816D01*
X57051000Y62611184D01*
X57018297Y62446772D01*
X56954147Y62291900D01*
X56861015Y62152519D01*
X56742481Y62033985D01*
X56603100Y61940853D01*
X56448228Y61876703D01*
X56283816Y61844000D01*
X56116184Y61844000D01*
X55951772Y61876703D01*
X55796900Y61940853D01*
X55657519Y62033985D01*
X55538985Y62152519D01*
X55445853Y62291900D01*
X55381703Y62446772D01*
X55349000Y62611184D01*
X55349000Y62778816D01*
X55381703Y62943228D01*
X55445853Y63098100D01*
X55538985Y63237481D01*
X55657519Y63356015D01*
X55796900Y63449147D01*
X55951772Y63513297D01*
X56116184Y63546000D01*
X56283816Y63546000D01*
X56448228Y63513297D01*
G37*
G36*
X41208228Y63513297D02*
G01*
X41363100Y63449147D01*
X41502481Y63356015D01*
X41621015Y63237481D01*
X41714147Y63098100D01*
X41778297Y62943228D01*
X41811000Y62778816D01*
X41811000Y62611184D01*
X41778297Y62446772D01*
X41714147Y62291900D01*
X41621015Y62152519D01*
X41502481Y62033985D01*
X41363100Y61940853D01*
X41208228Y61876703D01*
X41043816Y61844000D01*
X40876184Y61844000D01*
X40711772Y61876703D01*
X40556900Y61940853D01*
X40417519Y62033985D01*
X40298985Y62152519D01*
X40205853Y62291900D01*
X40141703Y62446772D01*
X40109000Y62611184D01*
X40109000Y62778816D01*
X40141703Y62943228D01*
X40205853Y63098100D01*
X40298985Y63237481D01*
X40417519Y63356015D01*
X40556900Y63449147D01*
X40711772Y63513297D01*
X40876184Y63546000D01*
X41043816Y63546000D01*
X41208228Y63513297D01*
G37*
G36*
X87690098Y67537967D02*
G01*
X88033641Y67395667D01*
X88154352Y67345667D01*
X88572168Y67066491D01*
X88927491Y66711168D01*
X89173258Y66343352D01*
X89206668Y66293350D01*
X89398967Y65829098D01*
X89497000Y65336253D01*
X89497000Y64833747D01*
X89398967Y64340902D01*
X89227378Y63926648D01*
X89206667Y63876648D01*
X88927491Y63458832D01*
X88572168Y63103509D01*
X88154352Y62824333D01*
X88154351Y62824332D01*
X88154350Y62824332D01*
X87690098Y62632033D01*
X87197253Y62534000D01*
X86694747Y62534000D01*
X86201902Y62632033D01*
X85737650Y62824332D01*
X85737649Y62824332D01*
X85737648Y62824333D01*
X85319832Y63103509D01*
X84964509Y63458832D01*
X84685333Y63876648D01*
X84664622Y63926648D01*
X84493033Y64340902D01*
X84395000Y64833747D01*
X84395000Y65336253D01*
X84493033Y65829098D01*
X84685332Y66293350D01*
X84718742Y66343352D01*
X84964509Y66711168D01*
X85319832Y67066491D01*
X85737648Y67345667D01*
X85858359Y67395667D01*
X86201902Y67537967D01*
X86694747Y67636000D01*
X87197253Y67636000D01*
X87690098Y67537967D01*
G37*
G36*
X12990098Y67587967D02*
G01*
X13454350Y67395668D01*
X13454352Y67395667D01*
X13872168Y67116491D01*
X14227491Y66761168D01*
X14506667Y66343352D01*
X14506668Y66343350D01*
X14698967Y65879098D01*
X14797000Y65386253D01*
X14797000Y64883747D01*
X14698967Y64390902D01*
X14506668Y63926650D01*
X14506667Y63926648D01*
X14227491Y63508832D01*
X13872168Y63153509D01*
X13454352Y62874333D01*
X13454351Y62874332D01*
X13454350Y62874332D01*
X12990098Y62682033D01*
X12497253Y62584000D01*
X11994747Y62584000D01*
X11501902Y62682033D01*
X11037650Y62874332D01*
X11037649Y62874332D01*
X11037648Y62874333D01*
X10619832Y63153509D01*
X10264509Y63508832D01*
X9985333Y63926648D01*
X9985332Y63926650D01*
X9793033Y64390902D01*
X9695000Y64883747D01*
X9695000Y65386253D01*
X9793033Y65879098D01*
X9985332Y66343350D01*
X9985333Y66343352D01*
X10264509Y66761168D01*
X10619832Y67116491D01*
X11037648Y67395667D01*
X11037650Y67395668D01*
X11501902Y67587967D01*
X11994747Y67686000D01*
X12497253Y67686000D01*
X12990098Y67587967D01*
G37*
G36*
X69173395Y66149454D02*
G01*
X69346466Y66077766D01*
X69346467Y66077765D01*
X69502227Y65973690D01*
X69634690Y65841227D01*
X69677284Y65777480D01*
X69738766Y65685466D01*
X69810454Y65512395D01*
X69847000Y65328667D01*
X69847000Y65141333D01*
X69810454Y64957605D01*
X69738766Y64784534D01*
X69738765Y64784533D01*
X69634690Y64628773D01*
X69502227Y64496310D01*
X69479092Y64480852D01*
X69346466Y64392234D01*
X69173395Y64320546D01*
X68989667Y64284000D01*
X68802333Y64284000D01*
X68618605Y64320546D01*
X68445534Y64392234D01*
X68312908Y64480852D01*
X68289773Y64496310D01*
X68157310Y64628773D01*
X68053235Y64784533D01*
X68053234Y64784534D01*
X67981546Y64957605D01*
X67945000Y65141333D01*
X67945000Y65328667D01*
X67981546Y65512395D01*
X68053234Y65685466D01*
X68114716Y65777480D01*
X68157310Y65841227D01*
X68289773Y65973690D01*
X68445533Y66077765D01*
X68445534Y66077766D01*
X68618605Y66149454D01*
X68802333Y66186000D01*
X68989667Y66186000D01*
X69173395Y66149454D01*
G37*
G36*
X82547000Y64284000D02*
G01*
X80645000Y64284000D01*
X80645000Y66186000D01*
X82547000Y66186000D01*
X82547000Y64284000D01*
G37*
G36*
X43773395Y66149454D02*
G01*
X43946466Y66077766D01*
X43946467Y66077765D01*
X44102227Y65973690D01*
X44234690Y65841227D01*
X44277284Y65777480D01*
X44338766Y65685466D01*
X44410454Y65512395D01*
X44447000Y65328667D01*
X44447000Y65141333D01*
X44410454Y64957605D01*
X44338766Y64784534D01*
X44338765Y64784533D01*
X44234690Y64628773D01*
X44102227Y64496310D01*
X44079092Y64480852D01*
X43946466Y64392234D01*
X43773395Y64320546D01*
X43589667Y64284000D01*
X43402333Y64284000D01*
X43218605Y64320546D01*
X43045534Y64392234D01*
X42912908Y64480852D01*
X42889773Y64496310D01*
X42757310Y64628773D01*
X42653235Y64784533D01*
X42653234Y64784534D01*
X42581546Y64957605D01*
X42545000Y65141333D01*
X42545000Y65328667D01*
X42581546Y65512395D01*
X42653234Y65685466D01*
X42714716Y65777480D01*
X42757310Y65841227D01*
X42889773Y65973690D01*
X43045533Y66077765D01*
X43045534Y66077766D01*
X43218605Y66149454D01*
X43402333Y66186000D01*
X43589667Y66186000D01*
X43773395Y66149454D01*
G37*
G36*
X46313395Y66149454D02*
G01*
X46486466Y66077766D01*
X46486467Y66077765D01*
X46642227Y65973690D01*
X46774690Y65841227D01*
X46817284Y65777480D01*
X46878766Y65685466D01*
X46950454Y65512395D01*
X46987000Y65328667D01*
X46987000Y65141333D01*
X46950454Y64957605D01*
X46878766Y64784534D01*
X46878765Y64784533D01*
X46774690Y64628773D01*
X46642227Y64496310D01*
X46619092Y64480852D01*
X46486466Y64392234D01*
X46313395Y64320546D01*
X46129667Y64284000D01*
X45942333Y64284000D01*
X45758605Y64320546D01*
X45585534Y64392234D01*
X45452908Y64480852D01*
X45429773Y64496310D01*
X45297310Y64628773D01*
X45193235Y64784533D01*
X45193234Y64784534D01*
X45121546Y64957605D01*
X45085000Y65141333D01*
X45085000Y65328667D01*
X45121546Y65512395D01*
X45193234Y65685466D01*
X45254716Y65777480D01*
X45297310Y65841227D01*
X45429773Y65973690D01*
X45585533Y66077765D01*
X45585534Y66077766D01*
X45758605Y66149454D01*
X45942333Y66186000D01*
X46129667Y66186000D01*
X46313395Y66149454D01*
G37*
G36*
X48853395Y66149454D02*
G01*
X49026466Y66077766D01*
X49026467Y66077765D01*
X49182227Y65973690D01*
X49314690Y65841227D01*
X49357284Y65777480D01*
X49418766Y65685466D01*
X49490454Y65512395D01*
X49527000Y65328667D01*
X49527000Y65141333D01*
X49490454Y64957605D01*
X49418766Y64784534D01*
X49418765Y64784533D01*
X49314690Y64628773D01*
X49182227Y64496310D01*
X49159092Y64480852D01*
X49026466Y64392234D01*
X48853395Y64320546D01*
X48669667Y64284000D01*
X48482333Y64284000D01*
X48298605Y64320546D01*
X48125534Y64392234D01*
X47992908Y64480852D01*
X47969773Y64496310D01*
X47837310Y64628773D01*
X47733235Y64784533D01*
X47733234Y64784534D01*
X47661546Y64957605D01*
X47625000Y65141333D01*
X47625000Y65328667D01*
X47661546Y65512395D01*
X47733234Y65685466D01*
X47794716Y65777480D01*
X47837310Y65841227D01*
X47969773Y65973690D01*
X48125533Y66077765D01*
X48125534Y66077766D01*
X48298605Y66149454D01*
X48482333Y66186000D01*
X48669667Y66186000D01*
X48853395Y66149454D01*
G37*
G36*
X51393395Y66149454D02*
G01*
X51566466Y66077766D01*
X51566467Y66077765D01*
X51722227Y65973690D01*
X51854690Y65841227D01*
X51897284Y65777480D01*
X51958766Y65685466D01*
X52030454Y65512395D01*
X52067000Y65328667D01*
X52067000Y65141333D01*
X52030454Y64957605D01*
X51958766Y64784534D01*
X51958765Y64784533D01*
X51854690Y64628773D01*
X51722227Y64496310D01*
X51699092Y64480852D01*
X51566466Y64392234D01*
X51393395Y64320546D01*
X51209667Y64284000D01*
X51022333Y64284000D01*
X50838605Y64320546D01*
X50665534Y64392234D01*
X50532908Y64480852D01*
X50509773Y64496310D01*
X50377310Y64628773D01*
X50273235Y64784533D01*
X50273234Y64784534D01*
X50201546Y64957605D01*
X50165000Y65141333D01*
X50165000Y65328667D01*
X50201546Y65512395D01*
X50273234Y65685466D01*
X50334716Y65777480D01*
X50377310Y65841227D01*
X50509773Y65973690D01*
X50665533Y66077765D01*
X50665534Y66077766D01*
X50838605Y66149454D01*
X51022333Y66186000D01*
X51209667Y66186000D01*
X51393395Y66149454D01*
G37*
G36*
X56473395Y66149454D02*
G01*
X56646466Y66077766D01*
X56646467Y66077765D01*
X56802227Y65973690D01*
X56934690Y65841227D01*
X56977284Y65777480D01*
X57038766Y65685466D01*
X57110454Y65512395D01*
X57147000Y65328667D01*
X57147000Y65141333D01*
X57110454Y64957605D01*
X57038766Y64784534D01*
X57038765Y64784533D01*
X56934690Y64628773D01*
X56802227Y64496310D01*
X56779092Y64480852D01*
X56646466Y64392234D01*
X56473395Y64320546D01*
X56289667Y64284000D01*
X56102333Y64284000D01*
X55918605Y64320546D01*
X55745534Y64392234D01*
X55612908Y64480852D01*
X55589773Y64496310D01*
X55457310Y64628773D01*
X55353235Y64784533D01*
X55353234Y64784534D01*
X55281546Y64957605D01*
X55245000Y65141333D01*
X55245000Y65328667D01*
X55281546Y65512395D01*
X55353234Y65685466D01*
X55414716Y65777480D01*
X55457310Y65841227D01*
X55589773Y65973690D01*
X55745533Y66077765D01*
X55745534Y66077766D01*
X55918605Y66149454D01*
X56102333Y66186000D01*
X56289667Y66186000D01*
X56473395Y66149454D01*
G37*
G36*
X59013395Y66149454D02*
G01*
X59186466Y66077766D01*
X59186467Y66077765D01*
X59342227Y65973690D01*
X59474690Y65841227D01*
X59517284Y65777480D01*
X59578766Y65685466D01*
X59650454Y65512395D01*
X59687000Y65328667D01*
X59687000Y65141333D01*
X59650454Y64957605D01*
X59578766Y64784534D01*
X59578765Y64784533D01*
X59474690Y64628773D01*
X59342227Y64496310D01*
X59319092Y64480852D01*
X59186466Y64392234D01*
X59013395Y64320546D01*
X58829667Y64284000D01*
X58642333Y64284000D01*
X58458605Y64320546D01*
X58285534Y64392234D01*
X58152908Y64480852D01*
X58129773Y64496310D01*
X57997310Y64628773D01*
X57893235Y64784533D01*
X57893234Y64784534D01*
X57821546Y64957605D01*
X57785000Y65141333D01*
X57785000Y65328667D01*
X57821546Y65512395D01*
X57893234Y65685466D01*
X57954716Y65777480D01*
X57997310Y65841227D01*
X58129773Y65973690D01*
X58285533Y66077765D01*
X58285534Y66077766D01*
X58458605Y66149454D01*
X58642333Y66186000D01*
X58829667Y66186000D01*
X59013395Y66149454D01*
G37*
G36*
X61553395Y66149454D02*
G01*
X61726466Y66077766D01*
X61726467Y66077765D01*
X61882227Y65973690D01*
X62014690Y65841227D01*
X62057284Y65777480D01*
X62118766Y65685466D01*
X62190454Y65512395D01*
X62227000Y65328667D01*
X62227000Y65141333D01*
X62190454Y64957605D01*
X62118766Y64784534D01*
X62118765Y64784533D01*
X62014690Y64628773D01*
X61882227Y64496310D01*
X61859092Y64480852D01*
X61726466Y64392234D01*
X61553395Y64320546D01*
X61369667Y64284000D01*
X61182333Y64284000D01*
X60998605Y64320546D01*
X60825534Y64392234D01*
X60692908Y64480852D01*
X60669773Y64496310D01*
X60537310Y64628773D01*
X60433235Y64784533D01*
X60433234Y64784534D01*
X60361546Y64957605D01*
X60325000Y65141333D01*
X60325000Y65328667D01*
X60361546Y65512395D01*
X60433234Y65685466D01*
X60494716Y65777480D01*
X60537310Y65841227D01*
X60669773Y65973690D01*
X60825533Y66077765D01*
X60825534Y66077766D01*
X60998605Y66149454D01*
X61182333Y66186000D01*
X61369667Y66186000D01*
X61553395Y66149454D01*
G37*
G36*
X64093395Y66149454D02*
G01*
X64266466Y66077766D01*
X64266467Y66077765D01*
X64422227Y65973690D01*
X64554690Y65841227D01*
X64597284Y65777480D01*
X64658766Y65685466D01*
X64730454Y65512395D01*
X64767000Y65328667D01*
X64767000Y65141333D01*
X64730454Y64957605D01*
X64658766Y64784534D01*
X64658765Y64784533D01*
X64554690Y64628773D01*
X64422227Y64496310D01*
X64399092Y64480852D01*
X64266466Y64392234D01*
X64093395Y64320546D01*
X63909667Y64284000D01*
X63722333Y64284000D01*
X63538605Y64320546D01*
X63365534Y64392234D01*
X63232908Y64480852D01*
X63209773Y64496310D01*
X63077310Y64628773D01*
X62973235Y64784533D01*
X62973234Y64784534D01*
X62901546Y64957605D01*
X62865000Y65141333D01*
X62865000Y65328667D01*
X62901546Y65512395D01*
X62973234Y65685466D01*
X63034716Y65777480D01*
X63077310Y65841227D01*
X63209773Y65973690D01*
X63365533Y66077765D01*
X63365534Y66077766D01*
X63538605Y66149454D01*
X63722333Y66186000D01*
X63909667Y66186000D01*
X64093395Y66149454D01*
G37*
G36*
X66633395Y66149454D02*
G01*
X66806466Y66077766D01*
X66806467Y66077765D01*
X66962227Y65973690D01*
X67094690Y65841227D01*
X67137284Y65777480D01*
X67198766Y65685466D01*
X67270454Y65512395D01*
X67307000Y65328667D01*
X67307000Y65141333D01*
X67270454Y64957605D01*
X67198766Y64784534D01*
X67198765Y64784533D01*
X67094690Y64628773D01*
X66962227Y64496310D01*
X66939092Y64480852D01*
X66806466Y64392234D01*
X66633395Y64320546D01*
X66449667Y64284000D01*
X66262333Y64284000D01*
X66078605Y64320546D01*
X65905534Y64392234D01*
X65772908Y64480852D01*
X65749773Y64496310D01*
X65617310Y64628773D01*
X65513235Y64784533D01*
X65513234Y64784534D01*
X65441546Y64957605D01*
X65405000Y65141333D01*
X65405000Y65328667D01*
X65441546Y65512395D01*
X65513234Y65685466D01*
X65574716Y65777480D01*
X65617310Y65841227D01*
X65749773Y65973690D01*
X65905533Y66077765D01*
X65905534Y66077766D01*
X66078605Y66149454D01*
X66262333Y66186000D01*
X66449667Y66186000D01*
X66633395Y66149454D01*
G37*
G36*
X71713395Y66149454D02*
G01*
X71886466Y66077766D01*
X71886467Y66077765D01*
X72042227Y65973690D01*
X72174690Y65841227D01*
X72217284Y65777480D01*
X72278766Y65685466D01*
X72350454Y65512395D01*
X72387000Y65328667D01*
X72387000Y65141333D01*
X72350454Y64957605D01*
X72278766Y64784534D01*
X72278765Y64784533D01*
X72174690Y64628773D01*
X72042227Y64496310D01*
X72019092Y64480852D01*
X71886466Y64392234D01*
X71713395Y64320546D01*
X71529667Y64284000D01*
X71342333Y64284000D01*
X71158605Y64320546D01*
X70985534Y64392234D01*
X70852908Y64480852D01*
X70829773Y64496310D01*
X70697310Y64628773D01*
X70593235Y64784533D01*
X70593234Y64784534D01*
X70521546Y64957605D01*
X70485000Y65141333D01*
X70485000Y65328667D01*
X70521546Y65512395D01*
X70593234Y65685466D01*
X70654716Y65777480D01*
X70697310Y65841227D01*
X70829773Y65973690D01*
X70985533Y66077765D01*
X70985534Y66077766D01*
X71158605Y66149454D01*
X71342333Y66186000D01*
X71529667Y66186000D01*
X71713395Y66149454D01*
G37*
G36*
X74253395Y66149454D02*
G01*
X74426466Y66077766D01*
X74426467Y66077765D01*
X74582227Y65973690D01*
X74714690Y65841227D01*
X74757284Y65777480D01*
X74818766Y65685466D01*
X74890454Y65512395D01*
X74927000Y65328667D01*
X74927000Y65141333D01*
X74890454Y64957605D01*
X74818766Y64784534D01*
X74818765Y64784533D01*
X74714690Y64628773D01*
X74582227Y64496310D01*
X74559092Y64480852D01*
X74426466Y64392234D01*
X74253395Y64320546D01*
X74069667Y64284000D01*
X73882333Y64284000D01*
X73698605Y64320546D01*
X73525534Y64392234D01*
X73392908Y64480852D01*
X73369773Y64496310D01*
X73237310Y64628773D01*
X73133235Y64784533D01*
X73133234Y64784534D01*
X73061546Y64957605D01*
X73025000Y65141333D01*
X73025000Y65328667D01*
X73061546Y65512395D01*
X73133234Y65685466D01*
X73194716Y65777480D01*
X73237310Y65841227D01*
X73369773Y65973690D01*
X73525533Y66077765D01*
X73525534Y66077766D01*
X73698605Y66149454D01*
X73882333Y66186000D01*
X74069667Y66186000D01*
X74253395Y66149454D01*
G37*
G36*
X79333395Y66149454D02*
G01*
X79506466Y66077766D01*
X79506467Y66077765D01*
X79662227Y65973690D01*
X79794690Y65841227D01*
X79837284Y65777480D01*
X79898766Y65685466D01*
X79970454Y65512395D01*
X80007000Y65328667D01*
X80007000Y65141333D01*
X79970454Y64957605D01*
X79898766Y64784534D01*
X79898765Y64784533D01*
X79794690Y64628773D01*
X79662227Y64496310D01*
X79639092Y64480852D01*
X79506466Y64392234D01*
X79333395Y64320546D01*
X79149667Y64284000D01*
X78962333Y64284000D01*
X78778605Y64320546D01*
X78605534Y64392234D01*
X78472908Y64480852D01*
X78449773Y64496310D01*
X78317310Y64628773D01*
X78213235Y64784533D01*
X78213234Y64784534D01*
X78141546Y64957605D01*
X78105000Y65141333D01*
X78105000Y65328667D01*
X78141546Y65512395D01*
X78213234Y65685466D01*
X78274716Y65777480D01*
X78317310Y65841227D01*
X78449773Y65973690D01*
X78605533Y66077765D01*
X78605534Y66077766D01*
X78778605Y66149454D01*
X78962333Y66186000D01*
X79149667Y66186000D01*
X79333395Y66149454D01*
G37*
G36*
X53933395Y66149454D02*
G01*
X54106466Y66077766D01*
X54106467Y66077765D01*
X54262227Y65973690D01*
X54394690Y65841227D01*
X54437284Y65777480D01*
X54498766Y65685466D01*
X54570454Y65512395D01*
X54607000Y65328667D01*
X54607000Y65141333D01*
X54570454Y64957605D01*
X54498766Y64784534D01*
X54498765Y64784533D01*
X54394690Y64628773D01*
X54262227Y64496310D01*
X54239092Y64480852D01*
X54106466Y64392234D01*
X53933395Y64320546D01*
X53749667Y64284000D01*
X53562333Y64284000D01*
X53378605Y64320546D01*
X53205534Y64392234D01*
X53072908Y64480852D01*
X53049773Y64496310D01*
X52917310Y64628773D01*
X52813235Y64784533D01*
X52813234Y64784534D01*
X52741546Y64957605D01*
X52705000Y65141333D01*
X52705000Y65328667D01*
X52741546Y65512395D01*
X52813234Y65685466D01*
X52874716Y65777480D01*
X52917310Y65841227D01*
X53049773Y65973690D01*
X53205533Y66077765D01*
X53205534Y66077766D01*
X53378605Y66149454D01*
X53562333Y66186000D01*
X53749667Y66186000D01*
X53933395Y66149454D01*
G37*
G36*
X76793395Y66149454D02*
G01*
X76966466Y66077766D01*
X76966467Y66077765D01*
X77122227Y65973690D01*
X77254690Y65841227D01*
X77297284Y65777480D01*
X77358766Y65685466D01*
X77430454Y65512395D01*
X77467000Y65328667D01*
X77467000Y65141333D01*
X77430454Y64957605D01*
X77358766Y64784534D01*
X77358765Y64784533D01*
X77254690Y64628773D01*
X77122227Y64496310D01*
X77099092Y64480852D01*
X76966466Y64392234D01*
X76793395Y64320546D01*
X76609667Y64284000D01*
X76422333Y64284000D01*
X76238605Y64320546D01*
X76065534Y64392234D01*
X75932908Y64480852D01*
X75909773Y64496310D01*
X75777310Y64628773D01*
X75673235Y64784533D01*
X75673234Y64784534D01*
X75601546Y64957605D01*
X75565000Y65141333D01*
X75565000Y65328667D01*
X75601546Y65512395D01*
X75673234Y65685466D01*
X75734716Y65777480D01*
X75777310Y65841227D01*
X75909773Y65973690D01*
X76065533Y66077765D01*
X76065534Y66077766D01*
X76238605Y66149454D01*
X76422333Y66186000D01*
X76609667Y66186000D01*
X76793395Y66149454D01*
G37*
G36*
X37398228Y66053297D02*
G01*
X37553100Y65989147D01*
X37692481Y65896015D01*
X37811015Y65777481D01*
X37904147Y65638100D01*
X37968297Y65483228D01*
X38001000Y65318816D01*
X38001000Y65151184D01*
X37968297Y64986772D01*
X37904147Y64831900D01*
X37811015Y64692519D01*
X37692481Y64573985D01*
X37553100Y64480853D01*
X37398228Y64416703D01*
X37233816Y64384000D01*
X37066184Y64384000D01*
X36901772Y64416703D01*
X36746900Y64480853D01*
X36607519Y64573985D01*
X36488985Y64692519D01*
X36395853Y64831900D01*
X36331703Y64986772D01*
X36299000Y65151184D01*
X36299000Y65318816D01*
X36331703Y65483228D01*
X36395853Y65638100D01*
X36488985Y65777481D01*
X36607519Y65896015D01*
X36746900Y65989147D01*
X36901772Y66053297D01*
X37066184Y66086000D01*
X37233816Y66086000D01*
X37398228Y66053297D01*
G37*
M02*
