G04 #@! TF.GenerationSoftware,KiCad,Pcbnew,(5.1.5)-2*
G04 #@! TF.CreationDate,2020-02-20T23:05:37+01:00*
G04 #@! TF.ProjectId,BBMini32,42424d69-6e69-4333-922e-6b696361645f,V1.0*
G04 #@! TF.SameCoordinates,PX1312d00PY510ff40*
G04 #@! TF.FileFunction,Legend,Top*
G04 #@! TF.FilePolarity,Positive*
%FSLAX46Y46*%
G04 Gerber Fmt 4.6, Leading zero omitted, Abs format (unit mm)*
G04 Created by KiCad (PCBNEW (5.1.5)-2) date 2020-02-20 23:05:37*
%MOMM*%
%LPD*%
G04 APERTURE LIST*
%ADD10C,0.150000*%
%ADD11C,0.120000*%
%ADD12C,1.902000*%
%ADD13R,1.902000X1.902000*%
%ADD14C,2.102000*%
%ADD15C,1.602000*%
%ADD16C,6.502000*%
%ADD17C,5.102000*%
%ADD18O,1.702000X1.702000*%
%ADD19R,1.702000X1.702000*%
%ADD20C,0.100000*%
%ADD21O,1.602000X2.102000*%
%ADD22C,1.702000*%
%ADD23R,1.152000X1.602000*%
%ADD24O,1.152000X1.602000*%
%ADD25O,1.802000X1.802000*%
%ADD26R,1.802000X1.802000*%
G04 APERTURE END LIST*
D10*
X18365000Y17910000D02*
X18365000Y45410000D01*
X18365000Y45410000D02*
X67365000Y45410000D01*
X18365000Y17910000D02*
X67365000Y17910000D01*
X67365000Y17910000D02*
X67365000Y45410000D01*
D11*
X76460000Y22880000D02*
X76460000Y21230000D01*
X96900000Y22880000D02*
X76460000Y22880000D01*
X96900000Y17580000D02*
X96900000Y22880000D01*
X76460000Y17580000D02*
X96900000Y17580000D01*
X76460000Y19230000D02*
X76460000Y17580000D01*
X76460000Y21230000D02*
G75*
G02X76460000Y19230000I0J-1000000D01*
G01*
X60070000Y51235000D02*
X60070000Y52885000D01*
X39630000Y51235000D02*
X60070000Y51235000D01*
X39630000Y56535000D02*
X39630000Y51235000D01*
X60070000Y56535000D02*
X39630000Y56535000D01*
X60070000Y54885000D02*
X60070000Y56535000D01*
X60070000Y52885000D02*
G75*
G02X60070000Y54885000I0J1000000D01*
G01*
X81280000Y10387500D02*
G75*
G03X81280000Y10387500I-950000J0D01*
G01*
X71120000Y10387500D02*
G75*
G03X71120000Y10387500I-950000J0D01*
G01*
X60960000Y10387500D02*
G75*
G03X60960000Y10387500I-950000J0D01*
G01*
X50800000Y10387500D02*
G75*
G03X50800000Y10387500I-950000J0D01*
G01*
X40640000Y10387500D02*
G75*
G03X40640000Y10387500I-950000J0D01*
G01*
X30480000Y10387500D02*
G75*
G03X30480000Y10387500I-950000J0D01*
G01*
X20320000Y10387500D02*
G75*
G03X20320000Y10387500I-950000J0D01*
G01*
X10160000Y10387500D02*
G75*
G03X10160000Y10387500I-950000J0D01*
G01*
X67400000Y55790000D02*
X68170000Y55790000D01*
X75480000Y55790000D02*
X74710000Y55790000D01*
X68170000Y54420000D02*
X74710000Y54420000D01*
X68170000Y57160000D02*
X68170000Y54420000D01*
X74710000Y57160000D02*
X68170000Y57160000D01*
X74710000Y54420000D02*
X74710000Y57160000D01*
X37150000Y59195000D02*
X37150000Y58425000D01*
X37150000Y51115000D02*
X37150000Y51885000D01*
X35780000Y58425000D02*
X35780000Y51885000D01*
X38520000Y58425000D02*
X35780000Y58425000D01*
X38520000Y51885000D02*
X38520000Y58425000D01*
X35780000Y51885000D02*
X38520000Y51885000D01*
X82465000Y44360000D02*
X81695000Y44360000D01*
X74385000Y44360000D02*
X75155000Y44360000D01*
X81695000Y45730000D02*
X75155000Y45730000D01*
X81695000Y42990000D02*
X81695000Y45730000D01*
X75155000Y42990000D02*
X81695000Y42990000D01*
X75155000Y45730000D02*
X75155000Y42990000D01*
X31665000Y47535000D02*
X30895000Y47535000D01*
X23585000Y47535000D02*
X24355000Y47535000D01*
X30895000Y48905000D02*
X24355000Y48905000D01*
X30895000Y46165000D02*
X30895000Y48905000D01*
X24355000Y46165000D02*
X30895000Y46165000D01*
X24355000Y48905000D02*
X24355000Y46165000D01*
X31665000Y50710000D02*
X30895000Y50710000D01*
X23585000Y50710000D02*
X24355000Y50710000D01*
X30895000Y52080000D02*
X24355000Y52080000D01*
X30895000Y49340000D02*
X30895000Y52080000D01*
X24355000Y49340000D02*
X30895000Y49340000D01*
X24355000Y52080000D02*
X24355000Y49340000D01*
X82465000Y40550000D02*
X81695000Y40550000D01*
X74385000Y40550000D02*
X75155000Y40550000D01*
X81695000Y41920000D02*
X75155000Y41920000D01*
X81695000Y39180000D02*
X81695000Y41920000D01*
X75155000Y39180000D02*
X81695000Y39180000D01*
X75155000Y41920000D02*
X75155000Y39180000D01*
X74385000Y37375000D02*
X75155000Y37375000D01*
X82465000Y37375000D02*
X81695000Y37375000D01*
X75155000Y36005000D02*
X81695000Y36005000D01*
X75155000Y38745000D02*
X75155000Y36005000D01*
X81695000Y38745000D02*
X75155000Y38745000D01*
X81695000Y36005000D02*
X81695000Y38745000D01*
X3265000Y47535000D02*
X4035000Y47535000D01*
X11345000Y47535000D02*
X10575000Y47535000D01*
X4035000Y46165000D02*
X10575000Y46165000D01*
X4035000Y48905000D02*
X4035000Y46165000D01*
X10575000Y48905000D02*
X4035000Y48905000D01*
X10575000Y46165000D02*
X10575000Y48905000D01*
X78491522Y51913478D02*
G75*
G03X80330000Y47475000I1838478J-1838478D01*
G01*
X82168478Y51913478D02*
G75*
G02X80330000Y47475000I-1838478J-1838478D01*
G01*
X82130000Y51925000D02*
X78530000Y51925000D01*
X79120000Y28545000D02*
X79120000Y27215000D01*
X77790000Y28545000D02*
X79120000Y28545000D01*
X76520000Y28545000D02*
X76520000Y25885000D01*
X76520000Y25885000D02*
X73920000Y25885000D01*
X76520000Y28545000D02*
X73920000Y28545000D01*
X73920000Y28545000D02*
X73920000Y25885000D01*
X62970000Y55195000D02*
X63285000Y55195000D01*
X60545000Y55195000D02*
X60860000Y55195000D01*
X62970000Y49955000D02*
X63285000Y49955000D01*
X60545000Y49955000D02*
X60860000Y49955000D01*
X63285000Y49955000D02*
X63285000Y55195000D01*
X60545000Y49955000D02*
X60545000Y55195000D01*
X73560000Y18920000D02*
X73245000Y18920000D01*
X75985000Y18920000D02*
X75670000Y18920000D01*
X73560000Y24160000D02*
X73245000Y24160000D01*
X75985000Y24160000D02*
X75670000Y24160000D01*
X73245000Y24160000D02*
X73245000Y18920000D01*
X75985000Y24160000D02*
X75985000Y18920000D01*
D10*
X4661904Y54702620D02*
X4661904Y55702620D01*
X4900000Y55702620D01*
X5042857Y55655000D01*
X5138095Y55559762D01*
X5185714Y55464524D01*
X5233333Y55274048D01*
X5233333Y55131191D01*
X5185714Y54940715D01*
X5138095Y54845477D01*
X5042857Y54750239D01*
X4900000Y54702620D01*
X4661904Y54702620D01*
X6185714Y54702620D02*
X5614285Y54702620D01*
X5900000Y54702620D02*
X5900000Y55702620D01*
X5804761Y55559762D01*
X5709523Y55464524D01*
X5614285Y55416905D01*
X9781666Y32525239D02*
X9924523Y32477620D01*
X10162619Y32477620D01*
X10257857Y32525239D01*
X10305476Y32572858D01*
X10353095Y32668096D01*
X10353095Y32763334D01*
X10305476Y32858572D01*
X10257857Y32906191D01*
X10162619Y32953810D01*
X9972142Y33001429D01*
X9876904Y33049048D01*
X9829285Y33096667D01*
X9781666Y33191905D01*
X9781666Y33287143D01*
X9829285Y33382381D01*
X9876904Y33430000D01*
X9972142Y33477620D01*
X10210238Y33477620D01*
X10353095Y33430000D01*
X10686428Y33477620D02*
X10924523Y32477620D01*
X11115000Y33191905D01*
X11305476Y32477620D01*
X11543571Y33477620D01*
X11876904Y33382381D02*
X11924523Y33430000D01*
X12019761Y33477620D01*
X12257857Y33477620D01*
X12353095Y33430000D01*
X12400714Y33382381D01*
X12448333Y33287143D01*
X12448333Y33191905D01*
X12400714Y33049048D01*
X11829285Y32477620D01*
X12448333Y32477620D01*
X9781666Y43320239D02*
X9924523Y43272620D01*
X10162619Y43272620D01*
X10257857Y43320239D01*
X10305476Y43367858D01*
X10353095Y43463096D01*
X10353095Y43558334D01*
X10305476Y43653572D01*
X10257857Y43701191D01*
X10162619Y43748810D01*
X9972142Y43796429D01*
X9876904Y43844048D01*
X9829285Y43891667D01*
X9781666Y43986905D01*
X9781666Y44082143D01*
X9829285Y44177381D01*
X9876904Y44225000D01*
X9972142Y44272620D01*
X10210238Y44272620D01*
X10353095Y44225000D01*
X10686428Y44272620D02*
X10924523Y43272620D01*
X11115000Y43986905D01*
X11305476Y43272620D01*
X11543571Y44272620D01*
X12448333Y43272620D02*
X11876904Y43272620D01*
X12162619Y43272620D02*
X12162619Y44272620D01*
X12067380Y44129762D01*
X11972142Y44034524D01*
X11876904Y43986905D01*
X16068095Y19507620D02*
X16068095Y18698096D01*
X16115714Y18602858D01*
X16163333Y18555239D01*
X16258571Y18507620D01*
X16449047Y18507620D01*
X16544285Y18555239D01*
X16591904Y18602858D01*
X16639523Y18698096D01*
X16639523Y19507620D01*
X17639523Y18507620D02*
X17068095Y18507620D01*
X17353809Y18507620D02*
X17353809Y19507620D01*
X17258571Y19364762D01*
X17163333Y19269524D01*
X17068095Y19221905D01*
X90363095Y29985120D02*
X90363095Y29175596D01*
X90410714Y29080358D01*
X90458333Y29032739D01*
X90553571Y28985120D01*
X90744047Y28985120D01*
X90839285Y29032739D01*
X90886904Y29080358D01*
X90934523Y29175596D01*
X90934523Y29985120D01*
X91315476Y29985120D02*
X91934523Y29985120D01*
X91601190Y29604167D01*
X91744047Y29604167D01*
X91839285Y29556548D01*
X91886904Y29508929D01*
X91934523Y29413691D01*
X91934523Y29175596D01*
X91886904Y29080358D01*
X91839285Y29032739D01*
X91744047Y28985120D01*
X91458333Y28985120D01*
X91363095Y29032739D01*
X91315476Y29080358D01*
X98046595Y16967620D02*
X98046595Y16158096D01*
X98094214Y16062858D01*
X98141833Y16015239D01*
X98237071Y15967620D01*
X98427547Y15967620D01*
X98522785Y16015239D01*
X98570404Y16062858D01*
X98618023Y16158096D01*
X98618023Y16967620D01*
X99522785Y16634286D02*
X99522785Y15967620D01*
X99284690Y17015239D02*
X99046595Y16300953D01*
X99665642Y16300953D01*
X57978095Y48082620D02*
X57978095Y47273096D01*
X58025714Y47177858D01*
X58073333Y47130239D01*
X58168571Y47082620D01*
X58359047Y47082620D01*
X58454285Y47130239D01*
X58501904Y47177858D01*
X58549523Y47273096D01*
X58549523Y48082620D01*
X58978095Y47987381D02*
X59025714Y48035000D01*
X59120952Y48082620D01*
X59359047Y48082620D01*
X59454285Y48035000D01*
X59501904Y47987381D01*
X59549523Y47892143D01*
X59549523Y47796905D01*
X59501904Y47654048D01*
X58930476Y47082620D01*
X59549523Y47082620D01*
X79091904Y12903620D02*
X79663333Y12903620D01*
X79377619Y11903620D02*
X79377619Y12903620D01*
X79949047Y11951239D02*
X80091904Y11903620D01*
X80330000Y11903620D01*
X80425238Y11951239D01*
X80472857Y11998858D01*
X80520476Y12094096D01*
X80520476Y12189334D01*
X80472857Y12284572D01*
X80425238Y12332191D01*
X80330000Y12379810D01*
X80139523Y12427429D01*
X80044285Y12475048D01*
X79996666Y12522667D01*
X79949047Y12617905D01*
X79949047Y12713143D01*
X79996666Y12808381D01*
X80044285Y12856000D01*
X80139523Y12903620D01*
X80377619Y12903620D01*
X80520476Y12856000D01*
X81091904Y12475048D02*
X80996666Y12522667D01*
X80949047Y12570286D01*
X80901428Y12665524D01*
X80901428Y12713143D01*
X80949047Y12808381D01*
X80996666Y12856000D01*
X81091904Y12903620D01*
X81282380Y12903620D01*
X81377619Y12856000D01*
X81425238Y12808381D01*
X81472857Y12713143D01*
X81472857Y12665524D01*
X81425238Y12570286D01*
X81377619Y12522667D01*
X81282380Y12475048D01*
X81091904Y12475048D01*
X80996666Y12427429D01*
X80949047Y12379810D01*
X80901428Y12284572D01*
X80901428Y12094096D01*
X80949047Y11998858D01*
X80996666Y11951239D01*
X81091904Y11903620D01*
X81282380Y11903620D01*
X81377619Y11951239D01*
X81425238Y11998858D01*
X81472857Y12094096D01*
X81472857Y12284572D01*
X81425238Y12379810D01*
X81377619Y12427429D01*
X81282380Y12475048D01*
X68931904Y12903620D02*
X69503333Y12903620D01*
X69217619Y11903620D02*
X69217619Y12903620D01*
X69789047Y11951239D02*
X69931904Y11903620D01*
X70170000Y11903620D01*
X70265238Y11951239D01*
X70312857Y11998858D01*
X70360476Y12094096D01*
X70360476Y12189334D01*
X70312857Y12284572D01*
X70265238Y12332191D01*
X70170000Y12379810D01*
X69979523Y12427429D01*
X69884285Y12475048D01*
X69836666Y12522667D01*
X69789047Y12617905D01*
X69789047Y12713143D01*
X69836666Y12808381D01*
X69884285Y12856000D01*
X69979523Y12903620D01*
X70217619Y12903620D01*
X70360476Y12856000D01*
X70693809Y12903620D02*
X71360476Y12903620D01*
X70931904Y11903620D01*
X58771904Y12903620D02*
X59343333Y12903620D01*
X59057619Y11903620D02*
X59057619Y12903620D01*
X59629047Y11951239D02*
X59771904Y11903620D01*
X60010000Y11903620D01*
X60105238Y11951239D01*
X60152857Y11998858D01*
X60200476Y12094096D01*
X60200476Y12189334D01*
X60152857Y12284572D01*
X60105238Y12332191D01*
X60010000Y12379810D01*
X59819523Y12427429D01*
X59724285Y12475048D01*
X59676666Y12522667D01*
X59629047Y12617905D01*
X59629047Y12713143D01*
X59676666Y12808381D01*
X59724285Y12856000D01*
X59819523Y12903620D01*
X60057619Y12903620D01*
X60200476Y12856000D01*
X61057619Y12903620D02*
X60867142Y12903620D01*
X60771904Y12856000D01*
X60724285Y12808381D01*
X60629047Y12665524D01*
X60581428Y12475048D01*
X60581428Y12094096D01*
X60629047Y11998858D01*
X60676666Y11951239D01*
X60771904Y11903620D01*
X60962380Y11903620D01*
X61057619Y11951239D01*
X61105238Y11998858D01*
X61152857Y12094096D01*
X61152857Y12332191D01*
X61105238Y12427429D01*
X61057619Y12475048D01*
X60962380Y12522667D01*
X60771904Y12522667D01*
X60676666Y12475048D01*
X60629047Y12427429D01*
X60581428Y12332191D01*
X48611904Y12903620D02*
X49183333Y12903620D01*
X48897619Y11903620D02*
X48897619Y12903620D01*
X49469047Y11951239D02*
X49611904Y11903620D01*
X49850000Y11903620D01*
X49945238Y11951239D01*
X49992857Y11998858D01*
X50040476Y12094096D01*
X50040476Y12189334D01*
X49992857Y12284572D01*
X49945238Y12332191D01*
X49850000Y12379810D01*
X49659523Y12427429D01*
X49564285Y12475048D01*
X49516666Y12522667D01*
X49469047Y12617905D01*
X49469047Y12713143D01*
X49516666Y12808381D01*
X49564285Y12856000D01*
X49659523Y12903620D01*
X49897619Y12903620D01*
X50040476Y12856000D01*
X50945238Y12903620D02*
X50469047Y12903620D01*
X50421428Y12427429D01*
X50469047Y12475048D01*
X50564285Y12522667D01*
X50802380Y12522667D01*
X50897619Y12475048D01*
X50945238Y12427429D01*
X50992857Y12332191D01*
X50992857Y12094096D01*
X50945238Y11998858D01*
X50897619Y11951239D01*
X50802380Y11903620D01*
X50564285Y11903620D01*
X50469047Y11951239D01*
X50421428Y11998858D01*
X38451904Y12903620D02*
X39023333Y12903620D01*
X38737619Y11903620D02*
X38737619Y12903620D01*
X39309047Y11951239D02*
X39451904Y11903620D01*
X39690000Y11903620D01*
X39785238Y11951239D01*
X39832857Y11998858D01*
X39880476Y12094096D01*
X39880476Y12189334D01*
X39832857Y12284572D01*
X39785238Y12332191D01*
X39690000Y12379810D01*
X39499523Y12427429D01*
X39404285Y12475048D01*
X39356666Y12522667D01*
X39309047Y12617905D01*
X39309047Y12713143D01*
X39356666Y12808381D01*
X39404285Y12856000D01*
X39499523Y12903620D01*
X39737619Y12903620D01*
X39880476Y12856000D01*
X40737619Y12570286D02*
X40737619Y11903620D01*
X40499523Y12951239D02*
X40261428Y12236953D01*
X40880476Y12236953D01*
X28291904Y12903620D02*
X28863333Y12903620D01*
X28577619Y11903620D02*
X28577619Y12903620D01*
X29149047Y11951239D02*
X29291904Y11903620D01*
X29530000Y11903620D01*
X29625238Y11951239D01*
X29672857Y11998858D01*
X29720476Y12094096D01*
X29720476Y12189334D01*
X29672857Y12284572D01*
X29625238Y12332191D01*
X29530000Y12379810D01*
X29339523Y12427429D01*
X29244285Y12475048D01*
X29196666Y12522667D01*
X29149047Y12617905D01*
X29149047Y12713143D01*
X29196666Y12808381D01*
X29244285Y12856000D01*
X29339523Y12903620D01*
X29577619Y12903620D01*
X29720476Y12856000D01*
X30053809Y12903620D02*
X30672857Y12903620D01*
X30339523Y12522667D01*
X30482380Y12522667D01*
X30577619Y12475048D01*
X30625238Y12427429D01*
X30672857Y12332191D01*
X30672857Y12094096D01*
X30625238Y11998858D01*
X30577619Y11951239D01*
X30482380Y11903620D01*
X30196666Y11903620D01*
X30101428Y11951239D01*
X30053809Y11998858D01*
X18131904Y12903620D02*
X18703333Y12903620D01*
X18417619Y11903620D02*
X18417619Y12903620D01*
X18989047Y11951239D02*
X19131904Y11903620D01*
X19370000Y11903620D01*
X19465238Y11951239D01*
X19512857Y11998858D01*
X19560476Y12094096D01*
X19560476Y12189334D01*
X19512857Y12284572D01*
X19465238Y12332191D01*
X19370000Y12379810D01*
X19179523Y12427429D01*
X19084285Y12475048D01*
X19036666Y12522667D01*
X18989047Y12617905D01*
X18989047Y12713143D01*
X19036666Y12808381D01*
X19084285Y12856000D01*
X19179523Y12903620D01*
X19417619Y12903620D01*
X19560476Y12856000D01*
X19941428Y12808381D02*
X19989047Y12856000D01*
X20084285Y12903620D01*
X20322380Y12903620D01*
X20417619Y12856000D01*
X20465238Y12808381D01*
X20512857Y12713143D01*
X20512857Y12617905D01*
X20465238Y12475048D01*
X19893809Y11903620D01*
X20512857Y11903620D01*
X7971904Y12903620D02*
X8543333Y12903620D01*
X8257619Y11903620D02*
X8257619Y12903620D01*
X8829047Y11951239D02*
X8971904Y11903620D01*
X9210000Y11903620D01*
X9305238Y11951239D01*
X9352857Y11998858D01*
X9400476Y12094096D01*
X9400476Y12189334D01*
X9352857Y12284572D01*
X9305238Y12332191D01*
X9210000Y12379810D01*
X9019523Y12427429D01*
X8924285Y12475048D01*
X8876666Y12522667D01*
X8829047Y12617905D01*
X8829047Y12713143D01*
X8876666Y12808381D01*
X8924285Y12856000D01*
X9019523Y12903620D01*
X9257619Y12903620D01*
X9400476Y12856000D01*
X10352857Y11903620D02*
X9781428Y11903620D01*
X10067142Y11903620D02*
X10067142Y12903620D01*
X9971904Y12760762D01*
X9876666Y12665524D01*
X9781428Y12617905D01*
X84124285Y12903620D02*
X84695714Y12903620D01*
X84410000Y11903620D02*
X84410000Y12903620D01*
X85029047Y11903620D02*
X85029047Y12903620D01*
X85029047Y12427429D02*
X85600476Y12427429D01*
X85600476Y11903620D02*
X85600476Y12903620D01*
X86219523Y12475048D02*
X86124285Y12522667D01*
X86076666Y12570286D01*
X86029047Y12665524D01*
X86029047Y12713143D01*
X86076666Y12808381D01*
X86124285Y12856000D01*
X86219523Y12903620D01*
X86410000Y12903620D01*
X86505238Y12856000D01*
X86552857Y12808381D01*
X86600476Y12713143D01*
X86600476Y12665524D01*
X86552857Y12570286D01*
X86505238Y12522667D01*
X86410000Y12475048D01*
X86219523Y12475048D01*
X86124285Y12427429D01*
X86076666Y12379810D01*
X86029047Y12284572D01*
X86029047Y12094096D01*
X86076666Y11998858D01*
X86124285Y11951239D01*
X86219523Y11903620D01*
X86410000Y11903620D01*
X86505238Y11951239D01*
X86552857Y11998858D01*
X86600476Y12094096D01*
X86600476Y12284572D01*
X86552857Y12379810D01*
X86505238Y12427429D01*
X86410000Y12475048D01*
X73964285Y12903620D02*
X74535714Y12903620D01*
X74250000Y11903620D02*
X74250000Y12903620D01*
X74869047Y11903620D02*
X74869047Y12903620D01*
X74869047Y12427429D02*
X75440476Y12427429D01*
X75440476Y11903620D02*
X75440476Y12903620D01*
X75821428Y12903620D02*
X76488095Y12903620D01*
X76059523Y11903620D01*
X63804285Y12903620D02*
X64375714Y12903620D01*
X64090000Y11903620D02*
X64090000Y12903620D01*
X64709047Y11903620D02*
X64709047Y12903620D01*
X64709047Y12427429D02*
X65280476Y12427429D01*
X65280476Y11903620D02*
X65280476Y12903620D01*
X66185238Y12903620D02*
X65994761Y12903620D01*
X65899523Y12856000D01*
X65851904Y12808381D01*
X65756666Y12665524D01*
X65709047Y12475048D01*
X65709047Y12094096D01*
X65756666Y11998858D01*
X65804285Y11951239D01*
X65899523Y11903620D01*
X66090000Y11903620D01*
X66185238Y11951239D01*
X66232857Y11998858D01*
X66280476Y12094096D01*
X66280476Y12332191D01*
X66232857Y12427429D01*
X66185238Y12475048D01*
X66090000Y12522667D01*
X65899523Y12522667D01*
X65804285Y12475048D01*
X65756666Y12427429D01*
X65709047Y12332191D01*
X53644285Y12903620D02*
X54215714Y12903620D01*
X53930000Y11903620D02*
X53930000Y12903620D01*
X54549047Y11903620D02*
X54549047Y12903620D01*
X54549047Y12427429D02*
X55120476Y12427429D01*
X55120476Y11903620D02*
X55120476Y12903620D01*
X56072857Y12903620D02*
X55596666Y12903620D01*
X55549047Y12427429D01*
X55596666Y12475048D01*
X55691904Y12522667D01*
X55930000Y12522667D01*
X56025238Y12475048D01*
X56072857Y12427429D01*
X56120476Y12332191D01*
X56120476Y12094096D01*
X56072857Y11998858D01*
X56025238Y11951239D01*
X55930000Y11903620D01*
X55691904Y11903620D01*
X55596666Y11951239D01*
X55549047Y11998858D01*
X43484285Y12903620D02*
X44055714Y12903620D01*
X43770000Y11903620D02*
X43770000Y12903620D01*
X44389047Y11903620D02*
X44389047Y12903620D01*
X44389047Y12427429D02*
X44960476Y12427429D01*
X44960476Y11903620D02*
X44960476Y12903620D01*
X45865238Y12570286D02*
X45865238Y11903620D01*
X45627142Y12951239D02*
X45389047Y12236953D01*
X46008095Y12236953D01*
X33324285Y12903620D02*
X33895714Y12903620D01*
X33610000Y11903620D02*
X33610000Y12903620D01*
X34229047Y11903620D02*
X34229047Y12903620D01*
X34229047Y12427429D02*
X34800476Y12427429D01*
X34800476Y11903620D02*
X34800476Y12903620D01*
X35181428Y12903620D02*
X35800476Y12903620D01*
X35467142Y12522667D01*
X35610000Y12522667D01*
X35705238Y12475048D01*
X35752857Y12427429D01*
X35800476Y12332191D01*
X35800476Y12094096D01*
X35752857Y11998858D01*
X35705238Y11951239D01*
X35610000Y11903620D01*
X35324285Y11903620D01*
X35229047Y11951239D01*
X35181428Y11998858D01*
X23164285Y12903620D02*
X23735714Y12903620D01*
X23450000Y11903620D02*
X23450000Y12903620D01*
X24069047Y11903620D02*
X24069047Y12903620D01*
X24069047Y12427429D02*
X24640476Y12427429D01*
X24640476Y11903620D02*
X24640476Y12903620D01*
X25069047Y12808381D02*
X25116666Y12856000D01*
X25211904Y12903620D01*
X25450000Y12903620D01*
X25545238Y12856000D01*
X25592857Y12808381D01*
X25640476Y12713143D01*
X25640476Y12617905D01*
X25592857Y12475048D01*
X25021428Y11903620D01*
X25640476Y11903620D01*
X13004285Y12903620D02*
X13575714Y12903620D01*
X13290000Y11903620D02*
X13290000Y12903620D01*
X13909047Y11903620D02*
X13909047Y12903620D01*
X13909047Y12427429D02*
X14480476Y12427429D01*
X14480476Y11903620D02*
X14480476Y12903620D01*
X15480476Y11903620D02*
X14909047Y11903620D01*
X15194761Y11903620D02*
X15194761Y12903620D01*
X15099523Y12760762D01*
X15004285Y12665524D01*
X14909047Y12617905D01*
X78893333Y55337620D02*
X78560000Y55813810D01*
X78321904Y55337620D02*
X78321904Y56337620D01*
X78702857Y56337620D01*
X78798095Y56290000D01*
X78845714Y56242381D01*
X78893333Y56147143D01*
X78893333Y56004286D01*
X78845714Y55909048D01*
X78798095Y55861429D01*
X78702857Y55813810D01*
X78321904Y55813810D01*
X79464761Y55909048D02*
X79369523Y55956667D01*
X79321904Y56004286D01*
X79274285Y56099524D01*
X79274285Y56147143D01*
X79321904Y56242381D01*
X79369523Y56290000D01*
X79464761Y56337620D01*
X79655238Y56337620D01*
X79750476Y56290000D01*
X79798095Y56242381D01*
X79845714Y56147143D01*
X79845714Y56099524D01*
X79798095Y56004286D01*
X79750476Y55956667D01*
X79655238Y55909048D01*
X79464761Y55909048D01*
X79369523Y55861429D01*
X79321904Y55813810D01*
X79274285Y55718572D01*
X79274285Y55528096D01*
X79321904Y55432858D01*
X79369523Y55385239D01*
X79464761Y55337620D01*
X79655238Y55337620D01*
X79750476Y55385239D01*
X79798095Y55432858D01*
X79845714Y55528096D01*
X79845714Y55718572D01*
X79798095Y55813810D01*
X79750476Y55861429D01*
X79655238Y55909048D01*
X34443333Y49622620D02*
X34110000Y50098810D01*
X33871904Y49622620D02*
X33871904Y50622620D01*
X34252857Y50622620D01*
X34348095Y50575000D01*
X34395714Y50527381D01*
X34443333Y50432143D01*
X34443333Y50289286D01*
X34395714Y50194048D01*
X34348095Y50146429D01*
X34252857Y50098810D01*
X33871904Y50098810D01*
X34776666Y50622620D02*
X35443333Y50622620D01*
X35014761Y49622620D01*
X85878333Y43907620D02*
X85545000Y44383810D01*
X85306904Y43907620D02*
X85306904Y44907620D01*
X85687857Y44907620D01*
X85783095Y44860000D01*
X85830714Y44812381D01*
X85878333Y44717143D01*
X85878333Y44574286D01*
X85830714Y44479048D01*
X85783095Y44431429D01*
X85687857Y44383810D01*
X85306904Y44383810D01*
X86735476Y44907620D02*
X86545000Y44907620D01*
X86449761Y44860000D01*
X86402142Y44812381D01*
X86306904Y44669524D01*
X86259285Y44479048D01*
X86259285Y44098096D01*
X86306904Y44002858D01*
X86354523Y43955239D01*
X86449761Y43907620D01*
X86640238Y43907620D01*
X86735476Y43955239D01*
X86783095Y44002858D01*
X86830714Y44098096D01*
X86830714Y44336191D01*
X86783095Y44431429D01*
X86735476Y44479048D01*
X86640238Y44526667D01*
X86449761Y44526667D01*
X86354523Y44479048D01*
X86306904Y44431429D01*
X86259285Y44336191D01*
X19838333Y47082620D02*
X19505000Y47558810D01*
X19266904Y47082620D02*
X19266904Y48082620D01*
X19647857Y48082620D01*
X19743095Y48035000D01*
X19790714Y47987381D01*
X19838333Y47892143D01*
X19838333Y47749286D01*
X19790714Y47654048D01*
X19743095Y47606429D01*
X19647857Y47558810D01*
X19266904Y47558810D01*
X20743095Y48082620D02*
X20266904Y48082620D01*
X20219285Y47606429D01*
X20266904Y47654048D01*
X20362142Y47701667D01*
X20600238Y47701667D01*
X20695476Y47654048D01*
X20743095Y47606429D01*
X20790714Y47511191D01*
X20790714Y47273096D01*
X20743095Y47177858D01*
X20695476Y47130239D01*
X20600238Y47082620D01*
X20362142Y47082620D01*
X20266904Y47130239D01*
X20219285Y47177858D01*
X19838333Y50257620D02*
X19505000Y50733810D01*
X19266904Y50257620D02*
X19266904Y51257620D01*
X19647857Y51257620D01*
X19743095Y51210000D01*
X19790714Y51162381D01*
X19838333Y51067143D01*
X19838333Y50924286D01*
X19790714Y50829048D01*
X19743095Y50781429D01*
X19647857Y50733810D01*
X19266904Y50733810D01*
X20695476Y50924286D02*
X20695476Y50257620D01*
X20457380Y51305239D02*
X20219285Y50590953D01*
X20838333Y50590953D01*
X85878333Y40097620D02*
X85545000Y40573810D01*
X85306904Y40097620D02*
X85306904Y41097620D01*
X85687857Y41097620D01*
X85783095Y41050000D01*
X85830714Y41002381D01*
X85878333Y40907143D01*
X85878333Y40764286D01*
X85830714Y40669048D01*
X85783095Y40621429D01*
X85687857Y40573810D01*
X85306904Y40573810D01*
X86211666Y41097620D02*
X86830714Y41097620D01*
X86497380Y40716667D01*
X86640238Y40716667D01*
X86735476Y40669048D01*
X86783095Y40621429D01*
X86830714Y40526191D01*
X86830714Y40288096D01*
X86783095Y40192858D01*
X86735476Y40145239D01*
X86640238Y40097620D01*
X86354523Y40097620D01*
X86259285Y40145239D01*
X86211666Y40192858D01*
X85878333Y36922620D02*
X85545000Y37398810D01*
X85306904Y36922620D02*
X85306904Y37922620D01*
X85687857Y37922620D01*
X85783095Y37875000D01*
X85830714Y37827381D01*
X85878333Y37732143D01*
X85878333Y37589286D01*
X85830714Y37494048D01*
X85783095Y37446429D01*
X85687857Y37398810D01*
X85306904Y37398810D01*
X86259285Y37827381D02*
X86306904Y37875000D01*
X86402142Y37922620D01*
X86640238Y37922620D01*
X86735476Y37875000D01*
X86783095Y37827381D01*
X86830714Y37732143D01*
X86830714Y37636905D01*
X86783095Y37494048D01*
X86211666Y36922620D01*
X86830714Y36922620D01*
X14758333Y47082620D02*
X14425000Y47558810D01*
X14186904Y47082620D02*
X14186904Y48082620D01*
X14567857Y48082620D01*
X14663095Y48035000D01*
X14710714Y47987381D01*
X14758333Y47892143D01*
X14758333Y47749286D01*
X14710714Y47654048D01*
X14663095Y47606429D01*
X14567857Y47558810D01*
X14186904Y47558810D01*
X15710714Y47082620D02*
X15139285Y47082620D01*
X15425000Y47082620D02*
X15425000Y48082620D01*
X15329761Y47939762D01*
X15234523Y47844524D01*
X15139285Y47796905D01*
X75789761Y49527381D02*
X75694523Y49575000D01*
X75599285Y49670239D01*
X75456428Y49813096D01*
X75361190Y49860715D01*
X75265952Y49860715D01*
X75313571Y49622620D02*
X75218333Y49670239D01*
X75123095Y49765477D01*
X75075476Y49955953D01*
X75075476Y50289286D01*
X75123095Y50479762D01*
X75218333Y50575000D01*
X75313571Y50622620D01*
X75504047Y50622620D01*
X75599285Y50575000D01*
X75694523Y50479762D01*
X75742142Y50289286D01*
X75742142Y49955953D01*
X75694523Y49765477D01*
X75599285Y49670239D01*
X75504047Y49622620D01*
X75313571Y49622620D01*
X76694523Y49622620D02*
X76123095Y49622620D01*
X76408809Y49622620D02*
X76408809Y50622620D01*
X76313571Y50479762D01*
X76218333Y50384524D01*
X76123095Y50336905D01*
X72059166Y27762620D02*
X72059166Y27048334D01*
X72011547Y26905477D01*
X71916309Y26810239D01*
X71773452Y26762620D01*
X71678214Y26762620D01*
X73059166Y26762620D02*
X72487738Y26762620D01*
X72773452Y26762620D02*
X72773452Y27762620D01*
X72678214Y27619762D01*
X72582976Y27524524D01*
X72487738Y27476905D01*
X61748333Y47177858D02*
X61700714Y47130239D01*
X61557857Y47082620D01*
X61462619Y47082620D01*
X61319761Y47130239D01*
X61224523Y47225477D01*
X61176904Y47320715D01*
X61129285Y47511191D01*
X61129285Y47654048D01*
X61176904Y47844524D01*
X61224523Y47939762D01*
X61319761Y48035000D01*
X61462619Y48082620D01*
X61557857Y48082620D01*
X61700714Y48035000D01*
X61748333Y47987381D01*
X62129285Y47987381D02*
X62176904Y48035000D01*
X62272142Y48082620D01*
X62510238Y48082620D01*
X62605476Y48035000D01*
X62653095Y47987381D01*
X62700714Y47892143D01*
X62700714Y47796905D01*
X62653095Y47654048D01*
X62081666Y47082620D01*
X62700714Y47082620D01*
X74448333Y16062858D02*
X74400714Y16015239D01*
X74257857Y15967620D01*
X74162619Y15967620D01*
X74019761Y16015239D01*
X73924523Y16110477D01*
X73876904Y16205715D01*
X73829285Y16396191D01*
X73829285Y16539048D01*
X73876904Y16729524D01*
X73924523Y16824762D01*
X74019761Y16920000D01*
X74162619Y16967620D01*
X74257857Y16967620D01*
X74400714Y16920000D01*
X74448333Y16872381D01*
X75400714Y15967620D02*
X74829285Y15967620D01*
X75115000Y15967620D02*
X75115000Y16967620D01*
X75019761Y16824762D01*
X74924523Y16729524D01*
X74829285Y16681905D01*
%LPC*%
D12*
X5400000Y50710000D03*
D13*
X5400000Y53250000D03*
D14*
X7940000Y25310000D03*
X7940000Y32930000D03*
X2860000Y25310000D03*
X2860000Y32930000D03*
X7940000Y36105000D03*
X7940000Y43725000D03*
X2860000Y36105000D03*
X2860000Y43725000D03*
D15*
X65725000Y44360000D03*
X42865000Y44360000D03*
X40325000Y44360000D03*
X60645000Y44360000D03*
X20005000Y44360000D03*
X22545000Y44360000D03*
X25085000Y44360000D03*
X27625000Y44360000D03*
X30165000Y44360000D03*
X32705000Y44360000D03*
X35245000Y44360000D03*
X37785000Y44360000D03*
X63185000Y44360000D03*
X58105000Y44360000D03*
X55565000Y44360000D03*
X53025000Y44360000D03*
X50485000Y44360000D03*
X47945000Y44360000D03*
X45405000Y44360000D03*
X65725000Y18960000D03*
X60645000Y18960000D03*
X20005000Y18960000D03*
X22545000Y18960000D03*
X25085000Y18960000D03*
X27625000Y18960000D03*
X30165000Y18960000D03*
X32705000Y18960000D03*
X35245000Y18960000D03*
X37785000Y18960000D03*
X63185000Y18960000D03*
X58105000Y18960000D03*
X55565000Y18960000D03*
X53025000Y18960000D03*
X50485000Y18960000D03*
X47945000Y18960000D03*
X45405000Y18960000D03*
X42865000Y18960000D03*
X40325000Y18960000D03*
D16*
X5000000Y5000000D03*
X95000000Y5000000D03*
X95000000Y60000000D03*
X5000000Y60000000D03*
D12*
X43496000Y60235000D03*
X46036000Y60235000D03*
X48576000Y60235000D03*
X51116000Y60235000D03*
X53656000Y60235000D03*
X56196000Y60235000D03*
X58736000Y60235000D03*
X61276000Y60235000D03*
X63816000Y60235000D03*
X66356000Y60235000D03*
X68896000Y60235000D03*
X71436000Y60235000D03*
X73976000Y60235000D03*
X76516000Y60235000D03*
X79056000Y60235000D03*
D13*
X81596000Y60235000D03*
D17*
X12246000Y29385000D03*
X86946000Y29385000D03*
X12246000Y60135000D03*
X86946000Y60085000D03*
D18*
X77790000Y24040000D03*
X95570000Y16420000D03*
X80330000Y24040000D03*
X93030000Y16420000D03*
X82870000Y24040000D03*
X90490000Y16420000D03*
X85410000Y24040000D03*
X87950000Y16420000D03*
X87950000Y24040000D03*
X85410000Y16420000D03*
X90490000Y24040000D03*
X82870000Y16420000D03*
X93030000Y24040000D03*
X80330000Y16420000D03*
X95570000Y24040000D03*
D19*
X77790000Y16420000D03*
D18*
X58740000Y50075000D03*
X40960000Y57695000D03*
X56200000Y50075000D03*
X43500000Y57695000D03*
X53660000Y50075000D03*
X46040000Y57695000D03*
X51120000Y50075000D03*
X48580000Y57695000D03*
X48580000Y50075000D03*
X51120000Y57695000D03*
X46040000Y50075000D03*
X53660000Y57695000D03*
X43500000Y50075000D03*
X56200000Y57695000D03*
X40960000Y50075000D03*
D19*
X58740000Y57695000D03*
D15*
X80330000Y10387500D03*
X70170000Y10387500D03*
X60010000Y10387500D03*
X49850000Y10387500D03*
X39690000Y10387500D03*
X29530000Y10387500D03*
X19370000Y10387500D03*
X9210000Y10387500D03*
D20*
G36*
X83867405Y8386933D02*
G01*
X83899002Y8382246D01*
X83929988Y8374484D01*
X83960063Y8363723D01*
X83988940Y8350065D01*
X84016338Y8333643D01*
X84041995Y8314615D01*
X84065663Y8293163D01*
X84087115Y8269495D01*
X84106143Y8243838D01*
X84122565Y8216440D01*
X84136223Y8187563D01*
X84146984Y8157488D01*
X84154746Y8126502D01*
X84159433Y8094905D01*
X84161000Y8063000D01*
X84161000Y6512000D01*
X84159433Y6480095D01*
X84154746Y6448498D01*
X84146984Y6417512D01*
X84136223Y6387437D01*
X84122565Y6358560D01*
X84106143Y6331162D01*
X84087115Y6305505D01*
X84065663Y6281837D01*
X84041995Y6260385D01*
X84016338Y6241357D01*
X83988940Y6224935D01*
X83960063Y6211277D01*
X83929988Y6200516D01*
X83899002Y6192754D01*
X83867405Y6188067D01*
X83835500Y6186500D01*
X83184500Y6186500D01*
X83152595Y6188067D01*
X83120998Y6192754D01*
X83090012Y6200516D01*
X83059937Y6211277D01*
X83031060Y6224935D01*
X83003662Y6241357D01*
X82978005Y6260385D01*
X82954337Y6281837D01*
X82932885Y6305505D01*
X82913857Y6331162D01*
X82897435Y6358560D01*
X82883777Y6387437D01*
X82873016Y6417512D01*
X82865254Y6448498D01*
X82860567Y6480095D01*
X82859000Y6512000D01*
X82859000Y8063000D01*
X82860567Y8094905D01*
X82865254Y8126502D01*
X82873016Y8157488D01*
X82883777Y8187563D01*
X82897435Y8216440D01*
X82913857Y8243838D01*
X82932885Y8269495D01*
X82954337Y8293163D01*
X82978005Y8314615D01*
X83003662Y8333643D01*
X83031060Y8350065D01*
X83059937Y8363723D01*
X83090012Y8374484D01*
X83120998Y8382246D01*
X83152595Y8386933D01*
X83184500Y8388500D01*
X83835500Y8388500D01*
X83867405Y8386933D01*
G37*
G36*
X86217405Y11036933D02*
G01*
X86249002Y11032246D01*
X86279988Y11024484D01*
X86310063Y11013723D01*
X86338940Y11000065D01*
X86366338Y10983643D01*
X86391995Y10964615D01*
X86415663Y10943163D01*
X86437115Y10919495D01*
X86456143Y10893838D01*
X86472565Y10866440D01*
X86486223Y10837563D01*
X86496984Y10807488D01*
X86504746Y10776502D01*
X86509433Y10744905D01*
X86511000Y10713000D01*
X86511000Y10062000D01*
X86509433Y10030095D01*
X86504746Y9998498D01*
X86496984Y9967512D01*
X86486223Y9937437D01*
X86472565Y9908560D01*
X86456143Y9881162D01*
X86437115Y9855505D01*
X86415663Y9831837D01*
X86391995Y9810385D01*
X86366338Y9791357D01*
X86338940Y9774935D01*
X86310063Y9761277D01*
X86279988Y9750516D01*
X86249002Y9742754D01*
X86217405Y9738067D01*
X86185500Y9736500D01*
X84634500Y9736500D01*
X84602595Y9738067D01*
X84570998Y9742754D01*
X84540012Y9750516D01*
X84509937Y9761277D01*
X84481060Y9774935D01*
X84453662Y9791357D01*
X84428005Y9810385D01*
X84404337Y9831837D01*
X84382885Y9855505D01*
X84363857Y9881162D01*
X84347435Y9908560D01*
X84333777Y9937437D01*
X84323016Y9967512D01*
X84315254Y9998498D01*
X84310567Y10030095D01*
X84309000Y10062000D01*
X84309000Y10713000D01*
X84310567Y10744905D01*
X84315254Y10776502D01*
X84323016Y10807488D01*
X84333777Y10837563D01*
X84347435Y10866440D01*
X84363857Y10893838D01*
X84382885Y10919495D01*
X84404337Y10943163D01*
X84428005Y10964615D01*
X84453662Y10983643D01*
X84481060Y11000065D01*
X84509937Y11013723D01*
X84540012Y11024484D01*
X84570998Y11032246D01*
X84602595Y11036933D01*
X84634500Y11038500D01*
X86185500Y11038500D01*
X86217405Y11036933D01*
G37*
G36*
X87667405Y8386933D02*
G01*
X87699002Y8382246D01*
X87729988Y8374484D01*
X87760063Y8363723D01*
X87788940Y8350065D01*
X87816338Y8333643D01*
X87841995Y8314615D01*
X87865663Y8293163D01*
X87887115Y8269495D01*
X87906143Y8243838D01*
X87922565Y8216440D01*
X87936223Y8187563D01*
X87946984Y8157488D01*
X87954746Y8126502D01*
X87959433Y8094905D01*
X87961000Y8063000D01*
X87961000Y6512000D01*
X87959433Y6480095D01*
X87954746Y6448498D01*
X87946984Y6417512D01*
X87936223Y6387437D01*
X87922565Y6358560D01*
X87906143Y6331162D01*
X87887115Y6305505D01*
X87865663Y6281837D01*
X87841995Y6260385D01*
X87816338Y6241357D01*
X87788940Y6224935D01*
X87760063Y6211277D01*
X87729988Y6200516D01*
X87699002Y6192754D01*
X87667405Y6188067D01*
X87635500Y6186500D01*
X86984500Y6186500D01*
X86952595Y6188067D01*
X86920998Y6192754D01*
X86890012Y6200516D01*
X86859937Y6211277D01*
X86831060Y6224935D01*
X86803662Y6241357D01*
X86778005Y6260385D01*
X86754337Y6281837D01*
X86732885Y6305505D01*
X86713857Y6331162D01*
X86697435Y6358560D01*
X86683777Y6387437D01*
X86673016Y6417512D01*
X86665254Y6448498D01*
X86660567Y6480095D01*
X86659000Y6512000D01*
X86659000Y8063000D01*
X86660567Y8094905D01*
X86665254Y8126502D01*
X86673016Y8157488D01*
X86683777Y8187563D01*
X86697435Y8216440D01*
X86713857Y8243838D01*
X86732885Y8269495D01*
X86754337Y8293163D01*
X86778005Y8314615D01*
X86803662Y8333643D01*
X86831060Y8350065D01*
X86859937Y8363723D01*
X86890012Y8374484D01*
X86920998Y8382246D01*
X86952595Y8386933D01*
X86984500Y8388500D01*
X87635500Y8388500D01*
X87667405Y8386933D01*
G37*
D21*
X83410000Y2637500D03*
X87410000Y2637500D03*
D20*
G36*
X73707405Y8386933D02*
G01*
X73739002Y8382246D01*
X73769988Y8374484D01*
X73800063Y8363723D01*
X73828940Y8350065D01*
X73856338Y8333643D01*
X73881995Y8314615D01*
X73905663Y8293163D01*
X73927115Y8269495D01*
X73946143Y8243838D01*
X73962565Y8216440D01*
X73976223Y8187563D01*
X73986984Y8157488D01*
X73994746Y8126502D01*
X73999433Y8094905D01*
X74001000Y8063000D01*
X74001000Y6512000D01*
X73999433Y6480095D01*
X73994746Y6448498D01*
X73986984Y6417512D01*
X73976223Y6387437D01*
X73962565Y6358560D01*
X73946143Y6331162D01*
X73927115Y6305505D01*
X73905663Y6281837D01*
X73881995Y6260385D01*
X73856338Y6241357D01*
X73828940Y6224935D01*
X73800063Y6211277D01*
X73769988Y6200516D01*
X73739002Y6192754D01*
X73707405Y6188067D01*
X73675500Y6186500D01*
X73024500Y6186500D01*
X72992595Y6188067D01*
X72960998Y6192754D01*
X72930012Y6200516D01*
X72899937Y6211277D01*
X72871060Y6224935D01*
X72843662Y6241357D01*
X72818005Y6260385D01*
X72794337Y6281837D01*
X72772885Y6305505D01*
X72753857Y6331162D01*
X72737435Y6358560D01*
X72723777Y6387437D01*
X72713016Y6417512D01*
X72705254Y6448498D01*
X72700567Y6480095D01*
X72699000Y6512000D01*
X72699000Y8063000D01*
X72700567Y8094905D01*
X72705254Y8126502D01*
X72713016Y8157488D01*
X72723777Y8187563D01*
X72737435Y8216440D01*
X72753857Y8243838D01*
X72772885Y8269495D01*
X72794337Y8293163D01*
X72818005Y8314615D01*
X72843662Y8333643D01*
X72871060Y8350065D01*
X72899937Y8363723D01*
X72930012Y8374484D01*
X72960998Y8382246D01*
X72992595Y8386933D01*
X73024500Y8388500D01*
X73675500Y8388500D01*
X73707405Y8386933D01*
G37*
G36*
X76057405Y11036933D02*
G01*
X76089002Y11032246D01*
X76119988Y11024484D01*
X76150063Y11013723D01*
X76178940Y11000065D01*
X76206338Y10983643D01*
X76231995Y10964615D01*
X76255663Y10943163D01*
X76277115Y10919495D01*
X76296143Y10893838D01*
X76312565Y10866440D01*
X76326223Y10837563D01*
X76336984Y10807488D01*
X76344746Y10776502D01*
X76349433Y10744905D01*
X76351000Y10713000D01*
X76351000Y10062000D01*
X76349433Y10030095D01*
X76344746Y9998498D01*
X76336984Y9967512D01*
X76326223Y9937437D01*
X76312565Y9908560D01*
X76296143Y9881162D01*
X76277115Y9855505D01*
X76255663Y9831837D01*
X76231995Y9810385D01*
X76206338Y9791357D01*
X76178940Y9774935D01*
X76150063Y9761277D01*
X76119988Y9750516D01*
X76089002Y9742754D01*
X76057405Y9738067D01*
X76025500Y9736500D01*
X74474500Y9736500D01*
X74442595Y9738067D01*
X74410998Y9742754D01*
X74380012Y9750516D01*
X74349937Y9761277D01*
X74321060Y9774935D01*
X74293662Y9791357D01*
X74268005Y9810385D01*
X74244337Y9831837D01*
X74222885Y9855505D01*
X74203857Y9881162D01*
X74187435Y9908560D01*
X74173777Y9937437D01*
X74163016Y9967512D01*
X74155254Y9998498D01*
X74150567Y10030095D01*
X74149000Y10062000D01*
X74149000Y10713000D01*
X74150567Y10744905D01*
X74155254Y10776502D01*
X74163016Y10807488D01*
X74173777Y10837563D01*
X74187435Y10866440D01*
X74203857Y10893838D01*
X74222885Y10919495D01*
X74244337Y10943163D01*
X74268005Y10964615D01*
X74293662Y10983643D01*
X74321060Y11000065D01*
X74349937Y11013723D01*
X74380012Y11024484D01*
X74410998Y11032246D01*
X74442595Y11036933D01*
X74474500Y11038500D01*
X76025500Y11038500D01*
X76057405Y11036933D01*
G37*
G36*
X77507405Y8386933D02*
G01*
X77539002Y8382246D01*
X77569988Y8374484D01*
X77600063Y8363723D01*
X77628940Y8350065D01*
X77656338Y8333643D01*
X77681995Y8314615D01*
X77705663Y8293163D01*
X77727115Y8269495D01*
X77746143Y8243838D01*
X77762565Y8216440D01*
X77776223Y8187563D01*
X77786984Y8157488D01*
X77794746Y8126502D01*
X77799433Y8094905D01*
X77801000Y8063000D01*
X77801000Y6512000D01*
X77799433Y6480095D01*
X77794746Y6448498D01*
X77786984Y6417512D01*
X77776223Y6387437D01*
X77762565Y6358560D01*
X77746143Y6331162D01*
X77727115Y6305505D01*
X77705663Y6281837D01*
X77681995Y6260385D01*
X77656338Y6241357D01*
X77628940Y6224935D01*
X77600063Y6211277D01*
X77569988Y6200516D01*
X77539002Y6192754D01*
X77507405Y6188067D01*
X77475500Y6186500D01*
X76824500Y6186500D01*
X76792595Y6188067D01*
X76760998Y6192754D01*
X76730012Y6200516D01*
X76699937Y6211277D01*
X76671060Y6224935D01*
X76643662Y6241357D01*
X76618005Y6260385D01*
X76594337Y6281837D01*
X76572885Y6305505D01*
X76553857Y6331162D01*
X76537435Y6358560D01*
X76523777Y6387437D01*
X76513016Y6417512D01*
X76505254Y6448498D01*
X76500567Y6480095D01*
X76499000Y6512000D01*
X76499000Y8063000D01*
X76500567Y8094905D01*
X76505254Y8126502D01*
X76513016Y8157488D01*
X76523777Y8187563D01*
X76537435Y8216440D01*
X76553857Y8243838D01*
X76572885Y8269495D01*
X76594337Y8293163D01*
X76618005Y8314615D01*
X76643662Y8333643D01*
X76671060Y8350065D01*
X76699937Y8363723D01*
X76730012Y8374484D01*
X76760998Y8382246D01*
X76792595Y8386933D01*
X76824500Y8388500D01*
X77475500Y8388500D01*
X77507405Y8386933D01*
G37*
D21*
X73250000Y2637500D03*
X77250000Y2637500D03*
D20*
G36*
X63547405Y8386933D02*
G01*
X63579002Y8382246D01*
X63609988Y8374484D01*
X63640063Y8363723D01*
X63668940Y8350065D01*
X63696338Y8333643D01*
X63721995Y8314615D01*
X63745663Y8293163D01*
X63767115Y8269495D01*
X63786143Y8243838D01*
X63802565Y8216440D01*
X63816223Y8187563D01*
X63826984Y8157488D01*
X63834746Y8126502D01*
X63839433Y8094905D01*
X63841000Y8063000D01*
X63841000Y6512000D01*
X63839433Y6480095D01*
X63834746Y6448498D01*
X63826984Y6417512D01*
X63816223Y6387437D01*
X63802565Y6358560D01*
X63786143Y6331162D01*
X63767115Y6305505D01*
X63745663Y6281837D01*
X63721995Y6260385D01*
X63696338Y6241357D01*
X63668940Y6224935D01*
X63640063Y6211277D01*
X63609988Y6200516D01*
X63579002Y6192754D01*
X63547405Y6188067D01*
X63515500Y6186500D01*
X62864500Y6186500D01*
X62832595Y6188067D01*
X62800998Y6192754D01*
X62770012Y6200516D01*
X62739937Y6211277D01*
X62711060Y6224935D01*
X62683662Y6241357D01*
X62658005Y6260385D01*
X62634337Y6281837D01*
X62612885Y6305505D01*
X62593857Y6331162D01*
X62577435Y6358560D01*
X62563777Y6387437D01*
X62553016Y6417512D01*
X62545254Y6448498D01*
X62540567Y6480095D01*
X62539000Y6512000D01*
X62539000Y8063000D01*
X62540567Y8094905D01*
X62545254Y8126502D01*
X62553016Y8157488D01*
X62563777Y8187563D01*
X62577435Y8216440D01*
X62593857Y8243838D01*
X62612885Y8269495D01*
X62634337Y8293163D01*
X62658005Y8314615D01*
X62683662Y8333643D01*
X62711060Y8350065D01*
X62739937Y8363723D01*
X62770012Y8374484D01*
X62800998Y8382246D01*
X62832595Y8386933D01*
X62864500Y8388500D01*
X63515500Y8388500D01*
X63547405Y8386933D01*
G37*
G36*
X65897405Y11036933D02*
G01*
X65929002Y11032246D01*
X65959988Y11024484D01*
X65990063Y11013723D01*
X66018940Y11000065D01*
X66046338Y10983643D01*
X66071995Y10964615D01*
X66095663Y10943163D01*
X66117115Y10919495D01*
X66136143Y10893838D01*
X66152565Y10866440D01*
X66166223Y10837563D01*
X66176984Y10807488D01*
X66184746Y10776502D01*
X66189433Y10744905D01*
X66191000Y10713000D01*
X66191000Y10062000D01*
X66189433Y10030095D01*
X66184746Y9998498D01*
X66176984Y9967512D01*
X66166223Y9937437D01*
X66152565Y9908560D01*
X66136143Y9881162D01*
X66117115Y9855505D01*
X66095663Y9831837D01*
X66071995Y9810385D01*
X66046338Y9791357D01*
X66018940Y9774935D01*
X65990063Y9761277D01*
X65959988Y9750516D01*
X65929002Y9742754D01*
X65897405Y9738067D01*
X65865500Y9736500D01*
X64314500Y9736500D01*
X64282595Y9738067D01*
X64250998Y9742754D01*
X64220012Y9750516D01*
X64189937Y9761277D01*
X64161060Y9774935D01*
X64133662Y9791357D01*
X64108005Y9810385D01*
X64084337Y9831837D01*
X64062885Y9855505D01*
X64043857Y9881162D01*
X64027435Y9908560D01*
X64013777Y9937437D01*
X64003016Y9967512D01*
X63995254Y9998498D01*
X63990567Y10030095D01*
X63989000Y10062000D01*
X63989000Y10713000D01*
X63990567Y10744905D01*
X63995254Y10776502D01*
X64003016Y10807488D01*
X64013777Y10837563D01*
X64027435Y10866440D01*
X64043857Y10893838D01*
X64062885Y10919495D01*
X64084337Y10943163D01*
X64108005Y10964615D01*
X64133662Y10983643D01*
X64161060Y11000065D01*
X64189937Y11013723D01*
X64220012Y11024484D01*
X64250998Y11032246D01*
X64282595Y11036933D01*
X64314500Y11038500D01*
X65865500Y11038500D01*
X65897405Y11036933D01*
G37*
G36*
X67347405Y8386933D02*
G01*
X67379002Y8382246D01*
X67409988Y8374484D01*
X67440063Y8363723D01*
X67468940Y8350065D01*
X67496338Y8333643D01*
X67521995Y8314615D01*
X67545663Y8293163D01*
X67567115Y8269495D01*
X67586143Y8243838D01*
X67602565Y8216440D01*
X67616223Y8187563D01*
X67626984Y8157488D01*
X67634746Y8126502D01*
X67639433Y8094905D01*
X67641000Y8063000D01*
X67641000Y6512000D01*
X67639433Y6480095D01*
X67634746Y6448498D01*
X67626984Y6417512D01*
X67616223Y6387437D01*
X67602565Y6358560D01*
X67586143Y6331162D01*
X67567115Y6305505D01*
X67545663Y6281837D01*
X67521995Y6260385D01*
X67496338Y6241357D01*
X67468940Y6224935D01*
X67440063Y6211277D01*
X67409988Y6200516D01*
X67379002Y6192754D01*
X67347405Y6188067D01*
X67315500Y6186500D01*
X66664500Y6186500D01*
X66632595Y6188067D01*
X66600998Y6192754D01*
X66570012Y6200516D01*
X66539937Y6211277D01*
X66511060Y6224935D01*
X66483662Y6241357D01*
X66458005Y6260385D01*
X66434337Y6281837D01*
X66412885Y6305505D01*
X66393857Y6331162D01*
X66377435Y6358560D01*
X66363777Y6387437D01*
X66353016Y6417512D01*
X66345254Y6448498D01*
X66340567Y6480095D01*
X66339000Y6512000D01*
X66339000Y8063000D01*
X66340567Y8094905D01*
X66345254Y8126502D01*
X66353016Y8157488D01*
X66363777Y8187563D01*
X66377435Y8216440D01*
X66393857Y8243838D01*
X66412885Y8269495D01*
X66434337Y8293163D01*
X66458005Y8314615D01*
X66483662Y8333643D01*
X66511060Y8350065D01*
X66539937Y8363723D01*
X66570012Y8374484D01*
X66600998Y8382246D01*
X66632595Y8386933D01*
X66664500Y8388500D01*
X67315500Y8388500D01*
X67347405Y8386933D01*
G37*
D21*
X63090000Y2637500D03*
X67090000Y2637500D03*
D20*
G36*
X53387405Y8386933D02*
G01*
X53419002Y8382246D01*
X53449988Y8374484D01*
X53480063Y8363723D01*
X53508940Y8350065D01*
X53536338Y8333643D01*
X53561995Y8314615D01*
X53585663Y8293163D01*
X53607115Y8269495D01*
X53626143Y8243838D01*
X53642565Y8216440D01*
X53656223Y8187563D01*
X53666984Y8157488D01*
X53674746Y8126502D01*
X53679433Y8094905D01*
X53681000Y8063000D01*
X53681000Y6512000D01*
X53679433Y6480095D01*
X53674746Y6448498D01*
X53666984Y6417512D01*
X53656223Y6387437D01*
X53642565Y6358560D01*
X53626143Y6331162D01*
X53607115Y6305505D01*
X53585663Y6281837D01*
X53561995Y6260385D01*
X53536338Y6241357D01*
X53508940Y6224935D01*
X53480063Y6211277D01*
X53449988Y6200516D01*
X53419002Y6192754D01*
X53387405Y6188067D01*
X53355500Y6186500D01*
X52704500Y6186500D01*
X52672595Y6188067D01*
X52640998Y6192754D01*
X52610012Y6200516D01*
X52579937Y6211277D01*
X52551060Y6224935D01*
X52523662Y6241357D01*
X52498005Y6260385D01*
X52474337Y6281837D01*
X52452885Y6305505D01*
X52433857Y6331162D01*
X52417435Y6358560D01*
X52403777Y6387437D01*
X52393016Y6417512D01*
X52385254Y6448498D01*
X52380567Y6480095D01*
X52379000Y6512000D01*
X52379000Y8063000D01*
X52380567Y8094905D01*
X52385254Y8126502D01*
X52393016Y8157488D01*
X52403777Y8187563D01*
X52417435Y8216440D01*
X52433857Y8243838D01*
X52452885Y8269495D01*
X52474337Y8293163D01*
X52498005Y8314615D01*
X52523662Y8333643D01*
X52551060Y8350065D01*
X52579937Y8363723D01*
X52610012Y8374484D01*
X52640998Y8382246D01*
X52672595Y8386933D01*
X52704500Y8388500D01*
X53355500Y8388500D01*
X53387405Y8386933D01*
G37*
G36*
X55737405Y11036933D02*
G01*
X55769002Y11032246D01*
X55799988Y11024484D01*
X55830063Y11013723D01*
X55858940Y11000065D01*
X55886338Y10983643D01*
X55911995Y10964615D01*
X55935663Y10943163D01*
X55957115Y10919495D01*
X55976143Y10893838D01*
X55992565Y10866440D01*
X56006223Y10837563D01*
X56016984Y10807488D01*
X56024746Y10776502D01*
X56029433Y10744905D01*
X56031000Y10713000D01*
X56031000Y10062000D01*
X56029433Y10030095D01*
X56024746Y9998498D01*
X56016984Y9967512D01*
X56006223Y9937437D01*
X55992565Y9908560D01*
X55976143Y9881162D01*
X55957115Y9855505D01*
X55935663Y9831837D01*
X55911995Y9810385D01*
X55886338Y9791357D01*
X55858940Y9774935D01*
X55830063Y9761277D01*
X55799988Y9750516D01*
X55769002Y9742754D01*
X55737405Y9738067D01*
X55705500Y9736500D01*
X54154500Y9736500D01*
X54122595Y9738067D01*
X54090998Y9742754D01*
X54060012Y9750516D01*
X54029937Y9761277D01*
X54001060Y9774935D01*
X53973662Y9791357D01*
X53948005Y9810385D01*
X53924337Y9831837D01*
X53902885Y9855505D01*
X53883857Y9881162D01*
X53867435Y9908560D01*
X53853777Y9937437D01*
X53843016Y9967512D01*
X53835254Y9998498D01*
X53830567Y10030095D01*
X53829000Y10062000D01*
X53829000Y10713000D01*
X53830567Y10744905D01*
X53835254Y10776502D01*
X53843016Y10807488D01*
X53853777Y10837563D01*
X53867435Y10866440D01*
X53883857Y10893838D01*
X53902885Y10919495D01*
X53924337Y10943163D01*
X53948005Y10964615D01*
X53973662Y10983643D01*
X54001060Y11000065D01*
X54029937Y11013723D01*
X54060012Y11024484D01*
X54090998Y11032246D01*
X54122595Y11036933D01*
X54154500Y11038500D01*
X55705500Y11038500D01*
X55737405Y11036933D01*
G37*
G36*
X57187405Y8386933D02*
G01*
X57219002Y8382246D01*
X57249988Y8374484D01*
X57280063Y8363723D01*
X57308940Y8350065D01*
X57336338Y8333643D01*
X57361995Y8314615D01*
X57385663Y8293163D01*
X57407115Y8269495D01*
X57426143Y8243838D01*
X57442565Y8216440D01*
X57456223Y8187563D01*
X57466984Y8157488D01*
X57474746Y8126502D01*
X57479433Y8094905D01*
X57481000Y8063000D01*
X57481000Y6512000D01*
X57479433Y6480095D01*
X57474746Y6448498D01*
X57466984Y6417512D01*
X57456223Y6387437D01*
X57442565Y6358560D01*
X57426143Y6331162D01*
X57407115Y6305505D01*
X57385663Y6281837D01*
X57361995Y6260385D01*
X57336338Y6241357D01*
X57308940Y6224935D01*
X57280063Y6211277D01*
X57249988Y6200516D01*
X57219002Y6192754D01*
X57187405Y6188067D01*
X57155500Y6186500D01*
X56504500Y6186500D01*
X56472595Y6188067D01*
X56440998Y6192754D01*
X56410012Y6200516D01*
X56379937Y6211277D01*
X56351060Y6224935D01*
X56323662Y6241357D01*
X56298005Y6260385D01*
X56274337Y6281837D01*
X56252885Y6305505D01*
X56233857Y6331162D01*
X56217435Y6358560D01*
X56203777Y6387437D01*
X56193016Y6417512D01*
X56185254Y6448498D01*
X56180567Y6480095D01*
X56179000Y6512000D01*
X56179000Y8063000D01*
X56180567Y8094905D01*
X56185254Y8126502D01*
X56193016Y8157488D01*
X56203777Y8187563D01*
X56217435Y8216440D01*
X56233857Y8243838D01*
X56252885Y8269495D01*
X56274337Y8293163D01*
X56298005Y8314615D01*
X56323662Y8333643D01*
X56351060Y8350065D01*
X56379937Y8363723D01*
X56410012Y8374484D01*
X56440998Y8382246D01*
X56472595Y8386933D01*
X56504500Y8388500D01*
X57155500Y8388500D01*
X57187405Y8386933D01*
G37*
D21*
X52930000Y2637500D03*
X56930000Y2637500D03*
D20*
G36*
X43227405Y8386933D02*
G01*
X43259002Y8382246D01*
X43289988Y8374484D01*
X43320063Y8363723D01*
X43348940Y8350065D01*
X43376338Y8333643D01*
X43401995Y8314615D01*
X43425663Y8293163D01*
X43447115Y8269495D01*
X43466143Y8243838D01*
X43482565Y8216440D01*
X43496223Y8187563D01*
X43506984Y8157488D01*
X43514746Y8126502D01*
X43519433Y8094905D01*
X43521000Y8063000D01*
X43521000Y6512000D01*
X43519433Y6480095D01*
X43514746Y6448498D01*
X43506984Y6417512D01*
X43496223Y6387437D01*
X43482565Y6358560D01*
X43466143Y6331162D01*
X43447115Y6305505D01*
X43425663Y6281837D01*
X43401995Y6260385D01*
X43376338Y6241357D01*
X43348940Y6224935D01*
X43320063Y6211277D01*
X43289988Y6200516D01*
X43259002Y6192754D01*
X43227405Y6188067D01*
X43195500Y6186500D01*
X42544500Y6186500D01*
X42512595Y6188067D01*
X42480998Y6192754D01*
X42450012Y6200516D01*
X42419937Y6211277D01*
X42391060Y6224935D01*
X42363662Y6241357D01*
X42338005Y6260385D01*
X42314337Y6281837D01*
X42292885Y6305505D01*
X42273857Y6331162D01*
X42257435Y6358560D01*
X42243777Y6387437D01*
X42233016Y6417512D01*
X42225254Y6448498D01*
X42220567Y6480095D01*
X42219000Y6512000D01*
X42219000Y8063000D01*
X42220567Y8094905D01*
X42225254Y8126502D01*
X42233016Y8157488D01*
X42243777Y8187563D01*
X42257435Y8216440D01*
X42273857Y8243838D01*
X42292885Y8269495D01*
X42314337Y8293163D01*
X42338005Y8314615D01*
X42363662Y8333643D01*
X42391060Y8350065D01*
X42419937Y8363723D01*
X42450012Y8374484D01*
X42480998Y8382246D01*
X42512595Y8386933D01*
X42544500Y8388500D01*
X43195500Y8388500D01*
X43227405Y8386933D01*
G37*
G36*
X45577405Y11036933D02*
G01*
X45609002Y11032246D01*
X45639988Y11024484D01*
X45670063Y11013723D01*
X45698940Y11000065D01*
X45726338Y10983643D01*
X45751995Y10964615D01*
X45775663Y10943163D01*
X45797115Y10919495D01*
X45816143Y10893838D01*
X45832565Y10866440D01*
X45846223Y10837563D01*
X45856984Y10807488D01*
X45864746Y10776502D01*
X45869433Y10744905D01*
X45871000Y10713000D01*
X45871000Y10062000D01*
X45869433Y10030095D01*
X45864746Y9998498D01*
X45856984Y9967512D01*
X45846223Y9937437D01*
X45832565Y9908560D01*
X45816143Y9881162D01*
X45797115Y9855505D01*
X45775663Y9831837D01*
X45751995Y9810385D01*
X45726338Y9791357D01*
X45698940Y9774935D01*
X45670063Y9761277D01*
X45639988Y9750516D01*
X45609002Y9742754D01*
X45577405Y9738067D01*
X45545500Y9736500D01*
X43994500Y9736500D01*
X43962595Y9738067D01*
X43930998Y9742754D01*
X43900012Y9750516D01*
X43869937Y9761277D01*
X43841060Y9774935D01*
X43813662Y9791357D01*
X43788005Y9810385D01*
X43764337Y9831837D01*
X43742885Y9855505D01*
X43723857Y9881162D01*
X43707435Y9908560D01*
X43693777Y9937437D01*
X43683016Y9967512D01*
X43675254Y9998498D01*
X43670567Y10030095D01*
X43669000Y10062000D01*
X43669000Y10713000D01*
X43670567Y10744905D01*
X43675254Y10776502D01*
X43683016Y10807488D01*
X43693777Y10837563D01*
X43707435Y10866440D01*
X43723857Y10893838D01*
X43742885Y10919495D01*
X43764337Y10943163D01*
X43788005Y10964615D01*
X43813662Y10983643D01*
X43841060Y11000065D01*
X43869937Y11013723D01*
X43900012Y11024484D01*
X43930998Y11032246D01*
X43962595Y11036933D01*
X43994500Y11038500D01*
X45545500Y11038500D01*
X45577405Y11036933D01*
G37*
G36*
X47027405Y8386933D02*
G01*
X47059002Y8382246D01*
X47089988Y8374484D01*
X47120063Y8363723D01*
X47148940Y8350065D01*
X47176338Y8333643D01*
X47201995Y8314615D01*
X47225663Y8293163D01*
X47247115Y8269495D01*
X47266143Y8243838D01*
X47282565Y8216440D01*
X47296223Y8187563D01*
X47306984Y8157488D01*
X47314746Y8126502D01*
X47319433Y8094905D01*
X47321000Y8063000D01*
X47321000Y6512000D01*
X47319433Y6480095D01*
X47314746Y6448498D01*
X47306984Y6417512D01*
X47296223Y6387437D01*
X47282565Y6358560D01*
X47266143Y6331162D01*
X47247115Y6305505D01*
X47225663Y6281837D01*
X47201995Y6260385D01*
X47176338Y6241357D01*
X47148940Y6224935D01*
X47120063Y6211277D01*
X47089988Y6200516D01*
X47059002Y6192754D01*
X47027405Y6188067D01*
X46995500Y6186500D01*
X46344500Y6186500D01*
X46312595Y6188067D01*
X46280998Y6192754D01*
X46250012Y6200516D01*
X46219937Y6211277D01*
X46191060Y6224935D01*
X46163662Y6241357D01*
X46138005Y6260385D01*
X46114337Y6281837D01*
X46092885Y6305505D01*
X46073857Y6331162D01*
X46057435Y6358560D01*
X46043777Y6387437D01*
X46033016Y6417512D01*
X46025254Y6448498D01*
X46020567Y6480095D01*
X46019000Y6512000D01*
X46019000Y8063000D01*
X46020567Y8094905D01*
X46025254Y8126502D01*
X46033016Y8157488D01*
X46043777Y8187563D01*
X46057435Y8216440D01*
X46073857Y8243838D01*
X46092885Y8269495D01*
X46114337Y8293163D01*
X46138005Y8314615D01*
X46163662Y8333643D01*
X46191060Y8350065D01*
X46219937Y8363723D01*
X46250012Y8374484D01*
X46280998Y8382246D01*
X46312595Y8386933D01*
X46344500Y8388500D01*
X46995500Y8388500D01*
X47027405Y8386933D01*
G37*
D21*
X42770000Y2637500D03*
X46770000Y2637500D03*
D20*
G36*
X33067405Y8386933D02*
G01*
X33099002Y8382246D01*
X33129988Y8374484D01*
X33160063Y8363723D01*
X33188940Y8350065D01*
X33216338Y8333643D01*
X33241995Y8314615D01*
X33265663Y8293163D01*
X33287115Y8269495D01*
X33306143Y8243838D01*
X33322565Y8216440D01*
X33336223Y8187563D01*
X33346984Y8157488D01*
X33354746Y8126502D01*
X33359433Y8094905D01*
X33361000Y8063000D01*
X33361000Y6512000D01*
X33359433Y6480095D01*
X33354746Y6448498D01*
X33346984Y6417512D01*
X33336223Y6387437D01*
X33322565Y6358560D01*
X33306143Y6331162D01*
X33287115Y6305505D01*
X33265663Y6281837D01*
X33241995Y6260385D01*
X33216338Y6241357D01*
X33188940Y6224935D01*
X33160063Y6211277D01*
X33129988Y6200516D01*
X33099002Y6192754D01*
X33067405Y6188067D01*
X33035500Y6186500D01*
X32384500Y6186500D01*
X32352595Y6188067D01*
X32320998Y6192754D01*
X32290012Y6200516D01*
X32259937Y6211277D01*
X32231060Y6224935D01*
X32203662Y6241357D01*
X32178005Y6260385D01*
X32154337Y6281837D01*
X32132885Y6305505D01*
X32113857Y6331162D01*
X32097435Y6358560D01*
X32083777Y6387437D01*
X32073016Y6417512D01*
X32065254Y6448498D01*
X32060567Y6480095D01*
X32059000Y6512000D01*
X32059000Y8063000D01*
X32060567Y8094905D01*
X32065254Y8126502D01*
X32073016Y8157488D01*
X32083777Y8187563D01*
X32097435Y8216440D01*
X32113857Y8243838D01*
X32132885Y8269495D01*
X32154337Y8293163D01*
X32178005Y8314615D01*
X32203662Y8333643D01*
X32231060Y8350065D01*
X32259937Y8363723D01*
X32290012Y8374484D01*
X32320998Y8382246D01*
X32352595Y8386933D01*
X32384500Y8388500D01*
X33035500Y8388500D01*
X33067405Y8386933D01*
G37*
G36*
X35417405Y11036933D02*
G01*
X35449002Y11032246D01*
X35479988Y11024484D01*
X35510063Y11013723D01*
X35538940Y11000065D01*
X35566338Y10983643D01*
X35591995Y10964615D01*
X35615663Y10943163D01*
X35637115Y10919495D01*
X35656143Y10893838D01*
X35672565Y10866440D01*
X35686223Y10837563D01*
X35696984Y10807488D01*
X35704746Y10776502D01*
X35709433Y10744905D01*
X35711000Y10713000D01*
X35711000Y10062000D01*
X35709433Y10030095D01*
X35704746Y9998498D01*
X35696984Y9967512D01*
X35686223Y9937437D01*
X35672565Y9908560D01*
X35656143Y9881162D01*
X35637115Y9855505D01*
X35615663Y9831837D01*
X35591995Y9810385D01*
X35566338Y9791357D01*
X35538940Y9774935D01*
X35510063Y9761277D01*
X35479988Y9750516D01*
X35449002Y9742754D01*
X35417405Y9738067D01*
X35385500Y9736500D01*
X33834500Y9736500D01*
X33802595Y9738067D01*
X33770998Y9742754D01*
X33740012Y9750516D01*
X33709937Y9761277D01*
X33681060Y9774935D01*
X33653662Y9791357D01*
X33628005Y9810385D01*
X33604337Y9831837D01*
X33582885Y9855505D01*
X33563857Y9881162D01*
X33547435Y9908560D01*
X33533777Y9937437D01*
X33523016Y9967512D01*
X33515254Y9998498D01*
X33510567Y10030095D01*
X33509000Y10062000D01*
X33509000Y10713000D01*
X33510567Y10744905D01*
X33515254Y10776502D01*
X33523016Y10807488D01*
X33533777Y10837563D01*
X33547435Y10866440D01*
X33563857Y10893838D01*
X33582885Y10919495D01*
X33604337Y10943163D01*
X33628005Y10964615D01*
X33653662Y10983643D01*
X33681060Y11000065D01*
X33709937Y11013723D01*
X33740012Y11024484D01*
X33770998Y11032246D01*
X33802595Y11036933D01*
X33834500Y11038500D01*
X35385500Y11038500D01*
X35417405Y11036933D01*
G37*
G36*
X36867405Y8386933D02*
G01*
X36899002Y8382246D01*
X36929988Y8374484D01*
X36960063Y8363723D01*
X36988940Y8350065D01*
X37016338Y8333643D01*
X37041995Y8314615D01*
X37065663Y8293163D01*
X37087115Y8269495D01*
X37106143Y8243838D01*
X37122565Y8216440D01*
X37136223Y8187563D01*
X37146984Y8157488D01*
X37154746Y8126502D01*
X37159433Y8094905D01*
X37161000Y8063000D01*
X37161000Y6512000D01*
X37159433Y6480095D01*
X37154746Y6448498D01*
X37146984Y6417512D01*
X37136223Y6387437D01*
X37122565Y6358560D01*
X37106143Y6331162D01*
X37087115Y6305505D01*
X37065663Y6281837D01*
X37041995Y6260385D01*
X37016338Y6241357D01*
X36988940Y6224935D01*
X36960063Y6211277D01*
X36929988Y6200516D01*
X36899002Y6192754D01*
X36867405Y6188067D01*
X36835500Y6186500D01*
X36184500Y6186500D01*
X36152595Y6188067D01*
X36120998Y6192754D01*
X36090012Y6200516D01*
X36059937Y6211277D01*
X36031060Y6224935D01*
X36003662Y6241357D01*
X35978005Y6260385D01*
X35954337Y6281837D01*
X35932885Y6305505D01*
X35913857Y6331162D01*
X35897435Y6358560D01*
X35883777Y6387437D01*
X35873016Y6417512D01*
X35865254Y6448498D01*
X35860567Y6480095D01*
X35859000Y6512000D01*
X35859000Y8063000D01*
X35860567Y8094905D01*
X35865254Y8126502D01*
X35873016Y8157488D01*
X35883777Y8187563D01*
X35897435Y8216440D01*
X35913857Y8243838D01*
X35932885Y8269495D01*
X35954337Y8293163D01*
X35978005Y8314615D01*
X36003662Y8333643D01*
X36031060Y8350065D01*
X36059937Y8363723D01*
X36090012Y8374484D01*
X36120998Y8382246D01*
X36152595Y8386933D01*
X36184500Y8388500D01*
X36835500Y8388500D01*
X36867405Y8386933D01*
G37*
D21*
X32610000Y2637500D03*
X36610000Y2637500D03*
D20*
G36*
X22907405Y8386933D02*
G01*
X22939002Y8382246D01*
X22969988Y8374484D01*
X23000063Y8363723D01*
X23028940Y8350065D01*
X23056338Y8333643D01*
X23081995Y8314615D01*
X23105663Y8293163D01*
X23127115Y8269495D01*
X23146143Y8243838D01*
X23162565Y8216440D01*
X23176223Y8187563D01*
X23186984Y8157488D01*
X23194746Y8126502D01*
X23199433Y8094905D01*
X23201000Y8063000D01*
X23201000Y6512000D01*
X23199433Y6480095D01*
X23194746Y6448498D01*
X23186984Y6417512D01*
X23176223Y6387437D01*
X23162565Y6358560D01*
X23146143Y6331162D01*
X23127115Y6305505D01*
X23105663Y6281837D01*
X23081995Y6260385D01*
X23056338Y6241357D01*
X23028940Y6224935D01*
X23000063Y6211277D01*
X22969988Y6200516D01*
X22939002Y6192754D01*
X22907405Y6188067D01*
X22875500Y6186500D01*
X22224500Y6186500D01*
X22192595Y6188067D01*
X22160998Y6192754D01*
X22130012Y6200516D01*
X22099937Y6211277D01*
X22071060Y6224935D01*
X22043662Y6241357D01*
X22018005Y6260385D01*
X21994337Y6281837D01*
X21972885Y6305505D01*
X21953857Y6331162D01*
X21937435Y6358560D01*
X21923777Y6387437D01*
X21913016Y6417512D01*
X21905254Y6448498D01*
X21900567Y6480095D01*
X21899000Y6512000D01*
X21899000Y8063000D01*
X21900567Y8094905D01*
X21905254Y8126502D01*
X21913016Y8157488D01*
X21923777Y8187563D01*
X21937435Y8216440D01*
X21953857Y8243838D01*
X21972885Y8269495D01*
X21994337Y8293163D01*
X22018005Y8314615D01*
X22043662Y8333643D01*
X22071060Y8350065D01*
X22099937Y8363723D01*
X22130012Y8374484D01*
X22160998Y8382246D01*
X22192595Y8386933D01*
X22224500Y8388500D01*
X22875500Y8388500D01*
X22907405Y8386933D01*
G37*
G36*
X25257405Y11036933D02*
G01*
X25289002Y11032246D01*
X25319988Y11024484D01*
X25350063Y11013723D01*
X25378940Y11000065D01*
X25406338Y10983643D01*
X25431995Y10964615D01*
X25455663Y10943163D01*
X25477115Y10919495D01*
X25496143Y10893838D01*
X25512565Y10866440D01*
X25526223Y10837563D01*
X25536984Y10807488D01*
X25544746Y10776502D01*
X25549433Y10744905D01*
X25551000Y10713000D01*
X25551000Y10062000D01*
X25549433Y10030095D01*
X25544746Y9998498D01*
X25536984Y9967512D01*
X25526223Y9937437D01*
X25512565Y9908560D01*
X25496143Y9881162D01*
X25477115Y9855505D01*
X25455663Y9831837D01*
X25431995Y9810385D01*
X25406338Y9791357D01*
X25378940Y9774935D01*
X25350063Y9761277D01*
X25319988Y9750516D01*
X25289002Y9742754D01*
X25257405Y9738067D01*
X25225500Y9736500D01*
X23674500Y9736500D01*
X23642595Y9738067D01*
X23610998Y9742754D01*
X23580012Y9750516D01*
X23549937Y9761277D01*
X23521060Y9774935D01*
X23493662Y9791357D01*
X23468005Y9810385D01*
X23444337Y9831837D01*
X23422885Y9855505D01*
X23403857Y9881162D01*
X23387435Y9908560D01*
X23373777Y9937437D01*
X23363016Y9967512D01*
X23355254Y9998498D01*
X23350567Y10030095D01*
X23349000Y10062000D01*
X23349000Y10713000D01*
X23350567Y10744905D01*
X23355254Y10776502D01*
X23363016Y10807488D01*
X23373777Y10837563D01*
X23387435Y10866440D01*
X23403857Y10893838D01*
X23422885Y10919495D01*
X23444337Y10943163D01*
X23468005Y10964615D01*
X23493662Y10983643D01*
X23521060Y11000065D01*
X23549937Y11013723D01*
X23580012Y11024484D01*
X23610998Y11032246D01*
X23642595Y11036933D01*
X23674500Y11038500D01*
X25225500Y11038500D01*
X25257405Y11036933D01*
G37*
G36*
X26707405Y8386933D02*
G01*
X26739002Y8382246D01*
X26769988Y8374484D01*
X26800063Y8363723D01*
X26828940Y8350065D01*
X26856338Y8333643D01*
X26881995Y8314615D01*
X26905663Y8293163D01*
X26927115Y8269495D01*
X26946143Y8243838D01*
X26962565Y8216440D01*
X26976223Y8187563D01*
X26986984Y8157488D01*
X26994746Y8126502D01*
X26999433Y8094905D01*
X27001000Y8063000D01*
X27001000Y6512000D01*
X26999433Y6480095D01*
X26994746Y6448498D01*
X26986984Y6417512D01*
X26976223Y6387437D01*
X26962565Y6358560D01*
X26946143Y6331162D01*
X26927115Y6305505D01*
X26905663Y6281837D01*
X26881995Y6260385D01*
X26856338Y6241357D01*
X26828940Y6224935D01*
X26800063Y6211277D01*
X26769988Y6200516D01*
X26739002Y6192754D01*
X26707405Y6188067D01*
X26675500Y6186500D01*
X26024500Y6186500D01*
X25992595Y6188067D01*
X25960998Y6192754D01*
X25930012Y6200516D01*
X25899937Y6211277D01*
X25871060Y6224935D01*
X25843662Y6241357D01*
X25818005Y6260385D01*
X25794337Y6281837D01*
X25772885Y6305505D01*
X25753857Y6331162D01*
X25737435Y6358560D01*
X25723777Y6387437D01*
X25713016Y6417512D01*
X25705254Y6448498D01*
X25700567Y6480095D01*
X25699000Y6512000D01*
X25699000Y8063000D01*
X25700567Y8094905D01*
X25705254Y8126502D01*
X25713016Y8157488D01*
X25723777Y8187563D01*
X25737435Y8216440D01*
X25753857Y8243838D01*
X25772885Y8269495D01*
X25794337Y8293163D01*
X25818005Y8314615D01*
X25843662Y8333643D01*
X25871060Y8350065D01*
X25899937Y8363723D01*
X25930012Y8374484D01*
X25960998Y8382246D01*
X25992595Y8386933D01*
X26024500Y8388500D01*
X26675500Y8388500D01*
X26707405Y8386933D01*
G37*
D21*
X22450000Y2637500D03*
X26450000Y2637500D03*
D20*
G36*
X12747405Y8386933D02*
G01*
X12779002Y8382246D01*
X12809988Y8374484D01*
X12840063Y8363723D01*
X12868940Y8350065D01*
X12896338Y8333643D01*
X12921995Y8314615D01*
X12945663Y8293163D01*
X12967115Y8269495D01*
X12986143Y8243838D01*
X13002565Y8216440D01*
X13016223Y8187563D01*
X13026984Y8157488D01*
X13034746Y8126502D01*
X13039433Y8094905D01*
X13041000Y8063000D01*
X13041000Y6512000D01*
X13039433Y6480095D01*
X13034746Y6448498D01*
X13026984Y6417512D01*
X13016223Y6387437D01*
X13002565Y6358560D01*
X12986143Y6331162D01*
X12967115Y6305505D01*
X12945663Y6281837D01*
X12921995Y6260385D01*
X12896338Y6241357D01*
X12868940Y6224935D01*
X12840063Y6211277D01*
X12809988Y6200516D01*
X12779002Y6192754D01*
X12747405Y6188067D01*
X12715500Y6186500D01*
X12064500Y6186500D01*
X12032595Y6188067D01*
X12000998Y6192754D01*
X11970012Y6200516D01*
X11939937Y6211277D01*
X11911060Y6224935D01*
X11883662Y6241357D01*
X11858005Y6260385D01*
X11834337Y6281837D01*
X11812885Y6305505D01*
X11793857Y6331162D01*
X11777435Y6358560D01*
X11763777Y6387437D01*
X11753016Y6417512D01*
X11745254Y6448498D01*
X11740567Y6480095D01*
X11739000Y6512000D01*
X11739000Y8063000D01*
X11740567Y8094905D01*
X11745254Y8126502D01*
X11753016Y8157488D01*
X11763777Y8187563D01*
X11777435Y8216440D01*
X11793857Y8243838D01*
X11812885Y8269495D01*
X11834337Y8293163D01*
X11858005Y8314615D01*
X11883662Y8333643D01*
X11911060Y8350065D01*
X11939937Y8363723D01*
X11970012Y8374484D01*
X12000998Y8382246D01*
X12032595Y8386933D01*
X12064500Y8388500D01*
X12715500Y8388500D01*
X12747405Y8386933D01*
G37*
G36*
X15097405Y11036933D02*
G01*
X15129002Y11032246D01*
X15159988Y11024484D01*
X15190063Y11013723D01*
X15218940Y11000065D01*
X15246338Y10983643D01*
X15271995Y10964615D01*
X15295663Y10943163D01*
X15317115Y10919495D01*
X15336143Y10893838D01*
X15352565Y10866440D01*
X15366223Y10837563D01*
X15376984Y10807488D01*
X15384746Y10776502D01*
X15389433Y10744905D01*
X15391000Y10713000D01*
X15391000Y10062000D01*
X15389433Y10030095D01*
X15384746Y9998498D01*
X15376984Y9967512D01*
X15366223Y9937437D01*
X15352565Y9908560D01*
X15336143Y9881162D01*
X15317115Y9855505D01*
X15295663Y9831837D01*
X15271995Y9810385D01*
X15246338Y9791357D01*
X15218940Y9774935D01*
X15190063Y9761277D01*
X15159988Y9750516D01*
X15129002Y9742754D01*
X15097405Y9738067D01*
X15065500Y9736500D01*
X13514500Y9736500D01*
X13482595Y9738067D01*
X13450998Y9742754D01*
X13420012Y9750516D01*
X13389937Y9761277D01*
X13361060Y9774935D01*
X13333662Y9791357D01*
X13308005Y9810385D01*
X13284337Y9831837D01*
X13262885Y9855505D01*
X13243857Y9881162D01*
X13227435Y9908560D01*
X13213777Y9937437D01*
X13203016Y9967512D01*
X13195254Y9998498D01*
X13190567Y10030095D01*
X13189000Y10062000D01*
X13189000Y10713000D01*
X13190567Y10744905D01*
X13195254Y10776502D01*
X13203016Y10807488D01*
X13213777Y10837563D01*
X13227435Y10866440D01*
X13243857Y10893838D01*
X13262885Y10919495D01*
X13284337Y10943163D01*
X13308005Y10964615D01*
X13333662Y10983643D01*
X13361060Y11000065D01*
X13389937Y11013723D01*
X13420012Y11024484D01*
X13450998Y11032246D01*
X13482595Y11036933D01*
X13514500Y11038500D01*
X15065500Y11038500D01*
X15097405Y11036933D01*
G37*
G36*
X16547405Y8386933D02*
G01*
X16579002Y8382246D01*
X16609988Y8374484D01*
X16640063Y8363723D01*
X16668940Y8350065D01*
X16696338Y8333643D01*
X16721995Y8314615D01*
X16745663Y8293163D01*
X16767115Y8269495D01*
X16786143Y8243838D01*
X16802565Y8216440D01*
X16816223Y8187563D01*
X16826984Y8157488D01*
X16834746Y8126502D01*
X16839433Y8094905D01*
X16841000Y8063000D01*
X16841000Y6512000D01*
X16839433Y6480095D01*
X16834746Y6448498D01*
X16826984Y6417512D01*
X16816223Y6387437D01*
X16802565Y6358560D01*
X16786143Y6331162D01*
X16767115Y6305505D01*
X16745663Y6281837D01*
X16721995Y6260385D01*
X16696338Y6241357D01*
X16668940Y6224935D01*
X16640063Y6211277D01*
X16609988Y6200516D01*
X16579002Y6192754D01*
X16547405Y6188067D01*
X16515500Y6186500D01*
X15864500Y6186500D01*
X15832595Y6188067D01*
X15800998Y6192754D01*
X15770012Y6200516D01*
X15739937Y6211277D01*
X15711060Y6224935D01*
X15683662Y6241357D01*
X15658005Y6260385D01*
X15634337Y6281837D01*
X15612885Y6305505D01*
X15593857Y6331162D01*
X15577435Y6358560D01*
X15563777Y6387437D01*
X15553016Y6417512D01*
X15545254Y6448498D01*
X15540567Y6480095D01*
X15539000Y6512000D01*
X15539000Y8063000D01*
X15540567Y8094905D01*
X15545254Y8126502D01*
X15553016Y8157488D01*
X15563777Y8187563D01*
X15577435Y8216440D01*
X15593857Y8243838D01*
X15612885Y8269495D01*
X15634337Y8293163D01*
X15658005Y8314615D01*
X15683662Y8333643D01*
X15711060Y8350065D01*
X15739937Y8363723D01*
X15770012Y8374484D01*
X15800998Y8382246D01*
X15832595Y8386933D01*
X15864500Y8388500D01*
X16515500Y8388500D01*
X16547405Y8386933D01*
G37*
D21*
X12290000Y2637500D03*
X16290000Y2637500D03*
D18*
X66360000Y55790000D03*
D22*
X76520000Y55790000D03*
D18*
X37150000Y60235000D03*
D22*
X37150000Y50075000D03*
D18*
X83505000Y44360000D03*
D22*
X73345000Y44360000D03*
D18*
X32705000Y47535000D03*
D22*
X22545000Y47535000D03*
D18*
X32705000Y50710000D03*
D22*
X22545000Y50710000D03*
D18*
X83505000Y40550000D03*
D22*
X73345000Y40550000D03*
D18*
X73345000Y37375000D03*
D22*
X83505000Y37375000D03*
D18*
X2225000Y47535000D03*
D22*
X12385000Y47535000D03*
D23*
X81600000Y50075000D03*
D24*
X79060000Y50075000D03*
X80330000Y50075000D03*
D25*
X75250000Y27215000D03*
D26*
X77790000Y27215000D03*
D22*
X61915000Y55075000D03*
X61915000Y50075000D03*
X74615000Y19040000D03*
X74615000Y24040000D03*
M02*
