M48
; DRILL file {KiCad (5.1.5)-2} date 20/02/2020 16:44:00
; FORMAT={3:3/ absolute / metric / suppress leading zeros}
; #@! TF.CreationDate,2020-02-20T16:44:00+01:00
; #@! TF.GenerationSoftware,Kicad,Pcbnew,(5.1.5)-2
; #@! TF.FileFunction,Plated,1,2,PTH
FMAT,2
METRIC,TZ
T1C0.600
T2C0.750
T3C0.800
T4C0.900
T5C1.000
T6C3.200
%
G90
G05
T2
X79060Y55075
X80330Y55075
X81600Y55075
T3
X40960Y62695
X40960Y55075
X43500Y62695
X43500Y55075
X46040Y62695
X46040Y55075
X48580Y62695
X48580Y55075
X51120Y62695
X51120Y55075
X53660Y62695
X53660Y55075
X56200Y62695
X56200Y55075
X58740Y62695
X58740Y55075
X20005Y44280
X20005Y18880
X22545Y44280
X22545Y18880
X25085Y44280
X25085Y18880
X27625Y44280
X27625Y18880
X30165Y44280
X30165Y18880
X32705Y44280
X32705Y18880
X35245Y44280
X35245Y18880
X37785Y44280
X37785Y18880
X40325Y44280
X40325Y18880
X42865Y44280
X42865Y18880
X45405Y44280
X45405Y18880
X47945Y44280
X47945Y18880
X50485Y44280
X50485Y18880
X53025Y44280
X53025Y18880
X55565Y44280
X55565Y18880
X58105Y44280
X58105Y18880
X60645Y44280
X60645Y18880
X63185Y44280
X63185Y18880
X65725Y44280
X65725Y18880
X7305Y42375
X7305Y32215
X66360Y60790
X76520Y60790
X22545Y50630
X32705Y50630
X22545Y47455
X32705Y47455
X70170Y49995
X80330Y49995
X78425Y25865
X78425Y18245
X80965Y25865
X80965Y18245
X83505Y25865
X83505Y18245
X86045Y25865
X86045Y18245
X88585Y25865
X88585Y18245
X91125Y25865
X91125Y18245
X93665Y25865
X93665Y18245
X96205Y25865
X96205Y18245
X37150Y65235
X37150Y55075
X72710Y34120
X82870Y34120
X74615Y25865
X74615Y20865
X72710Y37295
X82870Y37295
X61915Y60075
X61915Y55075
T4
X2860Y35771
X2860Y33231
T5
X75885Y29040
X78425Y29040
X43496Y65235
X46036Y65235
X48576Y65235
X51116Y65235
X53656Y65235
X56196Y65235
X58736Y65235
X61276Y65235
X63816Y65235
X66356Y65235
X68896Y65235
X71436Y65235
X73976Y65235
X76516Y65235
X79056Y65235
X81596Y65235
X2860Y20785
X2860Y15705
X10480Y20785
X10480Y15705
X2860Y29040
X2860Y23960
X10480Y29040
X10480Y23960
T6
X5000Y65000
X95000Y65000
X5000Y5000
X95000Y5000
T1
G00X55330Y10308
M15
G01X54530Y10308
M16
G05
G00X26350Y6808
M15
G01X26350Y7608
M16
G05
G00X42870Y6808
M15
G01X42870Y7608
M16
G05
G00X45170Y10308
M15
G01X44370Y10308
M16
G05
G00X46670Y6808
M15
G01X46670Y7608
M16
G05
G00X12390Y6808
M15
G01X12390Y7608
M16
G05
G00X14690Y10308
M15
G01X13890Y10308
M16
G05
G00X16190Y6808
M15
G01X16190Y7608
M16
G05
G00X73350Y6808
M15
G01X73350Y7608
M16
G05
G00X75650Y10308
M15
G01X74850Y10308
M16
G05
G00X77150Y6808
M15
G01X77150Y7608
M16
G05
G00X53030Y6808
M15
G01X53030Y7608
M16
G05
G00X56830Y6808
M15
G01X56830Y7608
M16
G05
G00X32710Y6808
M15
G01X32710Y7608
M16
G05
G00X35010Y10308
M15
G01X34210Y10308
M16
G05
G00X36510Y6808
M15
G01X36510Y7608
M16
G05
G00X22550Y6808
M15
G01X22550Y7608
M16
G05
G00X24850Y10308
M15
G01X24050Y10308
M16
G05
G00X83510Y6808
M15
G01X83510Y7608
M16
G05
G00X85810Y10308
M15
G01X85010Y10308
M16
G05
G00X87310Y6808
M15
G01X87310Y7608
M16
G05
G00X63190Y6808
M15
G01X63190Y7608
M16
G05
G00X65490Y10308
M15
G01X64690Y10308
M16
G05
G00X66990Y6808
M15
G01X66990Y7608
M16
G05
T0
M30
