M48
; DRILL file {KiCad (5.1.5)-2} date 22/02/2020 00:44:34
; FORMAT={3:3/ absolute / metric / suppress leading zeros}
; #@! TF.CreationDate,2020-02-22T00:44:34+01:00
; #@! TF.GenerationSoftware,Kicad,Pcbnew,(5.1.5)-2
; #@! TF.FileFunction,Plated,1,2,PTH
FMAT,2
METRIC,TZ
T1C0.600
T2C0.750
T3C0.800
T4C0.900
T5C0.990
T6C1.000
T7C1.300
T8C3.200
%
G90
G05
T2
X79060Y50075
X80330Y50075
X81600Y50075
T3
X73345Y40550
X83505Y40550
X77790Y24040
X77790Y16420
X80330Y24040
X80330Y16420
X82870Y24040
X82870Y16420
X85410Y24040
X85410Y16420
X87950Y24040
X87950Y16420
X90490Y24040
X90490Y16420
X93030Y24040
X93030Y16420
X95570Y24040
X95570Y16420
X37150Y60235
X37150Y50075
X2225Y47535
X12385Y47535
X20005Y41820
X20005Y16420
X22545Y41820
X22545Y16420
X25085Y41820
X25085Y16420
X27625Y41820
X27625Y16420
X30165Y41820
X30165Y16420
X32705Y41820
X32705Y16420
X35245Y41820
X35245Y16420
X37785Y41820
X37785Y16420
X40325Y41820
X40325Y16420
X42865Y41820
X42865Y16420
X45405Y41820
X45405Y16420
X47945Y41820
X47945Y16420
X50485Y41820
X50485Y16420
X53025Y41820
X53025Y16420
X55565Y41820
X55565Y16420
X58105Y41820
X58105Y16420
X60645Y41820
X60645Y16420
X63185Y41820
X63185Y16420
X65725Y41820
X65725Y16420
X22545Y47535
X32705Y47535
X74615Y24040
X74615Y19040
X66360Y55790
X76520Y55790
X73345Y37375
X83505Y37375
X40960Y57695
X40960Y50075
X43500Y57695
X43500Y50075
X46040Y57695
X46040Y50075
X48580Y57695
X48580Y50075
X51120Y57695
X51120Y50075
X53660Y57695
X53660Y50075
X56200Y57695
X56200Y50075
X58740Y57695
X58740Y50075
X73345Y44360
X83505Y44360
X22545Y50710
X32705Y50710
X61915Y55075
X61915Y50075
T4
X5400Y53250
X5400Y50710
T5
X4765Y41875
X4765Y37375
X4765Y31715
X4765Y27215
T6
X75250Y27215
X77790Y27215
X43496Y60235
X46036Y60235
X48576Y60235
X51116Y60235
X53656Y60235
X56196Y60235
X58736Y60235
X61276Y60235
X63816Y60235
X66356Y60235
X68896Y60235
X71436Y60235
X73976Y60235
X76516Y60235
X79056Y60235
X81596Y60235
T7
X7255Y43125
X7255Y36115
X7255Y32965
X7255Y25955
T8
X5000Y60000
X95000Y60000
X95000Y5000
X5000Y5000
T1
G00X66990Y7688
M15
G01X66990Y6888
M16
G05
G00X22550Y7688
M15
G01X22550Y6888
M16
G05
G00X24050Y10388
M15
G01X24850Y10388
M16
G05
G00X26350Y7688
M15
G01X26350Y6888
M16
G05
G00X73350Y7688
M15
G01X73350Y6888
M16
G05
G00X74850Y10388
M15
G01X75650Y10388
M16
G05
G00X77150Y7688
M15
G01X77150Y6888
M16
G05
G00X53030Y7688
M15
G01X53030Y6888
M16
G05
G00X54530Y10388
M15
G01X55330Y10388
M16
G05
G00X56830Y7688
M15
G01X56830Y6888
M16
G05
G00X32710Y7688
M15
G01X32710Y6888
M16
G05
G00X34210Y10388
M15
G01X35010Y10388
M16
G05
G00X36510Y7688
M15
G01X36510Y6888
M16
G05
G00X83510Y7688
M15
G01X83510Y6888
M16
G05
G00X85010Y10388
M15
G01X85810Y10388
M16
G05
G00X87310Y7688
M15
G01X87310Y6888
M16
G05
G00X12390Y7688
M15
G01X12390Y6888
M16
G05
G00X13890Y10388
M15
G01X14690Y10388
M16
G05
G00X16190Y7688
M15
G01X16190Y6888
M16
G05
G00X63190Y7688
M15
G01X63190Y6888
M16
G05
G00X64690Y10388
M15
G01X65490Y10388
M16
G05
G00X42870Y7688
M15
G01X42870Y6888
M16
G05
G00X44370Y10388
M15
G01X45170Y10388
M16
G05
G00X46670Y7688
M15
G01X46670Y6888
M16
G05
T0
M30
