M48
; DRILL file {KiCad (5.1.5)-2} date 21/02/2020 00:22:50
; FORMAT={3:3/ absolute / metric / suppress leading zeros}
; #@! TF.CreationDate,2020-02-21T00:22:50+01:00
; #@! TF.GenerationSoftware,Kicad,Pcbnew,(5.1.5)-2
; #@! TF.FileFunction,NonPlated,1,2,NPTH
FMAT,2
METRIC,TZ
T1C1.500
T2C2.700
%
G90
G05
T2
X12246Y60135
X12246Y29385
X86946Y60085
X86946Y29385
T1
G00X63090Y2887
M15
G01X63090Y2387
M16
G05
G00X67090Y2887
M15
G01X67090Y2387
M16
G05
G00X73250Y2887
M15
G01X73250Y2387
M16
G05
G00X77250Y2887
M15
G01X77250Y2387
M16
G05
G00X52930Y2887
M15
G01X52930Y2387
M16
G05
G00X56930Y2887
M15
G01X56930Y2387
M16
G05
G00X32610Y2887
M15
G01X32610Y2387
M16
G05
G00X36610Y2887
M15
G01X36610Y2387
M16
G05
G00X83410Y2887
M15
G01X83410Y2387
M16
G05
G00X87410Y2887
M15
G01X87410Y2387
M16
G05
G00X12290Y2887
M15
G01X12290Y2387
M16
G05
G00X16290Y2887
M15
G01X16290Y2387
M16
G05
G00X42770Y2887
M15
G01X42770Y2387
M16
G05
G00X46770Y2887
M15
G01X46770Y2387
M16
G05
G00X22450Y2887
M15
G01X22450Y2387
M16
G05
G00X26450Y2887
M15
G01X26450Y2387
M16
G05
T0
M30
