G04 #@! TF.GenerationSoftware,KiCad,Pcbnew,(5.1.5)-2*
G04 #@! TF.CreationDate,2020-02-22T00:44:31+01:00*
G04 #@! TF.ProjectId,BBMini32,42424d69-6e69-4333-922e-6b696361645f,V1.0*
G04 #@! TF.SameCoordinates,PX1312d00PY510ff40*
G04 #@! TF.FileFunction,Soldermask,Bot*
G04 #@! TF.FilePolarity,Negative*
%FSLAX46Y46*%
G04 Gerber Fmt 4.6, Leading zero omitted, Abs format (unit mm)*
G04 Created by KiCad (PCBNEW (5.1.5)-2) date 2020-02-22 00:44:31*
%MOMM*%
%LPD*%
G04 APERTURE LIST*
%ADD10C,0.100000*%
G04 APERTURE END LIST*
D10*
G36*
X83567022Y3676910D02*
G01*
X83667681Y3646375D01*
X83718012Y3631108D01*
X83857164Y3556729D01*
X83979133Y3456633D01*
X84079229Y3334665D01*
X84153608Y3195513D01*
X84168875Y3145182D01*
X84199410Y3044523D01*
X84211000Y2926845D01*
X84211000Y2348155D01*
X84199410Y2230477D01*
X84168875Y2129818D01*
X84153608Y2079487D01*
X84079229Y1940335D01*
X83979133Y1818367D01*
X83857165Y1718271D01*
X83718013Y1643892D01*
X83667682Y1628625D01*
X83567023Y1598090D01*
X83410000Y1582625D01*
X83252978Y1598090D01*
X83152319Y1628625D01*
X83101988Y1643892D01*
X82962836Y1718271D01*
X82840868Y1818367D01*
X82740771Y1940335D01*
X82685607Y2043539D01*
X82666392Y2079487D01*
X82651125Y2129818D01*
X82620590Y2230477D01*
X82609000Y2348155D01*
X82609000Y2926844D01*
X82620590Y3044522D01*
X82666392Y3195511D01*
X82666392Y3195512D01*
X82740771Y3334664D01*
X82740772Y3334665D01*
X82840867Y3456633D01*
X82962835Y3556729D01*
X83101987Y3631108D01*
X83152318Y3646375D01*
X83252977Y3676910D01*
X83410000Y3692375D01*
X83567022Y3676910D01*
G37*
G36*
X46927022Y3676910D02*
G01*
X47027681Y3646375D01*
X47078012Y3631108D01*
X47217164Y3556729D01*
X47339133Y3456633D01*
X47439229Y3334665D01*
X47513608Y3195513D01*
X47528875Y3145182D01*
X47559410Y3044523D01*
X47571000Y2926845D01*
X47571000Y2348155D01*
X47559410Y2230477D01*
X47528875Y2129818D01*
X47513608Y2079487D01*
X47439229Y1940335D01*
X47339133Y1818367D01*
X47217165Y1718271D01*
X47078013Y1643892D01*
X47027682Y1628625D01*
X46927023Y1598090D01*
X46770000Y1582625D01*
X46612978Y1598090D01*
X46512319Y1628625D01*
X46461988Y1643892D01*
X46322836Y1718271D01*
X46200868Y1818367D01*
X46100771Y1940335D01*
X46045607Y2043539D01*
X46026392Y2079487D01*
X46011125Y2129818D01*
X45980590Y2230477D01*
X45969000Y2348155D01*
X45969000Y2926844D01*
X45980590Y3044522D01*
X46026392Y3195511D01*
X46026392Y3195512D01*
X46100771Y3334664D01*
X46100772Y3334665D01*
X46200867Y3456633D01*
X46322835Y3556729D01*
X46461987Y3631108D01*
X46512318Y3646375D01*
X46612977Y3676910D01*
X46770000Y3692375D01*
X46927022Y3676910D01*
G37*
G36*
X16447022Y3676910D02*
G01*
X16547681Y3646375D01*
X16598012Y3631108D01*
X16737164Y3556729D01*
X16859133Y3456633D01*
X16959229Y3334665D01*
X17033608Y3195513D01*
X17048875Y3145182D01*
X17079410Y3044523D01*
X17091000Y2926845D01*
X17091000Y2348155D01*
X17079410Y2230477D01*
X17048875Y2129818D01*
X17033608Y2079487D01*
X16959229Y1940335D01*
X16859133Y1818367D01*
X16737165Y1718271D01*
X16598013Y1643892D01*
X16547682Y1628625D01*
X16447023Y1598090D01*
X16290000Y1582625D01*
X16132978Y1598090D01*
X16032319Y1628625D01*
X15981988Y1643892D01*
X15842836Y1718271D01*
X15720868Y1818367D01*
X15620771Y1940335D01*
X15565607Y2043539D01*
X15546392Y2079487D01*
X15531125Y2129818D01*
X15500590Y2230477D01*
X15489000Y2348155D01*
X15489000Y2926844D01*
X15500590Y3044522D01*
X15546392Y3195511D01*
X15546392Y3195512D01*
X15620771Y3334664D01*
X15620772Y3334665D01*
X15720867Y3456633D01*
X15842835Y3556729D01*
X15981987Y3631108D01*
X16032318Y3646375D01*
X16132977Y3676910D01*
X16290000Y3692375D01*
X16447022Y3676910D01*
G37*
G36*
X12447022Y3676910D02*
G01*
X12547681Y3646375D01*
X12598012Y3631108D01*
X12737164Y3556729D01*
X12859133Y3456633D01*
X12959229Y3334665D01*
X13033608Y3195513D01*
X13048875Y3145182D01*
X13079410Y3044523D01*
X13091000Y2926845D01*
X13091000Y2348155D01*
X13079410Y2230477D01*
X13048875Y2129818D01*
X13033608Y2079487D01*
X12959229Y1940335D01*
X12859133Y1818367D01*
X12737165Y1718271D01*
X12598013Y1643892D01*
X12547682Y1628625D01*
X12447023Y1598090D01*
X12290000Y1582625D01*
X12132978Y1598090D01*
X12032319Y1628625D01*
X11981988Y1643892D01*
X11842836Y1718271D01*
X11720868Y1818367D01*
X11620771Y1940335D01*
X11565607Y2043539D01*
X11546392Y2079487D01*
X11531125Y2129818D01*
X11500590Y2230477D01*
X11489000Y2348155D01*
X11489000Y2926844D01*
X11500590Y3044522D01*
X11546392Y3195511D01*
X11546392Y3195512D01*
X11620771Y3334664D01*
X11620772Y3334665D01*
X11720867Y3456633D01*
X11842835Y3556729D01*
X11981987Y3631108D01*
X12032318Y3646375D01*
X12132977Y3676910D01*
X12290000Y3692375D01*
X12447022Y3676910D01*
G37*
G36*
X26607022Y3676910D02*
G01*
X26707681Y3646375D01*
X26758012Y3631108D01*
X26897164Y3556729D01*
X27019133Y3456633D01*
X27119229Y3334665D01*
X27193608Y3195513D01*
X27208875Y3145182D01*
X27239410Y3044523D01*
X27251000Y2926845D01*
X27251000Y2348155D01*
X27239410Y2230477D01*
X27208875Y2129818D01*
X27193608Y2079487D01*
X27119229Y1940335D01*
X27019133Y1818367D01*
X26897165Y1718271D01*
X26758013Y1643892D01*
X26707682Y1628625D01*
X26607023Y1598090D01*
X26450000Y1582625D01*
X26292978Y1598090D01*
X26192319Y1628625D01*
X26141988Y1643892D01*
X26002836Y1718271D01*
X25880868Y1818367D01*
X25780771Y1940335D01*
X25725607Y2043539D01*
X25706392Y2079487D01*
X25691125Y2129818D01*
X25660590Y2230477D01*
X25649000Y2348155D01*
X25649000Y2926844D01*
X25660590Y3044522D01*
X25706392Y3195511D01*
X25706392Y3195512D01*
X25780771Y3334664D01*
X25780772Y3334665D01*
X25880867Y3456633D01*
X26002835Y3556729D01*
X26141987Y3631108D01*
X26192318Y3646375D01*
X26292977Y3676910D01*
X26450000Y3692375D01*
X26607022Y3676910D01*
G37*
G36*
X22607022Y3676910D02*
G01*
X22707681Y3646375D01*
X22758012Y3631108D01*
X22897164Y3556729D01*
X23019133Y3456633D01*
X23119229Y3334665D01*
X23193608Y3195513D01*
X23208875Y3145182D01*
X23239410Y3044523D01*
X23251000Y2926845D01*
X23251000Y2348155D01*
X23239410Y2230477D01*
X23208875Y2129818D01*
X23193608Y2079487D01*
X23119229Y1940335D01*
X23019133Y1818367D01*
X22897165Y1718271D01*
X22758013Y1643892D01*
X22707682Y1628625D01*
X22607023Y1598090D01*
X22450000Y1582625D01*
X22292978Y1598090D01*
X22192319Y1628625D01*
X22141988Y1643892D01*
X22002836Y1718271D01*
X21880868Y1818367D01*
X21780771Y1940335D01*
X21725607Y2043539D01*
X21706392Y2079487D01*
X21691125Y2129818D01*
X21660590Y2230477D01*
X21649000Y2348155D01*
X21649000Y2926844D01*
X21660590Y3044522D01*
X21706392Y3195511D01*
X21706392Y3195512D01*
X21780771Y3334664D01*
X21780772Y3334665D01*
X21880867Y3456633D01*
X22002835Y3556729D01*
X22141987Y3631108D01*
X22192318Y3646375D01*
X22292977Y3676910D01*
X22450000Y3692375D01*
X22607022Y3676910D01*
G37*
G36*
X36767022Y3676910D02*
G01*
X36867681Y3646375D01*
X36918012Y3631108D01*
X37057164Y3556729D01*
X37179133Y3456633D01*
X37279229Y3334665D01*
X37353608Y3195513D01*
X37368875Y3145182D01*
X37399410Y3044523D01*
X37411000Y2926845D01*
X37411000Y2348155D01*
X37399410Y2230477D01*
X37368875Y2129818D01*
X37353608Y2079487D01*
X37279229Y1940335D01*
X37179133Y1818367D01*
X37057165Y1718271D01*
X36918013Y1643892D01*
X36867682Y1628625D01*
X36767023Y1598090D01*
X36610000Y1582625D01*
X36452978Y1598090D01*
X36352319Y1628625D01*
X36301988Y1643892D01*
X36162836Y1718271D01*
X36040868Y1818367D01*
X35940771Y1940335D01*
X35885607Y2043539D01*
X35866392Y2079487D01*
X35851125Y2129818D01*
X35820590Y2230477D01*
X35809000Y2348155D01*
X35809000Y2926844D01*
X35820590Y3044522D01*
X35866392Y3195511D01*
X35866392Y3195512D01*
X35940771Y3334664D01*
X35940772Y3334665D01*
X36040867Y3456633D01*
X36162835Y3556729D01*
X36301987Y3631108D01*
X36352318Y3646375D01*
X36452977Y3676910D01*
X36610000Y3692375D01*
X36767022Y3676910D01*
G37*
G36*
X32767022Y3676910D02*
G01*
X32867681Y3646375D01*
X32918012Y3631108D01*
X33057164Y3556729D01*
X33179133Y3456633D01*
X33279229Y3334665D01*
X33353608Y3195513D01*
X33368875Y3145182D01*
X33399410Y3044523D01*
X33411000Y2926845D01*
X33411000Y2348155D01*
X33399410Y2230477D01*
X33368875Y2129818D01*
X33353608Y2079487D01*
X33279229Y1940335D01*
X33179133Y1818367D01*
X33057165Y1718271D01*
X32918013Y1643892D01*
X32867682Y1628625D01*
X32767023Y1598090D01*
X32610000Y1582625D01*
X32452978Y1598090D01*
X32352319Y1628625D01*
X32301988Y1643892D01*
X32162836Y1718271D01*
X32040868Y1818367D01*
X31940771Y1940335D01*
X31885607Y2043539D01*
X31866392Y2079487D01*
X31851125Y2129818D01*
X31820590Y2230477D01*
X31809000Y2348155D01*
X31809000Y2926844D01*
X31820590Y3044522D01*
X31866392Y3195511D01*
X31866392Y3195512D01*
X31940771Y3334664D01*
X31940772Y3334665D01*
X32040867Y3456633D01*
X32162835Y3556729D01*
X32301987Y3631108D01*
X32352318Y3646375D01*
X32452977Y3676910D01*
X32610000Y3692375D01*
X32767022Y3676910D01*
G37*
G36*
X73407022Y3676910D02*
G01*
X73507681Y3646375D01*
X73558012Y3631108D01*
X73697164Y3556729D01*
X73819133Y3456633D01*
X73919229Y3334665D01*
X73993608Y3195513D01*
X74008875Y3145182D01*
X74039410Y3044523D01*
X74051000Y2926845D01*
X74051000Y2348155D01*
X74039410Y2230477D01*
X74008875Y2129818D01*
X73993608Y2079487D01*
X73919229Y1940335D01*
X73819133Y1818367D01*
X73697165Y1718271D01*
X73558013Y1643892D01*
X73507682Y1628625D01*
X73407023Y1598090D01*
X73250000Y1582625D01*
X73092978Y1598090D01*
X72992319Y1628625D01*
X72941988Y1643892D01*
X72802836Y1718271D01*
X72680868Y1818367D01*
X72580771Y1940335D01*
X72525607Y2043539D01*
X72506392Y2079487D01*
X72491125Y2129818D01*
X72460590Y2230477D01*
X72449000Y2348155D01*
X72449000Y2926844D01*
X72460590Y3044522D01*
X72506392Y3195511D01*
X72506392Y3195512D01*
X72580771Y3334664D01*
X72580772Y3334665D01*
X72680867Y3456633D01*
X72802835Y3556729D01*
X72941987Y3631108D01*
X72992318Y3646375D01*
X73092977Y3676910D01*
X73250000Y3692375D01*
X73407022Y3676910D01*
G37*
G36*
X57087022Y3676910D02*
G01*
X57187681Y3646375D01*
X57238012Y3631108D01*
X57377164Y3556729D01*
X57499133Y3456633D01*
X57599229Y3334665D01*
X57673608Y3195513D01*
X57688875Y3145182D01*
X57719410Y3044523D01*
X57731000Y2926845D01*
X57731000Y2348155D01*
X57719410Y2230477D01*
X57688875Y2129818D01*
X57673608Y2079487D01*
X57599229Y1940335D01*
X57499133Y1818367D01*
X57377165Y1718271D01*
X57238013Y1643892D01*
X57187682Y1628625D01*
X57087023Y1598090D01*
X56930000Y1582625D01*
X56772978Y1598090D01*
X56672319Y1628625D01*
X56621988Y1643892D01*
X56482836Y1718271D01*
X56360868Y1818367D01*
X56260771Y1940335D01*
X56205607Y2043539D01*
X56186392Y2079487D01*
X56171125Y2129818D01*
X56140590Y2230477D01*
X56129000Y2348155D01*
X56129000Y2926844D01*
X56140590Y3044522D01*
X56186392Y3195511D01*
X56186392Y3195512D01*
X56260771Y3334664D01*
X56260772Y3334665D01*
X56360867Y3456633D01*
X56482835Y3556729D01*
X56621987Y3631108D01*
X56672318Y3646375D01*
X56772977Y3676910D01*
X56930000Y3692375D01*
X57087022Y3676910D01*
G37*
G36*
X53087022Y3676910D02*
G01*
X53187681Y3646375D01*
X53238012Y3631108D01*
X53377164Y3556729D01*
X53499133Y3456633D01*
X53599229Y3334665D01*
X53673608Y3195513D01*
X53688875Y3145182D01*
X53719410Y3044523D01*
X53731000Y2926845D01*
X53731000Y2348155D01*
X53719410Y2230477D01*
X53688875Y2129818D01*
X53673608Y2079487D01*
X53599229Y1940335D01*
X53499133Y1818367D01*
X53377165Y1718271D01*
X53238013Y1643892D01*
X53187682Y1628625D01*
X53087023Y1598090D01*
X52930000Y1582625D01*
X52772978Y1598090D01*
X52672319Y1628625D01*
X52621988Y1643892D01*
X52482836Y1718271D01*
X52360868Y1818367D01*
X52260771Y1940335D01*
X52205607Y2043539D01*
X52186392Y2079487D01*
X52171125Y2129818D01*
X52140590Y2230477D01*
X52129000Y2348155D01*
X52129000Y2926844D01*
X52140590Y3044522D01*
X52186392Y3195511D01*
X52186392Y3195512D01*
X52260771Y3334664D01*
X52260772Y3334665D01*
X52360867Y3456633D01*
X52482835Y3556729D01*
X52621987Y3631108D01*
X52672318Y3646375D01*
X52772977Y3676910D01*
X52930000Y3692375D01*
X53087022Y3676910D01*
G37*
G36*
X67247022Y3676910D02*
G01*
X67347681Y3646375D01*
X67398012Y3631108D01*
X67537164Y3556729D01*
X67659133Y3456633D01*
X67759229Y3334665D01*
X67833608Y3195513D01*
X67848875Y3145182D01*
X67879410Y3044523D01*
X67891000Y2926845D01*
X67891000Y2348155D01*
X67879410Y2230477D01*
X67848875Y2129818D01*
X67833608Y2079487D01*
X67759229Y1940335D01*
X67659133Y1818367D01*
X67537165Y1718271D01*
X67398013Y1643892D01*
X67347682Y1628625D01*
X67247023Y1598090D01*
X67090000Y1582625D01*
X66932978Y1598090D01*
X66832319Y1628625D01*
X66781988Y1643892D01*
X66642836Y1718271D01*
X66520868Y1818367D01*
X66420771Y1940335D01*
X66365607Y2043539D01*
X66346392Y2079487D01*
X66331125Y2129818D01*
X66300590Y2230477D01*
X66289000Y2348155D01*
X66289000Y2926844D01*
X66300590Y3044522D01*
X66346392Y3195511D01*
X66346392Y3195512D01*
X66420771Y3334664D01*
X66420772Y3334665D01*
X66520867Y3456633D01*
X66642835Y3556729D01*
X66781987Y3631108D01*
X66832318Y3646375D01*
X66932977Y3676910D01*
X67090000Y3692375D01*
X67247022Y3676910D01*
G37*
G36*
X63247022Y3676910D02*
G01*
X63347681Y3646375D01*
X63398012Y3631108D01*
X63537164Y3556729D01*
X63659133Y3456633D01*
X63759229Y3334665D01*
X63833608Y3195513D01*
X63848875Y3145182D01*
X63879410Y3044523D01*
X63891000Y2926845D01*
X63891000Y2348155D01*
X63879410Y2230477D01*
X63848875Y2129818D01*
X63833608Y2079487D01*
X63759229Y1940335D01*
X63659133Y1818367D01*
X63537165Y1718271D01*
X63398013Y1643892D01*
X63347682Y1628625D01*
X63247023Y1598090D01*
X63090000Y1582625D01*
X62932978Y1598090D01*
X62832319Y1628625D01*
X62781988Y1643892D01*
X62642836Y1718271D01*
X62520868Y1818367D01*
X62420771Y1940335D01*
X62365607Y2043539D01*
X62346392Y2079487D01*
X62331125Y2129818D01*
X62300590Y2230477D01*
X62289000Y2348155D01*
X62289000Y2926844D01*
X62300590Y3044522D01*
X62346392Y3195511D01*
X62346392Y3195512D01*
X62420771Y3334664D01*
X62420772Y3334665D01*
X62520867Y3456633D01*
X62642835Y3556729D01*
X62781987Y3631108D01*
X62832318Y3646375D01*
X62932977Y3676910D01*
X63090000Y3692375D01*
X63247022Y3676910D01*
G37*
G36*
X77407022Y3676910D02*
G01*
X77507681Y3646375D01*
X77558012Y3631108D01*
X77697164Y3556729D01*
X77819133Y3456633D01*
X77919229Y3334665D01*
X77993608Y3195513D01*
X78008875Y3145182D01*
X78039410Y3044523D01*
X78051000Y2926845D01*
X78051000Y2348155D01*
X78039410Y2230477D01*
X78008875Y2129818D01*
X77993608Y2079487D01*
X77919229Y1940335D01*
X77819133Y1818367D01*
X77697165Y1718271D01*
X77558013Y1643892D01*
X77507682Y1628625D01*
X77407023Y1598090D01*
X77250000Y1582625D01*
X77092978Y1598090D01*
X76992319Y1628625D01*
X76941988Y1643892D01*
X76802836Y1718271D01*
X76680868Y1818367D01*
X76580771Y1940335D01*
X76525607Y2043539D01*
X76506392Y2079487D01*
X76491125Y2129818D01*
X76460590Y2230477D01*
X76449000Y2348155D01*
X76449000Y2926844D01*
X76460590Y3044522D01*
X76506392Y3195511D01*
X76506392Y3195512D01*
X76580771Y3334664D01*
X76580772Y3334665D01*
X76680867Y3456633D01*
X76802835Y3556729D01*
X76941987Y3631108D01*
X76992318Y3646375D01*
X77092977Y3676910D01*
X77250000Y3692375D01*
X77407022Y3676910D01*
G37*
G36*
X87567022Y3676910D02*
G01*
X87667681Y3646375D01*
X87718012Y3631108D01*
X87857164Y3556729D01*
X87979133Y3456633D01*
X88079229Y3334665D01*
X88153608Y3195513D01*
X88168875Y3145182D01*
X88199410Y3044523D01*
X88211000Y2926845D01*
X88211000Y2348155D01*
X88199410Y2230477D01*
X88168875Y2129818D01*
X88153608Y2079487D01*
X88079229Y1940335D01*
X87979133Y1818367D01*
X87857165Y1718271D01*
X87718013Y1643892D01*
X87667682Y1628625D01*
X87567023Y1598090D01*
X87410000Y1582625D01*
X87252978Y1598090D01*
X87152319Y1628625D01*
X87101988Y1643892D01*
X86962836Y1718271D01*
X86840868Y1818367D01*
X86740771Y1940335D01*
X86685607Y2043539D01*
X86666392Y2079487D01*
X86651125Y2129818D01*
X86620590Y2230477D01*
X86609000Y2348155D01*
X86609000Y2926844D01*
X86620590Y3044522D01*
X86666392Y3195511D01*
X86666392Y3195512D01*
X86740771Y3334664D01*
X86740772Y3334665D01*
X86840867Y3456633D01*
X86962835Y3556729D01*
X87101987Y3631108D01*
X87152318Y3646375D01*
X87252977Y3676910D01*
X87410000Y3692375D01*
X87567022Y3676910D01*
G37*
G36*
X42927022Y3676910D02*
G01*
X43027681Y3646375D01*
X43078012Y3631108D01*
X43217164Y3556729D01*
X43339133Y3456633D01*
X43439229Y3334665D01*
X43513608Y3195513D01*
X43528875Y3145182D01*
X43559410Y3044523D01*
X43571000Y2926845D01*
X43571000Y2348155D01*
X43559410Y2230477D01*
X43528875Y2129818D01*
X43513608Y2079487D01*
X43439229Y1940335D01*
X43339133Y1818367D01*
X43217165Y1718271D01*
X43078013Y1643892D01*
X43027682Y1628625D01*
X42927023Y1598090D01*
X42770000Y1582625D01*
X42612978Y1598090D01*
X42512319Y1628625D01*
X42461988Y1643892D01*
X42322836Y1718271D01*
X42200868Y1818367D01*
X42100771Y1940335D01*
X42045607Y2043539D01*
X42026392Y2079487D01*
X42011125Y2129818D01*
X41980590Y2230477D01*
X41969000Y2348155D01*
X41969000Y2926844D01*
X41980590Y3044522D01*
X42026392Y3195511D01*
X42026392Y3195512D01*
X42100771Y3334664D01*
X42100772Y3334665D01*
X42200867Y3456633D01*
X42322835Y3556729D01*
X42461987Y3631108D01*
X42512318Y3646375D01*
X42612977Y3676910D01*
X42770000Y3692375D01*
X42927022Y3676910D01*
G37*
G36*
X95634239Y8188533D02*
G01*
X95948282Y8126066D01*
X96539926Y7880999D01*
X97072392Y7525216D01*
X97525216Y7072392D01*
X97880999Y6539926D01*
X98126066Y5948282D01*
X98251000Y5320196D01*
X98251000Y4679804D01*
X98126066Y4051718D01*
X97880999Y3460074D01*
X97525216Y2927608D01*
X97072392Y2474784D01*
X96539926Y2119001D01*
X95948282Y1873934D01*
X95668928Y1818367D01*
X95320197Y1749000D01*
X94679803Y1749000D01*
X94331072Y1818367D01*
X94051718Y1873934D01*
X93460074Y2119001D01*
X92927608Y2474784D01*
X92474784Y2927608D01*
X92119001Y3460074D01*
X91873934Y4051718D01*
X91749000Y4679804D01*
X91749000Y5320196D01*
X91873934Y5948282D01*
X92119001Y6539926D01*
X92474784Y7072392D01*
X92927608Y7525216D01*
X93460074Y7880999D01*
X94051718Y8126066D01*
X94365761Y8188533D01*
X94679803Y8251000D01*
X95320197Y8251000D01*
X95634239Y8188533D01*
G37*
G36*
X5634239Y8188533D02*
G01*
X5948282Y8126066D01*
X6539926Y7880999D01*
X7072392Y7525216D01*
X7525216Y7072392D01*
X7880999Y6539926D01*
X8126066Y5948282D01*
X8251000Y5320196D01*
X8251000Y4679804D01*
X8126066Y4051718D01*
X7880999Y3460074D01*
X7525216Y2927608D01*
X7072392Y2474784D01*
X6539926Y2119001D01*
X5948282Y1873934D01*
X5668928Y1818367D01*
X5320197Y1749000D01*
X4679803Y1749000D01*
X4331072Y1818367D01*
X4051718Y1873934D01*
X3460074Y2119001D01*
X2927608Y2474784D01*
X2474784Y2927608D01*
X2119001Y3460074D01*
X1873934Y4051718D01*
X1749000Y4679804D01*
X1749000Y5320196D01*
X1873934Y5948282D01*
X2119001Y6539926D01*
X2474784Y7072392D01*
X2927608Y7525216D01*
X3460074Y7880999D01*
X4051718Y8126066D01*
X4365761Y8188533D01*
X4679803Y8251000D01*
X5320197Y8251000D01*
X5634239Y8188533D01*
G37*
G36*
X77589192Y8382854D02*
G01*
X77638414Y8367922D01*
X77683778Y8343674D01*
X77723542Y8311042D01*
X77756174Y8271278D01*
X77780422Y8225914D01*
X77795354Y8176692D01*
X77801000Y8119360D01*
X77801000Y6455640D01*
X77795354Y6398308D01*
X77780422Y6349086D01*
X77756174Y6303722D01*
X77723542Y6263958D01*
X77683778Y6231326D01*
X77638414Y6207078D01*
X77589192Y6192146D01*
X77531860Y6186500D01*
X76768140Y6186500D01*
X76710808Y6192146D01*
X76661586Y6207078D01*
X76616222Y6231326D01*
X76576458Y6263958D01*
X76543826Y6303722D01*
X76519578Y6349086D01*
X76504646Y6398308D01*
X76499000Y6455640D01*
X76499000Y8119360D01*
X76504646Y8176692D01*
X76519578Y8225914D01*
X76543826Y8271278D01*
X76576458Y8311042D01*
X76616222Y8343674D01*
X76661586Y8367922D01*
X76710808Y8382854D01*
X76768140Y8388500D01*
X77531860Y8388500D01*
X77589192Y8382854D01*
G37*
G36*
X63629192Y8382854D02*
G01*
X63678414Y8367922D01*
X63723778Y8343674D01*
X63763542Y8311042D01*
X63796174Y8271278D01*
X63820422Y8225914D01*
X63835354Y8176692D01*
X63841000Y8119360D01*
X63841000Y6455640D01*
X63835354Y6398308D01*
X63820422Y6349086D01*
X63796174Y6303722D01*
X63763542Y6263958D01*
X63723778Y6231326D01*
X63678414Y6207078D01*
X63629192Y6192146D01*
X63571860Y6186500D01*
X62808140Y6186500D01*
X62750808Y6192146D01*
X62701586Y6207078D01*
X62656222Y6231326D01*
X62616458Y6263958D01*
X62583826Y6303722D01*
X62559578Y6349086D01*
X62544646Y6398308D01*
X62539000Y6455640D01*
X62539000Y8119360D01*
X62544646Y8176692D01*
X62559578Y8225914D01*
X62583826Y8271278D01*
X62616458Y8311042D01*
X62656222Y8343674D01*
X62701586Y8367922D01*
X62750808Y8382854D01*
X62808140Y8388500D01*
X63571860Y8388500D01*
X63629192Y8382854D01*
G37*
G36*
X53469192Y8382854D02*
G01*
X53518414Y8367922D01*
X53563778Y8343674D01*
X53603542Y8311042D01*
X53636174Y8271278D01*
X53660422Y8225914D01*
X53675354Y8176692D01*
X53681000Y8119360D01*
X53681000Y6455640D01*
X53675354Y6398308D01*
X53660422Y6349086D01*
X53636174Y6303722D01*
X53603542Y6263958D01*
X53563778Y6231326D01*
X53518414Y6207078D01*
X53469192Y6192146D01*
X53411860Y6186500D01*
X52648140Y6186500D01*
X52590808Y6192146D01*
X52541586Y6207078D01*
X52496222Y6231326D01*
X52456458Y6263958D01*
X52423826Y6303722D01*
X52399578Y6349086D01*
X52384646Y6398308D01*
X52379000Y6455640D01*
X52379000Y8119360D01*
X52384646Y8176692D01*
X52399578Y8225914D01*
X52423826Y8271278D01*
X52456458Y8311042D01*
X52496222Y8343674D01*
X52541586Y8367922D01*
X52590808Y8382854D01*
X52648140Y8388500D01*
X53411860Y8388500D01*
X53469192Y8382854D01*
G37*
G36*
X57269192Y8382854D02*
G01*
X57318414Y8367922D01*
X57363778Y8343674D01*
X57403542Y8311042D01*
X57436174Y8271278D01*
X57460422Y8225914D01*
X57475354Y8176692D01*
X57481000Y8119360D01*
X57481000Y6455640D01*
X57475354Y6398308D01*
X57460422Y6349086D01*
X57436174Y6303722D01*
X57403542Y6263958D01*
X57363778Y6231326D01*
X57318414Y6207078D01*
X57269192Y6192146D01*
X57211860Y6186500D01*
X56448140Y6186500D01*
X56390808Y6192146D01*
X56341586Y6207078D01*
X56296222Y6231326D01*
X56256458Y6263958D01*
X56223826Y6303722D01*
X56199578Y6349086D01*
X56184646Y6398308D01*
X56179000Y6455640D01*
X56179000Y8119360D01*
X56184646Y8176692D01*
X56199578Y8225914D01*
X56223826Y8271278D01*
X56256458Y8311042D01*
X56296222Y8343674D01*
X56341586Y8367922D01*
X56390808Y8382854D01*
X56448140Y8388500D01*
X57211860Y8388500D01*
X57269192Y8382854D01*
G37*
G36*
X43309192Y8382854D02*
G01*
X43358414Y8367922D01*
X43403778Y8343674D01*
X43443542Y8311042D01*
X43476174Y8271278D01*
X43500422Y8225914D01*
X43515354Y8176692D01*
X43521000Y8119360D01*
X43521000Y6455640D01*
X43515354Y6398308D01*
X43500422Y6349086D01*
X43476174Y6303722D01*
X43443542Y6263958D01*
X43403778Y6231326D01*
X43358414Y6207078D01*
X43309192Y6192146D01*
X43251860Y6186500D01*
X42488140Y6186500D01*
X42430808Y6192146D01*
X42381586Y6207078D01*
X42336222Y6231326D01*
X42296458Y6263958D01*
X42263826Y6303722D01*
X42239578Y6349086D01*
X42224646Y6398308D01*
X42219000Y6455640D01*
X42219000Y8119360D01*
X42224646Y8176692D01*
X42239578Y8225914D01*
X42263826Y8271278D01*
X42296458Y8311042D01*
X42336222Y8343674D01*
X42381586Y8367922D01*
X42430808Y8382854D01*
X42488140Y8388500D01*
X43251860Y8388500D01*
X43309192Y8382854D01*
G37*
G36*
X47109192Y8382854D02*
G01*
X47158414Y8367922D01*
X47203778Y8343674D01*
X47243542Y8311042D01*
X47276174Y8271278D01*
X47300422Y8225914D01*
X47315354Y8176692D01*
X47321000Y8119360D01*
X47321000Y6455640D01*
X47315354Y6398308D01*
X47300422Y6349086D01*
X47276174Y6303722D01*
X47243542Y6263958D01*
X47203778Y6231326D01*
X47158414Y6207078D01*
X47109192Y6192146D01*
X47051860Y6186500D01*
X46288140Y6186500D01*
X46230808Y6192146D01*
X46181586Y6207078D01*
X46136222Y6231326D01*
X46096458Y6263958D01*
X46063826Y6303722D01*
X46039578Y6349086D01*
X46024646Y6398308D01*
X46019000Y6455640D01*
X46019000Y8119360D01*
X46024646Y8176692D01*
X46039578Y8225914D01*
X46063826Y8271278D01*
X46096458Y8311042D01*
X46136222Y8343674D01*
X46181586Y8367922D01*
X46230808Y8382854D01*
X46288140Y8388500D01*
X47051860Y8388500D01*
X47109192Y8382854D01*
G37*
G36*
X16629192Y8382854D02*
G01*
X16678414Y8367922D01*
X16723778Y8343674D01*
X16763542Y8311042D01*
X16796174Y8271278D01*
X16820422Y8225914D01*
X16835354Y8176692D01*
X16841000Y8119360D01*
X16841000Y6455640D01*
X16835354Y6398308D01*
X16820422Y6349086D01*
X16796174Y6303722D01*
X16763542Y6263958D01*
X16723778Y6231326D01*
X16678414Y6207078D01*
X16629192Y6192146D01*
X16571860Y6186500D01*
X15808140Y6186500D01*
X15750808Y6192146D01*
X15701586Y6207078D01*
X15656222Y6231326D01*
X15616458Y6263958D01*
X15583826Y6303722D01*
X15559578Y6349086D01*
X15544646Y6398308D01*
X15539000Y6455640D01*
X15539000Y8119360D01*
X15544646Y8176692D01*
X15559578Y8225914D01*
X15583826Y8271278D01*
X15616458Y8311042D01*
X15656222Y8343674D01*
X15701586Y8367922D01*
X15750808Y8382854D01*
X15808140Y8388500D01*
X16571860Y8388500D01*
X16629192Y8382854D01*
G37*
G36*
X33149192Y8382854D02*
G01*
X33198414Y8367922D01*
X33243778Y8343674D01*
X33283542Y8311042D01*
X33316174Y8271278D01*
X33340422Y8225914D01*
X33355354Y8176692D01*
X33361000Y8119360D01*
X33361000Y6455640D01*
X33355354Y6398308D01*
X33340422Y6349086D01*
X33316174Y6303722D01*
X33283542Y6263958D01*
X33243778Y6231326D01*
X33198414Y6207078D01*
X33149192Y6192146D01*
X33091860Y6186500D01*
X32328140Y6186500D01*
X32270808Y6192146D01*
X32221586Y6207078D01*
X32176222Y6231326D01*
X32136458Y6263958D01*
X32103826Y6303722D01*
X32079578Y6349086D01*
X32064646Y6398308D01*
X32059000Y6455640D01*
X32059000Y8119360D01*
X32064646Y8176692D01*
X32079578Y8225914D01*
X32103826Y8271278D01*
X32136458Y8311042D01*
X32176222Y8343674D01*
X32221586Y8367922D01*
X32270808Y8382854D01*
X32328140Y8388500D01*
X33091860Y8388500D01*
X33149192Y8382854D01*
G37*
G36*
X67429192Y8382854D02*
G01*
X67478414Y8367922D01*
X67523778Y8343674D01*
X67563542Y8311042D01*
X67596174Y8271278D01*
X67620422Y8225914D01*
X67635354Y8176692D01*
X67641000Y8119360D01*
X67641000Y6455640D01*
X67635354Y6398308D01*
X67620422Y6349086D01*
X67596174Y6303722D01*
X67563542Y6263958D01*
X67523778Y6231326D01*
X67478414Y6207078D01*
X67429192Y6192146D01*
X67371860Y6186500D01*
X66608140Y6186500D01*
X66550808Y6192146D01*
X66501586Y6207078D01*
X66456222Y6231326D01*
X66416458Y6263958D01*
X66383826Y6303722D01*
X66359578Y6349086D01*
X66344646Y6398308D01*
X66339000Y6455640D01*
X66339000Y8119360D01*
X66344646Y8176692D01*
X66359578Y8225914D01*
X66383826Y8271278D01*
X66416458Y8311042D01*
X66456222Y8343674D01*
X66501586Y8367922D01*
X66550808Y8382854D01*
X66608140Y8388500D01*
X67371860Y8388500D01*
X67429192Y8382854D01*
G37*
G36*
X36949192Y8382854D02*
G01*
X36998414Y8367922D01*
X37043778Y8343674D01*
X37083542Y8311042D01*
X37116174Y8271278D01*
X37140422Y8225914D01*
X37155354Y8176692D01*
X37161000Y8119360D01*
X37161000Y6455640D01*
X37155354Y6398308D01*
X37140422Y6349086D01*
X37116174Y6303722D01*
X37083542Y6263958D01*
X37043778Y6231326D01*
X36998414Y6207078D01*
X36949192Y6192146D01*
X36891860Y6186500D01*
X36128140Y6186500D01*
X36070808Y6192146D01*
X36021586Y6207078D01*
X35976222Y6231326D01*
X35936458Y6263958D01*
X35903826Y6303722D01*
X35879578Y6349086D01*
X35864646Y6398308D01*
X35859000Y6455640D01*
X35859000Y8119360D01*
X35864646Y8176692D01*
X35879578Y8225914D01*
X35903826Y8271278D01*
X35936458Y8311042D01*
X35976222Y8343674D01*
X36021586Y8367922D01*
X36070808Y8382854D01*
X36128140Y8388500D01*
X36891860Y8388500D01*
X36949192Y8382854D01*
G37*
G36*
X83949192Y8382854D02*
G01*
X83998414Y8367922D01*
X84043778Y8343674D01*
X84083542Y8311042D01*
X84116174Y8271278D01*
X84140422Y8225914D01*
X84155354Y8176692D01*
X84161000Y8119360D01*
X84161000Y6455640D01*
X84155354Y6398308D01*
X84140422Y6349086D01*
X84116174Y6303722D01*
X84083542Y6263958D01*
X84043778Y6231326D01*
X83998414Y6207078D01*
X83949192Y6192146D01*
X83891860Y6186500D01*
X83128140Y6186500D01*
X83070808Y6192146D01*
X83021586Y6207078D01*
X82976222Y6231326D01*
X82936458Y6263958D01*
X82903826Y6303722D01*
X82879578Y6349086D01*
X82864646Y6398308D01*
X82859000Y6455640D01*
X82859000Y8119360D01*
X82864646Y8176692D01*
X82879578Y8225914D01*
X82903826Y8271278D01*
X82936458Y8311042D01*
X82976222Y8343674D01*
X83021586Y8367922D01*
X83070808Y8382854D01*
X83128140Y8388500D01*
X83891860Y8388500D01*
X83949192Y8382854D01*
G37*
G36*
X12829192Y8382854D02*
G01*
X12878414Y8367922D01*
X12923778Y8343674D01*
X12963542Y8311042D01*
X12996174Y8271278D01*
X13020422Y8225914D01*
X13035354Y8176692D01*
X13041000Y8119360D01*
X13041000Y6455640D01*
X13035354Y6398308D01*
X13020422Y6349086D01*
X12996174Y6303722D01*
X12963542Y6263958D01*
X12923778Y6231326D01*
X12878414Y6207078D01*
X12829192Y6192146D01*
X12771860Y6186500D01*
X12008140Y6186500D01*
X11950808Y6192146D01*
X11901586Y6207078D01*
X11856222Y6231326D01*
X11816458Y6263958D01*
X11783826Y6303722D01*
X11759578Y6349086D01*
X11744646Y6398308D01*
X11739000Y6455640D01*
X11739000Y8119360D01*
X11744646Y8176692D01*
X11759578Y8225914D01*
X11783826Y8271278D01*
X11816458Y8311042D01*
X11856222Y8343674D01*
X11901586Y8367922D01*
X11950808Y8382854D01*
X12008140Y8388500D01*
X12771860Y8388500D01*
X12829192Y8382854D01*
G37*
G36*
X87749192Y8382854D02*
G01*
X87798414Y8367922D01*
X87843778Y8343674D01*
X87883542Y8311042D01*
X87916174Y8271278D01*
X87940422Y8225914D01*
X87955354Y8176692D01*
X87961000Y8119360D01*
X87961000Y6455640D01*
X87955354Y6398308D01*
X87940422Y6349086D01*
X87916174Y6303722D01*
X87883542Y6263958D01*
X87843778Y6231326D01*
X87798414Y6207078D01*
X87749192Y6192146D01*
X87691860Y6186500D01*
X86928140Y6186500D01*
X86870808Y6192146D01*
X86821586Y6207078D01*
X86776222Y6231326D01*
X86736458Y6263958D01*
X86703826Y6303722D01*
X86679578Y6349086D01*
X86664646Y6398308D01*
X86659000Y6455640D01*
X86659000Y8119360D01*
X86664646Y8176692D01*
X86679578Y8225914D01*
X86703826Y8271278D01*
X86736458Y8311042D01*
X86776222Y8343674D01*
X86821586Y8367922D01*
X86870808Y8382854D01*
X86928140Y8388500D01*
X87691860Y8388500D01*
X87749192Y8382854D01*
G37*
G36*
X26789192Y8382854D02*
G01*
X26838414Y8367922D01*
X26883778Y8343674D01*
X26923542Y8311042D01*
X26956174Y8271278D01*
X26980422Y8225914D01*
X26995354Y8176692D01*
X27001000Y8119360D01*
X27001000Y6455640D01*
X26995354Y6398308D01*
X26980422Y6349086D01*
X26956174Y6303722D01*
X26923542Y6263958D01*
X26883778Y6231326D01*
X26838414Y6207078D01*
X26789192Y6192146D01*
X26731860Y6186500D01*
X25968140Y6186500D01*
X25910808Y6192146D01*
X25861586Y6207078D01*
X25816222Y6231326D01*
X25776458Y6263958D01*
X25743826Y6303722D01*
X25719578Y6349086D01*
X25704646Y6398308D01*
X25699000Y6455640D01*
X25699000Y8119360D01*
X25704646Y8176692D01*
X25719578Y8225914D01*
X25743826Y8271278D01*
X25776458Y8311042D01*
X25816222Y8343674D01*
X25861586Y8367922D01*
X25910808Y8382854D01*
X25968140Y8388500D01*
X26731860Y8388500D01*
X26789192Y8382854D01*
G37*
G36*
X22989192Y8382854D02*
G01*
X23038414Y8367922D01*
X23083778Y8343674D01*
X23123542Y8311042D01*
X23156174Y8271278D01*
X23180422Y8225914D01*
X23195354Y8176692D01*
X23201000Y8119360D01*
X23201000Y6455640D01*
X23195354Y6398308D01*
X23180422Y6349086D01*
X23156174Y6303722D01*
X23123542Y6263958D01*
X23083778Y6231326D01*
X23038414Y6207078D01*
X22989192Y6192146D01*
X22931860Y6186500D01*
X22168140Y6186500D01*
X22110808Y6192146D01*
X22061586Y6207078D01*
X22016222Y6231326D01*
X21976458Y6263958D01*
X21943826Y6303722D01*
X21919578Y6349086D01*
X21904646Y6398308D01*
X21899000Y6455640D01*
X21899000Y8119360D01*
X21904646Y8176692D01*
X21919578Y8225914D01*
X21943826Y8271278D01*
X21976458Y8311042D01*
X22016222Y8343674D01*
X22061586Y8367922D01*
X22110808Y8382854D01*
X22168140Y8388500D01*
X22931860Y8388500D01*
X22989192Y8382854D01*
G37*
G36*
X73789192Y8382854D02*
G01*
X73838414Y8367922D01*
X73883778Y8343674D01*
X73923542Y8311042D01*
X73956174Y8271278D01*
X73980422Y8225914D01*
X73995354Y8176692D01*
X74001000Y8119360D01*
X74001000Y6455640D01*
X73995354Y6398308D01*
X73980422Y6349086D01*
X73956174Y6303722D01*
X73923542Y6263958D01*
X73883778Y6231326D01*
X73838414Y6207078D01*
X73789192Y6192146D01*
X73731860Y6186500D01*
X72968140Y6186500D01*
X72910808Y6192146D01*
X72861586Y6207078D01*
X72816222Y6231326D01*
X72776458Y6263958D01*
X72743826Y6303722D01*
X72719578Y6349086D01*
X72704646Y6398308D01*
X72699000Y6455640D01*
X72699000Y8119360D01*
X72704646Y8176692D01*
X72719578Y8225914D01*
X72743826Y8271278D01*
X72776458Y8311042D01*
X72816222Y8343674D01*
X72861586Y8367922D01*
X72910808Y8382854D01*
X72968140Y8388500D01*
X73731860Y8388500D01*
X73789192Y8382854D01*
G37*
G36*
X65979192Y11032854D02*
G01*
X66028414Y11017922D01*
X66073778Y10993674D01*
X66113542Y10961042D01*
X66146174Y10921278D01*
X66170422Y10875914D01*
X66185354Y10826692D01*
X66191000Y10769360D01*
X66191000Y10005640D01*
X66185354Y9948308D01*
X66170422Y9899086D01*
X66146174Y9853722D01*
X66113542Y9813958D01*
X66073778Y9781326D01*
X66028414Y9757078D01*
X65979192Y9742146D01*
X65921860Y9736500D01*
X64258140Y9736500D01*
X64200808Y9742146D01*
X64151586Y9757078D01*
X64106222Y9781326D01*
X64066458Y9813958D01*
X64033826Y9853722D01*
X64009578Y9899086D01*
X63994646Y9948308D01*
X63989000Y10005640D01*
X63989000Y10769360D01*
X63994646Y10826692D01*
X64009578Y10875914D01*
X64033826Y10921278D01*
X64066458Y10961042D01*
X64106222Y10993674D01*
X64151586Y11017922D01*
X64200808Y11032854D01*
X64258140Y11038500D01*
X65921860Y11038500D01*
X65979192Y11032854D01*
G37*
G36*
X86299192Y11032854D02*
G01*
X86348414Y11017922D01*
X86393778Y10993674D01*
X86433542Y10961042D01*
X86466174Y10921278D01*
X86490422Y10875914D01*
X86505354Y10826692D01*
X86511000Y10769360D01*
X86511000Y10005640D01*
X86505354Y9948308D01*
X86490422Y9899086D01*
X86466174Y9853722D01*
X86433542Y9813958D01*
X86393778Y9781326D01*
X86348414Y9757078D01*
X86299192Y9742146D01*
X86241860Y9736500D01*
X84578140Y9736500D01*
X84520808Y9742146D01*
X84471586Y9757078D01*
X84426222Y9781326D01*
X84386458Y9813958D01*
X84353826Y9853722D01*
X84329578Y9899086D01*
X84314646Y9948308D01*
X84309000Y10005640D01*
X84309000Y10769360D01*
X84314646Y10826692D01*
X84329578Y10875914D01*
X84353826Y10921278D01*
X84386458Y10961042D01*
X84426222Y10993674D01*
X84471586Y11017922D01*
X84520808Y11032854D01*
X84578140Y11038500D01*
X86241860Y11038500D01*
X86299192Y11032854D01*
G37*
G36*
X76139192Y11032854D02*
G01*
X76188414Y11017922D01*
X76233778Y10993674D01*
X76273542Y10961042D01*
X76306174Y10921278D01*
X76330422Y10875914D01*
X76345354Y10826692D01*
X76351000Y10769360D01*
X76351000Y10005640D01*
X76345354Y9948308D01*
X76330422Y9899086D01*
X76306174Y9853722D01*
X76273542Y9813958D01*
X76233778Y9781326D01*
X76188414Y9757078D01*
X76139192Y9742146D01*
X76081860Y9736500D01*
X74418140Y9736500D01*
X74360808Y9742146D01*
X74311586Y9757078D01*
X74266222Y9781326D01*
X74226458Y9813958D01*
X74193826Y9853722D01*
X74169578Y9899086D01*
X74154646Y9948308D01*
X74149000Y10005640D01*
X74149000Y10769360D01*
X74154646Y10826692D01*
X74169578Y10875914D01*
X74193826Y10921278D01*
X74226458Y10961042D01*
X74266222Y10993674D01*
X74311586Y11017922D01*
X74360808Y11032854D01*
X74418140Y11038500D01*
X76081860Y11038500D01*
X76139192Y11032854D01*
G37*
G36*
X15179192Y11032854D02*
G01*
X15228414Y11017922D01*
X15273778Y10993674D01*
X15313542Y10961042D01*
X15346174Y10921278D01*
X15370422Y10875914D01*
X15385354Y10826692D01*
X15391000Y10769360D01*
X15391000Y10005640D01*
X15385354Y9948308D01*
X15370422Y9899086D01*
X15346174Y9853722D01*
X15313542Y9813958D01*
X15273778Y9781326D01*
X15228414Y9757078D01*
X15179192Y9742146D01*
X15121860Y9736500D01*
X13458140Y9736500D01*
X13400808Y9742146D01*
X13351586Y9757078D01*
X13306222Y9781326D01*
X13266458Y9813958D01*
X13233826Y9853722D01*
X13209578Y9899086D01*
X13194646Y9948308D01*
X13189000Y10005640D01*
X13189000Y10769360D01*
X13194646Y10826692D01*
X13209578Y10875914D01*
X13233826Y10921278D01*
X13266458Y10961042D01*
X13306222Y10993674D01*
X13351586Y11017922D01*
X13400808Y11032854D01*
X13458140Y11038500D01*
X15121860Y11038500D01*
X15179192Y11032854D01*
G37*
G36*
X35499192Y11032854D02*
G01*
X35548414Y11017922D01*
X35593778Y10993674D01*
X35633542Y10961042D01*
X35666174Y10921278D01*
X35690422Y10875914D01*
X35705354Y10826692D01*
X35711000Y10769360D01*
X35711000Y10005640D01*
X35705354Y9948308D01*
X35690422Y9899086D01*
X35666174Y9853722D01*
X35633542Y9813958D01*
X35593778Y9781326D01*
X35548414Y9757078D01*
X35499192Y9742146D01*
X35441860Y9736500D01*
X33778140Y9736500D01*
X33720808Y9742146D01*
X33671586Y9757078D01*
X33626222Y9781326D01*
X33586458Y9813958D01*
X33553826Y9853722D01*
X33529578Y9899086D01*
X33514646Y9948308D01*
X33509000Y10005640D01*
X33509000Y10769360D01*
X33514646Y10826692D01*
X33529578Y10875914D01*
X33553826Y10921278D01*
X33586458Y10961042D01*
X33626222Y10993674D01*
X33671586Y11017922D01*
X33720808Y11032854D01*
X33778140Y11038500D01*
X35441860Y11038500D01*
X35499192Y11032854D01*
G37*
G36*
X25339192Y11032854D02*
G01*
X25388414Y11017922D01*
X25433778Y10993674D01*
X25473542Y10961042D01*
X25506174Y10921278D01*
X25530422Y10875914D01*
X25545354Y10826692D01*
X25551000Y10769360D01*
X25551000Y10005640D01*
X25545354Y9948308D01*
X25530422Y9899086D01*
X25506174Y9853722D01*
X25473542Y9813958D01*
X25433778Y9781326D01*
X25388414Y9757078D01*
X25339192Y9742146D01*
X25281860Y9736500D01*
X23618140Y9736500D01*
X23560808Y9742146D01*
X23511586Y9757078D01*
X23466222Y9781326D01*
X23426458Y9813958D01*
X23393826Y9853722D01*
X23369578Y9899086D01*
X23354646Y9948308D01*
X23349000Y10005640D01*
X23349000Y10769360D01*
X23354646Y10826692D01*
X23369578Y10875914D01*
X23393826Y10921278D01*
X23426458Y10961042D01*
X23466222Y10993674D01*
X23511586Y11017922D01*
X23560808Y11032854D01*
X23618140Y11038500D01*
X25281860Y11038500D01*
X25339192Y11032854D01*
G37*
G36*
X45659192Y11032854D02*
G01*
X45708414Y11017922D01*
X45753778Y10993674D01*
X45793542Y10961042D01*
X45826174Y10921278D01*
X45850422Y10875914D01*
X45865354Y10826692D01*
X45871000Y10769360D01*
X45871000Y10005640D01*
X45865354Y9948308D01*
X45850422Y9899086D01*
X45826174Y9853722D01*
X45793542Y9813958D01*
X45753778Y9781326D01*
X45708414Y9757078D01*
X45659192Y9742146D01*
X45601860Y9736500D01*
X43938140Y9736500D01*
X43880808Y9742146D01*
X43831586Y9757078D01*
X43786222Y9781326D01*
X43746458Y9813958D01*
X43713826Y9853722D01*
X43689578Y9899086D01*
X43674646Y9948308D01*
X43669000Y10005640D01*
X43669000Y10769360D01*
X43674646Y10826692D01*
X43689578Y10875914D01*
X43713826Y10921278D01*
X43746458Y10961042D01*
X43786222Y10993674D01*
X43831586Y11017922D01*
X43880808Y11032854D01*
X43938140Y11038500D01*
X45601860Y11038500D01*
X45659192Y11032854D01*
G37*
G36*
X55819192Y11032854D02*
G01*
X55868414Y11017922D01*
X55913778Y10993674D01*
X55953542Y10961042D01*
X55986174Y10921278D01*
X56010422Y10875914D01*
X56025354Y10826692D01*
X56031000Y10769360D01*
X56031000Y10005640D01*
X56025354Y9948308D01*
X56010422Y9899086D01*
X55986174Y9853722D01*
X55953542Y9813958D01*
X55913778Y9781326D01*
X55868414Y9757078D01*
X55819192Y9742146D01*
X55761860Y9736500D01*
X54098140Y9736500D01*
X54040808Y9742146D01*
X53991586Y9757078D01*
X53946222Y9781326D01*
X53906458Y9813958D01*
X53873826Y9853722D01*
X53849578Y9899086D01*
X53834646Y9948308D01*
X53829000Y10005640D01*
X53829000Y10769360D01*
X53834646Y10826692D01*
X53849578Y10875914D01*
X53873826Y10921278D01*
X53906458Y10961042D01*
X53946222Y10993674D01*
X53991586Y11017922D01*
X54040808Y11032854D01*
X54098140Y11038500D01*
X55761860Y11038500D01*
X55819192Y11032854D01*
G37*
G36*
X83118228Y17238297D02*
G01*
X83273100Y17174147D01*
X83412481Y17081015D01*
X83531015Y16962481D01*
X83624147Y16823100D01*
X83688297Y16668228D01*
X83721000Y16503816D01*
X83721000Y16336184D01*
X83688297Y16171772D01*
X83624147Y16016900D01*
X83531015Y15877519D01*
X83412481Y15758985D01*
X83273100Y15665853D01*
X83118228Y15601703D01*
X82953816Y15569000D01*
X82786184Y15569000D01*
X82621772Y15601703D01*
X82466900Y15665853D01*
X82327519Y15758985D01*
X82208985Y15877519D01*
X82115853Y16016900D01*
X82051703Y16171772D01*
X82019000Y16336184D01*
X82019000Y16503816D01*
X82051703Y16668228D01*
X82115853Y16823100D01*
X82208985Y16962481D01*
X82327519Y17081015D01*
X82466900Y17174147D01*
X82621772Y17238297D01*
X82786184Y17271000D01*
X82953816Y17271000D01*
X83118228Y17238297D01*
G37*
G36*
X85658228Y17238297D02*
G01*
X85813100Y17174147D01*
X85952481Y17081015D01*
X86071015Y16962481D01*
X86164147Y16823100D01*
X86228297Y16668228D01*
X86261000Y16503816D01*
X86261000Y16336184D01*
X86228297Y16171772D01*
X86164147Y16016900D01*
X86071015Y15877519D01*
X85952481Y15758985D01*
X85813100Y15665853D01*
X85658228Y15601703D01*
X85493816Y15569000D01*
X85326184Y15569000D01*
X85161772Y15601703D01*
X85006900Y15665853D01*
X84867519Y15758985D01*
X84748985Y15877519D01*
X84655853Y16016900D01*
X84591703Y16171772D01*
X84559000Y16336184D01*
X84559000Y16503816D01*
X84591703Y16668228D01*
X84655853Y16823100D01*
X84748985Y16962481D01*
X84867519Y17081015D01*
X85006900Y17174147D01*
X85161772Y17238297D01*
X85326184Y17271000D01*
X85493816Y17271000D01*
X85658228Y17238297D01*
G37*
G36*
X88198228Y17238297D02*
G01*
X88353100Y17174147D01*
X88492481Y17081015D01*
X88611015Y16962481D01*
X88704147Y16823100D01*
X88768297Y16668228D01*
X88801000Y16503816D01*
X88801000Y16336184D01*
X88768297Y16171772D01*
X88704147Y16016900D01*
X88611015Y15877519D01*
X88492481Y15758985D01*
X88353100Y15665853D01*
X88198228Y15601703D01*
X88033816Y15569000D01*
X87866184Y15569000D01*
X87701772Y15601703D01*
X87546900Y15665853D01*
X87407519Y15758985D01*
X87288985Y15877519D01*
X87195853Y16016900D01*
X87131703Y16171772D01*
X87099000Y16336184D01*
X87099000Y16503816D01*
X87131703Y16668228D01*
X87195853Y16823100D01*
X87288985Y16962481D01*
X87407519Y17081015D01*
X87546900Y17174147D01*
X87701772Y17238297D01*
X87866184Y17271000D01*
X88033816Y17271000D01*
X88198228Y17238297D01*
G37*
G36*
X90738228Y17238297D02*
G01*
X90893100Y17174147D01*
X91032481Y17081015D01*
X91151015Y16962481D01*
X91244147Y16823100D01*
X91308297Y16668228D01*
X91341000Y16503816D01*
X91341000Y16336184D01*
X91308297Y16171772D01*
X91244147Y16016900D01*
X91151015Y15877519D01*
X91032481Y15758985D01*
X90893100Y15665853D01*
X90738228Y15601703D01*
X90573816Y15569000D01*
X90406184Y15569000D01*
X90241772Y15601703D01*
X90086900Y15665853D01*
X89947519Y15758985D01*
X89828985Y15877519D01*
X89735853Y16016900D01*
X89671703Y16171772D01*
X89639000Y16336184D01*
X89639000Y16503816D01*
X89671703Y16668228D01*
X89735853Y16823100D01*
X89828985Y16962481D01*
X89947519Y17081015D01*
X90086900Y17174147D01*
X90241772Y17238297D01*
X90406184Y17271000D01*
X90573816Y17271000D01*
X90738228Y17238297D01*
G37*
G36*
X80578228Y17238297D02*
G01*
X80733100Y17174147D01*
X80872481Y17081015D01*
X80991015Y16962481D01*
X81084147Y16823100D01*
X81148297Y16668228D01*
X81181000Y16503816D01*
X81181000Y16336184D01*
X81148297Y16171772D01*
X81084147Y16016900D01*
X80991015Y15877519D01*
X80872481Y15758985D01*
X80733100Y15665853D01*
X80578228Y15601703D01*
X80413816Y15569000D01*
X80246184Y15569000D01*
X80081772Y15601703D01*
X79926900Y15665853D01*
X79787519Y15758985D01*
X79668985Y15877519D01*
X79575853Y16016900D01*
X79511703Y16171772D01*
X79479000Y16336184D01*
X79479000Y16503816D01*
X79511703Y16668228D01*
X79575853Y16823100D01*
X79668985Y16962481D01*
X79787519Y17081015D01*
X79926900Y17174147D01*
X80081772Y17238297D01*
X80246184Y17271000D01*
X80413816Y17271000D01*
X80578228Y17238297D01*
G37*
G36*
X95818228Y17238297D02*
G01*
X95973100Y17174147D01*
X96112481Y17081015D01*
X96231015Y16962481D01*
X96324147Y16823100D01*
X96388297Y16668228D01*
X96421000Y16503816D01*
X96421000Y16336184D01*
X96388297Y16171772D01*
X96324147Y16016900D01*
X96231015Y15877519D01*
X96112481Y15758985D01*
X95973100Y15665853D01*
X95818228Y15601703D01*
X95653816Y15569000D01*
X95486184Y15569000D01*
X95321772Y15601703D01*
X95166900Y15665853D01*
X95027519Y15758985D01*
X94908985Y15877519D01*
X94815853Y16016900D01*
X94751703Y16171772D01*
X94719000Y16336184D01*
X94719000Y16503816D01*
X94751703Y16668228D01*
X94815853Y16823100D01*
X94908985Y16962481D01*
X95027519Y17081015D01*
X95166900Y17174147D01*
X95321772Y17238297D01*
X95486184Y17271000D01*
X95653816Y17271000D01*
X95818228Y17238297D01*
G37*
G36*
X78641000Y15569000D02*
G01*
X76939000Y15569000D01*
X76939000Y17271000D01*
X78641000Y17271000D01*
X78641000Y15569000D01*
G37*
G36*
X93278228Y17238297D02*
G01*
X93433100Y17174147D01*
X93572481Y17081015D01*
X93691015Y16962481D01*
X93784147Y16823100D01*
X93848297Y16668228D01*
X93881000Y16503816D01*
X93881000Y16336184D01*
X93848297Y16171772D01*
X93784147Y16016900D01*
X93691015Y15877519D01*
X93572481Y15758985D01*
X93433100Y15665853D01*
X93278228Y15601703D01*
X93113816Y15569000D01*
X92946184Y15569000D01*
X92781772Y15601703D01*
X92626900Y15665853D01*
X92487519Y15758985D01*
X92368985Y15877519D01*
X92275853Y16016900D01*
X92211703Y16171772D01*
X92179000Y16336184D01*
X92179000Y16503816D01*
X92211703Y16668228D01*
X92275853Y16823100D01*
X92368985Y16962481D01*
X92487519Y17081015D01*
X92626900Y17174147D01*
X92781772Y17238297D01*
X92946184Y17271000D01*
X93113816Y17271000D01*
X93278228Y17238297D01*
G37*
G36*
X45638642Y17190219D02*
G01*
X45784414Y17129838D01*
X45784416Y17129837D01*
X45915608Y17042178D01*
X46027178Y16930608D01*
X46099012Y16823100D01*
X46114838Y16799414D01*
X46175219Y16653642D01*
X46206000Y16498893D01*
X46206000Y16341107D01*
X46175219Y16186358D01*
X46114838Y16040586D01*
X46114837Y16040584D01*
X46027178Y15909392D01*
X45915608Y15797822D01*
X45784416Y15710163D01*
X45784415Y15710162D01*
X45784414Y15710162D01*
X45638642Y15649781D01*
X45483893Y15619000D01*
X45326107Y15619000D01*
X45171358Y15649781D01*
X45025586Y15710162D01*
X45025585Y15710162D01*
X45025584Y15710163D01*
X44894392Y15797822D01*
X44782822Y15909392D01*
X44695163Y16040584D01*
X44695162Y16040586D01*
X44634781Y16186358D01*
X44604000Y16341107D01*
X44604000Y16498893D01*
X44634781Y16653642D01*
X44695162Y16799414D01*
X44710988Y16823100D01*
X44782822Y16930608D01*
X44894392Y17042178D01*
X45025584Y17129837D01*
X45025586Y17129838D01*
X45171358Y17190219D01*
X45326107Y17221000D01*
X45483893Y17221000D01*
X45638642Y17190219D01*
G37*
G36*
X40558642Y17190219D02*
G01*
X40704414Y17129838D01*
X40704416Y17129837D01*
X40835608Y17042178D01*
X40947178Y16930608D01*
X41019012Y16823100D01*
X41034838Y16799414D01*
X41095219Y16653642D01*
X41126000Y16498893D01*
X41126000Y16341107D01*
X41095219Y16186358D01*
X41034838Y16040586D01*
X41034837Y16040584D01*
X40947178Y15909392D01*
X40835608Y15797822D01*
X40704416Y15710163D01*
X40704415Y15710162D01*
X40704414Y15710162D01*
X40558642Y15649781D01*
X40403893Y15619000D01*
X40246107Y15619000D01*
X40091358Y15649781D01*
X39945586Y15710162D01*
X39945585Y15710162D01*
X39945584Y15710163D01*
X39814392Y15797822D01*
X39702822Y15909392D01*
X39615163Y16040584D01*
X39615162Y16040586D01*
X39554781Y16186358D01*
X39524000Y16341107D01*
X39524000Y16498893D01*
X39554781Y16653642D01*
X39615162Y16799414D01*
X39630988Y16823100D01*
X39702822Y16930608D01*
X39814392Y17042178D01*
X39945584Y17129837D01*
X39945586Y17129838D01*
X40091358Y17190219D01*
X40246107Y17221000D01*
X40403893Y17221000D01*
X40558642Y17190219D01*
G37*
G36*
X43098642Y17190219D02*
G01*
X43244414Y17129838D01*
X43244416Y17129837D01*
X43375608Y17042178D01*
X43487178Y16930608D01*
X43559012Y16823100D01*
X43574838Y16799414D01*
X43635219Y16653642D01*
X43666000Y16498893D01*
X43666000Y16341107D01*
X43635219Y16186358D01*
X43574838Y16040586D01*
X43574837Y16040584D01*
X43487178Y15909392D01*
X43375608Y15797822D01*
X43244416Y15710163D01*
X43244415Y15710162D01*
X43244414Y15710162D01*
X43098642Y15649781D01*
X42943893Y15619000D01*
X42786107Y15619000D01*
X42631358Y15649781D01*
X42485586Y15710162D01*
X42485585Y15710162D01*
X42485584Y15710163D01*
X42354392Y15797822D01*
X42242822Y15909392D01*
X42155163Y16040584D01*
X42155162Y16040586D01*
X42094781Y16186358D01*
X42064000Y16341107D01*
X42064000Y16498893D01*
X42094781Y16653642D01*
X42155162Y16799414D01*
X42170988Y16823100D01*
X42242822Y16930608D01*
X42354392Y17042178D01*
X42485584Y17129837D01*
X42485586Y17129838D01*
X42631358Y17190219D01*
X42786107Y17221000D01*
X42943893Y17221000D01*
X43098642Y17190219D01*
G37*
G36*
X48178642Y17190219D02*
G01*
X48324414Y17129838D01*
X48324416Y17129837D01*
X48455608Y17042178D01*
X48567178Y16930608D01*
X48639012Y16823100D01*
X48654838Y16799414D01*
X48715219Y16653642D01*
X48746000Y16498893D01*
X48746000Y16341107D01*
X48715219Y16186358D01*
X48654838Y16040586D01*
X48654837Y16040584D01*
X48567178Y15909392D01*
X48455608Y15797822D01*
X48324416Y15710163D01*
X48324415Y15710162D01*
X48324414Y15710162D01*
X48178642Y15649781D01*
X48023893Y15619000D01*
X47866107Y15619000D01*
X47711358Y15649781D01*
X47565586Y15710162D01*
X47565585Y15710162D01*
X47565584Y15710163D01*
X47434392Y15797822D01*
X47322822Y15909392D01*
X47235163Y16040584D01*
X47235162Y16040586D01*
X47174781Y16186358D01*
X47144000Y16341107D01*
X47144000Y16498893D01*
X47174781Y16653642D01*
X47235162Y16799414D01*
X47250988Y16823100D01*
X47322822Y16930608D01*
X47434392Y17042178D01*
X47565584Y17129837D01*
X47565586Y17129838D01*
X47711358Y17190219D01*
X47866107Y17221000D01*
X48023893Y17221000D01*
X48178642Y17190219D01*
G37*
G36*
X50718642Y17190219D02*
G01*
X50864414Y17129838D01*
X50864416Y17129837D01*
X50995608Y17042178D01*
X51107178Y16930608D01*
X51179012Y16823100D01*
X51194838Y16799414D01*
X51255219Y16653642D01*
X51286000Y16498893D01*
X51286000Y16341107D01*
X51255219Y16186358D01*
X51194838Y16040586D01*
X51194837Y16040584D01*
X51107178Y15909392D01*
X50995608Y15797822D01*
X50864416Y15710163D01*
X50864415Y15710162D01*
X50864414Y15710162D01*
X50718642Y15649781D01*
X50563893Y15619000D01*
X50406107Y15619000D01*
X50251358Y15649781D01*
X50105586Y15710162D01*
X50105585Y15710162D01*
X50105584Y15710163D01*
X49974392Y15797822D01*
X49862822Y15909392D01*
X49775163Y16040584D01*
X49775162Y16040586D01*
X49714781Y16186358D01*
X49684000Y16341107D01*
X49684000Y16498893D01*
X49714781Y16653642D01*
X49775162Y16799414D01*
X49790988Y16823100D01*
X49862822Y16930608D01*
X49974392Y17042178D01*
X50105584Y17129837D01*
X50105586Y17129838D01*
X50251358Y17190219D01*
X50406107Y17221000D01*
X50563893Y17221000D01*
X50718642Y17190219D01*
G37*
G36*
X53258642Y17190219D02*
G01*
X53404414Y17129838D01*
X53404416Y17129837D01*
X53535608Y17042178D01*
X53647178Y16930608D01*
X53719012Y16823100D01*
X53734838Y16799414D01*
X53795219Y16653642D01*
X53826000Y16498893D01*
X53826000Y16341107D01*
X53795219Y16186358D01*
X53734838Y16040586D01*
X53734837Y16040584D01*
X53647178Y15909392D01*
X53535608Y15797822D01*
X53404416Y15710163D01*
X53404415Y15710162D01*
X53404414Y15710162D01*
X53258642Y15649781D01*
X53103893Y15619000D01*
X52946107Y15619000D01*
X52791358Y15649781D01*
X52645586Y15710162D01*
X52645585Y15710162D01*
X52645584Y15710163D01*
X52514392Y15797822D01*
X52402822Y15909392D01*
X52315163Y16040584D01*
X52315162Y16040586D01*
X52254781Y16186358D01*
X52224000Y16341107D01*
X52224000Y16498893D01*
X52254781Y16653642D01*
X52315162Y16799414D01*
X52330988Y16823100D01*
X52402822Y16930608D01*
X52514392Y17042178D01*
X52645584Y17129837D01*
X52645586Y17129838D01*
X52791358Y17190219D01*
X52946107Y17221000D01*
X53103893Y17221000D01*
X53258642Y17190219D01*
G37*
G36*
X55798642Y17190219D02*
G01*
X55944414Y17129838D01*
X55944416Y17129837D01*
X56075608Y17042178D01*
X56187178Y16930608D01*
X56259012Y16823100D01*
X56274838Y16799414D01*
X56335219Y16653642D01*
X56366000Y16498893D01*
X56366000Y16341107D01*
X56335219Y16186358D01*
X56274838Y16040586D01*
X56274837Y16040584D01*
X56187178Y15909392D01*
X56075608Y15797822D01*
X55944416Y15710163D01*
X55944415Y15710162D01*
X55944414Y15710162D01*
X55798642Y15649781D01*
X55643893Y15619000D01*
X55486107Y15619000D01*
X55331358Y15649781D01*
X55185586Y15710162D01*
X55185585Y15710162D01*
X55185584Y15710163D01*
X55054392Y15797822D01*
X54942822Y15909392D01*
X54855163Y16040584D01*
X54855162Y16040586D01*
X54794781Y16186358D01*
X54764000Y16341107D01*
X54764000Y16498893D01*
X54794781Y16653642D01*
X54855162Y16799414D01*
X54870988Y16823100D01*
X54942822Y16930608D01*
X55054392Y17042178D01*
X55185584Y17129837D01*
X55185586Y17129838D01*
X55331358Y17190219D01*
X55486107Y17221000D01*
X55643893Y17221000D01*
X55798642Y17190219D01*
G37*
G36*
X58338642Y17190219D02*
G01*
X58484414Y17129838D01*
X58484416Y17129837D01*
X58615608Y17042178D01*
X58727178Y16930608D01*
X58799012Y16823100D01*
X58814838Y16799414D01*
X58875219Y16653642D01*
X58906000Y16498893D01*
X58906000Y16341107D01*
X58875219Y16186358D01*
X58814838Y16040586D01*
X58814837Y16040584D01*
X58727178Y15909392D01*
X58615608Y15797822D01*
X58484416Y15710163D01*
X58484415Y15710162D01*
X58484414Y15710162D01*
X58338642Y15649781D01*
X58183893Y15619000D01*
X58026107Y15619000D01*
X57871358Y15649781D01*
X57725586Y15710162D01*
X57725585Y15710162D01*
X57725584Y15710163D01*
X57594392Y15797822D01*
X57482822Y15909392D01*
X57395163Y16040584D01*
X57395162Y16040586D01*
X57334781Y16186358D01*
X57304000Y16341107D01*
X57304000Y16498893D01*
X57334781Y16653642D01*
X57395162Y16799414D01*
X57410988Y16823100D01*
X57482822Y16930608D01*
X57594392Y17042178D01*
X57725584Y17129837D01*
X57725586Y17129838D01*
X57871358Y17190219D01*
X58026107Y17221000D01*
X58183893Y17221000D01*
X58338642Y17190219D01*
G37*
G36*
X63418642Y17190219D02*
G01*
X63564414Y17129838D01*
X63564416Y17129837D01*
X63695608Y17042178D01*
X63807178Y16930608D01*
X63879012Y16823100D01*
X63894838Y16799414D01*
X63955219Y16653642D01*
X63986000Y16498893D01*
X63986000Y16341107D01*
X63955219Y16186358D01*
X63894838Y16040586D01*
X63894837Y16040584D01*
X63807178Y15909392D01*
X63695608Y15797822D01*
X63564416Y15710163D01*
X63564415Y15710162D01*
X63564414Y15710162D01*
X63418642Y15649781D01*
X63263893Y15619000D01*
X63106107Y15619000D01*
X62951358Y15649781D01*
X62805586Y15710162D01*
X62805585Y15710162D01*
X62805584Y15710163D01*
X62674392Y15797822D01*
X62562822Y15909392D01*
X62475163Y16040584D01*
X62475162Y16040586D01*
X62414781Y16186358D01*
X62384000Y16341107D01*
X62384000Y16498893D01*
X62414781Y16653642D01*
X62475162Y16799414D01*
X62490988Y16823100D01*
X62562822Y16930608D01*
X62674392Y17042178D01*
X62805584Y17129837D01*
X62805586Y17129838D01*
X62951358Y17190219D01*
X63106107Y17221000D01*
X63263893Y17221000D01*
X63418642Y17190219D01*
G37*
G36*
X60878642Y17190219D02*
G01*
X61024414Y17129838D01*
X61024416Y17129837D01*
X61155608Y17042178D01*
X61267178Y16930608D01*
X61339012Y16823100D01*
X61354838Y16799414D01*
X61415219Y16653642D01*
X61446000Y16498893D01*
X61446000Y16341107D01*
X61415219Y16186358D01*
X61354838Y16040586D01*
X61354837Y16040584D01*
X61267178Y15909392D01*
X61155608Y15797822D01*
X61024416Y15710163D01*
X61024415Y15710162D01*
X61024414Y15710162D01*
X60878642Y15649781D01*
X60723893Y15619000D01*
X60566107Y15619000D01*
X60411358Y15649781D01*
X60265586Y15710162D01*
X60265585Y15710162D01*
X60265584Y15710163D01*
X60134392Y15797822D01*
X60022822Y15909392D01*
X59935163Y16040584D01*
X59935162Y16040586D01*
X59874781Y16186358D01*
X59844000Y16341107D01*
X59844000Y16498893D01*
X59874781Y16653642D01*
X59935162Y16799414D01*
X59950988Y16823100D01*
X60022822Y16930608D01*
X60134392Y17042178D01*
X60265584Y17129837D01*
X60265586Y17129838D01*
X60411358Y17190219D01*
X60566107Y17221000D01*
X60723893Y17221000D01*
X60878642Y17190219D01*
G37*
G36*
X20238642Y17190219D02*
G01*
X20384414Y17129838D01*
X20384416Y17129837D01*
X20515608Y17042178D01*
X20627178Y16930608D01*
X20699012Y16823100D01*
X20714838Y16799414D01*
X20775219Y16653642D01*
X20806000Y16498893D01*
X20806000Y16341107D01*
X20775219Y16186358D01*
X20714838Y16040586D01*
X20714837Y16040584D01*
X20627178Y15909392D01*
X20515608Y15797822D01*
X20384416Y15710163D01*
X20384415Y15710162D01*
X20384414Y15710162D01*
X20238642Y15649781D01*
X20083893Y15619000D01*
X19926107Y15619000D01*
X19771358Y15649781D01*
X19625586Y15710162D01*
X19625585Y15710162D01*
X19625584Y15710163D01*
X19494392Y15797822D01*
X19382822Y15909392D01*
X19295163Y16040584D01*
X19295162Y16040586D01*
X19234781Y16186358D01*
X19204000Y16341107D01*
X19204000Y16498893D01*
X19234781Y16653642D01*
X19295162Y16799414D01*
X19310988Y16823100D01*
X19382822Y16930608D01*
X19494392Y17042178D01*
X19625584Y17129837D01*
X19625586Y17129838D01*
X19771358Y17190219D01*
X19926107Y17221000D01*
X20083893Y17221000D01*
X20238642Y17190219D01*
G37*
G36*
X22778642Y17190219D02*
G01*
X22924414Y17129838D01*
X22924416Y17129837D01*
X23055608Y17042178D01*
X23167178Y16930608D01*
X23239012Y16823100D01*
X23254838Y16799414D01*
X23315219Y16653642D01*
X23346000Y16498893D01*
X23346000Y16341107D01*
X23315219Y16186358D01*
X23254838Y16040586D01*
X23254837Y16040584D01*
X23167178Y15909392D01*
X23055608Y15797822D01*
X22924416Y15710163D01*
X22924415Y15710162D01*
X22924414Y15710162D01*
X22778642Y15649781D01*
X22623893Y15619000D01*
X22466107Y15619000D01*
X22311358Y15649781D01*
X22165586Y15710162D01*
X22165585Y15710162D01*
X22165584Y15710163D01*
X22034392Y15797822D01*
X21922822Y15909392D01*
X21835163Y16040584D01*
X21835162Y16040586D01*
X21774781Y16186358D01*
X21744000Y16341107D01*
X21744000Y16498893D01*
X21774781Y16653642D01*
X21835162Y16799414D01*
X21850988Y16823100D01*
X21922822Y16930608D01*
X22034392Y17042178D01*
X22165584Y17129837D01*
X22165586Y17129838D01*
X22311358Y17190219D01*
X22466107Y17221000D01*
X22623893Y17221000D01*
X22778642Y17190219D01*
G37*
G36*
X25318642Y17190219D02*
G01*
X25464414Y17129838D01*
X25464416Y17129837D01*
X25595608Y17042178D01*
X25707178Y16930608D01*
X25779012Y16823100D01*
X25794838Y16799414D01*
X25855219Y16653642D01*
X25886000Y16498893D01*
X25886000Y16341107D01*
X25855219Y16186358D01*
X25794838Y16040586D01*
X25794837Y16040584D01*
X25707178Y15909392D01*
X25595608Y15797822D01*
X25464416Y15710163D01*
X25464415Y15710162D01*
X25464414Y15710162D01*
X25318642Y15649781D01*
X25163893Y15619000D01*
X25006107Y15619000D01*
X24851358Y15649781D01*
X24705586Y15710162D01*
X24705585Y15710162D01*
X24705584Y15710163D01*
X24574392Y15797822D01*
X24462822Y15909392D01*
X24375163Y16040584D01*
X24375162Y16040586D01*
X24314781Y16186358D01*
X24284000Y16341107D01*
X24284000Y16498893D01*
X24314781Y16653642D01*
X24375162Y16799414D01*
X24390988Y16823100D01*
X24462822Y16930608D01*
X24574392Y17042178D01*
X24705584Y17129837D01*
X24705586Y17129838D01*
X24851358Y17190219D01*
X25006107Y17221000D01*
X25163893Y17221000D01*
X25318642Y17190219D01*
G37*
G36*
X27858642Y17190219D02*
G01*
X28004414Y17129838D01*
X28004416Y17129837D01*
X28135608Y17042178D01*
X28247178Y16930608D01*
X28319012Y16823100D01*
X28334838Y16799414D01*
X28395219Y16653642D01*
X28426000Y16498893D01*
X28426000Y16341107D01*
X28395219Y16186358D01*
X28334838Y16040586D01*
X28334837Y16040584D01*
X28247178Y15909392D01*
X28135608Y15797822D01*
X28004416Y15710163D01*
X28004415Y15710162D01*
X28004414Y15710162D01*
X27858642Y15649781D01*
X27703893Y15619000D01*
X27546107Y15619000D01*
X27391358Y15649781D01*
X27245586Y15710162D01*
X27245585Y15710162D01*
X27245584Y15710163D01*
X27114392Y15797822D01*
X27002822Y15909392D01*
X26915163Y16040584D01*
X26915162Y16040586D01*
X26854781Y16186358D01*
X26824000Y16341107D01*
X26824000Y16498893D01*
X26854781Y16653642D01*
X26915162Y16799414D01*
X26930988Y16823100D01*
X27002822Y16930608D01*
X27114392Y17042178D01*
X27245584Y17129837D01*
X27245586Y17129838D01*
X27391358Y17190219D01*
X27546107Y17221000D01*
X27703893Y17221000D01*
X27858642Y17190219D01*
G37*
G36*
X30398642Y17190219D02*
G01*
X30544414Y17129838D01*
X30544416Y17129837D01*
X30675608Y17042178D01*
X30787178Y16930608D01*
X30859012Y16823100D01*
X30874838Y16799414D01*
X30935219Y16653642D01*
X30966000Y16498893D01*
X30966000Y16341107D01*
X30935219Y16186358D01*
X30874838Y16040586D01*
X30874837Y16040584D01*
X30787178Y15909392D01*
X30675608Y15797822D01*
X30544416Y15710163D01*
X30544415Y15710162D01*
X30544414Y15710162D01*
X30398642Y15649781D01*
X30243893Y15619000D01*
X30086107Y15619000D01*
X29931358Y15649781D01*
X29785586Y15710162D01*
X29785585Y15710162D01*
X29785584Y15710163D01*
X29654392Y15797822D01*
X29542822Y15909392D01*
X29455163Y16040584D01*
X29455162Y16040586D01*
X29394781Y16186358D01*
X29364000Y16341107D01*
X29364000Y16498893D01*
X29394781Y16653642D01*
X29455162Y16799414D01*
X29470988Y16823100D01*
X29542822Y16930608D01*
X29654392Y17042178D01*
X29785584Y17129837D01*
X29785586Y17129838D01*
X29931358Y17190219D01*
X30086107Y17221000D01*
X30243893Y17221000D01*
X30398642Y17190219D01*
G37*
G36*
X32938642Y17190219D02*
G01*
X33084414Y17129838D01*
X33084416Y17129837D01*
X33215608Y17042178D01*
X33327178Y16930608D01*
X33399012Y16823100D01*
X33414838Y16799414D01*
X33475219Y16653642D01*
X33506000Y16498893D01*
X33506000Y16341107D01*
X33475219Y16186358D01*
X33414838Y16040586D01*
X33414837Y16040584D01*
X33327178Y15909392D01*
X33215608Y15797822D01*
X33084416Y15710163D01*
X33084415Y15710162D01*
X33084414Y15710162D01*
X32938642Y15649781D01*
X32783893Y15619000D01*
X32626107Y15619000D01*
X32471358Y15649781D01*
X32325586Y15710162D01*
X32325585Y15710162D01*
X32325584Y15710163D01*
X32194392Y15797822D01*
X32082822Y15909392D01*
X31995163Y16040584D01*
X31995162Y16040586D01*
X31934781Y16186358D01*
X31904000Y16341107D01*
X31904000Y16498893D01*
X31934781Y16653642D01*
X31995162Y16799414D01*
X32010988Y16823100D01*
X32082822Y16930608D01*
X32194392Y17042178D01*
X32325584Y17129837D01*
X32325586Y17129838D01*
X32471358Y17190219D01*
X32626107Y17221000D01*
X32783893Y17221000D01*
X32938642Y17190219D01*
G37*
G36*
X65958642Y17190219D02*
G01*
X66104414Y17129838D01*
X66104416Y17129837D01*
X66235608Y17042178D01*
X66347178Y16930608D01*
X66419012Y16823100D01*
X66434838Y16799414D01*
X66495219Y16653642D01*
X66526000Y16498893D01*
X66526000Y16341107D01*
X66495219Y16186358D01*
X66434838Y16040586D01*
X66434837Y16040584D01*
X66347178Y15909392D01*
X66235608Y15797822D01*
X66104416Y15710163D01*
X66104415Y15710162D01*
X66104414Y15710162D01*
X65958642Y15649781D01*
X65803893Y15619000D01*
X65646107Y15619000D01*
X65491358Y15649781D01*
X65345586Y15710162D01*
X65345585Y15710162D01*
X65345584Y15710163D01*
X65214392Y15797822D01*
X65102822Y15909392D01*
X65015163Y16040584D01*
X65015162Y16040586D01*
X64954781Y16186358D01*
X64924000Y16341107D01*
X64924000Y16498893D01*
X64954781Y16653642D01*
X65015162Y16799414D01*
X65030988Y16823100D01*
X65102822Y16930608D01*
X65214392Y17042178D01*
X65345584Y17129837D01*
X65345586Y17129838D01*
X65491358Y17190219D01*
X65646107Y17221000D01*
X65803893Y17221000D01*
X65958642Y17190219D01*
G37*
G36*
X35478642Y17190219D02*
G01*
X35624414Y17129838D01*
X35624416Y17129837D01*
X35755608Y17042178D01*
X35867178Y16930608D01*
X35939012Y16823100D01*
X35954838Y16799414D01*
X36015219Y16653642D01*
X36046000Y16498893D01*
X36046000Y16341107D01*
X36015219Y16186358D01*
X35954838Y16040586D01*
X35954837Y16040584D01*
X35867178Y15909392D01*
X35755608Y15797822D01*
X35624416Y15710163D01*
X35624415Y15710162D01*
X35624414Y15710162D01*
X35478642Y15649781D01*
X35323893Y15619000D01*
X35166107Y15619000D01*
X35011358Y15649781D01*
X34865586Y15710162D01*
X34865585Y15710162D01*
X34865584Y15710163D01*
X34734392Y15797822D01*
X34622822Y15909392D01*
X34535163Y16040584D01*
X34535162Y16040586D01*
X34474781Y16186358D01*
X34444000Y16341107D01*
X34444000Y16498893D01*
X34474781Y16653642D01*
X34535162Y16799414D01*
X34550988Y16823100D01*
X34622822Y16930608D01*
X34734392Y17042178D01*
X34865584Y17129837D01*
X34865586Y17129838D01*
X35011358Y17190219D01*
X35166107Y17221000D01*
X35323893Y17221000D01*
X35478642Y17190219D01*
G37*
G36*
X38018642Y17190219D02*
G01*
X38164414Y17129838D01*
X38164416Y17129837D01*
X38295608Y17042178D01*
X38407178Y16930608D01*
X38479012Y16823100D01*
X38494838Y16799414D01*
X38555219Y16653642D01*
X38586000Y16498893D01*
X38586000Y16341107D01*
X38555219Y16186358D01*
X38494838Y16040586D01*
X38494837Y16040584D01*
X38407178Y15909392D01*
X38295608Y15797822D01*
X38164416Y15710163D01*
X38164415Y15710162D01*
X38164414Y15710162D01*
X38018642Y15649781D01*
X37863893Y15619000D01*
X37706107Y15619000D01*
X37551358Y15649781D01*
X37405586Y15710162D01*
X37405585Y15710162D01*
X37405584Y15710163D01*
X37274392Y15797822D01*
X37162822Y15909392D01*
X37075163Y16040584D01*
X37075162Y16040586D01*
X37014781Y16186358D01*
X36984000Y16341107D01*
X36984000Y16498893D01*
X37014781Y16653642D01*
X37075162Y16799414D01*
X37090988Y16823100D01*
X37162822Y16930608D01*
X37274392Y17042178D01*
X37405584Y17129837D01*
X37405586Y17129838D01*
X37551358Y17190219D01*
X37706107Y17221000D01*
X37863893Y17221000D01*
X38018642Y17190219D01*
G37*
G36*
X74863228Y19858297D02*
G01*
X75018100Y19794147D01*
X75157481Y19701015D01*
X75276015Y19582481D01*
X75369147Y19443100D01*
X75433297Y19288228D01*
X75466000Y19123816D01*
X75466000Y18956184D01*
X75433297Y18791772D01*
X75369147Y18636900D01*
X75276015Y18497519D01*
X75157481Y18378985D01*
X75018100Y18285853D01*
X74863228Y18221703D01*
X74698816Y18189000D01*
X74531184Y18189000D01*
X74366772Y18221703D01*
X74211900Y18285853D01*
X74072519Y18378985D01*
X73953985Y18497519D01*
X73860853Y18636900D01*
X73796703Y18791772D01*
X73764000Y18956184D01*
X73764000Y19123816D01*
X73796703Y19288228D01*
X73860853Y19443100D01*
X73953985Y19582481D01*
X74072519Y19701015D01*
X74211900Y19794147D01*
X74366772Y19858297D01*
X74531184Y19891000D01*
X74698816Y19891000D01*
X74863228Y19858297D01*
G37*
G36*
X78038228Y24858297D02*
G01*
X78193100Y24794147D01*
X78332481Y24701015D01*
X78451015Y24582481D01*
X78544147Y24443100D01*
X78608297Y24288228D01*
X78641000Y24123816D01*
X78641000Y23956184D01*
X78608297Y23791772D01*
X78544147Y23636900D01*
X78451015Y23497519D01*
X78332481Y23378985D01*
X78193100Y23285853D01*
X78038228Y23221703D01*
X77873816Y23189000D01*
X77706184Y23189000D01*
X77541772Y23221703D01*
X77386900Y23285853D01*
X77247519Y23378985D01*
X77128985Y23497519D01*
X77035853Y23636900D01*
X76971703Y23791772D01*
X76939000Y23956184D01*
X76939000Y24123816D01*
X76971703Y24288228D01*
X77035853Y24443100D01*
X77128985Y24582481D01*
X77247519Y24701015D01*
X77386900Y24794147D01*
X77541772Y24858297D01*
X77706184Y24891000D01*
X77873816Y24891000D01*
X78038228Y24858297D01*
G37*
G36*
X85658228Y24858297D02*
G01*
X85813100Y24794147D01*
X85952481Y24701015D01*
X86071015Y24582481D01*
X86164147Y24443100D01*
X86228297Y24288228D01*
X86261000Y24123816D01*
X86261000Y23956184D01*
X86228297Y23791772D01*
X86164147Y23636900D01*
X86071015Y23497519D01*
X85952481Y23378985D01*
X85813100Y23285853D01*
X85658228Y23221703D01*
X85493816Y23189000D01*
X85326184Y23189000D01*
X85161772Y23221703D01*
X85006900Y23285853D01*
X84867519Y23378985D01*
X84748985Y23497519D01*
X84655853Y23636900D01*
X84591703Y23791772D01*
X84559000Y23956184D01*
X84559000Y24123816D01*
X84591703Y24288228D01*
X84655853Y24443100D01*
X84748985Y24582481D01*
X84867519Y24701015D01*
X85006900Y24794147D01*
X85161772Y24858297D01*
X85326184Y24891000D01*
X85493816Y24891000D01*
X85658228Y24858297D01*
G37*
G36*
X90738228Y24858297D02*
G01*
X90893100Y24794147D01*
X91032481Y24701015D01*
X91151015Y24582481D01*
X91244147Y24443100D01*
X91308297Y24288228D01*
X91341000Y24123816D01*
X91341000Y23956184D01*
X91308297Y23791772D01*
X91244147Y23636900D01*
X91151015Y23497519D01*
X91032481Y23378985D01*
X90893100Y23285853D01*
X90738228Y23221703D01*
X90573816Y23189000D01*
X90406184Y23189000D01*
X90241772Y23221703D01*
X90086900Y23285853D01*
X89947519Y23378985D01*
X89828985Y23497519D01*
X89735853Y23636900D01*
X89671703Y23791772D01*
X89639000Y23956184D01*
X89639000Y24123816D01*
X89671703Y24288228D01*
X89735853Y24443100D01*
X89828985Y24582481D01*
X89947519Y24701015D01*
X90086900Y24794147D01*
X90241772Y24858297D01*
X90406184Y24891000D01*
X90573816Y24891000D01*
X90738228Y24858297D01*
G37*
G36*
X83118228Y24858297D02*
G01*
X83273100Y24794147D01*
X83412481Y24701015D01*
X83531015Y24582481D01*
X83624147Y24443100D01*
X83688297Y24288228D01*
X83721000Y24123816D01*
X83721000Y23956184D01*
X83688297Y23791772D01*
X83624147Y23636900D01*
X83531015Y23497519D01*
X83412481Y23378985D01*
X83273100Y23285853D01*
X83118228Y23221703D01*
X82953816Y23189000D01*
X82786184Y23189000D01*
X82621772Y23221703D01*
X82466900Y23285853D01*
X82327519Y23378985D01*
X82208985Y23497519D01*
X82115853Y23636900D01*
X82051703Y23791772D01*
X82019000Y23956184D01*
X82019000Y24123816D01*
X82051703Y24288228D01*
X82115853Y24443100D01*
X82208985Y24582481D01*
X82327519Y24701015D01*
X82466900Y24794147D01*
X82621772Y24858297D01*
X82786184Y24891000D01*
X82953816Y24891000D01*
X83118228Y24858297D01*
G37*
G36*
X93278228Y24858297D02*
G01*
X93433100Y24794147D01*
X93572481Y24701015D01*
X93691015Y24582481D01*
X93784147Y24443100D01*
X93848297Y24288228D01*
X93881000Y24123816D01*
X93881000Y23956184D01*
X93848297Y23791772D01*
X93784147Y23636900D01*
X93691015Y23497519D01*
X93572481Y23378985D01*
X93433100Y23285853D01*
X93278228Y23221703D01*
X93113816Y23189000D01*
X92946184Y23189000D01*
X92781772Y23221703D01*
X92626900Y23285853D01*
X92487519Y23378985D01*
X92368985Y23497519D01*
X92275853Y23636900D01*
X92211703Y23791772D01*
X92179000Y23956184D01*
X92179000Y24123816D01*
X92211703Y24288228D01*
X92275853Y24443100D01*
X92368985Y24582481D01*
X92487519Y24701015D01*
X92626900Y24794147D01*
X92781772Y24858297D01*
X92946184Y24891000D01*
X93113816Y24891000D01*
X93278228Y24858297D01*
G37*
G36*
X80578228Y24858297D02*
G01*
X80733100Y24794147D01*
X80872481Y24701015D01*
X80991015Y24582481D01*
X81084147Y24443100D01*
X81148297Y24288228D01*
X81181000Y24123816D01*
X81181000Y23956184D01*
X81148297Y23791772D01*
X81084147Y23636900D01*
X80991015Y23497519D01*
X80872481Y23378985D01*
X80733100Y23285853D01*
X80578228Y23221703D01*
X80413816Y23189000D01*
X80246184Y23189000D01*
X80081772Y23221703D01*
X79926900Y23285853D01*
X79787519Y23378985D01*
X79668985Y23497519D01*
X79575853Y23636900D01*
X79511703Y23791772D01*
X79479000Y23956184D01*
X79479000Y24123816D01*
X79511703Y24288228D01*
X79575853Y24443100D01*
X79668985Y24582481D01*
X79787519Y24701015D01*
X79926900Y24794147D01*
X80081772Y24858297D01*
X80246184Y24891000D01*
X80413816Y24891000D01*
X80578228Y24858297D01*
G37*
G36*
X95818228Y24858297D02*
G01*
X95973100Y24794147D01*
X96112481Y24701015D01*
X96231015Y24582481D01*
X96324147Y24443100D01*
X96388297Y24288228D01*
X96421000Y24123816D01*
X96421000Y23956184D01*
X96388297Y23791772D01*
X96324147Y23636900D01*
X96231015Y23497519D01*
X96112481Y23378985D01*
X95973100Y23285853D01*
X95818228Y23221703D01*
X95653816Y23189000D01*
X95486184Y23189000D01*
X95321772Y23221703D01*
X95166900Y23285853D01*
X95027519Y23378985D01*
X94908985Y23497519D01*
X94815853Y23636900D01*
X94751703Y23791772D01*
X94719000Y23956184D01*
X94719000Y24123816D01*
X94751703Y24288228D01*
X94815853Y24443100D01*
X94908985Y24582481D01*
X95027519Y24701015D01*
X95166900Y24794147D01*
X95321772Y24858297D01*
X95486184Y24891000D01*
X95653816Y24891000D01*
X95818228Y24858297D01*
G37*
G36*
X74863228Y24858297D02*
G01*
X75018100Y24794147D01*
X75157481Y24701015D01*
X75276015Y24582481D01*
X75369147Y24443100D01*
X75433297Y24288228D01*
X75466000Y24123816D01*
X75466000Y23956184D01*
X75433297Y23791772D01*
X75369147Y23636900D01*
X75276015Y23497519D01*
X75157481Y23378985D01*
X75018100Y23285853D01*
X74863228Y23221703D01*
X74698816Y23189000D01*
X74531184Y23189000D01*
X74366772Y23221703D01*
X74211900Y23285853D01*
X74072519Y23378985D01*
X73953985Y23497519D01*
X73860853Y23636900D01*
X73796703Y23791772D01*
X73764000Y23956184D01*
X73764000Y24123816D01*
X73796703Y24288228D01*
X73860853Y24443100D01*
X73953985Y24582481D01*
X74072519Y24701015D01*
X74211900Y24794147D01*
X74366772Y24858297D01*
X74531184Y24891000D01*
X74698816Y24891000D01*
X74863228Y24858297D01*
G37*
G36*
X88198228Y24858297D02*
G01*
X88353100Y24794147D01*
X88492481Y24701015D01*
X88611015Y24582481D01*
X88704147Y24443100D01*
X88768297Y24288228D01*
X88801000Y24123816D01*
X88801000Y23956184D01*
X88768297Y23791772D01*
X88704147Y23636900D01*
X88611015Y23497519D01*
X88492481Y23378985D01*
X88353100Y23285853D01*
X88198228Y23221703D01*
X88033816Y23189000D01*
X87866184Y23189000D01*
X87701772Y23221703D01*
X87546900Y23285853D01*
X87407519Y23378985D01*
X87288985Y23497519D01*
X87195853Y23636900D01*
X87131703Y23791772D01*
X87099000Y23956184D01*
X87099000Y24123816D01*
X87131703Y24288228D01*
X87195853Y24443100D01*
X87288985Y24582481D01*
X87407519Y24701015D01*
X87546900Y24794147D01*
X87701772Y24858297D01*
X87866184Y24891000D01*
X88033816Y24891000D01*
X88198228Y24858297D01*
G37*
G36*
X7469795Y27034844D02*
G01*
X7576150Y27013689D01*
X7776520Y26930693D01*
X7956844Y26810205D01*
X8110205Y26656844D01*
X8230693Y26476520D01*
X8313689Y26276149D01*
X8356000Y26063440D01*
X8356000Y25846560D01*
X8313689Y25633851D01*
X8230693Y25433480D01*
X8110205Y25253156D01*
X7956844Y25099795D01*
X7776520Y24979307D01*
X7676334Y24937809D01*
X7576150Y24896311D01*
X7469794Y24875155D01*
X7363440Y24854000D01*
X7146560Y24854000D01*
X7040206Y24875155D01*
X6933850Y24896311D01*
X6833666Y24937809D01*
X6733480Y24979307D01*
X6553156Y25099795D01*
X6399795Y25253156D01*
X6279307Y25433480D01*
X6196311Y25633851D01*
X6154000Y25846560D01*
X6154000Y26063440D01*
X6196311Y26276149D01*
X6279307Y26476520D01*
X6399795Y26656844D01*
X6553156Y26810205D01*
X6733480Y26930693D01*
X6933850Y27013689D01*
X7040205Y27034844D01*
X7146560Y27056000D01*
X7363440Y27056000D01*
X7469795Y27034844D01*
G37*
G36*
X5035104Y28105415D02*
G01*
X5203626Y28035611D01*
X5355291Y27934272D01*
X5484272Y27805291D01*
X5585611Y27653626D01*
X5655415Y27485104D01*
X5691000Y27306203D01*
X5691000Y27123797D01*
X5655415Y26944896D01*
X5585611Y26776374D01*
X5484272Y26624709D01*
X5355291Y26495728D01*
X5203626Y26394389D01*
X5035104Y26324585D01*
X4856203Y26289000D01*
X4673797Y26289000D01*
X4494896Y26324585D01*
X4326374Y26394389D01*
X4174709Y26495728D01*
X4045728Y26624709D01*
X3944389Y26776374D01*
X3874585Y26944896D01*
X3839000Y27123797D01*
X3839000Y27306203D01*
X3874585Y27485104D01*
X3944389Y27653626D01*
X4045728Y27805291D01*
X4174709Y27934272D01*
X4326374Y28035611D01*
X4494896Y28105415D01*
X4673797Y28141000D01*
X4856203Y28141000D01*
X5035104Y28105415D01*
G37*
G36*
X78691000Y26314000D02*
G01*
X76889000Y26314000D01*
X76889000Y28116000D01*
X78691000Y28116000D01*
X78691000Y26314000D01*
G37*
G36*
X75363512Y28111073D02*
G01*
X75512812Y28081376D01*
X75676784Y28013456D01*
X75824354Y27914853D01*
X75949853Y27789354D01*
X76048456Y27641784D01*
X76116376Y27477812D01*
X76151000Y27303741D01*
X76151000Y27126259D01*
X76116376Y26952188D01*
X76048456Y26788216D01*
X75949853Y26640646D01*
X75824354Y26515147D01*
X75676784Y26416544D01*
X75512812Y26348624D01*
X75363512Y26318927D01*
X75338742Y26314000D01*
X75161258Y26314000D01*
X75136488Y26318927D01*
X74987188Y26348624D01*
X74823216Y26416544D01*
X74675646Y26515147D01*
X74550147Y26640646D01*
X74451544Y26788216D01*
X74383624Y26952188D01*
X74349000Y27126259D01*
X74349000Y27303741D01*
X74383624Y27477812D01*
X74451544Y27641784D01*
X74550147Y27789354D01*
X74675646Y27914853D01*
X74823216Y28013456D01*
X74987188Y28081376D01*
X75136488Y28111073D01*
X75161258Y28116000D01*
X75338742Y28116000D01*
X75363512Y28111073D01*
G37*
G36*
X12990098Y31837967D02*
G01*
X13454350Y31645668D01*
X13454352Y31645667D01*
X13872168Y31366491D01*
X14227491Y31011168D01*
X14375939Y30789000D01*
X14506668Y30593350D01*
X14698967Y30129098D01*
X14797000Y29636253D01*
X14797000Y29133747D01*
X14698967Y28640902D01*
X14506668Y28176650D01*
X14506667Y28176648D01*
X14227491Y27758832D01*
X13872168Y27403509D01*
X13454352Y27124333D01*
X13454351Y27124332D01*
X13454350Y27124332D01*
X12990098Y26932033D01*
X12497253Y26834000D01*
X11994747Y26834000D01*
X11501902Y26932033D01*
X11037650Y27124332D01*
X11037649Y27124332D01*
X11037648Y27124333D01*
X10619832Y27403509D01*
X10264509Y27758832D01*
X9985333Y28176648D01*
X9985332Y28176650D01*
X9793033Y28640902D01*
X9695000Y29133747D01*
X9695000Y29636253D01*
X9793033Y30129098D01*
X9985332Y30593350D01*
X10116061Y30789000D01*
X10264509Y31011168D01*
X10619832Y31366491D01*
X11037648Y31645667D01*
X11037650Y31645668D01*
X11501902Y31837967D01*
X11994747Y31936000D01*
X12497253Y31936000D01*
X12990098Y31837967D01*
G37*
G36*
X87690098Y31837967D02*
G01*
X88154350Y31645668D01*
X88154352Y31645667D01*
X88572168Y31366491D01*
X88927491Y31011168D01*
X89075939Y30789000D01*
X89206668Y30593350D01*
X89398967Y30129098D01*
X89497000Y29636253D01*
X89497000Y29133747D01*
X89398967Y28640902D01*
X89206668Y28176650D01*
X89206667Y28176648D01*
X88927491Y27758832D01*
X88572168Y27403509D01*
X88154352Y27124333D01*
X88154351Y27124332D01*
X88154350Y27124332D01*
X87690098Y26932033D01*
X87197253Y26834000D01*
X86694747Y26834000D01*
X86201902Y26932033D01*
X85737650Y27124332D01*
X85737649Y27124332D01*
X85737648Y27124333D01*
X85319832Y27403509D01*
X84964509Y27758832D01*
X84685333Y28176648D01*
X84685332Y28176650D01*
X84493033Y28640902D01*
X84395000Y29133747D01*
X84395000Y29636253D01*
X84493033Y30129098D01*
X84685332Y30593350D01*
X84816061Y30789000D01*
X84964509Y31011168D01*
X85319832Y31366491D01*
X85737648Y31645667D01*
X85737650Y31645668D01*
X86201902Y31837967D01*
X86694747Y31936000D01*
X87197253Y31936000D01*
X87690098Y31837967D01*
G37*
G36*
X5035104Y32605415D02*
G01*
X5203626Y32535611D01*
X5355291Y32434272D01*
X5484272Y32305291D01*
X5585611Y32153626D01*
X5655415Y31985104D01*
X5691000Y31806203D01*
X5691000Y31623797D01*
X5655415Y31444896D01*
X5585611Y31276374D01*
X5484272Y31124709D01*
X5355291Y30995728D01*
X5203626Y30894389D01*
X5035104Y30824585D01*
X4856203Y30789000D01*
X4673797Y30789000D01*
X4494896Y30824585D01*
X4326374Y30894389D01*
X4174709Y30995728D01*
X4045728Y31124709D01*
X3944389Y31276374D01*
X3874585Y31444896D01*
X3839000Y31623797D01*
X3839000Y31806203D01*
X3874585Y31985104D01*
X3944389Y32153626D01*
X4045728Y32305291D01*
X4174709Y32434272D01*
X4326374Y32535611D01*
X4494896Y32605415D01*
X4673797Y32641000D01*
X4856203Y32641000D01*
X5035104Y32605415D01*
G37*
G36*
X7469795Y34044844D02*
G01*
X7576150Y34023689D01*
X7676334Y33982191D01*
X7776520Y33940693D01*
X7956844Y33820205D01*
X8110205Y33666844D01*
X8230693Y33486520D01*
X8230693Y33486519D01*
X8313689Y33286150D01*
X8356000Y33073439D01*
X8356000Y32856561D01*
X8313689Y32643850D01*
X8297768Y32605414D01*
X8230693Y32443480D01*
X8110205Y32263156D01*
X7956844Y32109795D01*
X7776520Y31989307D01*
X7676334Y31947809D01*
X7576150Y31906311D01*
X7469794Y31885155D01*
X7363440Y31864000D01*
X7146560Y31864000D01*
X7040206Y31885155D01*
X6933850Y31906311D01*
X6833666Y31947809D01*
X6733480Y31989307D01*
X6553156Y32109795D01*
X6399795Y32263156D01*
X6279307Y32443480D01*
X6212232Y32605414D01*
X6196311Y32643850D01*
X6154000Y32856561D01*
X6154000Y33073439D01*
X6196311Y33286150D01*
X6279307Y33486519D01*
X6279307Y33486520D01*
X6399795Y33666844D01*
X6553156Y33820205D01*
X6733480Y33940693D01*
X6833666Y33982191D01*
X6933850Y34023689D01*
X7040205Y34044844D01*
X7146560Y34066000D01*
X7363440Y34066000D01*
X7469795Y34044844D01*
G37*
G36*
X7469795Y37194844D02*
G01*
X7576150Y37173689D01*
X7776520Y37090693D01*
X7956844Y36970205D01*
X8110205Y36816844D01*
X8230693Y36636520D01*
X8313689Y36436149D01*
X8356000Y36223440D01*
X8356000Y36006560D01*
X8313689Y35793851D01*
X8230693Y35593480D01*
X8110205Y35413156D01*
X7956844Y35259795D01*
X7776520Y35139307D01*
X7676334Y35097809D01*
X7576150Y35056311D01*
X7469794Y35035155D01*
X7363440Y35014000D01*
X7146560Y35014000D01*
X7040205Y35035156D01*
X6933850Y35056311D01*
X6833666Y35097809D01*
X6733480Y35139307D01*
X6553156Y35259795D01*
X6399795Y35413156D01*
X6279307Y35593480D01*
X6196311Y35793851D01*
X6154000Y36006560D01*
X6154000Y36223440D01*
X6196311Y36436149D01*
X6279307Y36636520D01*
X6399795Y36816844D01*
X6553156Y36970205D01*
X6733480Y37090693D01*
X6933850Y37173689D01*
X7040205Y37194844D01*
X7146560Y37216000D01*
X7363440Y37216000D01*
X7469795Y37194844D01*
G37*
G36*
X5035104Y38265415D02*
G01*
X5203626Y38195611D01*
X5355291Y38094272D01*
X5484272Y37965291D01*
X5585611Y37813626D01*
X5655415Y37645104D01*
X5691000Y37466203D01*
X5691000Y37283797D01*
X5655415Y37104896D01*
X5585611Y36936374D01*
X5484272Y36784709D01*
X5355291Y36655728D01*
X5203626Y36554389D01*
X5035104Y36484585D01*
X4856203Y36449000D01*
X4673797Y36449000D01*
X4494896Y36484585D01*
X4326374Y36554389D01*
X4174709Y36655728D01*
X4045728Y36784709D01*
X3944389Y36936374D01*
X3874585Y37104896D01*
X3839000Y37283797D01*
X3839000Y37466203D01*
X3874585Y37645104D01*
X3944389Y37813626D01*
X4045728Y37965291D01*
X4174709Y38094272D01*
X4326374Y38195611D01*
X4494896Y38265415D01*
X4673797Y38301000D01*
X4856203Y38301000D01*
X5035104Y38265415D01*
G37*
G36*
X83753228Y38193297D02*
G01*
X83908100Y38129147D01*
X84047481Y38036015D01*
X84166015Y37917481D01*
X84259147Y37778100D01*
X84323297Y37623228D01*
X84356000Y37458816D01*
X84356000Y37291184D01*
X84323297Y37126772D01*
X84259147Y36971900D01*
X84166015Y36832519D01*
X84047481Y36713985D01*
X83908100Y36620853D01*
X83753228Y36556703D01*
X83588816Y36524000D01*
X83421184Y36524000D01*
X83256772Y36556703D01*
X83101900Y36620853D01*
X82962519Y36713985D01*
X82843985Y36832519D01*
X82750853Y36971900D01*
X82686703Y37126772D01*
X82654000Y37291184D01*
X82654000Y37458816D01*
X82686703Y37623228D01*
X82750853Y37778100D01*
X82843985Y37917481D01*
X82962519Y38036015D01*
X83101900Y38129147D01*
X83256772Y38193297D01*
X83421184Y38226000D01*
X83588816Y38226000D01*
X83753228Y38193297D01*
G37*
G36*
X73593228Y38193297D02*
G01*
X73748100Y38129147D01*
X73887481Y38036015D01*
X74006015Y37917481D01*
X74099147Y37778100D01*
X74163297Y37623228D01*
X74196000Y37458816D01*
X74196000Y37291184D01*
X74163297Y37126772D01*
X74099147Y36971900D01*
X74006015Y36832519D01*
X73887481Y36713985D01*
X73748100Y36620853D01*
X73593228Y36556703D01*
X73428816Y36524000D01*
X73261184Y36524000D01*
X73096772Y36556703D01*
X72941900Y36620853D01*
X72802519Y36713985D01*
X72683985Y36832519D01*
X72590853Y36971900D01*
X72526703Y37126772D01*
X72494000Y37291184D01*
X72494000Y37458816D01*
X72526703Y37623228D01*
X72590853Y37778100D01*
X72683985Y37917481D01*
X72802519Y38036015D01*
X72941900Y38129147D01*
X73096772Y38193297D01*
X73261184Y38226000D01*
X73428816Y38226000D01*
X73593228Y38193297D01*
G37*
G36*
X83753228Y41368297D02*
G01*
X83908100Y41304147D01*
X84047481Y41211015D01*
X84166015Y41092481D01*
X84259147Y40953100D01*
X84323297Y40798228D01*
X84356000Y40633816D01*
X84356000Y40466184D01*
X84323297Y40301772D01*
X84259147Y40146900D01*
X84166015Y40007519D01*
X84047481Y39888985D01*
X83908100Y39795853D01*
X83753228Y39731703D01*
X83588816Y39699000D01*
X83421184Y39699000D01*
X83256772Y39731703D01*
X83101900Y39795853D01*
X82962519Y39888985D01*
X82843985Y40007519D01*
X82750853Y40146900D01*
X82686703Y40301772D01*
X82654000Y40466184D01*
X82654000Y40633816D01*
X82686703Y40798228D01*
X82750853Y40953100D01*
X82843985Y41092481D01*
X82962519Y41211015D01*
X83101900Y41304147D01*
X83256772Y41368297D01*
X83421184Y41401000D01*
X83588816Y41401000D01*
X83753228Y41368297D01*
G37*
G36*
X73593228Y41368297D02*
G01*
X73748100Y41304147D01*
X73887481Y41211015D01*
X74006015Y41092481D01*
X74099147Y40953100D01*
X74163297Y40798228D01*
X74196000Y40633816D01*
X74196000Y40466184D01*
X74163297Y40301772D01*
X74099147Y40146900D01*
X74006015Y40007519D01*
X73887481Y39888985D01*
X73748100Y39795853D01*
X73593228Y39731703D01*
X73428816Y39699000D01*
X73261184Y39699000D01*
X73096772Y39731703D01*
X72941900Y39795853D01*
X72802519Y39888985D01*
X72683985Y40007519D01*
X72590853Y40146900D01*
X72526703Y40301772D01*
X72494000Y40466184D01*
X72494000Y40633816D01*
X72526703Y40798228D01*
X72590853Y40953100D01*
X72683985Y41092481D01*
X72802519Y41211015D01*
X72941900Y41304147D01*
X73096772Y41368297D01*
X73261184Y41401000D01*
X73428816Y41401000D01*
X73593228Y41368297D01*
G37*
G36*
X5035104Y42765415D02*
G01*
X5203626Y42695611D01*
X5355291Y42594272D01*
X5484272Y42465291D01*
X5585611Y42313626D01*
X5655415Y42145104D01*
X5691000Y41966203D01*
X5691000Y41783797D01*
X5655415Y41604896D01*
X5585611Y41436374D01*
X5484272Y41284709D01*
X5355291Y41155728D01*
X5203626Y41054389D01*
X5035104Y40984585D01*
X4856203Y40949000D01*
X4673797Y40949000D01*
X4494896Y40984585D01*
X4326374Y41054389D01*
X4174709Y41155728D01*
X4045728Y41284709D01*
X3944389Y41436374D01*
X3874585Y41604896D01*
X3839000Y41783797D01*
X3839000Y41966203D01*
X3874585Y42145104D01*
X3944389Y42313626D01*
X4045728Y42465291D01*
X4174709Y42594272D01*
X4326374Y42695611D01*
X4494896Y42765415D01*
X4673797Y42801000D01*
X4856203Y42801000D01*
X5035104Y42765415D01*
G37*
G36*
X40558642Y42590219D02*
G01*
X40704414Y42529838D01*
X40704416Y42529837D01*
X40835608Y42442178D01*
X40947178Y42330608D01*
X41034837Y42199416D01*
X41034838Y42199414D01*
X41095219Y42053642D01*
X41126000Y41898893D01*
X41126000Y41741107D01*
X41095219Y41586358D01*
X41034838Y41440586D01*
X41034837Y41440584D01*
X40947178Y41309392D01*
X40835608Y41197822D01*
X40704416Y41110163D01*
X40704415Y41110162D01*
X40704414Y41110162D01*
X40558642Y41049781D01*
X40403893Y41019000D01*
X40246107Y41019000D01*
X40091358Y41049781D01*
X39945586Y41110162D01*
X39945585Y41110162D01*
X39945584Y41110163D01*
X39814392Y41197822D01*
X39702822Y41309392D01*
X39615163Y41440584D01*
X39615162Y41440586D01*
X39554781Y41586358D01*
X39524000Y41741107D01*
X39524000Y41898893D01*
X39554781Y42053642D01*
X39615162Y42199414D01*
X39615163Y42199416D01*
X39702822Y42330608D01*
X39814392Y42442178D01*
X39945584Y42529837D01*
X39945586Y42529838D01*
X40091358Y42590219D01*
X40246107Y42621000D01*
X40403893Y42621000D01*
X40558642Y42590219D01*
G37*
G36*
X20238642Y42590219D02*
G01*
X20384414Y42529838D01*
X20384416Y42529837D01*
X20515608Y42442178D01*
X20627178Y42330608D01*
X20714837Y42199416D01*
X20714838Y42199414D01*
X20775219Y42053642D01*
X20806000Y41898893D01*
X20806000Y41741107D01*
X20775219Y41586358D01*
X20714838Y41440586D01*
X20714837Y41440584D01*
X20627178Y41309392D01*
X20515608Y41197822D01*
X20384416Y41110163D01*
X20384415Y41110162D01*
X20384414Y41110162D01*
X20238642Y41049781D01*
X20083893Y41019000D01*
X19926107Y41019000D01*
X19771358Y41049781D01*
X19625586Y41110162D01*
X19625585Y41110162D01*
X19625584Y41110163D01*
X19494392Y41197822D01*
X19382822Y41309392D01*
X19295163Y41440584D01*
X19295162Y41440586D01*
X19234781Y41586358D01*
X19204000Y41741107D01*
X19204000Y41898893D01*
X19234781Y42053642D01*
X19295162Y42199414D01*
X19295163Y42199416D01*
X19382822Y42330608D01*
X19494392Y42442178D01*
X19625584Y42529837D01*
X19625586Y42529838D01*
X19771358Y42590219D01*
X19926107Y42621000D01*
X20083893Y42621000D01*
X20238642Y42590219D01*
G37*
G36*
X25318642Y42590219D02*
G01*
X25464414Y42529838D01*
X25464416Y42529837D01*
X25595608Y42442178D01*
X25707178Y42330608D01*
X25794837Y42199416D01*
X25794838Y42199414D01*
X25855219Y42053642D01*
X25886000Y41898893D01*
X25886000Y41741107D01*
X25855219Y41586358D01*
X25794838Y41440586D01*
X25794837Y41440584D01*
X25707178Y41309392D01*
X25595608Y41197822D01*
X25464416Y41110163D01*
X25464415Y41110162D01*
X25464414Y41110162D01*
X25318642Y41049781D01*
X25163893Y41019000D01*
X25006107Y41019000D01*
X24851358Y41049781D01*
X24705586Y41110162D01*
X24705585Y41110162D01*
X24705584Y41110163D01*
X24574392Y41197822D01*
X24462822Y41309392D01*
X24375163Y41440584D01*
X24375162Y41440586D01*
X24314781Y41586358D01*
X24284000Y41741107D01*
X24284000Y41898893D01*
X24314781Y42053642D01*
X24375162Y42199414D01*
X24375163Y42199416D01*
X24462822Y42330608D01*
X24574392Y42442178D01*
X24705584Y42529837D01*
X24705586Y42529838D01*
X24851358Y42590219D01*
X25006107Y42621000D01*
X25163893Y42621000D01*
X25318642Y42590219D01*
G37*
G36*
X27858642Y42590219D02*
G01*
X28004414Y42529838D01*
X28004416Y42529837D01*
X28135608Y42442178D01*
X28247178Y42330608D01*
X28334837Y42199416D01*
X28334838Y42199414D01*
X28395219Y42053642D01*
X28426000Y41898893D01*
X28426000Y41741107D01*
X28395219Y41586358D01*
X28334838Y41440586D01*
X28334837Y41440584D01*
X28247178Y41309392D01*
X28135608Y41197822D01*
X28004416Y41110163D01*
X28004415Y41110162D01*
X28004414Y41110162D01*
X27858642Y41049781D01*
X27703893Y41019000D01*
X27546107Y41019000D01*
X27391358Y41049781D01*
X27245586Y41110162D01*
X27245585Y41110162D01*
X27245584Y41110163D01*
X27114392Y41197822D01*
X27002822Y41309392D01*
X26915163Y41440584D01*
X26915162Y41440586D01*
X26854781Y41586358D01*
X26824000Y41741107D01*
X26824000Y41898893D01*
X26854781Y42053642D01*
X26915162Y42199414D01*
X26915163Y42199416D01*
X27002822Y42330608D01*
X27114392Y42442178D01*
X27245584Y42529837D01*
X27245586Y42529838D01*
X27391358Y42590219D01*
X27546107Y42621000D01*
X27703893Y42621000D01*
X27858642Y42590219D01*
G37*
G36*
X30398642Y42590219D02*
G01*
X30544414Y42529838D01*
X30544416Y42529837D01*
X30675608Y42442178D01*
X30787178Y42330608D01*
X30874837Y42199416D01*
X30874838Y42199414D01*
X30935219Y42053642D01*
X30966000Y41898893D01*
X30966000Y41741107D01*
X30935219Y41586358D01*
X30874838Y41440586D01*
X30874837Y41440584D01*
X30787178Y41309392D01*
X30675608Y41197822D01*
X30544416Y41110163D01*
X30544415Y41110162D01*
X30544414Y41110162D01*
X30398642Y41049781D01*
X30243893Y41019000D01*
X30086107Y41019000D01*
X29931358Y41049781D01*
X29785586Y41110162D01*
X29785585Y41110162D01*
X29785584Y41110163D01*
X29654392Y41197822D01*
X29542822Y41309392D01*
X29455163Y41440584D01*
X29455162Y41440586D01*
X29394781Y41586358D01*
X29364000Y41741107D01*
X29364000Y41898893D01*
X29394781Y42053642D01*
X29455162Y42199414D01*
X29455163Y42199416D01*
X29542822Y42330608D01*
X29654392Y42442178D01*
X29785584Y42529837D01*
X29785586Y42529838D01*
X29931358Y42590219D01*
X30086107Y42621000D01*
X30243893Y42621000D01*
X30398642Y42590219D01*
G37*
G36*
X32938642Y42590219D02*
G01*
X33084414Y42529838D01*
X33084416Y42529837D01*
X33215608Y42442178D01*
X33327178Y42330608D01*
X33414837Y42199416D01*
X33414838Y42199414D01*
X33475219Y42053642D01*
X33506000Y41898893D01*
X33506000Y41741107D01*
X33475219Y41586358D01*
X33414838Y41440586D01*
X33414837Y41440584D01*
X33327178Y41309392D01*
X33215608Y41197822D01*
X33084416Y41110163D01*
X33084415Y41110162D01*
X33084414Y41110162D01*
X32938642Y41049781D01*
X32783893Y41019000D01*
X32626107Y41019000D01*
X32471358Y41049781D01*
X32325586Y41110162D01*
X32325585Y41110162D01*
X32325584Y41110163D01*
X32194392Y41197822D01*
X32082822Y41309392D01*
X31995163Y41440584D01*
X31995162Y41440586D01*
X31934781Y41586358D01*
X31904000Y41741107D01*
X31904000Y41898893D01*
X31934781Y42053642D01*
X31995162Y42199414D01*
X31995163Y42199416D01*
X32082822Y42330608D01*
X32194392Y42442178D01*
X32325584Y42529837D01*
X32325586Y42529838D01*
X32471358Y42590219D01*
X32626107Y42621000D01*
X32783893Y42621000D01*
X32938642Y42590219D01*
G37*
G36*
X35478642Y42590219D02*
G01*
X35624414Y42529838D01*
X35624416Y42529837D01*
X35755608Y42442178D01*
X35867178Y42330608D01*
X35954837Y42199416D01*
X35954838Y42199414D01*
X36015219Y42053642D01*
X36046000Y41898893D01*
X36046000Y41741107D01*
X36015219Y41586358D01*
X35954838Y41440586D01*
X35954837Y41440584D01*
X35867178Y41309392D01*
X35755608Y41197822D01*
X35624416Y41110163D01*
X35624415Y41110162D01*
X35624414Y41110162D01*
X35478642Y41049781D01*
X35323893Y41019000D01*
X35166107Y41019000D01*
X35011358Y41049781D01*
X34865586Y41110162D01*
X34865585Y41110162D01*
X34865584Y41110163D01*
X34734392Y41197822D01*
X34622822Y41309392D01*
X34535163Y41440584D01*
X34535162Y41440586D01*
X34474781Y41586358D01*
X34444000Y41741107D01*
X34444000Y41898893D01*
X34474781Y42053642D01*
X34535162Y42199414D01*
X34535163Y42199416D01*
X34622822Y42330608D01*
X34734392Y42442178D01*
X34865584Y42529837D01*
X34865586Y42529838D01*
X35011358Y42590219D01*
X35166107Y42621000D01*
X35323893Y42621000D01*
X35478642Y42590219D01*
G37*
G36*
X38018642Y42590219D02*
G01*
X38164414Y42529838D01*
X38164416Y42529837D01*
X38295608Y42442178D01*
X38407178Y42330608D01*
X38494837Y42199416D01*
X38494838Y42199414D01*
X38555219Y42053642D01*
X38586000Y41898893D01*
X38586000Y41741107D01*
X38555219Y41586358D01*
X38494838Y41440586D01*
X38494837Y41440584D01*
X38407178Y41309392D01*
X38295608Y41197822D01*
X38164416Y41110163D01*
X38164415Y41110162D01*
X38164414Y41110162D01*
X38018642Y41049781D01*
X37863893Y41019000D01*
X37706107Y41019000D01*
X37551358Y41049781D01*
X37405586Y41110162D01*
X37405585Y41110162D01*
X37405584Y41110163D01*
X37274392Y41197822D01*
X37162822Y41309392D01*
X37075163Y41440584D01*
X37075162Y41440586D01*
X37014781Y41586358D01*
X36984000Y41741107D01*
X36984000Y41898893D01*
X37014781Y42053642D01*
X37075162Y42199414D01*
X37075163Y42199416D01*
X37162822Y42330608D01*
X37274392Y42442178D01*
X37405584Y42529837D01*
X37405586Y42529838D01*
X37551358Y42590219D01*
X37706107Y42621000D01*
X37863893Y42621000D01*
X38018642Y42590219D01*
G37*
G36*
X43098642Y42590219D02*
G01*
X43244414Y42529838D01*
X43244416Y42529837D01*
X43375608Y42442178D01*
X43487178Y42330608D01*
X43574837Y42199416D01*
X43574838Y42199414D01*
X43635219Y42053642D01*
X43666000Y41898893D01*
X43666000Y41741107D01*
X43635219Y41586358D01*
X43574838Y41440586D01*
X43574837Y41440584D01*
X43487178Y41309392D01*
X43375608Y41197822D01*
X43244416Y41110163D01*
X43244415Y41110162D01*
X43244414Y41110162D01*
X43098642Y41049781D01*
X42943893Y41019000D01*
X42786107Y41019000D01*
X42631358Y41049781D01*
X42485586Y41110162D01*
X42485585Y41110162D01*
X42485584Y41110163D01*
X42354392Y41197822D01*
X42242822Y41309392D01*
X42155163Y41440584D01*
X42155162Y41440586D01*
X42094781Y41586358D01*
X42064000Y41741107D01*
X42064000Y41898893D01*
X42094781Y42053642D01*
X42155162Y42199414D01*
X42155163Y42199416D01*
X42242822Y42330608D01*
X42354392Y42442178D01*
X42485584Y42529837D01*
X42485586Y42529838D01*
X42631358Y42590219D01*
X42786107Y42621000D01*
X42943893Y42621000D01*
X43098642Y42590219D01*
G37*
G36*
X48178642Y42590219D02*
G01*
X48324414Y42529838D01*
X48324416Y42529837D01*
X48455608Y42442178D01*
X48567178Y42330608D01*
X48654837Y42199416D01*
X48654838Y42199414D01*
X48715219Y42053642D01*
X48746000Y41898893D01*
X48746000Y41741107D01*
X48715219Y41586358D01*
X48654838Y41440586D01*
X48654837Y41440584D01*
X48567178Y41309392D01*
X48455608Y41197822D01*
X48324416Y41110163D01*
X48324415Y41110162D01*
X48324414Y41110162D01*
X48178642Y41049781D01*
X48023893Y41019000D01*
X47866107Y41019000D01*
X47711358Y41049781D01*
X47565586Y41110162D01*
X47565585Y41110162D01*
X47565584Y41110163D01*
X47434392Y41197822D01*
X47322822Y41309392D01*
X47235163Y41440584D01*
X47235162Y41440586D01*
X47174781Y41586358D01*
X47144000Y41741107D01*
X47144000Y41898893D01*
X47174781Y42053642D01*
X47235162Y42199414D01*
X47235163Y42199416D01*
X47322822Y42330608D01*
X47434392Y42442178D01*
X47565584Y42529837D01*
X47565586Y42529838D01*
X47711358Y42590219D01*
X47866107Y42621000D01*
X48023893Y42621000D01*
X48178642Y42590219D01*
G37*
G36*
X45638642Y42590219D02*
G01*
X45784414Y42529838D01*
X45784416Y42529837D01*
X45915608Y42442178D01*
X46027178Y42330608D01*
X46114837Y42199416D01*
X46114838Y42199414D01*
X46175219Y42053642D01*
X46206000Y41898893D01*
X46206000Y41741107D01*
X46175219Y41586358D01*
X46114838Y41440586D01*
X46114837Y41440584D01*
X46027178Y41309392D01*
X45915608Y41197822D01*
X45784416Y41110163D01*
X45784415Y41110162D01*
X45784414Y41110162D01*
X45638642Y41049781D01*
X45483893Y41019000D01*
X45326107Y41019000D01*
X45171358Y41049781D01*
X45025586Y41110162D01*
X45025585Y41110162D01*
X45025584Y41110163D01*
X44894392Y41197822D01*
X44782822Y41309392D01*
X44695163Y41440584D01*
X44695162Y41440586D01*
X44634781Y41586358D01*
X44604000Y41741107D01*
X44604000Y41898893D01*
X44634781Y42053642D01*
X44695162Y42199414D01*
X44695163Y42199416D01*
X44782822Y42330608D01*
X44894392Y42442178D01*
X45025584Y42529837D01*
X45025586Y42529838D01*
X45171358Y42590219D01*
X45326107Y42621000D01*
X45483893Y42621000D01*
X45638642Y42590219D01*
G37*
G36*
X50718642Y42590219D02*
G01*
X50864414Y42529838D01*
X50864416Y42529837D01*
X50995608Y42442178D01*
X51107178Y42330608D01*
X51194837Y42199416D01*
X51194838Y42199414D01*
X51255219Y42053642D01*
X51286000Y41898893D01*
X51286000Y41741107D01*
X51255219Y41586358D01*
X51194838Y41440586D01*
X51194837Y41440584D01*
X51107178Y41309392D01*
X50995608Y41197822D01*
X50864416Y41110163D01*
X50864415Y41110162D01*
X50864414Y41110162D01*
X50718642Y41049781D01*
X50563893Y41019000D01*
X50406107Y41019000D01*
X50251358Y41049781D01*
X50105586Y41110162D01*
X50105585Y41110162D01*
X50105584Y41110163D01*
X49974392Y41197822D01*
X49862822Y41309392D01*
X49775163Y41440584D01*
X49775162Y41440586D01*
X49714781Y41586358D01*
X49684000Y41741107D01*
X49684000Y41898893D01*
X49714781Y42053642D01*
X49775162Y42199414D01*
X49775163Y42199416D01*
X49862822Y42330608D01*
X49974392Y42442178D01*
X50105584Y42529837D01*
X50105586Y42529838D01*
X50251358Y42590219D01*
X50406107Y42621000D01*
X50563893Y42621000D01*
X50718642Y42590219D01*
G37*
G36*
X53258642Y42590219D02*
G01*
X53404414Y42529838D01*
X53404416Y42529837D01*
X53535608Y42442178D01*
X53647178Y42330608D01*
X53734837Y42199416D01*
X53734838Y42199414D01*
X53795219Y42053642D01*
X53826000Y41898893D01*
X53826000Y41741107D01*
X53795219Y41586358D01*
X53734838Y41440586D01*
X53734837Y41440584D01*
X53647178Y41309392D01*
X53535608Y41197822D01*
X53404416Y41110163D01*
X53404415Y41110162D01*
X53404414Y41110162D01*
X53258642Y41049781D01*
X53103893Y41019000D01*
X52946107Y41019000D01*
X52791358Y41049781D01*
X52645586Y41110162D01*
X52645585Y41110162D01*
X52645584Y41110163D01*
X52514392Y41197822D01*
X52402822Y41309392D01*
X52315163Y41440584D01*
X52315162Y41440586D01*
X52254781Y41586358D01*
X52224000Y41741107D01*
X52224000Y41898893D01*
X52254781Y42053642D01*
X52315162Y42199414D01*
X52315163Y42199416D01*
X52402822Y42330608D01*
X52514392Y42442178D01*
X52645584Y42529837D01*
X52645586Y42529838D01*
X52791358Y42590219D01*
X52946107Y42621000D01*
X53103893Y42621000D01*
X53258642Y42590219D01*
G37*
G36*
X55798642Y42590219D02*
G01*
X55944414Y42529838D01*
X55944416Y42529837D01*
X56075608Y42442178D01*
X56187178Y42330608D01*
X56274837Y42199416D01*
X56274838Y42199414D01*
X56335219Y42053642D01*
X56366000Y41898893D01*
X56366000Y41741107D01*
X56335219Y41586358D01*
X56274838Y41440586D01*
X56274837Y41440584D01*
X56187178Y41309392D01*
X56075608Y41197822D01*
X55944416Y41110163D01*
X55944415Y41110162D01*
X55944414Y41110162D01*
X55798642Y41049781D01*
X55643893Y41019000D01*
X55486107Y41019000D01*
X55331358Y41049781D01*
X55185586Y41110162D01*
X55185585Y41110162D01*
X55185584Y41110163D01*
X55054392Y41197822D01*
X54942822Y41309392D01*
X54855163Y41440584D01*
X54855162Y41440586D01*
X54794781Y41586358D01*
X54764000Y41741107D01*
X54764000Y41898893D01*
X54794781Y42053642D01*
X54855162Y42199414D01*
X54855163Y42199416D01*
X54942822Y42330608D01*
X55054392Y42442178D01*
X55185584Y42529837D01*
X55185586Y42529838D01*
X55331358Y42590219D01*
X55486107Y42621000D01*
X55643893Y42621000D01*
X55798642Y42590219D01*
G37*
G36*
X58338642Y42590219D02*
G01*
X58484414Y42529838D01*
X58484416Y42529837D01*
X58615608Y42442178D01*
X58727178Y42330608D01*
X58814837Y42199416D01*
X58814838Y42199414D01*
X58875219Y42053642D01*
X58906000Y41898893D01*
X58906000Y41741107D01*
X58875219Y41586358D01*
X58814838Y41440586D01*
X58814837Y41440584D01*
X58727178Y41309392D01*
X58615608Y41197822D01*
X58484416Y41110163D01*
X58484415Y41110162D01*
X58484414Y41110162D01*
X58338642Y41049781D01*
X58183893Y41019000D01*
X58026107Y41019000D01*
X57871358Y41049781D01*
X57725586Y41110162D01*
X57725585Y41110162D01*
X57725584Y41110163D01*
X57594392Y41197822D01*
X57482822Y41309392D01*
X57395163Y41440584D01*
X57395162Y41440586D01*
X57334781Y41586358D01*
X57304000Y41741107D01*
X57304000Y41898893D01*
X57334781Y42053642D01*
X57395162Y42199414D01*
X57395163Y42199416D01*
X57482822Y42330608D01*
X57594392Y42442178D01*
X57725584Y42529837D01*
X57725586Y42529838D01*
X57871358Y42590219D01*
X58026107Y42621000D01*
X58183893Y42621000D01*
X58338642Y42590219D01*
G37*
G36*
X60878642Y42590219D02*
G01*
X61024414Y42529838D01*
X61024416Y42529837D01*
X61155608Y42442178D01*
X61267178Y42330608D01*
X61354837Y42199416D01*
X61354838Y42199414D01*
X61415219Y42053642D01*
X61446000Y41898893D01*
X61446000Y41741107D01*
X61415219Y41586358D01*
X61354838Y41440586D01*
X61354837Y41440584D01*
X61267178Y41309392D01*
X61155608Y41197822D01*
X61024416Y41110163D01*
X61024415Y41110162D01*
X61024414Y41110162D01*
X60878642Y41049781D01*
X60723893Y41019000D01*
X60566107Y41019000D01*
X60411358Y41049781D01*
X60265586Y41110162D01*
X60265585Y41110162D01*
X60265584Y41110163D01*
X60134392Y41197822D01*
X60022822Y41309392D01*
X59935163Y41440584D01*
X59935162Y41440586D01*
X59874781Y41586358D01*
X59844000Y41741107D01*
X59844000Y41898893D01*
X59874781Y42053642D01*
X59935162Y42199414D01*
X59935163Y42199416D01*
X60022822Y42330608D01*
X60134392Y42442178D01*
X60265584Y42529837D01*
X60265586Y42529838D01*
X60411358Y42590219D01*
X60566107Y42621000D01*
X60723893Y42621000D01*
X60878642Y42590219D01*
G37*
G36*
X63418642Y42590219D02*
G01*
X63564414Y42529838D01*
X63564416Y42529837D01*
X63695608Y42442178D01*
X63807178Y42330608D01*
X63894837Y42199416D01*
X63894838Y42199414D01*
X63955219Y42053642D01*
X63986000Y41898893D01*
X63986000Y41741107D01*
X63955219Y41586358D01*
X63894838Y41440586D01*
X63894837Y41440584D01*
X63807178Y41309392D01*
X63695608Y41197822D01*
X63564416Y41110163D01*
X63564415Y41110162D01*
X63564414Y41110162D01*
X63418642Y41049781D01*
X63263893Y41019000D01*
X63106107Y41019000D01*
X62951358Y41049781D01*
X62805586Y41110162D01*
X62805585Y41110162D01*
X62805584Y41110163D01*
X62674392Y41197822D01*
X62562822Y41309392D01*
X62475163Y41440584D01*
X62475162Y41440586D01*
X62414781Y41586358D01*
X62384000Y41741107D01*
X62384000Y41898893D01*
X62414781Y42053642D01*
X62475162Y42199414D01*
X62475163Y42199416D01*
X62562822Y42330608D01*
X62674392Y42442178D01*
X62805584Y42529837D01*
X62805586Y42529838D01*
X62951358Y42590219D01*
X63106107Y42621000D01*
X63263893Y42621000D01*
X63418642Y42590219D01*
G37*
G36*
X65958642Y42590219D02*
G01*
X66104414Y42529838D01*
X66104416Y42529837D01*
X66235608Y42442178D01*
X66347178Y42330608D01*
X66434837Y42199416D01*
X66434838Y42199414D01*
X66495219Y42053642D01*
X66526000Y41898893D01*
X66526000Y41741107D01*
X66495219Y41586358D01*
X66434838Y41440586D01*
X66434837Y41440584D01*
X66347178Y41309392D01*
X66235608Y41197822D01*
X66104416Y41110163D01*
X66104415Y41110162D01*
X66104414Y41110162D01*
X65958642Y41049781D01*
X65803893Y41019000D01*
X65646107Y41019000D01*
X65491358Y41049781D01*
X65345586Y41110162D01*
X65345585Y41110162D01*
X65345584Y41110163D01*
X65214392Y41197822D01*
X65102822Y41309392D01*
X65015163Y41440584D01*
X65015162Y41440586D01*
X64954781Y41586358D01*
X64924000Y41741107D01*
X64924000Y41898893D01*
X64954781Y42053642D01*
X65015162Y42199414D01*
X65015163Y42199416D01*
X65102822Y42330608D01*
X65214392Y42442178D01*
X65345584Y42529837D01*
X65345586Y42529838D01*
X65491358Y42590219D01*
X65646107Y42621000D01*
X65803893Y42621000D01*
X65958642Y42590219D01*
G37*
G36*
X22778642Y42590219D02*
G01*
X22924414Y42529838D01*
X22924416Y42529837D01*
X23055608Y42442178D01*
X23167178Y42330608D01*
X23254837Y42199416D01*
X23254838Y42199414D01*
X23315219Y42053642D01*
X23346000Y41898893D01*
X23346000Y41741107D01*
X23315219Y41586358D01*
X23254838Y41440586D01*
X23254837Y41440584D01*
X23167178Y41309392D01*
X23055608Y41197822D01*
X22924416Y41110163D01*
X22924415Y41110162D01*
X22924414Y41110162D01*
X22778642Y41049781D01*
X22623893Y41019000D01*
X22466107Y41019000D01*
X22311358Y41049781D01*
X22165586Y41110162D01*
X22165585Y41110162D01*
X22165584Y41110163D01*
X22034392Y41197822D01*
X21922822Y41309392D01*
X21835163Y41440584D01*
X21835162Y41440586D01*
X21774781Y41586358D01*
X21744000Y41741107D01*
X21744000Y41898893D01*
X21774781Y42053642D01*
X21835162Y42199414D01*
X21835163Y42199416D01*
X21922822Y42330608D01*
X22034392Y42442178D01*
X22165584Y42529837D01*
X22165586Y42529838D01*
X22311358Y42590219D01*
X22466107Y42621000D01*
X22623893Y42621000D01*
X22778642Y42590219D01*
G37*
G36*
X7469794Y44204845D02*
G01*
X7576150Y44183689D01*
X7676334Y44142191D01*
X7776520Y44100693D01*
X7956844Y43980205D01*
X8110205Y43826844D01*
X8230693Y43646520D01*
X8247538Y43605852D01*
X8313689Y43446150D01*
X8356000Y43233439D01*
X8356000Y43016561D01*
X8313689Y42803850D01*
X8297768Y42765414D01*
X8230693Y42603480D01*
X8110205Y42423156D01*
X7956844Y42269795D01*
X7776520Y42149307D01*
X7576150Y42066311D01*
X7469795Y42045156D01*
X7363440Y42024000D01*
X7146560Y42024000D01*
X7040205Y42045156D01*
X6933850Y42066311D01*
X6733480Y42149307D01*
X6553156Y42269795D01*
X6399795Y42423156D01*
X6279307Y42603480D01*
X6212232Y42765414D01*
X6196311Y42803850D01*
X6154000Y43016561D01*
X6154000Y43233439D01*
X6196311Y43446150D01*
X6262462Y43605852D01*
X6279307Y43646520D01*
X6399795Y43826844D01*
X6553156Y43980205D01*
X6733480Y44100693D01*
X6833666Y44142191D01*
X6933850Y44183689D01*
X7040206Y44204845D01*
X7146560Y44226000D01*
X7363440Y44226000D01*
X7469794Y44204845D01*
G37*
G36*
X83753228Y45178297D02*
G01*
X83908100Y45114147D01*
X84047481Y45021015D01*
X84166015Y44902481D01*
X84259147Y44763100D01*
X84323297Y44608228D01*
X84356000Y44443816D01*
X84356000Y44276184D01*
X84323297Y44111772D01*
X84259147Y43956900D01*
X84166015Y43817519D01*
X84047481Y43698985D01*
X83908100Y43605853D01*
X83753228Y43541703D01*
X83588816Y43509000D01*
X83421184Y43509000D01*
X83256772Y43541703D01*
X83101900Y43605853D01*
X82962519Y43698985D01*
X82843985Y43817519D01*
X82750853Y43956900D01*
X82686703Y44111772D01*
X82654000Y44276184D01*
X82654000Y44443816D01*
X82686703Y44608228D01*
X82750853Y44763100D01*
X82843985Y44902481D01*
X82962519Y45021015D01*
X83101900Y45114147D01*
X83256772Y45178297D01*
X83421184Y45211000D01*
X83588816Y45211000D01*
X83753228Y45178297D01*
G37*
G36*
X73593228Y45178297D02*
G01*
X73748100Y45114147D01*
X73887481Y45021015D01*
X74006015Y44902481D01*
X74099147Y44763100D01*
X74163297Y44608228D01*
X74196000Y44443816D01*
X74196000Y44276184D01*
X74163297Y44111772D01*
X74099147Y43956900D01*
X74006015Y43817519D01*
X73887481Y43698985D01*
X73748100Y43605853D01*
X73593228Y43541703D01*
X73428816Y43509000D01*
X73261184Y43509000D01*
X73096772Y43541703D01*
X72941900Y43605853D01*
X72802519Y43698985D01*
X72683985Y43817519D01*
X72590853Y43956900D01*
X72526703Y44111772D01*
X72494000Y44276184D01*
X72494000Y44443816D01*
X72526703Y44608228D01*
X72590853Y44763100D01*
X72683985Y44902481D01*
X72802519Y45021015D01*
X72941900Y45114147D01*
X73096772Y45178297D01*
X73261184Y45211000D01*
X73428816Y45211000D01*
X73593228Y45178297D01*
G37*
G36*
X2473228Y48353297D02*
G01*
X2628100Y48289147D01*
X2767481Y48196015D01*
X2886015Y48077481D01*
X2979147Y47938100D01*
X3043297Y47783228D01*
X3076000Y47618816D01*
X3076000Y47451184D01*
X3043297Y47286772D01*
X2979147Y47131900D01*
X2886015Y46992519D01*
X2767481Y46873985D01*
X2628100Y46780853D01*
X2473228Y46716703D01*
X2308816Y46684000D01*
X2141184Y46684000D01*
X1976772Y46716703D01*
X1821900Y46780853D01*
X1682519Y46873985D01*
X1563985Y46992519D01*
X1470853Y47131900D01*
X1406703Y47286772D01*
X1374000Y47451184D01*
X1374000Y47618816D01*
X1406703Y47783228D01*
X1470853Y47938100D01*
X1563985Y48077481D01*
X1682519Y48196015D01*
X1821900Y48289147D01*
X1976772Y48353297D01*
X2141184Y48386000D01*
X2308816Y48386000D01*
X2473228Y48353297D01*
G37*
G36*
X12633228Y48353297D02*
G01*
X12788100Y48289147D01*
X12927481Y48196015D01*
X13046015Y48077481D01*
X13139147Y47938100D01*
X13203297Y47783228D01*
X13236000Y47618816D01*
X13236000Y47451184D01*
X13203297Y47286772D01*
X13139147Y47131900D01*
X13046015Y46992519D01*
X12927481Y46873985D01*
X12788100Y46780853D01*
X12633228Y46716703D01*
X12468816Y46684000D01*
X12301184Y46684000D01*
X12136772Y46716703D01*
X11981900Y46780853D01*
X11842519Y46873985D01*
X11723985Y46992519D01*
X11630853Y47131900D01*
X11566703Y47286772D01*
X11534000Y47451184D01*
X11534000Y47618816D01*
X11566703Y47783228D01*
X11630853Y47938100D01*
X11723985Y48077481D01*
X11842519Y48196015D01*
X11981900Y48289147D01*
X12136772Y48353297D01*
X12301184Y48386000D01*
X12468816Y48386000D01*
X12633228Y48353297D01*
G37*
G36*
X22793228Y48353297D02*
G01*
X22948100Y48289147D01*
X23087481Y48196015D01*
X23206015Y48077481D01*
X23299147Y47938100D01*
X23363297Y47783228D01*
X23396000Y47618816D01*
X23396000Y47451184D01*
X23363297Y47286772D01*
X23299147Y47131900D01*
X23206015Y46992519D01*
X23087481Y46873985D01*
X22948100Y46780853D01*
X22793228Y46716703D01*
X22628816Y46684000D01*
X22461184Y46684000D01*
X22296772Y46716703D01*
X22141900Y46780853D01*
X22002519Y46873985D01*
X21883985Y46992519D01*
X21790853Y47131900D01*
X21726703Y47286772D01*
X21694000Y47451184D01*
X21694000Y47618816D01*
X21726703Y47783228D01*
X21790853Y47938100D01*
X21883985Y48077481D01*
X22002519Y48196015D01*
X22141900Y48289147D01*
X22296772Y48353297D01*
X22461184Y48386000D01*
X22628816Y48386000D01*
X22793228Y48353297D01*
G37*
G36*
X32953228Y48353297D02*
G01*
X33108100Y48289147D01*
X33247481Y48196015D01*
X33366015Y48077481D01*
X33459147Y47938100D01*
X33523297Y47783228D01*
X33556000Y47618816D01*
X33556000Y47451184D01*
X33523297Y47286772D01*
X33459147Y47131900D01*
X33366015Y46992519D01*
X33247481Y46873985D01*
X33108100Y46780853D01*
X32953228Y46716703D01*
X32788816Y46684000D01*
X32621184Y46684000D01*
X32456772Y46716703D01*
X32301900Y46780853D01*
X32162519Y46873985D01*
X32043985Y46992519D01*
X31950853Y47131900D01*
X31886703Y47286772D01*
X31854000Y47451184D01*
X31854000Y47618816D01*
X31886703Y47783228D01*
X31950853Y47938100D01*
X32043985Y48077481D01*
X32162519Y48196015D01*
X32301900Y48289147D01*
X32456772Y48353297D01*
X32621184Y48386000D01*
X32788816Y48386000D01*
X32953228Y48353297D01*
G37*
G36*
X37398228Y50893297D02*
G01*
X37553100Y50829147D01*
X37692481Y50736015D01*
X37811015Y50617481D01*
X37904147Y50478100D01*
X37968297Y50323228D01*
X38001000Y50158816D01*
X38001000Y49991184D01*
X37968297Y49826772D01*
X37904147Y49671900D01*
X37811015Y49532519D01*
X37692481Y49413985D01*
X37553100Y49320853D01*
X37398228Y49256703D01*
X37233816Y49224000D01*
X37066184Y49224000D01*
X36901772Y49256703D01*
X36746900Y49320853D01*
X36607519Y49413985D01*
X36488985Y49532519D01*
X36395853Y49671900D01*
X36331703Y49826772D01*
X36299000Y49991184D01*
X36299000Y50158816D01*
X36331703Y50323228D01*
X36395853Y50478100D01*
X36488985Y50617481D01*
X36607519Y50736015D01*
X36746900Y50829147D01*
X36901772Y50893297D01*
X37066184Y50926000D01*
X37233816Y50926000D01*
X37398228Y50893297D01*
G37*
G36*
X62163228Y50893297D02*
G01*
X62318100Y50829147D01*
X62457481Y50736015D01*
X62576015Y50617481D01*
X62669147Y50478100D01*
X62733297Y50323228D01*
X62766000Y50158816D01*
X62766000Y49991184D01*
X62733297Y49826772D01*
X62669147Y49671900D01*
X62576015Y49532519D01*
X62457481Y49413985D01*
X62318100Y49320853D01*
X62163228Y49256703D01*
X61998816Y49224000D01*
X61831184Y49224000D01*
X61666772Y49256703D01*
X61511900Y49320853D01*
X61372519Y49413985D01*
X61253985Y49532519D01*
X61160853Y49671900D01*
X61096703Y49826772D01*
X61064000Y49991184D01*
X61064000Y50158816D01*
X61096703Y50323228D01*
X61160853Y50478100D01*
X61253985Y50617481D01*
X61372519Y50736015D01*
X61511900Y50829147D01*
X61666772Y50893297D01*
X61831184Y50926000D01*
X61998816Y50926000D01*
X62163228Y50893297D01*
G37*
G36*
X41208228Y50893297D02*
G01*
X41363100Y50829147D01*
X41502481Y50736015D01*
X41621015Y50617481D01*
X41714147Y50478100D01*
X41778297Y50323228D01*
X41811000Y50158816D01*
X41811000Y49991184D01*
X41778297Y49826772D01*
X41714147Y49671900D01*
X41621015Y49532519D01*
X41502481Y49413985D01*
X41363100Y49320853D01*
X41208228Y49256703D01*
X41043816Y49224000D01*
X40876184Y49224000D01*
X40711772Y49256703D01*
X40556900Y49320853D01*
X40417519Y49413985D01*
X40298985Y49532519D01*
X40205853Y49671900D01*
X40141703Y49826772D01*
X40109000Y49991184D01*
X40109000Y50158816D01*
X40141703Y50323228D01*
X40205853Y50478100D01*
X40298985Y50617481D01*
X40417519Y50736015D01*
X40556900Y50829147D01*
X40711772Y50893297D01*
X40876184Y50926000D01*
X41043816Y50926000D01*
X41208228Y50893297D01*
G37*
G36*
X58988228Y50893297D02*
G01*
X59143100Y50829147D01*
X59282481Y50736015D01*
X59401015Y50617481D01*
X59494147Y50478100D01*
X59558297Y50323228D01*
X59591000Y50158816D01*
X59591000Y49991184D01*
X59558297Y49826772D01*
X59494147Y49671900D01*
X59401015Y49532519D01*
X59282481Y49413985D01*
X59143100Y49320853D01*
X58988228Y49256703D01*
X58823816Y49224000D01*
X58656184Y49224000D01*
X58491772Y49256703D01*
X58336900Y49320853D01*
X58197519Y49413985D01*
X58078985Y49532519D01*
X57985853Y49671900D01*
X57921703Y49826772D01*
X57889000Y49991184D01*
X57889000Y50158816D01*
X57921703Y50323228D01*
X57985853Y50478100D01*
X58078985Y50617481D01*
X58197519Y50736015D01*
X58336900Y50829147D01*
X58491772Y50893297D01*
X58656184Y50926000D01*
X58823816Y50926000D01*
X58988228Y50893297D01*
G37*
G36*
X56448228Y50893297D02*
G01*
X56603100Y50829147D01*
X56742481Y50736015D01*
X56861015Y50617481D01*
X56954147Y50478100D01*
X57018297Y50323228D01*
X57051000Y50158816D01*
X57051000Y49991184D01*
X57018297Y49826772D01*
X56954147Y49671900D01*
X56861015Y49532519D01*
X56742481Y49413985D01*
X56603100Y49320853D01*
X56448228Y49256703D01*
X56283816Y49224000D01*
X56116184Y49224000D01*
X55951772Y49256703D01*
X55796900Y49320853D01*
X55657519Y49413985D01*
X55538985Y49532519D01*
X55445853Y49671900D01*
X55381703Y49826772D01*
X55349000Y49991184D01*
X55349000Y50158816D01*
X55381703Y50323228D01*
X55445853Y50478100D01*
X55538985Y50617481D01*
X55657519Y50736015D01*
X55796900Y50829147D01*
X55951772Y50893297D01*
X56116184Y50926000D01*
X56283816Y50926000D01*
X56448228Y50893297D01*
G37*
G36*
X46288228Y50893297D02*
G01*
X46443100Y50829147D01*
X46582481Y50736015D01*
X46701015Y50617481D01*
X46794147Y50478100D01*
X46858297Y50323228D01*
X46891000Y50158816D01*
X46891000Y49991184D01*
X46858297Y49826772D01*
X46794147Y49671900D01*
X46701015Y49532519D01*
X46582481Y49413985D01*
X46443100Y49320853D01*
X46288228Y49256703D01*
X46123816Y49224000D01*
X45956184Y49224000D01*
X45791772Y49256703D01*
X45636900Y49320853D01*
X45497519Y49413985D01*
X45378985Y49532519D01*
X45285853Y49671900D01*
X45221703Y49826772D01*
X45189000Y49991184D01*
X45189000Y50158816D01*
X45221703Y50323228D01*
X45285853Y50478100D01*
X45378985Y50617481D01*
X45497519Y50736015D01*
X45636900Y50829147D01*
X45791772Y50893297D01*
X45956184Y50926000D01*
X46123816Y50926000D01*
X46288228Y50893297D01*
G37*
G36*
X43748228Y50893297D02*
G01*
X43903100Y50829147D01*
X44042481Y50736015D01*
X44161015Y50617481D01*
X44254147Y50478100D01*
X44318297Y50323228D01*
X44351000Y50158816D01*
X44351000Y49991184D01*
X44318297Y49826772D01*
X44254147Y49671900D01*
X44161015Y49532519D01*
X44042481Y49413985D01*
X43903100Y49320853D01*
X43748228Y49256703D01*
X43583816Y49224000D01*
X43416184Y49224000D01*
X43251772Y49256703D01*
X43096900Y49320853D01*
X42957519Y49413985D01*
X42838985Y49532519D01*
X42745853Y49671900D01*
X42681703Y49826772D01*
X42649000Y49991184D01*
X42649000Y50158816D01*
X42681703Y50323228D01*
X42745853Y50478100D01*
X42838985Y50617481D01*
X42957519Y50736015D01*
X43096900Y50829147D01*
X43251772Y50893297D01*
X43416184Y50926000D01*
X43583816Y50926000D01*
X43748228Y50893297D01*
G37*
G36*
X48828228Y50893297D02*
G01*
X48983100Y50829147D01*
X49122481Y50736015D01*
X49241015Y50617481D01*
X49334147Y50478100D01*
X49398297Y50323228D01*
X49431000Y50158816D01*
X49431000Y49991184D01*
X49398297Y49826772D01*
X49334147Y49671900D01*
X49241015Y49532519D01*
X49122481Y49413985D01*
X48983100Y49320853D01*
X48828228Y49256703D01*
X48663816Y49224000D01*
X48496184Y49224000D01*
X48331772Y49256703D01*
X48176900Y49320853D01*
X48037519Y49413985D01*
X47918985Y49532519D01*
X47825853Y49671900D01*
X47761703Y49826772D01*
X47729000Y49991184D01*
X47729000Y50158816D01*
X47761703Y50323228D01*
X47825853Y50478100D01*
X47918985Y50617481D01*
X48037519Y50736015D01*
X48176900Y50829147D01*
X48331772Y50893297D01*
X48496184Y50926000D01*
X48663816Y50926000D01*
X48828228Y50893297D01*
G37*
G36*
X53908228Y50893297D02*
G01*
X54063100Y50829147D01*
X54202481Y50736015D01*
X54321015Y50617481D01*
X54414147Y50478100D01*
X54478297Y50323228D01*
X54511000Y50158816D01*
X54511000Y49991184D01*
X54478297Y49826772D01*
X54414147Y49671900D01*
X54321015Y49532519D01*
X54202481Y49413985D01*
X54063100Y49320853D01*
X53908228Y49256703D01*
X53743816Y49224000D01*
X53576184Y49224000D01*
X53411772Y49256703D01*
X53256900Y49320853D01*
X53117519Y49413985D01*
X52998985Y49532519D01*
X52905853Y49671900D01*
X52841703Y49826772D01*
X52809000Y49991184D01*
X52809000Y50158816D01*
X52841703Y50323228D01*
X52905853Y50478100D01*
X52998985Y50617481D01*
X53117519Y50736015D01*
X53256900Y50829147D01*
X53411772Y50893297D01*
X53576184Y50926000D01*
X53743816Y50926000D01*
X53908228Y50893297D01*
G37*
G36*
X51368228Y50893297D02*
G01*
X51523100Y50829147D01*
X51662481Y50736015D01*
X51781015Y50617481D01*
X51874147Y50478100D01*
X51938297Y50323228D01*
X51971000Y50158816D01*
X51971000Y49991184D01*
X51938297Y49826772D01*
X51874147Y49671900D01*
X51781015Y49532519D01*
X51662481Y49413985D01*
X51523100Y49320853D01*
X51368228Y49256703D01*
X51203816Y49224000D01*
X51036184Y49224000D01*
X50871772Y49256703D01*
X50716900Y49320853D01*
X50577519Y49413985D01*
X50458985Y49532519D01*
X50365853Y49671900D01*
X50301703Y49826772D01*
X50269000Y49991184D01*
X50269000Y50158816D01*
X50301703Y50323228D01*
X50365853Y50478100D01*
X50458985Y50617481D01*
X50577519Y50736015D01*
X50716900Y50829147D01*
X50871772Y50893297D01*
X51036184Y50926000D01*
X51203816Y50926000D01*
X51368228Y50893297D01*
G37*
G36*
X80442916Y50867666D02*
G01*
X80551492Y50834729D01*
X80551495Y50834728D01*
X80587601Y50815429D01*
X80651557Y50781244D01*
X80739264Y50709264D01*
X80802383Y50632354D01*
X80819702Y50615035D01*
X80840077Y50601421D01*
X80862716Y50592043D01*
X80886749Y50587263D01*
X80911253Y50587263D01*
X80935286Y50592043D01*
X80957925Y50601421D01*
X80978299Y50615034D01*
X80995626Y50632361D01*
X81009240Y50652736D01*
X81018618Y50675375D01*
X81023398Y50699408D01*
X81024000Y50711660D01*
X81024000Y50876000D01*
X82176000Y50876000D01*
X82176000Y49274000D01*
X81024000Y49274000D01*
X81024000Y49438340D01*
X81021598Y49462726D01*
X81014485Y49486175D01*
X81002934Y49507786D01*
X80987389Y49526728D01*
X80968447Y49542273D01*
X80946836Y49553824D01*
X80923387Y49560937D01*
X80899001Y49563339D01*
X80874615Y49560937D01*
X80851166Y49553824D01*
X80829555Y49542273D01*
X80802381Y49517644D01*
X80739264Y49440736D01*
X80651556Y49368756D01*
X80587600Y49334571D01*
X80551494Y49315272D01*
X80551491Y49315271D01*
X80442915Y49282334D01*
X80330000Y49271213D01*
X80217084Y49282334D01*
X80108508Y49315271D01*
X80108505Y49315272D01*
X80072399Y49334571D01*
X80008443Y49368756D01*
X79920736Y49440736D01*
X79848756Y49528444D01*
X79805239Y49609860D01*
X79791625Y49630234D01*
X79774298Y49647561D01*
X79753924Y49661175D01*
X79731285Y49670552D01*
X79707251Y49675332D01*
X79682747Y49675332D01*
X79658714Y49670551D01*
X79636075Y49661174D01*
X79615701Y49647560D01*
X79598374Y49630233D01*
X79584762Y49609860D01*
X79541244Y49528443D01*
X79469264Y49440736D01*
X79381556Y49368756D01*
X79317600Y49334571D01*
X79281494Y49315272D01*
X79281491Y49315271D01*
X79172915Y49282334D01*
X79060000Y49271213D01*
X78947084Y49282334D01*
X78838508Y49315271D01*
X78838505Y49315272D01*
X78802399Y49334571D01*
X78738443Y49368756D01*
X78650736Y49440736D01*
X78578756Y49528444D01*
X78535239Y49609860D01*
X78525272Y49628506D01*
X78519492Y49647560D01*
X78492334Y49737085D01*
X78484000Y49821703D01*
X78484000Y50328298D01*
X78492334Y50412916D01*
X78525271Y50521492D01*
X78525272Y50521495D01*
X78578756Y50621555D01*
X78578757Y50621557D01*
X78650737Y50709264D01*
X78738444Y50781244D01*
X78802400Y50815429D01*
X78838506Y50834728D01*
X78838509Y50834729D01*
X78947085Y50867666D01*
X79060000Y50878787D01*
X79172916Y50867666D01*
X79281492Y50834729D01*
X79281495Y50834728D01*
X79317601Y50815429D01*
X79381557Y50781244D01*
X79469264Y50709264D01*
X79541244Y50621557D01*
X79557019Y50592043D01*
X79584761Y50540141D01*
X79598375Y50519766D01*
X79615702Y50502439D01*
X79636076Y50488826D01*
X79658715Y50479448D01*
X79682748Y50474668D01*
X79707252Y50474668D01*
X79731285Y50479448D01*
X79753924Y50488826D01*
X79774299Y50502440D01*
X79791626Y50519767D01*
X79805239Y50540141D01*
X79848756Y50621555D01*
X79848757Y50621557D01*
X79920737Y50709264D01*
X80008444Y50781244D01*
X80072400Y50815429D01*
X80108506Y50834728D01*
X80108509Y50834729D01*
X80217085Y50867666D01*
X80330000Y50878787D01*
X80442916Y50867666D01*
G37*
G36*
X5677395Y51624454D02*
G01*
X5850466Y51552766D01*
X5850467Y51552765D01*
X6006227Y51448690D01*
X6138690Y51316227D01*
X6181284Y51252480D01*
X6242766Y51160466D01*
X6314454Y50987395D01*
X6351000Y50803667D01*
X6351000Y50616333D01*
X6314454Y50432605D01*
X6242766Y50259534D01*
X6242765Y50259533D01*
X6138690Y50103773D01*
X6006227Y49971310D01*
X5983092Y49955852D01*
X5850466Y49867234D01*
X5677395Y49795546D01*
X5493667Y49759000D01*
X5306333Y49759000D01*
X5122605Y49795546D01*
X4949534Y49867234D01*
X4816908Y49955852D01*
X4793773Y49971310D01*
X4661310Y50103773D01*
X4557235Y50259533D01*
X4557234Y50259534D01*
X4485546Y50432605D01*
X4449000Y50616333D01*
X4449000Y50803667D01*
X4485546Y50987395D01*
X4557234Y51160466D01*
X4618716Y51252480D01*
X4661310Y51316227D01*
X4793773Y51448690D01*
X4949533Y51552765D01*
X4949534Y51552766D01*
X5122605Y51624454D01*
X5306333Y51661000D01*
X5493667Y51661000D01*
X5677395Y51624454D01*
G37*
G36*
X22793228Y51528297D02*
G01*
X22948100Y51464147D01*
X23087481Y51371015D01*
X23206015Y51252481D01*
X23299147Y51113100D01*
X23363297Y50958228D01*
X23396000Y50793816D01*
X23396000Y50626184D01*
X23363297Y50461772D01*
X23299147Y50306900D01*
X23206015Y50167519D01*
X23087481Y50048985D01*
X22948100Y49955853D01*
X22793228Y49891703D01*
X22628816Y49859000D01*
X22461184Y49859000D01*
X22296772Y49891703D01*
X22141900Y49955853D01*
X22002519Y50048985D01*
X21883985Y50167519D01*
X21790853Y50306900D01*
X21726703Y50461772D01*
X21694000Y50626184D01*
X21694000Y50793816D01*
X21726703Y50958228D01*
X21790853Y51113100D01*
X21883985Y51252481D01*
X22002519Y51371015D01*
X22141900Y51464147D01*
X22296772Y51528297D01*
X22461184Y51561000D01*
X22628816Y51561000D01*
X22793228Y51528297D01*
G37*
G36*
X32953228Y51528297D02*
G01*
X33108100Y51464147D01*
X33247481Y51371015D01*
X33366015Y51252481D01*
X33459147Y51113100D01*
X33523297Y50958228D01*
X33556000Y50793816D01*
X33556000Y50626184D01*
X33523297Y50461772D01*
X33459147Y50306900D01*
X33366015Y50167519D01*
X33247481Y50048985D01*
X33108100Y49955853D01*
X32953228Y49891703D01*
X32788816Y49859000D01*
X32621184Y49859000D01*
X32456772Y49891703D01*
X32301900Y49955853D01*
X32162519Y50048985D01*
X32043985Y50167519D01*
X31950853Y50306900D01*
X31886703Y50461772D01*
X31854000Y50626184D01*
X31854000Y50793816D01*
X31886703Y50958228D01*
X31950853Y51113100D01*
X32043985Y51252481D01*
X32162519Y51371015D01*
X32301900Y51464147D01*
X32456772Y51528297D01*
X32621184Y51561000D01*
X32788816Y51561000D01*
X32953228Y51528297D01*
G37*
G36*
X6351000Y52299000D02*
G01*
X4449000Y52299000D01*
X4449000Y54201000D01*
X6351000Y54201000D01*
X6351000Y52299000D01*
G37*
G36*
X62163228Y55893297D02*
G01*
X62318100Y55829147D01*
X62457481Y55736015D01*
X62576015Y55617481D01*
X62669147Y55478100D01*
X62733297Y55323228D01*
X62766000Y55158816D01*
X62766000Y54991184D01*
X62733297Y54826772D01*
X62669147Y54671900D01*
X62576015Y54532519D01*
X62457481Y54413985D01*
X62318100Y54320853D01*
X62163228Y54256703D01*
X61998816Y54224000D01*
X61831184Y54224000D01*
X61666772Y54256703D01*
X61511900Y54320853D01*
X61372519Y54413985D01*
X61253985Y54532519D01*
X61160853Y54671900D01*
X61096703Y54826772D01*
X61064000Y54991184D01*
X61064000Y55158816D01*
X61096703Y55323228D01*
X61160853Y55478100D01*
X61253985Y55617481D01*
X61372519Y55736015D01*
X61511900Y55829147D01*
X61666772Y55893297D01*
X61831184Y55926000D01*
X61998816Y55926000D01*
X62163228Y55893297D01*
G37*
G36*
X76768228Y56608297D02*
G01*
X76923100Y56544147D01*
X77062481Y56451015D01*
X77181015Y56332481D01*
X77274147Y56193100D01*
X77338297Y56038228D01*
X77371000Y55873816D01*
X77371000Y55706184D01*
X77338297Y55541772D01*
X77274147Y55386900D01*
X77181015Y55247519D01*
X77062481Y55128985D01*
X76923100Y55035853D01*
X76768228Y54971703D01*
X76603816Y54939000D01*
X76436184Y54939000D01*
X76271772Y54971703D01*
X76116900Y55035853D01*
X75977519Y55128985D01*
X75858985Y55247519D01*
X75765853Y55386900D01*
X75701703Y55541772D01*
X75669000Y55706184D01*
X75669000Y55873816D01*
X75701703Y56038228D01*
X75765853Y56193100D01*
X75858985Y56332481D01*
X75977519Y56451015D01*
X76116900Y56544147D01*
X76271772Y56608297D01*
X76436184Y56641000D01*
X76603816Y56641000D01*
X76768228Y56608297D01*
G37*
G36*
X66608228Y56608297D02*
G01*
X66763100Y56544147D01*
X66902481Y56451015D01*
X67021015Y56332481D01*
X67114147Y56193100D01*
X67178297Y56038228D01*
X67211000Y55873816D01*
X67211000Y55706184D01*
X67178297Y55541772D01*
X67114147Y55386900D01*
X67021015Y55247519D01*
X66902481Y55128985D01*
X66763100Y55035853D01*
X66608228Y54971703D01*
X66443816Y54939000D01*
X66276184Y54939000D01*
X66111772Y54971703D01*
X65956900Y55035853D01*
X65817519Y55128985D01*
X65698985Y55247519D01*
X65605853Y55386900D01*
X65541703Y55541772D01*
X65509000Y55706184D01*
X65509000Y55873816D01*
X65541703Y56038228D01*
X65605853Y56193100D01*
X65698985Y56332481D01*
X65817519Y56451015D01*
X65956900Y56544147D01*
X66111772Y56608297D01*
X66276184Y56641000D01*
X66443816Y56641000D01*
X66608228Y56608297D01*
G37*
G36*
X95634239Y63188533D02*
G01*
X95948282Y63126066D01*
X96539926Y62880999D01*
X96831762Y62686000D01*
X97053311Y62537966D01*
X97072392Y62525216D01*
X97525216Y62072392D01*
X97880999Y61539926D01*
X98126066Y60948282D01*
X98147361Y60841225D01*
X98249316Y60328665D01*
X98251000Y60320196D01*
X98251000Y59679804D01*
X98126066Y59051718D01*
X97880999Y58460074D01*
X97525216Y57927608D01*
X97072392Y57474784D01*
X96539926Y57119001D01*
X95948282Y56873934D01*
X95634239Y56811467D01*
X95320197Y56749000D01*
X94679803Y56749000D01*
X94365761Y56811467D01*
X94051718Y56873934D01*
X93460074Y57119001D01*
X92927608Y57474784D01*
X92474784Y57927608D01*
X92119001Y58460074D01*
X91873934Y59051718D01*
X91749000Y59679804D01*
X91749000Y60320196D01*
X91750685Y60328665D01*
X91852639Y60841225D01*
X91873934Y60948282D01*
X92119001Y61539926D01*
X92474784Y62072392D01*
X92927608Y62525216D01*
X92946690Y62537966D01*
X93168238Y62686000D01*
X93460074Y62880999D01*
X94051718Y63126066D01*
X94365761Y63188533D01*
X94679803Y63251000D01*
X95320197Y63251000D01*
X95634239Y63188533D01*
G37*
G36*
X5634239Y63188533D02*
G01*
X5948282Y63126066D01*
X6539926Y62880999D01*
X6831762Y62686000D01*
X7053311Y62537966D01*
X7072392Y62525216D01*
X7525216Y62072392D01*
X7880999Y61539926D01*
X8126066Y60948282D01*
X8147361Y60841225D01*
X8249316Y60328665D01*
X8251000Y60320196D01*
X8251000Y59679804D01*
X8126066Y59051718D01*
X7880999Y58460074D01*
X7525216Y57927608D01*
X7072392Y57474784D01*
X6539926Y57119001D01*
X5948282Y56873934D01*
X5634239Y56811467D01*
X5320197Y56749000D01*
X4679803Y56749000D01*
X4365761Y56811467D01*
X4051718Y56873934D01*
X3460074Y57119001D01*
X2927608Y57474784D01*
X2474784Y57927608D01*
X2119001Y58460074D01*
X1873934Y59051718D01*
X1749000Y59679804D01*
X1749000Y60320196D01*
X1750685Y60328665D01*
X1852639Y60841225D01*
X1873934Y60948282D01*
X2119001Y61539926D01*
X2474784Y62072392D01*
X2927608Y62525216D01*
X2946690Y62537966D01*
X3168238Y62686000D01*
X3460074Y62880999D01*
X4051718Y63126066D01*
X4365761Y63188533D01*
X4679803Y63251000D01*
X5320197Y63251000D01*
X5634239Y63188533D01*
G37*
G36*
X46288228Y58513297D02*
G01*
X46443100Y58449147D01*
X46582481Y58356015D01*
X46701015Y58237481D01*
X46794147Y58098100D01*
X46858297Y57943228D01*
X46891000Y57778816D01*
X46891000Y57611184D01*
X46858297Y57446772D01*
X46794147Y57291900D01*
X46701015Y57152519D01*
X46582481Y57033985D01*
X46443100Y56940853D01*
X46288228Y56876703D01*
X46123816Y56844000D01*
X45956184Y56844000D01*
X45791772Y56876703D01*
X45636900Y56940853D01*
X45497519Y57033985D01*
X45378985Y57152519D01*
X45285853Y57291900D01*
X45221703Y57446772D01*
X45189000Y57611184D01*
X45189000Y57778816D01*
X45221703Y57943228D01*
X45285853Y58098100D01*
X45378985Y58237481D01*
X45497519Y58356015D01*
X45636900Y58449147D01*
X45791772Y58513297D01*
X45956184Y58546000D01*
X46123816Y58546000D01*
X46288228Y58513297D01*
G37*
G36*
X41208228Y58513297D02*
G01*
X41363100Y58449147D01*
X41502481Y58356015D01*
X41621015Y58237481D01*
X41714147Y58098100D01*
X41778297Y57943228D01*
X41811000Y57778816D01*
X41811000Y57611184D01*
X41778297Y57446772D01*
X41714147Y57291900D01*
X41621015Y57152519D01*
X41502481Y57033985D01*
X41363100Y56940853D01*
X41208228Y56876703D01*
X41043816Y56844000D01*
X40876184Y56844000D01*
X40711772Y56876703D01*
X40556900Y56940853D01*
X40417519Y57033985D01*
X40298985Y57152519D01*
X40205853Y57291900D01*
X40141703Y57446772D01*
X40109000Y57611184D01*
X40109000Y57778816D01*
X40141703Y57943228D01*
X40205853Y58098100D01*
X40298985Y58237481D01*
X40417519Y58356015D01*
X40556900Y58449147D01*
X40711772Y58513297D01*
X40876184Y58546000D01*
X41043816Y58546000D01*
X41208228Y58513297D01*
G37*
G36*
X43748228Y58513297D02*
G01*
X43903100Y58449147D01*
X44042481Y58356015D01*
X44161015Y58237481D01*
X44254147Y58098100D01*
X44318297Y57943228D01*
X44351000Y57778816D01*
X44351000Y57611184D01*
X44318297Y57446772D01*
X44254147Y57291900D01*
X44161015Y57152519D01*
X44042481Y57033985D01*
X43903100Y56940853D01*
X43748228Y56876703D01*
X43583816Y56844000D01*
X43416184Y56844000D01*
X43251772Y56876703D01*
X43096900Y56940853D01*
X42957519Y57033985D01*
X42838985Y57152519D01*
X42745853Y57291900D01*
X42681703Y57446772D01*
X42649000Y57611184D01*
X42649000Y57778816D01*
X42681703Y57943228D01*
X42745853Y58098100D01*
X42838985Y58237481D01*
X42957519Y58356015D01*
X43096900Y58449147D01*
X43251772Y58513297D01*
X43416184Y58546000D01*
X43583816Y58546000D01*
X43748228Y58513297D01*
G37*
G36*
X48828228Y58513297D02*
G01*
X48983100Y58449147D01*
X49122481Y58356015D01*
X49241015Y58237481D01*
X49334147Y58098100D01*
X49398297Y57943228D01*
X49431000Y57778816D01*
X49431000Y57611184D01*
X49398297Y57446772D01*
X49334147Y57291900D01*
X49241015Y57152519D01*
X49122481Y57033985D01*
X48983100Y56940853D01*
X48828228Y56876703D01*
X48663816Y56844000D01*
X48496184Y56844000D01*
X48331772Y56876703D01*
X48176900Y56940853D01*
X48037519Y57033985D01*
X47918985Y57152519D01*
X47825853Y57291900D01*
X47761703Y57446772D01*
X47729000Y57611184D01*
X47729000Y57778816D01*
X47761703Y57943228D01*
X47825853Y58098100D01*
X47918985Y58237481D01*
X48037519Y58356015D01*
X48176900Y58449147D01*
X48331772Y58513297D01*
X48496184Y58546000D01*
X48663816Y58546000D01*
X48828228Y58513297D01*
G37*
G36*
X56448228Y58513297D02*
G01*
X56603100Y58449147D01*
X56742481Y58356015D01*
X56861015Y58237481D01*
X56954147Y58098100D01*
X57018297Y57943228D01*
X57051000Y57778816D01*
X57051000Y57611184D01*
X57018297Y57446772D01*
X56954147Y57291900D01*
X56861015Y57152519D01*
X56742481Y57033985D01*
X56603100Y56940853D01*
X56448228Y56876703D01*
X56283816Y56844000D01*
X56116184Y56844000D01*
X55951772Y56876703D01*
X55796900Y56940853D01*
X55657519Y57033985D01*
X55538985Y57152519D01*
X55445853Y57291900D01*
X55381703Y57446772D01*
X55349000Y57611184D01*
X55349000Y57778816D01*
X55381703Y57943228D01*
X55445853Y58098100D01*
X55538985Y58237481D01*
X55657519Y58356015D01*
X55796900Y58449147D01*
X55951772Y58513297D01*
X56116184Y58546000D01*
X56283816Y58546000D01*
X56448228Y58513297D01*
G37*
G36*
X59591000Y56844000D02*
G01*
X57889000Y56844000D01*
X57889000Y58546000D01*
X59591000Y58546000D01*
X59591000Y56844000D01*
G37*
G36*
X53908228Y58513297D02*
G01*
X54063100Y58449147D01*
X54202481Y58356015D01*
X54321015Y58237481D01*
X54414147Y58098100D01*
X54478297Y57943228D01*
X54511000Y57778816D01*
X54511000Y57611184D01*
X54478297Y57446772D01*
X54414147Y57291900D01*
X54321015Y57152519D01*
X54202481Y57033985D01*
X54063100Y56940853D01*
X53908228Y56876703D01*
X53743816Y56844000D01*
X53576184Y56844000D01*
X53411772Y56876703D01*
X53256900Y56940853D01*
X53117519Y57033985D01*
X52998985Y57152519D01*
X52905853Y57291900D01*
X52841703Y57446772D01*
X52809000Y57611184D01*
X52809000Y57778816D01*
X52841703Y57943228D01*
X52905853Y58098100D01*
X52998985Y58237481D01*
X53117519Y58356015D01*
X53256900Y58449147D01*
X53411772Y58513297D01*
X53576184Y58546000D01*
X53743816Y58546000D01*
X53908228Y58513297D01*
G37*
G36*
X51368228Y58513297D02*
G01*
X51523100Y58449147D01*
X51662481Y58356015D01*
X51781015Y58237481D01*
X51874147Y58098100D01*
X51938297Y57943228D01*
X51971000Y57778816D01*
X51971000Y57611184D01*
X51938297Y57446772D01*
X51874147Y57291900D01*
X51781015Y57152519D01*
X51662481Y57033985D01*
X51523100Y56940853D01*
X51368228Y56876703D01*
X51203816Y56844000D01*
X51036184Y56844000D01*
X50871772Y56876703D01*
X50716900Y56940853D01*
X50577519Y57033985D01*
X50458985Y57152519D01*
X50365853Y57291900D01*
X50301703Y57446772D01*
X50269000Y57611184D01*
X50269000Y57778816D01*
X50301703Y57943228D01*
X50365853Y58098100D01*
X50458985Y58237481D01*
X50577519Y58356015D01*
X50716900Y58449147D01*
X50871772Y58513297D01*
X51036184Y58546000D01*
X51203816Y58546000D01*
X51368228Y58513297D01*
G37*
G36*
X87690098Y62537967D02*
G01*
X88033641Y62395667D01*
X88154352Y62345667D01*
X88572168Y62066491D01*
X88927491Y61711168D01*
X89173258Y61343352D01*
X89206668Y61293350D01*
X89398967Y60829098D01*
X89497000Y60336253D01*
X89497000Y59833747D01*
X89398967Y59340902D01*
X89227378Y58926648D01*
X89206667Y58876648D01*
X88927491Y58458832D01*
X88572168Y58103509D01*
X88154352Y57824333D01*
X88154351Y57824332D01*
X88154350Y57824332D01*
X87690098Y57632033D01*
X87197253Y57534000D01*
X86694747Y57534000D01*
X86201902Y57632033D01*
X85737650Y57824332D01*
X85737649Y57824332D01*
X85737648Y57824333D01*
X85319832Y58103509D01*
X84964509Y58458832D01*
X84685333Y58876648D01*
X84664622Y58926648D01*
X84493033Y59340902D01*
X84395000Y59833747D01*
X84395000Y60336253D01*
X84493033Y60829098D01*
X84685332Y61293350D01*
X84718742Y61343352D01*
X84964509Y61711168D01*
X85319832Y62066491D01*
X85737648Y62345667D01*
X85858359Y62395667D01*
X86201902Y62537967D01*
X86694747Y62636000D01*
X87197253Y62636000D01*
X87690098Y62537967D01*
G37*
G36*
X12990098Y62587967D02*
G01*
X13454350Y62395668D01*
X13454352Y62395667D01*
X13872168Y62116491D01*
X14227491Y61761168D01*
X14506667Y61343352D01*
X14506668Y61343350D01*
X14698967Y60879098D01*
X14797000Y60386253D01*
X14797000Y59883747D01*
X14698967Y59390902D01*
X14506668Y58926650D01*
X14506667Y58926648D01*
X14227491Y58508832D01*
X13872168Y58153509D01*
X13454352Y57874333D01*
X13454351Y57874332D01*
X13454350Y57874332D01*
X12990098Y57682033D01*
X12497253Y57584000D01*
X11994747Y57584000D01*
X11501902Y57682033D01*
X11037650Y57874332D01*
X11037649Y57874332D01*
X11037648Y57874333D01*
X10619832Y58153509D01*
X10264509Y58508832D01*
X9985333Y58926648D01*
X9985332Y58926650D01*
X9793033Y59390902D01*
X9695000Y59883747D01*
X9695000Y60386253D01*
X9793033Y60879098D01*
X9985332Y61343350D01*
X9985333Y61343352D01*
X10264509Y61761168D01*
X10619832Y62116491D01*
X11037648Y62395667D01*
X11037650Y62395668D01*
X11501902Y62587967D01*
X11994747Y62686000D01*
X12497253Y62686000D01*
X12990098Y62587967D01*
G37*
G36*
X71713395Y61149454D02*
G01*
X71886466Y61077766D01*
X71886467Y61077765D01*
X72042227Y60973690D01*
X72174690Y60841227D01*
X72217284Y60777480D01*
X72278766Y60685466D01*
X72350454Y60512395D01*
X72387000Y60328667D01*
X72387000Y60141333D01*
X72350454Y59957605D01*
X72278766Y59784534D01*
X72278765Y59784533D01*
X72174690Y59628773D01*
X72042227Y59496310D01*
X72019092Y59480852D01*
X71886466Y59392234D01*
X71713395Y59320546D01*
X71529667Y59284000D01*
X71342333Y59284000D01*
X71158605Y59320546D01*
X70985534Y59392234D01*
X70852908Y59480852D01*
X70829773Y59496310D01*
X70697310Y59628773D01*
X70593235Y59784533D01*
X70593234Y59784534D01*
X70521546Y59957605D01*
X70485000Y60141333D01*
X70485000Y60328667D01*
X70521546Y60512395D01*
X70593234Y60685466D01*
X70654716Y60777480D01*
X70697310Y60841227D01*
X70829773Y60973690D01*
X70985533Y61077765D01*
X70985534Y61077766D01*
X71158605Y61149454D01*
X71342333Y61186000D01*
X71529667Y61186000D01*
X71713395Y61149454D01*
G37*
G36*
X51393395Y61149454D02*
G01*
X51566466Y61077766D01*
X51566467Y61077765D01*
X51722227Y60973690D01*
X51854690Y60841227D01*
X51897284Y60777480D01*
X51958766Y60685466D01*
X52030454Y60512395D01*
X52067000Y60328667D01*
X52067000Y60141333D01*
X52030454Y59957605D01*
X51958766Y59784534D01*
X51958765Y59784533D01*
X51854690Y59628773D01*
X51722227Y59496310D01*
X51699092Y59480852D01*
X51566466Y59392234D01*
X51393395Y59320546D01*
X51209667Y59284000D01*
X51022333Y59284000D01*
X50838605Y59320546D01*
X50665534Y59392234D01*
X50532908Y59480852D01*
X50509773Y59496310D01*
X50377310Y59628773D01*
X50273235Y59784533D01*
X50273234Y59784534D01*
X50201546Y59957605D01*
X50165000Y60141333D01*
X50165000Y60328667D01*
X50201546Y60512395D01*
X50273234Y60685466D01*
X50334716Y60777480D01*
X50377310Y60841227D01*
X50509773Y60973690D01*
X50665533Y61077765D01*
X50665534Y61077766D01*
X50838605Y61149454D01*
X51022333Y61186000D01*
X51209667Y61186000D01*
X51393395Y61149454D01*
G37*
G36*
X48853395Y61149454D02*
G01*
X49026466Y61077766D01*
X49026467Y61077765D01*
X49182227Y60973690D01*
X49314690Y60841227D01*
X49357284Y60777480D01*
X49418766Y60685466D01*
X49490454Y60512395D01*
X49527000Y60328667D01*
X49527000Y60141333D01*
X49490454Y59957605D01*
X49418766Y59784534D01*
X49418765Y59784533D01*
X49314690Y59628773D01*
X49182227Y59496310D01*
X49159092Y59480852D01*
X49026466Y59392234D01*
X48853395Y59320546D01*
X48669667Y59284000D01*
X48482333Y59284000D01*
X48298605Y59320546D01*
X48125534Y59392234D01*
X47992908Y59480852D01*
X47969773Y59496310D01*
X47837310Y59628773D01*
X47733235Y59784533D01*
X47733234Y59784534D01*
X47661546Y59957605D01*
X47625000Y60141333D01*
X47625000Y60328667D01*
X47661546Y60512395D01*
X47733234Y60685466D01*
X47794716Y60777480D01*
X47837310Y60841227D01*
X47969773Y60973690D01*
X48125533Y61077765D01*
X48125534Y61077766D01*
X48298605Y61149454D01*
X48482333Y61186000D01*
X48669667Y61186000D01*
X48853395Y61149454D01*
G37*
G36*
X46313395Y61149454D02*
G01*
X46486466Y61077766D01*
X46486467Y61077765D01*
X46642227Y60973690D01*
X46774690Y60841227D01*
X46817284Y60777480D01*
X46878766Y60685466D01*
X46950454Y60512395D01*
X46987000Y60328667D01*
X46987000Y60141333D01*
X46950454Y59957605D01*
X46878766Y59784534D01*
X46878765Y59784533D01*
X46774690Y59628773D01*
X46642227Y59496310D01*
X46619092Y59480852D01*
X46486466Y59392234D01*
X46313395Y59320546D01*
X46129667Y59284000D01*
X45942333Y59284000D01*
X45758605Y59320546D01*
X45585534Y59392234D01*
X45452908Y59480852D01*
X45429773Y59496310D01*
X45297310Y59628773D01*
X45193235Y59784533D01*
X45193234Y59784534D01*
X45121546Y59957605D01*
X45085000Y60141333D01*
X45085000Y60328667D01*
X45121546Y60512395D01*
X45193234Y60685466D01*
X45254716Y60777480D01*
X45297310Y60841227D01*
X45429773Y60973690D01*
X45585533Y61077765D01*
X45585534Y61077766D01*
X45758605Y61149454D01*
X45942333Y61186000D01*
X46129667Y61186000D01*
X46313395Y61149454D01*
G37*
G36*
X43773395Y61149454D02*
G01*
X43946466Y61077766D01*
X43946467Y61077765D01*
X44102227Y60973690D01*
X44234690Y60841227D01*
X44277284Y60777480D01*
X44338766Y60685466D01*
X44410454Y60512395D01*
X44447000Y60328667D01*
X44447000Y60141333D01*
X44410454Y59957605D01*
X44338766Y59784534D01*
X44338765Y59784533D01*
X44234690Y59628773D01*
X44102227Y59496310D01*
X44079092Y59480852D01*
X43946466Y59392234D01*
X43773395Y59320546D01*
X43589667Y59284000D01*
X43402333Y59284000D01*
X43218605Y59320546D01*
X43045534Y59392234D01*
X42912908Y59480852D01*
X42889773Y59496310D01*
X42757310Y59628773D01*
X42653235Y59784533D01*
X42653234Y59784534D01*
X42581546Y59957605D01*
X42545000Y60141333D01*
X42545000Y60328667D01*
X42581546Y60512395D01*
X42653234Y60685466D01*
X42714716Y60777480D01*
X42757310Y60841227D01*
X42889773Y60973690D01*
X43045533Y61077765D01*
X43045534Y61077766D01*
X43218605Y61149454D01*
X43402333Y61186000D01*
X43589667Y61186000D01*
X43773395Y61149454D01*
G37*
G36*
X56473395Y61149454D02*
G01*
X56646466Y61077766D01*
X56646467Y61077765D01*
X56802227Y60973690D01*
X56934690Y60841227D01*
X56977284Y60777480D01*
X57038766Y60685466D01*
X57110454Y60512395D01*
X57147000Y60328667D01*
X57147000Y60141333D01*
X57110454Y59957605D01*
X57038766Y59784534D01*
X57038765Y59784533D01*
X56934690Y59628773D01*
X56802227Y59496310D01*
X56779092Y59480852D01*
X56646466Y59392234D01*
X56473395Y59320546D01*
X56289667Y59284000D01*
X56102333Y59284000D01*
X55918605Y59320546D01*
X55745534Y59392234D01*
X55612908Y59480852D01*
X55589773Y59496310D01*
X55457310Y59628773D01*
X55353235Y59784533D01*
X55353234Y59784534D01*
X55281546Y59957605D01*
X55245000Y60141333D01*
X55245000Y60328667D01*
X55281546Y60512395D01*
X55353234Y60685466D01*
X55414716Y60777480D01*
X55457310Y60841227D01*
X55589773Y60973690D01*
X55745533Y61077765D01*
X55745534Y61077766D01*
X55918605Y61149454D01*
X56102333Y61186000D01*
X56289667Y61186000D01*
X56473395Y61149454D01*
G37*
G36*
X82547000Y59284000D02*
G01*
X80645000Y59284000D01*
X80645000Y61186000D01*
X82547000Y61186000D01*
X82547000Y59284000D01*
G37*
G36*
X53933395Y61149454D02*
G01*
X54106466Y61077766D01*
X54106467Y61077765D01*
X54262227Y60973690D01*
X54394690Y60841227D01*
X54437284Y60777480D01*
X54498766Y60685466D01*
X54570454Y60512395D01*
X54607000Y60328667D01*
X54607000Y60141333D01*
X54570454Y59957605D01*
X54498766Y59784534D01*
X54498765Y59784533D01*
X54394690Y59628773D01*
X54262227Y59496310D01*
X54239092Y59480852D01*
X54106466Y59392234D01*
X53933395Y59320546D01*
X53749667Y59284000D01*
X53562333Y59284000D01*
X53378605Y59320546D01*
X53205534Y59392234D01*
X53072908Y59480852D01*
X53049773Y59496310D01*
X52917310Y59628773D01*
X52813235Y59784533D01*
X52813234Y59784534D01*
X52741546Y59957605D01*
X52705000Y60141333D01*
X52705000Y60328667D01*
X52741546Y60512395D01*
X52813234Y60685466D01*
X52874716Y60777480D01*
X52917310Y60841227D01*
X53049773Y60973690D01*
X53205533Y61077765D01*
X53205534Y61077766D01*
X53378605Y61149454D01*
X53562333Y61186000D01*
X53749667Y61186000D01*
X53933395Y61149454D01*
G37*
G36*
X79333395Y61149454D02*
G01*
X79506466Y61077766D01*
X79506467Y61077765D01*
X79662227Y60973690D01*
X79794690Y60841227D01*
X79837284Y60777480D01*
X79898766Y60685466D01*
X79970454Y60512395D01*
X80007000Y60328667D01*
X80007000Y60141333D01*
X79970454Y59957605D01*
X79898766Y59784534D01*
X79898765Y59784533D01*
X79794690Y59628773D01*
X79662227Y59496310D01*
X79639092Y59480852D01*
X79506466Y59392234D01*
X79333395Y59320546D01*
X79149667Y59284000D01*
X78962333Y59284000D01*
X78778605Y59320546D01*
X78605534Y59392234D01*
X78472908Y59480852D01*
X78449773Y59496310D01*
X78317310Y59628773D01*
X78213235Y59784533D01*
X78213234Y59784534D01*
X78141546Y59957605D01*
X78105000Y60141333D01*
X78105000Y60328667D01*
X78141546Y60512395D01*
X78213234Y60685466D01*
X78274716Y60777480D01*
X78317310Y60841227D01*
X78449773Y60973690D01*
X78605533Y61077765D01*
X78605534Y61077766D01*
X78778605Y61149454D01*
X78962333Y61186000D01*
X79149667Y61186000D01*
X79333395Y61149454D01*
G37*
G36*
X76793395Y61149454D02*
G01*
X76966466Y61077766D01*
X76966467Y61077765D01*
X77122227Y60973690D01*
X77254690Y60841227D01*
X77297284Y60777480D01*
X77358766Y60685466D01*
X77430454Y60512395D01*
X77467000Y60328667D01*
X77467000Y60141333D01*
X77430454Y59957605D01*
X77358766Y59784534D01*
X77358765Y59784533D01*
X77254690Y59628773D01*
X77122227Y59496310D01*
X77099092Y59480852D01*
X76966466Y59392234D01*
X76793395Y59320546D01*
X76609667Y59284000D01*
X76422333Y59284000D01*
X76238605Y59320546D01*
X76065534Y59392234D01*
X75932908Y59480852D01*
X75909773Y59496310D01*
X75777310Y59628773D01*
X75673235Y59784533D01*
X75673234Y59784534D01*
X75601546Y59957605D01*
X75565000Y60141333D01*
X75565000Y60328667D01*
X75601546Y60512395D01*
X75673234Y60685466D01*
X75734716Y60777480D01*
X75777310Y60841227D01*
X75909773Y60973690D01*
X76065533Y61077765D01*
X76065534Y61077766D01*
X76238605Y61149454D01*
X76422333Y61186000D01*
X76609667Y61186000D01*
X76793395Y61149454D01*
G37*
G36*
X74253395Y61149454D02*
G01*
X74426466Y61077766D01*
X74426467Y61077765D01*
X74582227Y60973690D01*
X74714690Y60841227D01*
X74757284Y60777480D01*
X74818766Y60685466D01*
X74890454Y60512395D01*
X74927000Y60328667D01*
X74927000Y60141333D01*
X74890454Y59957605D01*
X74818766Y59784534D01*
X74818765Y59784533D01*
X74714690Y59628773D01*
X74582227Y59496310D01*
X74559092Y59480852D01*
X74426466Y59392234D01*
X74253395Y59320546D01*
X74069667Y59284000D01*
X73882333Y59284000D01*
X73698605Y59320546D01*
X73525534Y59392234D01*
X73392908Y59480852D01*
X73369773Y59496310D01*
X73237310Y59628773D01*
X73133235Y59784533D01*
X73133234Y59784534D01*
X73061546Y59957605D01*
X73025000Y60141333D01*
X73025000Y60328667D01*
X73061546Y60512395D01*
X73133234Y60685466D01*
X73194716Y60777480D01*
X73237310Y60841227D01*
X73369773Y60973690D01*
X73525533Y61077765D01*
X73525534Y61077766D01*
X73698605Y61149454D01*
X73882333Y61186000D01*
X74069667Y61186000D01*
X74253395Y61149454D01*
G37*
G36*
X69173395Y61149454D02*
G01*
X69346466Y61077766D01*
X69346467Y61077765D01*
X69502227Y60973690D01*
X69634690Y60841227D01*
X69677284Y60777480D01*
X69738766Y60685466D01*
X69810454Y60512395D01*
X69847000Y60328667D01*
X69847000Y60141333D01*
X69810454Y59957605D01*
X69738766Y59784534D01*
X69738765Y59784533D01*
X69634690Y59628773D01*
X69502227Y59496310D01*
X69479092Y59480852D01*
X69346466Y59392234D01*
X69173395Y59320546D01*
X68989667Y59284000D01*
X68802333Y59284000D01*
X68618605Y59320546D01*
X68445534Y59392234D01*
X68312908Y59480852D01*
X68289773Y59496310D01*
X68157310Y59628773D01*
X68053235Y59784533D01*
X68053234Y59784534D01*
X67981546Y59957605D01*
X67945000Y60141333D01*
X67945000Y60328667D01*
X67981546Y60512395D01*
X68053234Y60685466D01*
X68114716Y60777480D01*
X68157310Y60841227D01*
X68289773Y60973690D01*
X68445533Y61077765D01*
X68445534Y61077766D01*
X68618605Y61149454D01*
X68802333Y61186000D01*
X68989667Y61186000D01*
X69173395Y61149454D01*
G37*
G36*
X66633395Y61149454D02*
G01*
X66806466Y61077766D01*
X66806467Y61077765D01*
X66962227Y60973690D01*
X67094690Y60841227D01*
X67137284Y60777480D01*
X67198766Y60685466D01*
X67270454Y60512395D01*
X67307000Y60328667D01*
X67307000Y60141333D01*
X67270454Y59957605D01*
X67198766Y59784534D01*
X67198765Y59784533D01*
X67094690Y59628773D01*
X66962227Y59496310D01*
X66939092Y59480852D01*
X66806466Y59392234D01*
X66633395Y59320546D01*
X66449667Y59284000D01*
X66262333Y59284000D01*
X66078605Y59320546D01*
X65905534Y59392234D01*
X65772908Y59480852D01*
X65749773Y59496310D01*
X65617310Y59628773D01*
X65513235Y59784533D01*
X65513234Y59784534D01*
X65441546Y59957605D01*
X65405000Y60141333D01*
X65405000Y60328667D01*
X65441546Y60512395D01*
X65513234Y60685466D01*
X65574716Y60777480D01*
X65617310Y60841227D01*
X65749773Y60973690D01*
X65905533Y61077765D01*
X65905534Y61077766D01*
X66078605Y61149454D01*
X66262333Y61186000D01*
X66449667Y61186000D01*
X66633395Y61149454D01*
G37*
G36*
X59013395Y61149454D02*
G01*
X59186466Y61077766D01*
X59186467Y61077765D01*
X59342227Y60973690D01*
X59474690Y60841227D01*
X59517284Y60777480D01*
X59578766Y60685466D01*
X59650454Y60512395D01*
X59687000Y60328667D01*
X59687000Y60141333D01*
X59650454Y59957605D01*
X59578766Y59784534D01*
X59578765Y59784533D01*
X59474690Y59628773D01*
X59342227Y59496310D01*
X59319092Y59480852D01*
X59186466Y59392234D01*
X59013395Y59320546D01*
X58829667Y59284000D01*
X58642333Y59284000D01*
X58458605Y59320546D01*
X58285534Y59392234D01*
X58152908Y59480852D01*
X58129773Y59496310D01*
X57997310Y59628773D01*
X57893235Y59784533D01*
X57893234Y59784534D01*
X57821546Y59957605D01*
X57785000Y60141333D01*
X57785000Y60328667D01*
X57821546Y60512395D01*
X57893234Y60685466D01*
X57954716Y60777480D01*
X57997310Y60841227D01*
X58129773Y60973690D01*
X58285533Y61077765D01*
X58285534Y61077766D01*
X58458605Y61149454D01*
X58642333Y61186000D01*
X58829667Y61186000D01*
X59013395Y61149454D01*
G37*
G36*
X64093395Y61149454D02*
G01*
X64266466Y61077766D01*
X64266467Y61077765D01*
X64422227Y60973690D01*
X64554690Y60841227D01*
X64597284Y60777480D01*
X64658766Y60685466D01*
X64730454Y60512395D01*
X64767000Y60328667D01*
X64767000Y60141333D01*
X64730454Y59957605D01*
X64658766Y59784534D01*
X64658765Y59784533D01*
X64554690Y59628773D01*
X64422227Y59496310D01*
X64399092Y59480852D01*
X64266466Y59392234D01*
X64093395Y59320546D01*
X63909667Y59284000D01*
X63722333Y59284000D01*
X63538605Y59320546D01*
X63365534Y59392234D01*
X63232908Y59480852D01*
X63209773Y59496310D01*
X63077310Y59628773D01*
X62973235Y59784533D01*
X62973234Y59784534D01*
X62901546Y59957605D01*
X62865000Y60141333D01*
X62865000Y60328667D01*
X62901546Y60512395D01*
X62973234Y60685466D01*
X63034716Y60777480D01*
X63077310Y60841227D01*
X63209773Y60973690D01*
X63365533Y61077765D01*
X63365534Y61077766D01*
X63538605Y61149454D01*
X63722333Y61186000D01*
X63909667Y61186000D01*
X64093395Y61149454D01*
G37*
G36*
X61553395Y61149454D02*
G01*
X61726466Y61077766D01*
X61726467Y61077765D01*
X61882227Y60973690D01*
X62014690Y60841227D01*
X62057284Y60777480D01*
X62118766Y60685466D01*
X62190454Y60512395D01*
X62227000Y60328667D01*
X62227000Y60141333D01*
X62190454Y59957605D01*
X62118766Y59784534D01*
X62118765Y59784533D01*
X62014690Y59628773D01*
X61882227Y59496310D01*
X61859092Y59480852D01*
X61726466Y59392234D01*
X61553395Y59320546D01*
X61369667Y59284000D01*
X61182333Y59284000D01*
X60998605Y59320546D01*
X60825534Y59392234D01*
X60692908Y59480852D01*
X60669773Y59496310D01*
X60537310Y59628773D01*
X60433235Y59784533D01*
X60433234Y59784534D01*
X60361546Y59957605D01*
X60325000Y60141333D01*
X60325000Y60328667D01*
X60361546Y60512395D01*
X60433234Y60685466D01*
X60494716Y60777480D01*
X60537310Y60841227D01*
X60669773Y60973690D01*
X60825533Y61077765D01*
X60825534Y61077766D01*
X60998605Y61149454D01*
X61182333Y61186000D01*
X61369667Y61186000D01*
X61553395Y61149454D01*
G37*
G36*
X37398228Y61053297D02*
G01*
X37553100Y60989147D01*
X37692481Y60896015D01*
X37811015Y60777481D01*
X37904147Y60638100D01*
X37968297Y60483228D01*
X38001000Y60318816D01*
X38001000Y60151184D01*
X37968297Y59986772D01*
X37904147Y59831900D01*
X37811015Y59692519D01*
X37692481Y59573985D01*
X37553100Y59480853D01*
X37398228Y59416703D01*
X37233816Y59384000D01*
X37066184Y59384000D01*
X36901772Y59416703D01*
X36746900Y59480853D01*
X36607519Y59573985D01*
X36488985Y59692519D01*
X36395853Y59831900D01*
X36331703Y59986772D01*
X36299000Y60151184D01*
X36299000Y60318816D01*
X36331703Y60483228D01*
X36395853Y60638100D01*
X36488985Y60777481D01*
X36607519Y60896015D01*
X36746900Y60989147D01*
X36901772Y61053297D01*
X37066184Y61086000D01*
X37233816Y61086000D01*
X37398228Y61053297D01*
G37*
M02*
