  0
SECTION
  2
HEADER
  9
$MEASUREMENT
  70
  1
  9
$INSUNITS
  70
  4
  0
ENDSEC
  0
SECTION
  2
TABLES
  0
TABLE
  2
LTYPE
 70
     1
  0
LTYPE
  2
CONTINUOUS
 70
    64
  3
Ausgezogene Linie
 72
    65
 73
     0
 40
0.0
  0
ENDTAB
  0
TABLE
  2
LAYER
 70
     3
  0
LAYER
  2
Contour
 70
    64
 62
     7
  6
CONTINUOUS
  0
LAYER
  2
Engraving
 70
    64
 62
     7
  6
CONTINUOUS
  0
LAYER
  2
Reference_points
 70
    64
 62
     1
  6
CONTINUOUS
  0
ENDTAB
  0
TABLE
  2
STYLE
 70
     1
  0
STYLE
  2
TXT
 70
    64
 40
0.0
 41
1.0
 50
0.0
 71
     0
 42
3.500000
  3
TXT
  0
ENDTAB
  0
ENDSEC
  0
SECTION
  2
BLOCKS
  0
ENDSEC
  0
SECTION
  2
ENTITIES
  0
ARC
  8
Contour
 62
   7
 39
0.100
  6
CONTINUOUS
 10
123.00000
 20
63.50000
 30
 0
 40
1.00000
 50
0.00000
 51
90.00000
  0
LINE
  8
Contour
 62
   7
 39
0.100
  6
CONTINUOUS
 10
124.00000
 20
63.50000
 30
 0
 11
124.00000
 21
1.00000
  0
ARC
  8
Contour
 62
   7
 39
0.100
  6
CONTINUOUS
 10
123.00000
 20
1.00000
 30
 0
 40
1.00000
 50
-90.00000
 51
0.00000
  0
LINE
  8
Contour
 62
   7
 39
0.100
  6
CONTINUOUS
 10
123.00000
 20
0.00000
 30
 0
 11
1.00000
 21
0.00000
  0
ARC
  8
Contour
 62
   7
 39
0.100
  6
CONTINUOUS
 10
1.00000
 20
1.00000
 30
 0
 40
1.00000
 50
180.00000
 51
270.00000
  0
LINE
  8
Contour
 62
   7
 39
0.100
  6
CONTINUOUS
 10
0.00000
 20
1.00000
 30
 0
 11
0.00000
 21
63.50000
  0
ARC
  8
Contour
 62
   7
 39
0.100
  6
CONTINUOUS
 10
1.00000
 20
63.50000
 30
 0
 40
1.00000
 50
90.00000
 51
180.00000
  0
LINE
  8
Contour
 62
   7
 39
0.100
  6
CONTINUOUS
 10
1.00000
 20
64.50000
 30
 0
 11
123.00000
 21
64.50000
  0
ARC
  8
Contour
 62
   7
 39
0.100
  6
CONTINUOUS
 10
14.50000
 20
4.85000
 30
 0
 40
1.00000
 50
180.00000
 51
270.00000
  0
LINE
  8
Contour
 62
   7
 39
0.100
  6
CONTINUOUS
 10
14.50000
 20
3.85000
 30
 0
 11
97.50000
 21
3.85000
  0
ARC
  8
Contour
 62
   7
 39
0.100
  6
CONTINUOUS
 10
97.50000
 20
4.85000
 30
 0
 40
1.00000
 50
270.00000
 51
360.00000
  0
LINE
  8
Contour
 62
   7
 39
0.100
  6
CONTINUOUS
 10
98.50000
 20
4.85000
 30
 0
 11
98.50000
 21
12.85000
  0
ARC
  8
Contour
 62
   7
 39
0.100
  6
CONTINUOUS
 10
97.50000
 20
12.85000
 30
 0
 40
1.00000
 50
0.00000
 51
90.00000
  0
LINE
  8
Contour
 62
   7
 39
0.100
  6
CONTINUOUS
 10
97.50000
 20
13.85000
 30
 0
 11
14.50000
 21
13.85000
  0
ARC
  8
Contour
 62
   7
 39
0.100
  6
CONTINUOUS
 10
14.50000
 20
12.85000
 30
 0
 40
1.00000
 50
90.00000
 51
180.00000
  0
LINE
  8
Contour
 62
   7
 39
0.100
  6
CONTINUOUS
 10
13.50000
 20
12.85000
 30
 0
 11
13.50000
 21
4.85000
  0
CIRCLE
  8
Contour
 62
   7
 39
0.100
  6
CONTINUOUS
 10
8.00000
 20
12.65000
 30
 0
 40
1.25000
  0
CIRCLE
  8
Contour
 62
   7
 39
0.100
  6
CONTINUOUS
 10
116.00000
 20
12.65000
 30
 0
 40
1.25000
  0
CIRCLE
  8
Contour
 62
   7
 39
0.100
  6
CONTINUOUS
 10
16.02000
 20
9.70000
 30
 0
 40
1.60000
  0
CIRCLE
  8
Contour
 62
   7
 39
0.100
  6
CONTINUOUS
 10
21.10000
 20
9.70000
 30
 0
 40
1.60000
  0
CIRCLE
  8
Contour
 62
   7
 39
0.100
  6
CONTINUOUS
 10
101.38000
 20
10.15000
 30
 0
 40
1.65000
  0
CIRCLE
  8
Contour
 62
   7
 39
0.100
  6
CONTINUOUS
 10
27.50000
 20
8.85000
 30
 0
 40
2.20000
  0
CIRCLE
  8
Contour
 62
   7
 39
0.100
  6
CONTINUOUS
 10
36.50000
 20
8.85000
 30
 0
 40
2.20000
  0
CIRCLE
  8
Contour
 62
   7
 39
0.100
  6
CONTINUOUS
 10
45.50000
 20
8.85000
 30
 0
 40
2.20000
  0
CIRCLE
  8
Contour
 62
   7
 39
0.100
  6
CONTINUOUS
 10
54.50000
 20
8.85000
 30
 0
 40
2.20000
  0
CIRCLE
  8
Contour
 62
   7
 39
0.100
  6
CONTINUOUS
 10
63.50000
 20
8.85000
 30
 0
 40
2.20000
  0
CIRCLE
  8
Contour
 62
   7
 39
0.100
  6
CONTINUOUS
 10
72.50000
 20
8.85000
 30
 0
 40
2.20000
  0
CIRCLE
  8
Contour
 62
   7
 39
0.100
  6
CONTINUOUS
 10
81.50000
 20
8.85000
 30
 0
 40
2.20000
  0
CIRCLE
  8
Contour
 62
   7
 39
0.100
  6
CONTINUOUS
 10
90.50000
 20
8.85000
 30
 0
 40
2.20000
  0
ARC
  8
Contour
 62
   7
 39
0.100
  6
CONTINUOUS
 10
14.50000
 20
26.25000
 30
 0
 40
1.00000
 50
180.00000
 51
270.00000
  0
LINE
  8
Contour
 62
   7
 39
0.100
  6
CONTINUOUS
 10
14.50000
 20
25.25000
 30
 0
 11
84.50000
 21
25.25000
  0
ARC
  8
Contour
 62
   7
 39
0.100
  6
CONTINUOUS
 10
84.50000
 20
26.25000
 30
 0
 40
1.00000
 50
270.00000
 51
360.00000
  0
LINE
  8
Contour
 62
   7
 39
0.100
  6
CONTINUOUS
 10
85.50000
 20
26.25000
 30
 0
 11
85.50000
 21
49.25000
  0
ARC
  8
Contour
 62
   7
 39
0.100
  6
CONTINUOUS
 10
84.50000
 20
49.25000
 30
 0
 40
1.00000
 50
0.00000
 51
90.00000
  0
LINE
  8
Contour
 62
   7
 39
0.100
  6
CONTINUOUS
 10
84.50000
 20
50.25000
 30
 0
 11
14.50000
 21
50.25000
  0
ARC
  8
Contour
 62
   7
 39
0.100
  6
CONTINUOUS
 10
14.50000
 20
49.25000
 30
 0
 40
1.00000
 50
90.00000
 51
180.00000
  0
LINE
  8
Contour
 62
   7
 39
0.100
  6
CONTINUOUS
 10
13.50000
 20
49.25000
 30
 0
 11
13.50000
 21
26.25000
  0
CIRCLE
  8
Contour
 62
   7
 39
0.100
  6
CONTINUOUS
 10
12.15000
 20
53.10000
 30
 0
 40
1.50000
  0
CIRCLE
  8
Contour
 62
   7
 39
0.100
  6
CONTINUOUS
 10
12.15000
 20
22.40000
 30
 0
 40
1.50000
  0
CIRCLE
  8
Contour
 62
   7
 39
0.100
  6
CONTINUOUS
 10
86.85000
 20
53.10000
 30
 0
 40
1.50000
  0
CIRCLE
  8
Contour
 62
   7
 39
0.100
  6
CONTINUOUS
 10
86.85000
 20
22.40000
 30
 0
 40
1.50000
  0
ENDSEC
  0
EOF
