M48
; DRILL file {KiCad (5.1.4)-1} date 10/09/2019 00:12:08
; FORMAT={3:3/ absolute / metric / suppress leading zeros}
; #@! TF.CreationDate,2019-09-10T00:12:08+02:00
; #@! TF.GenerationSoftware,Kicad,Pcbnew,(5.1.4)-1
; #@! TF.FileFunction,Plated,1,2,PTH
FMAT,2
METRIC,TZ
T1C0.800
T2C1.000
T3C1.100
%
G90
G05
T1
X25005Y15489
X25005Y7869
X27545Y15489
X27545Y7869
X30085Y15489
X30085Y7869
X32625Y15489
X32625Y7869
X37515Y11996
X37515Y1836
X23481Y21775
X33641Y21775
X17449Y24950
X19989Y27490
X22528Y24950
X2018Y26665
X2018Y16505
X20496Y2407
X23037Y4947
X25576Y2407
X10464Y4947
X13004Y2407
X15544Y4947
X6018Y26665
X6018Y16505
X11480Y18600
X11480Y10980
X14019Y18600
X14019Y10980
X16560Y18600
X16560Y10980
X19100Y18600
X19100Y10980
X23481Y18537
X33641Y18537
X9511Y21775
X19671Y21775
X10336Y7996
X20496Y7996
T2
X39039Y20569
X39039Y18028
X39039Y15489
T3
X5511Y12949
X5511Y10409
T0
M30
