M48
; DRILL file {KiCad (5.1.4)-1} date 09/09/2019 23:54:12
; FORMAT={3:3/ absolute / metric / suppress leading zeros}
; #@! TF.CreationDate,2019-09-09T23:54:12+02:00
; #@! TF.GenerationSoftware,Kicad,Pcbnew,(5.1.4)-1
; #@! TF.FileFunction,Plated,1,2,PTH
FMAT,2
METRIC,TZ
T1C0.800
T2C1.000
T3C1.100
%
G90
G05
T1
X25464Y-39053
X28003Y-41593
X30544Y-39053
X26480Y-25400
X26480Y-33020
X29020Y-25400
X29020Y-33020
X31560Y-25400
X31560Y-33020
X34100Y-25400
X34100Y-33020
X35497Y-41593
X38037Y-39053
X40577Y-41593
X21019Y-17336
X21019Y-27495
X40005Y-28512
X40005Y-36132
X42545Y-28512
X42545Y-36132
X45085Y-28512
X45085Y-36132
X47625Y-28512
X47625Y-36132
X38481Y-25464
X48641Y-25464
X24511Y-22225
X34671Y-22225
X25336Y-36005
X35497Y-36005
X32448Y-19050
X34989Y-16510
X37529Y-19050
X52515Y-32004
X52515Y-42164
X38481Y-22225
X48641Y-22225
X17018Y-17336
X17018Y-27495
T2
X54039Y-23432
X54039Y-25971
X54039Y-28512
T3
X20511Y-31051
X20511Y-33592
T0
M30
