G04 #@! TF.GenerationSoftware,KiCad,Pcbnew,(5.1.4)-1*
G04 #@! TF.CreationDate,2019-09-16T22:23:31+02:00*
G04 #@! TF.ProjectId,RTD,5254442e-6b69-4636-9164-5f7063625858,1.2*
G04 #@! TF.SameCoordinates,PXe4e1c0PY29f6300*
G04 #@! TF.FileFunction,Copper,L2,Bot*
G04 #@! TF.FilePolarity,Positive*
%FSLAX46Y46*%
G04 Gerber Fmt 4.6, Leading zero omitted, Abs format (unit mm)*
G04 Created by KiCad (PCBNEW (5.1.4)-1) date 2019-09-16 22:23:31*
%MOMM*%
%LPD*%
G04 APERTURE LIST*
%ADD10C,0.300000*%
%ADD11O,1.600000X1.600000*%
%ADD12R,1.600000X1.600000*%
%ADD13C,1.600000*%
%ADD14C,1.440000*%
%ADD15C,1.500000*%
%ADD16R,1.998980X1.998980*%
%ADD17O,1.998980X1.998980*%
%ADD18O,1.700000X1.700000*%
%ADD19R,1.700000X1.700000*%
%ADD20C,0.400000*%
%ADD21C,0.254000*%
G04 APERTURE END LIST*
D10*
X42685357Y1943143D02*
X42471071Y1871715D01*
X42399642Y1800286D01*
X42328214Y1657429D01*
X42328214Y1443143D01*
X42399642Y1300286D01*
X42471071Y1228858D01*
X42613928Y1157429D01*
X43185357Y1157429D01*
X43185357Y2657429D01*
X42685357Y2657429D01*
X42542500Y2586000D01*
X42471071Y2514572D01*
X42399642Y2371715D01*
X42399642Y2228858D01*
X42471071Y2086000D01*
X42542500Y2014572D01*
X42685357Y1943143D01*
X43185357Y1943143D01*
X41399642Y2657429D02*
X41113928Y2657429D01*
X40971071Y2586000D01*
X40828214Y2443143D01*
X40756785Y2157429D01*
X40756785Y1657429D01*
X40828214Y1371715D01*
X40971071Y1228858D01*
X41113928Y1157429D01*
X41399642Y1157429D01*
X41542500Y1228858D01*
X41685357Y1371715D01*
X41756785Y1657429D01*
X41756785Y2157429D01*
X41685357Y2443143D01*
X41542500Y2586000D01*
X41399642Y2657429D01*
X40328214Y2657429D02*
X39471071Y2657429D01*
X39899642Y1157429D02*
X39899642Y2657429D01*
D11*
X32625000Y7868500D03*
X25005000Y15488500D03*
X30085000Y7868500D03*
X27545000Y15488500D03*
X27545000Y7868500D03*
X30085000Y15488500D03*
X25005000Y7868500D03*
D12*
X32625000Y15488500D03*
D11*
X11479500Y18600000D03*
X19099500Y10980000D03*
X14019500Y18600000D03*
X16559500Y10980000D03*
X16559500Y18600000D03*
X14019500Y10980000D03*
X19099500Y18600000D03*
D12*
X11479500Y10980000D03*
D11*
X37514500Y1836000D03*
D13*
X37514500Y11996000D03*
D11*
X23481000Y18536500D03*
D13*
X33641000Y18536500D03*
D14*
X25576500Y2407500D03*
X23036500Y4947500D03*
X20496500Y2407500D03*
D11*
X23481000Y21775000D03*
D13*
X33641000Y21775000D03*
D11*
X9511000Y21775000D03*
D13*
X19671000Y21775000D03*
D11*
X6018500Y16504500D03*
D13*
X6018500Y26664500D03*
D11*
X2018000Y16504500D03*
D13*
X2018000Y26664500D03*
D11*
X10336500Y7995500D03*
D13*
X20496500Y7995500D03*
D15*
X2970500Y12948500D03*
X2970500Y10408500D03*
D16*
X5510500Y12948500D03*
D17*
X5510500Y10408500D03*
D14*
X10463500Y4947500D03*
X13003500Y2407500D03*
X15543500Y4947500D03*
X22528500Y24950000D03*
X19988500Y27490000D03*
X17448500Y24950000D03*
D18*
X39038500Y15488500D03*
X39038500Y18028500D03*
D19*
X39038500Y20568500D03*
D20*
X38188501Y17178501D02*
X39038500Y18028500D01*
X36314499Y15304499D02*
X38188501Y17178501D01*
X36314499Y5955003D02*
X36314499Y15304499D01*
X37514500Y4755002D02*
X36314499Y5955003D01*
X37514500Y1836000D02*
X37514500Y4755002D01*
X31990000Y10980000D02*
X19099500Y10980000D01*
X38346499Y17336499D02*
X39038500Y18028500D01*
X25005000Y15488500D02*
X26852999Y17336499D01*
X26852999Y17336499D02*
X38346499Y17336499D01*
X36593750Y15583750D02*
X31990000Y10980000D01*
X39038500Y18028500D02*
X36593750Y15583750D01*
X34657000Y13647000D02*
X36593750Y15583750D01*
X12495500Y13647000D02*
X34657000Y13647000D01*
X5955000Y20187500D02*
X12495500Y13647000D01*
X6018500Y26664500D02*
X5955000Y26601000D01*
X5955000Y26601000D02*
X5955000Y20187500D01*
D21*
G36*
X5205403Y27657202D02*
G01*
X6018500Y26844105D01*
X6831597Y27657202D01*
X6768280Y27873000D01*
X10856084Y27873000D01*
X10734636Y27791851D01*
X10458149Y27515364D01*
X10240915Y27190250D01*
X10091282Y26829003D01*
X10015000Y26445505D01*
X10015000Y26054495D01*
X10091282Y25670997D01*
X10240915Y25309750D01*
X10458149Y24984636D01*
X10734636Y24708149D01*
X11059750Y24490915D01*
X11420997Y24341282D01*
X11804495Y24265000D01*
X12195505Y24265000D01*
X12579003Y24341282D01*
X12940250Y24490915D01*
X13265364Y24708149D01*
X13541851Y24984636D01*
X13607880Y25083456D01*
X16093500Y25083456D01*
X16093500Y24816544D01*
X16145572Y24554761D01*
X16247715Y24308167D01*
X16396003Y24086238D01*
X16584738Y23897503D01*
X16806667Y23749215D01*
X17053261Y23647072D01*
X17315044Y23595000D01*
X17581956Y23595000D01*
X17843739Y23647072D01*
X18090333Y23749215D01*
X18312262Y23897503D01*
X18500997Y24086238D01*
X18649285Y24308167D01*
X18751428Y24554761D01*
X18803500Y24816544D01*
X18803500Y25083456D01*
X21173500Y25083456D01*
X21173500Y24816544D01*
X21225572Y24554761D01*
X21327715Y24308167D01*
X21476003Y24086238D01*
X21664738Y23897503D01*
X21886667Y23749215D01*
X22133261Y23647072D01*
X22395044Y23595000D01*
X22661956Y23595000D01*
X22923739Y23647072D01*
X23170333Y23749215D01*
X23392262Y23897503D01*
X23580997Y24086238D01*
X23729285Y24308167D01*
X23831428Y24554761D01*
X23883500Y24816544D01*
X23883500Y25083456D01*
X23831428Y25345239D01*
X23729285Y25591833D01*
X23580997Y25813762D01*
X23392262Y26002497D01*
X23170333Y26150785D01*
X22923739Y26252928D01*
X22661956Y26305000D01*
X22395044Y26305000D01*
X22133261Y26252928D01*
X21886667Y26150785D01*
X21664738Y26002497D01*
X21476003Y25813762D01*
X21327715Y25591833D01*
X21225572Y25345239D01*
X21173500Y25083456D01*
X18803500Y25083456D01*
X18751428Y25345239D01*
X18649285Y25591833D01*
X18500997Y25813762D01*
X18312262Y26002497D01*
X18090333Y26150785D01*
X17843739Y26252928D01*
X17581956Y26305000D01*
X17315044Y26305000D01*
X17053261Y26252928D01*
X16806667Y26150785D01*
X16584738Y26002497D01*
X16396003Y25813762D01*
X16247715Y25591833D01*
X16145572Y25345239D01*
X16093500Y25083456D01*
X13607880Y25083456D01*
X13759085Y25309750D01*
X13908718Y25670997D01*
X13985000Y26054495D01*
X13985000Y26445505D01*
X13908718Y26829003D01*
X13759085Y27190250D01*
X13541851Y27515364D01*
X13265364Y27791851D01*
X13143916Y27873000D01*
X18683138Y27873000D01*
X18633500Y27623456D01*
X18633500Y27356544D01*
X18685572Y27094761D01*
X18787715Y26848167D01*
X18936003Y26626238D01*
X19124738Y26437503D01*
X19346667Y26289215D01*
X19593261Y26187072D01*
X19855044Y26135000D01*
X20121956Y26135000D01*
X20383739Y26187072D01*
X20630333Y26289215D01*
X20852262Y26437503D01*
X21040997Y26626238D01*
X21189285Y26848167D01*
X21291428Y27094761D01*
X21343500Y27356544D01*
X21343500Y27623456D01*
X21293862Y27873000D01*
X36873000Y27873000D01*
X36873000Y22000000D01*
X36875440Y21975224D01*
X36882667Y21951399D01*
X36894403Y21929443D01*
X36910197Y21910197D01*
X36929443Y21894403D01*
X36951399Y21882667D01*
X36975224Y21875440D01*
X37000000Y21873000D01*
X37741354Y21873000D01*
X37737315Y21869685D01*
X37657963Y21772994D01*
X37598998Y21662680D01*
X37562688Y21542982D01*
X37550428Y21418500D01*
X37550428Y19718500D01*
X37562688Y19594018D01*
X37598998Y19474320D01*
X37657963Y19364006D01*
X37737315Y19267315D01*
X37834006Y19187963D01*
X37944320Y19128998D01*
X38024966Y19104534D01*
X37940912Y19028769D01*
X37766859Y18795420D01*
X37641675Y18532599D01*
X37597024Y18385390D01*
X37718345Y18155500D01*
X38911500Y18155500D01*
X38911500Y18175500D01*
X39165500Y18175500D01*
X39165500Y18155500D01*
X40358655Y18155500D01*
X40479976Y18385390D01*
X40435325Y18532599D01*
X40310141Y18795420D01*
X40136088Y19028769D01*
X40052034Y19104534D01*
X40132680Y19128998D01*
X40242994Y19187963D01*
X40339685Y19267315D01*
X40419037Y19364006D01*
X40478002Y19474320D01*
X40514312Y19594018D01*
X40526572Y19718500D01*
X40526572Y21418500D01*
X40514312Y21542982D01*
X40478002Y21662680D01*
X40419037Y21772994D01*
X40339685Y21869685D01*
X40335646Y21873000D01*
X42873000Y21873000D01*
X42873000Y3626000D01*
X38588214Y3626000D01*
X38588214Y2777886D01*
X38477914Y2899519D01*
X38251920Y3067037D01*
X37997587Y3187246D01*
X37863539Y3227904D01*
X37641500Y3105915D01*
X37641500Y1963000D01*
X37661500Y1963000D01*
X37661500Y1709000D01*
X37641500Y1709000D01*
X37641500Y1689000D01*
X37387500Y1689000D01*
X37387500Y1709000D01*
X36243876Y1709000D01*
X36122591Y1486960D01*
X36217430Y1222119D01*
X36274476Y1127000D01*
X33143916Y1127000D01*
X33265364Y1208149D01*
X33541851Y1484636D01*
X33759085Y1809750D01*
X33908718Y2170997D01*
X33911511Y2185040D01*
X36122591Y2185040D01*
X36243876Y1963000D01*
X37387500Y1963000D01*
X37387500Y3105915D01*
X37165461Y3227904D01*
X37031413Y3187246D01*
X36777080Y3067037D01*
X36551086Y2899519D01*
X36362115Y2691131D01*
X36217430Y2449881D01*
X36122591Y2185040D01*
X33911511Y2185040D01*
X33985000Y2554495D01*
X33985000Y2945505D01*
X33908718Y3329003D01*
X33759085Y3690250D01*
X33541851Y4015364D01*
X33265364Y4291851D01*
X32940250Y4509085D01*
X32579003Y4658718D01*
X32195505Y4735000D01*
X31804495Y4735000D01*
X31420997Y4658718D01*
X31059750Y4509085D01*
X30734636Y4291851D01*
X30458149Y4015364D01*
X30240915Y3690250D01*
X30091282Y3329003D01*
X30015000Y2945505D01*
X30015000Y2554495D01*
X30091282Y2170997D01*
X30240915Y1809750D01*
X30458149Y1484636D01*
X30734636Y1208149D01*
X30856084Y1127000D01*
X26025885Y1127000D01*
X26218333Y1206715D01*
X26440262Y1355003D01*
X26628997Y1543738D01*
X26777285Y1765667D01*
X26879428Y2012261D01*
X26931500Y2274044D01*
X26931500Y2540956D01*
X26879428Y2802739D01*
X26777285Y3049333D01*
X26628997Y3271262D01*
X26440262Y3459997D01*
X26218333Y3608285D01*
X25971739Y3710428D01*
X25709956Y3762500D01*
X25443044Y3762500D01*
X25181261Y3710428D01*
X24934667Y3608285D01*
X24712738Y3459997D01*
X24524003Y3271262D01*
X24375715Y3049333D01*
X24273572Y2802739D01*
X24221500Y2540956D01*
X24221500Y2274044D01*
X24273572Y2012261D01*
X24375715Y1765667D01*
X24524003Y1543738D01*
X24712738Y1355003D01*
X24934667Y1206715D01*
X25127115Y1127000D01*
X20945885Y1127000D01*
X21138333Y1206715D01*
X21360262Y1355003D01*
X21548997Y1543738D01*
X21697285Y1765667D01*
X21799428Y2012261D01*
X21851500Y2274044D01*
X21851500Y2540956D01*
X21799428Y2802739D01*
X21697285Y3049333D01*
X21548997Y3271262D01*
X21360262Y3459997D01*
X21138333Y3608285D01*
X20891739Y3710428D01*
X20629956Y3762500D01*
X20363044Y3762500D01*
X20101261Y3710428D01*
X19854667Y3608285D01*
X19632738Y3459997D01*
X19444003Y3271262D01*
X19295715Y3049333D01*
X19193572Y2802739D01*
X19141500Y2540956D01*
X19141500Y2274044D01*
X19193572Y2012261D01*
X19295715Y1765667D01*
X19444003Y1543738D01*
X19632738Y1355003D01*
X19854667Y1206715D01*
X20047115Y1127000D01*
X13452885Y1127000D01*
X13645333Y1206715D01*
X13867262Y1355003D01*
X14055997Y1543738D01*
X14204285Y1765667D01*
X14306428Y2012261D01*
X14358500Y2274044D01*
X14358500Y2540956D01*
X14306428Y2802739D01*
X14204285Y3049333D01*
X14055997Y3271262D01*
X13867262Y3459997D01*
X13645333Y3608285D01*
X13398739Y3710428D01*
X13136956Y3762500D01*
X12870044Y3762500D01*
X12608261Y3710428D01*
X12361667Y3608285D01*
X12139738Y3459997D01*
X11951003Y3271262D01*
X11802715Y3049333D01*
X11700572Y2802739D01*
X11648500Y2540956D01*
X11648500Y2274044D01*
X11700572Y2012261D01*
X11802715Y1765667D01*
X11951003Y1543738D01*
X12139738Y1355003D01*
X12361667Y1206715D01*
X12554115Y1127000D01*
X7127000Y1127000D01*
X7127000Y5080956D01*
X9108500Y5080956D01*
X9108500Y4814044D01*
X9160572Y4552261D01*
X9262715Y4305667D01*
X9411003Y4083738D01*
X9599738Y3895003D01*
X9821667Y3746715D01*
X10068261Y3644572D01*
X10330044Y3592500D01*
X10596956Y3592500D01*
X10858739Y3644572D01*
X11105333Y3746715D01*
X11327262Y3895003D01*
X11515997Y4083738D01*
X11664285Y4305667D01*
X11766428Y4552261D01*
X11818500Y4814044D01*
X11818500Y5080956D01*
X14188500Y5080956D01*
X14188500Y4814044D01*
X14240572Y4552261D01*
X14342715Y4305667D01*
X14491003Y4083738D01*
X14679738Y3895003D01*
X14901667Y3746715D01*
X15148261Y3644572D01*
X15410044Y3592500D01*
X15676956Y3592500D01*
X15938739Y3644572D01*
X16185333Y3746715D01*
X16407262Y3895003D01*
X16595997Y4083738D01*
X16744285Y4305667D01*
X16846428Y4552261D01*
X16898500Y4814044D01*
X16898500Y5080956D01*
X21681500Y5080956D01*
X21681500Y4814044D01*
X21733572Y4552261D01*
X21835715Y4305667D01*
X21984003Y4083738D01*
X22172738Y3895003D01*
X22394667Y3746715D01*
X22641261Y3644572D01*
X22903044Y3592500D01*
X23169956Y3592500D01*
X23431739Y3644572D01*
X23678333Y3746715D01*
X23900262Y3895003D01*
X24088997Y4083738D01*
X24237285Y4305667D01*
X24339428Y4552261D01*
X24391500Y4814044D01*
X24391500Y5080956D01*
X24339428Y5342739D01*
X24237285Y5589333D01*
X24088997Y5811262D01*
X23900262Y5999997D01*
X23678333Y6148285D01*
X23431739Y6250428D01*
X23169956Y6302500D01*
X22903044Y6302500D01*
X22641261Y6250428D01*
X22394667Y6148285D01*
X22172738Y5999997D01*
X21984003Y5811262D01*
X21835715Y5589333D01*
X21733572Y5342739D01*
X21681500Y5080956D01*
X16898500Y5080956D01*
X16846428Y5342739D01*
X16744285Y5589333D01*
X16595997Y5811262D01*
X16407262Y5999997D01*
X16185333Y6148285D01*
X15938739Y6250428D01*
X15676956Y6302500D01*
X15410044Y6302500D01*
X15148261Y6250428D01*
X14901667Y6148285D01*
X14679738Y5999997D01*
X14491003Y5811262D01*
X14342715Y5589333D01*
X14240572Y5342739D01*
X14188500Y5080956D01*
X11818500Y5080956D01*
X11766428Y5342739D01*
X11664285Y5589333D01*
X11515997Y5811262D01*
X11327262Y5999997D01*
X11105333Y6148285D01*
X10858739Y6250428D01*
X10596956Y6302500D01*
X10330044Y6302500D01*
X10068261Y6250428D01*
X9821667Y6148285D01*
X9599738Y5999997D01*
X9411003Y5811262D01*
X9262715Y5589333D01*
X9160572Y5342739D01*
X9108500Y5080956D01*
X7127000Y5080956D01*
X7127000Y7000000D01*
X7124560Y7024776D01*
X7117333Y7048601D01*
X7105597Y7070557D01*
X7089803Y7089803D01*
X7070557Y7105597D01*
X7048601Y7117333D01*
X7024776Y7124560D01*
X7000000Y7127000D01*
X1127000Y7127000D01*
X1127000Y7995500D01*
X8894557Y7995500D01*
X8922264Y7714191D01*
X9004318Y7443692D01*
X9137568Y7194399D01*
X9316892Y6975892D01*
X9535399Y6796568D01*
X9784692Y6663318D01*
X10055191Y6581264D01*
X10266008Y6560500D01*
X10406992Y6560500D01*
X10617809Y6581264D01*
X10888308Y6663318D01*
X11137601Y6796568D01*
X11356108Y6975892D01*
X11535432Y7194399D01*
X11668682Y7443692D01*
X11750736Y7714191D01*
X11778443Y7995500D01*
X11764523Y8136835D01*
X19061500Y8136835D01*
X19061500Y7854165D01*
X19116647Y7576926D01*
X19224820Y7315773D01*
X19381863Y7080741D01*
X19581741Y6880863D01*
X19816773Y6723820D01*
X20077926Y6615647D01*
X20355165Y6560500D01*
X20637835Y6560500D01*
X20915074Y6615647D01*
X21176227Y6723820D01*
X21411259Y6880863D01*
X21611137Y7080741D01*
X21768180Y7315773D01*
X21876353Y7576926D01*
X21931500Y7854165D01*
X21931500Y7868500D01*
X23563057Y7868500D01*
X23590764Y7587191D01*
X23672818Y7316692D01*
X23806068Y7067399D01*
X23985392Y6848892D01*
X24203899Y6669568D01*
X24453192Y6536318D01*
X24723691Y6454264D01*
X24934508Y6433500D01*
X25075492Y6433500D01*
X25286309Y6454264D01*
X25556808Y6536318D01*
X25806101Y6669568D01*
X26024608Y6848892D01*
X26203932Y7067399D01*
X26275000Y7200358D01*
X26346068Y7067399D01*
X26525392Y6848892D01*
X26743899Y6669568D01*
X26993192Y6536318D01*
X27263691Y6454264D01*
X27474508Y6433500D01*
X27615492Y6433500D01*
X27826309Y6454264D01*
X28096808Y6536318D01*
X28346101Y6669568D01*
X28564608Y6848892D01*
X28743932Y7067399D01*
X28815000Y7200358D01*
X28886068Y7067399D01*
X29065392Y6848892D01*
X29283899Y6669568D01*
X29533192Y6536318D01*
X29803691Y6454264D01*
X30014508Y6433500D01*
X30155492Y6433500D01*
X30366309Y6454264D01*
X30636808Y6536318D01*
X30886101Y6669568D01*
X31104608Y6848892D01*
X31283932Y7067399D01*
X31355000Y7200358D01*
X31426068Y7067399D01*
X31605392Y6848892D01*
X31823899Y6669568D01*
X32073192Y6536318D01*
X32343691Y6454264D01*
X32554508Y6433500D01*
X32695492Y6433500D01*
X32906309Y6454264D01*
X33176808Y6536318D01*
X33426101Y6669568D01*
X33644608Y6848892D01*
X33823932Y7067399D01*
X33957182Y7316692D01*
X34039236Y7587191D01*
X34066943Y7868500D01*
X34039236Y8149809D01*
X33957182Y8420308D01*
X33823932Y8669601D01*
X33644608Y8888108D01*
X33426101Y9067432D01*
X33176808Y9200682D01*
X32906309Y9282736D01*
X32695492Y9303500D01*
X32554508Y9303500D01*
X32343691Y9282736D01*
X32073192Y9200682D01*
X31823899Y9067432D01*
X31605392Y8888108D01*
X31426068Y8669601D01*
X31355000Y8536642D01*
X31283932Y8669601D01*
X31104608Y8888108D01*
X30886101Y9067432D01*
X30636808Y9200682D01*
X30366309Y9282736D01*
X30155492Y9303500D01*
X30014508Y9303500D01*
X29803691Y9282736D01*
X29533192Y9200682D01*
X29283899Y9067432D01*
X29065392Y8888108D01*
X28886068Y8669601D01*
X28815000Y8536642D01*
X28743932Y8669601D01*
X28564608Y8888108D01*
X28346101Y9067432D01*
X28096808Y9200682D01*
X27826309Y9282736D01*
X27615492Y9303500D01*
X27474508Y9303500D01*
X27263691Y9282736D01*
X26993192Y9200682D01*
X26743899Y9067432D01*
X26525392Y8888108D01*
X26346068Y8669601D01*
X26275000Y8536642D01*
X26203932Y8669601D01*
X26024608Y8888108D01*
X25806101Y9067432D01*
X25556808Y9200682D01*
X25286309Y9282736D01*
X25075492Y9303500D01*
X24934508Y9303500D01*
X24723691Y9282736D01*
X24453192Y9200682D01*
X24203899Y9067432D01*
X23985392Y8888108D01*
X23806068Y8669601D01*
X23672818Y8420308D01*
X23590764Y8149809D01*
X23563057Y7868500D01*
X21931500Y7868500D01*
X21931500Y8136835D01*
X21876353Y8414074D01*
X21768180Y8675227D01*
X21611137Y8910259D01*
X21411259Y9110137D01*
X21176227Y9267180D01*
X20915074Y9375353D01*
X20637835Y9430500D01*
X20355165Y9430500D01*
X20077926Y9375353D01*
X19816773Y9267180D01*
X19581741Y9110137D01*
X19381863Y8910259D01*
X19224820Y8675227D01*
X19116647Y8414074D01*
X19061500Y8136835D01*
X11764523Y8136835D01*
X11750736Y8276809D01*
X11668682Y8547308D01*
X11535432Y8796601D01*
X11356108Y9015108D01*
X11137601Y9194432D01*
X10888308Y9327682D01*
X10617809Y9409736D01*
X10406992Y9430500D01*
X10266008Y9430500D01*
X10055191Y9409736D01*
X9784692Y9327682D01*
X9535399Y9194432D01*
X9316892Y9015108D01*
X9137568Y8796601D01*
X9004318Y8547308D01*
X8922264Y8276809D01*
X8894557Y7995500D01*
X1127000Y7995500D01*
X1127000Y13084911D01*
X1585500Y13084911D01*
X1585500Y12812089D01*
X1638725Y12544511D01*
X1743129Y12292457D01*
X1894701Y12065614D01*
X2087614Y11872701D01*
X2314457Y11721129D01*
X2417373Y11678500D01*
X2314457Y11635871D01*
X2087614Y11484299D01*
X1894701Y11291386D01*
X1743129Y11064543D01*
X1638725Y10812489D01*
X1585500Y10544911D01*
X1585500Y10272089D01*
X1638725Y10004511D01*
X1743129Y9752457D01*
X1894701Y9525614D01*
X2087614Y9332701D01*
X2314457Y9181129D01*
X2566511Y9076725D01*
X2834089Y9023500D01*
X3106911Y9023500D01*
X3374489Y9076725D01*
X3626543Y9181129D01*
X3853386Y9332701D01*
X4046299Y9525614D01*
X4092292Y9594447D01*
X4144896Y9496033D01*
X4349149Y9247149D01*
X4598033Y9042896D01*
X4881981Y8891122D01*
X5190084Y8797660D01*
X5430208Y8774010D01*
X5590792Y8774010D01*
X5830916Y8797660D01*
X6139019Y8891122D01*
X6422967Y9042896D01*
X6671851Y9247149D01*
X6876104Y9496033D01*
X7027878Y9779981D01*
X7121340Y10088084D01*
X7152898Y10408500D01*
X7121340Y10728916D01*
X7027878Y11037019D01*
X6876104Y11320967D01*
X6816939Y11393060D01*
X6864484Y11418473D01*
X6961175Y11497825D01*
X7040527Y11594516D01*
X7099492Y11704830D01*
X7122294Y11780000D01*
X10041428Y11780000D01*
X10041428Y10180000D01*
X10053688Y10055518D01*
X10089998Y9935820D01*
X10148963Y9825506D01*
X10228315Y9728815D01*
X10325006Y9649463D01*
X10435320Y9590498D01*
X10555018Y9554188D01*
X10679500Y9541928D01*
X12279500Y9541928D01*
X12403982Y9554188D01*
X12523680Y9590498D01*
X12633994Y9649463D01*
X12730685Y9728815D01*
X12810037Y9825506D01*
X12869002Y9935820D01*
X12905312Y10055518D01*
X12907081Y10073482D01*
X12999892Y9960392D01*
X13218399Y9781068D01*
X13467692Y9647818D01*
X13738191Y9565764D01*
X13949008Y9545000D01*
X14089992Y9545000D01*
X14300809Y9565764D01*
X14571308Y9647818D01*
X14820601Y9781068D01*
X15039108Y9960392D01*
X15218432Y10178899D01*
X15289500Y10311858D01*
X15360568Y10178899D01*
X15539892Y9960392D01*
X15758399Y9781068D01*
X16007692Y9647818D01*
X16278191Y9565764D01*
X16489008Y9545000D01*
X16629992Y9545000D01*
X16840809Y9565764D01*
X17111308Y9647818D01*
X17360601Y9781068D01*
X17579108Y9960392D01*
X17758432Y10178899D01*
X17832079Y10316682D01*
X17947115Y10124869D01*
X18136086Y9916481D01*
X18362080Y9748963D01*
X18616413Y9628754D01*
X18750461Y9588096D01*
X18972500Y9710085D01*
X18972500Y10853000D01*
X19226500Y10853000D01*
X19226500Y9710085D01*
X19448539Y9588096D01*
X19582587Y9628754D01*
X19836920Y9748963D01*
X20062914Y9916481D01*
X20251885Y10124869D01*
X20396570Y10366119D01*
X20491409Y10630960D01*
X20370124Y10853000D01*
X19226500Y10853000D01*
X18972500Y10853000D01*
X18952500Y10853000D01*
X18952500Y11107000D01*
X18972500Y11107000D01*
X18972500Y12249915D01*
X19226500Y12249915D01*
X19226500Y11107000D01*
X20370124Y11107000D01*
X20491409Y11329040D01*
X20396570Y11593881D01*
X20251885Y11835131D01*
X20062914Y12043519D01*
X19936350Y12137335D01*
X36079500Y12137335D01*
X36079500Y11854665D01*
X36134647Y11577426D01*
X36242820Y11316273D01*
X36399863Y11081241D01*
X36599741Y10881363D01*
X36834773Y10724320D01*
X37095926Y10616147D01*
X37373165Y10561000D01*
X37655835Y10561000D01*
X37933074Y10616147D01*
X38194227Y10724320D01*
X38429259Y10881363D01*
X38629137Y11081241D01*
X38786180Y11316273D01*
X38894353Y11577426D01*
X38949500Y11854665D01*
X38949500Y12137335D01*
X38894353Y12414574D01*
X38786180Y12675727D01*
X38629137Y12910759D01*
X38429259Y13110637D01*
X38194227Y13267680D01*
X37933074Y13375853D01*
X37655835Y13431000D01*
X37373165Y13431000D01*
X37095926Y13375853D01*
X36834773Y13267680D01*
X36599741Y13110637D01*
X36399863Y12910759D01*
X36242820Y12675727D01*
X36134647Y12414574D01*
X36079500Y12137335D01*
X19936350Y12137335D01*
X19836920Y12211037D01*
X19582587Y12331246D01*
X19448539Y12371904D01*
X19226500Y12249915D01*
X18972500Y12249915D01*
X18750461Y12371904D01*
X18616413Y12331246D01*
X18362080Y12211037D01*
X18136086Y12043519D01*
X17947115Y11835131D01*
X17832079Y11643318D01*
X17758432Y11781101D01*
X17579108Y11999608D01*
X17360601Y12178932D01*
X17111308Y12312182D01*
X16840809Y12394236D01*
X16629992Y12415000D01*
X16489008Y12415000D01*
X16278191Y12394236D01*
X16007692Y12312182D01*
X15758399Y12178932D01*
X15539892Y11999608D01*
X15360568Y11781101D01*
X15289500Y11648142D01*
X15218432Y11781101D01*
X15039108Y11999608D01*
X14820601Y12178932D01*
X14571308Y12312182D01*
X14300809Y12394236D01*
X14089992Y12415000D01*
X13949008Y12415000D01*
X13738191Y12394236D01*
X13467692Y12312182D01*
X13218399Y12178932D01*
X12999892Y11999608D01*
X12907081Y11886518D01*
X12905312Y11904482D01*
X12869002Y12024180D01*
X12810037Y12134494D01*
X12730685Y12231185D01*
X12633994Y12310537D01*
X12523680Y12369502D01*
X12403982Y12405812D01*
X12279500Y12418072D01*
X10679500Y12418072D01*
X10555018Y12405812D01*
X10435320Y12369502D01*
X10325006Y12310537D01*
X10228315Y12231185D01*
X10148963Y12134494D01*
X10089998Y12024180D01*
X10053688Y11904482D01*
X10041428Y11780000D01*
X7122294Y11780000D01*
X7135802Y11824528D01*
X7148062Y11949010D01*
X7148062Y13947990D01*
X7135802Y14072472D01*
X7099492Y14192170D01*
X7040527Y14302484D01*
X6961175Y14399175D01*
X6864484Y14478527D01*
X6754170Y14537492D01*
X6634472Y14573802D01*
X6509990Y14586062D01*
X4511010Y14586062D01*
X4386528Y14573802D01*
X4266830Y14537492D01*
X4156516Y14478527D01*
X4059825Y14399175D01*
X3980473Y14302484D01*
X3921508Y14192170D01*
X3885198Y14072472D01*
X3878027Y13999658D01*
X3853386Y14024299D01*
X3626543Y14175871D01*
X3374489Y14280275D01*
X3106911Y14333500D01*
X2834089Y14333500D01*
X2566511Y14280275D01*
X2314457Y14175871D01*
X2087614Y14024299D01*
X1894701Y13831386D01*
X1743129Y13604543D01*
X1638725Y13352489D01*
X1585500Y13084911D01*
X1127000Y13084911D01*
X1127000Y15379346D01*
X1216899Y15305568D01*
X1466192Y15172318D01*
X1736691Y15090264D01*
X1947508Y15069500D01*
X2088492Y15069500D01*
X2299309Y15090264D01*
X2569808Y15172318D01*
X2819101Y15305568D01*
X3037608Y15484892D01*
X3216932Y15703399D01*
X3350182Y15952692D01*
X3432236Y16223191D01*
X3459943Y16504500D01*
X4576557Y16504500D01*
X4604264Y16223191D01*
X4686318Y15952692D01*
X4819568Y15703399D01*
X4998892Y15484892D01*
X5217399Y15305568D01*
X5466692Y15172318D01*
X5737191Y15090264D01*
X5948008Y15069500D01*
X6088992Y15069500D01*
X6299809Y15090264D01*
X6461988Y15139460D01*
X23613091Y15139460D01*
X23707930Y14874619D01*
X23852615Y14633369D01*
X24041586Y14424981D01*
X24267580Y14257463D01*
X24521913Y14137254D01*
X24655961Y14096596D01*
X24878000Y14218585D01*
X24878000Y15361500D01*
X23734376Y15361500D01*
X23613091Y15139460D01*
X6461988Y15139460D01*
X6570308Y15172318D01*
X6819601Y15305568D01*
X7038108Y15484892D01*
X7217432Y15703399D01*
X7289131Y15837540D01*
X23613091Y15837540D01*
X23734376Y15615500D01*
X24878000Y15615500D01*
X24878000Y16758415D01*
X25132000Y16758415D01*
X25132000Y15615500D01*
X25152000Y15615500D01*
X25152000Y15361500D01*
X25132000Y15361500D01*
X25132000Y14218585D01*
X25354039Y14096596D01*
X25488087Y14137254D01*
X25742420Y14257463D01*
X25968414Y14424981D01*
X26157385Y14633369D01*
X26272421Y14825182D01*
X26346068Y14687399D01*
X26525392Y14468892D01*
X26743899Y14289568D01*
X26993192Y14156318D01*
X27263691Y14074264D01*
X27474508Y14053500D01*
X27615492Y14053500D01*
X27826309Y14074264D01*
X28096808Y14156318D01*
X28346101Y14289568D01*
X28564608Y14468892D01*
X28743932Y14687399D01*
X28815000Y14820358D01*
X28886068Y14687399D01*
X29065392Y14468892D01*
X29283899Y14289568D01*
X29533192Y14156318D01*
X29803691Y14074264D01*
X30014508Y14053500D01*
X30155492Y14053500D01*
X30366309Y14074264D01*
X30636808Y14156318D01*
X30886101Y14289568D01*
X31104608Y14468892D01*
X31197419Y14581982D01*
X31199188Y14564018D01*
X31235498Y14444320D01*
X31294463Y14334006D01*
X31373815Y14237315D01*
X31470506Y14157963D01*
X31580820Y14098998D01*
X31700518Y14062688D01*
X31825000Y14050428D01*
X33425000Y14050428D01*
X33549482Y14062688D01*
X33669180Y14098998D01*
X33779494Y14157963D01*
X33876185Y14237315D01*
X33955537Y14334006D01*
X34014502Y14444320D01*
X34050812Y14564018D01*
X34063072Y14688500D01*
X34063072Y15488500D01*
X37546315Y15488500D01*
X37574987Y15197389D01*
X37659901Y14917466D01*
X37797794Y14659486D01*
X37983366Y14433366D01*
X38209486Y14247794D01*
X38467466Y14109901D01*
X38747389Y14024987D01*
X38965550Y14003500D01*
X39111450Y14003500D01*
X39329611Y14024987D01*
X39609534Y14109901D01*
X39867514Y14247794D01*
X40093634Y14433366D01*
X40279206Y14659486D01*
X40417099Y14917466D01*
X40502013Y15197389D01*
X40530685Y15488500D01*
X40502013Y15779611D01*
X40417099Y16059534D01*
X40279206Y16317514D01*
X40093634Y16543634D01*
X39867514Y16729206D01*
X39802977Y16763701D01*
X39919855Y16833322D01*
X40136088Y17028231D01*
X40310141Y17261580D01*
X40435325Y17524401D01*
X40479976Y17671610D01*
X40358655Y17901500D01*
X39165500Y17901500D01*
X39165500Y17881500D01*
X38911500Y17881500D01*
X38911500Y17901500D01*
X37718345Y17901500D01*
X37597024Y17671610D01*
X37641675Y17524401D01*
X37766859Y17261580D01*
X37940912Y17028231D01*
X38157145Y16833322D01*
X38274023Y16763701D01*
X38209486Y16729206D01*
X37983366Y16543634D01*
X37797794Y16317514D01*
X37659901Y16059534D01*
X37574987Y15779611D01*
X37546315Y15488500D01*
X34063072Y15488500D01*
X34063072Y16288500D01*
X34050812Y16412982D01*
X34014502Y16532680D01*
X33955537Y16642994D01*
X33876185Y16739685D01*
X33779494Y16819037D01*
X33669180Y16878002D01*
X33549482Y16914312D01*
X33425000Y16926572D01*
X31825000Y16926572D01*
X31700518Y16914312D01*
X31580820Y16878002D01*
X31470506Y16819037D01*
X31373815Y16739685D01*
X31294463Y16642994D01*
X31235498Y16532680D01*
X31199188Y16412982D01*
X31197419Y16395018D01*
X31104608Y16508108D01*
X30886101Y16687432D01*
X30636808Y16820682D01*
X30366309Y16902736D01*
X30155492Y16923500D01*
X30014508Y16923500D01*
X29803691Y16902736D01*
X29533192Y16820682D01*
X29283899Y16687432D01*
X29065392Y16508108D01*
X28886068Y16289601D01*
X28815000Y16156642D01*
X28743932Y16289601D01*
X28564608Y16508108D01*
X28346101Y16687432D01*
X28096808Y16820682D01*
X27826309Y16902736D01*
X27615492Y16923500D01*
X27474508Y16923500D01*
X27263691Y16902736D01*
X26993192Y16820682D01*
X26743899Y16687432D01*
X26525392Y16508108D01*
X26346068Y16289601D01*
X26272421Y16151818D01*
X26157385Y16343631D01*
X25968414Y16552019D01*
X25742420Y16719537D01*
X25488087Y16839746D01*
X25354039Y16880404D01*
X25132000Y16758415D01*
X24878000Y16758415D01*
X24655961Y16880404D01*
X24521913Y16839746D01*
X24267580Y16719537D01*
X24041586Y16552019D01*
X23852615Y16343631D01*
X23707930Y16102381D01*
X23613091Y15837540D01*
X7289131Y15837540D01*
X7350682Y15952692D01*
X7432736Y16223191D01*
X7460443Y16504500D01*
X7432736Y16785809D01*
X7350682Y17056308D01*
X7217432Y17305601D01*
X7038108Y17524108D01*
X6819601Y17703432D01*
X6570308Y17836682D01*
X6299809Y17918736D01*
X6088992Y17939500D01*
X5948008Y17939500D01*
X5737191Y17918736D01*
X5466692Y17836682D01*
X5217399Y17703432D01*
X4998892Y17524108D01*
X4819568Y17305601D01*
X4686318Y17056308D01*
X4604264Y16785809D01*
X4576557Y16504500D01*
X3459943Y16504500D01*
X3432236Y16785809D01*
X3350182Y17056308D01*
X3216932Y17305601D01*
X3037608Y17524108D01*
X2819101Y17703432D01*
X2569808Y17836682D01*
X2299309Y17918736D01*
X2088492Y17939500D01*
X1947508Y17939500D01*
X1736691Y17918736D01*
X1466192Y17836682D01*
X1216899Y17703432D01*
X1127000Y17629654D01*
X1127000Y18600000D01*
X10037557Y18600000D01*
X10065264Y18318691D01*
X10147318Y18048192D01*
X10280568Y17798899D01*
X10459892Y17580392D01*
X10678399Y17401068D01*
X10927692Y17267818D01*
X11198191Y17185764D01*
X11409008Y17165000D01*
X11549992Y17165000D01*
X11760809Y17185764D01*
X12031308Y17267818D01*
X12280601Y17401068D01*
X12499108Y17580392D01*
X12678432Y17798899D01*
X12749500Y17931858D01*
X12820568Y17798899D01*
X12999892Y17580392D01*
X13218399Y17401068D01*
X13467692Y17267818D01*
X13738191Y17185764D01*
X13949008Y17165000D01*
X14089992Y17165000D01*
X14300809Y17185764D01*
X14571308Y17267818D01*
X14820601Y17401068D01*
X15039108Y17580392D01*
X15218432Y17798899D01*
X15289500Y17931858D01*
X15360568Y17798899D01*
X15539892Y17580392D01*
X15758399Y17401068D01*
X16007692Y17267818D01*
X16278191Y17185764D01*
X16489008Y17165000D01*
X16629992Y17165000D01*
X16840809Y17185764D01*
X17111308Y17267818D01*
X17360601Y17401068D01*
X17579108Y17580392D01*
X17758432Y17798899D01*
X17829500Y17931858D01*
X17900568Y17798899D01*
X18079892Y17580392D01*
X18298399Y17401068D01*
X18547692Y17267818D01*
X18818191Y17185764D01*
X19029008Y17165000D01*
X19169992Y17165000D01*
X19380809Y17185764D01*
X19651308Y17267818D01*
X19900601Y17401068D01*
X20119108Y17580392D01*
X20298432Y17798899D01*
X20431682Y18048192D01*
X20513736Y18318691D01*
X20535188Y18536500D01*
X22039057Y18536500D01*
X22066764Y18255191D01*
X22148818Y17984692D01*
X22282068Y17735399D01*
X22461392Y17516892D01*
X22679899Y17337568D01*
X22929192Y17204318D01*
X23199691Y17122264D01*
X23410508Y17101500D01*
X23551492Y17101500D01*
X23762309Y17122264D01*
X24032808Y17204318D01*
X24282101Y17337568D01*
X24500608Y17516892D01*
X24679932Y17735399D01*
X24813182Y17984692D01*
X24895236Y18255191D01*
X24922943Y18536500D01*
X24909023Y18677835D01*
X32206000Y18677835D01*
X32206000Y18395165D01*
X32261147Y18117926D01*
X32369320Y17856773D01*
X32526363Y17621741D01*
X32726241Y17421863D01*
X32961273Y17264820D01*
X33222426Y17156647D01*
X33499665Y17101500D01*
X33782335Y17101500D01*
X34059574Y17156647D01*
X34320727Y17264820D01*
X34555759Y17421863D01*
X34755637Y17621741D01*
X34912680Y17856773D01*
X35020853Y18117926D01*
X35076000Y18395165D01*
X35076000Y18677835D01*
X35020853Y18955074D01*
X34912680Y19216227D01*
X34755637Y19451259D01*
X34555759Y19651137D01*
X34320727Y19808180D01*
X34059574Y19916353D01*
X33782335Y19971500D01*
X33499665Y19971500D01*
X33222426Y19916353D01*
X32961273Y19808180D01*
X32726241Y19651137D01*
X32526363Y19451259D01*
X32369320Y19216227D01*
X32261147Y18955074D01*
X32206000Y18677835D01*
X24909023Y18677835D01*
X24895236Y18817809D01*
X24813182Y19088308D01*
X24679932Y19337601D01*
X24500608Y19556108D01*
X24282101Y19735432D01*
X24032808Y19868682D01*
X23762309Y19950736D01*
X23551492Y19971500D01*
X23410508Y19971500D01*
X23199691Y19950736D01*
X22929192Y19868682D01*
X22679899Y19735432D01*
X22461392Y19556108D01*
X22282068Y19337601D01*
X22148818Y19088308D01*
X22066764Y18817809D01*
X22039057Y18536500D01*
X20535188Y18536500D01*
X20541443Y18600000D01*
X20513736Y18881309D01*
X20431682Y19151808D01*
X20298432Y19401101D01*
X20119108Y19619608D01*
X19900601Y19798932D01*
X19651308Y19932182D01*
X19380809Y20014236D01*
X19169992Y20035000D01*
X19029008Y20035000D01*
X18818191Y20014236D01*
X18547692Y19932182D01*
X18298399Y19798932D01*
X18079892Y19619608D01*
X17900568Y19401101D01*
X17829500Y19268142D01*
X17758432Y19401101D01*
X17579108Y19619608D01*
X17360601Y19798932D01*
X17111308Y19932182D01*
X16840809Y20014236D01*
X16629992Y20035000D01*
X16489008Y20035000D01*
X16278191Y20014236D01*
X16007692Y19932182D01*
X15758399Y19798932D01*
X15539892Y19619608D01*
X15360568Y19401101D01*
X15289500Y19268142D01*
X15218432Y19401101D01*
X15039108Y19619608D01*
X14820601Y19798932D01*
X14571308Y19932182D01*
X14300809Y20014236D01*
X14089992Y20035000D01*
X13949008Y20035000D01*
X13738191Y20014236D01*
X13467692Y19932182D01*
X13218399Y19798932D01*
X12999892Y19619608D01*
X12820568Y19401101D01*
X12749500Y19268142D01*
X12678432Y19401101D01*
X12499108Y19619608D01*
X12280601Y19798932D01*
X12031308Y19932182D01*
X11760809Y20014236D01*
X11549992Y20035000D01*
X11409008Y20035000D01*
X11198191Y20014236D01*
X10927692Y19932182D01*
X10678399Y19798932D01*
X10459892Y19619608D01*
X10280568Y19401101D01*
X10147318Y19151808D01*
X10065264Y18881309D01*
X10037557Y18600000D01*
X1127000Y18600000D01*
X1127000Y21775000D01*
X8069057Y21775000D01*
X8096764Y21493691D01*
X8178818Y21223192D01*
X8312068Y20973899D01*
X8491392Y20755392D01*
X8709899Y20576068D01*
X8959192Y20442818D01*
X9229691Y20360764D01*
X9440508Y20340000D01*
X9581492Y20340000D01*
X9792309Y20360764D01*
X10062808Y20442818D01*
X10312101Y20576068D01*
X10530608Y20755392D01*
X10709932Y20973899D01*
X10843182Y21223192D01*
X10925236Y21493691D01*
X10952943Y21775000D01*
X10939023Y21916335D01*
X18236000Y21916335D01*
X18236000Y21633665D01*
X18291147Y21356426D01*
X18399320Y21095273D01*
X18556363Y20860241D01*
X18756241Y20660363D01*
X18991273Y20503320D01*
X19252426Y20395147D01*
X19529665Y20340000D01*
X19812335Y20340000D01*
X20089574Y20395147D01*
X20350727Y20503320D01*
X20585759Y20660363D01*
X20785637Y20860241D01*
X20942680Y21095273D01*
X21050853Y21356426D01*
X21106000Y21633665D01*
X21106000Y21775000D01*
X22039057Y21775000D01*
X22066764Y21493691D01*
X22148818Y21223192D01*
X22282068Y20973899D01*
X22461392Y20755392D01*
X22679899Y20576068D01*
X22929192Y20442818D01*
X23199691Y20360764D01*
X23410508Y20340000D01*
X23551492Y20340000D01*
X23762309Y20360764D01*
X24032808Y20442818D01*
X24282101Y20576068D01*
X24500608Y20755392D01*
X24679932Y20973899D01*
X24813182Y21223192D01*
X24895236Y21493691D01*
X24922943Y21775000D01*
X24909023Y21916335D01*
X32206000Y21916335D01*
X32206000Y21633665D01*
X32261147Y21356426D01*
X32369320Y21095273D01*
X32526363Y20860241D01*
X32726241Y20660363D01*
X32961273Y20503320D01*
X33222426Y20395147D01*
X33499665Y20340000D01*
X33782335Y20340000D01*
X34059574Y20395147D01*
X34320727Y20503320D01*
X34555759Y20660363D01*
X34755637Y20860241D01*
X34912680Y21095273D01*
X35020853Y21356426D01*
X35076000Y21633665D01*
X35076000Y21916335D01*
X35020853Y22193574D01*
X34912680Y22454727D01*
X34755637Y22689759D01*
X34555759Y22889637D01*
X34320727Y23046680D01*
X34059574Y23154853D01*
X33782335Y23210000D01*
X33499665Y23210000D01*
X33222426Y23154853D01*
X32961273Y23046680D01*
X32726241Y22889637D01*
X32526363Y22689759D01*
X32369320Y22454727D01*
X32261147Y22193574D01*
X32206000Y21916335D01*
X24909023Y21916335D01*
X24895236Y22056309D01*
X24813182Y22326808D01*
X24679932Y22576101D01*
X24500608Y22794608D01*
X24282101Y22973932D01*
X24032808Y23107182D01*
X23762309Y23189236D01*
X23551492Y23210000D01*
X23410508Y23210000D01*
X23199691Y23189236D01*
X22929192Y23107182D01*
X22679899Y22973932D01*
X22461392Y22794608D01*
X22282068Y22576101D01*
X22148818Y22326808D01*
X22066764Y22056309D01*
X22039057Y21775000D01*
X21106000Y21775000D01*
X21106000Y21916335D01*
X21050853Y22193574D01*
X20942680Y22454727D01*
X20785637Y22689759D01*
X20585759Y22889637D01*
X20350727Y23046680D01*
X20089574Y23154853D01*
X19812335Y23210000D01*
X19529665Y23210000D01*
X19252426Y23154853D01*
X18991273Y23046680D01*
X18756241Y22889637D01*
X18556363Y22689759D01*
X18399320Y22454727D01*
X18291147Y22193574D01*
X18236000Y21916335D01*
X10939023Y21916335D01*
X10925236Y22056309D01*
X10843182Y22326808D01*
X10709932Y22576101D01*
X10530608Y22794608D01*
X10312101Y22973932D01*
X10062808Y23107182D01*
X9792309Y23189236D01*
X9581492Y23210000D01*
X9440508Y23210000D01*
X9229691Y23189236D01*
X8959192Y23107182D01*
X8709899Y22973932D01*
X8491392Y22794608D01*
X8312068Y22576101D01*
X8178818Y22326808D01*
X8096764Y22056309D01*
X8069057Y21775000D01*
X1127000Y21775000D01*
X1127000Y25533988D01*
X1338273Y25392820D01*
X1599426Y25284647D01*
X1876665Y25229500D01*
X2159335Y25229500D01*
X2436574Y25284647D01*
X2697727Y25392820D01*
X2932759Y25549863D01*
X3054694Y25671798D01*
X5205403Y25671798D01*
X5276986Y25427829D01*
X5532496Y25306929D01*
X5806684Y25238200D01*
X6089012Y25224283D01*
X6368630Y25265713D01*
X6634792Y25360897D01*
X6760014Y25427829D01*
X6831597Y25671798D01*
X6018500Y26484895D01*
X5205403Y25671798D01*
X3054694Y25671798D01*
X3132637Y25749741D01*
X3289680Y25984773D01*
X3397853Y26245926D01*
X3453000Y26523165D01*
X3453000Y26593988D01*
X4578283Y26593988D01*
X4619713Y26314370D01*
X4714897Y26048208D01*
X4781829Y25922986D01*
X5025798Y25851403D01*
X5838895Y26664500D01*
X6198105Y26664500D01*
X7011202Y25851403D01*
X7255171Y25922986D01*
X7376071Y26178496D01*
X7444800Y26452684D01*
X7458717Y26735012D01*
X7417287Y27014630D01*
X7322103Y27280792D01*
X7255171Y27406014D01*
X7011202Y27477597D01*
X6198105Y26664500D01*
X5838895Y26664500D01*
X5025798Y27477597D01*
X4781829Y27406014D01*
X4660929Y27150504D01*
X4592200Y26876316D01*
X4578283Y26593988D01*
X3453000Y26593988D01*
X3453000Y26805835D01*
X3397853Y27083074D01*
X3289680Y27344227D01*
X3132637Y27579259D01*
X2932759Y27779137D01*
X2792283Y27873000D01*
X5268720Y27873000D01*
X5205403Y27657202D01*
X5205403Y27657202D01*
G37*
X5205403Y27657202D02*
X6018500Y26844105D01*
X6831597Y27657202D01*
X6768280Y27873000D01*
X10856084Y27873000D01*
X10734636Y27791851D01*
X10458149Y27515364D01*
X10240915Y27190250D01*
X10091282Y26829003D01*
X10015000Y26445505D01*
X10015000Y26054495D01*
X10091282Y25670997D01*
X10240915Y25309750D01*
X10458149Y24984636D01*
X10734636Y24708149D01*
X11059750Y24490915D01*
X11420997Y24341282D01*
X11804495Y24265000D01*
X12195505Y24265000D01*
X12579003Y24341282D01*
X12940250Y24490915D01*
X13265364Y24708149D01*
X13541851Y24984636D01*
X13607880Y25083456D01*
X16093500Y25083456D01*
X16093500Y24816544D01*
X16145572Y24554761D01*
X16247715Y24308167D01*
X16396003Y24086238D01*
X16584738Y23897503D01*
X16806667Y23749215D01*
X17053261Y23647072D01*
X17315044Y23595000D01*
X17581956Y23595000D01*
X17843739Y23647072D01*
X18090333Y23749215D01*
X18312262Y23897503D01*
X18500997Y24086238D01*
X18649285Y24308167D01*
X18751428Y24554761D01*
X18803500Y24816544D01*
X18803500Y25083456D01*
X21173500Y25083456D01*
X21173500Y24816544D01*
X21225572Y24554761D01*
X21327715Y24308167D01*
X21476003Y24086238D01*
X21664738Y23897503D01*
X21886667Y23749215D01*
X22133261Y23647072D01*
X22395044Y23595000D01*
X22661956Y23595000D01*
X22923739Y23647072D01*
X23170333Y23749215D01*
X23392262Y23897503D01*
X23580997Y24086238D01*
X23729285Y24308167D01*
X23831428Y24554761D01*
X23883500Y24816544D01*
X23883500Y25083456D01*
X23831428Y25345239D01*
X23729285Y25591833D01*
X23580997Y25813762D01*
X23392262Y26002497D01*
X23170333Y26150785D01*
X22923739Y26252928D01*
X22661956Y26305000D01*
X22395044Y26305000D01*
X22133261Y26252928D01*
X21886667Y26150785D01*
X21664738Y26002497D01*
X21476003Y25813762D01*
X21327715Y25591833D01*
X21225572Y25345239D01*
X21173500Y25083456D01*
X18803500Y25083456D01*
X18751428Y25345239D01*
X18649285Y25591833D01*
X18500997Y25813762D01*
X18312262Y26002497D01*
X18090333Y26150785D01*
X17843739Y26252928D01*
X17581956Y26305000D01*
X17315044Y26305000D01*
X17053261Y26252928D01*
X16806667Y26150785D01*
X16584738Y26002497D01*
X16396003Y25813762D01*
X16247715Y25591833D01*
X16145572Y25345239D01*
X16093500Y25083456D01*
X13607880Y25083456D01*
X13759085Y25309750D01*
X13908718Y25670997D01*
X13985000Y26054495D01*
X13985000Y26445505D01*
X13908718Y26829003D01*
X13759085Y27190250D01*
X13541851Y27515364D01*
X13265364Y27791851D01*
X13143916Y27873000D01*
X18683138Y27873000D01*
X18633500Y27623456D01*
X18633500Y27356544D01*
X18685572Y27094761D01*
X18787715Y26848167D01*
X18936003Y26626238D01*
X19124738Y26437503D01*
X19346667Y26289215D01*
X19593261Y26187072D01*
X19855044Y26135000D01*
X20121956Y26135000D01*
X20383739Y26187072D01*
X20630333Y26289215D01*
X20852262Y26437503D01*
X21040997Y26626238D01*
X21189285Y26848167D01*
X21291428Y27094761D01*
X21343500Y27356544D01*
X21343500Y27623456D01*
X21293862Y27873000D01*
X36873000Y27873000D01*
X36873000Y22000000D01*
X36875440Y21975224D01*
X36882667Y21951399D01*
X36894403Y21929443D01*
X36910197Y21910197D01*
X36929443Y21894403D01*
X36951399Y21882667D01*
X36975224Y21875440D01*
X37000000Y21873000D01*
X37741354Y21873000D01*
X37737315Y21869685D01*
X37657963Y21772994D01*
X37598998Y21662680D01*
X37562688Y21542982D01*
X37550428Y21418500D01*
X37550428Y19718500D01*
X37562688Y19594018D01*
X37598998Y19474320D01*
X37657963Y19364006D01*
X37737315Y19267315D01*
X37834006Y19187963D01*
X37944320Y19128998D01*
X38024966Y19104534D01*
X37940912Y19028769D01*
X37766859Y18795420D01*
X37641675Y18532599D01*
X37597024Y18385390D01*
X37718345Y18155500D01*
X38911500Y18155500D01*
X38911500Y18175500D01*
X39165500Y18175500D01*
X39165500Y18155500D01*
X40358655Y18155500D01*
X40479976Y18385390D01*
X40435325Y18532599D01*
X40310141Y18795420D01*
X40136088Y19028769D01*
X40052034Y19104534D01*
X40132680Y19128998D01*
X40242994Y19187963D01*
X40339685Y19267315D01*
X40419037Y19364006D01*
X40478002Y19474320D01*
X40514312Y19594018D01*
X40526572Y19718500D01*
X40526572Y21418500D01*
X40514312Y21542982D01*
X40478002Y21662680D01*
X40419037Y21772994D01*
X40339685Y21869685D01*
X40335646Y21873000D01*
X42873000Y21873000D01*
X42873000Y3626000D01*
X38588214Y3626000D01*
X38588214Y2777886D01*
X38477914Y2899519D01*
X38251920Y3067037D01*
X37997587Y3187246D01*
X37863539Y3227904D01*
X37641500Y3105915D01*
X37641500Y1963000D01*
X37661500Y1963000D01*
X37661500Y1709000D01*
X37641500Y1709000D01*
X37641500Y1689000D01*
X37387500Y1689000D01*
X37387500Y1709000D01*
X36243876Y1709000D01*
X36122591Y1486960D01*
X36217430Y1222119D01*
X36274476Y1127000D01*
X33143916Y1127000D01*
X33265364Y1208149D01*
X33541851Y1484636D01*
X33759085Y1809750D01*
X33908718Y2170997D01*
X33911511Y2185040D01*
X36122591Y2185040D01*
X36243876Y1963000D01*
X37387500Y1963000D01*
X37387500Y3105915D01*
X37165461Y3227904D01*
X37031413Y3187246D01*
X36777080Y3067037D01*
X36551086Y2899519D01*
X36362115Y2691131D01*
X36217430Y2449881D01*
X36122591Y2185040D01*
X33911511Y2185040D01*
X33985000Y2554495D01*
X33985000Y2945505D01*
X33908718Y3329003D01*
X33759085Y3690250D01*
X33541851Y4015364D01*
X33265364Y4291851D01*
X32940250Y4509085D01*
X32579003Y4658718D01*
X32195505Y4735000D01*
X31804495Y4735000D01*
X31420997Y4658718D01*
X31059750Y4509085D01*
X30734636Y4291851D01*
X30458149Y4015364D01*
X30240915Y3690250D01*
X30091282Y3329003D01*
X30015000Y2945505D01*
X30015000Y2554495D01*
X30091282Y2170997D01*
X30240915Y1809750D01*
X30458149Y1484636D01*
X30734636Y1208149D01*
X30856084Y1127000D01*
X26025885Y1127000D01*
X26218333Y1206715D01*
X26440262Y1355003D01*
X26628997Y1543738D01*
X26777285Y1765667D01*
X26879428Y2012261D01*
X26931500Y2274044D01*
X26931500Y2540956D01*
X26879428Y2802739D01*
X26777285Y3049333D01*
X26628997Y3271262D01*
X26440262Y3459997D01*
X26218333Y3608285D01*
X25971739Y3710428D01*
X25709956Y3762500D01*
X25443044Y3762500D01*
X25181261Y3710428D01*
X24934667Y3608285D01*
X24712738Y3459997D01*
X24524003Y3271262D01*
X24375715Y3049333D01*
X24273572Y2802739D01*
X24221500Y2540956D01*
X24221500Y2274044D01*
X24273572Y2012261D01*
X24375715Y1765667D01*
X24524003Y1543738D01*
X24712738Y1355003D01*
X24934667Y1206715D01*
X25127115Y1127000D01*
X20945885Y1127000D01*
X21138333Y1206715D01*
X21360262Y1355003D01*
X21548997Y1543738D01*
X21697285Y1765667D01*
X21799428Y2012261D01*
X21851500Y2274044D01*
X21851500Y2540956D01*
X21799428Y2802739D01*
X21697285Y3049333D01*
X21548997Y3271262D01*
X21360262Y3459997D01*
X21138333Y3608285D01*
X20891739Y3710428D01*
X20629956Y3762500D01*
X20363044Y3762500D01*
X20101261Y3710428D01*
X19854667Y3608285D01*
X19632738Y3459997D01*
X19444003Y3271262D01*
X19295715Y3049333D01*
X19193572Y2802739D01*
X19141500Y2540956D01*
X19141500Y2274044D01*
X19193572Y2012261D01*
X19295715Y1765667D01*
X19444003Y1543738D01*
X19632738Y1355003D01*
X19854667Y1206715D01*
X20047115Y1127000D01*
X13452885Y1127000D01*
X13645333Y1206715D01*
X13867262Y1355003D01*
X14055997Y1543738D01*
X14204285Y1765667D01*
X14306428Y2012261D01*
X14358500Y2274044D01*
X14358500Y2540956D01*
X14306428Y2802739D01*
X14204285Y3049333D01*
X14055997Y3271262D01*
X13867262Y3459997D01*
X13645333Y3608285D01*
X13398739Y3710428D01*
X13136956Y3762500D01*
X12870044Y3762500D01*
X12608261Y3710428D01*
X12361667Y3608285D01*
X12139738Y3459997D01*
X11951003Y3271262D01*
X11802715Y3049333D01*
X11700572Y2802739D01*
X11648500Y2540956D01*
X11648500Y2274044D01*
X11700572Y2012261D01*
X11802715Y1765667D01*
X11951003Y1543738D01*
X12139738Y1355003D01*
X12361667Y1206715D01*
X12554115Y1127000D01*
X7127000Y1127000D01*
X7127000Y5080956D01*
X9108500Y5080956D01*
X9108500Y4814044D01*
X9160572Y4552261D01*
X9262715Y4305667D01*
X9411003Y4083738D01*
X9599738Y3895003D01*
X9821667Y3746715D01*
X10068261Y3644572D01*
X10330044Y3592500D01*
X10596956Y3592500D01*
X10858739Y3644572D01*
X11105333Y3746715D01*
X11327262Y3895003D01*
X11515997Y4083738D01*
X11664285Y4305667D01*
X11766428Y4552261D01*
X11818500Y4814044D01*
X11818500Y5080956D01*
X14188500Y5080956D01*
X14188500Y4814044D01*
X14240572Y4552261D01*
X14342715Y4305667D01*
X14491003Y4083738D01*
X14679738Y3895003D01*
X14901667Y3746715D01*
X15148261Y3644572D01*
X15410044Y3592500D01*
X15676956Y3592500D01*
X15938739Y3644572D01*
X16185333Y3746715D01*
X16407262Y3895003D01*
X16595997Y4083738D01*
X16744285Y4305667D01*
X16846428Y4552261D01*
X16898500Y4814044D01*
X16898500Y5080956D01*
X21681500Y5080956D01*
X21681500Y4814044D01*
X21733572Y4552261D01*
X21835715Y4305667D01*
X21984003Y4083738D01*
X22172738Y3895003D01*
X22394667Y3746715D01*
X22641261Y3644572D01*
X22903044Y3592500D01*
X23169956Y3592500D01*
X23431739Y3644572D01*
X23678333Y3746715D01*
X23900262Y3895003D01*
X24088997Y4083738D01*
X24237285Y4305667D01*
X24339428Y4552261D01*
X24391500Y4814044D01*
X24391500Y5080956D01*
X24339428Y5342739D01*
X24237285Y5589333D01*
X24088997Y5811262D01*
X23900262Y5999997D01*
X23678333Y6148285D01*
X23431739Y6250428D01*
X23169956Y6302500D01*
X22903044Y6302500D01*
X22641261Y6250428D01*
X22394667Y6148285D01*
X22172738Y5999997D01*
X21984003Y5811262D01*
X21835715Y5589333D01*
X21733572Y5342739D01*
X21681500Y5080956D01*
X16898500Y5080956D01*
X16846428Y5342739D01*
X16744285Y5589333D01*
X16595997Y5811262D01*
X16407262Y5999997D01*
X16185333Y6148285D01*
X15938739Y6250428D01*
X15676956Y6302500D01*
X15410044Y6302500D01*
X15148261Y6250428D01*
X14901667Y6148285D01*
X14679738Y5999997D01*
X14491003Y5811262D01*
X14342715Y5589333D01*
X14240572Y5342739D01*
X14188500Y5080956D01*
X11818500Y5080956D01*
X11766428Y5342739D01*
X11664285Y5589333D01*
X11515997Y5811262D01*
X11327262Y5999997D01*
X11105333Y6148285D01*
X10858739Y6250428D01*
X10596956Y6302500D01*
X10330044Y6302500D01*
X10068261Y6250428D01*
X9821667Y6148285D01*
X9599738Y5999997D01*
X9411003Y5811262D01*
X9262715Y5589333D01*
X9160572Y5342739D01*
X9108500Y5080956D01*
X7127000Y5080956D01*
X7127000Y7000000D01*
X7124560Y7024776D01*
X7117333Y7048601D01*
X7105597Y7070557D01*
X7089803Y7089803D01*
X7070557Y7105597D01*
X7048601Y7117333D01*
X7024776Y7124560D01*
X7000000Y7127000D01*
X1127000Y7127000D01*
X1127000Y7995500D01*
X8894557Y7995500D01*
X8922264Y7714191D01*
X9004318Y7443692D01*
X9137568Y7194399D01*
X9316892Y6975892D01*
X9535399Y6796568D01*
X9784692Y6663318D01*
X10055191Y6581264D01*
X10266008Y6560500D01*
X10406992Y6560500D01*
X10617809Y6581264D01*
X10888308Y6663318D01*
X11137601Y6796568D01*
X11356108Y6975892D01*
X11535432Y7194399D01*
X11668682Y7443692D01*
X11750736Y7714191D01*
X11778443Y7995500D01*
X11764523Y8136835D01*
X19061500Y8136835D01*
X19061500Y7854165D01*
X19116647Y7576926D01*
X19224820Y7315773D01*
X19381863Y7080741D01*
X19581741Y6880863D01*
X19816773Y6723820D01*
X20077926Y6615647D01*
X20355165Y6560500D01*
X20637835Y6560500D01*
X20915074Y6615647D01*
X21176227Y6723820D01*
X21411259Y6880863D01*
X21611137Y7080741D01*
X21768180Y7315773D01*
X21876353Y7576926D01*
X21931500Y7854165D01*
X21931500Y7868500D01*
X23563057Y7868500D01*
X23590764Y7587191D01*
X23672818Y7316692D01*
X23806068Y7067399D01*
X23985392Y6848892D01*
X24203899Y6669568D01*
X24453192Y6536318D01*
X24723691Y6454264D01*
X24934508Y6433500D01*
X25075492Y6433500D01*
X25286309Y6454264D01*
X25556808Y6536318D01*
X25806101Y6669568D01*
X26024608Y6848892D01*
X26203932Y7067399D01*
X26275000Y7200358D01*
X26346068Y7067399D01*
X26525392Y6848892D01*
X26743899Y6669568D01*
X26993192Y6536318D01*
X27263691Y6454264D01*
X27474508Y6433500D01*
X27615492Y6433500D01*
X27826309Y6454264D01*
X28096808Y6536318D01*
X28346101Y6669568D01*
X28564608Y6848892D01*
X28743932Y7067399D01*
X28815000Y7200358D01*
X28886068Y7067399D01*
X29065392Y6848892D01*
X29283899Y6669568D01*
X29533192Y6536318D01*
X29803691Y6454264D01*
X30014508Y6433500D01*
X30155492Y6433500D01*
X30366309Y6454264D01*
X30636808Y6536318D01*
X30886101Y6669568D01*
X31104608Y6848892D01*
X31283932Y7067399D01*
X31355000Y7200358D01*
X31426068Y7067399D01*
X31605392Y6848892D01*
X31823899Y6669568D01*
X32073192Y6536318D01*
X32343691Y6454264D01*
X32554508Y6433500D01*
X32695492Y6433500D01*
X32906309Y6454264D01*
X33176808Y6536318D01*
X33426101Y6669568D01*
X33644608Y6848892D01*
X33823932Y7067399D01*
X33957182Y7316692D01*
X34039236Y7587191D01*
X34066943Y7868500D01*
X34039236Y8149809D01*
X33957182Y8420308D01*
X33823932Y8669601D01*
X33644608Y8888108D01*
X33426101Y9067432D01*
X33176808Y9200682D01*
X32906309Y9282736D01*
X32695492Y9303500D01*
X32554508Y9303500D01*
X32343691Y9282736D01*
X32073192Y9200682D01*
X31823899Y9067432D01*
X31605392Y8888108D01*
X31426068Y8669601D01*
X31355000Y8536642D01*
X31283932Y8669601D01*
X31104608Y8888108D01*
X30886101Y9067432D01*
X30636808Y9200682D01*
X30366309Y9282736D01*
X30155492Y9303500D01*
X30014508Y9303500D01*
X29803691Y9282736D01*
X29533192Y9200682D01*
X29283899Y9067432D01*
X29065392Y8888108D01*
X28886068Y8669601D01*
X28815000Y8536642D01*
X28743932Y8669601D01*
X28564608Y8888108D01*
X28346101Y9067432D01*
X28096808Y9200682D01*
X27826309Y9282736D01*
X27615492Y9303500D01*
X27474508Y9303500D01*
X27263691Y9282736D01*
X26993192Y9200682D01*
X26743899Y9067432D01*
X26525392Y8888108D01*
X26346068Y8669601D01*
X26275000Y8536642D01*
X26203932Y8669601D01*
X26024608Y8888108D01*
X25806101Y9067432D01*
X25556808Y9200682D01*
X25286309Y9282736D01*
X25075492Y9303500D01*
X24934508Y9303500D01*
X24723691Y9282736D01*
X24453192Y9200682D01*
X24203899Y9067432D01*
X23985392Y8888108D01*
X23806068Y8669601D01*
X23672818Y8420308D01*
X23590764Y8149809D01*
X23563057Y7868500D01*
X21931500Y7868500D01*
X21931500Y8136835D01*
X21876353Y8414074D01*
X21768180Y8675227D01*
X21611137Y8910259D01*
X21411259Y9110137D01*
X21176227Y9267180D01*
X20915074Y9375353D01*
X20637835Y9430500D01*
X20355165Y9430500D01*
X20077926Y9375353D01*
X19816773Y9267180D01*
X19581741Y9110137D01*
X19381863Y8910259D01*
X19224820Y8675227D01*
X19116647Y8414074D01*
X19061500Y8136835D01*
X11764523Y8136835D01*
X11750736Y8276809D01*
X11668682Y8547308D01*
X11535432Y8796601D01*
X11356108Y9015108D01*
X11137601Y9194432D01*
X10888308Y9327682D01*
X10617809Y9409736D01*
X10406992Y9430500D01*
X10266008Y9430500D01*
X10055191Y9409736D01*
X9784692Y9327682D01*
X9535399Y9194432D01*
X9316892Y9015108D01*
X9137568Y8796601D01*
X9004318Y8547308D01*
X8922264Y8276809D01*
X8894557Y7995500D01*
X1127000Y7995500D01*
X1127000Y13084911D01*
X1585500Y13084911D01*
X1585500Y12812089D01*
X1638725Y12544511D01*
X1743129Y12292457D01*
X1894701Y12065614D01*
X2087614Y11872701D01*
X2314457Y11721129D01*
X2417373Y11678500D01*
X2314457Y11635871D01*
X2087614Y11484299D01*
X1894701Y11291386D01*
X1743129Y11064543D01*
X1638725Y10812489D01*
X1585500Y10544911D01*
X1585500Y10272089D01*
X1638725Y10004511D01*
X1743129Y9752457D01*
X1894701Y9525614D01*
X2087614Y9332701D01*
X2314457Y9181129D01*
X2566511Y9076725D01*
X2834089Y9023500D01*
X3106911Y9023500D01*
X3374489Y9076725D01*
X3626543Y9181129D01*
X3853386Y9332701D01*
X4046299Y9525614D01*
X4092292Y9594447D01*
X4144896Y9496033D01*
X4349149Y9247149D01*
X4598033Y9042896D01*
X4881981Y8891122D01*
X5190084Y8797660D01*
X5430208Y8774010D01*
X5590792Y8774010D01*
X5830916Y8797660D01*
X6139019Y8891122D01*
X6422967Y9042896D01*
X6671851Y9247149D01*
X6876104Y9496033D01*
X7027878Y9779981D01*
X7121340Y10088084D01*
X7152898Y10408500D01*
X7121340Y10728916D01*
X7027878Y11037019D01*
X6876104Y11320967D01*
X6816939Y11393060D01*
X6864484Y11418473D01*
X6961175Y11497825D01*
X7040527Y11594516D01*
X7099492Y11704830D01*
X7122294Y11780000D01*
X10041428Y11780000D01*
X10041428Y10180000D01*
X10053688Y10055518D01*
X10089998Y9935820D01*
X10148963Y9825506D01*
X10228315Y9728815D01*
X10325006Y9649463D01*
X10435320Y9590498D01*
X10555018Y9554188D01*
X10679500Y9541928D01*
X12279500Y9541928D01*
X12403982Y9554188D01*
X12523680Y9590498D01*
X12633994Y9649463D01*
X12730685Y9728815D01*
X12810037Y9825506D01*
X12869002Y9935820D01*
X12905312Y10055518D01*
X12907081Y10073482D01*
X12999892Y9960392D01*
X13218399Y9781068D01*
X13467692Y9647818D01*
X13738191Y9565764D01*
X13949008Y9545000D01*
X14089992Y9545000D01*
X14300809Y9565764D01*
X14571308Y9647818D01*
X14820601Y9781068D01*
X15039108Y9960392D01*
X15218432Y10178899D01*
X15289500Y10311858D01*
X15360568Y10178899D01*
X15539892Y9960392D01*
X15758399Y9781068D01*
X16007692Y9647818D01*
X16278191Y9565764D01*
X16489008Y9545000D01*
X16629992Y9545000D01*
X16840809Y9565764D01*
X17111308Y9647818D01*
X17360601Y9781068D01*
X17579108Y9960392D01*
X17758432Y10178899D01*
X17832079Y10316682D01*
X17947115Y10124869D01*
X18136086Y9916481D01*
X18362080Y9748963D01*
X18616413Y9628754D01*
X18750461Y9588096D01*
X18972500Y9710085D01*
X18972500Y10853000D01*
X19226500Y10853000D01*
X19226500Y9710085D01*
X19448539Y9588096D01*
X19582587Y9628754D01*
X19836920Y9748963D01*
X20062914Y9916481D01*
X20251885Y10124869D01*
X20396570Y10366119D01*
X20491409Y10630960D01*
X20370124Y10853000D01*
X19226500Y10853000D01*
X18972500Y10853000D01*
X18952500Y10853000D01*
X18952500Y11107000D01*
X18972500Y11107000D01*
X18972500Y12249915D01*
X19226500Y12249915D01*
X19226500Y11107000D01*
X20370124Y11107000D01*
X20491409Y11329040D01*
X20396570Y11593881D01*
X20251885Y11835131D01*
X20062914Y12043519D01*
X19936350Y12137335D01*
X36079500Y12137335D01*
X36079500Y11854665D01*
X36134647Y11577426D01*
X36242820Y11316273D01*
X36399863Y11081241D01*
X36599741Y10881363D01*
X36834773Y10724320D01*
X37095926Y10616147D01*
X37373165Y10561000D01*
X37655835Y10561000D01*
X37933074Y10616147D01*
X38194227Y10724320D01*
X38429259Y10881363D01*
X38629137Y11081241D01*
X38786180Y11316273D01*
X38894353Y11577426D01*
X38949500Y11854665D01*
X38949500Y12137335D01*
X38894353Y12414574D01*
X38786180Y12675727D01*
X38629137Y12910759D01*
X38429259Y13110637D01*
X38194227Y13267680D01*
X37933074Y13375853D01*
X37655835Y13431000D01*
X37373165Y13431000D01*
X37095926Y13375853D01*
X36834773Y13267680D01*
X36599741Y13110637D01*
X36399863Y12910759D01*
X36242820Y12675727D01*
X36134647Y12414574D01*
X36079500Y12137335D01*
X19936350Y12137335D01*
X19836920Y12211037D01*
X19582587Y12331246D01*
X19448539Y12371904D01*
X19226500Y12249915D01*
X18972500Y12249915D01*
X18750461Y12371904D01*
X18616413Y12331246D01*
X18362080Y12211037D01*
X18136086Y12043519D01*
X17947115Y11835131D01*
X17832079Y11643318D01*
X17758432Y11781101D01*
X17579108Y11999608D01*
X17360601Y12178932D01*
X17111308Y12312182D01*
X16840809Y12394236D01*
X16629992Y12415000D01*
X16489008Y12415000D01*
X16278191Y12394236D01*
X16007692Y12312182D01*
X15758399Y12178932D01*
X15539892Y11999608D01*
X15360568Y11781101D01*
X15289500Y11648142D01*
X15218432Y11781101D01*
X15039108Y11999608D01*
X14820601Y12178932D01*
X14571308Y12312182D01*
X14300809Y12394236D01*
X14089992Y12415000D01*
X13949008Y12415000D01*
X13738191Y12394236D01*
X13467692Y12312182D01*
X13218399Y12178932D01*
X12999892Y11999608D01*
X12907081Y11886518D01*
X12905312Y11904482D01*
X12869002Y12024180D01*
X12810037Y12134494D01*
X12730685Y12231185D01*
X12633994Y12310537D01*
X12523680Y12369502D01*
X12403982Y12405812D01*
X12279500Y12418072D01*
X10679500Y12418072D01*
X10555018Y12405812D01*
X10435320Y12369502D01*
X10325006Y12310537D01*
X10228315Y12231185D01*
X10148963Y12134494D01*
X10089998Y12024180D01*
X10053688Y11904482D01*
X10041428Y11780000D01*
X7122294Y11780000D01*
X7135802Y11824528D01*
X7148062Y11949010D01*
X7148062Y13947990D01*
X7135802Y14072472D01*
X7099492Y14192170D01*
X7040527Y14302484D01*
X6961175Y14399175D01*
X6864484Y14478527D01*
X6754170Y14537492D01*
X6634472Y14573802D01*
X6509990Y14586062D01*
X4511010Y14586062D01*
X4386528Y14573802D01*
X4266830Y14537492D01*
X4156516Y14478527D01*
X4059825Y14399175D01*
X3980473Y14302484D01*
X3921508Y14192170D01*
X3885198Y14072472D01*
X3878027Y13999658D01*
X3853386Y14024299D01*
X3626543Y14175871D01*
X3374489Y14280275D01*
X3106911Y14333500D01*
X2834089Y14333500D01*
X2566511Y14280275D01*
X2314457Y14175871D01*
X2087614Y14024299D01*
X1894701Y13831386D01*
X1743129Y13604543D01*
X1638725Y13352489D01*
X1585500Y13084911D01*
X1127000Y13084911D01*
X1127000Y15379346D01*
X1216899Y15305568D01*
X1466192Y15172318D01*
X1736691Y15090264D01*
X1947508Y15069500D01*
X2088492Y15069500D01*
X2299309Y15090264D01*
X2569808Y15172318D01*
X2819101Y15305568D01*
X3037608Y15484892D01*
X3216932Y15703399D01*
X3350182Y15952692D01*
X3432236Y16223191D01*
X3459943Y16504500D01*
X4576557Y16504500D01*
X4604264Y16223191D01*
X4686318Y15952692D01*
X4819568Y15703399D01*
X4998892Y15484892D01*
X5217399Y15305568D01*
X5466692Y15172318D01*
X5737191Y15090264D01*
X5948008Y15069500D01*
X6088992Y15069500D01*
X6299809Y15090264D01*
X6461988Y15139460D01*
X23613091Y15139460D01*
X23707930Y14874619D01*
X23852615Y14633369D01*
X24041586Y14424981D01*
X24267580Y14257463D01*
X24521913Y14137254D01*
X24655961Y14096596D01*
X24878000Y14218585D01*
X24878000Y15361500D01*
X23734376Y15361500D01*
X23613091Y15139460D01*
X6461988Y15139460D01*
X6570308Y15172318D01*
X6819601Y15305568D01*
X7038108Y15484892D01*
X7217432Y15703399D01*
X7289131Y15837540D01*
X23613091Y15837540D01*
X23734376Y15615500D01*
X24878000Y15615500D01*
X24878000Y16758415D01*
X25132000Y16758415D01*
X25132000Y15615500D01*
X25152000Y15615500D01*
X25152000Y15361500D01*
X25132000Y15361500D01*
X25132000Y14218585D01*
X25354039Y14096596D01*
X25488087Y14137254D01*
X25742420Y14257463D01*
X25968414Y14424981D01*
X26157385Y14633369D01*
X26272421Y14825182D01*
X26346068Y14687399D01*
X26525392Y14468892D01*
X26743899Y14289568D01*
X26993192Y14156318D01*
X27263691Y14074264D01*
X27474508Y14053500D01*
X27615492Y14053500D01*
X27826309Y14074264D01*
X28096808Y14156318D01*
X28346101Y14289568D01*
X28564608Y14468892D01*
X28743932Y14687399D01*
X28815000Y14820358D01*
X28886068Y14687399D01*
X29065392Y14468892D01*
X29283899Y14289568D01*
X29533192Y14156318D01*
X29803691Y14074264D01*
X30014508Y14053500D01*
X30155492Y14053500D01*
X30366309Y14074264D01*
X30636808Y14156318D01*
X30886101Y14289568D01*
X31104608Y14468892D01*
X31197419Y14581982D01*
X31199188Y14564018D01*
X31235498Y14444320D01*
X31294463Y14334006D01*
X31373815Y14237315D01*
X31470506Y14157963D01*
X31580820Y14098998D01*
X31700518Y14062688D01*
X31825000Y14050428D01*
X33425000Y14050428D01*
X33549482Y14062688D01*
X33669180Y14098998D01*
X33779494Y14157963D01*
X33876185Y14237315D01*
X33955537Y14334006D01*
X34014502Y14444320D01*
X34050812Y14564018D01*
X34063072Y14688500D01*
X34063072Y15488500D01*
X37546315Y15488500D01*
X37574987Y15197389D01*
X37659901Y14917466D01*
X37797794Y14659486D01*
X37983366Y14433366D01*
X38209486Y14247794D01*
X38467466Y14109901D01*
X38747389Y14024987D01*
X38965550Y14003500D01*
X39111450Y14003500D01*
X39329611Y14024987D01*
X39609534Y14109901D01*
X39867514Y14247794D01*
X40093634Y14433366D01*
X40279206Y14659486D01*
X40417099Y14917466D01*
X40502013Y15197389D01*
X40530685Y15488500D01*
X40502013Y15779611D01*
X40417099Y16059534D01*
X40279206Y16317514D01*
X40093634Y16543634D01*
X39867514Y16729206D01*
X39802977Y16763701D01*
X39919855Y16833322D01*
X40136088Y17028231D01*
X40310141Y17261580D01*
X40435325Y17524401D01*
X40479976Y17671610D01*
X40358655Y17901500D01*
X39165500Y17901500D01*
X39165500Y17881500D01*
X38911500Y17881500D01*
X38911500Y17901500D01*
X37718345Y17901500D01*
X37597024Y17671610D01*
X37641675Y17524401D01*
X37766859Y17261580D01*
X37940912Y17028231D01*
X38157145Y16833322D01*
X38274023Y16763701D01*
X38209486Y16729206D01*
X37983366Y16543634D01*
X37797794Y16317514D01*
X37659901Y16059534D01*
X37574987Y15779611D01*
X37546315Y15488500D01*
X34063072Y15488500D01*
X34063072Y16288500D01*
X34050812Y16412982D01*
X34014502Y16532680D01*
X33955537Y16642994D01*
X33876185Y16739685D01*
X33779494Y16819037D01*
X33669180Y16878002D01*
X33549482Y16914312D01*
X33425000Y16926572D01*
X31825000Y16926572D01*
X31700518Y16914312D01*
X31580820Y16878002D01*
X31470506Y16819037D01*
X31373815Y16739685D01*
X31294463Y16642994D01*
X31235498Y16532680D01*
X31199188Y16412982D01*
X31197419Y16395018D01*
X31104608Y16508108D01*
X30886101Y16687432D01*
X30636808Y16820682D01*
X30366309Y16902736D01*
X30155492Y16923500D01*
X30014508Y16923500D01*
X29803691Y16902736D01*
X29533192Y16820682D01*
X29283899Y16687432D01*
X29065392Y16508108D01*
X28886068Y16289601D01*
X28815000Y16156642D01*
X28743932Y16289601D01*
X28564608Y16508108D01*
X28346101Y16687432D01*
X28096808Y16820682D01*
X27826309Y16902736D01*
X27615492Y16923500D01*
X27474508Y16923500D01*
X27263691Y16902736D01*
X26993192Y16820682D01*
X26743899Y16687432D01*
X26525392Y16508108D01*
X26346068Y16289601D01*
X26272421Y16151818D01*
X26157385Y16343631D01*
X25968414Y16552019D01*
X25742420Y16719537D01*
X25488087Y16839746D01*
X25354039Y16880404D01*
X25132000Y16758415D01*
X24878000Y16758415D01*
X24655961Y16880404D01*
X24521913Y16839746D01*
X24267580Y16719537D01*
X24041586Y16552019D01*
X23852615Y16343631D01*
X23707930Y16102381D01*
X23613091Y15837540D01*
X7289131Y15837540D01*
X7350682Y15952692D01*
X7432736Y16223191D01*
X7460443Y16504500D01*
X7432736Y16785809D01*
X7350682Y17056308D01*
X7217432Y17305601D01*
X7038108Y17524108D01*
X6819601Y17703432D01*
X6570308Y17836682D01*
X6299809Y17918736D01*
X6088992Y17939500D01*
X5948008Y17939500D01*
X5737191Y17918736D01*
X5466692Y17836682D01*
X5217399Y17703432D01*
X4998892Y17524108D01*
X4819568Y17305601D01*
X4686318Y17056308D01*
X4604264Y16785809D01*
X4576557Y16504500D01*
X3459943Y16504500D01*
X3432236Y16785809D01*
X3350182Y17056308D01*
X3216932Y17305601D01*
X3037608Y17524108D01*
X2819101Y17703432D01*
X2569808Y17836682D01*
X2299309Y17918736D01*
X2088492Y17939500D01*
X1947508Y17939500D01*
X1736691Y17918736D01*
X1466192Y17836682D01*
X1216899Y17703432D01*
X1127000Y17629654D01*
X1127000Y18600000D01*
X10037557Y18600000D01*
X10065264Y18318691D01*
X10147318Y18048192D01*
X10280568Y17798899D01*
X10459892Y17580392D01*
X10678399Y17401068D01*
X10927692Y17267818D01*
X11198191Y17185764D01*
X11409008Y17165000D01*
X11549992Y17165000D01*
X11760809Y17185764D01*
X12031308Y17267818D01*
X12280601Y17401068D01*
X12499108Y17580392D01*
X12678432Y17798899D01*
X12749500Y17931858D01*
X12820568Y17798899D01*
X12999892Y17580392D01*
X13218399Y17401068D01*
X13467692Y17267818D01*
X13738191Y17185764D01*
X13949008Y17165000D01*
X14089992Y17165000D01*
X14300809Y17185764D01*
X14571308Y17267818D01*
X14820601Y17401068D01*
X15039108Y17580392D01*
X15218432Y17798899D01*
X15289500Y17931858D01*
X15360568Y17798899D01*
X15539892Y17580392D01*
X15758399Y17401068D01*
X16007692Y17267818D01*
X16278191Y17185764D01*
X16489008Y17165000D01*
X16629992Y17165000D01*
X16840809Y17185764D01*
X17111308Y17267818D01*
X17360601Y17401068D01*
X17579108Y17580392D01*
X17758432Y17798899D01*
X17829500Y17931858D01*
X17900568Y17798899D01*
X18079892Y17580392D01*
X18298399Y17401068D01*
X18547692Y17267818D01*
X18818191Y17185764D01*
X19029008Y17165000D01*
X19169992Y17165000D01*
X19380809Y17185764D01*
X19651308Y17267818D01*
X19900601Y17401068D01*
X20119108Y17580392D01*
X20298432Y17798899D01*
X20431682Y18048192D01*
X20513736Y18318691D01*
X20535188Y18536500D01*
X22039057Y18536500D01*
X22066764Y18255191D01*
X22148818Y17984692D01*
X22282068Y17735399D01*
X22461392Y17516892D01*
X22679899Y17337568D01*
X22929192Y17204318D01*
X23199691Y17122264D01*
X23410508Y17101500D01*
X23551492Y17101500D01*
X23762309Y17122264D01*
X24032808Y17204318D01*
X24282101Y17337568D01*
X24500608Y17516892D01*
X24679932Y17735399D01*
X24813182Y17984692D01*
X24895236Y18255191D01*
X24922943Y18536500D01*
X24909023Y18677835D01*
X32206000Y18677835D01*
X32206000Y18395165D01*
X32261147Y18117926D01*
X32369320Y17856773D01*
X32526363Y17621741D01*
X32726241Y17421863D01*
X32961273Y17264820D01*
X33222426Y17156647D01*
X33499665Y17101500D01*
X33782335Y17101500D01*
X34059574Y17156647D01*
X34320727Y17264820D01*
X34555759Y17421863D01*
X34755637Y17621741D01*
X34912680Y17856773D01*
X35020853Y18117926D01*
X35076000Y18395165D01*
X35076000Y18677835D01*
X35020853Y18955074D01*
X34912680Y19216227D01*
X34755637Y19451259D01*
X34555759Y19651137D01*
X34320727Y19808180D01*
X34059574Y19916353D01*
X33782335Y19971500D01*
X33499665Y19971500D01*
X33222426Y19916353D01*
X32961273Y19808180D01*
X32726241Y19651137D01*
X32526363Y19451259D01*
X32369320Y19216227D01*
X32261147Y18955074D01*
X32206000Y18677835D01*
X24909023Y18677835D01*
X24895236Y18817809D01*
X24813182Y19088308D01*
X24679932Y19337601D01*
X24500608Y19556108D01*
X24282101Y19735432D01*
X24032808Y19868682D01*
X23762309Y19950736D01*
X23551492Y19971500D01*
X23410508Y19971500D01*
X23199691Y19950736D01*
X22929192Y19868682D01*
X22679899Y19735432D01*
X22461392Y19556108D01*
X22282068Y19337601D01*
X22148818Y19088308D01*
X22066764Y18817809D01*
X22039057Y18536500D01*
X20535188Y18536500D01*
X20541443Y18600000D01*
X20513736Y18881309D01*
X20431682Y19151808D01*
X20298432Y19401101D01*
X20119108Y19619608D01*
X19900601Y19798932D01*
X19651308Y19932182D01*
X19380809Y20014236D01*
X19169992Y20035000D01*
X19029008Y20035000D01*
X18818191Y20014236D01*
X18547692Y19932182D01*
X18298399Y19798932D01*
X18079892Y19619608D01*
X17900568Y19401101D01*
X17829500Y19268142D01*
X17758432Y19401101D01*
X17579108Y19619608D01*
X17360601Y19798932D01*
X17111308Y19932182D01*
X16840809Y20014236D01*
X16629992Y20035000D01*
X16489008Y20035000D01*
X16278191Y20014236D01*
X16007692Y19932182D01*
X15758399Y19798932D01*
X15539892Y19619608D01*
X15360568Y19401101D01*
X15289500Y19268142D01*
X15218432Y19401101D01*
X15039108Y19619608D01*
X14820601Y19798932D01*
X14571308Y19932182D01*
X14300809Y20014236D01*
X14089992Y20035000D01*
X13949008Y20035000D01*
X13738191Y20014236D01*
X13467692Y19932182D01*
X13218399Y19798932D01*
X12999892Y19619608D01*
X12820568Y19401101D01*
X12749500Y19268142D01*
X12678432Y19401101D01*
X12499108Y19619608D01*
X12280601Y19798932D01*
X12031308Y19932182D01*
X11760809Y20014236D01*
X11549992Y20035000D01*
X11409008Y20035000D01*
X11198191Y20014236D01*
X10927692Y19932182D01*
X10678399Y19798932D01*
X10459892Y19619608D01*
X10280568Y19401101D01*
X10147318Y19151808D01*
X10065264Y18881309D01*
X10037557Y18600000D01*
X1127000Y18600000D01*
X1127000Y21775000D01*
X8069057Y21775000D01*
X8096764Y21493691D01*
X8178818Y21223192D01*
X8312068Y20973899D01*
X8491392Y20755392D01*
X8709899Y20576068D01*
X8959192Y20442818D01*
X9229691Y20360764D01*
X9440508Y20340000D01*
X9581492Y20340000D01*
X9792309Y20360764D01*
X10062808Y20442818D01*
X10312101Y20576068D01*
X10530608Y20755392D01*
X10709932Y20973899D01*
X10843182Y21223192D01*
X10925236Y21493691D01*
X10952943Y21775000D01*
X10939023Y21916335D01*
X18236000Y21916335D01*
X18236000Y21633665D01*
X18291147Y21356426D01*
X18399320Y21095273D01*
X18556363Y20860241D01*
X18756241Y20660363D01*
X18991273Y20503320D01*
X19252426Y20395147D01*
X19529665Y20340000D01*
X19812335Y20340000D01*
X20089574Y20395147D01*
X20350727Y20503320D01*
X20585759Y20660363D01*
X20785637Y20860241D01*
X20942680Y21095273D01*
X21050853Y21356426D01*
X21106000Y21633665D01*
X21106000Y21775000D01*
X22039057Y21775000D01*
X22066764Y21493691D01*
X22148818Y21223192D01*
X22282068Y20973899D01*
X22461392Y20755392D01*
X22679899Y20576068D01*
X22929192Y20442818D01*
X23199691Y20360764D01*
X23410508Y20340000D01*
X23551492Y20340000D01*
X23762309Y20360764D01*
X24032808Y20442818D01*
X24282101Y20576068D01*
X24500608Y20755392D01*
X24679932Y20973899D01*
X24813182Y21223192D01*
X24895236Y21493691D01*
X24922943Y21775000D01*
X24909023Y21916335D01*
X32206000Y21916335D01*
X32206000Y21633665D01*
X32261147Y21356426D01*
X32369320Y21095273D01*
X32526363Y20860241D01*
X32726241Y20660363D01*
X32961273Y20503320D01*
X33222426Y20395147D01*
X33499665Y20340000D01*
X33782335Y20340000D01*
X34059574Y20395147D01*
X34320727Y20503320D01*
X34555759Y20660363D01*
X34755637Y20860241D01*
X34912680Y21095273D01*
X35020853Y21356426D01*
X35076000Y21633665D01*
X35076000Y21916335D01*
X35020853Y22193574D01*
X34912680Y22454727D01*
X34755637Y22689759D01*
X34555759Y22889637D01*
X34320727Y23046680D01*
X34059574Y23154853D01*
X33782335Y23210000D01*
X33499665Y23210000D01*
X33222426Y23154853D01*
X32961273Y23046680D01*
X32726241Y22889637D01*
X32526363Y22689759D01*
X32369320Y22454727D01*
X32261147Y22193574D01*
X32206000Y21916335D01*
X24909023Y21916335D01*
X24895236Y22056309D01*
X24813182Y22326808D01*
X24679932Y22576101D01*
X24500608Y22794608D01*
X24282101Y22973932D01*
X24032808Y23107182D01*
X23762309Y23189236D01*
X23551492Y23210000D01*
X23410508Y23210000D01*
X23199691Y23189236D01*
X22929192Y23107182D01*
X22679899Y22973932D01*
X22461392Y22794608D01*
X22282068Y22576101D01*
X22148818Y22326808D01*
X22066764Y22056309D01*
X22039057Y21775000D01*
X21106000Y21775000D01*
X21106000Y21916335D01*
X21050853Y22193574D01*
X20942680Y22454727D01*
X20785637Y22689759D01*
X20585759Y22889637D01*
X20350727Y23046680D01*
X20089574Y23154853D01*
X19812335Y23210000D01*
X19529665Y23210000D01*
X19252426Y23154853D01*
X18991273Y23046680D01*
X18756241Y22889637D01*
X18556363Y22689759D01*
X18399320Y22454727D01*
X18291147Y22193574D01*
X18236000Y21916335D01*
X10939023Y21916335D01*
X10925236Y22056309D01*
X10843182Y22326808D01*
X10709932Y22576101D01*
X10530608Y22794608D01*
X10312101Y22973932D01*
X10062808Y23107182D01*
X9792309Y23189236D01*
X9581492Y23210000D01*
X9440508Y23210000D01*
X9229691Y23189236D01*
X8959192Y23107182D01*
X8709899Y22973932D01*
X8491392Y22794608D01*
X8312068Y22576101D01*
X8178818Y22326808D01*
X8096764Y22056309D01*
X8069057Y21775000D01*
X1127000Y21775000D01*
X1127000Y25533988D01*
X1338273Y25392820D01*
X1599426Y25284647D01*
X1876665Y25229500D01*
X2159335Y25229500D01*
X2436574Y25284647D01*
X2697727Y25392820D01*
X2932759Y25549863D01*
X3054694Y25671798D01*
X5205403Y25671798D01*
X5276986Y25427829D01*
X5532496Y25306929D01*
X5806684Y25238200D01*
X6089012Y25224283D01*
X6368630Y25265713D01*
X6634792Y25360897D01*
X6760014Y25427829D01*
X6831597Y25671798D01*
X6018500Y26484895D01*
X5205403Y25671798D01*
X3054694Y25671798D01*
X3132637Y25749741D01*
X3289680Y25984773D01*
X3397853Y26245926D01*
X3453000Y26523165D01*
X3453000Y26593988D01*
X4578283Y26593988D01*
X4619713Y26314370D01*
X4714897Y26048208D01*
X4781829Y25922986D01*
X5025798Y25851403D01*
X5838895Y26664500D01*
X6198105Y26664500D01*
X7011202Y25851403D01*
X7255171Y25922986D01*
X7376071Y26178496D01*
X7444800Y26452684D01*
X7458717Y26735012D01*
X7417287Y27014630D01*
X7322103Y27280792D01*
X7255171Y27406014D01*
X7011202Y27477597D01*
X6198105Y26664500D01*
X5838895Y26664500D01*
X5025798Y27477597D01*
X4781829Y27406014D01*
X4660929Y27150504D01*
X4592200Y26876316D01*
X4578283Y26593988D01*
X3453000Y26593988D01*
X3453000Y26805835D01*
X3397853Y27083074D01*
X3289680Y27344227D01*
X3132637Y27579259D01*
X2932759Y27779137D01*
X2792283Y27873000D01*
X5268720Y27873000D01*
X5205403Y27657202D01*
M02*
