G04 #@! TF.GenerationSoftware,KiCad,Pcbnew,(5.1.4)-1*
G04 #@! TF.CreationDate,2019-09-16T22:16:00+02:00*
G04 #@! TF.ProjectId,BBMini,42424d69-6e69-42e6-9b69-6361645f7063,V1.0*
G04 #@! TF.SameCoordinates,PXe4e1c0PY6516e80*
G04 #@! TF.FileFunction,Soldermask,Top*
G04 #@! TF.FilePolarity,Negative*
%FSLAX46Y46*%
G04 Gerber Fmt 4.6, Leading zero omitted, Abs format (unit mm)*
G04 Created by KiCad (PCBNEW (5.1.4)-1) date 2019-09-16 22:16:00*
%MOMM*%
%LPD*%
G04 APERTURE LIST*
%ADD10C,0.100000*%
G04 APERTURE END LIST*
D10*
G36*
X56157023Y3389410D02*
G01*
X56243126Y3363291D01*
X56308013Y3343608D01*
X56447165Y3269229D01*
X56569133Y3169133D01*
X56669229Y3047165D01*
X56743608Y2908013D01*
X56743608Y2908012D01*
X56789410Y2757023D01*
X56801000Y2639345D01*
X56801000Y2060655D01*
X56789410Y1942977D01*
X56771090Y1882585D01*
X56743608Y1791987D01*
X56669230Y1652836D01*
X56669229Y1652835D01*
X56569133Y1530867D01*
X56447164Y1430771D01*
X56308012Y1356392D01*
X56257681Y1341125D01*
X56157022Y1310590D01*
X56000000Y1295125D01*
X55842977Y1310590D01*
X55742318Y1341125D01*
X55691987Y1356392D01*
X55552835Y1430771D01*
X55430867Y1530867D01*
X55330771Y1652836D01*
X55256393Y1791987D01*
X55256392Y1791988D01*
X55216954Y1922000D01*
X55210590Y1942978D01*
X55199000Y2060656D01*
X55199000Y2639345D01*
X55210590Y2757023D01*
X55256392Y2908012D01*
X55256392Y2908013D01*
X55275607Y2943961D01*
X55330771Y3047165D01*
X55430868Y3169133D01*
X55552836Y3269229D01*
X55691988Y3343608D01*
X55756875Y3363291D01*
X55842978Y3389410D01*
X56000000Y3404875D01*
X56157023Y3389410D01*
X56157023Y3389410D01*
G37*
G36*
X52157023Y3389410D02*
G01*
X52243126Y3363291D01*
X52308013Y3343608D01*
X52447165Y3269229D01*
X52569133Y3169133D01*
X52669229Y3047165D01*
X52743608Y2908013D01*
X52743608Y2908012D01*
X52789410Y2757023D01*
X52801000Y2639345D01*
X52801000Y2060655D01*
X52789410Y1942977D01*
X52771090Y1882585D01*
X52743608Y1791987D01*
X52669230Y1652836D01*
X52669229Y1652835D01*
X52569133Y1530867D01*
X52447164Y1430771D01*
X52308012Y1356392D01*
X52257681Y1341125D01*
X52157022Y1310590D01*
X52000000Y1295125D01*
X51842977Y1310590D01*
X51742318Y1341125D01*
X51691987Y1356392D01*
X51552835Y1430771D01*
X51430867Y1530867D01*
X51330771Y1652836D01*
X51256393Y1791987D01*
X51256392Y1791988D01*
X51216954Y1922000D01*
X51210590Y1942978D01*
X51199000Y2060656D01*
X51199000Y2639345D01*
X51210590Y2757023D01*
X51256392Y2908012D01*
X51256392Y2908013D01*
X51275607Y2943961D01*
X51330771Y3047165D01*
X51430868Y3169133D01*
X51552836Y3269229D01*
X51691988Y3343608D01*
X51756875Y3363291D01*
X51842978Y3389410D01*
X52000000Y3404875D01*
X52157023Y3389410D01*
X52157023Y3389410D01*
G37*
G36*
X25157023Y3389410D02*
G01*
X25243126Y3363291D01*
X25308013Y3343608D01*
X25447165Y3269229D01*
X25569133Y3169133D01*
X25669229Y3047165D01*
X25743608Y2908013D01*
X25743608Y2908012D01*
X25789410Y2757023D01*
X25801000Y2639345D01*
X25801000Y2060655D01*
X25789410Y1942977D01*
X25771090Y1882585D01*
X25743608Y1791987D01*
X25669230Y1652836D01*
X25669229Y1652835D01*
X25569133Y1530867D01*
X25447164Y1430771D01*
X25308012Y1356392D01*
X25257681Y1341125D01*
X25157022Y1310590D01*
X25000000Y1295125D01*
X24842977Y1310590D01*
X24742318Y1341125D01*
X24691987Y1356392D01*
X24552835Y1430771D01*
X24430867Y1530867D01*
X24330771Y1652836D01*
X24256393Y1791987D01*
X24256392Y1791988D01*
X24216954Y1922000D01*
X24210590Y1942978D01*
X24199000Y2060656D01*
X24199000Y2639345D01*
X24210590Y2757023D01*
X24256392Y2908012D01*
X24256392Y2908013D01*
X24275607Y2943961D01*
X24330771Y3047165D01*
X24430868Y3169133D01*
X24552836Y3269229D01*
X24691988Y3343608D01*
X24756875Y3363291D01*
X24842978Y3389410D01*
X25000000Y3404875D01*
X25157023Y3389410D01*
X25157023Y3389410D01*
G37*
G36*
X29157023Y3389410D02*
G01*
X29243126Y3363291D01*
X29308013Y3343608D01*
X29447165Y3269229D01*
X29569133Y3169133D01*
X29669229Y3047165D01*
X29743608Y2908013D01*
X29743608Y2908012D01*
X29789410Y2757023D01*
X29801000Y2639345D01*
X29801000Y2060655D01*
X29789410Y1942977D01*
X29771090Y1882585D01*
X29743608Y1791987D01*
X29669230Y1652836D01*
X29669229Y1652835D01*
X29569133Y1530867D01*
X29447164Y1430771D01*
X29308012Y1356392D01*
X29257681Y1341125D01*
X29157022Y1310590D01*
X29000000Y1295125D01*
X28842977Y1310590D01*
X28742318Y1341125D01*
X28691987Y1356392D01*
X28552835Y1430771D01*
X28430867Y1530867D01*
X28330771Y1652836D01*
X28256393Y1791987D01*
X28256392Y1791988D01*
X28216954Y1922000D01*
X28210590Y1942978D01*
X28199000Y2060656D01*
X28199000Y2639345D01*
X28210590Y2757023D01*
X28256392Y2908012D01*
X28256392Y2908013D01*
X28275607Y2943961D01*
X28330771Y3047165D01*
X28430868Y3169133D01*
X28552836Y3269229D01*
X28691988Y3343608D01*
X28756875Y3363291D01*
X28842978Y3389410D01*
X29000000Y3404875D01*
X29157023Y3389410D01*
X29157023Y3389410D01*
G37*
G36*
X34157023Y3389410D02*
G01*
X34243126Y3363291D01*
X34308013Y3343608D01*
X34447165Y3269229D01*
X34569133Y3169133D01*
X34669229Y3047165D01*
X34743608Y2908013D01*
X34743608Y2908012D01*
X34789410Y2757023D01*
X34801000Y2639345D01*
X34801000Y2060655D01*
X34789410Y1942977D01*
X34771090Y1882585D01*
X34743608Y1791987D01*
X34669230Y1652836D01*
X34669229Y1652835D01*
X34569133Y1530867D01*
X34447164Y1430771D01*
X34308012Y1356392D01*
X34257681Y1341125D01*
X34157022Y1310590D01*
X34000000Y1295125D01*
X33842977Y1310590D01*
X33742318Y1341125D01*
X33691987Y1356392D01*
X33552835Y1430771D01*
X33430867Y1530867D01*
X33330771Y1652836D01*
X33256393Y1791987D01*
X33256392Y1791988D01*
X33216954Y1922000D01*
X33210590Y1942978D01*
X33199000Y2060656D01*
X33199000Y2639345D01*
X33210590Y2757023D01*
X33256392Y2908012D01*
X33256392Y2908013D01*
X33275607Y2943961D01*
X33330771Y3047165D01*
X33430868Y3169133D01*
X33552836Y3269229D01*
X33691988Y3343608D01*
X33756875Y3363291D01*
X33842978Y3389410D01*
X34000000Y3404875D01*
X34157023Y3389410D01*
X34157023Y3389410D01*
G37*
G36*
X38157023Y3389410D02*
G01*
X38243126Y3363291D01*
X38308013Y3343608D01*
X38447165Y3269229D01*
X38569133Y3169133D01*
X38669229Y3047165D01*
X38743608Y2908013D01*
X38743608Y2908012D01*
X38789410Y2757023D01*
X38801000Y2639345D01*
X38801000Y2060655D01*
X38789410Y1942977D01*
X38771090Y1882585D01*
X38743608Y1791987D01*
X38669230Y1652836D01*
X38669229Y1652835D01*
X38569133Y1530867D01*
X38447164Y1430771D01*
X38308012Y1356392D01*
X38257681Y1341125D01*
X38157022Y1310590D01*
X38000000Y1295125D01*
X37842977Y1310590D01*
X37742318Y1341125D01*
X37691987Y1356392D01*
X37552835Y1430771D01*
X37430867Y1530867D01*
X37330771Y1652836D01*
X37256393Y1791987D01*
X37256392Y1791988D01*
X37216954Y1922000D01*
X37210590Y1942978D01*
X37199000Y2060656D01*
X37199000Y2639345D01*
X37210590Y2757023D01*
X37256392Y2908012D01*
X37256392Y2908013D01*
X37275607Y2943961D01*
X37330771Y3047165D01*
X37430868Y3169133D01*
X37552836Y3269229D01*
X37691988Y3343608D01*
X37756875Y3363291D01*
X37842978Y3389410D01*
X38000000Y3404875D01*
X38157023Y3389410D01*
X38157023Y3389410D01*
G37*
G36*
X43157023Y3389410D02*
G01*
X43243126Y3363291D01*
X43308013Y3343608D01*
X43447165Y3269229D01*
X43569133Y3169133D01*
X43669229Y3047165D01*
X43743608Y2908013D01*
X43743608Y2908012D01*
X43789410Y2757023D01*
X43801000Y2639345D01*
X43801000Y2060655D01*
X43789410Y1942977D01*
X43771090Y1882585D01*
X43743608Y1791987D01*
X43669230Y1652836D01*
X43669229Y1652835D01*
X43569133Y1530867D01*
X43447164Y1430771D01*
X43308012Y1356392D01*
X43257681Y1341125D01*
X43157022Y1310590D01*
X43000000Y1295125D01*
X42842977Y1310590D01*
X42742318Y1341125D01*
X42691987Y1356392D01*
X42552835Y1430771D01*
X42430867Y1530867D01*
X42330771Y1652836D01*
X42256393Y1791987D01*
X42256392Y1791988D01*
X42216954Y1922000D01*
X42210590Y1942978D01*
X42199000Y2060656D01*
X42199000Y2639345D01*
X42210590Y2757023D01*
X42256392Y2908012D01*
X42256392Y2908013D01*
X42275607Y2943961D01*
X42330771Y3047165D01*
X42430868Y3169133D01*
X42552836Y3269229D01*
X42691988Y3343608D01*
X42756875Y3363291D01*
X42842978Y3389410D01*
X43000000Y3404875D01*
X43157023Y3389410D01*
X43157023Y3389410D01*
G37*
G36*
X47157023Y3389410D02*
G01*
X47243126Y3363291D01*
X47308013Y3343608D01*
X47447165Y3269229D01*
X47569133Y3169133D01*
X47669229Y3047165D01*
X47743608Y2908013D01*
X47743608Y2908012D01*
X47789410Y2757023D01*
X47801000Y2639345D01*
X47801000Y2060655D01*
X47789410Y1942977D01*
X47771090Y1882585D01*
X47743608Y1791987D01*
X47669230Y1652836D01*
X47669229Y1652835D01*
X47569133Y1530867D01*
X47447164Y1430771D01*
X47308012Y1356392D01*
X47257681Y1341125D01*
X47157022Y1310590D01*
X47000000Y1295125D01*
X46842977Y1310590D01*
X46742318Y1341125D01*
X46691987Y1356392D01*
X46552835Y1430771D01*
X46430867Y1530867D01*
X46330771Y1652836D01*
X46256393Y1791987D01*
X46256392Y1791988D01*
X46216954Y1922000D01*
X46210590Y1942978D01*
X46199000Y2060656D01*
X46199000Y2639345D01*
X46210590Y2757023D01*
X46256392Y2908012D01*
X46256392Y2908013D01*
X46275607Y2943961D01*
X46330771Y3047165D01*
X46430868Y3169133D01*
X46552836Y3269229D01*
X46691988Y3343608D01*
X46756875Y3363291D01*
X46842978Y3389410D01*
X47000000Y3404875D01*
X47157023Y3389410D01*
X47157023Y3389410D01*
G37*
G36*
X92157023Y3389410D02*
G01*
X92243126Y3363291D01*
X92308013Y3343608D01*
X92447165Y3269229D01*
X92569133Y3169133D01*
X92669229Y3047165D01*
X92743608Y2908013D01*
X92743608Y2908012D01*
X92789410Y2757023D01*
X92801000Y2639345D01*
X92801000Y2060655D01*
X92789410Y1942977D01*
X92771090Y1882585D01*
X92743608Y1791987D01*
X92669230Y1652836D01*
X92669229Y1652835D01*
X92569133Y1530867D01*
X92447164Y1430771D01*
X92308012Y1356392D01*
X92257681Y1341125D01*
X92157022Y1310590D01*
X92000000Y1295125D01*
X91842977Y1310590D01*
X91742318Y1341125D01*
X91691987Y1356392D01*
X91552835Y1430771D01*
X91430867Y1530867D01*
X91330771Y1652836D01*
X91256393Y1791987D01*
X91256392Y1791988D01*
X91216954Y1922000D01*
X91210590Y1942978D01*
X91199000Y2060656D01*
X91199000Y2639345D01*
X91210590Y2757023D01*
X91256392Y2908012D01*
X91256392Y2908013D01*
X91275607Y2943961D01*
X91330771Y3047165D01*
X91430868Y3169133D01*
X91552836Y3269229D01*
X91691988Y3343608D01*
X91756875Y3363291D01*
X91842978Y3389410D01*
X92000000Y3404875D01*
X92157023Y3389410D01*
X92157023Y3389410D01*
G37*
G36*
X61157023Y3389410D02*
G01*
X61243126Y3363291D01*
X61308013Y3343608D01*
X61447165Y3269229D01*
X61569133Y3169133D01*
X61669229Y3047165D01*
X61743608Y2908013D01*
X61743608Y2908012D01*
X61789410Y2757023D01*
X61801000Y2639345D01*
X61801000Y2060655D01*
X61789410Y1942977D01*
X61771090Y1882585D01*
X61743608Y1791987D01*
X61669230Y1652836D01*
X61669229Y1652835D01*
X61569133Y1530867D01*
X61447164Y1430771D01*
X61308012Y1356392D01*
X61257681Y1341125D01*
X61157022Y1310590D01*
X61000000Y1295125D01*
X60842977Y1310590D01*
X60742318Y1341125D01*
X60691987Y1356392D01*
X60552835Y1430771D01*
X60430867Y1530867D01*
X60330771Y1652836D01*
X60256393Y1791987D01*
X60256392Y1791988D01*
X60216954Y1922000D01*
X60210590Y1942978D01*
X60199000Y2060656D01*
X60199000Y2639345D01*
X60210590Y2757023D01*
X60256392Y2908012D01*
X60256392Y2908013D01*
X60275607Y2943961D01*
X60330771Y3047165D01*
X60430868Y3169133D01*
X60552836Y3269229D01*
X60691988Y3343608D01*
X60756875Y3363291D01*
X60842978Y3389410D01*
X61000000Y3404875D01*
X61157023Y3389410D01*
X61157023Y3389410D01*
G37*
G36*
X65157023Y3389410D02*
G01*
X65243126Y3363291D01*
X65308013Y3343608D01*
X65447165Y3269229D01*
X65569133Y3169133D01*
X65669229Y3047165D01*
X65743608Y2908013D01*
X65743608Y2908012D01*
X65789410Y2757023D01*
X65801000Y2639345D01*
X65801000Y2060655D01*
X65789410Y1942977D01*
X65771090Y1882585D01*
X65743608Y1791987D01*
X65669230Y1652836D01*
X65669229Y1652835D01*
X65569133Y1530867D01*
X65447164Y1430771D01*
X65308012Y1356392D01*
X65257681Y1341125D01*
X65157022Y1310590D01*
X65000000Y1295125D01*
X64842977Y1310590D01*
X64742318Y1341125D01*
X64691987Y1356392D01*
X64552835Y1430771D01*
X64430867Y1530867D01*
X64330771Y1652836D01*
X64256393Y1791987D01*
X64256392Y1791988D01*
X64216954Y1922000D01*
X64210590Y1942978D01*
X64199000Y2060656D01*
X64199000Y2639345D01*
X64210590Y2757023D01*
X64256392Y2908012D01*
X64256392Y2908013D01*
X64275607Y2943961D01*
X64330771Y3047165D01*
X64430868Y3169133D01*
X64552836Y3269229D01*
X64691988Y3343608D01*
X64756875Y3363291D01*
X64842978Y3389410D01*
X65000000Y3404875D01*
X65157023Y3389410D01*
X65157023Y3389410D01*
G37*
G36*
X70157023Y3389410D02*
G01*
X70243126Y3363291D01*
X70308013Y3343608D01*
X70447165Y3269229D01*
X70569133Y3169133D01*
X70669229Y3047165D01*
X70743608Y2908013D01*
X70743608Y2908012D01*
X70789410Y2757023D01*
X70801000Y2639345D01*
X70801000Y2060655D01*
X70789410Y1942977D01*
X70771090Y1882585D01*
X70743608Y1791987D01*
X70669230Y1652836D01*
X70669229Y1652835D01*
X70569133Y1530867D01*
X70447164Y1430771D01*
X70308012Y1356392D01*
X70257681Y1341125D01*
X70157022Y1310590D01*
X70000000Y1295125D01*
X69842977Y1310590D01*
X69742318Y1341125D01*
X69691987Y1356392D01*
X69552835Y1430771D01*
X69430867Y1530867D01*
X69330771Y1652836D01*
X69256393Y1791987D01*
X69256392Y1791988D01*
X69216954Y1922000D01*
X69210590Y1942978D01*
X69199000Y2060656D01*
X69199000Y2639345D01*
X69210590Y2757023D01*
X69256392Y2908012D01*
X69256392Y2908013D01*
X69275607Y2943961D01*
X69330771Y3047165D01*
X69430868Y3169133D01*
X69552836Y3269229D01*
X69691988Y3343608D01*
X69756875Y3363291D01*
X69842978Y3389410D01*
X70000000Y3404875D01*
X70157023Y3389410D01*
X70157023Y3389410D01*
G37*
G36*
X74157023Y3389410D02*
G01*
X74243126Y3363291D01*
X74308013Y3343608D01*
X74447165Y3269229D01*
X74569133Y3169133D01*
X74669229Y3047165D01*
X74743608Y2908013D01*
X74743608Y2908012D01*
X74789410Y2757023D01*
X74801000Y2639345D01*
X74801000Y2060655D01*
X74789410Y1942977D01*
X74771090Y1882585D01*
X74743608Y1791987D01*
X74669230Y1652836D01*
X74669229Y1652835D01*
X74569133Y1530867D01*
X74447164Y1430771D01*
X74308012Y1356392D01*
X74257681Y1341125D01*
X74157022Y1310590D01*
X74000000Y1295125D01*
X73842977Y1310590D01*
X73742318Y1341125D01*
X73691987Y1356392D01*
X73552835Y1430771D01*
X73430867Y1530867D01*
X73330771Y1652836D01*
X73256393Y1791987D01*
X73256392Y1791988D01*
X73216954Y1922000D01*
X73210590Y1942978D01*
X73199000Y2060656D01*
X73199000Y2639345D01*
X73210590Y2757023D01*
X73256392Y2908012D01*
X73256392Y2908013D01*
X73275607Y2943961D01*
X73330771Y3047165D01*
X73430868Y3169133D01*
X73552836Y3269229D01*
X73691988Y3343608D01*
X73756875Y3363291D01*
X73842978Y3389410D01*
X74000000Y3404875D01*
X74157023Y3389410D01*
X74157023Y3389410D01*
G37*
G36*
X79157023Y3389410D02*
G01*
X79243126Y3363291D01*
X79308013Y3343608D01*
X79447165Y3269229D01*
X79569133Y3169133D01*
X79669229Y3047165D01*
X79743608Y2908013D01*
X79743608Y2908012D01*
X79789410Y2757023D01*
X79801000Y2639345D01*
X79801000Y2060655D01*
X79789410Y1942977D01*
X79771090Y1882585D01*
X79743608Y1791987D01*
X79669230Y1652836D01*
X79669229Y1652835D01*
X79569133Y1530867D01*
X79447164Y1430771D01*
X79308012Y1356392D01*
X79257681Y1341125D01*
X79157022Y1310590D01*
X79000000Y1295125D01*
X78842977Y1310590D01*
X78742318Y1341125D01*
X78691987Y1356392D01*
X78552835Y1430771D01*
X78430867Y1530867D01*
X78330771Y1652836D01*
X78256393Y1791987D01*
X78256392Y1791988D01*
X78216954Y1922000D01*
X78210590Y1942978D01*
X78199000Y2060656D01*
X78199000Y2639345D01*
X78210590Y2757023D01*
X78256392Y2908012D01*
X78256392Y2908013D01*
X78275607Y2943961D01*
X78330771Y3047165D01*
X78430868Y3169133D01*
X78552836Y3269229D01*
X78691988Y3343608D01*
X78756875Y3363291D01*
X78842978Y3389410D01*
X79000000Y3404875D01*
X79157023Y3389410D01*
X79157023Y3389410D01*
G37*
G36*
X83157023Y3389410D02*
G01*
X83243126Y3363291D01*
X83308013Y3343608D01*
X83447165Y3269229D01*
X83569133Y3169133D01*
X83669229Y3047165D01*
X83743608Y2908013D01*
X83743608Y2908012D01*
X83789410Y2757023D01*
X83801000Y2639345D01*
X83801000Y2060655D01*
X83789410Y1942977D01*
X83771090Y1882585D01*
X83743608Y1791987D01*
X83669230Y1652836D01*
X83669229Y1652835D01*
X83569133Y1530867D01*
X83447164Y1430771D01*
X83308012Y1356392D01*
X83257681Y1341125D01*
X83157022Y1310590D01*
X83000000Y1295125D01*
X82842977Y1310590D01*
X82742318Y1341125D01*
X82691987Y1356392D01*
X82552835Y1430771D01*
X82430867Y1530867D01*
X82330771Y1652836D01*
X82256393Y1791987D01*
X82256392Y1791988D01*
X82216954Y1922000D01*
X82210590Y1942978D01*
X82199000Y2060656D01*
X82199000Y2639345D01*
X82210590Y2757023D01*
X82256392Y2908012D01*
X82256392Y2908013D01*
X82275607Y2943961D01*
X82330771Y3047165D01*
X82430868Y3169133D01*
X82552836Y3269229D01*
X82691988Y3343608D01*
X82756875Y3363291D01*
X82842978Y3389410D01*
X83000000Y3404875D01*
X83157023Y3389410D01*
X83157023Y3389410D01*
G37*
G36*
X88157023Y3389410D02*
G01*
X88243126Y3363291D01*
X88308013Y3343608D01*
X88447165Y3269229D01*
X88569133Y3169133D01*
X88669229Y3047165D01*
X88743608Y2908013D01*
X88743608Y2908012D01*
X88789410Y2757023D01*
X88801000Y2639345D01*
X88801000Y2060655D01*
X88789410Y1942977D01*
X88771090Y1882585D01*
X88743608Y1791987D01*
X88669230Y1652836D01*
X88669229Y1652835D01*
X88569133Y1530867D01*
X88447164Y1430771D01*
X88308012Y1356392D01*
X88257681Y1341125D01*
X88157022Y1310590D01*
X88000000Y1295125D01*
X87842977Y1310590D01*
X87742318Y1341125D01*
X87691987Y1356392D01*
X87552835Y1430771D01*
X87430867Y1530867D01*
X87330771Y1652836D01*
X87256393Y1791987D01*
X87256392Y1791988D01*
X87216954Y1922000D01*
X87210590Y1942978D01*
X87199000Y2060656D01*
X87199000Y2639345D01*
X87210590Y2757023D01*
X87256392Y2908012D01*
X87256392Y2908013D01*
X87275607Y2943961D01*
X87330771Y3047165D01*
X87430868Y3169133D01*
X87552836Y3269229D01*
X87691988Y3343608D01*
X87756875Y3363291D01*
X87842978Y3389410D01*
X88000000Y3404875D01*
X88157023Y3389410D01*
X88157023Y3389410D01*
G37*
G36*
X103380104Y3663415D02*
G01*
X103548626Y3593611D01*
X103700291Y3492272D01*
X103829272Y3363291D01*
X103930611Y3211626D01*
X104000415Y3043104D01*
X104036000Y2864203D01*
X104036000Y2681797D01*
X104000415Y2502896D01*
X103930611Y2334374D01*
X103829272Y2182709D01*
X103700291Y2053728D01*
X103548626Y1952389D01*
X103380104Y1882585D01*
X103201203Y1847000D01*
X103018797Y1847000D01*
X102839896Y1882585D01*
X102671374Y1952389D01*
X102519709Y2053728D01*
X102390728Y2182709D01*
X102289389Y2334374D01*
X102219585Y2502896D01*
X102184000Y2681797D01*
X102184000Y2864203D01*
X102219585Y3043104D01*
X102289389Y3211626D01*
X102390728Y3363291D01*
X102519709Y3492272D01*
X102671374Y3593611D01*
X102839896Y3663415D01*
X103018797Y3699000D01*
X103201203Y3699000D01*
X103380104Y3663415D01*
X103380104Y3663415D01*
G37*
G36*
X98880104Y3663415D02*
G01*
X99048626Y3593611D01*
X99200291Y3492272D01*
X99329272Y3363291D01*
X99430611Y3211626D01*
X99500415Y3043104D01*
X99536000Y2864203D01*
X99536000Y2681797D01*
X99500415Y2502896D01*
X99430611Y2334374D01*
X99329272Y2182709D01*
X99200291Y2053728D01*
X99048626Y1952389D01*
X98880104Y1882585D01*
X98701203Y1847000D01*
X98518797Y1847000D01*
X98339896Y1882585D01*
X98171374Y1952389D01*
X98019709Y2053728D01*
X97890728Y2182709D01*
X97789389Y2334374D01*
X97719585Y2502896D01*
X97684000Y2681797D01*
X97684000Y2864203D01*
X97719585Y3043104D01*
X97789389Y3211626D01*
X97890728Y3363291D01*
X98019709Y3492272D01*
X98171374Y3593611D01*
X98339896Y3663415D01*
X98518797Y3699000D01*
X98701203Y3699000D01*
X98880104Y3663415D01*
X98880104Y3663415D01*
G37*
G36*
X107803228Y3591297D02*
G01*
X107958100Y3527147D01*
X108097481Y3434015D01*
X108216015Y3315481D01*
X108309147Y3176100D01*
X108373297Y3021228D01*
X108406000Y2856816D01*
X108406000Y2689184D01*
X108373297Y2524772D01*
X108309147Y2369900D01*
X108216015Y2230519D01*
X108097481Y2111985D01*
X107958100Y2018853D01*
X107803228Y1954703D01*
X107638816Y1922000D01*
X107471184Y1922000D01*
X107306772Y1954703D01*
X107151900Y2018853D01*
X107012519Y2111985D01*
X106893985Y2230519D01*
X106800853Y2369900D01*
X106736703Y2524772D01*
X106704000Y2689184D01*
X106704000Y2856816D01*
X106736703Y3021228D01*
X106800853Y3176100D01*
X106893985Y3315481D01*
X107012519Y3434015D01*
X107151900Y3527147D01*
X107306772Y3591297D01*
X107471184Y3624000D01*
X107638816Y3624000D01*
X107803228Y3591297D01*
X107803228Y3591297D01*
G37*
G36*
X14483642Y4773719D02*
G01*
X14591996Y4728837D01*
X14629416Y4713337D01*
X14760608Y4625678D01*
X14872178Y4514108D01*
X14959837Y4382916D01*
X14959838Y4382914D01*
X15020219Y4237142D01*
X15051000Y4082393D01*
X15051000Y3924607D01*
X15020219Y3769858D01*
X14959838Y3624086D01*
X14959837Y3624084D01*
X14872178Y3492892D01*
X14760608Y3381322D01*
X14629416Y3293663D01*
X14629415Y3293662D01*
X14629414Y3293662D01*
X14483642Y3233281D01*
X14328893Y3202500D01*
X14171107Y3202500D01*
X14016358Y3233281D01*
X13870586Y3293662D01*
X13870585Y3293662D01*
X13870584Y3293663D01*
X13739392Y3381322D01*
X13627822Y3492892D01*
X13540163Y3624084D01*
X13540162Y3624086D01*
X13479781Y3769858D01*
X13449000Y3924607D01*
X13449000Y4082393D01*
X13479781Y4237142D01*
X13540162Y4382914D01*
X13540163Y4382916D01*
X13627822Y4514108D01*
X13739392Y4625678D01*
X13870584Y4713337D01*
X13908004Y4728837D01*
X14016358Y4773719D01*
X14171107Y4804500D01*
X14328893Y4804500D01*
X14483642Y4773719D01*
X14483642Y4773719D01*
G37*
G36*
X17551000Y3202500D02*
G01*
X15949000Y3202500D01*
X15949000Y4804500D01*
X17551000Y4804500D01*
X17551000Y3202500D01*
X17551000Y3202500D01*
G37*
G36*
X22631000Y3218000D02*
G01*
X21029000Y3218000D01*
X21029000Y4820000D01*
X22631000Y4820000D01*
X22631000Y3218000D01*
X22631000Y3218000D01*
G37*
G36*
X19563642Y4789219D02*
G01*
X19709414Y4728838D01*
X19709416Y4728837D01*
X19840608Y4641178D01*
X19952178Y4529608D01*
X20033568Y4407798D01*
X20039838Y4398414D01*
X20100219Y4252642D01*
X20131000Y4097893D01*
X20131000Y3940107D01*
X20100219Y3785358D01*
X20068018Y3707619D01*
X20039837Y3639584D01*
X19952178Y3508392D01*
X19840608Y3396822D01*
X19709416Y3309163D01*
X19709415Y3309162D01*
X19709414Y3309162D01*
X19563642Y3248781D01*
X19408893Y3218000D01*
X19251107Y3218000D01*
X19096358Y3248781D01*
X18950586Y3309162D01*
X18950585Y3309162D01*
X18950584Y3309163D01*
X18819392Y3396822D01*
X18707822Y3508392D01*
X18620163Y3639584D01*
X18591982Y3707619D01*
X18559781Y3785358D01*
X18529000Y3940107D01*
X18529000Y4097893D01*
X18559781Y4252642D01*
X18620162Y4398414D01*
X18626432Y4407798D01*
X18707822Y4529608D01*
X18819392Y4641178D01*
X18950584Y4728837D01*
X18950586Y4728838D01*
X19096358Y4789219D01*
X19251107Y4820000D01*
X19408893Y4820000D01*
X19563642Y4789219D01*
X19563642Y4789219D01*
G37*
G36*
X8216191Y9570273D02*
G01*
X8419113Y9529909D01*
X8992558Y9292380D01*
X9508645Y8947541D01*
X9947541Y8508645D01*
X10283624Y8005663D01*
X10292381Y7992556D01*
X10529909Y7419112D01*
X10651000Y6810348D01*
X10651000Y6189652D01*
X10570414Y5784520D01*
X10529909Y5580887D01*
X10292380Y5007442D01*
X9947541Y4491355D01*
X9508645Y4052459D01*
X8992558Y3707620D01*
X8992557Y3707619D01*
X8992556Y3707619D01*
X8828310Y3639586D01*
X8419113Y3470091D01*
X8237746Y3434015D01*
X7810348Y3349000D01*
X7189652Y3349000D01*
X6762254Y3434015D01*
X6580887Y3470091D01*
X6171690Y3639586D01*
X6007444Y3707619D01*
X6007443Y3707619D01*
X6007442Y3707620D01*
X5491355Y4052459D01*
X5052459Y4491355D01*
X4707620Y5007442D01*
X4470091Y5580887D01*
X4429586Y5784520D01*
X4349000Y6189652D01*
X4349000Y6810348D01*
X4470091Y7419112D01*
X4707619Y7992556D01*
X4716377Y8005663D01*
X5052459Y8508645D01*
X5491355Y8947541D01*
X6007442Y9292380D01*
X6580887Y9529909D01*
X6783809Y9570273D01*
X7189652Y9651000D01*
X7810348Y9651000D01*
X8216191Y9570273D01*
X8216191Y9570273D01*
G37*
G36*
X116216191Y9570273D02*
G01*
X116419113Y9529909D01*
X116992558Y9292380D01*
X117508645Y8947541D01*
X117947541Y8508645D01*
X118283624Y8005663D01*
X118292381Y7992556D01*
X118529909Y7419112D01*
X118651000Y6810348D01*
X118651000Y6189652D01*
X118570414Y5784520D01*
X118529909Y5580887D01*
X118292380Y5007442D01*
X117947541Y4491355D01*
X117508645Y4052459D01*
X116992558Y3707620D01*
X116992557Y3707619D01*
X116992556Y3707619D01*
X116828310Y3639586D01*
X116419113Y3470091D01*
X116237746Y3434015D01*
X115810348Y3349000D01*
X115189652Y3349000D01*
X114762254Y3434015D01*
X114580887Y3470091D01*
X114171690Y3639586D01*
X114007444Y3707619D01*
X114007443Y3707619D01*
X114007442Y3707620D01*
X113491355Y4052459D01*
X113052459Y4491355D01*
X112707620Y5007442D01*
X112470091Y5580887D01*
X112429586Y5784520D01*
X112349000Y6189652D01*
X112349000Y6810348D01*
X112470091Y7419112D01*
X112707619Y7992556D01*
X112716377Y8005663D01*
X113052459Y8508645D01*
X113491355Y8947541D01*
X114007442Y9292380D01*
X114580887Y9529909D01*
X114783809Y9570273D01*
X115189652Y9651000D01*
X115810348Y9651000D01*
X116216191Y9570273D01*
X116216191Y9570273D01*
G37*
G36*
X97564795Y6342844D02*
G01*
X97671150Y6321689D01*
X97771334Y6280191D01*
X97871520Y6238693D01*
X98051844Y6118205D01*
X98205205Y5964844D01*
X98325693Y5784520D01*
X98325693Y5784519D01*
X98408689Y5584150D01*
X98451000Y5371439D01*
X98451000Y5154561D01*
X98421737Y5007444D01*
X98408689Y4941851D01*
X98325693Y4741480D01*
X98205205Y4561156D01*
X98051844Y4407795D01*
X97871520Y4287307D01*
X97787833Y4252643D01*
X97671150Y4204311D01*
X97564794Y4183155D01*
X97458440Y4162000D01*
X97241560Y4162000D01*
X97135206Y4183155D01*
X97028850Y4204311D01*
X96912167Y4252643D01*
X96828480Y4287307D01*
X96648156Y4407795D01*
X96494795Y4561156D01*
X96374307Y4741480D01*
X96291311Y4941851D01*
X96278264Y5007444D01*
X96249000Y5154561D01*
X96249000Y5371439D01*
X96291311Y5584150D01*
X96374307Y5784519D01*
X96374307Y5784520D01*
X96494795Y5964844D01*
X96648156Y6118205D01*
X96828480Y6238693D01*
X97028850Y6321689D01*
X97135205Y6342844D01*
X97241560Y6364000D01*
X97458440Y6364000D01*
X97564795Y6342844D01*
X97564795Y6342844D01*
G37*
G36*
X104574795Y6342844D02*
G01*
X104681150Y6321689D01*
X104781334Y6280191D01*
X104881520Y6238693D01*
X105061844Y6118205D01*
X105215205Y5964844D01*
X105335693Y5784520D01*
X105335693Y5784519D01*
X105418689Y5584150D01*
X105461000Y5371439D01*
X105461000Y5154561D01*
X105431737Y5007444D01*
X105418689Y4941851D01*
X105335693Y4741480D01*
X105215205Y4561156D01*
X105061844Y4407795D01*
X104881520Y4287307D01*
X104797833Y4252643D01*
X104681150Y4204311D01*
X104574794Y4183155D01*
X104468440Y4162000D01*
X104251560Y4162000D01*
X104145206Y4183155D01*
X104038850Y4204311D01*
X103922167Y4252643D01*
X103838480Y4287307D01*
X103658156Y4407795D01*
X103504795Y4561156D01*
X103384307Y4741480D01*
X103301311Y4941851D01*
X103288264Y5007444D01*
X103259000Y5154561D01*
X103259000Y5371439D01*
X103301311Y5584150D01*
X103384307Y5784519D01*
X103384307Y5784520D01*
X103504795Y5964844D01*
X103658156Y6118205D01*
X103838480Y6238693D01*
X104038850Y6321689D01*
X104145205Y6342844D01*
X104251560Y6364000D01*
X104468440Y6364000D01*
X104574795Y6342844D01*
X104574795Y6342844D01*
G37*
G36*
X92339192Y8095354D02*
G01*
X92388414Y8080422D01*
X92433778Y8056174D01*
X92473542Y8023542D01*
X92506174Y7983778D01*
X92530422Y7938414D01*
X92545354Y7889192D01*
X92551000Y7831860D01*
X92551000Y6168140D01*
X92545354Y6110808D01*
X92530422Y6061586D01*
X92506174Y6016222D01*
X92473542Y5976458D01*
X92433778Y5943826D01*
X92388414Y5919578D01*
X92339192Y5904646D01*
X92281860Y5899000D01*
X91518140Y5899000D01*
X91460808Y5904646D01*
X91411586Y5919578D01*
X91366222Y5943826D01*
X91326458Y5976458D01*
X91293826Y6016222D01*
X91269578Y6061586D01*
X91254646Y6110808D01*
X91249000Y6168140D01*
X91249000Y7831860D01*
X91254646Y7889192D01*
X91269578Y7938414D01*
X91293826Y7983778D01*
X91326458Y8023542D01*
X91366222Y8056174D01*
X91411586Y8080422D01*
X91460808Y8095354D01*
X91518140Y8101000D01*
X92281860Y8101000D01*
X92339192Y8095354D01*
X92339192Y8095354D01*
G37*
G36*
X88539192Y8095354D02*
G01*
X88588414Y8080422D01*
X88633778Y8056174D01*
X88673542Y8023542D01*
X88706174Y7983778D01*
X88730422Y7938414D01*
X88745354Y7889192D01*
X88751000Y7831860D01*
X88751000Y6168140D01*
X88745354Y6110808D01*
X88730422Y6061586D01*
X88706174Y6016222D01*
X88673542Y5976458D01*
X88633778Y5943826D01*
X88588414Y5919578D01*
X88539192Y5904646D01*
X88481860Y5899000D01*
X87718140Y5899000D01*
X87660808Y5904646D01*
X87611586Y5919578D01*
X87566222Y5943826D01*
X87526458Y5976458D01*
X87493826Y6016222D01*
X87469578Y6061586D01*
X87454646Y6110808D01*
X87449000Y6168140D01*
X87449000Y7831860D01*
X87454646Y7889192D01*
X87469578Y7938414D01*
X87493826Y7983778D01*
X87526458Y8023542D01*
X87566222Y8056174D01*
X87611586Y8080422D01*
X87660808Y8095354D01*
X87718140Y8101000D01*
X88481860Y8101000D01*
X88539192Y8095354D01*
X88539192Y8095354D01*
G37*
G36*
X83339192Y8095354D02*
G01*
X83388414Y8080422D01*
X83433778Y8056174D01*
X83473542Y8023542D01*
X83506174Y7983778D01*
X83530422Y7938414D01*
X83545354Y7889192D01*
X83551000Y7831860D01*
X83551000Y6168140D01*
X83545354Y6110808D01*
X83530422Y6061586D01*
X83506174Y6016222D01*
X83473542Y5976458D01*
X83433778Y5943826D01*
X83388414Y5919578D01*
X83339192Y5904646D01*
X83281860Y5899000D01*
X82518140Y5899000D01*
X82460808Y5904646D01*
X82411586Y5919578D01*
X82366222Y5943826D01*
X82326458Y5976458D01*
X82293826Y6016222D01*
X82269578Y6061586D01*
X82254646Y6110808D01*
X82249000Y6168140D01*
X82249000Y7831860D01*
X82254646Y7889192D01*
X82269578Y7938414D01*
X82293826Y7983778D01*
X82326458Y8023542D01*
X82366222Y8056174D01*
X82411586Y8080422D01*
X82460808Y8095354D01*
X82518140Y8101000D01*
X83281860Y8101000D01*
X83339192Y8095354D01*
X83339192Y8095354D01*
G37*
G36*
X74339192Y8095354D02*
G01*
X74388414Y8080422D01*
X74433778Y8056174D01*
X74473542Y8023542D01*
X74506174Y7983778D01*
X74530422Y7938414D01*
X74545354Y7889192D01*
X74551000Y7831860D01*
X74551000Y6168140D01*
X74545354Y6110808D01*
X74530422Y6061586D01*
X74506174Y6016222D01*
X74473542Y5976458D01*
X74433778Y5943826D01*
X74388414Y5919578D01*
X74339192Y5904646D01*
X74281860Y5899000D01*
X73518140Y5899000D01*
X73460808Y5904646D01*
X73411586Y5919578D01*
X73366222Y5943826D01*
X73326458Y5976458D01*
X73293826Y6016222D01*
X73269578Y6061586D01*
X73254646Y6110808D01*
X73249000Y6168140D01*
X73249000Y7831860D01*
X73254646Y7889192D01*
X73269578Y7938414D01*
X73293826Y7983778D01*
X73326458Y8023542D01*
X73366222Y8056174D01*
X73411586Y8080422D01*
X73460808Y8095354D01*
X73518140Y8101000D01*
X74281860Y8101000D01*
X74339192Y8095354D01*
X74339192Y8095354D01*
G37*
G36*
X79539192Y8095354D02*
G01*
X79588414Y8080422D01*
X79633778Y8056174D01*
X79673542Y8023542D01*
X79706174Y7983778D01*
X79730422Y7938414D01*
X79745354Y7889192D01*
X79751000Y7831860D01*
X79751000Y6168140D01*
X79745354Y6110808D01*
X79730422Y6061586D01*
X79706174Y6016222D01*
X79673542Y5976458D01*
X79633778Y5943826D01*
X79588414Y5919578D01*
X79539192Y5904646D01*
X79481860Y5899000D01*
X78718140Y5899000D01*
X78660808Y5904646D01*
X78611586Y5919578D01*
X78566222Y5943826D01*
X78526458Y5976458D01*
X78493826Y6016222D01*
X78469578Y6061586D01*
X78454646Y6110808D01*
X78449000Y6168140D01*
X78449000Y7831860D01*
X78454646Y7889192D01*
X78469578Y7938414D01*
X78493826Y7983778D01*
X78526458Y8023542D01*
X78566222Y8056174D01*
X78611586Y8080422D01*
X78660808Y8095354D01*
X78718140Y8101000D01*
X79481860Y8101000D01*
X79539192Y8095354D01*
X79539192Y8095354D01*
G37*
G36*
X70539192Y8095354D02*
G01*
X70588414Y8080422D01*
X70633778Y8056174D01*
X70673542Y8023542D01*
X70706174Y7983778D01*
X70730422Y7938414D01*
X70745354Y7889192D01*
X70751000Y7831860D01*
X70751000Y6168140D01*
X70745354Y6110808D01*
X70730422Y6061586D01*
X70706174Y6016222D01*
X70673542Y5976458D01*
X70633778Y5943826D01*
X70588414Y5919578D01*
X70539192Y5904646D01*
X70481860Y5899000D01*
X69718140Y5899000D01*
X69660808Y5904646D01*
X69611586Y5919578D01*
X69566222Y5943826D01*
X69526458Y5976458D01*
X69493826Y6016222D01*
X69469578Y6061586D01*
X69454646Y6110808D01*
X69449000Y6168140D01*
X69449000Y7831860D01*
X69454646Y7889192D01*
X69469578Y7938414D01*
X69493826Y7983778D01*
X69526458Y8023542D01*
X69566222Y8056174D01*
X69611586Y8080422D01*
X69660808Y8095354D01*
X69718140Y8101000D01*
X70481860Y8101000D01*
X70539192Y8095354D01*
X70539192Y8095354D01*
G37*
G36*
X25539192Y8095354D02*
G01*
X25588414Y8080422D01*
X25633778Y8056174D01*
X25673542Y8023542D01*
X25706174Y7983778D01*
X25730422Y7938414D01*
X25745354Y7889192D01*
X25751000Y7831860D01*
X25751000Y6168140D01*
X25745354Y6110808D01*
X25730422Y6061586D01*
X25706174Y6016222D01*
X25673542Y5976458D01*
X25633778Y5943826D01*
X25588414Y5919578D01*
X25539192Y5904646D01*
X25481860Y5899000D01*
X24718140Y5899000D01*
X24660808Y5904646D01*
X24611586Y5919578D01*
X24566222Y5943826D01*
X24526458Y5976458D01*
X24493826Y6016222D01*
X24469578Y6061586D01*
X24454646Y6110808D01*
X24449000Y6168140D01*
X24449000Y7831860D01*
X24454646Y7889192D01*
X24469578Y7938414D01*
X24493826Y7983778D01*
X24526458Y8023542D01*
X24566222Y8056174D01*
X24611586Y8080422D01*
X24660808Y8095354D01*
X24718140Y8101000D01*
X25481860Y8101000D01*
X25539192Y8095354D01*
X25539192Y8095354D01*
G37*
G36*
X61539192Y8095354D02*
G01*
X61588414Y8080422D01*
X61633778Y8056174D01*
X61673542Y8023542D01*
X61706174Y7983778D01*
X61730422Y7938414D01*
X61745354Y7889192D01*
X61751000Y7831860D01*
X61751000Y6168140D01*
X61745354Y6110808D01*
X61730422Y6061586D01*
X61706174Y6016222D01*
X61673542Y5976458D01*
X61633778Y5943826D01*
X61588414Y5919578D01*
X61539192Y5904646D01*
X61481860Y5899000D01*
X60718140Y5899000D01*
X60660808Y5904646D01*
X60611586Y5919578D01*
X60566222Y5943826D01*
X60526458Y5976458D01*
X60493826Y6016222D01*
X60469578Y6061586D01*
X60454646Y6110808D01*
X60449000Y6168140D01*
X60449000Y7831860D01*
X60454646Y7889192D01*
X60469578Y7938414D01*
X60493826Y7983778D01*
X60526458Y8023542D01*
X60566222Y8056174D01*
X60611586Y8080422D01*
X60660808Y8095354D01*
X60718140Y8101000D01*
X61481860Y8101000D01*
X61539192Y8095354D01*
X61539192Y8095354D01*
G37*
G36*
X38339192Y8095354D02*
G01*
X38388414Y8080422D01*
X38433778Y8056174D01*
X38473542Y8023542D01*
X38506174Y7983778D01*
X38530422Y7938414D01*
X38545354Y7889192D01*
X38551000Y7831860D01*
X38551000Y6168140D01*
X38545354Y6110808D01*
X38530422Y6061586D01*
X38506174Y6016222D01*
X38473542Y5976458D01*
X38433778Y5943826D01*
X38388414Y5919578D01*
X38339192Y5904646D01*
X38281860Y5899000D01*
X37518140Y5899000D01*
X37460808Y5904646D01*
X37411586Y5919578D01*
X37366222Y5943826D01*
X37326458Y5976458D01*
X37293826Y6016222D01*
X37269578Y6061586D01*
X37254646Y6110808D01*
X37249000Y6168140D01*
X37249000Y7831860D01*
X37254646Y7889192D01*
X37269578Y7938414D01*
X37293826Y7983778D01*
X37326458Y8023542D01*
X37366222Y8056174D01*
X37411586Y8080422D01*
X37460808Y8095354D01*
X37518140Y8101000D01*
X38281860Y8101000D01*
X38339192Y8095354D01*
X38339192Y8095354D01*
G37*
G36*
X56339192Y8095354D02*
G01*
X56388414Y8080422D01*
X56433778Y8056174D01*
X56473542Y8023542D01*
X56506174Y7983778D01*
X56530422Y7938414D01*
X56545354Y7889192D01*
X56551000Y7831860D01*
X56551000Y6168140D01*
X56545354Y6110808D01*
X56530422Y6061586D01*
X56506174Y6016222D01*
X56473542Y5976458D01*
X56433778Y5943826D01*
X56388414Y5919578D01*
X56339192Y5904646D01*
X56281860Y5899000D01*
X55518140Y5899000D01*
X55460808Y5904646D01*
X55411586Y5919578D01*
X55366222Y5943826D01*
X55326458Y5976458D01*
X55293826Y6016222D01*
X55269578Y6061586D01*
X55254646Y6110808D01*
X55249000Y6168140D01*
X55249000Y7831860D01*
X55254646Y7889192D01*
X55269578Y7938414D01*
X55293826Y7983778D01*
X55326458Y8023542D01*
X55366222Y8056174D01*
X55411586Y8080422D01*
X55460808Y8095354D01*
X55518140Y8101000D01*
X56281860Y8101000D01*
X56339192Y8095354D01*
X56339192Y8095354D01*
G37*
G36*
X65339192Y8095354D02*
G01*
X65388414Y8080422D01*
X65433778Y8056174D01*
X65473542Y8023542D01*
X65506174Y7983778D01*
X65530422Y7938414D01*
X65545354Y7889192D01*
X65551000Y7831860D01*
X65551000Y6168140D01*
X65545354Y6110808D01*
X65530422Y6061586D01*
X65506174Y6016222D01*
X65473542Y5976458D01*
X65433778Y5943826D01*
X65388414Y5919578D01*
X65339192Y5904646D01*
X65281860Y5899000D01*
X64518140Y5899000D01*
X64460808Y5904646D01*
X64411586Y5919578D01*
X64366222Y5943826D01*
X64326458Y5976458D01*
X64293826Y6016222D01*
X64269578Y6061586D01*
X64254646Y6110808D01*
X64249000Y6168140D01*
X64249000Y7831860D01*
X64254646Y7889192D01*
X64269578Y7938414D01*
X64293826Y7983778D01*
X64326458Y8023542D01*
X64366222Y8056174D01*
X64411586Y8080422D01*
X64460808Y8095354D01*
X64518140Y8101000D01*
X65281860Y8101000D01*
X65339192Y8095354D01*
X65339192Y8095354D01*
G37*
G36*
X43539192Y8095354D02*
G01*
X43588414Y8080422D01*
X43633778Y8056174D01*
X43673542Y8023542D01*
X43706174Y7983778D01*
X43730422Y7938414D01*
X43745354Y7889192D01*
X43751000Y7831860D01*
X43751000Y6168140D01*
X43745354Y6110808D01*
X43730422Y6061586D01*
X43706174Y6016222D01*
X43673542Y5976458D01*
X43633778Y5943826D01*
X43588414Y5919578D01*
X43539192Y5904646D01*
X43481860Y5899000D01*
X42718140Y5899000D01*
X42660808Y5904646D01*
X42611586Y5919578D01*
X42566222Y5943826D01*
X42526458Y5976458D01*
X42493826Y6016222D01*
X42469578Y6061586D01*
X42454646Y6110808D01*
X42449000Y6168140D01*
X42449000Y7831860D01*
X42454646Y7889192D01*
X42469578Y7938414D01*
X42493826Y7983778D01*
X42526458Y8023542D01*
X42566222Y8056174D01*
X42611586Y8080422D01*
X42660808Y8095354D01*
X42718140Y8101000D01*
X43481860Y8101000D01*
X43539192Y8095354D01*
X43539192Y8095354D01*
G37*
G36*
X29339192Y8095354D02*
G01*
X29388414Y8080422D01*
X29433778Y8056174D01*
X29473542Y8023542D01*
X29506174Y7983778D01*
X29530422Y7938414D01*
X29545354Y7889192D01*
X29551000Y7831860D01*
X29551000Y6168140D01*
X29545354Y6110808D01*
X29530422Y6061586D01*
X29506174Y6016222D01*
X29473542Y5976458D01*
X29433778Y5943826D01*
X29388414Y5919578D01*
X29339192Y5904646D01*
X29281860Y5899000D01*
X28518140Y5899000D01*
X28460808Y5904646D01*
X28411586Y5919578D01*
X28366222Y5943826D01*
X28326458Y5976458D01*
X28293826Y6016222D01*
X28269578Y6061586D01*
X28254646Y6110808D01*
X28249000Y6168140D01*
X28249000Y7831860D01*
X28254646Y7889192D01*
X28269578Y7938414D01*
X28293826Y7983778D01*
X28326458Y8023542D01*
X28366222Y8056174D01*
X28411586Y8080422D01*
X28460808Y8095354D01*
X28518140Y8101000D01*
X29281860Y8101000D01*
X29339192Y8095354D01*
X29339192Y8095354D01*
G37*
G36*
X52539192Y8095354D02*
G01*
X52588414Y8080422D01*
X52633778Y8056174D01*
X52673542Y8023542D01*
X52706174Y7983778D01*
X52730422Y7938414D01*
X52745354Y7889192D01*
X52751000Y7831860D01*
X52751000Y6168140D01*
X52745354Y6110808D01*
X52730422Y6061586D01*
X52706174Y6016222D01*
X52673542Y5976458D01*
X52633778Y5943826D01*
X52588414Y5919578D01*
X52539192Y5904646D01*
X52481860Y5899000D01*
X51718140Y5899000D01*
X51660808Y5904646D01*
X51611586Y5919578D01*
X51566222Y5943826D01*
X51526458Y5976458D01*
X51493826Y6016222D01*
X51469578Y6061586D01*
X51454646Y6110808D01*
X51449000Y6168140D01*
X51449000Y7831860D01*
X51454646Y7889192D01*
X51469578Y7938414D01*
X51493826Y7983778D01*
X51526458Y8023542D01*
X51566222Y8056174D01*
X51611586Y8080422D01*
X51660808Y8095354D01*
X51718140Y8101000D01*
X52481860Y8101000D01*
X52539192Y8095354D01*
X52539192Y8095354D01*
G37*
G36*
X34539192Y8095354D02*
G01*
X34588414Y8080422D01*
X34633778Y8056174D01*
X34673542Y8023542D01*
X34706174Y7983778D01*
X34730422Y7938414D01*
X34745354Y7889192D01*
X34751000Y7831860D01*
X34751000Y6168140D01*
X34745354Y6110808D01*
X34730422Y6061586D01*
X34706174Y6016222D01*
X34673542Y5976458D01*
X34633778Y5943826D01*
X34588414Y5919578D01*
X34539192Y5904646D01*
X34481860Y5899000D01*
X33718140Y5899000D01*
X33660808Y5904646D01*
X33611586Y5919578D01*
X33566222Y5943826D01*
X33526458Y5976458D01*
X33493826Y6016222D01*
X33469578Y6061586D01*
X33454646Y6110808D01*
X33449000Y6168140D01*
X33449000Y7831860D01*
X33454646Y7889192D01*
X33469578Y7938414D01*
X33493826Y7983778D01*
X33526458Y8023542D01*
X33566222Y8056174D01*
X33611586Y8080422D01*
X33660808Y8095354D01*
X33718140Y8101000D01*
X34481860Y8101000D01*
X34539192Y8095354D01*
X34539192Y8095354D01*
G37*
G36*
X47339192Y8095354D02*
G01*
X47388414Y8080422D01*
X47433778Y8056174D01*
X47473542Y8023542D01*
X47506174Y7983778D01*
X47530422Y7938414D01*
X47545354Y7889192D01*
X47551000Y7831860D01*
X47551000Y6168140D01*
X47545354Y6110808D01*
X47530422Y6061586D01*
X47506174Y6016222D01*
X47473542Y5976458D01*
X47433778Y5943826D01*
X47388414Y5919578D01*
X47339192Y5904646D01*
X47281860Y5899000D01*
X46518140Y5899000D01*
X46460808Y5904646D01*
X46411586Y5919578D01*
X46366222Y5943826D01*
X46326458Y5976458D01*
X46293826Y6016222D01*
X46269578Y6061586D01*
X46254646Y6110808D01*
X46249000Y6168140D01*
X46249000Y7831860D01*
X46254646Y7889192D01*
X46269578Y7938414D01*
X46293826Y7983778D01*
X46326458Y8023542D01*
X46366222Y8056174D01*
X46411586Y8080422D01*
X46460808Y8095354D01*
X46518140Y8101000D01*
X47281860Y8101000D01*
X47339192Y8095354D01*
X47339192Y8095354D01*
G37*
G36*
X45889192Y10745354D02*
G01*
X45938414Y10730422D01*
X45983778Y10706174D01*
X46023542Y10673542D01*
X46056174Y10633778D01*
X46080422Y10588414D01*
X46095354Y10539192D01*
X46101000Y10481860D01*
X46101000Y9718140D01*
X46095354Y9660808D01*
X46080422Y9611586D01*
X46056174Y9566222D01*
X46023542Y9526458D01*
X45983778Y9493826D01*
X45938414Y9469578D01*
X45889192Y9454646D01*
X45831860Y9449000D01*
X44168140Y9449000D01*
X44110808Y9454646D01*
X44061586Y9469578D01*
X44016222Y9493826D01*
X43976458Y9526458D01*
X43943826Y9566222D01*
X43919578Y9611586D01*
X43904646Y9660808D01*
X43899000Y9718140D01*
X43899000Y10481860D01*
X43904646Y10539192D01*
X43919578Y10588414D01*
X43943826Y10633778D01*
X43976458Y10673542D01*
X44016222Y10706174D01*
X44061586Y10730422D01*
X44110808Y10745354D01*
X44168140Y10751000D01*
X45831860Y10751000D01*
X45889192Y10745354D01*
X45889192Y10745354D01*
G37*
G36*
X27889192Y10745354D02*
G01*
X27938414Y10730422D01*
X27983778Y10706174D01*
X28023542Y10673542D01*
X28056174Y10633778D01*
X28080422Y10588414D01*
X28095354Y10539192D01*
X28101000Y10481860D01*
X28101000Y9718140D01*
X28095354Y9660808D01*
X28080422Y9611586D01*
X28056174Y9566222D01*
X28023542Y9526458D01*
X27983778Y9493826D01*
X27938414Y9469578D01*
X27889192Y9454646D01*
X27831860Y9449000D01*
X26168140Y9449000D01*
X26110808Y9454646D01*
X26061586Y9469578D01*
X26016222Y9493826D01*
X25976458Y9526458D01*
X25943826Y9566222D01*
X25919578Y9611586D01*
X25904646Y9660808D01*
X25899000Y9718140D01*
X25899000Y10481860D01*
X25904646Y10539192D01*
X25919578Y10588414D01*
X25943826Y10633778D01*
X25976458Y10673542D01*
X26016222Y10706174D01*
X26061586Y10730422D01*
X26110808Y10745354D01*
X26168140Y10751000D01*
X27831860Y10751000D01*
X27889192Y10745354D01*
X27889192Y10745354D01*
G37*
G36*
X54889192Y10745354D02*
G01*
X54938414Y10730422D01*
X54983778Y10706174D01*
X55023542Y10673542D01*
X55056174Y10633778D01*
X55080422Y10588414D01*
X55095354Y10539192D01*
X55101000Y10481860D01*
X55101000Y9718140D01*
X55095354Y9660808D01*
X55080422Y9611586D01*
X55056174Y9566222D01*
X55023542Y9526458D01*
X54983778Y9493826D01*
X54938414Y9469578D01*
X54889192Y9454646D01*
X54831860Y9449000D01*
X53168140Y9449000D01*
X53110808Y9454646D01*
X53061586Y9469578D01*
X53016222Y9493826D01*
X52976458Y9526458D01*
X52943826Y9566222D01*
X52919578Y9611586D01*
X52904646Y9660808D01*
X52899000Y9718140D01*
X52899000Y10481860D01*
X52904646Y10539192D01*
X52919578Y10588414D01*
X52943826Y10633778D01*
X52976458Y10673542D01*
X53016222Y10706174D01*
X53061586Y10730422D01*
X53110808Y10745354D01*
X53168140Y10751000D01*
X54831860Y10751000D01*
X54889192Y10745354D01*
X54889192Y10745354D01*
G37*
G36*
X81889192Y10745354D02*
G01*
X81938414Y10730422D01*
X81983778Y10706174D01*
X82023542Y10673542D01*
X82056174Y10633778D01*
X82080422Y10588414D01*
X82095354Y10539192D01*
X82101000Y10481860D01*
X82101000Y9718140D01*
X82095354Y9660808D01*
X82080422Y9611586D01*
X82056174Y9566222D01*
X82023542Y9526458D01*
X81983778Y9493826D01*
X81938414Y9469578D01*
X81889192Y9454646D01*
X81831860Y9449000D01*
X80168140Y9449000D01*
X80110808Y9454646D01*
X80061586Y9469578D01*
X80016222Y9493826D01*
X79976458Y9526458D01*
X79943826Y9566222D01*
X79919578Y9611586D01*
X79904646Y9660808D01*
X79899000Y9718140D01*
X79899000Y10481860D01*
X79904646Y10539192D01*
X79919578Y10588414D01*
X79943826Y10633778D01*
X79976458Y10673542D01*
X80016222Y10706174D01*
X80061586Y10730422D01*
X80110808Y10745354D01*
X80168140Y10751000D01*
X81831860Y10751000D01*
X81889192Y10745354D01*
X81889192Y10745354D01*
G37*
G36*
X90889192Y10745354D02*
G01*
X90938414Y10730422D01*
X90983778Y10706174D01*
X91023542Y10673542D01*
X91056174Y10633778D01*
X91080422Y10588414D01*
X91095354Y10539192D01*
X91101000Y10481860D01*
X91101000Y9718140D01*
X91095354Y9660808D01*
X91080422Y9611586D01*
X91056174Y9566222D01*
X91023542Y9526458D01*
X90983778Y9493826D01*
X90938414Y9469578D01*
X90889192Y9454646D01*
X90831860Y9449000D01*
X89168140Y9449000D01*
X89110808Y9454646D01*
X89061586Y9469578D01*
X89016222Y9493826D01*
X88976458Y9526458D01*
X88943826Y9566222D01*
X88919578Y9611586D01*
X88904646Y9660808D01*
X88899000Y9718140D01*
X88899000Y10481860D01*
X88904646Y10539192D01*
X88919578Y10588414D01*
X88943826Y10633778D01*
X88976458Y10673542D01*
X89016222Y10706174D01*
X89061586Y10730422D01*
X89110808Y10745354D01*
X89168140Y10751000D01*
X90831860Y10751000D01*
X90889192Y10745354D01*
X90889192Y10745354D01*
G37*
G36*
X36889192Y10745354D02*
G01*
X36938414Y10730422D01*
X36983778Y10706174D01*
X37023542Y10673542D01*
X37056174Y10633778D01*
X37080422Y10588414D01*
X37095354Y10539192D01*
X37101000Y10481860D01*
X37101000Y9718140D01*
X37095354Y9660808D01*
X37080422Y9611586D01*
X37056174Y9566222D01*
X37023542Y9526458D01*
X36983778Y9493826D01*
X36938414Y9469578D01*
X36889192Y9454646D01*
X36831860Y9449000D01*
X35168140Y9449000D01*
X35110808Y9454646D01*
X35061586Y9469578D01*
X35016222Y9493826D01*
X34976458Y9526458D01*
X34943826Y9566222D01*
X34919578Y9611586D01*
X34904646Y9660808D01*
X34899000Y9718140D01*
X34899000Y10481860D01*
X34904646Y10539192D01*
X34919578Y10588414D01*
X34943826Y10633778D01*
X34976458Y10673542D01*
X35016222Y10706174D01*
X35061586Y10730422D01*
X35110808Y10745354D01*
X35168140Y10751000D01*
X36831860Y10751000D01*
X36889192Y10745354D01*
X36889192Y10745354D01*
G37*
G36*
X72889192Y10745354D02*
G01*
X72938414Y10730422D01*
X72983778Y10706174D01*
X73023542Y10673542D01*
X73056174Y10633778D01*
X73080422Y10588414D01*
X73095354Y10539192D01*
X73101000Y10481860D01*
X73101000Y9718140D01*
X73095354Y9660808D01*
X73080422Y9611586D01*
X73056174Y9566222D01*
X73023542Y9526458D01*
X72983778Y9493826D01*
X72938414Y9469578D01*
X72889192Y9454646D01*
X72831860Y9449000D01*
X71168140Y9449000D01*
X71110808Y9454646D01*
X71061586Y9469578D01*
X71016222Y9493826D01*
X70976458Y9526458D01*
X70943826Y9566222D01*
X70919578Y9611586D01*
X70904646Y9660808D01*
X70899000Y9718140D01*
X70899000Y10481860D01*
X70904646Y10539192D01*
X70919578Y10588414D01*
X70943826Y10633778D01*
X70976458Y10673542D01*
X71016222Y10706174D01*
X71061586Y10730422D01*
X71110808Y10745354D01*
X71168140Y10751000D01*
X72831860Y10751000D01*
X72889192Y10745354D01*
X72889192Y10745354D01*
G37*
G36*
X63889192Y10745354D02*
G01*
X63938414Y10730422D01*
X63983778Y10706174D01*
X64023542Y10673542D01*
X64056174Y10633778D01*
X64080422Y10588414D01*
X64095354Y10539192D01*
X64101000Y10481860D01*
X64101000Y9718140D01*
X64095354Y9660808D01*
X64080422Y9611586D01*
X64056174Y9566222D01*
X64023542Y9526458D01*
X63983778Y9493826D01*
X63938414Y9469578D01*
X63889192Y9454646D01*
X63831860Y9449000D01*
X62168140Y9449000D01*
X62110808Y9454646D01*
X62061586Y9469578D01*
X62016222Y9493826D01*
X61976458Y9526458D01*
X61943826Y9566222D01*
X61919578Y9611586D01*
X61904646Y9660808D01*
X61899000Y9718140D01*
X61899000Y10481860D01*
X61904646Y10539192D01*
X61919578Y10588414D01*
X61943826Y10633778D01*
X61976458Y10673542D01*
X62016222Y10706174D01*
X62061586Y10730422D01*
X62110808Y10745354D01*
X62168140Y10751000D01*
X63831860Y10751000D01*
X63889192Y10745354D01*
X63889192Y10745354D01*
G37*
G36*
X63233642Y13270219D02*
G01*
X63379414Y13209838D01*
X63379416Y13209837D01*
X63510608Y13122178D01*
X63622178Y13010608D01*
X63709837Y12879416D01*
X63709838Y12879414D01*
X63770219Y12733642D01*
X63801000Y12578893D01*
X63801000Y12421107D01*
X63770219Y12266358D01*
X63751843Y12221995D01*
X63709837Y12120584D01*
X63622178Y11989392D01*
X63510608Y11877822D01*
X63379416Y11790163D01*
X63379415Y11790162D01*
X63379414Y11790162D01*
X63233642Y11729781D01*
X63078893Y11699000D01*
X62921107Y11699000D01*
X62766358Y11729781D01*
X62620586Y11790162D01*
X62620585Y11790162D01*
X62620584Y11790163D01*
X62489392Y11877822D01*
X62377822Y11989392D01*
X62290163Y12120584D01*
X62248157Y12221995D01*
X62229781Y12266358D01*
X62199000Y12421107D01*
X62199000Y12578893D01*
X62229781Y12733642D01*
X62290162Y12879414D01*
X62290163Y12879416D01*
X62377822Y13010608D01*
X62489392Y13122178D01*
X62620584Y13209837D01*
X62620586Y13209838D01*
X62766358Y13270219D01*
X62921107Y13301000D01*
X63078893Y13301000D01*
X63233642Y13270219D01*
X63233642Y13270219D01*
G37*
G36*
X90233642Y13270219D02*
G01*
X90379414Y13209838D01*
X90379416Y13209837D01*
X90510608Y13122178D01*
X90622178Y13010608D01*
X90709837Y12879416D01*
X90709838Y12879414D01*
X90770219Y12733642D01*
X90801000Y12578893D01*
X90801000Y12421107D01*
X90770219Y12266358D01*
X90751843Y12221995D01*
X90709837Y12120584D01*
X90622178Y11989392D01*
X90510608Y11877822D01*
X90379416Y11790163D01*
X90379415Y11790162D01*
X90379414Y11790162D01*
X90233642Y11729781D01*
X90078893Y11699000D01*
X89921107Y11699000D01*
X89766358Y11729781D01*
X89620586Y11790162D01*
X89620585Y11790162D01*
X89620584Y11790163D01*
X89489392Y11877822D01*
X89377822Y11989392D01*
X89290163Y12120584D01*
X89248157Y12221995D01*
X89229781Y12266358D01*
X89199000Y12421107D01*
X89199000Y12578893D01*
X89229781Y12733642D01*
X89290162Y12879414D01*
X89290163Y12879416D01*
X89377822Y13010608D01*
X89489392Y13122178D01*
X89620584Y13209837D01*
X89620586Y13209838D01*
X89766358Y13270219D01*
X89921107Y13301000D01*
X90078893Y13301000D01*
X90233642Y13270219D01*
X90233642Y13270219D01*
G37*
G36*
X81233642Y13270219D02*
G01*
X81379414Y13209838D01*
X81379416Y13209837D01*
X81510608Y13122178D01*
X81622178Y13010608D01*
X81709837Y12879416D01*
X81709838Y12879414D01*
X81770219Y12733642D01*
X81801000Y12578893D01*
X81801000Y12421107D01*
X81770219Y12266358D01*
X81751843Y12221995D01*
X81709837Y12120584D01*
X81622178Y11989392D01*
X81510608Y11877822D01*
X81379416Y11790163D01*
X81379415Y11790162D01*
X81379414Y11790162D01*
X81233642Y11729781D01*
X81078893Y11699000D01*
X80921107Y11699000D01*
X80766358Y11729781D01*
X80620586Y11790162D01*
X80620585Y11790162D01*
X80620584Y11790163D01*
X80489392Y11877822D01*
X80377822Y11989392D01*
X80290163Y12120584D01*
X80248157Y12221995D01*
X80229781Y12266358D01*
X80199000Y12421107D01*
X80199000Y12578893D01*
X80229781Y12733642D01*
X80290162Y12879414D01*
X80290163Y12879416D01*
X80377822Y13010608D01*
X80489392Y13122178D01*
X80620584Y13209837D01*
X80620586Y13209838D01*
X80766358Y13270219D01*
X80921107Y13301000D01*
X81078893Y13301000D01*
X81233642Y13270219D01*
X81233642Y13270219D01*
G37*
G36*
X72233642Y13270219D02*
G01*
X72379414Y13209838D01*
X72379416Y13209837D01*
X72510608Y13122178D01*
X72622178Y13010608D01*
X72709837Y12879416D01*
X72709838Y12879414D01*
X72770219Y12733642D01*
X72801000Y12578893D01*
X72801000Y12421107D01*
X72770219Y12266358D01*
X72751843Y12221995D01*
X72709837Y12120584D01*
X72622178Y11989392D01*
X72510608Y11877822D01*
X72379416Y11790163D01*
X72379415Y11790162D01*
X72379414Y11790162D01*
X72233642Y11729781D01*
X72078893Y11699000D01*
X71921107Y11699000D01*
X71766358Y11729781D01*
X71620586Y11790162D01*
X71620585Y11790162D01*
X71620584Y11790163D01*
X71489392Y11877822D01*
X71377822Y11989392D01*
X71290163Y12120584D01*
X71248157Y12221995D01*
X71229781Y12266358D01*
X71199000Y12421107D01*
X71199000Y12578893D01*
X71229781Y12733642D01*
X71290162Y12879414D01*
X71290163Y12879416D01*
X71377822Y13010608D01*
X71489392Y13122178D01*
X71620584Y13209837D01*
X71620586Y13209838D01*
X71766358Y13270219D01*
X71921107Y13301000D01*
X72078893Y13301000D01*
X72233642Y13270219D01*
X72233642Y13270219D01*
G37*
G36*
X54233642Y13270219D02*
G01*
X54379414Y13209838D01*
X54379416Y13209837D01*
X54510608Y13122178D01*
X54622178Y13010608D01*
X54709837Y12879416D01*
X54709838Y12879414D01*
X54770219Y12733642D01*
X54801000Y12578893D01*
X54801000Y12421107D01*
X54770219Y12266358D01*
X54751843Y12221995D01*
X54709837Y12120584D01*
X54622178Y11989392D01*
X54510608Y11877822D01*
X54379416Y11790163D01*
X54379415Y11790162D01*
X54379414Y11790162D01*
X54233642Y11729781D01*
X54078893Y11699000D01*
X53921107Y11699000D01*
X53766358Y11729781D01*
X53620586Y11790162D01*
X53620585Y11790162D01*
X53620584Y11790163D01*
X53489392Y11877822D01*
X53377822Y11989392D01*
X53290163Y12120584D01*
X53248157Y12221995D01*
X53229781Y12266358D01*
X53199000Y12421107D01*
X53199000Y12578893D01*
X53229781Y12733642D01*
X53290162Y12879414D01*
X53290163Y12879416D01*
X53377822Y13010608D01*
X53489392Y13122178D01*
X53620584Y13209837D01*
X53620586Y13209838D01*
X53766358Y13270219D01*
X53921107Y13301000D01*
X54078893Y13301000D01*
X54233642Y13270219D01*
X54233642Y13270219D01*
G37*
G36*
X45233642Y13270219D02*
G01*
X45379414Y13209838D01*
X45379416Y13209837D01*
X45510608Y13122178D01*
X45622178Y13010608D01*
X45709837Y12879416D01*
X45709838Y12879414D01*
X45770219Y12733642D01*
X45801000Y12578893D01*
X45801000Y12421107D01*
X45770219Y12266358D01*
X45751843Y12221995D01*
X45709837Y12120584D01*
X45622178Y11989392D01*
X45510608Y11877822D01*
X45379416Y11790163D01*
X45379415Y11790162D01*
X45379414Y11790162D01*
X45233642Y11729781D01*
X45078893Y11699000D01*
X44921107Y11699000D01*
X44766358Y11729781D01*
X44620586Y11790162D01*
X44620585Y11790162D01*
X44620584Y11790163D01*
X44489392Y11877822D01*
X44377822Y11989392D01*
X44290163Y12120584D01*
X44248157Y12221995D01*
X44229781Y12266358D01*
X44199000Y12421107D01*
X44199000Y12578893D01*
X44229781Y12733642D01*
X44290162Y12879414D01*
X44290163Y12879416D01*
X44377822Y13010608D01*
X44489392Y13122178D01*
X44620584Y13209837D01*
X44620586Y13209838D01*
X44766358Y13270219D01*
X44921107Y13301000D01*
X45078893Y13301000D01*
X45233642Y13270219D01*
X45233642Y13270219D01*
G37*
G36*
X36224142Y13270219D02*
G01*
X36369914Y13209838D01*
X36369916Y13209837D01*
X36501108Y13122178D01*
X36612678Y13010608D01*
X36700337Y12879416D01*
X36700338Y12879414D01*
X36760719Y12733642D01*
X36791500Y12578893D01*
X36791500Y12421107D01*
X36760719Y12266358D01*
X36742343Y12221995D01*
X36700337Y12120584D01*
X36612678Y11989392D01*
X36501108Y11877822D01*
X36369916Y11790163D01*
X36369915Y11790162D01*
X36369914Y11790162D01*
X36224142Y11729781D01*
X36069393Y11699000D01*
X35911607Y11699000D01*
X35756858Y11729781D01*
X35611086Y11790162D01*
X35611085Y11790162D01*
X35611084Y11790163D01*
X35479892Y11877822D01*
X35368322Y11989392D01*
X35280663Y12120584D01*
X35238657Y12221995D01*
X35220281Y12266358D01*
X35189500Y12421107D01*
X35189500Y12578893D01*
X35220281Y12733642D01*
X35280662Y12879414D01*
X35280663Y12879416D01*
X35368322Y13010608D01*
X35479892Y13122178D01*
X35611084Y13209837D01*
X35611086Y13209838D01*
X35756858Y13270219D01*
X35911607Y13301000D01*
X36069393Y13301000D01*
X36224142Y13270219D01*
X36224142Y13270219D01*
G37*
G36*
X27233642Y13270219D02*
G01*
X27379414Y13209838D01*
X27379416Y13209837D01*
X27510608Y13122178D01*
X27622178Y13010608D01*
X27709837Y12879416D01*
X27709838Y12879414D01*
X27770219Y12733642D01*
X27801000Y12578893D01*
X27801000Y12421107D01*
X27770219Y12266358D01*
X27751843Y12221995D01*
X27709837Y12120584D01*
X27622178Y11989392D01*
X27510608Y11877822D01*
X27379416Y11790163D01*
X27379415Y11790162D01*
X27379414Y11790162D01*
X27233642Y11729781D01*
X27078893Y11699000D01*
X26921107Y11699000D01*
X26766358Y11729781D01*
X26620586Y11790162D01*
X26620585Y11790162D01*
X26620584Y11790163D01*
X26489392Y11877822D01*
X26377822Y11989392D01*
X26290163Y12120584D01*
X26248157Y12221995D01*
X26229781Y12266358D01*
X26199000Y12421107D01*
X26199000Y12578893D01*
X26229781Y12733642D01*
X26290162Y12879414D01*
X26290163Y12879416D01*
X26377822Y13010608D01*
X26489392Y13122178D01*
X26620584Y13209837D01*
X26620586Y13209838D01*
X26766358Y13270219D01*
X26921107Y13301000D01*
X27078893Y13301000D01*
X27233642Y13270219D01*
X27233642Y13270219D01*
G37*
G36*
X22535787Y18914538D02*
G01*
X22725068Y18836135D01*
X23182029Y18646856D01*
X23763631Y18258242D01*
X24258242Y17763631D01*
X24646856Y17182029D01*
X24646856Y17182028D01*
X24914538Y16535787D01*
X25051000Y15849744D01*
X25051000Y15150256D01*
X24914538Y14464213D01*
X24914537Y14464211D01*
X24646856Y13817971D01*
X24258242Y13236369D01*
X23763631Y12741758D01*
X23182029Y12353144D01*
X22972506Y12266357D01*
X22535787Y12085462D01*
X21849744Y11949000D01*
X21150256Y11949000D01*
X20464213Y12085462D01*
X20027494Y12266357D01*
X19817971Y12353144D01*
X19236369Y12741758D01*
X18741758Y13236369D01*
X18353144Y13817971D01*
X18085463Y14464211D01*
X18085462Y14464213D01*
X17949000Y15150256D01*
X17949000Y15849744D01*
X18085462Y16535787D01*
X18353144Y17182028D01*
X18353144Y17182029D01*
X18741758Y17763631D01*
X19236369Y18258242D01*
X19817971Y18646856D01*
X20274932Y18836135D01*
X20464213Y18914538D01*
X21150256Y19051000D01*
X21849744Y19051000D01*
X22535787Y18914538D01*
X22535787Y18914538D01*
G37*
G36*
X102535787Y18914538D02*
G01*
X102725068Y18836135D01*
X103182029Y18646856D01*
X103763631Y18258242D01*
X104258242Y17763631D01*
X104646856Y17182029D01*
X104646856Y17182028D01*
X104914538Y16535787D01*
X105051000Y15849744D01*
X105051000Y15150256D01*
X104914538Y14464213D01*
X104914537Y14464211D01*
X104646856Y13817971D01*
X104258242Y13236369D01*
X103763631Y12741758D01*
X103182029Y12353144D01*
X102972506Y12266357D01*
X102535787Y12085462D01*
X101849744Y11949000D01*
X101150256Y11949000D01*
X100464213Y12085462D01*
X100027494Y12266357D01*
X99817971Y12353144D01*
X99236369Y12741758D01*
X98741758Y13236369D01*
X98353144Y13817971D01*
X98085463Y14464211D01*
X98085462Y14464213D01*
X97949000Y15150256D01*
X97949000Y15849744D01*
X98085462Y16535787D01*
X98353144Y17182028D01*
X98353144Y17182029D01*
X98741758Y17763631D01*
X99236369Y18258242D01*
X99817971Y18646856D01*
X100274932Y18836135D01*
X100464213Y18914538D01*
X101150256Y19051000D01*
X101849744Y19051000D01*
X102535787Y18914538D01*
X102535787Y18914538D01*
G37*
G36*
X107721823Y13771687D02*
G01*
X107882242Y13723024D01*
X108014906Y13652114D01*
X108030078Y13644004D01*
X108159659Y13537659D01*
X108266004Y13408078D01*
X108266005Y13408076D01*
X108345024Y13260242D01*
X108393687Y13099823D01*
X108410117Y12933000D01*
X108393687Y12766177D01*
X108345024Y12605758D01*
X108274114Y12473094D01*
X108266004Y12457922D01*
X108159659Y12328341D01*
X108030078Y12221996D01*
X108030076Y12221995D01*
X107882242Y12142976D01*
X107721823Y12094313D01*
X107596804Y12082000D01*
X107513196Y12082000D01*
X107388177Y12094313D01*
X107227758Y12142976D01*
X107079924Y12221995D01*
X107079922Y12221996D01*
X106950341Y12328341D01*
X106843996Y12457922D01*
X106835886Y12473094D01*
X106764976Y12605758D01*
X106716313Y12766177D01*
X106699883Y12933000D01*
X106716313Y13099823D01*
X106764976Y13260242D01*
X106843995Y13408076D01*
X106843996Y13408078D01*
X106950341Y13537659D01*
X107079922Y13644004D01*
X107095094Y13652114D01*
X107227758Y13723024D01*
X107388177Y13771687D01*
X107513196Y13784000D01*
X107596804Y13784000D01*
X107721823Y13771687D01*
X107721823Y13771687D01*
G37*
G36*
X65176823Y18978687D02*
G01*
X65337242Y18930024D01*
X65469906Y18859114D01*
X65485078Y18851004D01*
X65614659Y18744659D01*
X65721004Y18615078D01*
X65721005Y18615076D01*
X65800024Y18467242D01*
X65848687Y18306823D01*
X65865117Y18140000D01*
X65848687Y17973177D01*
X65800024Y17812758D01*
X65729114Y17680094D01*
X65721004Y17664922D01*
X65614659Y17535341D01*
X65485078Y17428996D01*
X65485076Y17428995D01*
X65337242Y17349976D01*
X65176823Y17301313D01*
X65051804Y17289000D01*
X64968196Y17289000D01*
X64843177Y17301313D01*
X64682758Y17349976D01*
X64534924Y17428995D01*
X64534922Y17428996D01*
X64405341Y17535341D01*
X64298996Y17664922D01*
X64290886Y17680094D01*
X64219976Y17812758D01*
X64171313Y17973177D01*
X64154883Y18140000D01*
X64171313Y18306823D01*
X64219976Y18467242D01*
X64298995Y18615076D01*
X64298996Y18615078D01*
X64405341Y18744659D01*
X64534922Y18851004D01*
X64550094Y18859114D01*
X64682758Y18930024D01*
X64843177Y18978687D01*
X64968196Y18991000D01*
X65051804Y18991000D01*
X65176823Y18978687D01*
X65176823Y18978687D01*
G37*
G36*
X62636823Y18978687D02*
G01*
X62797242Y18930024D01*
X62929906Y18859114D01*
X62945078Y18851004D01*
X63074659Y18744659D01*
X63181004Y18615078D01*
X63181005Y18615076D01*
X63260024Y18467242D01*
X63308687Y18306823D01*
X63325117Y18140000D01*
X63308687Y17973177D01*
X63260024Y17812758D01*
X63189114Y17680094D01*
X63181004Y17664922D01*
X63074659Y17535341D01*
X62945078Y17428996D01*
X62945076Y17428995D01*
X62797242Y17349976D01*
X62636823Y17301313D01*
X62511804Y17289000D01*
X62428196Y17289000D01*
X62303177Y17301313D01*
X62142758Y17349976D01*
X61994924Y17428995D01*
X61994922Y17428996D01*
X61865341Y17535341D01*
X61758996Y17664922D01*
X61750886Y17680094D01*
X61679976Y17812758D01*
X61631313Y17973177D01*
X61614883Y18140000D01*
X61631313Y18306823D01*
X61679976Y18467242D01*
X61758995Y18615076D01*
X61758996Y18615078D01*
X61865341Y18744659D01*
X61994922Y18851004D01*
X62010094Y18859114D01*
X62142758Y18930024D01*
X62303177Y18978687D01*
X62428196Y18991000D01*
X62511804Y18991000D01*
X62636823Y18978687D01*
X62636823Y18978687D01*
G37*
G36*
X60096823Y18978687D02*
G01*
X60257242Y18930024D01*
X60389906Y18859114D01*
X60405078Y18851004D01*
X60534659Y18744659D01*
X60641004Y18615078D01*
X60641005Y18615076D01*
X60720024Y18467242D01*
X60768687Y18306823D01*
X60785117Y18140000D01*
X60768687Y17973177D01*
X60720024Y17812758D01*
X60649114Y17680094D01*
X60641004Y17664922D01*
X60534659Y17535341D01*
X60405078Y17428996D01*
X60405076Y17428995D01*
X60257242Y17349976D01*
X60096823Y17301313D01*
X59971804Y17289000D01*
X59888196Y17289000D01*
X59763177Y17301313D01*
X59602758Y17349976D01*
X59454924Y17428995D01*
X59454922Y17428996D01*
X59325341Y17535341D01*
X59218996Y17664922D01*
X59210886Y17680094D01*
X59139976Y17812758D01*
X59091313Y17973177D01*
X59074883Y18140000D01*
X59091313Y18306823D01*
X59139976Y18467242D01*
X59218995Y18615076D01*
X59218996Y18615078D01*
X59325341Y18744659D01*
X59454922Y18851004D01*
X59470094Y18859114D01*
X59602758Y18930024D01*
X59763177Y18978687D01*
X59888196Y18991000D01*
X59971804Y18991000D01*
X60096823Y18978687D01*
X60096823Y18978687D01*
G37*
G36*
X57556823Y18978687D02*
G01*
X57717242Y18930024D01*
X57849906Y18859114D01*
X57865078Y18851004D01*
X57994659Y18744659D01*
X58101004Y18615078D01*
X58101005Y18615076D01*
X58180024Y18467242D01*
X58228687Y18306823D01*
X58245117Y18140000D01*
X58228687Y17973177D01*
X58180024Y17812758D01*
X58109114Y17680094D01*
X58101004Y17664922D01*
X57994659Y17535341D01*
X57865078Y17428996D01*
X57865076Y17428995D01*
X57717242Y17349976D01*
X57556823Y17301313D01*
X57431804Y17289000D01*
X57348196Y17289000D01*
X57223177Y17301313D01*
X57062758Y17349976D01*
X56914924Y17428995D01*
X56914922Y17428996D01*
X56785341Y17535341D01*
X56678996Y17664922D01*
X56670886Y17680094D01*
X56599976Y17812758D01*
X56551313Y17973177D01*
X56534883Y18140000D01*
X56551313Y18306823D01*
X56599976Y18467242D01*
X56678995Y18615076D01*
X56678996Y18615078D01*
X56785341Y18744659D01*
X56914922Y18851004D01*
X56930094Y18859114D01*
X57062758Y18930024D01*
X57223177Y18978687D01*
X57348196Y18991000D01*
X57431804Y18991000D01*
X57556823Y18978687D01*
X57556823Y18978687D01*
G37*
G36*
X55701000Y17289000D02*
G01*
X53999000Y17289000D01*
X53999000Y18991000D01*
X55701000Y18991000D01*
X55701000Y17289000D01*
X55701000Y17289000D01*
G37*
G36*
X72796823Y18978687D02*
G01*
X72957242Y18930024D01*
X73089906Y18859114D01*
X73105078Y18851004D01*
X73234659Y18744659D01*
X73341004Y18615078D01*
X73341005Y18615076D01*
X73420024Y18467242D01*
X73468687Y18306823D01*
X73485117Y18140000D01*
X73468687Y17973177D01*
X73420024Y17812758D01*
X73349114Y17680094D01*
X73341004Y17664922D01*
X73234659Y17535341D01*
X73105078Y17428996D01*
X73105076Y17428995D01*
X72957242Y17349976D01*
X72796823Y17301313D01*
X72671804Y17289000D01*
X72588196Y17289000D01*
X72463177Y17301313D01*
X72302758Y17349976D01*
X72154924Y17428995D01*
X72154922Y17428996D01*
X72025341Y17535341D01*
X71918996Y17664922D01*
X71910886Y17680094D01*
X71839976Y17812758D01*
X71791313Y17973177D01*
X71774883Y18140000D01*
X71791313Y18306823D01*
X71839976Y18467242D01*
X71918995Y18615076D01*
X71918996Y18615078D01*
X72025341Y18744659D01*
X72154922Y18851004D01*
X72170094Y18859114D01*
X72302758Y18930024D01*
X72463177Y18978687D01*
X72588196Y18991000D01*
X72671804Y18991000D01*
X72796823Y18978687D01*
X72796823Y18978687D01*
G37*
G36*
X70256823Y18978687D02*
G01*
X70417242Y18930024D01*
X70549906Y18859114D01*
X70565078Y18851004D01*
X70694659Y18744659D01*
X70801004Y18615078D01*
X70801005Y18615076D01*
X70880024Y18467242D01*
X70928687Y18306823D01*
X70945117Y18140000D01*
X70928687Y17973177D01*
X70880024Y17812758D01*
X70809114Y17680094D01*
X70801004Y17664922D01*
X70694659Y17535341D01*
X70565078Y17428996D01*
X70565076Y17428995D01*
X70417242Y17349976D01*
X70256823Y17301313D01*
X70131804Y17289000D01*
X70048196Y17289000D01*
X69923177Y17301313D01*
X69762758Y17349976D01*
X69614924Y17428995D01*
X69614922Y17428996D01*
X69485341Y17535341D01*
X69378996Y17664922D01*
X69370886Y17680094D01*
X69299976Y17812758D01*
X69251313Y17973177D01*
X69234883Y18140000D01*
X69251313Y18306823D01*
X69299976Y18467242D01*
X69378995Y18615076D01*
X69378996Y18615078D01*
X69485341Y18744659D01*
X69614922Y18851004D01*
X69630094Y18859114D01*
X69762758Y18930024D01*
X69923177Y18978687D01*
X70048196Y18991000D01*
X70131804Y18991000D01*
X70256823Y18978687D01*
X70256823Y18978687D01*
G37*
G36*
X67716823Y18978687D02*
G01*
X67877242Y18930024D01*
X68009906Y18859114D01*
X68025078Y18851004D01*
X68154659Y18744659D01*
X68261004Y18615078D01*
X68261005Y18615076D01*
X68340024Y18467242D01*
X68388687Y18306823D01*
X68405117Y18140000D01*
X68388687Y17973177D01*
X68340024Y17812758D01*
X68269114Y17680094D01*
X68261004Y17664922D01*
X68154659Y17535341D01*
X68025078Y17428996D01*
X68025076Y17428995D01*
X67877242Y17349976D01*
X67716823Y17301313D01*
X67591804Y17289000D01*
X67508196Y17289000D01*
X67383177Y17301313D01*
X67222758Y17349976D01*
X67074924Y17428995D01*
X67074922Y17428996D01*
X66945341Y17535341D01*
X66838996Y17664922D01*
X66830886Y17680094D01*
X66759976Y17812758D01*
X66711313Y17973177D01*
X66694883Y18140000D01*
X66711313Y18306823D01*
X66759976Y18467242D01*
X66838995Y18615076D01*
X66838996Y18615078D01*
X66945341Y18744659D01*
X67074922Y18851004D01*
X67090094Y18859114D01*
X67222758Y18930024D01*
X67383177Y18978687D01*
X67508196Y18991000D01*
X67591804Y18991000D01*
X67716823Y18978687D01*
X67716823Y18978687D01*
G37*
G36*
X15646823Y22383687D02*
G01*
X15807242Y22335024D01*
X15874361Y22299148D01*
X15955078Y22256004D01*
X16084659Y22149659D01*
X16191004Y22020078D01*
X16191005Y22020076D01*
X16270024Y21872242D01*
X16318687Y21711823D01*
X16335117Y21545000D01*
X16318687Y21378177D01*
X16270024Y21217758D01*
X16229477Y21141900D01*
X16191004Y21069922D01*
X16084659Y20940341D01*
X15955078Y20833996D01*
X15955076Y20833995D01*
X15807242Y20754976D01*
X15646823Y20706313D01*
X15521804Y20694000D01*
X15438196Y20694000D01*
X15313177Y20706313D01*
X15152758Y20754976D01*
X15004924Y20833995D01*
X15004922Y20833996D01*
X14875341Y20940341D01*
X14768996Y21069922D01*
X14730523Y21141900D01*
X14689976Y21217758D01*
X14641313Y21378177D01*
X14624883Y21545000D01*
X14641313Y21711823D01*
X14689976Y21872242D01*
X14768995Y22020076D01*
X14768996Y22020078D01*
X14875341Y22149659D01*
X15004922Y22256004D01*
X15085639Y22299148D01*
X15152758Y22335024D01*
X15313177Y22383687D01*
X15438196Y22396000D01*
X15521804Y22396000D01*
X15646823Y22383687D01*
X15646823Y22383687D01*
G37*
G36*
X25888228Y22363297D02*
G01*
X26043100Y22299147D01*
X26182481Y22206015D01*
X26301015Y22087481D01*
X26394147Y21948100D01*
X26458297Y21793228D01*
X26491000Y21628816D01*
X26491000Y21461184D01*
X26458297Y21296772D01*
X26394147Y21141900D01*
X26301015Y21002519D01*
X26182481Y20883985D01*
X26043100Y20790853D01*
X25888228Y20726703D01*
X25723816Y20694000D01*
X25556184Y20694000D01*
X25391772Y20726703D01*
X25236900Y20790853D01*
X25097519Y20883985D01*
X24978985Y21002519D01*
X24885853Y21141900D01*
X24821703Y21296772D01*
X24789000Y21461184D01*
X24789000Y21628816D01*
X24821703Y21793228D01*
X24885853Y21948100D01*
X24978985Y22087481D01*
X25097519Y22206015D01*
X25236900Y22299147D01*
X25391772Y22363297D01*
X25556184Y22396000D01*
X25723816Y22396000D01*
X25888228Y22363297D01*
X25888228Y22363297D01*
G37*
G36*
X86766823Y23423687D02*
G01*
X86927242Y23375024D01*
X86994361Y23339148D01*
X87075078Y23296004D01*
X87204659Y23189659D01*
X87311004Y23060078D01*
X87311005Y23060076D01*
X87390024Y22912242D01*
X87438687Y22751823D01*
X87455117Y22585000D01*
X87438687Y22418177D01*
X87390024Y22257758D01*
X87349477Y22181900D01*
X87311004Y22109922D01*
X87204659Y21980341D01*
X87075078Y21873996D01*
X87075076Y21873995D01*
X86927242Y21794976D01*
X86766823Y21746313D01*
X86641804Y21734000D01*
X86558196Y21734000D01*
X86433177Y21746313D01*
X86272758Y21794976D01*
X86124924Y21873995D01*
X86124922Y21873996D01*
X85995341Y21980341D01*
X85888996Y22109922D01*
X85850523Y22181900D01*
X85809976Y22257758D01*
X85761313Y22418177D01*
X85744883Y22585000D01*
X85761313Y22751823D01*
X85809976Y22912242D01*
X85888995Y23060076D01*
X85888996Y23060078D01*
X85995341Y23189659D01*
X86124922Y23296004D01*
X86205639Y23339148D01*
X86272758Y23375024D01*
X86433177Y23423687D01*
X86558196Y23436000D01*
X86641804Y23436000D01*
X86766823Y23423687D01*
X86766823Y23423687D01*
G37*
G36*
X76688228Y23403297D02*
G01*
X76843100Y23339147D01*
X76982481Y23246015D01*
X77101015Y23127481D01*
X77194147Y22988100D01*
X77258297Y22833228D01*
X77291000Y22668816D01*
X77291000Y22501184D01*
X77258297Y22336772D01*
X77194147Y22181900D01*
X77101015Y22042519D01*
X76982481Y21923985D01*
X76843100Y21830853D01*
X76688228Y21766703D01*
X76523816Y21734000D01*
X76356184Y21734000D01*
X76191772Y21766703D01*
X76036900Y21830853D01*
X75897519Y21923985D01*
X75778985Y22042519D01*
X75685853Y22181900D01*
X75621703Y22336772D01*
X75589000Y22501184D01*
X75589000Y22668816D01*
X75621703Y22833228D01*
X75685853Y22988100D01*
X75778985Y23127481D01*
X75897519Y23246015D01*
X76036900Y23339147D01*
X76191772Y23403297D01*
X76356184Y23436000D01*
X76523816Y23436000D01*
X76688228Y23403297D01*
X76688228Y23403297D01*
G37*
G36*
X15646823Y25558687D02*
G01*
X15807242Y25510024D01*
X15874361Y25474148D01*
X15955078Y25431004D01*
X16084659Y25324659D01*
X16191004Y25195078D01*
X16191005Y25195076D01*
X16270024Y25047242D01*
X16318687Y24886823D01*
X16335117Y24720000D01*
X16318687Y24553177D01*
X16270024Y24392758D01*
X16229477Y24316900D01*
X16191004Y24244922D01*
X16084659Y24115341D01*
X15955078Y24008996D01*
X15955076Y24008995D01*
X15807242Y23929976D01*
X15646823Y23881313D01*
X15521804Y23869000D01*
X15438196Y23869000D01*
X15313177Y23881313D01*
X15152758Y23929976D01*
X15004924Y24008995D01*
X15004922Y24008996D01*
X14875341Y24115341D01*
X14768996Y24244922D01*
X14730523Y24316900D01*
X14689976Y24392758D01*
X14641313Y24553177D01*
X14624883Y24720000D01*
X14641313Y24886823D01*
X14689976Y25047242D01*
X14768995Y25195076D01*
X14768996Y25195078D01*
X14875341Y25324659D01*
X15004922Y25431004D01*
X15085639Y25474148D01*
X15152758Y25510024D01*
X15313177Y25558687D01*
X15438196Y25571000D01*
X15521804Y25571000D01*
X15646823Y25558687D01*
X15646823Y25558687D01*
G37*
G36*
X25888228Y25538297D02*
G01*
X26043100Y25474147D01*
X26182481Y25381015D01*
X26301015Y25262481D01*
X26394147Y25123100D01*
X26458297Y24968228D01*
X26491000Y24803816D01*
X26491000Y24636184D01*
X26458297Y24471772D01*
X26394147Y24316900D01*
X26301015Y24177519D01*
X26182481Y24058985D01*
X26043100Y23965853D01*
X25888228Y23901703D01*
X25723816Y23869000D01*
X25556184Y23869000D01*
X25391772Y23901703D01*
X25236900Y23965853D01*
X25097519Y24058985D01*
X24978985Y24177519D01*
X24885853Y24316900D01*
X24821703Y24471772D01*
X24789000Y24636184D01*
X24789000Y24803816D01*
X24821703Y24968228D01*
X24885853Y25123100D01*
X24978985Y25262481D01*
X25097519Y25381015D01*
X25236900Y25474147D01*
X25391772Y25538297D01*
X25556184Y25571000D01*
X25723816Y25571000D01*
X25888228Y25538297D01*
X25888228Y25538297D01*
G37*
G36*
X108305114Y26185824D02*
G01*
X108399168Y26176561D01*
X108600299Y26115549D01*
X108686110Y26069682D01*
X108785661Y26016471D01*
X108948133Y25883133D01*
X109081471Y25720661D01*
X109105244Y25676184D01*
X109180549Y25535299D01*
X109241561Y25334168D01*
X109262162Y25125000D01*
X109241561Y24915832D01*
X109180549Y24714701D01*
X109138581Y24636185D01*
X109081471Y24529339D01*
X108948133Y24366867D01*
X108785661Y24233529D01*
X108686110Y24180318D01*
X108600299Y24134451D01*
X108399168Y24073439D01*
X108305114Y24064176D01*
X108242413Y24058000D01*
X108137587Y24058000D01*
X108074886Y24064176D01*
X107980832Y24073439D01*
X107779701Y24134451D01*
X107693890Y24180318D01*
X107594339Y24233529D01*
X107431867Y24366867D01*
X107298529Y24529339D01*
X107241419Y24636185D01*
X107199451Y24714701D01*
X107138439Y24915832D01*
X107117838Y25125000D01*
X107138439Y25334168D01*
X107199451Y25535299D01*
X107274756Y25676184D01*
X107298529Y25720661D01*
X107431867Y25883133D01*
X107594339Y26016471D01*
X107693890Y26069682D01*
X107779701Y26115549D01*
X107980832Y26176561D01*
X108074886Y26185824D01*
X108137587Y26192000D01*
X108242413Y26192000D01*
X108305114Y26185824D01*
X108305114Y26185824D01*
G37*
G36*
X60096823Y26598687D02*
G01*
X60257242Y26550024D01*
X60324361Y26514148D01*
X60405078Y26471004D01*
X60534659Y26364659D01*
X60641004Y26235078D01*
X60641005Y26235076D01*
X60720024Y26087242D01*
X60768687Y25926823D01*
X60785117Y25760000D01*
X60768687Y25593177D01*
X60720024Y25432758D01*
X60679477Y25356900D01*
X60641004Y25284922D01*
X60534659Y25155341D01*
X60405078Y25048996D01*
X60405076Y25048995D01*
X60257242Y24969976D01*
X60096823Y24921313D01*
X59971804Y24909000D01*
X59888196Y24909000D01*
X59763177Y24921313D01*
X59602758Y24969976D01*
X59454924Y25048995D01*
X59454922Y25048996D01*
X59325341Y25155341D01*
X59218996Y25284922D01*
X59180523Y25356900D01*
X59139976Y25432758D01*
X59091313Y25593177D01*
X59074883Y25760000D01*
X59091313Y25926823D01*
X59139976Y26087242D01*
X59218995Y26235076D01*
X59218996Y26235078D01*
X59325341Y26364659D01*
X59454922Y26471004D01*
X59535639Y26514148D01*
X59602758Y26550024D01*
X59763177Y26598687D01*
X59888196Y26611000D01*
X59971804Y26611000D01*
X60096823Y26598687D01*
X60096823Y26598687D01*
G37*
G36*
X76688228Y26578297D02*
G01*
X76843100Y26514147D01*
X76982481Y26421015D01*
X77101015Y26302481D01*
X77194147Y26163100D01*
X77258297Y26008228D01*
X77291000Y25843816D01*
X77291000Y25676184D01*
X77258297Y25511772D01*
X77194147Y25356900D01*
X77101015Y25217519D01*
X76982481Y25098985D01*
X76843100Y25005853D01*
X76688228Y24941703D01*
X76523816Y24909000D01*
X76356184Y24909000D01*
X76191772Y24941703D01*
X76036900Y25005853D01*
X75897519Y25098985D01*
X75778985Y25217519D01*
X75685853Y25356900D01*
X75621703Y25511772D01*
X75589000Y25676184D01*
X75589000Y25843816D01*
X75621703Y26008228D01*
X75685853Y26163100D01*
X75778985Y26302481D01*
X75897519Y26421015D01*
X76036900Y26514147D01*
X76191772Y26578297D01*
X76356184Y26611000D01*
X76523816Y26611000D01*
X76688228Y26578297D01*
X76688228Y26578297D01*
G37*
G36*
X86766823Y26598687D02*
G01*
X86927242Y26550024D01*
X86994361Y26514148D01*
X87075078Y26471004D01*
X87204659Y26364659D01*
X87311004Y26235078D01*
X87311005Y26235076D01*
X87390024Y26087242D01*
X87438687Y25926823D01*
X87455117Y25760000D01*
X87438687Y25593177D01*
X87390024Y25432758D01*
X87349477Y25356900D01*
X87311004Y25284922D01*
X87204659Y25155341D01*
X87075078Y25048996D01*
X87075076Y25048995D01*
X86927242Y24969976D01*
X86766823Y24921313D01*
X86641804Y24909000D01*
X86558196Y24909000D01*
X86433177Y24921313D01*
X86272758Y24969976D01*
X86124924Y25048995D01*
X86124922Y25048996D01*
X85995341Y25155341D01*
X85888996Y25284922D01*
X85850523Y25356900D01*
X85809976Y25432758D01*
X85761313Y25593177D01*
X85744883Y25760000D01*
X85761313Y25926823D01*
X85809976Y26087242D01*
X85888995Y26235076D01*
X85888996Y26235078D01*
X85995341Y26364659D01*
X86124922Y26471004D01*
X86205639Y26514148D01*
X86272758Y26550024D01*
X86433177Y26598687D01*
X86558196Y26611000D01*
X86641804Y26611000D01*
X86766823Y26598687D01*
X86766823Y26598687D01*
G37*
G36*
X72796823Y26598687D02*
G01*
X72957242Y26550024D01*
X73024361Y26514148D01*
X73105078Y26471004D01*
X73234659Y26364659D01*
X73341004Y26235078D01*
X73341005Y26235076D01*
X73420024Y26087242D01*
X73468687Y25926823D01*
X73485117Y25760000D01*
X73468687Y25593177D01*
X73420024Y25432758D01*
X73379477Y25356900D01*
X73341004Y25284922D01*
X73234659Y25155341D01*
X73105078Y25048996D01*
X73105076Y25048995D01*
X72957242Y24969976D01*
X72796823Y24921313D01*
X72671804Y24909000D01*
X72588196Y24909000D01*
X72463177Y24921313D01*
X72302758Y24969976D01*
X72154924Y25048995D01*
X72154922Y25048996D01*
X72025341Y25155341D01*
X71918996Y25284922D01*
X71880523Y25356900D01*
X71839976Y25432758D01*
X71791313Y25593177D01*
X71774883Y25760000D01*
X71791313Y25926823D01*
X71839976Y26087242D01*
X71918995Y26235076D01*
X71918996Y26235078D01*
X72025341Y26364659D01*
X72154922Y26471004D01*
X72235639Y26514148D01*
X72302758Y26550024D01*
X72463177Y26598687D01*
X72588196Y26611000D01*
X72671804Y26611000D01*
X72796823Y26598687D01*
X72796823Y26598687D01*
G37*
G36*
X70256823Y26598687D02*
G01*
X70417242Y26550024D01*
X70484361Y26514148D01*
X70565078Y26471004D01*
X70694659Y26364659D01*
X70801004Y26235078D01*
X70801005Y26235076D01*
X70880024Y26087242D01*
X70928687Y25926823D01*
X70945117Y25760000D01*
X70928687Y25593177D01*
X70880024Y25432758D01*
X70839477Y25356900D01*
X70801004Y25284922D01*
X70694659Y25155341D01*
X70565078Y25048996D01*
X70565076Y25048995D01*
X70417242Y24969976D01*
X70256823Y24921313D01*
X70131804Y24909000D01*
X70048196Y24909000D01*
X69923177Y24921313D01*
X69762758Y24969976D01*
X69614924Y25048995D01*
X69614922Y25048996D01*
X69485341Y25155341D01*
X69378996Y25284922D01*
X69340523Y25356900D01*
X69299976Y25432758D01*
X69251313Y25593177D01*
X69234883Y25760000D01*
X69251313Y25926823D01*
X69299976Y26087242D01*
X69378995Y26235076D01*
X69378996Y26235078D01*
X69485341Y26364659D01*
X69614922Y26471004D01*
X69695639Y26514148D01*
X69762758Y26550024D01*
X69923177Y26598687D01*
X70048196Y26611000D01*
X70131804Y26611000D01*
X70256823Y26598687D01*
X70256823Y26598687D01*
G37*
G36*
X67716823Y26598687D02*
G01*
X67877242Y26550024D01*
X67944361Y26514148D01*
X68025078Y26471004D01*
X68154659Y26364659D01*
X68261004Y26235078D01*
X68261005Y26235076D01*
X68340024Y26087242D01*
X68388687Y25926823D01*
X68405117Y25760000D01*
X68388687Y25593177D01*
X68340024Y25432758D01*
X68299477Y25356900D01*
X68261004Y25284922D01*
X68154659Y25155341D01*
X68025078Y25048996D01*
X68025076Y25048995D01*
X67877242Y24969976D01*
X67716823Y24921313D01*
X67591804Y24909000D01*
X67508196Y24909000D01*
X67383177Y24921313D01*
X67222758Y24969976D01*
X67074924Y25048995D01*
X67074922Y25048996D01*
X66945341Y25155341D01*
X66838996Y25284922D01*
X66800523Y25356900D01*
X66759976Y25432758D01*
X66711313Y25593177D01*
X66694883Y25760000D01*
X66711313Y25926823D01*
X66759976Y26087242D01*
X66838995Y26235076D01*
X66838996Y26235078D01*
X66945341Y26364659D01*
X67074922Y26471004D01*
X67155639Y26514148D01*
X67222758Y26550024D01*
X67383177Y26598687D01*
X67508196Y26611000D01*
X67591804Y26611000D01*
X67716823Y26598687D01*
X67716823Y26598687D01*
G37*
G36*
X52240728Y26578297D02*
G01*
X52395600Y26514147D01*
X52534981Y26421015D01*
X52653515Y26302481D01*
X52746647Y26163100D01*
X52810797Y26008228D01*
X52843500Y25843816D01*
X52843500Y25676184D01*
X52810797Y25511772D01*
X52746647Y25356900D01*
X52653515Y25217519D01*
X52534981Y25098985D01*
X52395600Y25005853D01*
X52240728Y24941703D01*
X52076316Y24909000D01*
X51908684Y24909000D01*
X51744272Y24941703D01*
X51589400Y25005853D01*
X51450019Y25098985D01*
X51331485Y25217519D01*
X51238353Y25356900D01*
X51174203Y25511772D01*
X51141500Y25676184D01*
X51141500Y25843816D01*
X51174203Y26008228D01*
X51238353Y26163100D01*
X51331485Y26302481D01*
X51450019Y26421015D01*
X51589400Y26514147D01*
X51744272Y26578297D01*
X51908684Y26611000D01*
X52076316Y26611000D01*
X52240728Y26578297D01*
X52240728Y26578297D01*
G37*
G36*
X65176823Y26598687D02*
G01*
X65337242Y26550024D01*
X65404361Y26514148D01*
X65485078Y26471004D01*
X65614659Y26364659D01*
X65721004Y26235078D01*
X65721005Y26235076D01*
X65800024Y26087242D01*
X65848687Y25926823D01*
X65865117Y25760000D01*
X65848687Y25593177D01*
X65800024Y25432758D01*
X65759477Y25356900D01*
X65721004Y25284922D01*
X65614659Y25155341D01*
X65485078Y25048996D01*
X65485076Y25048995D01*
X65337242Y24969976D01*
X65176823Y24921313D01*
X65051804Y24909000D01*
X64968196Y24909000D01*
X64843177Y24921313D01*
X64682758Y24969976D01*
X64534924Y25048995D01*
X64534922Y25048996D01*
X64405341Y25155341D01*
X64298996Y25284922D01*
X64260523Y25356900D01*
X64219976Y25432758D01*
X64171313Y25593177D01*
X64154883Y25760000D01*
X64171313Y25926823D01*
X64219976Y26087242D01*
X64298995Y26235076D01*
X64298996Y26235078D01*
X64405341Y26364659D01*
X64534922Y26471004D01*
X64615639Y26514148D01*
X64682758Y26550024D01*
X64843177Y26598687D01*
X64968196Y26611000D01*
X65051804Y26611000D01*
X65176823Y26598687D01*
X65176823Y26598687D01*
G37*
G36*
X55016823Y26598687D02*
G01*
X55177242Y26550024D01*
X55244361Y26514148D01*
X55325078Y26471004D01*
X55454659Y26364659D01*
X55561004Y26235078D01*
X55561005Y26235076D01*
X55640024Y26087242D01*
X55688687Y25926823D01*
X55705117Y25760000D01*
X55688687Y25593177D01*
X55640024Y25432758D01*
X55599477Y25356900D01*
X55561004Y25284922D01*
X55454659Y25155341D01*
X55325078Y25048996D01*
X55325076Y25048995D01*
X55177242Y24969976D01*
X55016823Y24921313D01*
X54891804Y24909000D01*
X54808196Y24909000D01*
X54683177Y24921313D01*
X54522758Y24969976D01*
X54374924Y25048995D01*
X54374922Y25048996D01*
X54245341Y25155341D01*
X54138996Y25284922D01*
X54100523Y25356900D01*
X54059976Y25432758D01*
X54011313Y25593177D01*
X53994883Y25760000D01*
X54011313Y25926823D01*
X54059976Y26087242D01*
X54138995Y26235076D01*
X54138996Y26235078D01*
X54245341Y26364659D01*
X54374922Y26471004D01*
X54455639Y26514148D01*
X54522758Y26550024D01*
X54683177Y26598687D01*
X54808196Y26611000D01*
X54891804Y26611000D01*
X55016823Y26598687D01*
X55016823Y26598687D01*
G37*
G36*
X57556823Y26598687D02*
G01*
X57717242Y26550024D01*
X57784361Y26514148D01*
X57865078Y26471004D01*
X57994659Y26364659D01*
X58101004Y26235078D01*
X58101005Y26235076D01*
X58180024Y26087242D01*
X58228687Y25926823D01*
X58245117Y25760000D01*
X58228687Y25593177D01*
X58180024Y25432758D01*
X58139477Y25356900D01*
X58101004Y25284922D01*
X57994659Y25155341D01*
X57865078Y25048996D01*
X57865076Y25048995D01*
X57717242Y24969976D01*
X57556823Y24921313D01*
X57431804Y24909000D01*
X57348196Y24909000D01*
X57223177Y24921313D01*
X57062758Y24969976D01*
X56914924Y25048995D01*
X56914922Y25048996D01*
X56785341Y25155341D01*
X56678996Y25284922D01*
X56640523Y25356900D01*
X56599976Y25432758D01*
X56551313Y25593177D01*
X56534883Y25760000D01*
X56551313Y25926823D01*
X56599976Y26087242D01*
X56678995Y26235076D01*
X56678996Y26235078D01*
X56785341Y26364659D01*
X56914922Y26471004D01*
X56995639Y26514148D01*
X57062758Y26550024D01*
X57223177Y26598687D01*
X57348196Y26611000D01*
X57431804Y26611000D01*
X57556823Y26598687D01*
X57556823Y26598687D01*
G37*
G36*
X49740728Y26578297D02*
G01*
X49895600Y26514147D01*
X50034981Y26421015D01*
X50153515Y26302481D01*
X50246647Y26163100D01*
X50310797Y26008228D01*
X50343500Y25843816D01*
X50343500Y25676184D01*
X50310797Y25511772D01*
X50246647Y25356900D01*
X50153515Y25217519D01*
X50034981Y25098985D01*
X49895600Y25005853D01*
X49740728Y24941703D01*
X49576316Y24909000D01*
X49408684Y24909000D01*
X49244272Y24941703D01*
X49089400Y25005853D01*
X48950019Y25098985D01*
X48831485Y25217519D01*
X48738353Y25356900D01*
X48674203Y25511772D01*
X48641500Y25676184D01*
X48641500Y25843816D01*
X48674203Y26008228D01*
X48738353Y26163100D01*
X48831485Y26302481D01*
X48950019Y26421015D01*
X49089400Y26514147D01*
X49244272Y26578297D01*
X49408684Y26611000D01*
X49576316Y26611000D01*
X49740728Y26578297D01*
X49740728Y26578297D01*
G37*
G36*
X62636823Y26598687D02*
G01*
X62797242Y26550024D01*
X62864361Y26514148D01*
X62945078Y26471004D01*
X63074659Y26364659D01*
X63181004Y26235078D01*
X63181005Y26235076D01*
X63260024Y26087242D01*
X63308687Y25926823D01*
X63325117Y25760000D01*
X63308687Y25593177D01*
X63260024Y25432758D01*
X63219477Y25356900D01*
X63181004Y25284922D01*
X63074659Y25155341D01*
X62945078Y25048996D01*
X62945076Y25048995D01*
X62797242Y24969976D01*
X62636823Y24921313D01*
X62511804Y24909000D01*
X62428196Y24909000D01*
X62303177Y24921313D01*
X62142758Y24969976D01*
X61994924Y25048995D01*
X61994922Y25048996D01*
X61865341Y25155341D01*
X61758996Y25284922D01*
X61720523Y25356900D01*
X61679976Y25432758D01*
X61631313Y25593177D01*
X61614883Y25760000D01*
X61631313Y25926823D01*
X61679976Y26087242D01*
X61758995Y26235076D01*
X61758996Y26235078D01*
X61865341Y26364659D01*
X61994922Y26471004D01*
X62075639Y26514148D01*
X62142758Y26550024D01*
X62303177Y26598687D01*
X62428196Y26611000D01*
X62511804Y26611000D01*
X62636823Y26598687D01*
X62636823Y26598687D01*
G37*
G36*
X108305114Y28725824D02*
G01*
X108399168Y28716561D01*
X108600299Y28655549D01*
X108686110Y28609682D01*
X108785661Y28556471D01*
X108948133Y28423133D01*
X109081471Y28260661D01*
X109134682Y28161110D01*
X109180549Y28075299D01*
X109241561Y27874168D01*
X109262162Y27665000D01*
X109241561Y27455832D01*
X109180549Y27254701D01*
X109134682Y27168890D01*
X109081471Y27069339D01*
X108948133Y26906867D01*
X108785661Y26773529D01*
X108686110Y26720318D01*
X108600299Y26674451D01*
X108399168Y26613439D01*
X108305114Y26604176D01*
X108242413Y26598000D01*
X108137587Y26598000D01*
X108074886Y26604176D01*
X107980832Y26613439D01*
X107779701Y26674451D01*
X107693890Y26720318D01*
X107594339Y26773529D01*
X107431867Y26906867D01*
X107298529Y27069339D01*
X107245318Y27168890D01*
X107199451Y27254701D01*
X107138439Y27455832D01*
X107117838Y27665000D01*
X107138439Y27874168D01*
X107199451Y28075299D01*
X107245318Y28161110D01*
X107298529Y28260661D01*
X107431867Y28423133D01*
X107594339Y28556471D01*
X107693890Y28609682D01*
X107779701Y28655549D01*
X107980832Y28716561D01*
X108074886Y28725824D01*
X108137587Y28732000D01*
X108242413Y28732000D01*
X108305114Y28725824D01*
X108305114Y28725824D01*
G37*
G36*
X47224098Y34127967D02*
G01*
X47688350Y33935668D01*
X47688352Y33935667D01*
X48106168Y33656491D01*
X48461491Y33301168D01*
X48693349Y32954168D01*
X48740668Y32883350D01*
X48932967Y32419098D01*
X49031000Y31926253D01*
X49031000Y31423747D01*
X48932967Y30930902D01*
X48740668Y30466650D01*
X48740667Y30466648D01*
X48461491Y30048832D01*
X48106168Y29693509D01*
X47688352Y29414333D01*
X47688351Y29414332D01*
X47688350Y29414332D01*
X47224098Y29222033D01*
X46731253Y29124000D01*
X46228747Y29124000D01*
X45735902Y29222033D01*
X45271650Y29414332D01*
X45271649Y29414332D01*
X45271648Y29414333D01*
X44853832Y29693509D01*
X44498509Y30048832D01*
X44219333Y30466648D01*
X44219332Y30466650D01*
X44027033Y30930902D01*
X43929000Y31423747D01*
X43929000Y31926253D01*
X44027033Y32419098D01*
X44219332Y32883350D01*
X44266651Y32954168D01*
X44498509Y33301168D01*
X44853832Y33656491D01*
X45271648Y33935667D01*
X45271650Y33935668D01*
X45735902Y34127967D01*
X46228747Y34226000D01*
X46731253Y34226000D01*
X47224098Y34127967D01*
X47224098Y34127967D01*
G37*
G36*
X99544098Y34127967D02*
G01*
X100008350Y33935668D01*
X100008352Y33935667D01*
X100426168Y33656491D01*
X100781491Y33301168D01*
X101013349Y32954168D01*
X101060668Y32883350D01*
X101252967Y32419098D01*
X101351000Y31926253D01*
X101351000Y31423747D01*
X101252967Y30930902D01*
X101060668Y30466650D01*
X101060667Y30466648D01*
X100781491Y30048832D01*
X100426168Y29693509D01*
X100008352Y29414333D01*
X100008351Y29414332D01*
X100008350Y29414332D01*
X99544098Y29222033D01*
X99051253Y29124000D01*
X98548747Y29124000D01*
X98055902Y29222033D01*
X97591650Y29414332D01*
X97591649Y29414332D01*
X97591648Y29414333D01*
X97173832Y29693509D01*
X96818509Y30048832D01*
X96539333Y30466648D01*
X96539332Y30466650D01*
X96347033Y30930902D01*
X96249000Y31423747D01*
X96249000Y31926253D01*
X96347033Y32419098D01*
X96539332Y32883350D01*
X96586651Y32954168D01*
X96818509Y33301168D01*
X97173832Y33656491D01*
X97591648Y33935667D01*
X97591650Y33935668D01*
X98055902Y34127967D01*
X98548747Y34226000D01*
X99051253Y34226000D01*
X99544098Y34127967D01*
X99544098Y34127967D01*
G37*
G36*
X108305114Y31265824D02*
G01*
X108399168Y31256561D01*
X108600299Y31195549D01*
X108686110Y31149682D01*
X108785661Y31096471D01*
X108948133Y30963133D01*
X109081471Y30800661D01*
X109122844Y30723257D01*
X109180549Y30615299D01*
X109241561Y30414168D01*
X109262162Y30205000D01*
X109241561Y29995832D01*
X109180549Y29794701D01*
X109134682Y29708890D01*
X109081471Y29609339D01*
X108948133Y29446867D01*
X108785661Y29313529D01*
X108686110Y29260318D01*
X108600299Y29214451D01*
X108399168Y29153439D01*
X108305114Y29144176D01*
X108242413Y29138000D01*
X108137587Y29138000D01*
X108074886Y29144176D01*
X107980832Y29153439D01*
X107779701Y29214451D01*
X107693890Y29260318D01*
X107594339Y29313529D01*
X107431867Y29446867D01*
X107298529Y29609339D01*
X107245318Y29708890D01*
X107199451Y29794701D01*
X107138439Y29995832D01*
X107117838Y30205000D01*
X107138439Y30414168D01*
X107199451Y30615299D01*
X107257156Y30723257D01*
X107298529Y30800661D01*
X107431867Y30963133D01*
X107594339Y31096471D01*
X107693890Y31149682D01*
X107779701Y31195549D01*
X107980832Y31256561D01*
X108074886Y31265824D01*
X108137587Y31272000D01*
X108242413Y31272000D01*
X108305114Y31265824D01*
X108305114Y31265824D01*
G37*
G36*
X80487142Y30986758D02*
G01*
X80635101Y30925471D01*
X80768255Y30836501D01*
X80881501Y30723255D01*
X80970471Y30590101D01*
X81031758Y30442142D01*
X81063000Y30285075D01*
X81063000Y30124925D01*
X81031758Y29967858D01*
X80970471Y29819899D01*
X80881501Y29686745D01*
X80768255Y29573499D01*
X80635101Y29484529D01*
X80487142Y29423242D01*
X80330075Y29392000D01*
X80169925Y29392000D01*
X80012858Y29423242D01*
X79864899Y29484529D01*
X79731745Y29573499D01*
X79618499Y29686745D01*
X79529529Y29819899D01*
X79468242Y29967858D01*
X79437000Y30124925D01*
X79437000Y30285075D01*
X79468242Y30442142D01*
X79529529Y30590101D01*
X79618499Y30723255D01*
X79731745Y30836501D01*
X79864899Y30925471D01*
X80012858Y30986758D01*
X80169925Y31018000D01*
X80330075Y31018000D01*
X80487142Y30986758D01*
X80487142Y30986758D01*
G37*
G36*
X85567142Y30986758D02*
G01*
X85715101Y30925471D01*
X85848255Y30836501D01*
X85961501Y30723255D01*
X86050471Y30590101D01*
X86111758Y30442142D01*
X86143000Y30285075D01*
X86143000Y30124925D01*
X86111758Y29967858D01*
X86050471Y29819899D01*
X85961501Y29686745D01*
X85848255Y29573499D01*
X85715101Y29484529D01*
X85567142Y29423242D01*
X85410075Y29392000D01*
X85249925Y29392000D01*
X85092858Y29423242D01*
X84944899Y29484529D01*
X84811745Y29573499D01*
X84698499Y29686745D01*
X84609529Y29819899D01*
X84548242Y29967858D01*
X84517000Y30124925D01*
X84517000Y30285075D01*
X84548242Y30442142D01*
X84609529Y30590101D01*
X84698499Y30723255D01*
X84811745Y30836501D01*
X84944899Y30925471D01*
X85092858Y30986758D01*
X85249925Y31018000D01*
X85410075Y31018000D01*
X85567142Y30986758D01*
X85567142Y30986758D01*
G37*
G36*
X88107142Y30986758D02*
G01*
X88255101Y30925471D01*
X88388255Y30836501D01*
X88501501Y30723255D01*
X88590471Y30590101D01*
X88651758Y30442142D01*
X88683000Y30285075D01*
X88683000Y30124925D01*
X88651758Y29967858D01*
X88590471Y29819899D01*
X88501501Y29686745D01*
X88388255Y29573499D01*
X88255101Y29484529D01*
X88107142Y29423242D01*
X87950075Y29392000D01*
X87789925Y29392000D01*
X87632858Y29423242D01*
X87484899Y29484529D01*
X87351745Y29573499D01*
X87238499Y29686745D01*
X87149529Y29819899D01*
X87088242Y29967858D01*
X87057000Y30124925D01*
X87057000Y30285075D01*
X87088242Y30442142D01*
X87149529Y30590101D01*
X87238499Y30723255D01*
X87351745Y30836501D01*
X87484899Y30925471D01*
X87632858Y30986758D01*
X87789925Y31018000D01*
X87950075Y31018000D01*
X88107142Y30986758D01*
X88107142Y30986758D01*
G37*
G36*
X90647142Y30986758D02*
G01*
X90795101Y30925471D01*
X90928255Y30836501D01*
X91041501Y30723255D01*
X91130471Y30590101D01*
X91191758Y30442142D01*
X91223000Y30285075D01*
X91223000Y30124925D01*
X91191758Y29967858D01*
X91130471Y29819899D01*
X91041501Y29686745D01*
X90928255Y29573499D01*
X90795101Y29484529D01*
X90647142Y29423242D01*
X90490075Y29392000D01*
X90329925Y29392000D01*
X90172858Y29423242D01*
X90024899Y29484529D01*
X89891745Y29573499D01*
X89778499Y29686745D01*
X89689529Y29819899D01*
X89628242Y29967858D01*
X89597000Y30124925D01*
X89597000Y30285075D01*
X89628242Y30442142D01*
X89689529Y30590101D01*
X89778499Y30723255D01*
X89891745Y30836501D01*
X90024899Y30925471D01*
X90172858Y30986758D01*
X90329925Y31018000D01*
X90490075Y31018000D01*
X90647142Y30986758D01*
X90647142Y30986758D01*
G37*
G36*
X83027142Y30986758D02*
G01*
X83175101Y30925471D01*
X83308255Y30836501D01*
X83421501Y30723255D01*
X83510471Y30590101D01*
X83571758Y30442142D01*
X83603000Y30285075D01*
X83603000Y30124925D01*
X83571758Y29967858D01*
X83510471Y29819899D01*
X83421501Y29686745D01*
X83308255Y29573499D01*
X83175101Y29484529D01*
X83027142Y29423242D01*
X82870075Y29392000D01*
X82709925Y29392000D01*
X82552858Y29423242D01*
X82404899Y29484529D01*
X82271745Y29573499D01*
X82158499Y29686745D01*
X82069529Y29819899D01*
X82008242Y29967858D01*
X81977000Y30124925D01*
X81977000Y30285075D01*
X82008242Y30442142D01*
X82069529Y30590101D01*
X82158499Y30723255D01*
X82271745Y30836501D01*
X82404899Y30925471D01*
X82552858Y30986758D01*
X82709925Y31018000D01*
X82870075Y31018000D01*
X83027142Y30986758D01*
X83027142Y30986758D01*
G37*
G36*
X75407142Y30986758D02*
G01*
X75555101Y30925471D01*
X75688255Y30836501D01*
X75801501Y30723255D01*
X75890471Y30590101D01*
X75951758Y30442142D01*
X75983000Y30285075D01*
X75983000Y30124925D01*
X75951758Y29967858D01*
X75890471Y29819899D01*
X75801501Y29686745D01*
X75688255Y29573499D01*
X75555101Y29484529D01*
X75407142Y29423242D01*
X75250075Y29392000D01*
X75089925Y29392000D01*
X74932858Y29423242D01*
X74784899Y29484529D01*
X74651745Y29573499D01*
X74538499Y29686745D01*
X74449529Y29819899D01*
X74388242Y29967858D01*
X74357000Y30124925D01*
X74357000Y30285075D01*
X74388242Y30442142D01*
X74449529Y30590101D01*
X74538499Y30723255D01*
X74651745Y30836501D01*
X74784899Y30925471D01*
X74932858Y30986758D01*
X75089925Y31018000D01*
X75250075Y31018000D01*
X75407142Y30986758D01*
X75407142Y30986758D01*
G37*
G36*
X77947142Y30986758D02*
G01*
X78095101Y30925471D01*
X78228255Y30836501D01*
X78341501Y30723255D01*
X78430471Y30590101D01*
X78491758Y30442142D01*
X78523000Y30285075D01*
X78523000Y30124925D01*
X78491758Y29967858D01*
X78430471Y29819899D01*
X78341501Y29686745D01*
X78228255Y29573499D01*
X78095101Y29484529D01*
X77947142Y29423242D01*
X77790075Y29392000D01*
X77629925Y29392000D01*
X77472858Y29423242D01*
X77324899Y29484529D01*
X77191745Y29573499D01*
X77078499Y29686745D01*
X76989529Y29819899D01*
X76928242Y29967858D01*
X76897000Y30124925D01*
X76897000Y30285075D01*
X76928242Y30442142D01*
X76989529Y30590101D01*
X77078499Y30723255D01*
X77191745Y30836501D01*
X77324899Y30925471D01*
X77472858Y30986758D01*
X77629925Y31018000D01*
X77790075Y31018000D01*
X77947142Y30986758D01*
X77947142Y30986758D01*
G37*
G36*
X72867142Y30986758D02*
G01*
X73015101Y30925471D01*
X73148255Y30836501D01*
X73261501Y30723255D01*
X73350471Y30590101D01*
X73411758Y30442142D01*
X73443000Y30285075D01*
X73443000Y30124925D01*
X73411758Y29967858D01*
X73350471Y29819899D01*
X73261501Y29686745D01*
X73148255Y29573499D01*
X73015101Y29484529D01*
X72867142Y29423242D01*
X72710075Y29392000D01*
X72549925Y29392000D01*
X72392858Y29423242D01*
X72244899Y29484529D01*
X72111745Y29573499D01*
X71998499Y29686745D01*
X71909529Y29819899D01*
X71848242Y29967858D01*
X71817000Y30124925D01*
X71817000Y30285075D01*
X71848242Y30442142D01*
X71909529Y30590101D01*
X71998499Y30723255D01*
X72111745Y30836501D01*
X72244899Y30925471D01*
X72392858Y30986758D01*
X72549925Y31018000D01*
X72710075Y31018000D01*
X72867142Y30986758D01*
X72867142Y30986758D01*
G37*
G36*
X65247142Y30986758D02*
G01*
X65395101Y30925471D01*
X65528255Y30836501D01*
X65641501Y30723255D01*
X65730471Y30590101D01*
X65791758Y30442142D01*
X65823000Y30285075D01*
X65823000Y30124925D01*
X65791758Y29967858D01*
X65730471Y29819899D01*
X65641501Y29686745D01*
X65528255Y29573499D01*
X65395101Y29484529D01*
X65247142Y29423242D01*
X65090075Y29392000D01*
X64929925Y29392000D01*
X64772858Y29423242D01*
X64624899Y29484529D01*
X64491745Y29573499D01*
X64378499Y29686745D01*
X64289529Y29819899D01*
X64228242Y29967858D01*
X64197000Y30124925D01*
X64197000Y30285075D01*
X64228242Y30442142D01*
X64289529Y30590101D01*
X64378499Y30723255D01*
X64491745Y30836501D01*
X64624899Y30925471D01*
X64772858Y30986758D01*
X64929925Y31018000D01*
X65090075Y31018000D01*
X65247142Y30986758D01*
X65247142Y30986758D01*
G37*
G36*
X62707142Y30986758D02*
G01*
X62855101Y30925471D01*
X62988255Y30836501D01*
X63101501Y30723255D01*
X63190471Y30590101D01*
X63251758Y30442142D01*
X63283000Y30285075D01*
X63283000Y30124925D01*
X63251758Y29967858D01*
X63190471Y29819899D01*
X63101501Y29686745D01*
X62988255Y29573499D01*
X62855101Y29484529D01*
X62707142Y29423242D01*
X62550075Y29392000D01*
X62389925Y29392000D01*
X62232858Y29423242D01*
X62084899Y29484529D01*
X61951745Y29573499D01*
X61838499Y29686745D01*
X61749529Y29819899D01*
X61688242Y29967858D01*
X61657000Y30124925D01*
X61657000Y30285075D01*
X61688242Y30442142D01*
X61749529Y30590101D01*
X61838499Y30723255D01*
X61951745Y30836501D01*
X62084899Y30925471D01*
X62232858Y30986758D01*
X62389925Y31018000D01*
X62550075Y31018000D01*
X62707142Y30986758D01*
X62707142Y30986758D01*
G37*
G36*
X67787142Y30986758D02*
G01*
X67935101Y30925471D01*
X68068255Y30836501D01*
X68181501Y30723255D01*
X68270471Y30590101D01*
X68331758Y30442142D01*
X68363000Y30285075D01*
X68363000Y30124925D01*
X68331758Y29967858D01*
X68270471Y29819899D01*
X68181501Y29686745D01*
X68068255Y29573499D01*
X67935101Y29484529D01*
X67787142Y29423242D01*
X67630075Y29392000D01*
X67469925Y29392000D01*
X67312858Y29423242D01*
X67164899Y29484529D01*
X67031745Y29573499D01*
X66918499Y29686745D01*
X66829529Y29819899D01*
X66768242Y29967858D01*
X66737000Y30124925D01*
X66737000Y30285075D01*
X66768242Y30442142D01*
X66829529Y30590101D01*
X66918499Y30723255D01*
X67031745Y30836501D01*
X67164899Y30925471D01*
X67312858Y30986758D01*
X67469925Y31018000D01*
X67630075Y31018000D01*
X67787142Y30986758D01*
X67787142Y30986758D01*
G37*
G36*
X60167142Y30986758D02*
G01*
X60315101Y30925471D01*
X60448255Y30836501D01*
X60561501Y30723255D01*
X60650471Y30590101D01*
X60711758Y30442142D01*
X60743000Y30285075D01*
X60743000Y30124925D01*
X60711758Y29967858D01*
X60650471Y29819899D01*
X60561501Y29686745D01*
X60448255Y29573499D01*
X60315101Y29484529D01*
X60167142Y29423242D01*
X60010075Y29392000D01*
X59849925Y29392000D01*
X59692858Y29423242D01*
X59544899Y29484529D01*
X59411745Y29573499D01*
X59298499Y29686745D01*
X59209529Y29819899D01*
X59148242Y29967858D01*
X59117000Y30124925D01*
X59117000Y30285075D01*
X59148242Y30442142D01*
X59209529Y30590101D01*
X59298499Y30723255D01*
X59411745Y30836501D01*
X59544899Y30925471D01*
X59692858Y30986758D01*
X59849925Y31018000D01*
X60010075Y31018000D01*
X60167142Y30986758D01*
X60167142Y30986758D01*
G37*
G36*
X55087142Y30986758D02*
G01*
X55235101Y30925471D01*
X55368255Y30836501D01*
X55481501Y30723255D01*
X55570471Y30590101D01*
X55631758Y30442142D01*
X55663000Y30285075D01*
X55663000Y30124925D01*
X55631758Y29967858D01*
X55570471Y29819899D01*
X55481501Y29686745D01*
X55368255Y29573499D01*
X55235101Y29484529D01*
X55087142Y29423242D01*
X54930075Y29392000D01*
X54769925Y29392000D01*
X54612858Y29423242D01*
X54464899Y29484529D01*
X54331745Y29573499D01*
X54218499Y29686745D01*
X54129529Y29819899D01*
X54068242Y29967858D01*
X54037000Y30124925D01*
X54037000Y30285075D01*
X54068242Y30442142D01*
X54129529Y30590101D01*
X54218499Y30723255D01*
X54331745Y30836501D01*
X54464899Y30925471D01*
X54612858Y30986758D01*
X54769925Y31018000D01*
X54930075Y31018000D01*
X55087142Y30986758D01*
X55087142Y30986758D01*
G37*
G36*
X57627142Y30986758D02*
G01*
X57775101Y30925471D01*
X57908255Y30836501D01*
X58021501Y30723255D01*
X58110471Y30590101D01*
X58171758Y30442142D01*
X58203000Y30285075D01*
X58203000Y30124925D01*
X58171758Y29967858D01*
X58110471Y29819899D01*
X58021501Y29686745D01*
X57908255Y29573499D01*
X57775101Y29484529D01*
X57627142Y29423242D01*
X57470075Y29392000D01*
X57309925Y29392000D01*
X57152858Y29423242D01*
X57004899Y29484529D01*
X56871745Y29573499D01*
X56758499Y29686745D01*
X56669529Y29819899D01*
X56608242Y29967858D01*
X56577000Y30124925D01*
X56577000Y30285075D01*
X56608242Y30442142D01*
X56669529Y30590101D01*
X56758499Y30723255D01*
X56871745Y30836501D01*
X57004899Y30925471D01*
X57152858Y30986758D01*
X57309925Y31018000D01*
X57470075Y31018000D01*
X57627142Y30986758D01*
X57627142Y30986758D01*
G37*
G36*
X70327142Y30986758D02*
G01*
X70475101Y30925471D01*
X70608255Y30836501D01*
X70721501Y30723255D01*
X70810471Y30590101D01*
X70871758Y30442142D01*
X70903000Y30285075D01*
X70903000Y30124925D01*
X70871758Y29967858D01*
X70810471Y29819899D01*
X70721501Y29686745D01*
X70608255Y29573499D01*
X70475101Y29484529D01*
X70327142Y29423242D01*
X70170075Y29392000D01*
X70009925Y29392000D01*
X69852858Y29423242D01*
X69704899Y29484529D01*
X69571745Y29573499D01*
X69458499Y29686745D01*
X69369529Y29819899D01*
X69308242Y29967858D01*
X69277000Y30124925D01*
X69277000Y30285075D01*
X69308242Y30442142D01*
X69369529Y30590101D01*
X69458499Y30723255D01*
X69571745Y30836501D01*
X69704899Y30925471D01*
X69852858Y30986758D01*
X70009925Y31018000D01*
X70170075Y31018000D01*
X70327142Y30986758D01*
X70327142Y30986758D01*
G37*
G36*
X108305114Y33805824D02*
G01*
X108399168Y33796561D01*
X108600299Y33735549D01*
X108686110Y33689682D01*
X108785661Y33636471D01*
X108948133Y33503133D01*
X109081471Y33340661D01*
X109134682Y33241110D01*
X109180549Y33155299D01*
X109241561Y32954168D01*
X109262162Y32745000D01*
X109241561Y32535832D01*
X109180549Y32334701D01*
X109134682Y32248890D01*
X109081471Y32149339D01*
X108948133Y31986867D01*
X108785661Y31853529D01*
X108686110Y31800318D01*
X108600299Y31754451D01*
X108399168Y31693439D01*
X108305114Y31684176D01*
X108242413Y31678000D01*
X108137587Y31678000D01*
X108074886Y31684176D01*
X107980832Y31693439D01*
X107779701Y31754451D01*
X107693890Y31800318D01*
X107594339Y31853529D01*
X107431867Y31986867D01*
X107298529Y32149339D01*
X107245318Y32248890D01*
X107199451Y32334701D01*
X107138439Y32535832D01*
X107117838Y32745000D01*
X107138439Y32954168D01*
X107199451Y33155299D01*
X107245318Y33241110D01*
X107298529Y33340661D01*
X107431867Y33503133D01*
X107594339Y33636471D01*
X107693890Y33689682D01*
X107779701Y33735549D01*
X107980832Y33796561D01*
X108074886Y33805824D01*
X108137587Y33812000D01*
X108242413Y33812000D01*
X108305114Y33805824D01*
X108305114Y33805824D01*
G37*
G36*
X109257000Y34218000D02*
G01*
X107123000Y34218000D01*
X107123000Y36352000D01*
X109257000Y36352000D01*
X109257000Y34218000D01*
X109257000Y34218000D01*
G37*
G36*
X29194487Y37806004D02*
G01*
X29431253Y37707932D01*
X29431255Y37707931D01*
X29644339Y37565553D01*
X29825553Y37384339D01*
X29967932Y37171253D01*
X30066004Y36934487D01*
X30116000Y36683139D01*
X30116000Y36426861D01*
X30066004Y36175513D01*
X29967932Y35938747D01*
X29967931Y35938745D01*
X29825553Y35725661D01*
X29644339Y35544447D01*
X29431255Y35402069D01*
X29431254Y35402068D01*
X29431253Y35402068D01*
X29194487Y35303996D01*
X28943139Y35254000D01*
X28686861Y35254000D01*
X28435513Y35303996D01*
X28198747Y35402068D01*
X28198746Y35402068D01*
X28198745Y35402069D01*
X27985661Y35544447D01*
X27804447Y35725661D01*
X27662069Y35938745D01*
X27662068Y35938747D01*
X27563996Y36175513D01*
X27514000Y36426861D01*
X27514000Y36683139D01*
X27563996Y36934487D01*
X27662068Y37171253D01*
X27804447Y37384339D01*
X27985661Y37565553D01*
X28198745Y37707931D01*
X28198747Y37707932D01*
X28435513Y37806004D01*
X28686861Y37856000D01*
X28943139Y37856000D01*
X29194487Y37806004D01*
X29194487Y37806004D01*
G37*
G36*
X23479487Y37806004D02*
G01*
X23716253Y37707932D01*
X23716255Y37707931D01*
X23929339Y37565553D01*
X24110553Y37384339D01*
X24252932Y37171253D01*
X24351004Y36934487D01*
X24401000Y36683139D01*
X24401000Y36426861D01*
X24351004Y36175513D01*
X24252932Y35938747D01*
X24252931Y35938745D01*
X24110553Y35725661D01*
X23929339Y35544447D01*
X23716255Y35402069D01*
X23716254Y35402068D01*
X23716253Y35402068D01*
X23479487Y35303996D01*
X23228139Y35254000D01*
X22971861Y35254000D01*
X22720513Y35303996D01*
X22483747Y35402068D01*
X22483746Y35402068D01*
X22483745Y35402069D01*
X22270661Y35544447D01*
X22089447Y35725661D01*
X21947069Y35938745D01*
X21947068Y35938747D01*
X21848996Y36175513D01*
X21799000Y36426861D01*
X21799000Y36683139D01*
X21848996Y36934487D01*
X21947068Y37171253D01*
X22089447Y37384339D01*
X22270661Y37565553D01*
X22483745Y37707931D01*
X22483747Y37707932D01*
X22720513Y37806004D01*
X22971861Y37856000D01*
X23228139Y37856000D01*
X23479487Y37806004D01*
X23479487Y37806004D01*
G37*
G36*
X29048642Y44310219D02*
G01*
X29194414Y44249838D01*
X29194416Y44249837D01*
X29325608Y44162178D01*
X29437178Y44050608D01*
X29524837Y43919416D01*
X29524838Y43919414D01*
X29585219Y43773642D01*
X29616000Y43618893D01*
X29616000Y43461107D01*
X29585219Y43306358D01*
X29524838Y43160586D01*
X29524837Y43160584D01*
X29437178Y43029392D01*
X29325608Y42917822D01*
X29194416Y42830163D01*
X29194415Y42830162D01*
X29194414Y42830162D01*
X29048642Y42769781D01*
X28893893Y42739000D01*
X28736107Y42739000D01*
X28581358Y42769781D01*
X28435586Y42830162D01*
X28435585Y42830162D01*
X28435584Y42830163D01*
X28304392Y42917822D01*
X28192822Y43029392D01*
X28105163Y43160584D01*
X28105162Y43160586D01*
X28044781Y43306358D01*
X28014000Y43461107D01*
X28014000Y43618893D01*
X28044781Y43773642D01*
X28105162Y43919414D01*
X28105163Y43919416D01*
X28192822Y44050608D01*
X28304392Y44162178D01*
X28435584Y44249837D01*
X28435586Y44249838D01*
X28581358Y44310219D01*
X28736107Y44341000D01*
X28893893Y44341000D01*
X29048642Y44310219D01*
X29048642Y44310219D01*
G37*
G36*
X39208642Y44310219D02*
G01*
X39354414Y44249838D01*
X39354416Y44249837D01*
X39485608Y44162178D01*
X39597178Y44050608D01*
X39684837Y43919416D01*
X39684838Y43919414D01*
X39745219Y43773642D01*
X39776000Y43618893D01*
X39776000Y43461107D01*
X39745219Y43306358D01*
X39684838Y43160586D01*
X39684837Y43160584D01*
X39597178Y43029392D01*
X39485608Y42917822D01*
X39354416Y42830163D01*
X39354415Y42830162D01*
X39354414Y42830162D01*
X39208642Y42769781D01*
X39053893Y42739000D01*
X38896107Y42739000D01*
X38741358Y42769781D01*
X38595586Y42830162D01*
X38595585Y42830162D01*
X38595584Y42830163D01*
X38464392Y42917822D01*
X38352822Y43029392D01*
X38265163Y43160584D01*
X38265162Y43160586D01*
X38204781Y43306358D01*
X38174000Y43461107D01*
X38174000Y43618893D01*
X38204781Y43773642D01*
X38265162Y43919414D01*
X38265163Y43919416D01*
X38352822Y44050608D01*
X38464392Y44162178D01*
X38595584Y44249837D01*
X38595586Y44249838D01*
X38741358Y44310219D01*
X38896107Y44341000D01*
X39053893Y44341000D01*
X39208642Y44310219D01*
X39208642Y44310219D01*
G37*
G36*
X18888642Y44310219D02*
G01*
X19034414Y44249838D01*
X19034416Y44249837D01*
X19165608Y44162178D01*
X19277178Y44050608D01*
X19364837Y43919416D01*
X19364838Y43919414D01*
X19425219Y43773642D01*
X19456000Y43618893D01*
X19456000Y43461107D01*
X19425219Y43306358D01*
X19364838Y43160586D01*
X19364837Y43160584D01*
X19277178Y43029392D01*
X19165608Y42917822D01*
X19034416Y42830163D01*
X19034415Y42830162D01*
X19034414Y42830162D01*
X18888642Y42769781D01*
X18733893Y42739000D01*
X18576107Y42739000D01*
X18421358Y42769781D01*
X18275586Y42830162D01*
X18275585Y42830162D01*
X18275584Y42830163D01*
X18144392Y42917822D01*
X18032822Y43029392D01*
X17945163Y43160584D01*
X17945162Y43160586D01*
X17884781Y43306358D01*
X17854000Y43461107D01*
X17854000Y43618893D01*
X17884781Y43773642D01*
X17945162Y43919414D01*
X17945163Y43919416D01*
X18032822Y44050608D01*
X18144392Y44162178D01*
X18275584Y44249837D01*
X18275586Y44249838D01*
X18421358Y44310219D01*
X18576107Y44341000D01*
X18733893Y44341000D01*
X18888642Y44310219D01*
X18888642Y44310219D01*
G37*
G36*
X8797585Y56721198D02*
G01*
X8947410Y56691396D01*
X9229674Y56574479D01*
X9483705Y56404741D01*
X9699741Y56188705D01*
X9869479Y55934674D01*
X9986396Y55652410D01*
X10046000Y55352760D01*
X10046000Y55047240D01*
X9986396Y54747590D01*
X9869479Y54465326D01*
X9699741Y54211295D01*
X9483705Y53995259D01*
X9229674Y53825521D01*
X8947410Y53708604D01*
X8797585Y53678802D01*
X8647761Y53649000D01*
X8342239Y53649000D01*
X8192415Y53678802D01*
X8042590Y53708604D01*
X7760326Y53825521D01*
X7506295Y53995259D01*
X7290259Y54211295D01*
X7120521Y54465326D01*
X7003604Y54747590D01*
X6944000Y55047240D01*
X6944000Y55352760D01*
X7003604Y55652410D01*
X7120521Y55934674D01*
X7290259Y56188705D01*
X7506295Y56404741D01*
X7760326Y56574479D01*
X8042590Y56691396D01*
X8192415Y56721198D01*
X8342239Y56751000D01*
X8647761Y56751000D01*
X8797585Y56721198D01*
X8797585Y56721198D01*
G37*
G36*
X99544098Y59127967D02*
G01*
X100008350Y58935668D01*
X100008352Y58935667D01*
X100426168Y58656491D01*
X100781491Y58301168D01*
X101044293Y57907857D01*
X101060668Y57883350D01*
X101252967Y57419098D01*
X101351000Y56926253D01*
X101351000Y56423747D01*
X101252967Y55930902D01*
X101060668Y55466650D01*
X101060667Y55466648D01*
X100781491Y55048832D01*
X100426168Y54693509D01*
X100008352Y54414333D01*
X100008351Y54414332D01*
X100008350Y54414332D01*
X99544098Y54222033D01*
X99051253Y54124000D01*
X98548747Y54124000D01*
X98055902Y54222033D01*
X97591650Y54414332D01*
X97591649Y54414332D01*
X97591648Y54414333D01*
X97173832Y54693509D01*
X96818509Y55048832D01*
X96539333Y55466648D01*
X96539332Y55466650D01*
X96347033Y55930902D01*
X96249000Y56423747D01*
X96249000Y56926253D01*
X96347033Y57419098D01*
X96539332Y57883350D01*
X96555707Y57907857D01*
X96818509Y58301168D01*
X97173832Y58656491D01*
X97591648Y58935667D01*
X97591650Y58935668D01*
X98055902Y59127967D01*
X98548747Y59226000D01*
X99051253Y59226000D01*
X99544098Y59127967D01*
X99544098Y59127967D01*
G37*
G36*
X47224098Y59127967D02*
G01*
X47688350Y58935668D01*
X47688352Y58935667D01*
X48106168Y58656491D01*
X48461491Y58301168D01*
X48724293Y57907857D01*
X48740668Y57883350D01*
X48932967Y57419098D01*
X49031000Y56926253D01*
X49031000Y56423747D01*
X48932967Y55930902D01*
X48740668Y55466650D01*
X48740667Y55466648D01*
X48461491Y55048832D01*
X48106168Y54693509D01*
X47688352Y54414333D01*
X47688351Y54414332D01*
X47688350Y54414332D01*
X47224098Y54222033D01*
X46731253Y54124000D01*
X46228747Y54124000D01*
X45735902Y54222033D01*
X45271650Y54414332D01*
X45271649Y54414332D01*
X45271648Y54414333D01*
X44853832Y54693509D01*
X44498509Y55048832D01*
X44219333Y55466648D01*
X44219332Y55466650D01*
X44027033Y55930902D01*
X43929000Y56423747D01*
X43929000Y56926253D01*
X44027033Y57419098D01*
X44219332Y57883350D01*
X44235707Y57907857D01*
X44498509Y58301168D01*
X44853832Y58656491D01*
X45271648Y58935667D01*
X45271650Y58935668D01*
X45735902Y59127967D01*
X46228747Y59226000D01*
X46731253Y59226000D01*
X47224098Y59127967D01*
X47224098Y59127967D01*
G37*
G36*
X55087142Y58926758D02*
G01*
X55235101Y58865471D01*
X55368255Y58776501D01*
X55481501Y58663255D01*
X55570471Y58530101D01*
X55631758Y58382142D01*
X55663000Y58225075D01*
X55663000Y58064925D01*
X55631758Y57907858D01*
X55570471Y57759899D01*
X55481501Y57626745D01*
X55368255Y57513499D01*
X55235101Y57424529D01*
X55087142Y57363242D01*
X54930075Y57332000D01*
X54769925Y57332000D01*
X54612858Y57363242D01*
X54464899Y57424529D01*
X54331745Y57513499D01*
X54218499Y57626745D01*
X54129529Y57759899D01*
X54068242Y57907858D01*
X54037000Y58064925D01*
X54037000Y58225075D01*
X54068242Y58382142D01*
X54129529Y58530101D01*
X54218499Y58663255D01*
X54331745Y58776501D01*
X54464899Y58865471D01*
X54612858Y58926758D01*
X54769925Y58958000D01*
X54930075Y58958000D01*
X55087142Y58926758D01*
X55087142Y58926758D01*
G37*
G36*
X90647142Y58926758D02*
G01*
X90795101Y58865471D01*
X90928255Y58776501D01*
X91041501Y58663255D01*
X91130471Y58530101D01*
X91191758Y58382142D01*
X91223000Y58225075D01*
X91223000Y58064925D01*
X91191758Y57907858D01*
X91130471Y57759899D01*
X91041501Y57626745D01*
X90928255Y57513499D01*
X90795101Y57424529D01*
X90647142Y57363242D01*
X90490075Y57332000D01*
X90329925Y57332000D01*
X90172858Y57363242D01*
X90024899Y57424529D01*
X89891745Y57513499D01*
X89778499Y57626745D01*
X89689529Y57759899D01*
X89628242Y57907858D01*
X89597000Y58064925D01*
X89597000Y58225075D01*
X89628242Y58382142D01*
X89689529Y58530101D01*
X89778499Y58663255D01*
X89891745Y58776501D01*
X90024899Y58865471D01*
X90172858Y58926758D01*
X90329925Y58958000D01*
X90490075Y58958000D01*
X90647142Y58926758D01*
X90647142Y58926758D01*
G37*
G36*
X88107142Y58926758D02*
G01*
X88255101Y58865471D01*
X88388255Y58776501D01*
X88501501Y58663255D01*
X88590471Y58530101D01*
X88651758Y58382142D01*
X88683000Y58225075D01*
X88683000Y58064925D01*
X88651758Y57907858D01*
X88590471Y57759899D01*
X88501501Y57626745D01*
X88388255Y57513499D01*
X88255101Y57424529D01*
X88107142Y57363242D01*
X87950075Y57332000D01*
X87789925Y57332000D01*
X87632858Y57363242D01*
X87484899Y57424529D01*
X87351745Y57513499D01*
X87238499Y57626745D01*
X87149529Y57759899D01*
X87088242Y57907858D01*
X87057000Y58064925D01*
X87057000Y58225075D01*
X87088242Y58382142D01*
X87149529Y58530101D01*
X87238499Y58663255D01*
X87351745Y58776501D01*
X87484899Y58865471D01*
X87632858Y58926758D01*
X87789925Y58958000D01*
X87950075Y58958000D01*
X88107142Y58926758D01*
X88107142Y58926758D01*
G37*
G36*
X77947142Y58926758D02*
G01*
X78095101Y58865471D01*
X78228255Y58776501D01*
X78341501Y58663255D01*
X78430471Y58530101D01*
X78491758Y58382142D01*
X78523000Y58225075D01*
X78523000Y58064925D01*
X78491758Y57907858D01*
X78430471Y57759899D01*
X78341501Y57626745D01*
X78228255Y57513499D01*
X78095101Y57424529D01*
X77947142Y57363242D01*
X77790075Y57332000D01*
X77629925Y57332000D01*
X77472858Y57363242D01*
X77324899Y57424529D01*
X77191745Y57513499D01*
X77078499Y57626745D01*
X76989529Y57759899D01*
X76928242Y57907858D01*
X76897000Y58064925D01*
X76897000Y58225075D01*
X76928242Y58382142D01*
X76989529Y58530101D01*
X77078499Y58663255D01*
X77191745Y58776501D01*
X77324899Y58865471D01*
X77472858Y58926758D01*
X77629925Y58958000D01*
X77790075Y58958000D01*
X77947142Y58926758D01*
X77947142Y58926758D01*
G37*
G36*
X75407142Y58926758D02*
G01*
X75555101Y58865471D01*
X75688255Y58776501D01*
X75801501Y58663255D01*
X75890471Y58530101D01*
X75951758Y58382142D01*
X75983000Y58225075D01*
X75983000Y58064925D01*
X75951758Y57907858D01*
X75890471Y57759899D01*
X75801501Y57626745D01*
X75688255Y57513499D01*
X75555101Y57424529D01*
X75407142Y57363242D01*
X75250075Y57332000D01*
X75089925Y57332000D01*
X74932858Y57363242D01*
X74784899Y57424529D01*
X74651745Y57513499D01*
X74538499Y57626745D01*
X74449529Y57759899D01*
X74388242Y57907858D01*
X74357000Y58064925D01*
X74357000Y58225075D01*
X74388242Y58382142D01*
X74449529Y58530101D01*
X74538499Y58663255D01*
X74651745Y58776501D01*
X74784899Y58865471D01*
X74932858Y58926758D01*
X75089925Y58958000D01*
X75250075Y58958000D01*
X75407142Y58926758D01*
X75407142Y58926758D01*
G37*
G36*
X72867142Y58926758D02*
G01*
X73015101Y58865471D01*
X73148255Y58776501D01*
X73261501Y58663255D01*
X73350471Y58530101D01*
X73411758Y58382142D01*
X73443000Y58225075D01*
X73443000Y58064925D01*
X73411758Y57907858D01*
X73350471Y57759899D01*
X73261501Y57626745D01*
X73148255Y57513499D01*
X73015101Y57424529D01*
X72867142Y57363242D01*
X72710075Y57332000D01*
X72549925Y57332000D01*
X72392858Y57363242D01*
X72244899Y57424529D01*
X72111745Y57513499D01*
X71998499Y57626745D01*
X71909529Y57759899D01*
X71848242Y57907858D01*
X71817000Y58064925D01*
X71817000Y58225075D01*
X71848242Y58382142D01*
X71909529Y58530101D01*
X71998499Y58663255D01*
X72111745Y58776501D01*
X72244899Y58865471D01*
X72392858Y58926758D01*
X72549925Y58958000D01*
X72710075Y58958000D01*
X72867142Y58926758D01*
X72867142Y58926758D01*
G37*
G36*
X70327142Y58926758D02*
G01*
X70475101Y58865471D01*
X70608255Y58776501D01*
X70721501Y58663255D01*
X70810471Y58530101D01*
X70871758Y58382142D01*
X70903000Y58225075D01*
X70903000Y58064925D01*
X70871758Y57907858D01*
X70810471Y57759899D01*
X70721501Y57626745D01*
X70608255Y57513499D01*
X70475101Y57424529D01*
X70327142Y57363242D01*
X70170075Y57332000D01*
X70009925Y57332000D01*
X69852858Y57363242D01*
X69704899Y57424529D01*
X69571745Y57513499D01*
X69458499Y57626745D01*
X69369529Y57759899D01*
X69308242Y57907858D01*
X69277000Y58064925D01*
X69277000Y58225075D01*
X69308242Y58382142D01*
X69369529Y58530101D01*
X69458499Y58663255D01*
X69571745Y58776501D01*
X69704899Y58865471D01*
X69852858Y58926758D01*
X70009925Y58958000D01*
X70170075Y58958000D01*
X70327142Y58926758D01*
X70327142Y58926758D01*
G37*
G36*
X67787142Y58926758D02*
G01*
X67935101Y58865471D01*
X68068255Y58776501D01*
X68181501Y58663255D01*
X68270471Y58530101D01*
X68331758Y58382142D01*
X68363000Y58225075D01*
X68363000Y58064925D01*
X68331758Y57907858D01*
X68270471Y57759899D01*
X68181501Y57626745D01*
X68068255Y57513499D01*
X67935101Y57424529D01*
X67787142Y57363242D01*
X67630075Y57332000D01*
X67469925Y57332000D01*
X67312858Y57363242D01*
X67164899Y57424529D01*
X67031745Y57513499D01*
X66918499Y57626745D01*
X66829529Y57759899D01*
X66768242Y57907858D01*
X66737000Y58064925D01*
X66737000Y58225075D01*
X66768242Y58382142D01*
X66829529Y58530101D01*
X66918499Y58663255D01*
X67031745Y58776501D01*
X67164899Y58865471D01*
X67312858Y58926758D01*
X67469925Y58958000D01*
X67630075Y58958000D01*
X67787142Y58926758D01*
X67787142Y58926758D01*
G37*
G36*
X83027142Y58926758D02*
G01*
X83175101Y58865471D01*
X83308255Y58776501D01*
X83421501Y58663255D01*
X83510471Y58530101D01*
X83571758Y58382142D01*
X83603000Y58225075D01*
X83603000Y58064925D01*
X83571758Y57907858D01*
X83510471Y57759899D01*
X83421501Y57626745D01*
X83308255Y57513499D01*
X83175101Y57424529D01*
X83027142Y57363242D01*
X82870075Y57332000D01*
X82709925Y57332000D01*
X82552858Y57363242D01*
X82404899Y57424529D01*
X82271745Y57513499D01*
X82158499Y57626745D01*
X82069529Y57759899D01*
X82008242Y57907858D01*
X81977000Y58064925D01*
X81977000Y58225075D01*
X82008242Y58382142D01*
X82069529Y58530101D01*
X82158499Y58663255D01*
X82271745Y58776501D01*
X82404899Y58865471D01*
X82552858Y58926758D01*
X82709925Y58958000D01*
X82870075Y58958000D01*
X83027142Y58926758D01*
X83027142Y58926758D01*
G37*
G36*
X85567142Y58926758D02*
G01*
X85715101Y58865471D01*
X85848255Y58776501D01*
X85961501Y58663255D01*
X86050471Y58530101D01*
X86111758Y58382142D01*
X86143000Y58225075D01*
X86143000Y58064925D01*
X86111758Y57907858D01*
X86050471Y57759899D01*
X85961501Y57626745D01*
X85848255Y57513499D01*
X85715101Y57424529D01*
X85567142Y57363242D01*
X85410075Y57332000D01*
X85249925Y57332000D01*
X85092858Y57363242D01*
X84944899Y57424529D01*
X84811745Y57513499D01*
X84698499Y57626745D01*
X84609529Y57759899D01*
X84548242Y57907858D01*
X84517000Y58064925D01*
X84517000Y58225075D01*
X84548242Y58382142D01*
X84609529Y58530101D01*
X84698499Y58663255D01*
X84811745Y58776501D01*
X84944899Y58865471D01*
X85092858Y58926758D01*
X85249925Y58958000D01*
X85410075Y58958000D01*
X85567142Y58926758D01*
X85567142Y58926758D01*
G37*
G36*
X62707142Y58926758D02*
G01*
X62855101Y58865471D01*
X62988255Y58776501D01*
X63101501Y58663255D01*
X63190471Y58530101D01*
X63251758Y58382142D01*
X63283000Y58225075D01*
X63283000Y58064925D01*
X63251758Y57907858D01*
X63190471Y57759899D01*
X63101501Y57626745D01*
X62988255Y57513499D01*
X62855101Y57424529D01*
X62707142Y57363242D01*
X62550075Y57332000D01*
X62389925Y57332000D01*
X62232858Y57363242D01*
X62084899Y57424529D01*
X61951745Y57513499D01*
X61838499Y57626745D01*
X61749529Y57759899D01*
X61688242Y57907858D01*
X61657000Y58064925D01*
X61657000Y58225075D01*
X61688242Y58382142D01*
X61749529Y58530101D01*
X61838499Y58663255D01*
X61951745Y58776501D01*
X62084899Y58865471D01*
X62232858Y58926758D01*
X62389925Y58958000D01*
X62550075Y58958000D01*
X62707142Y58926758D01*
X62707142Y58926758D01*
G37*
G36*
X80487142Y58926758D02*
G01*
X80635101Y58865471D01*
X80768255Y58776501D01*
X80881501Y58663255D01*
X80970471Y58530101D01*
X81031758Y58382142D01*
X81063000Y58225075D01*
X81063000Y58064925D01*
X81031758Y57907858D01*
X80970471Y57759899D01*
X80881501Y57626745D01*
X80768255Y57513499D01*
X80635101Y57424529D01*
X80487142Y57363242D01*
X80330075Y57332000D01*
X80169925Y57332000D01*
X80012858Y57363242D01*
X79864899Y57424529D01*
X79731745Y57513499D01*
X79618499Y57626745D01*
X79529529Y57759899D01*
X79468242Y57907858D01*
X79437000Y58064925D01*
X79437000Y58225075D01*
X79468242Y58382142D01*
X79529529Y58530101D01*
X79618499Y58663255D01*
X79731745Y58776501D01*
X79864899Y58865471D01*
X80012858Y58926758D01*
X80169925Y58958000D01*
X80330075Y58958000D01*
X80487142Y58926758D01*
X80487142Y58926758D01*
G37*
G36*
X57627142Y58926758D02*
G01*
X57775101Y58865471D01*
X57908255Y58776501D01*
X58021501Y58663255D01*
X58110471Y58530101D01*
X58171758Y58382142D01*
X58203000Y58225075D01*
X58203000Y58064925D01*
X58171758Y57907858D01*
X58110471Y57759899D01*
X58021501Y57626745D01*
X57908255Y57513499D01*
X57775101Y57424529D01*
X57627142Y57363242D01*
X57470075Y57332000D01*
X57309925Y57332000D01*
X57152858Y57363242D01*
X57004899Y57424529D01*
X56871745Y57513499D01*
X56758499Y57626745D01*
X56669529Y57759899D01*
X56608242Y57907858D01*
X56577000Y58064925D01*
X56577000Y58225075D01*
X56608242Y58382142D01*
X56669529Y58530101D01*
X56758499Y58663255D01*
X56871745Y58776501D01*
X57004899Y58865471D01*
X57152858Y58926758D01*
X57309925Y58958000D01*
X57470075Y58958000D01*
X57627142Y58926758D01*
X57627142Y58926758D01*
G37*
G36*
X60167142Y58926758D02*
G01*
X60315101Y58865471D01*
X60448255Y58776501D01*
X60561501Y58663255D01*
X60650471Y58530101D01*
X60711758Y58382142D01*
X60743000Y58225075D01*
X60743000Y58064925D01*
X60711758Y57907858D01*
X60650471Y57759899D01*
X60561501Y57626745D01*
X60448255Y57513499D01*
X60315101Y57424529D01*
X60167142Y57363242D01*
X60010075Y57332000D01*
X59849925Y57332000D01*
X59692858Y57363242D01*
X59544899Y57424529D01*
X59411745Y57513499D01*
X59298499Y57626745D01*
X59209529Y57759899D01*
X59148242Y57907858D01*
X59117000Y58064925D01*
X59117000Y58225075D01*
X59148242Y58382142D01*
X59209529Y58530101D01*
X59298499Y58663255D01*
X59411745Y58776501D01*
X59544899Y58865471D01*
X59692858Y58926758D01*
X59849925Y58958000D01*
X60010075Y58958000D01*
X60167142Y58926758D01*
X60167142Y58926758D01*
G37*
G36*
X65247142Y58926758D02*
G01*
X65395101Y58865471D01*
X65528255Y58776501D01*
X65641501Y58663255D01*
X65730471Y58530101D01*
X65791758Y58382142D01*
X65823000Y58225075D01*
X65823000Y58064925D01*
X65791758Y57907858D01*
X65730471Y57759899D01*
X65641501Y57626745D01*
X65528255Y57513499D01*
X65395101Y57424529D01*
X65247142Y57363242D01*
X65090075Y57332000D01*
X64929925Y57332000D01*
X64772858Y57363242D01*
X64624899Y57424529D01*
X64491745Y57513499D01*
X64378499Y57626745D01*
X64289529Y57759899D01*
X64228242Y57907858D01*
X64197000Y58064925D01*
X64197000Y58225075D01*
X64228242Y58382142D01*
X64289529Y58530101D01*
X64378499Y58663255D01*
X64491745Y58776501D01*
X64624899Y58865471D01*
X64772858Y58926758D01*
X64929925Y58958000D01*
X65090075Y58958000D01*
X65247142Y58926758D01*
X65247142Y58926758D01*
G37*
G36*
X39208642Y64630219D02*
G01*
X39354414Y64569838D01*
X39354416Y64569837D01*
X39485608Y64482178D01*
X39597178Y64370608D01*
X39684837Y64239416D01*
X39684838Y64239414D01*
X39745219Y64093642D01*
X39776000Y63938893D01*
X39776000Y63781107D01*
X39745219Y63626358D01*
X39684838Y63480586D01*
X39684837Y63480584D01*
X39597178Y63349392D01*
X39485608Y63237822D01*
X39354416Y63150163D01*
X39354415Y63150162D01*
X39354414Y63150162D01*
X39208642Y63089781D01*
X39053893Y63059000D01*
X38896107Y63059000D01*
X38741358Y63089781D01*
X38595586Y63150162D01*
X38595585Y63150162D01*
X38595584Y63150163D01*
X38464392Y63237822D01*
X38352822Y63349392D01*
X38265163Y63480584D01*
X38265162Y63480586D01*
X38204781Y63626358D01*
X38174000Y63781107D01*
X38174000Y63938893D01*
X38204781Y64093642D01*
X38265162Y64239414D01*
X38265163Y64239416D01*
X38352822Y64370608D01*
X38464392Y64482178D01*
X38595584Y64569837D01*
X38595586Y64569838D01*
X38741358Y64630219D01*
X38896107Y64661000D01*
X39053893Y64661000D01*
X39208642Y64630219D01*
X39208642Y64630219D01*
G37*
G36*
X34128642Y64630219D02*
G01*
X34274414Y64569838D01*
X34274416Y64569837D01*
X34405608Y64482178D01*
X34517178Y64370608D01*
X34604837Y64239416D01*
X34604838Y64239414D01*
X34665219Y64093642D01*
X34696000Y63938893D01*
X34696000Y63781107D01*
X34665219Y63626358D01*
X34604838Y63480586D01*
X34604837Y63480584D01*
X34517178Y63349392D01*
X34405608Y63237822D01*
X34274416Y63150163D01*
X34274415Y63150162D01*
X34274414Y63150162D01*
X34128642Y63089781D01*
X33973893Y63059000D01*
X33816107Y63059000D01*
X33661358Y63089781D01*
X33515586Y63150162D01*
X33515585Y63150162D01*
X33515584Y63150163D01*
X33384392Y63237822D01*
X33272822Y63349392D01*
X33185163Y63480584D01*
X33185162Y63480586D01*
X33124781Y63626358D01*
X33094000Y63781107D01*
X33094000Y63938893D01*
X33124781Y64093642D01*
X33185162Y64239414D01*
X33185163Y64239416D01*
X33272822Y64370608D01*
X33384392Y64482178D01*
X33515584Y64569837D01*
X33515586Y64569838D01*
X33661358Y64630219D01*
X33816107Y64661000D01*
X33973893Y64661000D01*
X34128642Y64630219D01*
X34128642Y64630219D01*
G37*
G36*
X8813433Y67815107D02*
G01*
X8903657Y67797161D01*
X9009267Y67753415D01*
X9158621Y67691551D01*
X9158622Y67691550D01*
X9388086Y67538228D01*
X9583228Y67343086D01*
X9685675Y67189763D01*
X9736551Y67113621D01*
X9842161Y66858656D01*
X9896000Y66587988D01*
X9896000Y66312012D01*
X9842161Y66041344D01*
X9736551Y65786379D01*
X9736550Y65786378D01*
X9583228Y65556914D01*
X9388086Y65361772D01*
X9234763Y65259325D01*
X9158621Y65208449D01*
X9009267Y65146585D01*
X8903657Y65102839D01*
X8813433Y65084893D01*
X8632988Y65049000D01*
X8357012Y65049000D01*
X8176567Y65084893D01*
X8086343Y65102839D01*
X7980733Y65146585D01*
X7831379Y65208449D01*
X7755237Y65259325D01*
X7601914Y65361772D01*
X7406772Y65556914D01*
X7253450Y65786378D01*
X7253449Y65786379D01*
X7147839Y66041344D01*
X7094000Y66312012D01*
X7094000Y66587988D01*
X7147839Y66858656D01*
X7253449Y67113621D01*
X7304325Y67189763D01*
X7406772Y67343086D01*
X7601914Y67538228D01*
X7831378Y67691550D01*
X7831379Y67691551D01*
X7980733Y67753415D01*
X8086343Y67797161D01*
X8176567Y67815107D01*
X8357012Y67851000D01*
X8632988Y67851000D01*
X8813433Y67815107D01*
X8813433Y67815107D01*
G37*
G36*
X22535787Y78914538D02*
G01*
X22535790Y78914537D01*
X22535789Y78914537D01*
X23182029Y78646856D01*
X23763631Y78258242D01*
X24258242Y77763631D01*
X24646856Y77182029D01*
X24836135Y76725068D01*
X24914538Y76535787D01*
X25051000Y75849744D01*
X25051000Y75150256D01*
X24914538Y74464213D01*
X24914537Y74464211D01*
X24646856Y73817971D01*
X24258242Y73236369D01*
X23763631Y72741758D01*
X23182029Y72353144D01*
X22725068Y72163865D01*
X22535787Y72085462D01*
X21849744Y71949000D01*
X21150256Y71949000D01*
X20464213Y72085462D01*
X20274932Y72163865D01*
X19817971Y72353144D01*
X19236369Y72741758D01*
X18741758Y73236369D01*
X18353144Y73817971D01*
X18085463Y74464211D01*
X18085462Y74464213D01*
X17949000Y75150256D01*
X17949000Y75849744D01*
X18085462Y76535787D01*
X18163865Y76725068D01*
X18353144Y77182029D01*
X18741758Y77763631D01*
X19236369Y78258242D01*
X19817971Y78646856D01*
X20464211Y78914537D01*
X20464210Y78914537D01*
X20464213Y78914538D01*
X21150256Y79051000D01*
X21849744Y79051000D01*
X22535787Y78914538D01*
X22535787Y78914538D01*
G37*
G36*
X102535787Y78914538D02*
G01*
X102535790Y78914537D01*
X102535789Y78914537D01*
X103182029Y78646856D01*
X103763631Y78258242D01*
X104258242Y77763631D01*
X104646856Y77182029D01*
X104836135Y76725068D01*
X104914538Y76535787D01*
X105051000Y75849744D01*
X105051000Y75150256D01*
X104914538Y74464213D01*
X104914537Y74464211D01*
X104646856Y73817971D01*
X104258242Y73236369D01*
X103763631Y72741758D01*
X103182029Y72353144D01*
X102725068Y72163865D01*
X102535787Y72085462D01*
X101849744Y71949000D01*
X101150256Y71949000D01*
X100464213Y72085462D01*
X100274932Y72163865D01*
X99817971Y72353144D01*
X99236369Y72741758D01*
X98741758Y73236369D01*
X98353144Y73817971D01*
X98085463Y74464211D01*
X98085462Y74464213D01*
X97949000Y75150256D01*
X97949000Y75849744D01*
X98085462Y76535787D01*
X98163865Y76725068D01*
X98353144Y77182029D01*
X98741758Y77763631D01*
X99236369Y78258242D01*
X99817971Y78646856D01*
X100464211Y78914537D01*
X100464210Y78914537D01*
X100464213Y78914538D01*
X101150256Y79051000D01*
X101849744Y79051000D01*
X102535787Y78914538D01*
X102535787Y78914538D01*
G37*
G36*
X51900085Y77407698D02*
G01*
X52049910Y77377896D01*
X52332174Y77260979D01*
X52586205Y77091241D01*
X52802241Y76875205D01*
X52971979Y76621174D01*
X53088896Y76338910D01*
X53148500Y76039260D01*
X53148500Y75733740D01*
X53088896Y75434090D01*
X52971979Y75151826D01*
X52802241Y74897795D01*
X52586205Y74681759D01*
X52332174Y74512021D01*
X52049910Y74395104D01*
X51900085Y74365302D01*
X51750261Y74335500D01*
X51444739Y74335500D01*
X51294915Y74365302D01*
X51145090Y74395104D01*
X50862826Y74512021D01*
X50608795Y74681759D01*
X50392759Y74897795D01*
X50223021Y75151826D01*
X50106104Y75434090D01*
X50046500Y75733740D01*
X50046500Y76039260D01*
X50106104Y76338910D01*
X50223021Y76621174D01*
X50392759Y76875205D01*
X50608795Y77091241D01*
X50862826Y77260979D01*
X51145090Y77377896D01*
X51294915Y77407698D01*
X51444739Y77437500D01*
X51750261Y77437500D01*
X51900085Y77407698D01*
X51900085Y77407698D01*
G37*
G36*
X58900085Y77407698D02*
G01*
X59049910Y77377896D01*
X59332174Y77260979D01*
X59586205Y77091241D01*
X59802241Y76875205D01*
X59971979Y76621174D01*
X60088896Y76338910D01*
X60148500Y76039260D01*
X60148500Y75733740D01*
X60088896Y75434090D01*
X59971979Y75151826D01*
X59802241Y74897795D01*
X59586205Y74681759D01*
X59332174Y74512021D01*
X59049910Y74395104D01*
X58900085Y74365302D01*
X58750261Y74335500D01*
X58444739Y74335500D01*
X58294915Y74365302D01*
X58145090Y74395104D01*
X57862826Y74512021D01*
X57608795Y74681759D01*
X57392759Y74897795D01*
X57223021Y75151826D01*
X57106104Y75434090D01*
X57046500Y75733740D01*
X57046500Y76039260D01*
X57106104Y76338910D01*
X57223021Y76621174D01*
X57392759Y76875205D01*
X57608795Y77091241D01*
X57862826Y77260979D01*
X58145090Y77377896D01*
X58294915Y77407698D01*
X58444739Y77437500D01*
X58750261Y77437500D01*
X58900085Y77407698D01*
X58900085Y77407698D01*
G37*
G36*
X27394323Y77628687D02*
G01*
X27554742Y77580024D01*
X27616076Y77547240D01*
X27702578Y77501004D01*
X27832159Y77394659D01*
X27938504Y77265078D01*
X27938505Y77265076D01*
X28017524Y77117242D01*
X28066187Y76956823D01*
X28082617Y76790000D01*
X28066187Y76623177D01*
X28017524Y76462758D01*
X27951326Y76338910D01*
X27938504Y76314922D01*
X27832159Y76185341D01*
X27702578Y76078996D01*
X27702576Y76078995D01*
X27554742Y75999976D01*
X27394323Y75951313D01*
X27269304Y75939000D01*
X27185696Y75939000D01*
X27060677Y75951313D01*
X26900258Y75999976D01*
X26752424Y76078995D01*
X26752422Y76078996D01*
X26622841Y76185341D01*
X26516496Y76314922D01*
X26503674Y76338910D01*
X26437476Y76462758D01*
X26388813Y76623177D01*
X26372383Y76790000D01*
X26388813Y76956823D01*
X26437476Y77117242D01*
X26516495Y77265076D01*
X26516496Y77265078D01*
X26622841Y77394659D01*
X26752422Y77501004D01*
X26838924Y77547240D01*
X26900258Y77580024D01*
X27060677Y77628687D01*
X27185696Y77641000D01*
X27269304Y77641000D01*
X27394323Y77628687D01*
X27394323Y77628687D01*
G37*
G36*
X8797585Y79221198D02*
G01*
X8947410Y79191396D01*
X9229674Y79074479D01*
X9483705Y78904741D01*
X9699741Y78688705D01*
X9869479Y78434674D01*
X9986396Y78152410D01*
X10046000Y77852760D01*
X10046000Y77547240D01*
X9986396Y77247590D01*
X9869479Y76965326D01*
X9699741Y76711295D01*
X9483705Y76495259D01*
X9229674Y76325521D01*
X8947410Y76208604D01*
X8830459Y76185341D01*
X8647761Y76149000D01*
X8342239Y76149000D01*
X8159541Y76185341D01*
X8042590Y76208604D01*
X7760326Y76325521D01*
X7506295Y76495259D01*
X7290259Y76711295D01*
X7120521Y76965326D01*
X7003604Y77247590D01*
X6944000Y77547240D01*
X6944000Y77852760D01*
X7003604Y78152410D01*
X7120521Y78434674D01*
X7290259Y78688705D01*
X7506295Y78904741D01*
X7760326Y79074479D01*
X8042590Y79191396D01*
X8192415Y79221198D01*
X8342239Y79251000D01*
X8647761Y79251000D01*
X8797585Y79221198D01*
X8797585Y79221198D01*
G37*
G36*
X85950085Y81247698D02*
G01*
X86099910Y81217896D01*
X86382174Y81100979D01*
X86636205Y80931241D01*
X86852241Y80715205D01*
X87021979Y80461174D01*
X87138896Y80178910D01*
X87198500Y79879260D01*
X87198500Y79573740D01*
X87138896Y79274090D01*
X87021979Y78991826D01*
X86852241Y78737795D01*
X86636205Y78521759D01*
X86382174Y78352021D01*
X86099910Y78235104D01*
X85950085Y78205302D01*
X85800261Y78175500D01*
X85494739Y78175500D01*
X85344915Y78205302D01*
X85195090Y78235104D01*
X84912826Y78352021D01*
X84658795Y78521759D01*
X84442759Y78737795D01*
X84273021Y78991826D01*
X84156104Y79274090D01*
X84096500Y79573740D01*
X84096500Y79879260D01*
X84156104Y80178910D01*
X84273021Y80461174D01*
X84442759Y80715205D01*
X84658795Y80931241D01*
X84912826Y81100979D01*
X85195090Y81217896D01*
X85344915Y81247698D01*
X85494739Y81277500D01*
X85800261Y81277500D01*
X85950085Y81247698D01*
X85950085Y81247698D01*
G37*
G36*
X77350085Y81247698D02*
G01*
X77499910Y81217896D01*
X77782174Y81100979D01*
X78036205Y80931241D01*
X78252241Y80715205D01*
X78421979Y80461174D01*
X78538896Y80178910D01*
X78598500Y79879260D01*
X78598500Y79573740D01*
X78538896Y79274090D01*
X78421979Y78991826D01*
X78252241Y78737795D01*
X78036205Y78521759D01*
X77782174Y78352021D01*
X77499910Y78235104D01*
X77350085Y78205302D01*
X77200261Y78175500D01*
X76894739Y78175500D01*
X76744915Y78205302D01*
X76595090Y78235104D01*
X76312826Y78352021D01*
X76058795Y78521759D01*
X75842759Y78737795D01*
X75673021Y78991826D01*
X75556104Y79274090D01*
X75496500Y79573740D01*
X75496500Y79879260D01*
X75556104Y80178910D01*
X75673021Y80461174D01*
X75842759Y80715205D01*
X76058795Y80931241D01*
X76312826Y81100979D01*
X76595090Y81217896D01*
X76744915Y81247698D01*
X76894739Y81277500D01*
X77200261Y81277500D01*
X77350085Y81247698D01*
X77350085Y81247698D01*
G37*
G36*
X67883287Y86301038D02*
G01*
X68072568Y86222635D01*
X68529529Y86033356D01*
X69111131Y85644742D01*
X69605742Y85150131D01*
X69994356Y84568529D01*
X70106020Y84298947D01*
X70262038Y83922287D01*
X70398500Y83236244D01*
X70398500Y82536756D01*
X70262038Y81850713D01*
X70262037Y81850711D01*
X69994356Y81204471D01*
X69605742Y80622869D01*
X69111131Y80128258D01*
X68529529Y79739644D01*
X68129001Y79573740D01*
X67883287Y79471962D01*
X67197244Y79335500D01*
X66497756Y79335500D01*
X65811713Y79471962D01*
X65565999Y79573740D01*
X65165471Y79739644D01*
X64583869Y80128258D01*
X64089258Y80622869D01*
X63700644Y81204471D01*
X63432963Y81850711D01*
X63432962Y81850713D01*
X63296500Y82536756D01*
X63296500Y83236244D01*
X63432962Y83922287D01*
X63588980Y84298947D01*
X63700644Y84568529D01*
X64089258Y85150131D01*
X64583869Y85644742D01*
X65165471Y86033356D01*
X65622432Y86222635D01*
X65811713Y86301038D01*
X66497756Y86437500D01*
X67197244Y86437500D01*
X67883287Y86301038D01*
X67883287Y86301038D01*
G37*
G36*
X116206612Y87572178D02*
G01*
X116419113Y87529909D01*
X116992558Y87292380D01*
X117508645Y86947541D01*
X117947541Y86508645D01*
X118265120Y86033356D01*
X118292381Y85992556D01*
X118529909Y85419112D01*
X118646286Y84834049D01*
X118651000Y84810346D01*
X118651000Y84189654D01*
X118529909Y83580887D01*
X118292380Y83007442D01*
X117947541Y82491355D01*
X117508645Y82052459D01*
X116992558Y81707620D01*
X116419113Y81470091D01*
X116216191Y81429727D01*
X115810348Y81349000D01*
X115189652Y81349000D01*
X114783809Y81429727D01*
X114580887Y81470091D01*
X114007442Y81707620D01*
X113491355Y82052459D01*
X113052459Y82491355D01*
X112707620Y83007442D01*
X112470091Y83580887D01*
X112349000Y84189654D01*
X112349000Y84810346D01*
X112353715Y84834049D01*
X112470091Y85419112D01*
X112707619Y85992556D01*
X112734881Y86033356D01*
X113052459Y86508645D01*
X113491355Y86947541D01*
X114007442Y87292380D01*
X114580887Y87529909D01*
X114793388Y87572178D01*
X115189652Y87651000D01*
X115810348Y87651000D01*
X116206612Y87572178D01*
X116206612Y87572178D01*
G37*
G36*
X8206612Y87572178D02*
G01*
X8419113Y87529909D01*
X8992558Y87292380D01*
X9508645Y86947541D01*
X9947541Y86508645D01*
X10265120Y86033356D01*
X10292381Y85992556D01*
X10529909Y85419112D01*
X10646286Y84834049D01*
X10651000Y84810346D01*
X10651000Y84189654D01*
X10529909Y83580887D01*
X10292380Y83007442D01*
X9947541Y82491355D01*
X9508645Y82052459D01*
X8992558Y81707620D01*
X8419113Y81470091D01*
X8216191Y81429727D01*
X7810348Y81349000D01*
X7189652Y81349000D01*
X6783809Y81429727D01*
X6580887Y81470091D01*
X6007442Y81707620D01*
X5491355Y82052459D01*
X5052459Y82491355D01*
X4707620Y83007442D01*
X4470091Y83580887D01*
X4349000Y84189654D01*
X4349000Y84810346D01*
X4353715Y84834049D01*
X4470091Y85419112D01*
X4707619Y85992556D01*
X4734881Y86033356D01*
X5052459Y86508645D01*
X5491355Y86947541D01*
X6007442Y87292380D01*
X6580887Y87529909D01*
X6793388Y87572178D01*
X7189652Y87651000D01*
X7810348Y87651000D01*
X8206612Y87572178D01*
X8206612Y87572178D01*
G37*
G36*
X44191598Y88339467D02*
G01*
X44655850Y88147168D01*
X44655852Y88147167D01*
X45073668Y87867991D01*
X45428991Y87512668D01*
X45708167Y87094852D01*
X45708168Y87094850D01*
X45900467Y86630598D01*
X45998500Y86137753D01*
X45998500Y85635247D01*
X45900467Y85142402D01*
X45772744Y84834051D01*
X45708167Y84678148D01*
X45428991Y84260332D01*
X45073668Y83905009D01*
X44655852Y83625833D01*
X44655851Y83625832D01*
X44655850Y83625832D01*
X44191598Y83433533D01*
X43698753Y83335500D01*
X43196247Y83335500D01*
X42703402Y83433533D01*
X42239150Y83625832D01*
X42239149Y83625832D01*
X42239148Y83625833D01*
X41821332Y83905009D01*
X41466009Y84260332D01*
X41186833Y84678148D01*
X41122256Y84834051D01*
X40994533Y85142402D01*
X40896500Y85635247D01*
X40896500Y86137753D01*
X40994533Y86630598D01*
X41186832Y87094850D01*
X41186833Y87094852D01*
X41466009Y87512668D01*
X41821332Y87867991D01*
X42239148Y88147167D01*
X42239150Y88147168D01*
X42703402Y88339467D01*
X43196247Y88437500D01*
X43698753Y88437500D01*
X44191598Y88339467D01*
X44191598Y88339467D01*
G37*
G36*
X88822756Y87495202D02*
G01*
X88929079Y87474053D01*
X89141537Y87386050D01*
X89221093Y87353097D01*
X89229542Y87349597D01*
X89499951Y87168915D01*
X89729915Y86938951D01*
X89778536Y86866184D01*
X89910598Y86668540D01*
X89930218Y86621172D01*
X90035053Y86368079D01*
X90048388Y86301038D01*
X90098500Y86049111D01*
X90098500Y85723889D01*
X90035053Y85404922D01*
X89930218Y85151826D01*
X89910597Y85104458D01*
X89729915Y84834049D01*
X89499951Y84604085D01*
X89229542Y84423403D01*
X88929079Y84298947D01*
X88822756Y84277798D01*
X88610111Y84235500D01*
X88284889Y84235500D01*
X88072244Y84277798D01*
X87965921Y84298947D01*
X87665458Y84423403D01*
X87395049Y84604085D01*
X87165085Y84834049D01*
X86984403Y85104458D01*
X86964783Y85151826D01*
X86859947Y85404922D01*
X86796500Y85723889D01*
X86796500Y86049111D01*
X86846612Y86301038D01*
X86859947Y86368079D01*
X86964782Y86621172D01*
X86984402Y86668540D01*
X87116464Y86866184D01*
X87165085Y86938951D01*
X87395049Y87168915D01*
X87665458Y87349597D01*
X87673908Y87353097D01*
X87753463Y87386050D01*
X87965921Y87474053D01*
X88072244Y87495202D01*
X88284889Y87537500D01*
X88610111Y87537500D01*
X88822756Y87495202D01*
X88822756Y87495202D01*
G37*
G36*
X95200085Y87407698D02*
G01*
X95349910Y87377896D01*
X95632174Y87260979D01*
X95886205Y87091241D01*
X96102241Y86875205D01*
X96271979Y86621174D01*
X96388896Y86338910D01*
X96448500Y86039260D01*
X96448500Y85733740D01*
X96388896Y85434090D01*
X96271979Y85151826D01*
X96102241Y84897795D01*
X95886205Y84681759D01*
X95632174Y84512021D01*
X95349910Y84395104D01*
X95200085Y84365302D01*
X95050261Y84335500D01*
X94744739Y84335500D01*
X94594915Y84365302D01*
X94445090Y84395104D01*
X94162826Y84512021D01*
X93908795Y84681759D01*
X93692759Y84897795D01*
X93523021Y85151826D01*
X93406104Y85434090D01*
X93346500Y85733740D01*
X93346500Y86039260D01*
X93406104Y86338910D01*
X93523021Y86621174D01*
X93692759Y86875205D01*
X93908795Y87091241D01*
X94162826Y87260979D01*
X94445090Y87377896D01*
X94594915Y87407698D01*
X94744739Y87437500D01*
X95050261Y87437500D01*
X95200085Y87407698D01*
X95200085Y87407698D01*
G37*
G36*
X37300085Y87407698D02*
G01*
X37449910Y87377896D01*
X37732174Y87260979D01*
X37986205Y87091241D01*
X38202241Y86875205D01*
X38371979Y86621174D01*
X38488896Y86338910D01*
X38548500Y86039260D01*
X38548500Y85733740D01*
X38488896Y85434090D01*
X38371979Y85151826D01*
X38202241Y84897795D01*
X37986205Y84681759D01*
X37732174Y84512021D01*
X37449910Y84395104D01*
X37300085Y84365302D01*
X37150261Y84335500D01*
X36844739Y84335500D01*
X36694915Y84365302D01*
X36545090Y84395104D01*
X36262826Y84512021D01*
X36008795Y84681759D01*
X35792759Y84897795D01*
X35623021Y85151826D01*
X35506104Y85434090D01*
X35446500Y85733740D01*
X35446500Y86039260D01*
X35506104Y86338910D01*
X35623021Y86621174D01*
X35792759Y86875205D01*
X36008795Y87091241D01*
X36262826Y87260979D01*
X36545090Y87377896D01*
X36694915Y87407698D01*
X36844739Y87437500D01*
X37150261Y87437500D01*
X37300085Y87407698D01*
X37300085Y87407698D01*
G37*
G36*
X27475728Y87768297D02*
G01*
X27630600Y87704147D01*
X27769981Y87611015D01*
X27888515Y87492481D01*
X27981647Y87353100D01*
X28045797Y87198228D01*
X28078500Y87033816D01*
X28078500Y86866184D01*
X28045797Y86701772D01*
X27981647Y86546900D01*
X27888515Y86407519D01*
X27769981Y86288985D01*
X27630600Y86195853D01*
X27475728Y86131703D01*
X27311316Y86099000D01*
X27143684Y86099000D01*
X26979272Y86131703D01*
X26824400Y86195853D01*
X26685019Y86288985D01*
X26566485Y86407519D01*
X26473353Y86546900D01*
X26409203Y86701772D01*
X26376500Y86866184D01*
X26376500Y87033816D01*
X26409203Y87198228D01*
X26473353Y87353100D01*
X26566485Y87492481D01*
X26685019Y87611015D01*
X26824400Y87704147D01*
X26979272Y87768297D01*
X27143684Y87801000D01*
X27311316Y87801000D01*
X27475728Y87768297D01*
X27475728Y87768297D01*
G37*
G36*
X22036000Y86149000D02*
G01*
X20434000Y86149000D01*
X20434000Y87751000D01*
X22036000Y87751000D01*
X22036000Y86149000D01*
X22036000Y86149000D01*
G37*
G36*
X23968642Y87720219D02*
G01*
X24114414Y87659838D01*
X24114416Y87659837D01*
X24245608Y87572178D01*
X24357178Y87460608D01*
X24444837Y87329416D01*
X24444838Y87329414D01*
X24505219Y87183642D01*
X24536000Y87028893D01*
X24536000Y86871107D01*
X24505219Y86716358D01*
X24485412Y86668540D01*
X24444837Y86570584D01*
X24357178Y86439392D01*
X24245608Y86327822D01*
X24114416Y86240163D01*
X24114415Y86240162D01*
X24114414Y86240162D01*
X23968642Y86179781D01*
X23813893Y86149000D01*
X23656107Y86149000D01*
X23501358Y86179781D01*
X23355586Y86240162D01*
X23355585Y86240162D01*
X23355584Y86240163D01*
X23224392Y86327822D01*
X23112822Y86439392D01*
X23025163Y86570584D01*
X22984588Y86668540D01*
X22964781Y86716358D01*
X22934000Y86871107D01*
X22934000Y87028893D01*
X22964781Y87183642D01*
X23025162Y87329414D01*
X23025163Y87329416D01*
X23112822Y87460608D01*
X23224392Y87572178D01*
X23355584Y87659837D01*
X23355586Y87659838D01*
X23501358Y87720219D01*
X23656107Y87751000D01*
X23813893Y87751000D01*
X23968642Y87720219D01*
X23968642Y87720219D01*
G37*
M02*
