M48
; DRILL file {KiCad (5.1.4)-1} date 16/09/2019 22:15:49
; FORMAT={3:3/ absolute / metric / suppress leading zeros}
; #@! TF.CreationDate,2019-09-16T22:15:49+02:00
; #@! TF.GenerationSoftware,Kicad,Pcbnew,(5.1.4)-1
; #@! TF.FileFunction,Plated,1,2,PTH
FMAT,2
METRIC,TZ
T1C0.600
T2C0.762
T3C0.800
T4C0.900
T5C0.990
T6C1.000
T7C1.200
T8C1.300
T9C1.700
T10C3.500
%
G90
G05
T2
X69850Y-47855
X69850Y-75795
X72390Y-47855
X72390Y-75795
X74930Y-47855
X74930Y-75795
X77470Y-47855
X77470Y-75795
X80010Y-47855
X80010Y-75795
X82550Y-47855
X82550Y-75795
X85090Y-47855
X85090Y-75795
X87630Y-47855
X87630Y-75795
X90170Y-47855
X90170Y-75795
X92710Y-47855
X92710Y-75795
X95250Y-47855
X95250Y-75795
X97790Y-47855
X97790Y-75795
X100330Y-47855
X100330Y-75795
X102870Y-47855
X102870Y-75795
X105410Y-47855
X105410Y-75795
T3
X122555Y-93067
X122555Y-103227
X69850Y-80240
X69850Y-87860
X72390Y-80240
X72390Y-87860
X74930Y-80240
X74930Y-87860
X77470Y-80240
X77470Y-87860
X80010Y-80240
X80010Y-87860
X82550Y-80240
X82550Y-87860
X85090Y-80240
X85090Y-87860
X87630Y-80240
X87630Y-87860
X91440Y-80240
X101600Y-80240
X33655Y-62460
X43815Y-62460
X48895Y-42140
X53975Y-42140
X53975Y-62460
X64493Y-80240
X66993Y-80240
X30480Y-81280
X40640Y-81280
X42228Y-19050
X42228Y-29210
X30480Y-84455
X40640Y-84455
X91440Y-83415
X101600Y-83415
T4
X34330Y-101981
X36830Y-101981
X36235Y-19050
X38735Y-19050
X29250Y-101997
X31750Y-101997
T5
X113610Y-103227
X118110Y-103227
T6
X123190Y-70715
X123190Y-73255
X123190Y-75795
X123190Y-78335
X123190Y-80875
T7
X38100Y-69445
X43815Y-69445
T8
X112350Y-100737
X119360Y-100737
X23495Y-28300
X23495Y-50800
T9
X66597Y-30114
X73597Y-30114
X92048Y-26274
X100648Y-26274
T10
X36500Y-90500
X36500Y-30500
X116500Y-90500
X116500Y-30500
T1
G00X87400Y-95900
M15
G01X86600Y-95900
M16
G05
G00X94100Y-99400
M15
G01X94100Y-98600
M16
G05
G00X96400Y-95900
M15
G01X95600Y-95900
M16
G05
G00X97900Y-99400
M15
G01X97900Y-98600
M16
G05
G00X67100Y-99400
M15
G01X67100Y-98600
M16
G05
G00X69400Y-95900
M15
G01X68600Y-95900
M16
G05
G00X70900Y-99400
M15
G01X70900Y-98600
M16
G05
G00X40100Y-99400
M15
G01X40100Y-98600
M16
G05
G00X42400Y-95900
M15
G01X41600Y-95900
M16
G05
G00X43900Y-99400
M15
G01X43900Y-98600
M16
G05
G00X103100Y-99400
M15
G01X103100Y-98600
M16
G05
G00X105400Y-95900
M15
G01X104600Y-95900
M16
G05
G00X106900Y-99400
M15
G01X106900Y-98600
M16
G05
G00X76100Y-99400
M15
G01X76100Y-98600
M16
G05
G00X78400Y-95900
M15
G01X77600Y-95900
M16
G05
G00X79900Y-99400
M15
G01X79900Y-98600
M16
G05
G00X49100Y-99400
M15
G01X49100Y-98600
M16
G05
G00X51400Y-95900
M15
G01X50600Y-95900
M16
G05
G00X52900Y-99400
M15
G01X52900Y-98600
M16
G05
G00X85100Y-99400
M15
G01X85100Y-98600
M16
G05
G00X88900Y-99400
M15
G01X88900Y-98600
M16
G05
G00X58100Y-99400
M15
G01X58100Y-98600
M16
G05
G00X60400Y-95900
M15
G01X59600Y-95900
M16
G05
G00X61900Y-99400
M15
G01X61900Y-98600
M16
G05
T0
M30
