G04 #@! TF.GenerationSoftware,KiCad,Pcbnew,(5.1.4)-1*
G04 #@! TF.CreationDate,2019-09-11T00:02:30+02:00*
G04 #@! TF.ProjectId,BBMini,42424d69-6e69-42e6-9b69-6361645f7063,rev?*
G04 #@! TF.SameCoordinates,Original*
G04 #@! TF.FileFunction,Legend,Top*
G04 #@! TF.FilePolarity,Positive*
%FSLAX46Y46*%
G04 Gerber Fmt 4.6, Leading zero omitted, Abs format (unit mm)*
G04 Created by KiCad (PCBNEW (5.1.4)-1) date 2019-09-11 00:02:30*
%MOMM*%
%LPD*%
G04 APERTURE LIST*
%ADD10C,0.100000*%
%ADD11C,0.150000*%
%ADD12C,0.300000*%
%ADD13C,0.400000*%
%ADD14C,0.250000*%
%ADD15C,0.120000*%
%ADD16C,1.302000*%
%ADD17O,1.602000X2.102000*%
%ADD18O,1.702000X1.702000*%
%ADD19R,1.702000X1.702000*%
%ADD20C,5.102000*%
%ADD21C,1.626000*%
%ADD22C,2.602000*%
%ADD23C,2.202000*%
%ADD24C,1.852000*%
%ADD25C,1.702000*%
%ADD26C,1.602000*%
%ADD27O,2.134000X2.134000*%
%ADD28R,2.134000X2.134000*%
%ADD29C,3.102000*%
%ADD30C,3.302000*%
%ADD31C,7.102000*%
%ADD32C,2.802000*%
%ADD33R,1.602000X1.602000*%
G04 APERTURE END LIST*
D10*
D11*
X177002200Y-166007200D02*
X177002200Y-198007200D01*
X285002200Y-198007200D01*
X285002200Y-166007200D01*
X177002200Y-166007200D01*
D10*
D11*
X10000000Y-10000000D02*
X10000000Y-200007200D01*
X287002200Y-200007200D01*
X287002200Y-10000000D01*
X10000000Y-10000000D01*
D10*
D11*
X12000000Y-12000000D02*
X12000000Y-198007200D01*
X285002200Y-198007200D01*
X285002200Y-12000000D01*
X12000000Y-12000000D01*
D10*
D11*
X60000000Y-12000000D02*
X60000000Y-10000000D01*
D10*
D11*
X110000000Y-12000000D02*
X110000000Y-10000000D01*
D10*
D11*
X160000000Y-12000000D02*
X160000000Y-10000000D01*
D10*
D11*
X210000000Y-12000000D02*
X210000000Y-10000000D01*
D10*
D11*
X260000000Y-12000000D02*
X260000000Y-10000000D01*
D10*
D11*
X36065476Y-11588095D02*
X35322619Y-11588095D01*
X35694047Y-11588095D02*
X35694047Y-10288095D01*
X35570238Y-10473809D01*
X35446428Y-10597619D01*
X35322619Y-10659523D01*
D10*
D11*
X85322619Y-10411904D02*
X85384523Y-10350000D01*
X85508333Y-10288095D01*
X85817857Y-10288095D01*
X85941666Y-10350000D01*
X86003571Y-10411904D01*
X86065476Y-10535714D01*
X86065476Y-10659523D01*
X86003571Y-10845238D01*
X85260714Y-11588095D01*
X86065476Y-11588095D01*
D10*
D11*
X135260714Y-10288095D02*
X136065476Y-10288095D01*
X135632142Y-10783333D01*
X135817857Y-10783333D01*
X135941666Y-10845238D01*
X136003571Y-10907142D01*
X136065476Y-11030952D01*
X136065476Y-11340476D01*
X136003571Y-11464285D01*
X135941666Y-11526190D01*
X135817857Y-11588095D01*
X135446428Y-11588095D01*
X135322619Y-11526190D01*
X135260714Y-11464285D01*
D10*
D11*
X185941666Y-10721428D02*
X185941666Y-11588095D01*
X185632142Y-10226190D02*
X185322619Y-11154761D01*
X186127380Y-11154761D01*
D10*
D11*
X236003571Y-10288095D02*
X235384523Y-10288095D01*
X235322619Y-10907142D01*
X235384523Y-10845238D01*
X235508333Y-10783333D01*
X235817857Y-10783333D01*
X235941666Y-10845238D01*
X236003571Y-10907142D01*
X236065476Y-11030952D01*
X236065476Y-11340476D01*
X236003571Y-11464285D01*
X235941666Y-11526190D01*
X235817857Y-11588095D01*
X235508333Y-11588095D01*
X235384523Y-11526190D01*
X235322619Y-11464285D01*
D10*
D11*
X285941666Y-10288095D02*
X285694047Y-10288095D01*
X285570238Y-10350000D01*
X285508333Y-10411904D01*
X285384523Y-10597619D01*
X285322619Y-10845238D01*
X285322619Y-11340476D01*
X285384523Y-11464285D01*
X285446428Y-11526190D01*
X285570238Y-11588095D01*
X285817857Y-11588095D01*
X285941666Y-11526190D01*
X286003571Y-11464285D01*
X286065476Y-11340476D01*
X286065476Y-11030952D01*
X286003571Y-10907142D01*
X285941666Y-10845238D01*
X285817857Y-10783333D01*
X285570238Y-10783333D01*
X285446428Y-10845238D01*
X285384523Y-10907142D01*
X285322619Y-11030952D01*
D10*
D11*
X60000000Y-198007200D02*
X60000000Y-200007200D01*
D10*
D11*
X110000000Y-198007200D02*
X110000000Y-200007200D01*
D10*
D11*
X160000000Y-198007200D02*
X160000000Y-200007200D01*
D10*
D11*
X210000000Y-198007200D02*
X210000000Y-200007200D01*
D10*
D11*
X260000000Y-198007200D02*
X260000000Y-200007200D01*
D10*
D11*
X36065476Y-199595295D02*
X35322619Y-199595295D01*
X35694047Y-199595295D02*
X35694047Y-198295295D01*
X35570238Y-198481009D01*
X35446428Y-198604819D01*
X35322619Y-198666723D01*
D10*
D11*
X85322619Y-198419104D02*
X85384523Y-198357200D01*
X85508333Y-198295295D01*
X85817857Y-198295295D01*
X85941666Y-198357200D01*
X86003571Y-198419104D01*
X86065476Y-198542914D01*
X86065476Y-198666723D01*
X86003571Y-198852438D01*
X85260714Y-199595295D01*
X86065476Y-199595295D01*
D10*
D11*
X135260714Y-198295295D02*
X136065476Y-198295295D01*
X135632142Y-198790533D01*
X135817857Y-198790533D01*
X135941666Y-198852438D01*
X136003571Y-198914342D01*
X136065476Y-199038152D01*
X136065476Y-199347676D01*
X136003571Y-199471485D01*
X135941666Y-199533390D01*
X135817857Y-199595295D01*
X135446428Y-199595295D01*
X135322619Y-199533390D01*
X135260714Y-199471485D01*
D10*
D11*
X185941666Y-198728628D02*
X185941666Y-199595295D01*
X185632142Y-198233390D02*
X185322619Y-199161961D01*
X186127380Y-199161961D01*
D10*
D11*
X236003571Y-198295295D02*
X235384523Y-198295295D01*
X235322619Y-198914342D01*
X235384523Y-198852438D01*
X235508333Y-198790533D01*
X235817857Y-198790533D01*
X235941666Y-198852438D01*
X236003571Y-198914342D01*
X236065476Y-199038152D01*
X236065476Y-199347676D01*
X236003571Y-199471485D01*
X235941666Y-199533390D01*
X235817857Y-199595295D01*
X235508333Y-199595295D01*
X235384523Y-199533390D01*
X235322619Y-199471485D01*
D10*
D11*
X285941666Y-198295295D02*
X285694047Y-198295295D01*
X285570238Y-198357200D01*
X285508333Y-198419104D01*
X285384523Y-198604819D01*
X285322619Y-198852438D01*
X285322619Y-199347676D01*
X285384523Y-199471485D01*
X285446428Y-199533390D01*
X285570238Y-199595295D01*
X285817857Y-199595295D01*
X285941666Y-199533390D01*
X286003571Y-199471485D01*
X286065476Y-199347676D01*
X286065476Y-199038152D01*
X286003571Y-198914342D01*
X285941666Y-198852438D01*
X285817857Y-198790533D01*
X285570238Y-198790533D01*
X285446428Y-198852438D01*
X285384523Y-198914342D01*
X285322619Y-199038152D01*
D10*
D11*
X10000000Y-60000000D02*
X12000000Y-60000000D01*
D10*
D11*
X10000000Y-110000000D02*
X12000000Y-110000000D01*
D10*
D11*
X10000000Y-160000000D02*
X12000000Y-160000000D01*
D10*
D11*
X10690476Y-35216666D02*
X11309523Y-35216666D01*
X10566666Y-35588095D02*
X11000000Y-34288095D01*
X11433333Y-35588095D01*
D10*
D11*
X11092857Y-84907142D02*
X11278571Y-84969047D01*
X11340476Y-85030952D01*
X11402380Y-85154761D01*
X11402380Y-85340476D01*
X11340476Y-85464285D01*
X11278571Y-85526190D01*
X11154761Y-85588095D01*
X10659523Y-85588095D01*
X10659523Y-84288095D01*
X11092857Y-84288095D01*
X11216666Y-84350000D01*
X11278571Y-84411904D01*
X11340476Y-84535714D01*
X11340476Y-84659523D01*
X11278571Y-84783333D01*
X11216666Y-84845238D01*
X11092857Y-84907142D01*
X10659523Y-84907142D01*
D10*
D11*
X11402380Y-135464285D02*
X11340476Y-135526190D01*
X11154761Y-135588095D01*
X11030952Y-135588095D01*
X10845238Y-135526190D01*
X10721428Y-135402380D01*
X10659523Y-135278571D01*
X10597619Y-135030952D01*
X10597619Y-134845238D01*
X10659523Y-134597619D01*
X10721428Y-134473809D01*
X10845238Y-134350000D01*
X11030952Y-134288095D01*
X11154761Y-134288095D01*
X11340476Y-134350000D01*
X11402380Y-134411904D01*
D10*
D11*
X10659523Y-185588095D02*
X10659523Y-184288095D01*
X10969047Y-184288095D01*
X11154761Y-184350000D01*
X11278571Y-184473809D01*
X11340476Y-184597619D01*
X11402380Y-184845238D01*
X11402380Y-185030952D01*
X11340476Y-185278571D01*
X11278571Y-185402380D01*
X11154761Y-185526190D01*
X10969047Y-185588095D01*
X10659523Y-185588095D01*
D10*
D11*
X287002200Y-60000000D02*
X285002200Y-60000000D01*
D10*
D11*
X287002200Y-110000000D02*
X285002200Y-110000000D01*
D10*
D11*
X287002200Y-160000000D02*
X285002200Y-160000000D01*
D10*
D11*
X285692676Y-35216666D02*
X286311723Y-35216666D01*
X285568866Y-35588095D02*
X286002200Y-34288095D01*
X286435533Y-35588095D01*
D10*
D11*
X286095057Y-84907142D02*
X286280771Y-84969047D01*
X286342676Y-85030952D01*
X286404580Y-85154761D01*
X286404580Y-85340476D01*
X286342676Y-85464285D01*
X286280771Y-85526190D01*
X286156961Y-85588095D01*
X285661723Y-85588095D01*
X285661723Y-84288095D01*
X286095057Y-84288095D01*
X286218866Y-84350000D01*
X286280771Y-84411904D01*
X286342676Y-84535714D01*
X286342676Y-84659523D01*
X286280771Y-84783333D01*
X286218866Y-84845238D01*
X286095057Y-84907142D01*
X285661723Y-84907142D01*
D10*
D11*
X286404580Y-135464285D02*
X286342676Y-135526190D01*
X286156961Y-135588095D01*
X286033152Y-135588095D01*
X285847438Y-135526190D01*
X285723628Y-135402380D01*
X285661723Y-135278571D01*
X285599819Y-135030952D01*
X285599819Y-134845238D01*
X285661723Y-134597619D01*
X285723628Y-134473809D01*
X285847438Y-134350000D01*
X286033152Y-134288095D01*
X286156961Y-134288095D01*
X286342676Y-134350000D01*
X286404580Y-134411904D01*
D10*
D11*
X285661723Y-185588095D02*
X285661723Y-184288095D01*
X285971247Y-184288095D01*
X286156961Y-184350000D01*
X286280771Y-184473809D01*
X286342676Y-184597619D01*
X286404580Y-184845238D01*
X286404580Y-185030952D01*
X286342676Y-185278571D01*
X286280771Y-185402380D01*
X286156961Y-185526190D01*
X285971247Y-185588095D01*
X285661723Y-185588095D01*
D10*
D11*
X200434342Y-193785771D02*
X200434342Y-192285771D01*
X200791485Y-192285771D01*
X201005771Y-192357200D01*
X201148628Y-192500057D01*
X201220057Y-192642914D01*
X201291485Y-192928628D01*
X201291485Y-193142914D01*
X201220057Y-193428628D01*
X201148628Y-193571485D01*
X201005771Y-193714342D01*
X200791485Y-193785771D01*
X200434342Y-193785771D01*
X202577200Y-193785771D02*
X202577200Y-193000057D01*
X202505771Y-192857200D01*
X202362914Y-192785771D01*
X202077200Y-192785771D01*
X201934342Y-192857200D01*
X202577200Y-193714342D02*
X202434342Y-193785771D01*
X202077200Y-193785771D01*
X201934342Y-193714342D01*
X201862914Y-193571485D01*
X201862914Y-193428628D01*
X201934342Y-193285771D01*
X202077200Y-193214342D01*
X202434342Y-193214342D01*
X202577200Y-193142914D01*
X203077200Y-192785771D02*
X203648628Y-192785771D01*
X203291485Y-192285771D02*
X203291485Y-193571485D01*
X203362914Y-193714342D01*
X203505771Y-193785771D01*
X203648628Y-193785771D01*
X204720057Y-193714342D02*
X204577200Y-193785771D01*
X204291485Y-193785771D01*
X204148628Y-193714342D01*
X204077200Y-193571485D01*
X204077200Y-193000057D01*
X204148628Y-192857200D01*
X204291485Y-192785771D01*
X204577200Y-192785771D01*
X204720057Y-192857200D01*
X204791485Y-193000057D01*
X204791485Y-193142914D01*
X204077200Y-193285771D01*
X205434342Y-193642914D02*
X205505771Y-193714342D01*
X205434342Y-193785771D01*
X205362914Y-193714342D01*
X205434342Y-193642914D01*
X205434342Y-193785771D01*
X205434342Y-192857200D02*
X205505771Y-192928628D01*
X205434342Y-193000057D01*
X205362914Y-192928628D01*
X205434342Y-192857200D01*
X205434342Y-193000057D01*
D10*
D11*
X177002200Y-194507200D02*
X285002200Y-194507200D01*
D10*
D11*
X178434342Y-196585771D02*
X178434342Y-195085771D01*
X179291485Y-196585771D02*
X178648628Y-195728628D01*
X179291485Y-195085771D02*
X178434342Y-195942914D01*
X179934342Y-196585771D02*
X179934342Y-195585771D01*
X179934342Y-195085771D02*
X179862914Y-195157200D01*
X179934342Y-195228628D01*
X180005771Y-195157200D01*
X179934342Y-195085771D01*
X179934342Y-195228628D01*
X181505771Y-196442914D02*
X181434342Y-196514342D01*
X181220057Y-196585771D01*
X181077200Y-196585771D01*
X180862914Y-196514342D01*
X180720057Y-196371485D01*
X180648628Y-196228628D01*
X180577200Y-195942914D01*
X180577200Y-195728628D01*
X180648628Y-195442914D01*
X180720057Y-195300057D01*
X180862914Y-195157200D01*
X181077200Y-195085771D01*
X181220057Y-195085771D01*
X181434342Y-195157200D01*
X181505771Y-195228628D01*
X182791485Y-196585771D02*
X182791485Y-195800057D01*
X182720057Y-195657200D01*
X182577200Y-195585771D01*
X182291485Y-195585771D01*
X182148628Y-195657200D01*
X182791485Y-196514342D02*
X182648628Y-196585771D01*
X182291485Y-196585771D01*
X182148628Y-196514342D01*
X182077200Y-196371485D01*
X182077200Y-196228628D01*
X182148628Y-196085771D01*
X182291485Y-196014342D01*
X182648628Y-196014342D01*
X182791485Y-195942914D01*
X184148628Y-196585771D02*
X184148628Y-195085771D01*
X184148628Y-196514342D02*
X184005771Y-196585771D01*
X183720057Y-196585771D01*
X183577200Y-196514342D01*
X183505771Y-196442914D01*
X183434342Y-196300057D01*
X183434342Y-195871485D01*
X183505771Y-195728628D01*
X183577200Y-195657200D01*
X183720057Y-195585771D01*
X184005771Y-195585771D01*
X184148628Y-195657200D01*
X186005771Y-195800057D02*
X186505771Y-195800057D01*
X186720057Y-196585771D02*
X186005771Y-196585771D01*
X186005771Y-195085771D01*
X186720057Y-195085771D01*
X187362914Y-196442914D02*
X187434342Y-196514342D01*
X187362914Y-196585771D01*
X187291485Y-196514342D01*
X187362914Y-196442914D01*
X187362914Y-196585771D01*
X188077200Y-196585771D02*
X188077200Y-195085771D01*
X188434342Y-195085771D01*
X188648628Y-195157200D01*
X188791485Y-195300057D01*
X188862914Y-195442914D01*
X188934342Y-195728628D01*
X188934342Y-195942914D01*
X188862914Y-196228628D01*
X188791485Y-196371485D01*
X188648628Y-196514342D01*
X188434342Y-196585771D01*
X188077200Y-196585771D01*
X189577200Y-196442914D02*
X189648628Y-196514342D01*
X189577200Y-196585771D01*
X189505771Y-196514342D01*
X189577200Y-196442914D01*
X189577200Y-196585771D01*
X190220057Y-196157200D02*
X190934342Y-196157200D01*
X190077200Y-196585771D02*
X190577200Y-195085771D01*
X191077200Y-196585771D01*
X191577200Y-196442914D02*
X191648628Y-196514342D01*
X191577200Y-196585771D01*
X191505771Y-196514342D01*
X191577200Y-196442914D01*
X191577200Y-196585771D01*
X194577200Y-196585771D02*
X194577200Y-195085771D01*
X194720057Y-196014342D02*
X195148628Y-196585771D01*
X195148628Y-195585771D02*
X194577200Y-196157200D01*
X195791485Y-196585771D02*
X195791485Y-195585771D01*
X195791485Y-195085771D02*
X195720057Y-195157200D01*
X195791485Y-195228628D01*
X195862914Y-195157200D01*
X195791485Y-195085771D01*
X195791485Y-195228628D01*
X197148628Y-196514342D02*
X197005771Y-196585771D01*
X196720057Y-196585771D01*
X196577200Y-196514342D01*
X196505771Y-196442914D01*
X196434342Y-196300057D01*
X196434342Y-195871485D01*
X196505771Y-195728628D01*
X196577200Y-195657200D01*
X196720057Y-195585771D01*
X197005771Y-195585771D01*
X197148628Y-195657200D01*
X198434342Y-196585771D02*
X198434342Y-195800057D01*
X198362914Y-195657200D01*
X198220057Y-195585771D01*
X197934342Y-195585771D01*
X197791485Y-195657200D01*
X198434342Y-196514342D02*
X198291485Y-196585771D01*
X197934342Y-196585771D01*
X197791485Y-196514342D01*
X197720057Y-196371485D01*
X197720057Y-196228628D01*
X197791485Y-196085771D01*
X197934342Y-196014342D01*
X198291485Y-196014342D01*
X198434342Y-195942914D01*
X199791485Y-196585771D02*
X199791485Y-195085771D01*
X199791485Y-196514342D02*
X199648628Y-196585771D01*
X199362914Y-196585771D01*
X199220057Y-196514342D01*
X199148628Y-196442914D01*
X199077200Y-196300057D01*
X199077200Y-195871485D01*
X199148628Y-195728628D01*
X199220057Y-195657200D01*
X199362914Y-195585771D01*
X199648628Y-195585771D01*
X199791485Y-195657200D01*
X202077200Y-197157200D02*
X202005771Y-197085771D01*
X201862914Y-196871485D01*
X201791485Y-196728628D01*
X201720057Y-196514342D01*
X201648628Y-196157200D01*
X201648628Y-195871485D01*
X201720057Y-195514342D01*
X201791485Y-195300057D01*
X201862914Y-195157200D01*
X202005771Y-194942914D01*
X202077200Y-194871485D01*
X203362914Y-195085771D02*
X202648628Y-195085771D01*
X202577200Y-195800057D01*
X202648628Y-195728628D01*
X202791485Y-195657200D01*
X203148628Y-195657200D01*
X203291485Y-195728628D01*
X203362914Y-195800057D01*
X203434342Y-195942914D01*
X203434342Y-196300057D01*
X203362914Y-196442914D01*
X203291485Y-196514342D01*
X203148628Y-196585771D01*
X202791485Y-196585771D01*
X202648628Y-196514342D01*
X202577200Y-196442914D01*
X204077200Y-196442914D02*
X204148628Y-196514342D01*
X204077200Y-196585771D01*
X204005771Y-196514342D01*
X204077200Y-196442914D01*
X204077200Y-196585771D01*
X205577200Y-196585771D02*
X204720057Y-196585771D01*
X205148628Y-196585771D02*
X205148628Y-195085771D01*
X205005771Y-195300057D01*
X204862914Y-195442914D01*
X204720057Y-195514342D01*
X206220057Y-196442914D02*
X206291485Y-196514342D01*
X206220057Y-196585771D01*
X206148628Y-196514342D01*
X206220057Y-196442914D01*
X206220057Y-196585771D01*
X207577200Y-195585771D02*
X207577200Y-196585771D01*
X207220057Y-195014342D02*
X206862914Y-196085771D01*
X207791485Y-196085771D01*
X208220057Y-197157200D02*
X208291485Y-197085771D01*
X208434342Y-196871485D01*
X208505771Y-196728628D01*
X208577200Y-196514342D01*
X208648628Y-196157200D01*
X208648628Y-195871485D01*
X208577200Y-195514342D01*
X208505771Y-195300057D01*
X208434342Y-195157200D01*
X208291485Y-194942914D01*
X208220057Y-194871485D01*
X209362914Y-196014342D02*
X210505771Y-196014342D01*
X212005771Y-196585771D02*
X211148628Y-196585771D01*
X211577200Y-196585771D02*
X211577200Y-195085771D01*
X211434342Y-195300057D01*
X211291485Y-195442914D01*
X211148628Y-195514342D01*
D10*
D11*
X177002200Y-191507200D02*
X285002200Y-191507200D01*
D10*
D12*
X264411485Y-193785771D02*
X263911485Y-193071485D01*
X263554342Y-193785771D02*
X263554342Y-192285771D01*
X264125771Y-192285771D01*
X264268628Y-192357200D01*
X264340057Y-192428628D01*
X264411485Y-192571485D01*
X264411485Y-192785771D01*
X264340057Y-192928628D01*
X264268628Y-193000057D01*
X264125771Y-193071485D01*
X263554342Y-193071485D01*
X265625771Y-193714342D02*
X265482914Y-193785771D01*
X265197200Y-193785771D01*
X265054342Y-193714342D01*
X264982914Y-193571485D01*
X264982914Y-193000057D01*
X265054342Y-192857200D01*
X265197200Y-192785771D01*
X265482914Y-192785771D01*
X265625771Y-192857200D01*
X265697200Y-193000057D01*
X265697200Y-193142914D01*
X264982914Y-193285771D01*
X266197200Y-192785771D02*
X266554342Y-193785771D01*
X266911485Y-192785771D01*
X267482914Y-193642914D02*
X267554342Y-193714342D01*
X267482914Y-193785771D01*
X267411485Y-193714342D01*
X267482914Y-193642914D01*
X267482914Y-193785771D01*
X267482914Y-192857200D02*
X267554342Y-192928628D01*
X267482914Y-193000057D01*
X267411485Y-192928628D01*
X267482914Y-192857200D01*
X267482914Y-193000057D01*
D10*
D11*
X178362914Y-193714342D02*
X178577200Y-193785771D01*
X178934342Y-193785771D01*
X179077200Y-193714342D01*
X179148628Y-193642914D01*
X179220057Y-193500057D01*
X179220057Y-193357200D01*
X179148628Y-193214342D01*
X179077200Y-193142914D01*
X178934342Y-193071485D01*
X178648628Y-193000057D01*
X178505771Y-192928628D01*
X178434342Y-192857200D01*
X178362914Y-192714342D01*
X178362914Y-192571485D01*
X178434342Y-192428628D01*
X178505771Y-192357200D01*
X178648628Y-192285771D01*
X179005771Y-192285771D01*
X179220057Y-192357200D01*
X179862914Y-193785771D02*
X179862914Y-192785771D01*
X179862914Y-192285771D02*
X179791485Y-192357200D01*
X179862914Y-192428628D01*
X179934342Y-192357200D01*
X179862914Y-192285771D01*
X179862914Y-192428628D01*
X180434342Y-192785771D02*
X181220057Y-192785771D01*
X180434342Y-193785771D01*
X181220057Y-193785771D01*
X182362914Y-193714342D02*
X182220057Y-193785771D01*
X181934342Y-193785771D01*
X181791485Y-193714342D01*
X181720057Y-193571485D01*
X181720057Y-193000057D01*
X181791485Y-192857200D01*
X181934342Y-192785771D01*
X182220057Y-192785771D01*
X182362914Y-192857200D01*
X182434342Y-193000057D01*
X182434342Y-193142914D01*
X181720057Y-193285771D01*
X183077200Y-193642914D02*
X183148628Y-193714342D01*
X183077200Y-193785771D01*
X183005771Y-193714342D01*
X183077200Y-193642914D01*
X183077200Y-193785771D01*
X183077200Y-192857200D02*
X183148628Y-192928628D01*
X183077200Y-193000057D01*
X183005771Y-192928628D01*
X183077200Y-192857200D01*
X183077200Y-193000057D01*
X184862914Y-193357200D02*
X185577200Y-193357200D01*
X184720057Y-193785771D02*
X185220057Y-192285771D01*
X185720057Y-193785771D01*
X186862914Y-192785771D02*
X186862914Y-193785771D01*
X186505771Y-192214342D02*
X186148628Y-193285771D01*
X187077200Y-193285771D01*
D10*
D11*
X263434342Y-196585771D02*
X263434342Y-195085771D01*
X264791485Y-196585771D02*
X264791485Y-195085771D01*
X264791485Y-196514342D02*
X264648628Y-196585771D01*
X264362914Y-196585771D01*
X264220057Y-196514342D01*
X264148628Y-196442914D01*
X264077200Y-196300057D01*
X264077200Y-195871485D01*
X264148628Y-195728628D01*
X264220057Y-195657200D01*
X264362914Y-195585771D01*
X264648628Y-195585771D01*
X264791485Y-195657200D01*
X265505771Y-196442914D02*
X265577200Y-196514342D01*
X265505771Y-196585771D01*
X265434342Y-196514342D01*
X265505771Y-196442914D01*
X265505771Y-196585771D01*
X265505771Y-195657200D02*
X265577200Y-195728628D01*
X265505771Y-195800057D01*
X265434342Y-195728628D01*
X265505771Y-195657200D01*
X265505771Y-195800057D01*
X268148628Y-196585771D02*
X267291485Y-196585771D01*
X267720057Y-196585771D02*
X267720057Y-195085771D01*
X267577200Y-195300057D01*
X267434342Y-195442914D01*
X267291485Y-195514342D01*
X269862914Y-195014342D02*
X268577200Y-196942914D01*
X271148628Y-196585771D02*
X270291485Y-196585771D01*
X270720057Y-196585771D02*
X270720057Y-195085771D01*
X270577200Y-195300057D01*
X270434342Y-195442914D01*
X270291485Y-195514342D01*
D10*
D11*
X177002200Y-187507200D02*
X285002200Y-187507200D01*
D10*
D13*
X178714580Y-188211961D02*
X179857438Y-188211961D01*
X179036009Y-190211961D02*
X179286009Y-188211961D01*
X180274104Y-190211961D02*
X180440771Y-188878628D01*
X180524104Y-188211961D02*
X180416961Y-188307200D01*
X180500295Y-188402438D01*
X180607438Y-188307200D01*
X180524104Y-188211961D01*
X180500295Y-188402438D01*
X181107438Y-188878628D02*
X181869342Y-188878628D01*
X181476485Y-188211961D02*
X181262200Y-189926247D01*
X181333628Y-190116723D01*
X181512200Y-190211961D01*
X181702676Y-190211961D01*
X182655057Y-190211961D02*
X182476485Y-190116723D01*
X182405057Y-189926247D01*
X182619342Y-188211961D01*
X184190771Y-190116723D02*
X183988390Y-190211961D01*
X183607438Y-190211961D01*
X183428866Y-190116723D01*
X183357438Y-189926247D01*
X183452676Y-189164342D01*
X183571723Y-188973866D01*
X183774104Y-188878628D01*
X184155057Y-188878628D01*
X184333628Y-188973866D01*
X184405057Y-189164342D01*
X184381247Y-189354819D01*
X183405057Y-189545295D01*
X185155057Y-190021485D02*
X185238390Y-190116723D01*
X185131247Y-190211961D01*
X185047914Y-190116723D01*
X185155057Y-190021485D01*
X185131247Y-190211961D01*
X185286009Y-188973866D02*
X185369342Y-189069104D01*
X185262200Y-189164342D01*
X185178866Y-189069104D01*
X185286009Y-188973866D01*
X185262200Y-189164342D01*
D10*
D11*
X178934342Y-185600057D02*
X178434342Y-185600057D01*
X178434342Y-186385771D02*
X178434342Y-184885771D01*
X179148628Y-184885771D01*
X179720057Y-186385771D02*
X179720057Y-185385771D01*
X179720057Y-184885771D02*
X179648628Y-184957200D01*
X179720057Y-185028628D01*
X179791485Y-184957200D01*
X179720057Y-184885771D01*
X179720057Y-185028628D01*
X180648628Y-186385771D02*
X180505771Y-186314342D01*
X180434342Y-186171485D01*
X180434342Y-184885771D01*
X181791485Y-186314342D02*
X181648628Y-186385771D01*
X181362914Y-186385771D01*
X181220057Y-186314342D01*
X181148628Y-186171485D01*
X181148628Y-185600057D01*
X181220057Y-185457200D01*
X181362914Y-185385771D01*
X181648628Y-185385771D01*
X181791485Y-185457200D01*
X181862914Y-185600057D01*
X181862914Y-185742914D01*
X181148628Y-185885771D01*
X182505771Y-186242914D02*
X182577200Y-186314342D01*
X182505771Y-186385771D01*
X182434342Y-186314342D01*
X182505771Y-186242914D01*
X182505771Y-186385771D01*
X182505771Y-185457200D02*
X182577200Y-185528628D01*
X182505771Y-185600057D01*
X182434342Y-185528628D01*
X182505771Y-185457200D01*
X182505771Y-185600057D01*
X184862914Y-185600057D02*
X185077200Y-185671485D01*
X185148628Y-185742914D01*
X185220057Y-185885771D01*
X185220057Y-186100057D01*
X185148628Y-186242914D01*
X185077200Y-186314342D01*
X184934342Y-186385771D01*
X184362914Y-186385771D01*
X184362914Y-184885771D01*
X184862914Y-184885771D01*
X185005771Y-184957200D01*
X185077200Y-185028628D01*
X185148628Y-185171485D01*
X185148628Y-185314342D01*
X185077200Y-185457200D01*
X185005771Y-185528628D01*
X184862914Y-185600057D01*
X184362914Y-185600057D01*
X186362914Y-185600057D02*
X186577200Y-185671485D01*
X186648628Y-185742914D01*
X186720057Y-185885771D01*
X186720057Y-186100057D01*
X186648628Y-186242914D01*
X186577200Y-186314342D01*
X186434342Y-186385771D01*
X185862914Y-186385771D01*
X185862914Y-184885771D01*
X186362914Y-184885771D01*
X186505771Y-184957200D01*
X186577200Y-185028628D01*
X186648628Y-185171485D01*
X186648628Y-185314342D01*
X186577200Y-185457200D01*
X186505771Y-185528628D01*
X186362914Y-185600057D01*
X185862914Y-185600057D01*
X187362914Y-186385771D02*
X187362914Y-184885771D01*
X187862914Y-185957200D01*
X188362914Y-184885771D01*
X188362914Y-186385771D01*
X189077200Y-186385771D02*
X189077200Y-185385771D01*
X189077200Y-184885771D02*
X189005771Y-184957200D01*
X189077200Y-185028628D01*
X189148628Y-184957200D01*
X189077200Y-184885771D01*
X189077200Y-185028628D01*
X189791485Y-185385771D02*
X189791485Y-186385771D01*
X189791485Y-185528628D02*
X189862914Y-185457200D01*
X190005771Y-185385771D01*
X190220057Y-185385771D01*
X190362914Y-185457200D01*
X190434342Y-185600057D01*
X190434342Y-186385771D01*
X191148628Y-186385771D02*
X191148628Y-185385771D01*
X191148628Y-184885771D02*
X191077200Y-184957200D01*
X191148628Y-185028628D01*
X191220057Y-184957200D01*
X191148628Y-184885771D01*
X191148628Y-185028628D01*
X191862914Y-186242914D02*
X191934342Y-186314342D01*
X191862914Y-186385771D01*
X191791485Y-186314342D01*
X191862914Y-186242914D01*
X191862914Y-186385771D01*
X192577200Y-186385771D02*
X192577200Y-184885771D01*
X192720057Y-185814342D02*
X193148628Y-186385771D01*
X193148628Y-185385771D02*
X192577200Y-185957200D01*
X193791485Y-186385771D02*
X193791485Y-185385771D01*
X193791485Y-184885771D02*
X193720057Y-184957200D01*
X193791485Y-185028628D01*
X193862914Y-184957200D01*
X193791485Y-184885771D01*
X193791485Y-185028628D01*
X195148628Y-186314342D02*
X195005771Y-186385771D01*
X194720057Y-186385771D01*
X194577200Y-186314342D01*
X194505771Y-186242914D01*
X194434342Y-186100057D01*
X194434342Y-185671485D01*
X194505771Y-185528628D01*
X194577200Y-185457200D01*
X194720057Y-185385771D01*
X195005771Y-185385771D01*
X195148628Y-185457200D01*
X196434342Y-186385771D02*
X196434342Y-185600057D01*
X196362914Y-185457200D01*
X196220057Y-185385771D01*
X195934342Y-185385771D01*
X195791485Y-185457200D01*
X196434342Y-186314342D02*
X196291485Y-186385771D01*
X195934342Y-186385771D01*
X195791485Y-186314342D01*
X195720057Y-186171485D01*
X195720057Y-186028628D01*
X195791485Y-185885771D01*
X195934342Y-185814342D01*
X196291485Y-185814342D01*
X196434342Y-185742914D01*
X197791485Y-186385771D02*
X197791485Y-184885771D01*
X197791485Y-186314342D02*
X197648628Y-186385771D01*
X197362914Y-186385771D01*
X197220057Y-186314342D01*
X197148628Y-186242914D01*
X197077200Y-186100057D01*
X197077200Y-185671485D01*
X197148628Y-185528628D01*
X197220057Y-185457200D01*
X197362914Y-185385771D01*
X197648628Y-185385771D01*
X197791485Y-185457200D01*
X198148628Y-186528628D02*
X199291485Y-186528628D01*
X199648628Y-185385771D02*
X199648628Y-186885771D01*
X199648628Y-185457200D02*
X199791485Y-185385771D01*
X200077200Y-185385771D01*
X200220057Y-185457200D01*
X200291485Y-185528628D01*
X200362914Y-185671485D01*
X200362914Y-186100057D01*
X200291485Y-186242914D01*
X200220057Y-186314342D01*
X200077200Y-186385771D01*
X199791485Y-186385771D01*
X199648628Y-186314342D01*
X201648628Y-186314342D02*
X201505771Y-186385771D01*
X201220057Y-186385771D01*
X201077200Y-186314342D01*
X201005771Y-186242914D01*
X200934342Y-186100057D01*
X200934342Y-185671485D01*
X201005771Y-185528628D01*
X201077200Y-185457200D01*
X201220057Y-185385771D01*
X201505771Y-185385771D01*
X201648628Y-185457200D01*
X202291485Y-186385771D02*
X202291485Y-184885771D01*
X202291485Y-185457200D02*
X202434342Y-185385771D01*
X202720057Y-185385771D01*
X202862914Y-185457200D01*
X202934342Y-185528628D01*
X203005771Y-185671485D01*
X203005771Y-186100057D01*
X202934342Y-186242914D01*
X202862914Y-186314342D01*
X202720057Y-186385771D01*
X202434342Y-186385771D01*
X202291485Y-186314342D01*
D10*
D11*
X177002200Y-181507200D02*
X285002200Y-181507200D01*
D10*
D11*
X178362914Y-183614342D02*
X178577200Y-183685771D01*
X178934342Y-183685771D01*
X179077200Y-183614342D01*
X179148628Y-183542914D01*
X179220057Y-183400057D01*
X179220057Y-183257200D01*
X179148628Y-183114342D01*
X179077200Y-183042914D01*
X178934342Y-182971485D01*
X178648628Y-182900057D01*
X178505771Y-182828628D01*
X178434342Y-182757200D01*
X178362914Y-182614342D01*
X178362914Y-182471485D01*
X178434342Y-182328628D01*
X178505771Y-182257200D01*
X178648628Y-182185771D01*
X179005771Y-182185771D01*
X179220057Y-182257200D01*
X179862914Y-183685771D02*
X179862914Y-182185771D01*
X180505771Y-183685771D02*
X180505771Y-182900057D01*
X180434342Y-182757200D01*
X180291485Y-182685771D01*
X180077200Y-182685771D01*
X179934342Y-182757200D01*
X179862914Y-182828628D01*
X181791485Y-183614342D02*
X181648628Y-183685771D01*
X181362914Y-183685771D01*
X181220057Y-183614342D01*
X181148628Y-183471485D01*
X181148628Y-182900057D01*
X181220057Y-182757200D01*
X181362914Y-182685771D01*
X181648628Y-182685771D01*
X181791485Y-182757200D01*
X181862914Y-182900057D01*
X181862914Y-183042914D01*
X181148628Y-183185771D01*
X183077200Y-183614342D02*
X182934342Y-183685771D01*
X182648628Y-183685771D01*
X182505771Y-183614342D01*
X182434342Y-183471485D01*
X182434342Y-182900057D01*
X182505771Y-182757200D01*
X182648628Y-182685771D01*
X182934342Y-182685771D01*
X183077200Y-182757200D01*
X183148628Y-182900057D01*
X183148628Y-183042914D01*
X182434342Y-183185771D01*
X183577200Y-182685771D02*
X184148628Y-182685771D01*
X183791485Y-182185771D02*
X183791485Y-183471485D01*
X183862914Y-183614342D01*
X184005771Y-183685771D01*
X184148628Y-183685771D01*
X184648628Y-183542914D02*
X184720057Y-183614342D01*
X184648628Y-183685771D01*
X184577200Y-183614342D01*
X184648628Y-183542914D01*
X184648628Y-183685771D01*
X184648628Y-182757200D02*
X184720057Y-182828628D01*
X184648628Y-182900057D01*
X184577200Y-182828628D01*
X184648628Y-182757200D01*
X184648628Y-182900057D01*
D10*
D11*
X197002200Y-191507200D02*
X197002200Y-194507200D01*
D10*
D11*
X261002200Y-191507200D02*
X261002200Y-198007200D01*
D14*
X112355000Y-102710000D02*
X107355000Y-102710000D01*
X107355000Y-92710000D02*
X107355000Y-94710000D01*
X108655000Y-92710000D02*
X107355000Y-92710000D01*
X112355000Y-92710000D02*
X111055000Y-92710000D01*
X112355000Y-94710000D02*
X112355000Y-92710000D01*
X107355000Y-96910000D02*
X107355000Y-99410000D01*
X112355000Y-99410000D02*
X112355000Y-96910000D01*
X107355000Y-102710000D02*
X107355000Y-101510000D01*
X112355000Y-102710000D02*
X112355000Y-101510000D01*
X106005000Y-102710000D02*
X101005000Y-102710000D01*
X101005000Y-92710000D02*
X101005000Y-94710000D01*
X102305000Y-92710000D02*
X101005000Y-92710000D01*
X106005000Y-92710000D02*
X104705000Y-92710000D01*
X106005000Y-94710000D02*
X106005000Y-92710000D01*
X101005000Y-96910000D02*
X101005000Y-99410000D01*
X106005000Y-99410000D02*
X106005000Y-96910000D01*
X101005000Y-102710000D02*
X101005000Y-101510000D01*
X106005000Y-102710000D02*
X106005000Y-101510000D01*
X99655000Y-102710000D02*
X94655000Y-102710000D01*
X94655000Y-92710000D02*
X94655000Y-94710000D01*
X95955000Y-92710000D02*
X94655000Y-92710000D01*
X99655000Y-92710000D02*
X98355000Y-92710000D01*
X99655000Y-94710000D02*
X99655000Y-92710000D01*
X94655000Y-96910000D02*
X94655000Y-99410000D01*
X99655000Y-99410000D02*
X99655000Y-96910000D01*
X94655000Y-102710000D02*
X94655000Y-101510000D01*
X99655000Y-102710000D02*
X99655000Y-101510000D01*
X93305000Y-102710000D02*
X88305000Y-102710000D01*
X88305000Y-92710000D02*
X88305000Y-94710000D01*
X89605000Y-92710000D02*
X88305000Y-92710000D01*
X93305000Y-92710000D02*
X92005000Y-92710000D01*
X93305000Y-94710000D02*
X93305000Y-92710000D01*
X88305000Y-96910000D02*
X88305000Y-99410000D01*
X93305000Y-99410000D02*
X93305000Y-96910000D01*
X88305000Y-102710000D02*
X88305000Y-101510000D01*
X93305000Y-102710000D02*
X93305000Y-101510000D01*
X86955000Y-102710000D02*
X81955000Y-102710000D01*
X81955000Y-92710000D02*
X81955000Y-94710000D01*
X83255000Y-92710000D02*
X81955000Y-92710000D01*
X86955000Y-92710000D02*
X85655000Y-92710000D01*
X86955000Y-94710000D02*
X86955000Y-92710000D01*
X81955000Y-96910000D02*
X81955000Y-99410000D01*
X86955000Y-99410000D02*
X86955000Y-96910000D01*
X81955000Y-102710000D02*
X81955000Y-101510000D01*
X86955000Y-102710000D02*
X86955000Y-101510000D01*
X80605000Y-102710000D02*
X75605000Y-102710000D01*
X75605000Y-92710000D02*
X75605000Y-94710000D01*
X76905000Y-92710000D02*
X75605000Y-92710000D01*
X80605000Y-92710000D02*
X79305000Y-92710000D01*
X80605000Y-94710000D02*
X80605000Y-92710000D01*
X75605000Y-96910000D02*
X75605000Y-99410000D01*
X80605000Y-99410000D02*
X80605000Y-96910000D01*
X75605000Y-102710000D02*
X75605000Y-101510000D01*
X80605000Y-102710000D02*
X80605000Y-101510000D01*
X74255000Y-102710000D02*
X69255000Y-102710000D01*
X69255000Y-92710000D02*
X69255000Y-94710000D01*
X70555000Y-92710000D02*
X69255000Y-92710000D01*
X74255000Y-92710000D02*
X72955000Y-92710000D01*
X74255000Y-94710000D02*
X74255000Y-92710000D01*
X69255000Y-96910000D02*
X69255000Y-99410000D01*
X74255000Y-99410000D02*
X74255000Y-96910000D01*
X69255000Y-102710000D02*
X69255000Y-101510000D01*
X74255000Y-102710000D02*
X74255000Y-101510000D01*
X67968500Y-102710000D02*
X62968500Y-102710000D01*
X62968500Y-92710000D02*
X62968500Y-94710000D01*
X64268500Y-92710000D02*
X62968500Y-92710000D01*
X67968500Y-92710000D02*
X66668500Y-92710000D01*
X67968500Y-94710000D02*
X67968500Y-92710000D01*
X62968500Y-96910000D02*
X62968500Y-99410000D01*
X67968500Y-99410000D02*
X67968500Y-96910000D01*
X62968500Y-102710000D02*
X62968500Y-101510000D01*
X67968500Y-102710000D02*
X67968500Y-101510000D01*
D15*
X66555000Y-78045000D02*
X66555000Y-88325000D01*
X87115000Y-78045000D02*
X66555000Y-78045000D01*
X87115000Y-88325000D02*
X87115000Y-78045000D01*
X66555000Y-88325000D02*
X87115000Y-88325000D01*
X66615000Y-80535000D02*
X66615000Y-82185000D01*
X87055000Y-80535000D02*
X66615000Y-80535000D01*
X87055000Y-85835000D02*
X87055000Y-80535000D01*
X66615000Y-85835000D02*
X87055000Y-85835000D01*
X66615000Y-84185000D02*
X66615000Y-85835000D01*
X66615000Y-82185000D02*
G75*
G02X66615000Y-84185000I0J-1000000D01*
G01*
D14*
X114745000Y-44825000D02*
X56725000Y-44825000D01*
X56725000Y-75825000D02*
X114745000Y-75825000D01*
X114745000Y-75825000D02*
X114745000Y-44825000D01*
X56725000Y-75825000D02*
X56725000Y-44825000D01*
D15*
X42725000Y-67310000D02*
G75*
G03X42725000Y-67310000I-1450000J0D01*
G01*
X38280000Y-67310000D02*
G75*
G03X38280000Y-67310000I-1450000J0D01*
G01*
X55330000Y-99169500D02*
X51930000Y-99169500D01*
X56970000Y-99169500D02*
X56430000Y-99169500D01*
X49770000Y-96339500D02*
X49770000Y-95829500D01*
X50290000Y-95829500D02*
X49770000Y-95829500D01*
X50290000Y-96339500D02*
X50290000Y-95829500D01*
X50830000Y-99169500D02*
X50290000Y-99169500D01*
X57490000Y-96339500D02*
X57490000Y-95829500D01*
X56970000Y-96339500D02*
X56970000Y-95829500D01*
X50290000Y-99169500D02*
X50290000Y-98939500D01*
X57490000Y-102839500D02*
X57490000Y-98939500D01*
X57490000Y-95829500D02*
X56970000Y-95829500D01*
X49770000Y-102839500D02*
X49770000Y-98939500D01*
X57490000Y-102839500D02*
X49770000Y-102839500D01*
X56970000Y-99169500D02*
X56970000Y-98939500D01*
X53975000Y-84860000D02*
X53975000Y-85630000D01*
X53975000Y-92940000D02*
X53975000Y-92170000D01*
X52605000Y-85630000D02*
X52605000Y-92170000D01*
X55345000Y-85630000D02*
X52605000Y-85630000D01*
X55345000Y-92170000D02*
X55345000Y-85630000D01*
X52605000Y-92170000D02*
X55345000Y-92170000D01*
X49530000Y-92940000D02*
X49530000Y-92170000D01*
X49530000Y-84860000D02*
X49530000Y-85630000D01*
X50900000Y-92170000D02*
X50900000Y-85630000D01*
X48160000Y-92170000D02*
X50900000Y-92170000D01*
X48160000Y-85630000D02*
X48160000Y-92170000D01*
X50900000Y-85630000D02*
X48160000Y-85630000D01*
X46355000Y-92940000D02*
X46355000Y-92170000D01*
X46355000Y-84860000D02*
X46355000Y-85630000D01*
X47725000Y-92170000D02*
X47725000Y-85630000D01*
X44985000Y-92170000D02*
X47725000Y-92170000D01*
X44985000Y-85630000D02*
X44985000Y-92170000D01*
X47725000Y-85630000D02*
X44985000Y-85630000D01*
X92480000Y-80010000D02*
X93250000Y-80010000D01*
X100560000Y-80010000D02*
X99790000Y-80010000D01*
X93250000Y-81380000D02*
X99790000Y-81380000D01*
X93250000Y-78640000D02*
X93250000Y-81380000D01*
X99790000Y-78640000D02*
X93250000Y-78640000D01*
X99790000Y-81380000D02*
X99790000Y-78640000D01*
X92480000Y-83185000D02*
X93250000Y-83185000D01*
X100560000Y-83185000D02*
X99790000Y-83185000D01*
X93250000Y-84555000D02*
X99790000Y-84555000D01*
X93250000Y-81815000D02*
X93250000Y-84555000D01*
X99790000Y-81815000D02*
X93250000Y-81815000D01*
X99790000Y-84555000D02*
X99790000Y-81815000D01*
X18820000Y-17780000D02*
X19590000Y-17780000D01*
X26900000Y-17780000D02*
X26130000Y-17780000D01*
X19590000Y-19150000D02*
X26130000Y-19150000D01*
X19590000Y-16410000D02*
X19590000Y-19150000D01*
X26130000Y-16410000D02*
X19590000Y-16410000D01*
X26130000Y-19150000D02*
X26130000Y-16410000D01*
D14*
X54075000Y-37428500D02*
X54075000Y-63028500D01*
X28475000Y-37428500D02*
X28475000Y-63028500D01*
X28475000Y-63028500D02*
X54075000Y-63028500D01*
X28475000Y-37428500D02*
X54075000Y-37428500D01*
D11*
X118885000Y-79340000D02*
X118885000Y-69340000D01*
X123885000Y-67905000D02*
X118085000Y-67905000D01*
X122555000Y-78105000D02*
X122555000Y-67905000D01*
X123885000Y-80655000D02*
X118085000Y-80655000D01*
X122835000Y-80655000D02*
X122835000Y-79175000D01*
X120015000Y-78105000D02*
X122555000Y-78105000D01*
X119735000Y-80655000D02*
X119735000Y-79175000D01*
X120015000Y-78105000D02*
X120015000Y-67905000D01*
X118085000Y-80655000D02*
X118085000Y-67905000D01*
X123885000Y-80655000D02*
X123885000Y-67905000D01*
X118885000Y-79340000D02*
X118085000Y-79340000D01*
X118885000Y-69340000D02*
X118085000Y-69340000D01*
X107040000Y-25147000D02*
X107040000Y-36147000D01*
X53740000Y-25147000D02*
X53740000Y-36147000D01*
X49390000Y-21147000D02*
X49390000Y-25147000D01*
X49390000Y-25147000D02*
X53740000Y-25147000D01*
X49390000Y-21147000D02*
X53740000Y-21147000D01*
X111390000Y-21147000D02*
X107040000Y-21147000D01*
X111390000Y-25147000D02*
X107040000Y-25147000D01*
X111390000Y-21147000D02*
X111390000Y-25147000D01*
X107040000Y-15147000D02*
X107040000Y-21147000D01*
X53740000Y-15147000D02*
X53740000Y-21147000D01*
X53740000Y-36147000D02*
X107040000Y-36147000D01*
X53740000Y-15147000D02*
X107040000Y-15147000D01*
X27025000Y-45720000D02*
X24225000Y-45720000D01*
X27025000Y-45720000D02*
X27025000Y-23220000D01*
X17425000Y-45720000D02*
X17425000Y-23220000D01*
X20225000Y-45720000D02*
X17425000Y-45720000D01*
X20225000Y-23220000D02*
X17425000Y-23220000D01*
X27025000Y-23220000D02*
X24225000Y-23220000D01*
D14*
X47055000Y-97669500D02*
X47055000Y-97969500D01*
X43155000Y-97669500D02*
X43155000Y-98269500D01*
X47055000Y-99769500D02*
X47055000Y-102769500D01*
X43155000Y-102769500D02*
X43155000Y-99469500D01*
X47055000Y-97669500D02*
X43155000Y-97669500D01*
X47055000Y-102769500D02*
X43155000Y-102769500D01*
X41340000Y-97669500D02*
X41340000Y-97969500D01*
X37440000Y-97669500D02*
X37440000Y-98269500D01*
X41340000Y-99769500D02*
X41340000Y-102769500D01*
X37440000Y-102769500D02*
X37440000Y-99469500D01*
X41340000Y-97669500D02*
X37440000Y-97669500D01*
X41340000Y-102769500D02*
X37440000Y-102769500D01*
X33590000Y-20250000D02*
X33590000Y-19950000D01*
X37490000Y-20250000D02*
X37490000Y-19650000D01*
X33590000Y-18150000D02*
X33590000Y-15150000D01*
X37490000Y-15150000D02*
X37490000Y-18450000D01*
X33590000Y-20250000D02*
X37490000Y-20250000D01*
X33590000Y-15150000D02*
X37490000Y-15150000D01*
D15*
X63845000Y-82445000D02*
X63600000Y-82445000D01*
X65940000Y-82445000D02*
X65695000Y-82445000D01*
X63845000Y-78805000D02*
X63600000Y-78805000D01*
X65940000Y-78805000D02*
X65695000Y-78805000D01*
X63600000Y-78805000D02*
X63600000Y-82445000D01*
X65940000Y-78805000D02*
X65940000Y-82445000D01*
D11*
X108569285Y-101662380D02*
X109140714Y-101662380D01*
X108855000Y-102662380D02*
X108855000Y-101662380D01*
X109474047Y-102662380D02*
X109474047Y-101662380D01*
X109474047Y-102138571D02*
X110045476Y-102138571D01*
X110045476Y-102662380D02*
X110045476Y-101662380D01*
X110664523Y-102090952D02*
X110569285Y-102043333D01*
X110521666Y-101995714D01*
X110474047Y-101900476D01*
X110474047Y-101852857D01*
X110521666Y-101757619D01*
X110569285Y-101710000D01*
X110664523Y-101662380D01*
X110855000Y-101662380D01*
X110950238Y-101710000D01*
X110997857Y-101757619D01*
X111045476Y-101852857D01*
X111045476Y-101900476D01*
X110997857Y-101995714D01*
X110950238Y-102043333D01*
X110855000Y-102090952D01*
X110664523Y-102090952D01*
X110569285Y-102138571D01*
X110521666Y-102186190D01*
X110474047Y-102281428D01*
X110474047Y-102471904D01*
X110521666Y-102567142D01*
X110569285Y-102614761D01*
X110664523Y-102662380D01*
X110855000Y-102662380D01*
X110950238Y-102614761D01*
X110997857Y-102567142D01*
X111045476Y-102471904D01*
X111045476Y-102281428D01*
X110997857Y-102186190D01*
X110950238Y-102138571D01*
X110855000Y-102090952D01*
X102219285Y-101662380D02*
X102790714Y-101662380D01*
X102505000Y-102662380D02*
X102505000Y-101662380D01*
X103124047Y-102662380D02*
X103124047Y-101662380D01*
X103124047Y-102138571D02*
X103695476Y-102138571D01*
X103695476Y-102662380D02*
X103695476Y-101662380D01*
X104076428Y-101662380D02*
X104743095Y-101662380D01*
X104314523Y-102662380D01*
X95869285Y-101662380D02*
X96440714Y-101662380D01*
X96155000Y-102662380D02*
X96155000Y-101662380D01*
X96774047Y-102662380D02*
X96774047Y-101662380D01*
X96774047Y-102138571D02*
X97345476Y-102138571D01*
X97345476Y-102662380D02*
X97345476Y-101662380D01*
X98250238Y-101662380D02*
X98059761Y-101662380D01*
X97964523Y-101710000D01*
X97916904Y-101757619D01*
X97821666Y-101900476D01*
X97774047Y-102090952D01*
X97774047Y-102471904D01*
X97821666Y-102567142D01*
X97869285Y-102614761D01*
X97964523Y-102662380D01*
X98155000Y-102662380D01*
X98250238Y-102614761D01*
X98297857Y-102567142D01*
X98345476Y-102471904D01*
X98345476Y-102233809D01*
X98297857Y-102138571D01*
X98250238Y-102090952D01*
X98155000Y-102043333D01*
X97964523Y-102043333D01*
X97869285Y-102090952D01*
X97821666Y-102138571D01*
X97774047Y-102233809D01*
X89519285Y-101662380D02*
X90090714Y-101662380D01*
X89805000Y-102662380D02*
X89805000Y-101662380D01*
X90424047Y-102662380D02*
X90424047Y-101662380D01*
X90424047Y-102138571D02*
X90995476Y-102138571D01*
X90995476Y-102662380D02*
X90995476Y-101662380D01*
X91947857Y-101662380D02*
X91471666Y-101662380D01*
X91424047Y-102138571D01*
X91471666Y-102090952D01*
X91566904Y-102043333D01*
X91805000Y-102043333D01*
X91900238Y-102090952D01*
X91947857Y-102138571D01*
X91995476Y-102233809D01*
X91995476Y-102471904D01*
X91947857Y-102567142D01*
X91900238Y-102614761D01*
X91805000Y-102662380D01*
X91566904Y-102662380D01*
X91471666Y-102614761D01*
X91424047Y-102567142D01*
X83169285Y-101662380D02*
X83740714Y-101662380D01*
X83455000Y-102662380D02*
X83455000Y-101662380D01*
X84074047Y-102662380D02*
X84074047Y-101662380D01*
X84074047Y-102138571D02*
X84645476Y-102138571D01*
X84645476Y-102662380D02*
X84645476Y-101662380D01*
X85550238Y-101995714D02*
X85550238Y-102662380D01*
X85312142Y-101614761D02*
X85074047Y-102329047D01*
X85693095Y-102329047D01*
X76819285Y-101662380D02*
X77390714Y-101662380D01*
X77105000Y-102662380D02*
X77105000Y-101662380D01*
X77724047Y-102662380D02*
X77724047Y-101662380D01*
X77724047Y-102138571D02*
X78295476Y-102138571D01*
X78295476Y-102662380D02*
X78295476Y-101662380D01*
X78676428Y-101662380D02*
X79295476Y-101662380D01*
X78962142Y-102043333D01*
X79105000Y-102043333D01*
X79200238Y-102090952D01*
X79247857Y-102138571D01*
X79295476Y-102233809D01*
X79295476Y-102471904D01*
X79247857Y-102567142D01*
X79200238Y-102614761D01*
X79105000Y-102662380D01*
X78819285Y-102662380D01*
X78724047Y-102614761D01*
X78676428Y-102567142D01*
X70469285Y-101662380D02*
X71040714Y-101662380D01*
X70755000Y-102662380D02*
X70755000Y-101662380D01*
X71374047Y-102662380D02*
X71374047Y-101662380D01*
X71374047Y-102138571D02*
X71945476Y-102138571D01*
X71945476Y-102662380D02*
X71945476Y-101662380D01*
X72374047Y-101757619D02*
X72421666Y-101710000D01*
X72516904Y-101662380D01*
X72755000Y-101662380D01*
X72850238Y-101710000D01*
X72897857Y-101757619D01*
X72945476Y-101852857D01*
X72945476Y-101948095D01*
X72897857Y-102090952D01*
X72326428Y-102662380D01*
X72945476Y-102662380D01*
X64182785Y-101662380D02*
X64754214Y-101662380D01*
X64468500Y-102662380D02*
X64468500Y-101662380D01*
X65087547Y-102662380D02*
X65087547Y-101662380D01*
X65087547Y-102138571D02*
X65658976Y-102138571D01*
X65658976Y-102662380D02*
X65658976Y-101662380D01*
X66658976Y-102662380D02*
X66087547Y-102662380D01*
X66373261Y-102662380D02*
X66373261Y-101662380D01*
X66278023Y-101805238D01*
X66182785Y-101900476D01*
X66087547Y-101948095D01*
X64008095Y-86447380D02*
X64008095Y-87256904D01*
X64055714Y-87352142D01*
X64103333Y-87399761D01*
X64198571Y-87447380D01*
X64389047Y-87447380D01*
X64484285Y-87399761D01*
X64531904Y-87352142D01*
X64579523Y-87256904D01*
X64579523Y-86447380D01*
X65008095Y-86542619D02*
X65055714Y-86495000D01*
X65150952Y-86447380D01*
X65389047Y-86447380D01*
X65484285Y-86495000D01*
X65531904Y-86542619D01*
X65579523Y-86637857D01*
X65579523Y-86733095D01*
X65531904Y-86875952D01*
X64960476Y-87447380D01*
X65579523Y-87447380D01*
X54038595Y-73747380D02*
X54038595Y-74556904D01*
X54086214Y-74652142D01*
X54133833Y-74699761D01*
X54229071Y-74747380D01*
X54419547Y-74747380D01*
X54514785Y-74699761D01*
X54562404Y-74652142D01*
X54610023Y-74556904D01*
X54610023Y-73747380D01*
X55610023Y-74747380D02*
X55038595Y-74747380D01*
X55324309Y-74747380D02*
X55324309Y-73747380D01*
X55229071Y-73890238D01*
X55133833Y-73985476D01*
X55038595Y-74033095D01*
X40013095Y-69937380D02*
X40584523Y-69937380D01*
X40298809Y-70937380D02*
X40298809Y-69937380D01*
X40917857Y-70937380D02*
X40917857Y-69937380D01*
X41298809Y-69937380D01*
X41394047Y-69985000D01*
X41441666Y-70032619D01*
X41489285Y-70127857D01*
X41489285Y-70270714D01*
X41441666Y-70365952D01*
X41394047Y-70413571D01*
X41298809Y-70461190D01*
X40917857Y-70461190D01*
X41870238Y-70032619D02*
X41917857Y-69985000D01*
X42013095Y-69937380D01*
X42251190Y-69937380D01*
X42346428Y-69985000D01*
X42394047Y-70032619D01*
X42441666Y-70127857D01*
X42441666Y-70223095D01*
X42394047Y-70365952D01*
X41822619Y-70937380D01*
X42441666Y-70937380D01*
X35568095Y-69937380D02*
X36139523Y-69937380D01*
X35853809Y-70937380D02*
X35853809Y-69937380D01*
X36472857Y-70937380D02*
X36472857Y-69937380D01*
X36853809Y-69937380D01*
X36949047Y-69985000D01*
X36996666Y-70032619D01*
X37044285Y-70127857D01*
X37044285Y-70270714D01*
X36996666Y-70365952D01*
X36949047Y-70413571D01*
X36853809Y-70461190D01*
X36472857Y-70461190D01*
X37996666Y-70937380D02*
X37425238Y-70937380D01*
X37710952Y-70937380D02*
X37710952Y-69937380D01*
X37615714Y-70080238D01*
X37520476Y-70175476D01*
X37425238Y-70223095D01*
X55816666Y-95019761D02*
X55959523Y-95067380D01*
X56197619Y-95067380D01*
X56292857Y-95019761D01*
X56340476Y-94972142D01*
X56388095Y-94876904D01*
X56388095Y-94781666D01*
X56340476Y-94686428D01*
X56292857Y-94638809D01*
X56197619Y-94591190D01*
X56007142Y-94543571D01*
X55911904Y-94495952D01*
X55864285Y-94448333D01*
X55816666Y-94353095D01*
X55816666Y-94257857D01*
X55864285Y-94162619D01*
X55911904Y-94115000D01*
X56007142Y-94067380D01*
X56245238Y-94067380D01*
X56388095Y-94115000D01*
X56721428Y-94067380D02*
X56959523Y-95067380D01*
X57150000Y-94353095D01*
X57340476Y-95067380D01*
X57578571Y-94067380D01*
X58483333Y-95067380D02*
X57911904Y-95067380D01*
X58197619Y-95067380D02*
X58197619Y-94067380D01*
X58102380Y-94210238D01*
X58007142Y-94305476D01*
X57911904Y-94353095D01*
X54427380Y-90019047D02*
X53951190Y-90352380D01*
X54427380Y-90590476D02*
X53427380Y-90590476D01*
X53427380Y-90209523D01*
X53475000Y-90114285D01*
X53522619Y-90066666D01*
X53617857Y-90019047D01*
X53760714Y-90019047D01*
X53855952Y-90066666D01*
X53903571Y-90114285D01*
X53951190Y-90209523D01*
X53951190Y-90590476D01*
X54427380Y-89066666D02*
X54427380Y-89638095D01*
X54427380Y-89352380D02*
X53427380Y-89352380D01*
X53570238Y-89447619D01*
X53665476Y-89542857D01*
X53713095Y-89638095D01*
X53427380Y-88161904D02*
X53427380Y-88638095D01*
X53903571Y-88685714D01*
X53855952Y-88638095D01*
X53808333Y-88542857D01*
X53808333Y-88304761D01*
X53855952Y-88209523D01*
X53903571Y-88161904D01*
X53998809Y-88114285D01*
X54236904Y-88114285D01*
X54332142Y-88161904D01*
X54379761Y-88209523D01*
X54427380Y-88304761D01*
X54427380Y-88542857D01*
X54379761Y-88638095D01*
X54332142Y-88685714D01*
X53427380Y-87780952D02*
X53427380Y-87161904D01*
X53808333Y-87495238D01*
X53808333Y-87352380D01*
X53855952Y-87257142D01*
X53903571Y-87209523D01*
X53998809Y-87161904D01*
X54236904Y-87161904D01*
X54332142Y-87209523D01*
X54379761Y-87257142D01*
X54427380Y-87352380D01*
X54427380Y-87638095D01*
X54379761Y-87733333D01*
X54332142Y-87780952D01*
X49982380Y-90019047D02*
X49506190Y-90352380D01*
X49982380Y-90590476D02*
X48982380Y-90590476D01*
X48982380Y-90209523D01*
X49030000Y-90114285D01*
X49077619Y-90066666D01*
X49172857Y-90019047D01*
X49315714Y-90019047D01*
X49410952Y-90066666D01*
X49458571Y-90114285D01*
X49506190Y-90209523D01*
X49506190Y-90590476D01*
X49982380Y-89066666D02*
X49982380Y-89638095D01*
X49982380Y-89352380D02*
X48982380Y-89352380D01*
X49125238Y-89447619D01*
X49220476Y-89542857D01*
X49268095Y-89638095D01*
X48982380Y-88161904D02*
X48982380Y-88638095D01*
X49458571Y-88685714D01*
X49410952Y-88638095D01*
X49363333Y-88542857D01*
X49363333Y-88304761D01*
X49410952Y-88209523D01*
X49458571Y-88161904D01*
X49553809Y-88114285D01*
X49791904Y-88114285D01*
X49887142Y-88161904D01*
X49934761Y-88209523D01*
X49982380Y-88304761D01*
X49982380Y-88542857D01*
X49934761Y-88638095D01*
X49887142Y-88685714D01*
X49982380Y-87161904D02*
X49982380Y-87733333D01*
X49982380Y-87447619D02*
X48982380Y-87447619D01*
X49125238Y-87542857D01*
X49220476Y-87638095D01*
X49268095Y-87733333D01*
X46807380Y-90019047D02*
X46331190Y-90352380D01*
X46807380Y-90590476D02*
X45807380Y-90590476D01*
X45807380Y-90209523D01*
X45855000Y-90114285D01*
X45902619Y-90066666D01*
X45997857Y-90019047D01*
X46140714Y-90019047D01*
X46235952Y-90066666D01*
X46283571Y-90114285D01*
X46331190Y-90209523D01*
X46331190Y-90590476D01*
X46807380Y-89066666D02*
X46807380Y-89638095D01*
X46807380Y-89352380D02*
X45807380Y-89352380D01*
X45950238Y-89447619D01*
X46045476Y-89542857D01*
X46093095Y-89638095D01*
X45807380Y-88161904D02*
X45807380Y-88638095D01*
X46283571Y-88685714D01*
X46235952Y-88638095D01*
X46188333Y-88542857D01*
X46188333Y-88304761D01*
X46235952Y-88209523D01*
X46283571Y-88161904D01*
X46378809Y-88114285D01*
X46616904Y-88114285D01*
X46712142Y-88161904D01*
X46759761Y-88209523D01*
X46807380Y-88304761D01*
X46807380Y-88542857D01*
X46759761Y-88638095D01*
X46712142Y-88685714D01*
X45807380Y-87495238D02*
X45807380Y-87400000D01*
X45855000Y-87304761D01*
X45902619Y-87257142D01*
X45997857Y-87209523D01*
X46188333Y-87161904D01*
X46426428Y-87161904D01*
X46616904Y-87209523D01*
X46712142Y-87257142D01*
X46759761Y-87304761D01*
X46807380Y-87400000D01*
X46807380Y-87495238D01*
X46759761Y-87590476D01*
X46712142Y-87638095D01*
X46616904Y-87685714D01*
X46426428Y-87733333D01*
X46188333Y-87733333D01*
X45997857Y-87685714D01*
X45902619Y-87638095D01*
X45855000Y-87590476D01*
X45807380Y-87495238D01*
X95400952Y-80462380D02*
X95067619Y-79986190D01*
X94829523Y-80462380D02*
X94829523Y-79462380D01*
X95210476Y-79462380D01*
X95305714Y-79510000D01*
X95353333Y-79557619D01*
X95400952Y-79652857D01*
X95400952Y-79795714D01*
X95353333Y-79890952D01*
X95305714Y-79938571D01*
X95210476Y-79986190D01*
X94829523Y-79986190D01*
X96353333Y-80462380D02*
X95781904Y-80462380D01*
X96067619Y-80462380D02*
X96067619Y-79462380D01*
X95972380Y-79605238D01*
X95877142Y-79700476D01*
X95781904Y-79748095D01*
X96972380Y-79462380D02*
X97067619Y-79462380D01*
X97162857Y-79510000D01*
X97210476Y-79557619D01*
X97258095Y-79652857D01*
X97305714Y-79843333D01*
X97305714Y-80081428D01*
X97258095Y-80271904D01*
X97210476Y-80367142D01*
X97162857Y-80414761D01*
X97067619Y-80462380D01*
X96972380Y-80462380D01*
X96877142Y-80414761D01*
X96829523Y-80367142D01*
X96781904Y-80271904D01*
X96734285Y-80081428D01*
X96734285Y-79843333D01*
X96781904Y-79652857D01*
X96829523Y-79557619D01*
X96877142Y-79510000D01*
X96972380Y-79462380D01*
X97686666Y-79557619D02*
X97734285Y-79510000D01*
X97829523Y-79462380D01*
X98067619Y-79462380D01*
X98162857Y-79510000D01*
X98210476Y-79557619D01*
X98258095Y-79652857D01*
X98258095Y-79748095D01*
X98210476Y-79890952D01*
X97639047Y-80462380D01*
X98258095Y-80462380D01*
X95400952Y-83637380D02*
X95067619Y-83161190D01*
X94829523Y-83637380D02*
X94829523Y-82637380D01*
X95210476Y-82637380D01*
X95305714Y-82685000D01*
X95353333Y-82732619D01*
X95400952Y-82827857D01*
X95400952Y-82970714D01*
X95353333Y-83065952D01*
X95305714Y-83113571D01*
X95210476Y-83161190D01*
X94829523Y-83161190D01*
X96353333Y-83637380D02*
X95781904Y-83637380D01*
X96067619Y-83637380D02*
X96067619Y-82637380D01*
X95972380Y-82780238D01*
X95877142Y-82875476D01*
X95781904Y-82923095D01*
X96972380Y-82637380D02*
X97067619Y-82637380D01*
X97162857Y-82685000D01*
X97210476Y-82732619D01*
X97258095Y-82827857D01*
X97305714Y-83018333D01*
X97305714Y-83256428D01*
X97258095Y-83446904D01*
X97210476Y-83542142D01*
X97162857Y-83589761D01*
X97067619Y-83637380D01*
X96972380Y-83637380D01*
X96877142Y-83589761D01*
X96829523Y-83542142D01*
X96781904Y-83446904D01*
X96734285Y-83256428D01*
X96734285Y-83018333D01*
X96781904Y-82827857D01*
X96829523Y-82732619D01*
X96877142Y-82685000D01*
X96972380Y-82637380D01*
X98258095Y-83637380D02*
X97686666Y-83637380D01*
X97972380Y-83637380D02*
X97972380Y-82637380D01*
X97877142Y-82780238D01*
X97781904Y-82875476D01*
X97686666Y-82923095D01*
X22693333Y-18232380D02*
X22360000Y-17756190D01*
X22121904Y-18232380D02*
X22121904Y-17232380D01*
X22502857Y-17232380D01*
X22598095Y-17280000D01*
X22645714Y-17327619D01*
X22693333Y-17422857D01*
X22693333Y-17565714D01*
X22645714Y-17660952D01*
X22598095Y-17708571D01*
X22502857Y-17756190D01*
X22121904Y-17756190D01*
X23645714Y-18232380D02*
X23074285Y-18232380D01*
X23360000Y-18232380D02*
X23360000Y-17232380D01*
X23264761Y-17375238D01*
X23169523Y-17470476D01*
X23074285Y-17518095D01*
X29060714Y-36680880D02*
X29060714Y-35680880D01*
X29441666Y-35680880D01*
X29536904Y-35728500D01*
X29584523Y-35776119D01*
X29632142Y-35871357D01*
X29632142Y-36014214D01*
X29584523Y-36109452D01*
X29536904Y-36157071D01*
X29441666Y-36204690D01*
X29060714Y-36204690D01*
X30013095Y-36633261D02*
X30155952Y-36680880D01*
X30394047Y-36680880D01*
X30489285Y-36633261D01*
X30536904Y-36585642D01*
X30584523Y-36490404D01*
X30584523Y-36395166D01*
X30536904Y-36299928D01*
X30489285Y-36252309D01*
X30394047Y-36204690D01*
X30203571Y-36157071D01*
X30108333Y-36109452D01*
X30060714Y-36061833D01*
X30013095Y-35966595D01*
X30013095Y-35871357D01*
X30060714Y-35776119D01*
X30108333Y-35728500D01*
X30203571Y-35680880D01*
X30441666Y-35680880D01*
X30584523Y-35728500D01*
X31536904Y-36680880D02*
X30965476Y-36680880D01*
X31251190Y-36680880D02*
X31251190Y-35680880D01*
X31155952Y-35823738D01*
X31060714Y-35918976D01*
X30965476Y-35966595D01*
X120951666Y-81367380D02*
X120951666Y-82081666D01*
X120904047Y-82224523D01*
X120808809Y-82319761D01*
X120665952Y-82367380D01*
X120570714Y-82367380D01*
X121380238Y-81462619D02*
X121427857Y-81415000D01*
X121523095Y-81367380D01*
X121761190Y-81367380D01*
X121856428Y-81415000D01*
X121904047Y-81462619D01*
X121951666Y-81557857D01*
X121951666Y-81653095D01*
X121904047Y-81795952D01*
X121332619Y-82367380D01*
X121951666Y-82367380D01*
X44387666Y-18022380D02*
X44387666Y-18736666D01*
X44340047Y-18879523D01*
X44244809Y-18974761D01*
X44101952Y-19022380D01*
X44006714Y-19022380D01*
X45387666Y-19022380D02*
X44816238Y-19022380D01*
X45101952Y-19022380D02*
X45101952Y-18022380D01*
X45006714Y-18165238D01*
X44911476Y-18260476D01*
X44816238Y-18308095D01*
X21891666Y-48823571D02*
X21558333Y-48823571D01*
X21558333Y-49347380D02*
X21558333Y-48347380D01*
X22034523Y-48347380D01*
X22939285Y-49347380D02*
X22367857Y-49347380D01*
X22653571Y-49347380D02*
X22653571Y-48347380D01*
X22558333Y-48490238D01*
X22463095Y-48585476D01*
X22367857Y-48633095D01*
X43394523Y-96337380D02*
X43394523Y-95337380D01*
X43632619Y-95337380D01*
X43775476Y-95385000D01*
X43870714Y-95480238D01*
X43918333Y-95575476D01*
X43965952Y-95765952D01*
X43965952Y-95908809D01*
X43918333Y-96099285D01*
X43870714Y-96194523D01*
X43775476Y-96289761D01*
X43632619Y-96337380D01*
X43394523Y-96337380D01*
X44918333Y-96337380D02*
X44346904Y-96337380D01*
X44632619Y-96337380D02*
X44632619Y-95337380D01*
X44537380Y-95480238D01*
X44442142Y-95575476D01*
X44346904Y-95623095D01*
X45537380Y-95337380D02*
X45632619Y-95337380D01*
X45727857Y-95385000D01*
X45775476Y-95432619D01*
X45823095Y-95527857D01*
X45870714Y-95718333D01*
X45870714Y-95956428D01*
X45823095Y-96146904D01*
X45775476Y-96242142D01*
X45727857Y-96289761D01*
X45632619Y-96337380D01*
X45537380Y-96337380D01*
X45442142Y-96289761D01*
X45394523Y-96242142D01*
X45346904Y-96146904D01*
X45299285Y-95956428D01*
X45299285Y-95718333D01*
X45346904Y-95527857D01*
X45394523Y-95432619D01*
X45442142Y-95385000D01*
X45537380Y-95337380D01*
X46251666Y-95432619D02*
X46299285Y-95385000D01*
X46394523Y-95337380D01*
X46632619Y-95337380D01*
X46727857Y-95385000D01*
X46775476Y-95432619D01*
X46823095Y-95527857D01*
X46823095Y-95623095D01*
X46775476Y-95765952D01*
X46204047Y-96337380D01*
X46823095Y-96337380D01*
X37679523Y-96337380D02*
X37679523Y-95337380D01*
X37917619Y-95337380D01*
X38060476Y-95385000D01*
X38155714Y-95480238D01*
X38203333Y-95575476D01*
X38250952Y-95765952D01*
X38250952Y-95908809D01*
X38203333Y-96099285D01*
X38155714Y-96194523D01*
X38060476Y-96289761D01*
X37917619Y-96337380D01*
X37679523Y-96337380D01*
X39203333Y-96337380D02*
X38631904Y-96337380D01*
X38917619Y-96337380D02*
X38917619Y-95337380D01*
X38822380Y-95480238D01*
X38727142Y-95575476D01*
X38631904Y-95623095D01*
X39822380Y-95337380D02*
X39917619Y-95337380D01*
X40012857Y-95385000D01*
X40060476Y-95432619D01*
X40108095Y-95527857D01*
X40155714Y-95718333D01*
X40155714Y-95956428D01*
X40108095Y-96146904D01*
X40060476Y-96242142D01*
X40012857Y-96289761D01*
X39917619Y-96337380D01*
X39822380Y-96337380D01*
X39727142Y-96289761D01*
X39679523Y-96242142D01*
X39631904Y-96146904D01*
X39584285Y-95956428D01*
X39584285Y-95718333D01*
X39631904Y-95527857D01*
X39679523Y-95432619D01*
X39727142Y-95385000D01*
X39822380Y-95337380D01*
X41108095Y-96337380D02*
X40536666Y-96337380D01*
X40822380Y-96337380D02*
X40822380Y-95337380D01*
X40727142Y-95480238D01*
X40631904Y-95575476D01*
X40536666Y-95623095D01*
X38631904Y-19502380D02*
X38631904Y-18502380D01*
X38870000Y-18502380D01*
X39012857Y-18550000D01*
X39108095Y-18645238D01*
X39155714Y-18740476D01*
X39203333Y-18930952D01*
X39203333Y-19073809D01*
X39155714Y-19264285D01*
X39108095Y-19359523D01*
X39012857Y-19454761D01*
X38870000Y-19502380D01*
X38631904Y-19502380D01*
X40155714Y-19502380D02*
X39584285Y-19502380D01*
X39870000Y-19502380D02*
X39870000Y-18502380D01*
X39774761Y-18645238D01*
X39679523Y-18740476D01*
X39584285Y-18788095D01*
X60475952Y-80811642D02*
X60428333Y-80859261D01*
X60285476Y-80906880D01*
X60190238Y-80906880D01*
X60047380Y-80859261D01*
X59952142Y-80764023D01*
X59904523Y-80668785D01*
X59856904Y-80478309D01*
X59856904Y-80335452D01*
X59904523Y-80144976D01*
X59952142Y-80049738D01*
X60047380Y-79954500D01*
X60190238Y-79906880D01*
X60285476Y-79906880D01*
X60428333Y-79954500D01*
X60475952Y-80002119D01*
X60856904Y-80002119D02*
X60904523Y-79954500D01*
X60999761Y-79906880D01*
X61237857Y-79906880D01*
X61333095Y-79954500D01*
X61380714Y-80002119D01*
X61428333Y-80097357D01*
X61428333Y-80192595D01*
X61380714Y-80335452D01*
X60809285Y-80906880D01*
X61428333Y-80906880D01*
X62047380Y-79906880D02*
X62142619Y-79906880D01*
X62237857Y-79954500D01*
X62285476Y-80002119D01*
X62333095Y-80097357D01*
X62380714Y-80287833D01*
X62380714Y-80525928D01*
X62333095Y-80716404D01*
X62285476Y-80811642D01*
X62237857Y-80859261D01*
X62142619Y-80906880D01*
X62047380Y-80906880D01*
X61952142Y-80859261D01*
X61904523Y-80811642D01*
X61856904Y-80716404D01*
X61809285Y-80525928D01*
X61809285Y-80287833D01*
X61856904Y-80097357D01*
X61904523Y-80002119D01*
X61952142Y-79954500D01*
X62047380Y-79906880D01*
X63333095Y-80906880D02*
X62761666Y-80906880D01*
X63047380Y-80906880D02*
X63047380Y-79906880D01*
X62952142Y-80049738D01*
X62856904Y-80144976D01*
X62761666Y-80192595D01*
%LPC*%
D10*
G36*
X112112405Y-94710567D02*
G01*
X112144002Y-94715254D01*
X112174988Y-94723016D01*
X112205063Y-94733777D01*
X112233940Y-94747435D01*
X112261338Y-94763857D01*
X112286995Y-94782885D01*
X112310663Y-94804337D01*
X112332115Y-94828005D01*
X112351143Y-94853662D01*
X112367565Y-94881060D01*
X112381223Y-94909937D01*
X112391984Y-94940012D01*
X112399746Y-94970998D01*
X112404433Y-95002595D01*
X112406000Y-95034500D01*
X112406000Y-96585500D01*
X112404433Y-96617405D01*
X112399746Y-96649002D01*
X112391984Y-96679988D01*
X112381223Y-96710063D01*
X112367565Y-96738940D01*
X112351143Y-96766338D01*
X112332115Y-96791995D01*
X112310663Y-96815663D01*
X112286995Y-96837115D01*
X112261338Y-96856143D01*
X112233940Y-96872565D01*
X112205063Y-96886223D01*
X112174988Y-96896984D01*
X112144002Y-96904746D01*
X112112405Y-96909433D01*
X112080500Y-96911000D01*
X111429500Y-96911000D01*
X111397595Y-96909433D01*
X111365998Y-96904746D01*
X111335012Y-96896984D01*
X111304937Y-96886223D01*
X111276060Y-96872565D01*
X111248662Y-96856143D01*
X111223005Y-96837115D01*
X111199337Y-96815663D01*
X111177885Y-96791995D01*
X111158857Y-96766338D01*
X111142435Y-96738940D01*
X111128777Y-96710063D01*
X111118016Y-96679988D01*
X111110254Y-96649002D01*
X111105567Y-96617405D01*
X111104000Y-96585500D01*
X111104000Y-95034500D01*
X111105567Y-95002595D01*
X111110254Y-94970998D01*
X111118016Y-94940012D01*
X111128777Y-94909937D01*
X111142435Y-94881060D01*
X111158857Y-94853662D01*
X111177885Y-94828005D01*
X111199337Y-94804337D01*
X111223005Y-94782885D01*
X111248662Y-94763857D01*
X111276060Y-94747435D01*
X111304937Y-94733777D01*
X111335012Y-94723016D01*
X111365998Y-94715254D01*
X111397595Y-94710567D01*
X111429500Y-94709000D01*
X112080500Y-94709000D01*
X112112405Y-94710567D01*
X112112405Y-94710567D01*
G37*
D16*
X111755000Y-95810000D03*
D10*
G36*
X110662405Y-92060567D02*
G01*
X110694002Y-92065254D01*
X110724988Y-92073016D01*
X110755063Y-92083777D01*
X110783940Y-92097435D01*
X110811338Y-92113857D01*
X110836995Y-92132885D01*
X110860663Y-92154337D01*
X110882115Y-92178005D01*
X110901143Y-92203662D01*
X110917565Y-92231060D01*
X110931223Y-92259937D01*
X110941984Y-92290012D01*
X110949746Y-92320998D01*
X110954433Y-92352595D01*
X110956000Y-92384500D01*
X110956000Y-93035500D01*
X110954433Y-93067405D01*
X110949746Y-93099002D01*
X110941984Y-93129988D01*
X110931223Y-93160063D01*
X110917565Y-93188940D01*
X110901143Y-93216338D01*
X110882115Y-93241995D01*
X110860663Y-93265663D01*
X110836995Y-93287115D01*
X110811338Y-93306143D01*
X110783940Y-93322565D01*
X110755063Y-93336223D01*
X110724988Y-93346984D01*
X110694002Y-93354746D01*
X110662405Y-93359433D01*
X110630500Y-93361000D01*
X109079500Y-93361000D01*
X109047595Y-93359433D01*
X109015998Y-93354746D01*
X108985012Y-93346984D01*
X108954937Y-93336223D01*
X108926060Y-93322565D01*
X108898662Y-93306143D01*
X108873005Y-93287115D01*
X108849337Y-93265663D01*
X108827885Y-93241995D01*
X108808857Y-93216338D01*
X108792435Y-93188940D01*
X108778777Y-93160063D01*
X108768016Y-93129988D01*
X108760254Y-93099002D01*
X108755567Y-93067405D01*
X108754000Y-93035500D01*
X108754000Y-92384500D01*
X108755567Y-92352595D01*
X108760254Y-92320998D01*
X108768016Y-92290012D01*
X108778777Y-92259937D01*
X108792435Y-92231060D01*
X108808857Y-92203662D01*
X108827885Y-92178005D01*
X108849337Y-92154337D01*
X108873005Y-92132885D01*
X108898662Y-92113857D01*
X108926060Y-92097435D01*
X108954937Y-92083777D01*
X108985012Y-92073016D01*
X109015998Y-92065254D01*
X109047595Y-92060567D01*
X109079500Y-92059000D01*
X110630500Y-92059000D01*
X110662405Y-92060567D01*
X110662405Y-92060567D01*
G37*
D16*
X109855000Y-92710000D03*
D10*
G36*
X108312405Y-94710567D02*
G01*
X108344002Y-94715254D01*
X108374988Y-94723016D01*
X108405063Y-94733777D01*
X108433940Y-94747435D01*
X108461338Y-94763857D01*
X108486995Y-94782885D01*
X108510663Y-94804337D01*
X108532115Y-94828005D01*
X108551143Y-94853662D01*
X108567565Y-94881060D01*
X108581223Y-94909937D01*
X108591984Y-94940012D01*
X108599746Y-94970998D01*
X108604433Y-95002595D01*
X108606000Y-95034500D01*
X108606000Y-96585500D01*
X108604433Y-96617405D01*
X108599746Y-96649002D01*
X108591984Y-96679988D01*
X108581223Y-96710063D01*
X108567565Y-96738940D01*
X108551143Y-96766338D01*
X108532115Y-96791995D01*
X108510663Y-96815663D01*
X108486995Y-96837115D01*
X108461338Y-96856143D01*
X108433940Y-96872565D01*
X108405063Y-96886223D01*
X108374988Y-96896984D01*
X108344002Y-96904746D01*
X108312405Y-96909433D01*
X108280500Y-96911000D01*
X107629500Y-96911000D01*
X107597595Y-96909433D01*
X107565998Y-96904746D01*
X107535012Y-96896984D01*
X107504937Y-96886223D01*
X107476060Y-96872565D01*
X107448662Y-96856143D01*
X107423005Y-96837115D01*
X107399337Y-96815663D01*
X107377885Y-96791995D01*
X107358857Y-96766338D01*
X107342435Y-96738940D01*
X107328777Y-96710063D01*
X107318016Y-96679988D01*
X107310254Y-96649002D01*
X107305567Y-96617405D01*
X107304000Y-96585500D01*
X107304000Y-95034500D01*
X107305567Y-95002595D01*
X107310254Y-94970998D01*
X107318016Y-94940012D01*
X107328777Y-94909937D01*
X107342435Y-94881060D01*
X107358857Y-94853662D01*
X107377885Y-94828005D01*
X107399337Y-94804337D01*
X107423005Y-94782885D01*
X107448662Y-94763857D01*
X107476060Y-94747435D01*
X107504937Y-94733777D01*
X107535012Y-94723016D01*
X107565998Y-94715254D01*
X107597595Y-94710567D01*
X107629500Y-94709000D01*
X108280500Y-94709000D01*
X108312405Y-94710567D01*
X108312405Y-94710567D01*
G37*
D16*
X107955000Y-95810000D03*
D17*
X111855000Y-100460000D03*
X107855000Y-100460000D03*
D10*
G36*
X105762405Y-94710567D02*
G01*
X105794002Y-94715254D01*
X105824988Y-94723016D01*
X105855063Y-94733777D01*
X105883940Y-94747435D01*
X105911338Y-94763857D01*
X105936995Y-94782885D01*
X105960663Y-94804337D01*
X105982115Y-94828005D01*
X106001143Y-94853662D01*
X106017565Y-94881060D01*
X106031223Y-94909937D01*
X106041984Y-94940012D01*
X106049746Y-94970998D01*
X106054433Y-95002595D01*
X106056000Y-95034500D01*
X106056000Y-96585500D01*
X106054433Y-96617405D01*
X106049746Y-96649002D01*
X106041984Y-96679988D01*
X106031223Y-96710063D01*
X106017565Y-96738940D01*
X106001143Y-96766338D01*
X105982115Y-96791995D01*
X105960663Y-96815663D01*
X105936995Y-96837115D01*
X105911338Y-96856143D01*
X105883940Y-96872565D01*
X105855063Y-96886223D01*
X105824988Y-96896984D01*
X105794002Y-96904746D01*
X105762405Y-96909433D01*
X105730500Y-96911000D01*
X105079500Y-96911000D01*
X105047595Y-96909433D01*
X105015998Y-96904746D01*
X104985012Y-96896984D01*
X104954937Y-96886223D01*
X104926060Y-96872565D01*
X104898662Y-96856143D01*
X104873005Y-96837115D01*
X104849337Y-96815663D01*
X104827885Y-96791995D01*
X104808857Y-96766338D01*
X104792435Y-96738940D01*
X104778777Y-96710063D01*
X104768016Y-96679988D01*
X104760254Y-96649002D01*
X104755567Y-96617405D01*
X104754000Y-96585500D01*
X104754000Y-95034500D01*
X104755567Y-95002595D01*
X104760254Y-94970998D01*
X104768016Y-94940012D01*
X104778777Y-94909937D01*
X104792435Y-94881060D01*
X104808857Y-94853662D01*
X104827885Y-94828005D01*
X104849337Y-94804337D01*
X104873005Y-94782885D01*
X104898662Y-94763857D01*
X104926060Y-94747435D01*
X104954937Y-94733777D01*
X104985012Y-94723016D01*
X105015998Y-94715254D01*
X105047595Y-94710567D01*
X105079500Y-94709000D01*
X105730500Y-94709000D01*
X105762405Y-94710567D01*
X105762405Y-94710567D01*
G37*
D16*
X105405000Y-95810000D03*
D10*
G36*
X104312405Y-92060567D02*
G01*
X104344002Y-92065254D01*
X104374988Y-92073016D01*
X104405063Y-92083777D01*
X104433940Y-92097435D01*
X104461338Y-92113857D01*
X104486995Y-92132885D01*
X104510663Y-92154337D01*
X104532115Y-92178005D01*
X104551143Y-92203662D01*
X104567565Y-92231060D01*
X104581223Y-92259937D01*
X104591984Y-92290012D01*
X104599746Y-92320998D01*
X104604433Y-92352595D01*
X104606000Y-92384500D01*
X104606000Y-93035500D01*
X104604433Y-93067405D01*
X104599746Y-93099002D01*
X104591984Y-93129988D01*
X104581223Y-93160063D01*
X104567565Y-93188940D01*
X104551143Y-93216338D01*
X104532115Y-93241995D01*
X104510663Y-93265663D01*
X104486995Y-93287115D01*
X104461338Y-93306143D01*
X104433940Y-93322565D01*
X104405063Y-93336223D01*
X104374988Y-93346984D01*
X104344002Y-93354746D01*
X104312405Y-93359433D01*
X104280500Y-93361000D01*
X102729500Y-93361000D01*
X102697595Y-93359433D01*
X102665998Y-93354746D01*
X102635012Y-93346984D01*
X102604937Y-93336223D01*
X102576060Y-93322565D01*
X102548662Y-93306143D01*
X102523005Y-93287115D01*
X102499337Y-93265663D01*
X102477885Y-93241995D01*
X102458857Y-93216338D01*
X102442435Y-93188940D01*
X102428777Y-93160063D01*
X102418016Y-93129988D01*
X102410254Y-93099002D01*
X102405567Y-93067405D01*
X102404000Y-93035500D01*
X102404000Y-92384500D01*
X102405567Y-92352595D01*
X102410254Y-92320998D01*
X102418016Y-92290012D01*
X102428777Y-92259937D01*
X102442435Y-92231060D01*
X102458857Y-92203662D01*
X102477885Y-92178005D01*
X102499337Y-92154337D01*
X102523005Y-92132885D01*
X102548662Y-92113857D01*
X102576060Y-92097435D01*
X102604937Y-92083777D01*
X102635012Y-92073016D01*
X102665998Y-92065254D01*
X102697595Y-92060567D01*
X102729500Y-92059000D01*
X104280500Y-92059000D01*
X104312405Y-92060567D01*
X104312405Y-92060567D01*
G37*
D16*
X103505000Y-92710000D03*
D10*
G36*
X101962405Y-94710567D02*
G01*
X101994002Y-94715254D01*
X102024988Y-94723016D01*
X102055063Y-94733777D01*
X102083940Y-94747435D01*
X102111338Y-94763857D01*
X102136995Y-94782885D01*
X102160663Y-94804337D01*
X102182115Y-94828005D01*
X102201143Y-94853662D01*
X102217565Y-94881060D01*
X102231223Y-94909937D01*
X102241984Y-94940012D01*
X102249746Y-94970998D01*
X102254433Y-95002595D01*
X102256000Y-95034500D01*
X102256000Y-96585500D01*
X102254433Y-96617405D01*
X102249746Y-96649002D01*
X102241984Y-96679988D01*
X102231223Y-96710063D01*
X102217565Y-96738940D01*
X102201143Y-96766338D01*
X102182115Y-96791995D01*
X102160663Y-96815663D01*
X102136995Y-96837115D01*
X102111338Y-96856143D01*
X102083940Y-96872565D01*
X102055063Y-96886223D01*
X102024988Y-96896984D01*
X101994002Y-96904746D01*
X101962405Y-96909433D01*
X101930500Y-96911000D01*
X101279500Y-96911000D01*
X101247595Y-96909433D01*
X101215998Y-96904746D01*
X101185012Y-96896984D01*
X101154937Y-96886223D01*
X101126060Y-96872565D01*
X101098662Y-96856143D01*
X101073005Y-96837115D01*
X101049337Y-96815663D01*
X101027885Y-96791995D01*
X101008857Y-96766338D01*
X100992435Y-96738940D01*
X100978777Y-96710063D01*
X100968016Y-96679988D01*
X100960254Y-96649002D01*
X100955567Y-96617405D01*
X100954000Y-96585500D01*
X100954000Y-95034500D01*
X100955567Y-95002595D01*
X100960254Y-94970998D01*
X100968016Y-94940012D01*
X100978777Y-94909937D01*
X100992435Y-94881060D01*
X101008857Y-94853662D01*
X101027885Y-94828005D01*
X101049337Y-94804337D01*
X101073005Y-94782885D01*
X101098662Y-94763857D01*
X101126060Y-94747435D01*
X101154937Y-94733777D01*
X101185012Y-94723016D01*
X101215998Y-94715254D01*
X101247595Y-94710567D01*
X101279500Y-94709000D01*
X101930500Y-94709000D01*
X101962405Y-94710567D01*
X101962405Y-94710567D01*
G37*
D16*
X101605000Y-95810000D03*
D17*
X105505000Y-100460000D03*
X101505000Y-100460000D03*
D10*
G36*
X99412405Y-94710567D02*
G01*
X99444002Y-94715254D01*
X99474988Y-94723016D01*
X99505063Y-94733777D01*
X99533940Y-94747435D01*
X99561338Y-94763857D01*
X99586995Y-94782885D01*
X99610663Y-94804337D01*
X99632115Y-94828005D01*
X99651143Y-94853662D01*
X99667565Y-94881060D01*
X99681223Y-94909937D01*
X99691984Y-94940012D01*
X99699746Y-94970998D01*
X99704433Y-95002595D01*
X99706000Y-95034500D01*
X99706000Y-96585500D01*
X99704433Y-96617405D01*
X99699746Y-96649002D01*
X99691984Y-96679988D01*
X99681223Y-96710063D01*
X99667565Y-96738940D01*
X99651143Y-96766338D01*
X99632115Y-96791995D01*
X99610663Y-96815663D01*
X99586995Y-96837115D01*
X99561338Y-96856143D01*
X99533940Y-96872565D01*
X99505063Y-96886223D01*
X99474988Y-96896984D01*
X99444002Y-96904746D01*
X99412405Y-96909433D01*
X99380500Y-96911000D01*
X98729500Y-96911000D01*
X98697595Y-96909433D01*
X98665998Y-96904746D01*
X98635012Y-96896984D01*
X98604937Y-96886223D01*
X98576060Y-96872565D01*
X98548662Y-96856143D01*
X98523005Y-96837115D01*
X98499337Y-96815663D01*
X98477885Y-96791995D01*
X98458857Y-96766338D01*
X98442435Y-96738940D01*
X98428777Y-96710063D01*
X98418016Y-96679988D01*
X98410254Y-96649002D01*
X98405567Y-96617405D01*
X98404000Y-96585500D01*
X98404000Y-95034500D01*
X98405567Y-95002595D01*
X98410254Y-94970998D01*
X98418016Y-94940012D01*
X98428777Y-94909937D01*
X98442435Y-94881060D01*
X98458857Y-94853662D01*
X98477885Y-94828005D01*
X98499337Y-94804337D01*
X98523005Y-94782885D01*
X98548662Y-94763857D01*
X98576060Y-94747435D01*
X98604937Y-94733777D01*
X98635012Y-94723016D01*
X98665998Y-94715254D01*
X98697595Y-94710567D01*
X98729500Y-94709000D01*
X99380500Y-94709000D01*
X99412405Y-94710567D01*
X99412405Y-94710567D01*
G37*
D16*
X99055000Y-95810000D03*
D10*
G36*
X97962405Y-92060567D02*
G01*
X97994002Y-92065254D01*
X98024988Y-92073016D01*
X98055063Y-92083777D01*
X98083940Y-92097435D01*
X98111338Y-92113857D01*
X98136995Y-92132885D01*
X98160663Y-92154337D01*
X98182115Y-92178005D01*
X98201143Y-92203662D01*
X98217565Y-92231060D01*
X98231223Y-92259937D01*
X98241984Y-92290012D01*
X98249746Y-92320998D01*
X98254433Y-92352595D01*
X98256000Y-92384500D01*
X98256000Y-93035500D01*
X98254433Y-93067405D01*
X98249746Y-93099002D01*
X98241984Y-93129988D01*
X98231223Y-93160063D01*
X98217565Y-93188940D01*
X98201143Y-93216338D01*
X98182115Y-93241995D01*
X98160663Y-93265663D01*
X98136995Y-93287115D01*
X98111338Y-93306143D01*
X98083940Y-93322565D01*
X98055063Y-93336223D01*
X98024988Y-93346984D01*
X97994002Y-93354746D01*
X97962405Y-93359433D01*
X97930500Y-93361000D01*
X96379500Y-93361000D01*
X96347595Y-93359433D01*
X96315998Y-93354746D01*
X96285012Y-93346984D01*
X96254937Y-93336223D01*
X96226060Y-93322565D01*
X96198662Y-93306143D01*
X96173005Y-93287115D01*
X96149337Y-93265663D01*
X96127885Y-93241995D01*
X96108857Y-93216338D01*
X96092435Y-93188940D01*
X96078777Y-93160063D01*
X96068016Y-93129988D01*
X96060254Y-93099002D01*
X96055567Y-93067405D01*
X96054000Y-93035500D01*
X96054000Y-92384500D01*
X96055567Y-92352595D01*
X96060254Y-92320998D01*
X96068016Y-92290012D01*
X96078777Y-92259937D01*
X96092435Y-92231060D01*
X96108857Y-92203662D01*
X96127885Y-92178005D01*
X96149337Y-92154337D01*
X96173005Y-92132885D01*
X96198662Y-92113857D01*
X96226060Y-92097435D01*
X96254937Y-92083777D01*
X96285012Y-92073016D01*
X96315998Y-92065254D01*
X96347595Y-92060567D01*
X96379500Y-92059000D01*
X97930500Y-92059000D01*
X97962405Y-92060567D01*
X97962405Y-92060567D01*
G37*
D16*
X97155000Y-92710000D03*
D10*
G36*
X95612405Y-94710567D02*
G01*
X95644002Y-94715254D01*
X95674988Y-94723016D01*
X95705063Y-94733777D01*
X95733940Y-94747435D01*
X95761338Y-94763857D01*
X95786995Y-94782885D01*
X95810663Y-94804337D01*
X95832115Y-94828005D01*
X95851143Y-94853662D01*
X95867565Y-94881060D01*
X95881223Y-94909937D01*
X95891984Y-94940012D01*
X95899746Y-94970998D01*
X95904433Y-95002595D01*
X95906000Y-95034500D01*
X95906000Y-96585500D01*
X95904433Y-96617405D01*
X95899746Y-96649002D01*
X95891984Y-96679988D01*
X95881223Y-96710063D01*
X95867565Y-96738940D01*
X95851143Y-96766338D01*
X95832115Y-96791995D01*
X95810663Y-96815663D01*
X95786995Y-96837115D01*
X95761338Y-96856143D01*
X95733940Y-96872565D01*
X95705063Y-96886223D01*
X95674988Y-96896984D01*
X95644002Y-96904746D01*
X95612405Y-96909433D01*
X95580500Y-96911000D01*
X94929500Y-96911000D01*
X94897595Y-96909433D01*
X94865998Y-96904746D01*
X94835012Y-96896984D01*
X94804937Y-96886223D01*
X94776060Y-96872565D01*
X94748662Y-96856143D01*
X94723005Y-96837115D01*
X94699337Y-96815663D01*
X94677885Y-96791995D01*
X94658857Y-96766338D01*
X94642435Y-96738940D01*
X94628777Y-96710063D01*
X94618016Y-96679988D01*
X94610254Y-96649002D01*
X94605567Y-96617405D01*
X94604000Y-96585500D01*
X94604000Y-95034500D01*
X94605567Y-95002595D01*
X94610254Y-94970998D01*
X94618016Y-94940012D01*
X94628777Y-94909937D01*
X94642435Y-94881060D01*
X94658857Y-94853662D01*
X94677885Y-94828005D01*
X94699337Y-94804337D01*
X94723005Y-94782885D01*
X94748662Y-94763857D01*
X94776060Y-94747435D01*
X94804937Y-94733777D01*
X94835012Y-94723016D01*
X94865998Y-94715254D01*
X94897595Y-94710567D01*
X94929500Y-94709000D01*
X95580500Y-94709000D01*
X95612405Y-94710567D01*
X95612405Y-94710567D01*
G37*
D16*
X95255000Y-95810000D03*
D17*
X99155000Y-100460000D03*
X95155000Y-100460000D03*
D10*
G36*
X93062405Y-94710567D02*
G01*
X93094002Y-94715254D01*
X93124988Y-94723016D01*
X93155063Y-94733777D01*
X93183940Y-94747435D01*
X93211338Y-94763857D01*
X93236995Y-94782885D01*
X93260663Y-94804337D01*
X93282115Y-94828005D01*
X93301143Y-94853662D01*
X93317565Y-94881060D01*
X93331223Y-94909937D01*
X93341984Y-94940012D01*
X93349746Y-94970998D01*
X93354433Y-95002595D01*
X93356000Y-95034500D01*
X93356000Y-96585500D01*
X93354433Y-96617405D01*
X93349746Y-96649002D01*
X93341984Y-96679988D01*
X93331223Y-96710063D01*
X93317565Y-96738940D01*
X93301143Y-96766338D01*
X93282115Y-96791995D01*
X93260663Y-96815663D01*
X93236995Y-96837115D01*
X93211338Y-96856143D01*
X93183940Y-96872565D01*
X93155063Y-96886223D01*
X93124988Y-96896984D01*
X93094002Y-96904746D01*
X93062405Y-96909433D01*
X93030500Y-96911000D01*
X92379500Y-96911000D01*
X92347595Y-96909433D01*
X92315998Y-96904746D01*
X92285012Y-96896984D01*
X92254937Y-96886223D01*
X92226060Y-96872565D01*
X92198662Y-96856143D01*
X92173005Y-96837115D01*
X92149337Y-96815663D01*
X92127885Y-96791995D01*
X92108857Y-96766338D01*
X92092435Y-96738940D01*
X92078777Y-96710063D01*
X92068016Y-96679988D01*
X92060254Y-96649002D01*
X92055567Y-96617405D01*
X92054000Y-96585500D01*
X92054000Y-95034500D01*
X92055567Y-95002595D01*
X92060254Y-94970998D01*
X92068016Y-94940012D01*
X92078777Y-94909937D01*
X92092435Y-94881060D01*
X92108857Y-94853662D01*
X92127885Y-94828005D01*
X92149337Y-94804337D01*
X92173005Y-94782885D01*
X92198662Y-94763857D01*
X92226060Y-94747435D01*
X92254937Y-94733777D01*
X92285012Y-94723016D01*
X92315998Y-94715254D01*
X92347595Y-94710567D01*
X92379500Y-94709000D01*
X93030500Y-94709000D01*
X93062405Y-94710567D01*
X93062405Y-94710567D01*
G37*
D16*
X92705000Y-95810000D03*
D10*
G36*
X91612405Y-92060567D02*
G01*
X91644002Y-92065254D01*
X91674988Y-92073016D01*
X91705063Y-92083777D01*
X91733940Y-92097435D01*
X91761338Y-92113857D01*
X91786995Y-92132885D01*
X91810663Y-92154337D01*
X91832115Y-92178005D01*
X91851143Y-92203662D01*
X91867565Y-92231060D01*
X91881223Y-92259937D01*
X91891984Y-92290012D01*
X91899746Y-92320998D01*
X91904433Y-92352595D01*
X91906000Y-92384500D01*
X91906000Y-93035500D01*
X91904433Y-93067405D01*
X91899746Y-93099002D01*
X91891984Y-93129988D01*
X91881223Y-93160063D01*
X91867565Y-93188940D01*
X91851143Y-93216338D01*
X91832115Y-93241995D01*
X91810663Y-93265663D01*
X91786995Y-93287115D01*
X91761338Y-93306143D01*
X91733940Y-93322565D01*
X91705063Y-93336223D01*
X91674988Y-93346984D01*
X91644002Y-93354746D01*
X91612405Y-93359433D01*
X91580500Y-93361000D01*
X90029500Y-93361000D01*
X89997595Y-93359433D01*
X89965998Y-93354746D01*
X89935012Y-93346984D01*
X89904937Y-93336223D01*
X89876060Y-93322565D01*
X89848662Y-93306143D01*
X89823005Y-93287115D01*
X89799337Y-93265663D01*
X89777885Y-93241995D01*
X89758857Y-93216338D01*
X89742435Y-93188940D01*
X89728777Y-93160063D01*
X89718016Y-93129988D01*
X89710254Y-93099002D01*
X89705567Y-93067405D01*
X89704000Y-93035500D01*
X89704000Y-92384500D01*
X89705567Y-92352595D01*
X89710254Y-92320998D01*
X89718016Y-92290012D01*
X89728777Y-92259937D01*
X89742435Y-92231060D01*
X89758857Y-92203662D01*
X89777885Y-92178005D01*
X89799337Y-92154337D01*
X89823005Y-92132885D01*
X89848662Y-92113857D01*
X89876060Y-92097435D01*
X89904937Y-92083777D01*
X89935012Y-92073016D01*
X89965998Y-92065254D01*
X89997595Y-92060567D01*
X90029500Y-92059000D01*
X91580500Y-92059000D01*
X91612405Y-92060567D01*
X91612405Y-92060567D01*
G37*
D16*
X90805000Y-92710000D03*
D10*
G36*
X89262405Y-94710567D02*
G01*
X89294002Y-94715254D01*
X89324988Y-94723016D01*
X89355063Y-94733777D01*
X89383940Y-94747435D01*
X89411338Y-94763857D01*
X89436995Y-94782885D01*
X89460663Y-94804337D01*
X89482115Y-94828005D01*
X89501143Y-94853662D01*
X89517565Y-94881060D01*
X89531223Y-94909937D01*
X89541984Y-94940012D01*
X89549746Y-94970998D01*
X89554433Y-95002595D01*
X89556000Y-95034500D01*
X89556000Y-96585500D01*
X89554433Y-96617405D01*
X89549746Y-96649002D01*
X89541984Y-96679988D01*
X89531223Y-96710063D01*
X89517565Y-96738940D01*
X89501143Y-96766338D01*
X89482115Y-96791995D01*
X89460663Y-96815663D01*
X89436995Y-96837115D01*
X89411338Y-96856143D01*
X89383940Y-96872565D01*
X89355063Y-96886223D01*
X89324988Y-96896984D01*
X89294002Y-96904746D01*
X89262405Y-96909433D01*
X89230500Y-96911000D01*
X88579500Y-96911000D01*
X88547595Y-96909433D01*
X88515998Y-96904746D01*
X88485012Y-96896984D01*
X88454937Y-96886223D01*
X88426060Y-96872565D01*
X88398662Y-96856143D01*
X88373005Y-96837115D01*
X88349337Y-96815663D01*
X88327885Y-96791995D01*
X88308857Y-96766338D01*
X88292435Y-96738940D01*
X88278777Y-96710063D01*
X88268016Y-96679988D01*
X88260254Y-96649002D01*
X88255567Y-96617405D01*
X88254000Y-96585500D01*
X88254000Y-95034500D01*
X88255567Y-95002595D01*
X88260254Y-94970998D01*
X88268016Y-94940012D01*
X88278777Y-94909937D01*
X88292435Y-94881060D01*
X88308857Y-94853662D01*
X88327885Y-94828005D01*
X88349337Y-94804337D01*
X88373005Y-94782885D01*
X88398662Y-94763857D01*
X88426060Y-94747435D01*
X88454937Y-94733777D01*
X88485012Y-94723016D01*
X88515998Y-94715254D01*
X88547595Y-94710567D01*
X88579500Y-94709000D01*
X89230500Y-94709000D01*
X89262405Y-94710567D01*
X89262405Y-94710567D01*
G37*
D16*
X88905000Y-95810000D03*
D17*
X92805000Y-100460000D03*
X88805000Y-100460000D03*
D10*
G36*
X86712405Y-94710567D02*
G01*
X86744002Y-94715254D01*
X86774988Y-94723016D01*
X86805063Y-94733777D01*
X86833940Y-94747435D01*
X86861338Y-94763857D01*
X86886995Y-94782885D01*
X86910663Y-94804337D01*
X86932115Y-94828005D01*
X86951143Y-94853662D01*
X86967565Y-94881060D01*
X86981223Y-94909937D01*
X86991984Y-94940012D01*
X86999746Y-94970998D01*
X87004433Y-95002595D01*
X87006000Y-95034500D01*
X87006000Y-96585500D01*
X87004433Y-96617405D01*
X86999746Y-96649002D01*
X86991984Y-96679988D01*
X86981223Y-96710063D01*
X86967565Y-96738940D01*
X86951143Y-96766338D01*
X86932115Y-96791995D01*
X86910663Y-96815663D01*
X86886995Y-96837115D01*
X86861338Y-96856143D01*
X86833940Y-96872565D01*
X86805063Y-96886223D01*
X86774988Y-96896984D01*
X86744002Y-96904746D01*
X86712405Y-96909433D01*
X86680500Y-96911000D01*
X86029500Y-96911000D01*
X85997595Y-96909433D01*
X85965998Y-96904746D01*
X85935012Y-96896984D01*
X85904937Y-96886223D01*
X85876060Y-96872565D01*
X85848662Y-96856143D01*
X85823005Y-96837115D01*
X85799337Y-96815663D01*
X85777885Y-96791995D01*
X85758857Y-96766338D01*
X85742435Y-96738940D01*
X85728777Y-96710063D01*
X85718016Y-96679988D01*
X85710254Y-96649002D01*
X85705567Y-96617405D01*
X85704000Y-96585500D01*
X85704000Y-95034500D01*
X85705567Y-95002595D01*
X85710254Y-94970998D01*
X85718016Y-94940012D01*
X85728777Y-94909937D01*
X85742435Y-94881060D01*
X85758857Y-94853662D01*
X85777885Y-94828005D01*
X85799337Y-94804337D01*
X85823005Y-94782885D01*
X85848662Y-94763857D01*
X85876060Y-94747435D01*
X85904937Y-94733777D01*
X85935012Y-94723016D01*
X85965998Y-94715254D01*
X85997595Y-94710567D01*
X86029500Y-94709000D01*
X86680500Y-94709000D01*
X86712405Y-94710567D01*
X86712405Y-94710567D01*
G37*
D16*
X86355000Y-95810000D03*
D10*
G36*
X85262405Y-92060567D02*
G01*
X85294002Y-92065254D01*
X85324988Y-92073016D01*
X85355063Y-92083777D01*
X85383940Y-92097435D01*
X85411338Y-92113857D01*
X85436995Y-92132885D01*
X85460663Y-92154337D01*
X85482115Y-92178005D01*
X85501143Y-92203662D01*
X85517565Y-92231060D01*
X85531223Y-92259937D01*
X85541984Y-92290012D01*
X85549746Y-92320998D01*
X85554433Y-92352595D01*
X85556000Y-92384500D01*
X85556000Y-93035500D01*
X85554433Y-93067405D01*
X85549746Y-93099002D01*
X85541984Y-93129988D01*
X85531223Y-93160063D01*
X85517565Y-93188940D01*
X85501143Y-93216338D01*
X85482115Y-93241995D01*
X85460663Y-93265663D01*
X85436995Y-93287115D01*
X85411338Y-93306143D01*
X85383940Y-93322565D01*
X85355063Y-93336223D01*
X85324988Y-93346984D01*
X85294002Y-93354746D01*
X85262405Y-93359433D01*
X85230500Y-93361000D01*
X83679500Y-93361000D01*
X83647595Y-93359433D01*
X83615998Y-93354746D01*
X83585012Y-93346984D01*
X83554937Y-93336223D01*
X83526060Y-93322565D01*
X83498662Y-93306143D01*
X83473005Y-93287115D01*
X83449337Y-93265663D01*
X83427885Y-93241995D01*
X83408857Y-93216338D01*
X83392435Y-93188940D01*
X83378777Y-93160063D01*
X83368016Y-93129988D01*
X83360254Y-93099002D01*
X83355567Y-93067405D01*
X83354000Y-93035500D01*
X83354000Y-92384500D01*
X83355567Y-92352595D01*
X83360254Y-92320998D01*
X83368016Y-92290012D01*
X83378777Y-92259937D01*
X83392435Y-92231060D01*
X83408857Y-92203662D01*
X83427885Y-92178005D01*
X83449337Y-92154337D01*
X83473005Y-92132885D01*
X83498662Y-92113857D01*
X83526060Y-92097435D01*
X83554937Y-92083777D01*
X83585012Y-92073016D01*
X83615998Y-92065254D01*
X83647595Y-92060567D01*
X83679500Y-92059000D01*
X85230500Y-92059000D01*
X85262405Y-92060567D01*
X85262405Y-92060567D01*
G37*
D16*
X84455000Y-92710000D03*
D10*
G36*
X82912405Y-94710567D02*
G01*
X82944002Y-94715254D01*
X82974988Y-94723016D01*
X83005063Y-94733777D01*
X83033940Y-94747435D01*
X83061338Y-94763857D01*
X83086995Y-94782885D01*
X83110663Y-94804337D01*
X83132115Y-94828005D01*
X83151143Y-94853662D01*
X83167565Y-94881060D01*
X83181223Y-94909937D01*
X83191984Y-94940012D01*
X83199746Y-94970998D01*
X83204433Y-95002595D01*
X83206000Y-95034500D01*
X83206000Y-96585500D01*
X83204433Y-96617405D01*
X83199746Y-96649002D01*
X83191984Y-96679988D01*
X83181223Y-96710063D01*
X83167565Y-96738940D01*
X83151143Y-96766338D01*
X83132115Y-96791995D01*
X83110663Y-96815663D01*
X83086995Y-96837115D01*
X83061338Y-96856143D01*
X83033940Y-96872565D01*
X83005063Y-96886223D01*
X82974988Y-96896984D01*
X82944002Y-96904746D01*
X82912405Y-96909433D01*
X82880500Y-96911000D01*
X82229500Y-96911000D01*
X82197595Y-96909433D01*
X82165998Y-96904746D01*
X82135012Y-96896984D01*
X82104937Y-96886223D01*
X82076060Y-96872565D01*
X82048662Y-96856143D01*
X82023005Y-96837115D01*
X81999337Y-96815663D01*
X81977885Y-96791995D01*
X81958857Y-96766338D01*
X81942435Y-96738940D01*
X81928777Y-96710063D01*
X81918016Y-96679988D01*
X81910254Y-96649002D01*
X81905567Y-96617405D01*
X81904000Y-96585500D01*
X81904000Y-95034500D01*
X81905567Y-95002595D01*
X81910254Y-94970998D01*
X81918016Y-94940012D01*
X81928777Y-94909937D01*
X81942435Y-94881060D01*
X81958857Y-94853662D01*
X81977885Y-94828005D01*
X81999337Y-94804337D01*
X82023005Y-94782885D01*
X82048662Y-94763857D01*
X82076060Y-94747435D01*
X82104937Y-94733777D01*
X82135012Y-94723016D01*
X82165998Y-94715254D01*
X82197595Y-94710567D01*
X82229500Y-94709000D01*
X82880500Y-94709000D01*
X82912405Y-94710567D01*
X82912405Y-94710567D01*
G37*
D16*
X82555000Y-95810000D03*
D17*
X86455000Y-100460000D03*
X82455000Y-100460000D03*
D10*
G36*
X80362405Y-94710567D02*
G01*
X80394002Y-94715254D01*
X80424988Y-94723016D01*
X80455063Y-94733777D01*
X80483940Y-94747435D01*
X80511338Y-94763857D01*
X80536995Y-94782885D01*
X80560663Y-94804337D01*
X80582115Y-94828005D01*
X80601143Y-94853662D01*
X80617565Y-94881060D01*
X80631223Y-94909937D01*
X80641984Y-94940012D01*
X80649746Y-94970998D01*
X80654433Y-95002595D01*
X80656000Y-95034500D01*
X80656000Y-96585500D01*
X80654433Y-96617405D01*
X80649746Y-96649002D01*
X80641984Y-96679988D01*
X80631223Y-96710063D01*
X80617565Y-96738940D01*
X80601143Y-96766338D01*
X80582115Y-96791995D01*
X80560663Y-96815663D01*
X80536995Y-96837115D01*
X80511338Y-96856143D01*
X80483940Y-96872565D01*
X80455063Y-96886223D01*
X80424988Y-96896984D01*
X80394002Y-96904746D01*
X80362405Y-96909433D01*
X80330500Y-96911000D01*
X79679500Y-96911000D01*
X79647595Y-96909433D01*
X79615998Y-96904746D01*
X79585012Y-96896984D01*
X79554937Y-96886223D01*
X79526060Y-96872565D01*
X79498662Y-96856143D01*
X79473005Y-96837115D01*
X79449337Y-96815663D01*
X79427885Y-96791995D01*
X79408857Y-96766338D01*
X79392435Y-96738940D01*
X79378777Y-96710063D01*
X79368016Y-96679988D01*
X79360254Y-96649002D01*
X79355567Y-96617405D01*
X79354000Y-96585500D01*
X79354000Y-95034500D01*
X79355567Y-95002595D01*
X79360254Y-94970998D01*
X79368016Y-94940012D01*
X79378777Y-94909937D01*
X79392435Y-94881060D01*
X79408857Y-94853662D01*
X79427885Y-94828005D01*
X79449337Y-94804337D01*
X79473005Y-94782885D01*
X79498662Y-94763857D01*
X79526060Y-94747435D01*
X79554937Y-94733777D01*
X79585012Y-94723016D01*
X79615998Y-94715254D01*
X79647595Y-94710567D01*
X79679500Y-94709000D01*
X80330500Y-94709000D01*
X80362405Y-94710567D01*
X80362405Y-94710567D01*
G37*
D16*
X80005000Y-95810000D03*
D10*
G36*
X78912405Y-92060567D02*
G01*
X78944002Y-92065254D01*
X78974988Y-92073016D01*
X79005063Y-92083777D01*
X79033940Y-92097435D01*
X79061338Y-92113857D01*
X79086995Y-92132885D01*
X79110663Y-92154337D01*
X79132115Y-92178005D01*
X79151143Y-92203662D01*
X79167565Y-92231060D01*
X79181223Y-92259937D01*
X79191984Y-92290012D01*
X79199746Y-92320998D01*
X79204433Y-92352595D01*
X79206000Y-92384500D01*
X79206000Y-93035500D01*
X79204433Y-93067405D01*
X79199746Y-93099002D01*
X79191984Y-93129988D01*
X79181223Y-93160063D01*
X79167565Y-93188940D01*
X79151143Y-93216338D01*
X79132115Y-93241995D01*
X79110663Y-93265663D01*
X79086995Y-93287115D01*
X79061338Y-93306143D01*
X79033940Y-93322565D01*
X79005063Y-93336223D01*
X78974988Y-93346984D01*
X78944002Y-93354746D01*
X78912405Y-93359433D01*
X78880500Y-93361000D01*
X77329500Y-93361000D01*
X77297595Y-93359433D01*
X77265998Y-93354746D01*
X77235012Y-93346984D01*
X77204937Y-93336223D01*
X77176060Y-93322565D01*
X77148662Y-93306143D01*
X77123005Y-93287115D01*
X77099337Y-93265663D01*
X77077885Y-93241995D01*
X77058857Y-93216338D01*
X77042435Y-93188940D01*
X77028777Y-93160063D01*
X77018016Y-93129988D01*
X77010254Y-93099002D01*
X77005567Y-93067405D01*
X77004000Y-93035500D01*
X77004000Y-92384500D01*
X77005567Y-92352595D01*
X77010254Y-92320998D01*
X77018016Y-92290012D01*
X77028777Y-92259937D01*
X77042435Y-92231060D01*
X77058857Y-92203662D01*
X77077885Y-92178005D01*
X77099337Y-92154337D01*
X77123005Y-92132885D01*
X77148662Y-92113857D01*
X77176060Y-92097435D01*
X77204937Y-92083777D01*
X77235012Y-92073016D01*
X77265998Y-92065254D01*
X77297595Y-92060567D01*
X77329500Y-92059000D01*
X78880500Y-92059000D01*
X78912405Y-92060567D01*
X78912405Y-92060567D01*
G37*
D16*
X78105000Y-92710000D03*
D10*
G36*
X76562405Y-94710567D02*
G01*
X76594002Y-94715254D01*
X76624988Y-94723016D01*
X76655063Y-94733777D01*
X76683940Y-94747435D01*
X76711338Y-94763857D01*
X76736995Y-94782885D01*
X76760663Y-94804337D01*
X76782115Y-94828005D01*
X76801143Y-94853662D01*
X76817565Y-94881060D01*
X76831223Y-94909937D01*
X76841984Y-94940012D01*
X76849746Y-94970998D01*
X76854433Y-95002595D01*
X76856000Y-95034500D01*
X76856000Y-96585500D01*
X76854433Y-96617405D01*
X76849746Y-96649002D01*
X76841984Y-96679988D01*
X76831223Y-96710063D01*
X76817565Y-96738940D01*
X76801143Y-96766338D01*
X76782115Y-96791995D01*
X76760663Y-96815663D01*
X76736995Y-96837115D01*
X76711338Y-96856143D01*
X76683940Y-96872565D01*
X76655063Y-96886223D01*
X76624988Y-96896984D01*
X76594002Y-96904746D01*
X76562405Y-96909433D01*
X76530500Y-96911000D01*
X75879500Y-96911000D01*
X75847595Y-96909433D01*
X75815998Y-96904746D01*
X75785012Y-96896984D01*
X75754937Y-96886223D01*
X75726060Y-96872565D01*
X75698662Y-96856143D01*
X75673005Y-96837115D01*
X75649337Y-96815663D01*
X75627885Y-96791995D01*
X75608857Y-96766338D01*
X75592435Y-96738940D01*
X75578777Y-96710063D01*
X75568016Y-96679988D01*
X75560254Y-96649002D01*
X75555567Y-96617405D01*
X75554000Y-96585500D01*
X75554000Y-95034500D01*
X75555567Y-95002595D01*
X75560254Y-94970998D01*
X75568016Y-94940012D01*
X75578777Y-94909937D01*
X75592435Y-94881060D01*
X75608857Y-94853662D01*
X75627885Y-94828005D01*
X75649337Y-94804337D01*
X75673005Y-94782885D01*
X75698662Y-94763857D01*
X75726060Y-94747435D01*
X75754937Y-94733777D01*
X75785012Y-94723016D01*
X75815998Y-94715254D01*
X75847595Y-94710567D01*
X75879500Y-94709000D01*
X76530500Y-94709000D01*
X76562405Y-94710567D01*
X76562405Y-94710567D01*
G37*
D16*
X76205000Y-95810000D03*
D17*
X80105000Y-100460000D03*
X76105000Y-100460000D03*
D10*
G36*
X74012405Y-94710567D02*
G01*
X74044002Y-94715254D01*
X74074988Y-94723016D01*
X74105063Y-94733777D01*
X74133940Y-94747435D01*
X74161338Y-94763857D01*
X74186995Y-94782885D01*
X74210663Y-94804337D01*
X74232115Y-94828005D01*
X74251143Y-94853662D01*
X74267565Y-94881060D01*
X74281223Y-94909937D01*
X74291984Y-94940012D01*
X74299746Y-94970998D01*
X74304433Y-95002595D01*
X74306000Y-95034500D01*
X74306000Y-96585500D01*
X74304433Y-96617405D01*
X74299746Y-96649002D01*
X74291984Y-96679988D01*
X74281223Y-96710063D01*
X74267565Y-96738940D01*
X74251143Y-96766338D01*
X74232115Y-96791995D01*
X74210663Y-96815663D01*
X74186995Y-96837115D01*
X74161338Y-96856143D01*
X74133940Y-96872565D01*
X74105063Y-96886223D01*
X74074988Y-96896984D01*
X74044002Y-96904746D01*
X74012405Y-96909433D01*
X73980500Y-96911000D01*
X73329500Y-96911000D01*
X73297595Y-96909433D01*
X73265998Y-96904746D01*
X73235012Y-96896984D01*
X73204937Y-96886223D01*
X73176060Y-96872565D01*
X73148662Y-96856143D01*
X73123005Y-96837115D01*
X73099337Y-96815663D01*
X73077885Y-96791995D01*
X73058857Y-96766338D01*
X73042435Y-96738940D01*
X73028777Y-96710063D01*
X73018016Y-96679988D01*
X73010254Y-96649002D01*
X73005567Y-96617405D01*
X73004000Y-96585500D01*
X73004000Y-95034500D01*
X73005567Y-95002595D01*
X73010254Y-94970998D01*
X73018016Y-94940012D01*
X73028777Y-94909937D01*
X73042435Y-94881060D01*
X73058857Y-94853662D01*
X73077885Y-94828005D01*
X73099337Y-94804337D01*
X73123005Y-94782885D01*
X73148662Y-94763857D01*
X73176060Y-94747435D01*
X73204937Y-94733777D01*
X73235012Y-94723016D01*
X73265998Y-94715254D01*
X73297595Y-94710567D01*
X73329500Y-94709000D01*
X73980500Y-94709000D01*
X74012405Y-94710567D01*
X74012405Y-94710567D01*
G37*
D16*
X73655000Y-95810000D03*
D10*
G36*
X72562405Y-92060567D02*
G01*
X72594002Y-92065254D01*
X72624988Y-92073016D01*
X72655063Y-92083777D01*
X72683940Y-92097435D01*
X72711338Y-92113857D01*
X72736995Y-92132885D01*
X72760663Y-92154337D01*
X72782115Y-92178005D01*
X72801143Y-92203662D01*
X72817565Y-92231060D01*
X72831223Y-92259937D01*
X72841984Y-92290012D01*
X72849746Y-92320998D01*
X72854433Y-92352595D01*
X72856000Y-92384500D01*
X72856000Y-93035500D01*
X72854433Y-93067405D01*
X72849746Y-93099002D01*
X72841984Y-93129988D01*
X72831223Y-93160063D01*
X72817565Y-93188940D01*
X72801143Y-93216338D01*
X72782115Y-93241995D01*
X72760663Y-93265663D01*
X72736995Y-93287115D01*
X72711338Y-93306143D01*
X72683940Y-93322565D01*
X72655063Y-93336223D01*
X72624988Y-93346984D01*
X72594002Y-93354746D01*
X72562405Y-93359433D01*
X72530500Y-93361000D01*
X70979500Y-93361000D01*
X70947595Y-93359433D01*
X70915998Y-93354746D01*
X70885012Y-93346984D01*
X70854937Y-93336223D01*
X70826060Y-93322565D01*
X70798662Y-93306143D01*
X70773005Y-93287115D01*
X70749337Y-93265663D01*
X70727885Y-93241995D01*
X70708857Y-93216338D01*
X70692435Y-93188940D01*
X70678777Y-93160063D01*
X70668016Y-93129988D01*
X70660254Y-93099002D01*
X70655567Y-93067405D01*
X70654000Y-93035500D01*
X70654000Y-92384500D01*
X70655567Y-92352595D01*
X70660254Y-92320998D01*
X70668016Y-92290012D01*
X70678777Y-92259937D01*
X70692435Y-92231060D01*
X70708857Y-92203662D01*
X70727885Y-92178005D01*
X70749337Y-92154337D01*
X70773005Y-92132885D01*
X70798662Y-92113857D01*
X70826060Y-92097435D01*
X70854937Y-92083777D01*
X70885012Y-92073016D01*
X70915998Y-92065254D01*
X70947595Y-92060567D01*
X70979500Y-92059000D01*
X72530500Y-92059000D01*
X72562405Y-92060567D01*
X72562405Y-92060567D01*
G37*
D16*
X71755000Y-92710000D03*
D10*
G36*
X70212405Y-94710567D02*
G01*
X70244002Y-94715254D01*
X70274988Y-94723016D01*
X70305063Y-94733777D01*
X70333940Y-94747435D01*
X70361338Y-94763857D01*
X70386995Y-94782885D01*
X70410663Y-94804337D01*
X70432115Y-94828005D01*
X70451143Y-94853662D01*
X70467565Y-94881060D01*
X70481223Y-94909937D01*
X70491984Y-94940012D01*
X70499746Y-94970998D01*
X70504433Y-95002595D01*
X70506000Y-95034500D01*
X70506000Y-96585500D01*
X70504433Y-96617405D01*
X70499746Y-96649002D01*
X70491984Y-96679988D01*
X70481223Y-96710063D01*
X70467565Y-96738940D01*
X70451143Y-96766338D01*
X70432115Y-96791995D01*
X70410663Y-96815663D01*
X70386995Y-96837115D01*
X70361338Y-96856143D01*
X70333940Y-96872565D01*
X70305063Y-96886223D01*
X70274988Y-96896984D01*
X70244002Y-96904746D01*
X70212405Y-96909433D01*
X70180500Y-96911000D01*
X69529500Y-96911000D01*
X69497595Y-96909433D01*
X69465998Y-96904746D01*
X69435012Y-96896984D01*
X69404937Y-96886223D01*
X69376060Y-96872565D01*
X69348662Y-96856143D01*
X69323005Y-96837115D01*
X69299337Y-96815663D01*
X69277885Y-96791995D01*
X69258857Y-96766338D01*
X69242435Y-96738940D01*
X69228777Y-96710063D01*
X69218016Y-96679988D01*
X69210254Y-96649002D01*
X69205567Y-96617405D01*
X69204000Y-96585500D01*
X69204000Y-95034500D01*
X69205567Y-95002595D01*
X69210254Y-94970998D01*
X69218016Y-94940012D01*
X69228777Y-94909937D01*
X69242435Y-94881060D01*
X69258857Y-94853662D01*
X69277885Y-94828005D01*
X69299337Y-94804337D01*
X69323005Y-94782885D01*
X69348662Y-94763857D01*
X69376060Y-94747435D01*
X69404937Y-94733777D01*
X69435012Y-94723016D01*
X69465998Y-94715254D01*
X69497595Y-94710567D01*
X69529500Y-94709000D01*
X70180500Y-94709000D01*
X70212405Y-94710567D01*
X70212405Y-94710567D01*
G37*
D16*
X69855000Y-95810000D03*
D17*
X73755000Y-100460000D03*
X69755000Y-100460000D03*
D10*
G36*
X67725905Y-94710567D02*
G01*
X67757502Y-94715254D01*
X67788488Y-94723016D01*
X67818563Y-94733777D01*
X67847440Y-94747435D01*
X67874838Y-94763857D01*
X67900495Y-94782885D01*
X67924163Y-94804337D01*
X67945615Y-94828005D01*
X67964643Y-94853662D01*
X67981065Y-94881060D01*
X67994723Y-94909937D01*
X68005484Y-94940012D01*
X68013246Y-94970998D01*
X68017933Y-95002595D01*
X68019500Y-95034500D01*
X68019500Y-96585500D01*
X68017933Y-96617405D01*
X68013246Y-96649002D01*
X68005484Y-96679988D01*
X67994723Y-96710063D01*
X67981065Y-96738940D01*
X67964643Y-96766338D01*
X67945615Y-96791995D01*
X67924163Y-96815663D01*
X67900495Y-96837115D01*
X67874838Y-96856143D01*
X67847440Y-96872565D01*
X67818563Y-96886223D01*
X67788488Y-96896984D01*
X67757502Y-96904746D01*
X67725905Y-96909433D01*
X67694000Y-96911000D01*
X67043000Y-96911000D01*
X67011095Y-96909433D01*
X66979498Y-96904746D01*
X66948512Y-96896984D01*
X66918437Y-96886223D01*
X66889560Y-96872565D01*
X66862162Y-96856143D01*
X66836505Y-96837115D01*
X66812837Y-96815663D01*
X66791385Y-96791995D01*
X66772357Y-96766338D01*
X66755935Y-96738940D01*
X66742277Y-96710063D01*
X66731516Y-96679988D01*
X66723754Y-96649002D01*
X66719067Y-96617405D01*
X66717500Y-96585500D01*
X66717500Y-95034500D01*
X66719067Y-95002595D01*
X66723754Y-94970998D01*
X66731516Y-94940012D01*
X66742277Y-94909937D01*
X66755935Y-94881060D01*
X66772357Y-94853662D01*
X66791385Y-94828005D01*
X66812837Y-94804337D01*
X66836505Y-94782885D01*
X66862162Y-94763857D01*
X66889560Y-94747435D01*
X66918437Y-94733777D01*
X66948512Y-94723016D01*
X66979498Y-94715254D01*
X67011095Y-94710567D01*
X67043000Y-94709000D01*
X67694000Y-94709000D01*
X67725905Y-94710567D01*
X67725905Y-94710567D01*
G37*
D16*
X67368500Y-95810000D03*
D10*
G36*
X66275905Y-92060567D02*
G01*
X66307502Y-92065254D01*
X66338488Y-92073016D01*
X66368563Y-92083777D01*
X66397440Y-92097435D01*
X66424838Y-92113857D01*
X66450495Y-92132885D01*
X66474163Y-92154337D01*
X66495615Y-92178005D01*
X66514643Y-92203662D01*
X66531065Y-92231060D01*
X66544723Y-92259937D01*
X66555484Y-92290012D01*
X66563246Y-92320998D01*
X66567933Y-92352595D01*
X66569500Y-92384500D01*
X66569500Y-93035500D01*
X66567933Y-93067405D01*
X66563246Y-93099002D01*
X66555484Y-93129988D01*
X66544723Y-93160063D01*
X66531065Y-93188940D01*
X66514643Y-93216338D01*
X66495615Y-93241995D01*
X66474163Y-93265663D01*
X66450495Y-93287115D01*
X66424838Y-93306143D01*
X66397440Y-93322565D01*
X66368563Y-93336223D01*
X66338488Y-93346984D01*
X66307502Y-93354746D01*
X66275905Y-93359433D01*
X66244000Y-93361000D01*
X64693000Y-93361000D01*
X64661095Y-93359433D01*
X64629498Y-93354746D01*
X64598512Y-93346984D01*
X64568437Y-93336223D01*
X64539560Y-93322565D01*
X64512162Y-93306143D01*
X64486505Y-93287115D01*
X64462837Y-93265663D01*
X64441385Y-93241995D01*
X64422357Y-93216338D01*
X64405935Y-93188940D01*
X64392277Y-93160063D01*
X64381516Y-93129988D01*
X64373754Y-93099002D01*
X64369067Y-93067405D01*
X64367500Y-93035500D01*
X64367500Y-92384500D01*
X64369067Y-92352595D01*
X64373754Y-92320998D01*
X64381516Y-92290012D01*
X64392277Y-92259937D01*
X64405935Y-92231060D01*
X64422357Y-92203662D01*
X64441385Y-92178005D01*
X64462837Y-92154337D01*
X64486505Y-92132885D01*
X64512162Y-92113857D01*
X64539560Y-92097435D01*
X64568437Y-92083777D01*
X64598512Y-92073016D01*
X64629498Y-92065254D01*
X64661095Y-92060567D01*
X64693000Y-92059000D01*
X66244000Y-92059000D01*
X66275905Y-92060567D01*
X66275905Y-92060567D01*
G37*
D16*
X65468500Y-92710000D03*
D10*
G36*
X63925905Y-94710567D02*
G01*
X63957502Y-94715254D01*
X63988488Y-94723016D01*
X64018563Y-94733777D01*
X64047440Y-94747435D01*
X64074838Y-94763857D01*
X64100495Y-94782885D01*
X64124163Y-94804337D01*
X64145615Y-94828005D01*
X64164643Y-94853662D01*
X64181065Y-94881060D01*
X64194723Y-94909937D01*
X64205484Y-94940012D01*
X64213246Y-94970998D01*
X64217933Y-95002595D01*
X64219500Y-95034500D01*
X64219500Y-96585500D01*
X64217933Y-96617405D01*
X64213246Y-96649002D01*
X64205484Y-96679988D01*
X64194723Y-96710063D01*
X64181065Y-96738940D01*
X64164643Y-96766338D01*
X64145615Y-96791995D01*
X64124163Y-96815663D01*
X64100495Y-96837115D01*
X64074838Y-96856143D01*
X64047440Y-96872565D01*
X64018563Y-96886223D01*
X63988488Y-96896984D01*
X63957502Y-96904746D01*
X63925905Y-96909433D01*
X63894000Y-96911000D01*
X63243000Y-96911000D01*
X63211095Y-96909433D01*
X63179498Y-96904746D01*
X63148512Y-96896984D01*
X63118437Y-96886223D01*
X63089560Y-96872565D01*
X63062162Y-96856143D01*
X63036505Y-96837115D01*
X63012837Y-96815663D01*
X62991385Y-96791995D01*
X62972357Y-96766338D01*
X62955935Y-96738940D01*
X62942277Y-96710063D01*
X62931516Y-96679988D01*
X62923754Y-96649002D01*
X62919067Y-96617405D01*
X62917500Y-96585500D01*
X62917500Y-95034500D01*
X62919067Y-95002595D01*
X62923754Y-94970998D01*
X62931516Y-94940012D01*
X62942277Y-94909937D01*
X62955935Y-94881060D01*
X62972357Y-94853662D01*
X62991385Y-94828005D01*
X63012837Y-94804337D01*
X63036505Y-94782885D01*
X63062162Y-94763857D01*
X63089560Y-94747435D01*
X63118437Y-94733777D01*
X63148512Y-94723016D01*
X63179498Y-94715254D01*
X63211095Y-94710567D01*
X63243000Y-94709000D01*
X63894000Y-94709000D01*
X63925905Y-94710567D01*
X63925905Y-94710567D01*
G37*
D16*
X63568500Y-95810000D03*
D17*
X67468500Y-100460000D03*
X63468500Y-100460000D03*
D18*
X67945000Y-79375000D03*
X85725000Y-86995000D03*
X70485000Y-79375000D03*
X83185000Y-86995000D03*
X73025000Y-79375000D03*
X80645000Y-86995000D03*
X75565000Y-79375000D03*
X78105000Y-86995000D03*
X78105000Y-79375000D03*
X75565000Y-86995000D03*
X80645000Y-79375000D03*
X73025000Y-86995000D03*
X83185000Y-79375000D03*
X70485000Y-86995000D03*
X85725000Y-79375000D03*
D19*
X67945000Y-86995000D03*
D20*
X111895000Y-47825000D03*
X111895000Y-72825000D03*
X59575000Y-47825000D03*
X59575000Y-72825000D03*
D21*
X103505000Y-46355000D03*
X67945000Y-46355000D03*
X70485000Y-46355000D03*
X73025000Y-46355000D03*
X75565000Y-46355000D03*
X78105000Y-46355000D03*
X80645000Y-46355000D03*
X85725000Y-46355000D03*
X83185000Y-46355000D03*
X90805000Y-46355000D03*
X88265000Y-46355000D03*
X93345000Y-46355000D03*
X95885000Y-46355000D03*
X100965000Y-46355000D03*
X98425000Y-46355000D03*
X103505000Y-74295000D03*
X98425000Y-74295000D03*
X100965000Y-74295000D03*
X95885000Y-74295000D03*
X93345000Y-74295000D03*
X88265000Y-74295000D03*
X90805000Y-74295000D03*
X83185000Y-74295000D03*
X85725000Y-74295000D03*
X80645000Y-74295000D03*
X78105000Y-74295000D03*
X75565000Y-74295000D03*
X73025000Y-74295000D03*
X70485000Y-74295000D03*
X67945000Y-74295000D03*
D22*
X41275000Y-67310000D03*
X36830000Y-67310000D03*
D23*
X57130000Y-97649500D03*
D24*
X55880000Y-100139500D03*
X51380000Y-100139500D03*
D23*
X50120000Y-97649500D03*
D18*
X53975000Y-83820000D03*
D25*
X53975000Y-93980000D03*
D18*
X49530000Y-93980000D03*
D25*
X49530000Y-83820000D03*
D18*
X46355000Y-93980000D03*
D25*
X46355000Y-83820000D03*
D18*
X91440000Y-80010000D03*
D25*
X101600000Y-80010000D03*
D18*
X91440000Y-83185000D03*
D25*
X101600000Y-83185000D03*
D18*
X17780000Y-17780000D03*
D25*
X27940000Y-17780000D03*
D26*
X31115000Y-60388500D03*
X41275000Y-60388500D03*
X51435000Y-60388500D03*
X46355000Y-40068500D03*
X51435000Y-40068500D03*
D27*
X121285000Y-69215000D03*
X121285000Y-71755000D03*
X121285000Y-74295000D03*
X121285000Y-76835000D03*
D28*
X121285000Y-79375000D03*
D29*
X66040000Y-33147000D03*
X73040000Y-33147000D03*
X100090000Y-29307000D03*
X91490000Y-29307000D03*
X51440000Y-23147000D03*
X109340000Y-23147000D03*
D30*
X102890000Y-23147000D03*
D20*
X57890000Y-23147000D03*
D31*
X81290000Y-26147000D03*
D32*
X22225000Y-34470000D03*
D29*
X22225000Y-23220000D03*
X22225000Y-45720000D03*
D26*
X43855000Y-98869500D03*
D33*
X46355000Y-98869500D03*
D26*
X38140000Y-98869500D03*
D33*
X40640000Y-98869500D03*
D26*
X36790000Y-19050000D03*
D33*
X34290000Y-19050000D03*
D25*
X64770000Y-81875000D03*
X64770000Y-79375000D03*
D31*
X36000000Y-29000000D03*
X36000000Y-89000000D03*
X116000000Y-29000000D03*
X116000000Y-89000000D03*
M02*
