G04 #@! TF.GenerationSoftware,KiCad,Pcbnew,(5.1.4)-1*
G04 #@! TF.CreationDate,2019-09-11T00:02:30+02:00*
G04 #@! TF.ProjectId,BBMini,42424d69-6e69-42e6-9b69-6361645f7063,rev?*
G04 #@! TF.SameCoordinates,Original*
G04 #@! TF.FileFunction,Soldermask,Bot*
G04 #@! TF.FilePolarity,Negative*
%FSLAX46Y46*%
G04 Gerber Fmt 4.6, Leading zero omitted, Abs format (unit mm)*
G04 Created by KiCad (PCBNEW (5.1.4)-1) date 2019-09-11 00:02:30*
%MOMM*%
%LPD*%
G04 APERTURE LIST*
%ADD10C,0.100000*%
%ADD11C,0.150000*%
%ADD12C,0.300000*%
%ADD13C,0.400000*%
G04 APERTURE END LIST*
D10*
D11*
X177002200Y-166007200D02*
X177002200Y-198007200D01*
X285002200Y-198007200D01*
X285002200Y-166007200D01*
X177002200Y-166007200D01*
D10*
D11*
X10000000Y-10000000D02*
X10000000Y-200007200D01*
X287002200Y-200007200D01*
X287002200Y-10000000D01*
X10000000Y-10000000D01*
D10*
D11*
X12000000Y-12000000D02*
X12000000Y-198007200D01*
X285002200Y-198007200D01*
X285002200Y-12000000D01*
X12000000Y-12000000D01*
D10*
D11*
X60000000Y-12000000D02*
X60000000Y-10000000D01*
D10*
D11*
X110000000Y-12000000D02*
X110000000Y-10000000D01*
D10*
D11*
X160000000Y-12000000D02*
X160000000Y-10000000D01*
D10*
D11*
X210000000Y-12000000D02*
X210000000Y-10000000D01*
D10*
D11*
X260000000Y-12000000D02*
X260000000Y-10000000D01*
D10*
D11*
X36065476Y-11588095D02*
X35322619Y-11588095D01*
X35694047Y-11588095D02*
X35694047Y-10288095D01*
X35570238Y-10473809D01*
X35446428Y-10597619D01*
X35322619Y-10659523D01*
D10*
D11*
X85322619Y-10411904D02*
X85384523Y-10350000D01*
X85508333Y-10288095D01*
X85817857Y-10288095D01*
X85941666Y-10350000D01*
X86003571Y-10411904D01*
X86065476Y-10535714D01*
X86065476Y-10659523D01*
X86003571Y-10845238D01*
X85260714Y-11588095D01*
X86065476Y-11588095D01*
D10*
D11*
X135260714Y-10288095D02*
X136065476Y-10288095D01*
X135632142Y-10783333D01*
X135817857Y-10783333D01*
X135941666Y-10845238D01*
X136003571Y-10907142D01*
X136065476Y-11030952D01*
X136065476Y-11340476D01*
X136003571Y-11464285D01*
X135941666Y-11526190D01*
X135817857Y-11588095D01*
X135446428Y-11588095D01*
X135322619Y-11526190D01*
X135260714Y-11464285D01*
D10*
D11*
X185941666Y-10721428D02*
X185941666Y-11588095D01*
X185632142Y-10226190D02*
X185322619Y-11154761D01*
X186127380Y-11154761D01*
D10*
D11*
X236003571Y-10288095D02*
X235384523Y-10288095D01*
X235322619Y-10907142D01*
X235384523Y-10845238D01*
X235508333Y-10783333D01*
X235817857Y-10783333D01*
X235941666Y-10845238D01*
X236003571Y-10907142D01*
X236065476Y-11030952D01*
X236065476Y-11340476D01*
X236003571Y-11464285D01*
X235941666Y-11526190D01*
X235817857Y-11588095D01*
X235508333Y-11588095D01*
X235384523Y-11526190D01*
X235322619Y-11464285D01*
D10*
D11*
X285941666Y-10288095D02*
X285694047Y-10288095D01*
X285570238Y-10350000D01*
X285508333Y-10411904D01*
X285384523Y-10597619D01*
X285322619Y-10845238D01*
X285322619Y-11340476D01*
X285384523Y-11464285D01*
X285446428Y-11526190D01*
X285570238Y-11588095D01*
X285817857Y-11588095D01*
X285941666Y-11526190D01*
X286003571Y-11464285D01*
X286065476Y-11340476D01*
X286065476Y-11030952D01*
X286003571Y-10907142D01*
X285941666Y-10845238D01*
X285817857Y-10783333D01*
X285570238Y-10783333D01*
X285446428Y-10845238D01*
X285384523Y-10907142D01*
X285322619Y-11030952D01*
D10*
D11*
X60000000Y-198007200D02*
X60000000Y-200007200D01*
D10*
D11*
X110000000Y-198007200D02*
X110000000Y-200007200D01*
D10*
D11*
X160000000Y-198007200D02*
X160000000Y-200007200D01*
D10*
D11*
X210000000Y-198007200D02*
X210000000Y-200007200D01*
D10*
D11*
X260000000Y-198007200D02*
X260000000Y-200007200D01*
D10*
D11*
X36065476Y-199595295D02*
X35322619Y-199595295D01*
X35694047Y-199595295D02*
X35694047Y-198295295D01*
X35570238Y-198481009D01*
X35446428Y-198604819D01*
X35322619Y-198666723D01*
D10*
D11*
X85322619Y-198419104D02*
X85384523Y-198357200D01*
X85508333Y-198295295D01*
X85817857Y-198295295D01*
X85941666Y-198357200D01*
X86003571Y-198419104D01*
X86065476Y-198542914D01*
X86065476Y-198666723D01*
X86003571Y-198852438D01*
X85260714Y-199595295D01*
X86065476Y-199595295D01*
D10*
D11*
X135260714Y-198295295D02*
X136065476Y-198295295D01*
X135632142Y-198790533D01*
X135817857Y-198790533D01*
X135941666Y-198852438D01*
X136003571Y-198914342D01*
X136065476Y-199038152D01*
X136065476Y-199347676D01*
X136003571Y-199471485D01*
X135941666Y-199533390D01*
X135817857Y-199595295D01*
X135446428Y-199595295D01*
X135322619Y-199533390D01*
X135260714Y-199471485D01*
D10*
D11*
X185941666Y-198728628D02*
X185941666Y-199595295D01*
X185632142Y-198233390D02*
X185322619Y-199161961D01*
X186127380Y-199161961D01*
D10*
D11*
X236003571Y-198295295D02*
X235384523Y-198295295D01*
X235322619Y-198914342D01*
X235384523Y-198852438D01*
X235508333Y-198790533D01*
X235817857Y-198790533D01*
X235941666Y-198852438D01*
X236003571Y-198914342D01*
X236065476Y-199038152D01*
X236065476Y-199347676D01*
X236003571Y-199471485D01*
X235941666Y-199533390D01*
X235817857Y-199595295D01*
X235508333Y-199595295D01*
X235384523Y-199533390D01*
X235322619Y-199471485D01*
D10*
D11*
X285941666Y-198295295D02*
X285694047Y-198295295D01*
X285570238Y-198357200D01*
X285508333Y-198419104D01*
X285384523Y-198604819D01*
X285322619Y-198852438D01*
X285322619Y-199347676D01*
X285384523Y-199471485D01*
X285446428Y-199533390D01*
X285570238Y-199595295D01*
X285817857Y-199595295D01*
X285941666Y-199533390D01*
X286003571Y-199471485D01*
X286065476Y-199347676D01*
X286065476Y-199038152D01*
X286003571Y-198914342D01*
X285941666Y-198852438D01*
X285817857Y-198790533D01*
X285570238Y-198790533D01*
X285446428Y-198852438D01*
X285384523Y-198914342D01*
X285322619Y-199038152D01*
D10*
D11*
X10000000Y-60000000D02*
X12000000Y-60000000D01*
D10*
D11*
X10000000Y-110000000D02*
X12000000Y-110000000D01*
D10*
D11*
X10000000Y-160000000D02*
X12000000Y-160000000D01*
D10*
D11*
X10690476Y-35216666D02*
X11309523Y-35216666D01*
X10566666Y-35588095D02*
X11000000Y-34288095D01*
X11433333Y-35588095D01*
D10*
D11*
X11092857Y-84907142D02*
X11278571Y-84969047D01*
X11340476Y-85030952D01*
X11402380Y-85154761D01*
X11402380Y-85340476D01*
X11340476Y-85464285D01*
X11278571Y-85526190D01*
X11154761Y-85588095D01*
X10659523Y-85588095D01*
X10659523Y-84288095D01*
X11092857Y-84288095D01*
X11216666Y-84350000D01*
X11278571Y-84411904D01*
X11340476Y-84535714D01*
X11340476Y-84659523D01*
X11278571Y-84783333D01*
X11216666Y-84845238D01*
X11092857Y-84907142D01*
X10659523Y-84907142D01*
D10*
D11*
X11402380Y-135464285D02*
X11340476Y-135526190D01*
X11154761Y-135588095D01*
X11030952Y-135588095D01*
X10845238Y-135526190D01*
X10721428Y-135402380D01*
X10659523Y-135278571D01*
X10597619Y-135030952D01*
X10597619Y-134845238D01*
X10659523Y-134597619D01*
X10721428Y-134473809D01*
X10845238Y-134350000D01*
X11030952Y-134288095D01*
X11154761Y-134288095D01*
X11340476Y-134350000D01*
X11402380Y-134411904D01*
D10*
D11*
X10659523Y-185588095D02*
X10659523Y-184288095D01*
X10969047Y-184288095D01*
X11154761Y-184350000D01*
X11278571Y-184473809D01*
X11340476Y-184597619D01*
X11402380Y-184845238D01*
X11402380Y-185030952D01*
X11340476Y-185278571D01*
X11278571Y-185402380D01*
X11154761Y-185526190D01*
X10969047Y-185588095D01*
X10659523Y-185588095D01*
D10*
D11*
X287002200Y-60000000D02*
X285002200Y-60000000D01*
D10*
D11*
X287002200Y-110000000D02*
X285002200Y-110000000D01*
D10*
D11*
X287002200Y-160000000D02*
X285002200Y-160000000D01*
D10*
D11*
X285692676Y-35216666D02*
X286311723Y-35216666D01*
X285568866Y-35588095D02*
X286002200Y-34288095D01*
X286435533Y-35588095D01*
D10*
D11*
X286095057Y-84907142D02*
X286280771Y-84969047D01*
X286342676Y-85030952D01*
X286404580Y-85154761D01*
X286404580Y-85340476D01*
X286342676Y-85464285D01*
X286280771Y-85526190D01*
X286156961Y-85588095D01*
X285661723Y-85588095D01*
X285661723Y-84288095D01*
X286095057Y-84288095D01*
X286218866Y-84350000D01*
X286280771Y-84411904D01*
X286342676Y-84535714D01*
X286342676Y-84659523D01*
X286280771Y-84783333D01*
X286218866Y-84845238D01*
X286095057Y-84907142D01*
X285661723Y-84907142D01*
D10*
D11*
X286404580Y-135464285D02*
X286342676Y-135526190D01*
X286156961Y-135588095D01*
X286033152Y-135588095D01*
X285847438Y-135526190D01*
X285723628Y-135402380D01*
X285661723Y-135278571D01*
X285599819Y-135030952D01*
X285599819Y-134845238D01*
X285661723Y-134597619D01*
X285723628Y-134473809D01*
X285847438Y-134350000D01*
X286033152Y-134288095D01*
X286156961Y-134288095D01*
X286342676Y-134350000D01*
X286404580Y-134411904D01*
D10*
D11*
X285661723Y-185588095D02*
X285661723Y-184288095D01*
X285971247Y-184288095D01*
X286156961Y-184350000D01*
X286280771Y-184473809D01*
X286342676Y-184597619D01*
X286404580Y-184845238D01*
X286404580Y-185030952D01*
X286342676Y-185278571D01*
X286280771Y-185402380D01*
X286156961Y-185526190D01*
X285971247Y-185588095D01*
X285661723Y-185588095D01*
D10*
D11*
X200434342Y-193785771D02*
X200434342Y-192285771D01*
X200791485Y-192285771D01*
X201005771Y-192357200D01*
X201148628Y-192500057D01*
X201220057Y-192642914D01*
X201291485Y-192928628D01*
X201291485Y-193142914D01*
X201220057Y-193428628D01*
X201148628Y-193571485D01*
X201005771Y-193714342D01*
X200791485Y-193785771D01*
X200434342Y-193785771D01*
X202577200Y-193785771D02*
X202577200Y-193000057D01*
X202505771Y-192857200D01*
X202362914Y-192785771D01*
X202077200Y-192785771D01*
X201934342Y-192857200D01*
X202577200Y-193714342D02*
X202434342Y-193785771D01*
X202077200Y-193785771D01*
X201934342Y-193714342D01*
X201862914Y-193571485D01*
X201862914Y-193428628D01*
X201934342Y-193285771D01*
X202077200Y-193214342D01*
X202434342Y-193214342D01*
X202577200Y-193142914D01*
X203077200Y-192785771D02*
X203648628Y-192785771D01*
X203291485Y-192285771D02*
X203291485Y-193571485D01*
X203362914Y-193714342D01*
X203505771Y-193785771D01*
X203648628Y-193785771D01*
X204720057Y-193714342D02*
X204577200Y-193785771D01*
X204291485Y-193785771D01*
X204148628Y-193714342D01*
X204077200Y-193571485D01*
X204077200Y-193000057D01*
X204148628Y-192857200D01*
X204291485Y-192785771D01*
X204577200Y-192785771D01*
X204720057Y-192857200D01*
X204791485Y-193000057D01*
X204791485Y-193142914D01*
X204077200Y-193285771D01*
X205434342Y-193642914D02*
X205505771Y-193714342D01*
X205434342Y-193785771D01*
X205362914Y-193714342D01*
X205434342Y-193642914D01*
X205434342Y-193785771D01*
X205434342Y-192857200D02*
X205505771Y-192928628D01*
X205434342Y-193000057D01*
X205362914Y-192928628D01*
X205434342Y-192857200D01*
X205434342Y-193000057D01*
D10*
D11*
X177002200Y-194507200D02*
X285002200Y-194507200D01*
D10*
D11*
X178434342Y-196585771D02*
X178434342Y-195085771D01*
X179291485Y-196585771D02*
X178648628Y-195728628D01*
X179291485Y-195085771D02*
X178434342Y-195942914D01*
X179934342Y-196585771D02*
X179934342Y-195585771D01*
X179934342Y-195085771D02*
X179862914Y-195157200D01*
X179934342Y-195228628D01*
X180005771Y-195157200D01*
X179934342Y-195085771D01*
X179934342Y-195228628D01*
X181505771Y-196442914D02*
X181434342Y-196514342D01*
X181220057Y-196585771D01*
X181077200Y-196585771D01*
X180862914Y-196514342D01*
X180720057Y-196371485D01*
X180648628Y-196228628D01*
X180577200Y-195942914D01*
X180577200Y-195728628D01*
X180648628Y-195442914D01*
X180720057Y-195300057D01*
X180862914Y-195157200D01*
X181077200Y-195085771D01*
X181220057Y-195085771D01*
X181434342Y-195157200D01*
X181505771Y-195228628D01*
X182791485Y-196585771D02*
X182791485Y-195800057D01*
X182720057Y-195657200D01*
X182577200Y-195585771D01*
X182291485Y-195585771D01*
X182148628Y-195657200D01*
X182791485Y-196514342D02*
X182648628Y-196585771D01*
X182291485Y-196585771D01*
X182148628Y-196514342D01*
X182077200Y-196371485D01*
X182077200Y-196228628D01*
X182148628Y-196085771D01*
X182291485Y-196014342D01*
X182648628Y-196014342D01*
X182791485Y-195942914D01*
X184148628Y-196585771D02*
X184148628Y-195085771D01*
X184148628Y-196514342D02*
X184005771Y-196585771D01*
X183720057Y-196585771D01*
X183577200Y-196514342D01*
X183505771Y-196442914D01*
X183434342Y-196300057D01*
X183434342Y-195871485D01*
X183505771Y-195728628D01*
X183577200Y-195657200D01*
X183720057Y-195585771D01*
X184005771Y-195585771D01*
X184148628Y-195657200D01*
X186005771Y-195800057D02*
X186505771Y-195800057D01*
X186720057Y-196585771D02*
X186005771Y-196585771D01*
X186005771Y-195085771D01*
X186720057Y-195085771D01*
X187362914Y-196442914D02*
X187434342Y-196514342D01*
X187362914Y-196585771D01*
X187291485Y-196514342D01*
X187362914Y-196442914D01*
X187362914Y-196585771D01*
X188077200Y-196585771D02*
X188077200Y-195085771D01*
X188434342Y-195085771D01*
X188648628Y-195157200D01*
X188791485Y-195300057D01*
X188862914Y-195442914D01*
X188934342Y-195728628D01*
X188934342Y-195942914D01*
X188862914Y-196228628D01*
X188791485Y-196371485D01*
X188648628Y-196514342D01*
X188434342Y-196585771D01*
X188077200Y-196585771D01*
X189577200Y-196442914D02*
X189648628Y-196514342D01*
X189577200Y-196585771D01*
X189505771Y-196514342D01*
X189577200Y-196442914D01*
X189577200Y-196585771D01*
X190220057Y-196157200D02*
X190934342Y-196157200D01*
X190077200Y-196585771D02*
X190577200Y-195085771D01*
X191077200Y-196585771D01*
X191577200Y-196442914D02*
X191648628Y-196514342D01*
X191577200Y-196585771D01*
X191505771Y-196514342D01*
X191577200Y-196442914D01*
X191577200Y-196585771D01*
X194577200Y-196585771D02*
X194577200Y-195085771D01*
X194720057Y-196014342D02*
X195148628Y-196585771D01*
X195148628Y-195585771D02*
X194577200Y-196157200D01*
X195791485Y-196585771D02*
X195791485Y-195585771D01*
X195791485Y-195085771D02*
X195720057Y-195157200D01*
X195791485Y-195228628D01*
X195862914Y-195157200D01*
X195791485Y-195085771D01*
X195791485Y-195228628D01*
X197148628Y-196514342D02*
X197005771Y-196585771D01*
X196720057Y-196585771D01*
X196577200Y-196514342D01*
X196505771Y-196442914D01*
X196434342Y-196300057D01*
X196434342Y-195871485D01*
X196505771Y-195728628D01*
X196577200Y-195657200D01*
X196720057Y-195585771D01*
X197005771Y-195585771D01*
X197148628Y-195657200D01*
X198434342Y-196585771D02*
X198434342Y-195800057D01*
X198362914Y-195657200D01*
X198220057Y-195585771D01*
X197934342Y-195585771D01*
X197791485Y-195657200D01*
X198434342Y-196514342D02*
X198291485Y-196585771D01*
X197934342Y-196585771D01*
X197791485Y-196514342D01*
X197720057Y-196371485D01*
X197720057Y-196228628D01*
X197791485Y-196085771D01*
X197934342Y-196014342D01*
X198291485Y-196014342D01*
X198434342Y-195942914D01*
X199791485Y-196585771D02*
X199791485Y-195085771D01*
X199791485Y-196514342D02*
X199648628Y-196585771D01*
X199362914Y-196585771D01*
X199220057Y-196514342D01*
X199148628Y-196442914D01*
X199077200Y-196300057D01*
X199077200Y-195871485D01*
X199148628Y-195728628D01*
X199220057Y-195657200D01*
X199362914Y-195585771D01*
X199648628Y-195585771D01*
X199791485Y-195657200D01*
X202077200Y-197157200D02*
X202005771Y-197085771D01*
X201862914Y-196871485D01*
X201791485Y-196728628D01*
X201720057Y-196514342D01*
X201648628Y-196157200D01*
X201648628Y-195871485D01*
X201720057Y-195514342D01*
X201791485Y-195300057D01*
X201862914Y-195157200D01*
X202005771Y-194942914D01*
X202077200Y-194871485D01*
X203362914Y-195085771D02*
X202648628Y-195085771D01*
X202577200Y-195800057D01*
X202648628Y-195728628D01*
X202791485Y-195657200D01*
X203148628Y-195657200D01*
X203291485Y-195728628D01*
X203362914Y-195800057D01*
X203434342Y-195942914D01*
X203434342Y-196300057D01*
X203362914Y-196442914D01*
X203291485Y-196514342D01*
X203148628Y-196585771D01*
X202791485Y-196585771D01*
X202648628Y-196514342D01*
X202577200Y-196442914D01*
X204077200Y-196442914D02*
X204148628Y-196514342D01*
X204077200Y-196585771D01*
X204005771Y-196514342D01*
X204077200Y-196442914D01*
X204077200Y-196585771D01*
X205577200Y-196585771D02*
X204720057Y-196585771D01*
X205148628Y-196585771D02*
X205148628Y-195085771D01*
X205005771Y-195300057D01*
X204862914Y-195442914D01*
X204720057Y-195514342D01*
X206220057Y-196442914D02*
X206291485Y-196514342D01*
X206220057Y-196585771D01*
X206148628Y-196514342D01*
X206220057Y-196442914D01*
X206220057Y-196585771D01*
X207577200Y-195585771D02*
X207577200Y-196585771D01*
X207220057Y-195014342D02*
X206862914Y-196085771D01*
X207791485Y-196085771D01*
X208220057Y-197157200D02*
X208291485Y-197085771D01*
X208434342Y-196871485D01*
X208505771Y-196728628D01*
X208577200Y-196514342D01*
X208648628Y-196157200D01*
X208648628Y-195871485D01*
X208577200Y-195514342D01*
X208505771Y-195300057D01*
X208434342Y-195157200D01*
X208291485Y-194942914D01*
X208220057Y-194871485D01*
X209362914Y-196014342D02*
X210505771Y-196014342D01*
X212005771Y-196585771D02*
X211148628Y-196585771D01*
X211577200Y-196585771D02*
X211577200Y-195085771D01*
X211434342Y-195300057D01*
X211291485Y-195442914D01*
X211148628Y-195514342D01*
D10*
D11*
X177002200Y-191507200D02*
X285002200Y-191507200D01*
D10*
D12*
X264411485Y-193785771D02*
X263911485Y-193071485D01*
X263554342Y-193785771D02*
X263554342Y-192285771D01*
X264125771Y-192285771D01*
X264268628Y-192357200D01*
X264340057Y-192428628D01*
X264411485Y-192571485D01*
X264411485Y-192785771D01*
X264340057Y-192928628D01*
X264268628Y-193000057D01*
X264125771Y-193071485D01*
X263554342Y-193071485D01*
X265625771Y-193714342D02*
X265482914Y-193785771D01*
X265197200Y-193785771D01*
X265054342Y-193714342D01*
X264982914Y-193571485D01*
X264982914Y-193000057D01*
X265054342Y-192857200D01*
X265197200Y-192785771D01*
X265482914Y-192785771D01*
X265625771Y-192857200D01*
X265697200Y-193000057D01*
X265697200Y-193142914D01*
X264982914Y-193285771D01*
X266197200Y-192785771D02*
X266554342Y-193785771D01*
X266911485Y-192785771D01*
X267482914Y-193642914D02*
X267554342Y-193714342D01*
X267482914Y-193785771D01*
X267411485Y-193714342D01*
X267482914Y-193642914D01*
X267482914Y-193785771D01*
X267482914Y-192857200D02*
X267554342Y-192928628D01*
X267482914Y-193000057D01*
X267411485Y-192928628D01*
X267482914Y-192857200D01*
X267482914Y-193000057D01*
D10*
D11*
X178362914Y-193714342D02*
X178577200Y-193785771D01*
X178934342Y-193785771D01*
X179077200Y-193714342D01*
X179148628Y-193642914D01*
X179220057Y-193500057D01*
X179220057Y-193357200D01*
X179148628Y-193214342D01*
X179077200Y-193142914D01*
X178934342Y-193071485D01*
X178648628Y-193000057D01*
X178505771Y-192928628D01*
X178434342Y-192857200D01*
X178362914Y-192714342D01*
X178362914Y-192571485D01*
X178434342Y-192428628D01*
X178505771Y-192357200D01*
X178648628Y-192285771D01*
X179005771Y-192285771D01*
X179220057Y-192357200D01*
X179862914Y-193785771D02*
X179862914Y-192785771D01*
X179862914Y-192285771D02*
X179791485Y-192357200D01*
X179862914Y-192428628D01*
X179934342Y-192357200D01*
X179862914Y-192285771D01*
X179862914Y-192428628D01*
X180434342Y-192785771D02*
X181220057Y-192785771D01*
X180434342Y-193785771D01*
X181220057Y-193785771D01*
X182362914Y-193714342D02*
X182220057Y-193785771D01*
X181934342Y-193785771D01*
X181791485Y-193714342D01*
X181720057Y-193571485D01*
X181720057Y-193000057D01*
X181791485Y-192857200D01*
X181934342Y-192785771D01*
X182220057Y-192785771D01*
X182362914Y-192857200D01*
X182434342Y-193000057D01*
X182434342Y-193142914D01*
X181720057Y-193285771D01*
X183077200Y-193642914D02*
X183148628Y-193714342D01*
X183077200Y-193785771D01*
X183005771Y-193714342D01*
X183077200Y-193642914D01*
X183077200Y-193785771D01*
X183077200Y-192857200D02*
X183148628Y-192928628D01*
X183077200Y-193000057D01*
X183005771Y-192928628D01*
X183077200Y-192857200D01*
X183077200Y-193000057D01*
X184862914Y-193357200D02*
X185577200Y-193357200D01*
X184720057Y-193785771D02*
X185220057Y-192285771D01*
X185720057Y-193785771D01*
X186862914Y-192785771D02*
X186862914Y-193785771D01*
X186505771Y-192214342D02*
X186148628Y-193285771D01*
X187077200Y-193285771D01*
D10*
D11*
X263434342Y-196585771D02*
X263434342Y-195085771D01*
X264791485Y-196585771D02*
X264791485Y-195085771D01*
X264791485Y-196514342D02*
X264648628Y-196585771D01*
X264362914Y-196585771D01*
X264220057Y-196514342D01*
X264148628Y-196442914D01*
X264077200Y-196300057D01*
X264077200Y-195871485D01*
X264148628Y-195728628D01*
X264220057Y-195657200D01*
X264362914Y-195585771D01*
X264648628Y-195585771D01*
X264791485Y-195657200D01*
X265505771Y-196442914D02*
X265577200Y-196514342D01*
X265505771Y-196585771D01*
X265434342Y-196514342D01*
X265505771Y-196442914D01*
X265505771Y-196585771D01*
X265505771Y-195657200D02*
X265577200Y-195728628D01*
X265505771Y-195800057D01*
X265434342Y-195728628D01*
X265505771Y-195657200D01*
X265505771Y-195800057D01*
X268148628Y-196585771D02*
X267291485Y-196585771D01*
X267720057Y-196585771D02*
X267720057Y-195085771D01*
X267577200Y-195300057D01*
X267434342Y-195442914D01*
X267291485Y-195514342D01*
X269862914Y-195014342D02*
X268577200Y-196942914D01*
X271148628Y-196585771D02*
X270291485Y-196585771D01*
X270720057Y-196585771D02*
X270720057Y-195085771D01*
X270577200Y-195300057D01*
X270434342Y-195442914D01*
X270291485Y-195514342D01*
D10*
D11*
X177002200Y-187507200D02*
X285002200Y-187507200D01*
D10*
D13*
X178714580Y-188211961D02*
X179857438Y-188211961D01*
X179036009Y-190211961D02*
X179286009Y-188211961D01*
X180274104Y-190211961D02*
X180440771Y-188878628D01*
X180524104Y-188211961D02*
X180416961Y-188307200D01*
X180500295Y-188402438D01*
X180607438Y-188307200D01*
X180524104Y-188211961D01*
X180500295Y-188402438D01*
X181107438Y-188878628D02*
X181869342Y-188878628D01*
X181476485Y-188211961D02*
X181262200Y-189926247D01*
X181333628Y-190116723D01*
X181512200Y-190211961D01*
X181702676Y-190211961D01*
X182655057Y-190211961D02*
X182476485Y-190116723D01*
X182405057Y-189926247D01*
X182619342Y-188211961D01*
X184190771Y-190116723D02*
X183988390Y-190211961D01*
X183607438Y-190211961D01*
X183428866Y-190116723D01*
X183357438Y-189926247D01*
X183452676Y-189164342D01*
X183571723Y-188973866D01*
X183774104Y-188878628D01*
X184155057Y-188878628D01*
X184333628Y-188973866D01*
X184405057Y-189164342D01*
X184381247Y-189354819D01*
X183405057Y-189545295D01*
X185155057Y-190021485D02*
X185238390Y-190116723D01*
X185131247Y-190211961D01*
X185047914Y-190116723D01*
X185155057Y-190021485D01*
X185131247Y-190211961D01*
X185286009Y-188973866D02*
X185369342Y-189069104D01*
X185262200Y-189164342D01*
X185178866Y-189069104D01*
X185286009Y-188973866D01*
X185262200Y-189164342D01*
D10*
D11*
X178934342Y-185600057D02*
X178434342Y-185600057D01*
X178434342Y-186385771D02*
X178434342Y-184885771D01*
X179148628Y-184885771D01*
X179720057Y-186385771D02*
X179720057Y-185385771D01*
X179720057Y-184885771D02*
X179648628Y-184957200D01*
X179720057Y-185028628D01*
X179791485Y-184957200D01*
X179720057Y-184885771D01*
X179720057Y-185028628D01*
X180648628Y-186385771D02*
X180505771Y-186314342D01*
X180434342Y-186171485D01*
X180434342Y-184885771D01*
X181791485Y-186314342D02*
X181648628Y-186385771D01*
X181362914Y-186385771D01*
X181220057Y-186314342D01*
X181148628Y-186171485D01*
X181148628Y-185600057D01*
X181220057Y-185457200D01*
X181362914Y-185385771D01*
X181648628Y-185385771D01*
X181791485Y-185457200D01*
X181862914Y-185600057D01*
X181862914Y-185742914D01*
X181148628Y-185885771D01*
X182505771Y-186242914D02*
X182577200Y-186314342D01*
X182505771Y-186385771D01*
X182434342Y-186314342D01*
X182505771Y-186242914D01*
X182505771Y-186385771D01*
X182505771Y-185457200D02*
X182577200Y-185528628D01*
X182505771Y-185600057D01*
X182434342Y-185528628D01*
X182505771Y-185457200D01*
X182505771Y-185600057D01*
X184862914Y-185600057D02*
X185077200Y-185671485D01*
X185148628Y-185742914D01*
X185220057Y-185885771D01*
X185220057Y-186100057D01*
X185148628Y-186242914D01*
X185077200Y-186314342D01*
X184934342Y-186385771D01*
X184362914Y-186385771D01*
X184362914Y-184885771D01*
X184862914Y-184885771D01*
X185005771Y-184957200D01*
X185077200Y-185028628D01*
X185148628Y-185171485D01*
X185148628Y-185314342D01*
X185077200Y-185457200D01*
X185005771Y-185528628D01*
X184862914Y-185600057D01*
X184362914Y-185600057D01*
X186362914Y-185600057D02*
X186577200Y-185671485D01*
X186648628Y-185742914D01*
X186720057Y-185885771D01*
X186720057Y-186100057D01*
X186648628Y-186242914D01*
X186577200Y-186314342D01*
X186434342Y-186385771D01*
X185862914Y-186385771D01*
X185862914Y-184885771D01*
X186362914Y-184885771D01*
X186505771Y-184957200D01*
X186577200Y-185028628D01*
X186648628Y-185171485D01*
X186648628Y-185314342D01*
X186577200Y-185457200D01*
X186505771Y-185528628D01*
X186362914Y-185600057D01*
X185862914Y-185600057D01*
X187362914Y-186385771D02*
X187362914Y-184885771D01*
X187862914Y-185957200D01*
X188362914Y-184885771D01*
X188362914Y-186385771D01*
X189077200Y-186385771D02*
X189077200Y-185385771D01*
X189077200Y-184885771D02*
X189005771Y-184957200D01*
X189077200Y-185028628D01*
X189148628Y-184957200D01*
X189077200Y-184885771D01*
X189077200Y-185028628D01*
X189791485Y-185385771D02*
X189791485Y-186385771D01*
X189791485Y-185528628D02*
X189862914Y-185457200D01*
X190005771Y-185385771D01*
X190220057Y-185385771D01*
X190362914Y-185457200D01*
X190434342Y-185600057D01*
X190434342Y-186385771D01*
X191148628Y-186385771D02*
X191148628Y-185385771D01*
X191148628Y-184885771D02*
X191077200Y-184957200D01*
X191148628Y-185028628D01*
X191220057Y-184957200D01*
X191148628Y-184885771D01*
X191148628Y-185028628D01*
X191862914Y-186242914D02*
X191934342Y-186314342D01*
X191862914Y-186385771D01*
X191791485Y-186314342D01*
X191862914Y-186242914D01*
X191862914Y-186385771D01*
X192577200Y-186385771D02*
X192577200Y-184885771D01*
X192720057Y-185814342D02*
X193148628Y-186385771D01*
X193148628Y-185385771D02*
X192577200Y-185957200D01*
X193791485Y-186385771D02*
X193791485Y-185385771D01*
X193791485Y-184885771D02*
X193720057Y-184957200D01*
X193791485Y-185028628D01*
X193862914Y-184957200D01*
X193791485Y-184885771D01*
X193791485Y-185028628D01*
X195148628Y-186314342D02*
X195005771Y-186385771D01*
X194720057Y-186385771D01*
X194577200Y-186314342D01*
X194505771Y-186242914D01*
X194434342Y-186100057D01*
X194434342Y-185671485D01*
X194505771Y-185528628D01*
X194577200Y-185457200D01*
X194720057Y-185385771D01*
X195005771Y-185385771D01*
X195148628Y-185457200D01*
X196434342Y-186385771D02*
X196434342Y-185600057D01*
X196362914Y-185457200D01*
X196220057Y-185385771D01*
X195934342Y-185385771D01*
X195791485Y-185457200D01*
X196434342Y-186314342D02*
X196291485Y-186385771D01*
X195934342Y-186385771D01*
X195791485Y-186314342D01*
X195720057Y-186171485D01*
X195720057Y-186028628D01*
X195791485Y-185885771D01*
X195934342Y-185814342D01*
X196291485Y-185814342D01*
X196434342Y-185742914D01*
X197791485Y-186385771D02*
X197791485Y-184885771D01*
X197791485Y-186314342D02*
X197648628Y-186385771D01*
X197362914Y-186385771D01*
X197220057Y-186314342D01*
X197148628Y-186242914D01*
X197077200Y-186100057D01*
X197077200Y-185671485D01*
X197148628Y-185528628D01*
X197220057Y-185457200D01*
X197362914Y-185385771D01*
X197648628Y-185385771D01*
X197791485Y-185457200D01*
X198148628Y-186528628D02*
X199291485Y-186528628D01*
X199648628Y-185385771D02*
X199648628Y-186885771D01*
X199648628Y-185457200D02*
X199791485Y-185385771D01*
X200077200Y-185385771D01*
X200220057Y-185457200D01*
X200291485Y-185528628D01*
X200362914Y-185671485D01*
X200362914Y-186100057D01*
X200291485Y-186242914D01*
X200220057Y-186314342D01*
X200077200Y-186385771D01*
X199791485Y-186385771D01*
X199648628Y-186314342D01*
X201648628Y-186314342D02*
X201505771Y-186385771D01*
X201220057Y-186385771D01*
X201077200Y-186314342D01*
X201005771Y-186242914D01*
X200934342Y-186100057D01*
X200934342Y-185671485D01*
X201005771Y-185528628D01*
X201077200Y-185457200D01*
X201220057Y-185385771D01*
X201505771Y-185385771D01*
X201648628Y-185457200D01*
X202291485Y-186385771D02*
X202291485Y-184885771D01*
X202291485Y-185457200D02*
X202434342Y-185385771D01*
X202720057Y-185385771D01*
X202862914Y-185457200D01*
X202934342Y-185528628D01*
X203005771Y-185671485D01*
X203005771Y-186100057D01*
X202934342Y-186242914D01*
X202862914Y-186314342D01*
X202720057Y-186385771D01*
X202434342Y-186385771D01*
X202291485Y-186314342D01*
D10*
D11*
X177002200Y-181507200D02*
X285002200Y-181507200D01*
D10*
D11*
X178362914Y-183614342D02*
X178577200Y-183685771D01*
X178934342Y-183685771D01*
X179077200Y-183614342D01*
X179148628Y-183542914D01*
X179220057Y-183400057D01*
X179220057Y-183257200D01*
X179148628Y-183114342D01*
X179077200Y-183042914D01*
X178934342Y-182971485D01*
X178648628Y-182900057D01*
X178505771Y-182828628D01*
X178434342Y-182757200D01*
X178362914Y-182614342D01*
X178362914Y-182471485D01*
X178434342Y-182328628D01*
X178505771Y-182257200D01*
X178648628Y-182185771D01*
X179005771Y-182185771D01*
X179220057Y-182257200D01*
X179862914Y-183685771D02*
X179862914Y-182185771D01*
X180505771Y-183685771D02*
X180505771Y-182900057D01*
X180434342Y-182757200D01*
X180291485Y-182685771D01*
X180077200Y-182685771D01*
X179934342Y-182757200D01*
X179862914Y-182828628D01*
X181791485Y-183614342D02*
X181648628Y-183685771D01*
X181362914Y-183685771D01*
X181220057Y-183614342D01*
X181148628Y-183471485D01*
X181148628Y-182900057D01*
X181220057Y-182757200D01*
X181362914Y-182685771D01*
X181648628Y-182685771D01*
X181791485Y-182757200D01*
X181862914Y-182900057D01*
X181862914Y-183042914D01*
X181148628Y-183185771D01*
X183077200Y-183614342D02*
X182934342Y-183685771D01*
X182648628Y-183685771D01*
X182505771Y-183614342D01*
X182434342Y-183471485D01*
X182434342Y-182900057D01*
X182505771Y-182757200D01*
X182648628Y-182685771D01*
X182934342Y-182685771D01*
X183077200Y-182757200D01*
X183148628Y-182900057D01*
X183148628Y-183042914D01*
X182434342Y-183185771D01*
X183577200Y-182685771D02*
X184148628Y-182685771D01*
X183791485Y-182185771D02*
X183791485Y-183471485D01*
X183862914Y-183614342D01*
X184005771Y-183685771D01*
X184148628Y-183685771D01*
X184648628Y-183542914D02*
X184720057Y-183614342D01*
X184648628Y-183685771D01*
X184577200Y-183614342D01*
X184648628Y-183542914D01*
X184648628Y-183685771D01*
X184648628Y-182757200D02*
X184720057Y-182828628D01*
X184648628Y-182900057D01*
X184577200Y-182828628D01*
X184648628Y-182757200D01*
X184648628Y-182900057D01*
D10*
D11*
X197002200Y-191507200D02*
X197002200Y-194507200D01*
D10*
D11*
X261002200Y-191507200D02*
X261002200Y-198007200D01*
D10*
G36*
X88962023Y-99420590D02*
G01*
X89062682Y-99451125D01*
X89113013Y-99466392D01*
X89252165Y-99540771D01*
X89374133Y-99640867D01*
X89474229Y-99762835D01*
X89548608Y-99901987D01*
X89548608Y-99901988D01*
X89594410Y-100052977D01*
X89606000Y-100170655D01*
X89606000Y-100749345D01*
X89594410Y-100867023D01*
X89566172Y-100960111D01*
X89548608Y-101018013D01*
X89542246Y-101029915D01*
X89474229Y-101157165D01*
X89374133Y-101279133D01*
X89252164Y-101379229D01*
X89113012Y-101453608D01*
X89062681Y-101468875D01*
X88962022Y-101499410D01*
X88805000Y-101514875D01*
X88647977Y-101499410D01*
X88547318Y-101468875D01*
X88496987Y-101453608D01*
X88357835Y-101379229D01*
X88235867Y-101279133D01*
X88135771Y-101157164D01*
X88086775Y-101065500D01*
X88061392Y-101018012D01*
X88043828Y-100960111D01*
X88015590Y-100867022D01*
X88004000Y-100749344D01*
X88004000Y-100170655D01*
X88015590Y-100052977D01*
X88061392Y-99901988D01*
X88061392Y-99901987D01*
X88080607Y-99866039D01*
X88135771Y-99762835D01*
X88235868Y-99640867D01*
X88357836Y-99540771D01*
X88449682Y-99491678D01*
X88496988Y-99466392D01*
X88547319Y-99451125D01*
X88647978Y-99420590D01*
X88805000Y-99405125D01*
X88962023Y-99420590D01*
X88962023Y-99420590D01*
G37*
G36*
X92962023Y-99420590D02*
G01*
X93062682Y-99451125D01*
X93113013Y-99466392D01*
X93252165Y-99540771D01*
X93374133Y-99640867D01*
X93474229Y-99762835D01*
X93548608Y-99901987D01*
X93548608Y-99901988D01*
X93594410Y-100052977D01*
X93606000Y-100170655D01*
X93606000Y-100749345D01*
X93594410Y-100867023D01*
X93566172Y-100960111D01*
X93548608Y-101018013D01*
X93542246Y-101029915D01*
X93474229Y-101157165D01*
X93374133Y-101279133D01*
X93252164Y-101379229D01*
X93113012Y-101453608D01*
X93062681Y-101468875D01*
X92962022Y-101499410D01*
X92805000Y-101514875D01*
X92647977Y-101499410D01*
X92547318Y-101468875D01*
X92496987Y-101453608D01*
X92357835Y-101379229D01*
X92235867Y-101279133D01*
X92135771Y-101157164D01*
X92086775Y-101065500D01*
X92061392Y-101018012D01*
X92043828Y-100960111D01*
X92015590Y-100867022D01*
X92004000Y-100749344D01*
X92004000Y-100170655D01*
X92015590Y-100052977D01*
X92061392Y-99901988D01*
X92061392Y-99901987D01*
X92080607Y-99866039D01*
X92135771Y-99762835D01*
X92235868Y-99640867D01*
X92357836Y-99540771D01*
X92449682Y-99491678D01*
X92496988Y-99466392D01*
X92547319Y-99451125D01*
X92647978Y-99420590D01*
X92805000Y-99405125D01*
X92962023Y-99420590D01*
X92962023Y-99420590D01*
G37*
G36*
X112012023Y-99420590D02*
G01*
X112112682Y-99451125D01*
X112163013Y-99466392D01*
X112302165Y-99540771D01*
X112424133Y-99640867D01*
X112524229Y-99762835D01*
X112598608Y-99901987D01*
X112598608Y-99901988D01*
X112644410Y-100052977D01*
X112656000Y-100170655D01*
X112656000Y-100749345D01*
X112644410Y-100867023D01*
X112616172Y-100960111D01*
X112598608Y-101018013D01*
X112592246Y-101029915D01*
X112524229Y-101157165D01*
X112424133Y-101279133D01*
X112302164Y-101379229D01*
X112163012Y-101453608D01*
X112112681Y-101468875D01*
X112012022Y-101499410D01*
X111855000Y-101514875D01*
X111697977Y-101499410D01*
X111597318Y-101468875D01*
X111546987Y-101453608D01*
X111407835Y-101379229D01*
X111285867Y-101279133D01*
X111185771Y-101157164D01*
X111136775Y-101065500D01*
X111111392Y-101018012D01*
X111093828Y-100960111D01*
X111065590Y-100867022D01*
X111054000Y-100749344D01*
X111054000Y-100170655D01*
X111065590Y-100052977D01*
X111111392Y-99901988D01*
X111111392Y-99901987D01*
X111130607Y-99866039D01*
X111185771Y-99762835D01*
X111285868Y-99640867D01*
X111407836Y-99540771D01*
X111499682Y-99491678D01*
X111546988Y-99466392D01*
X111597319Y-99451125D01*
X111697978Y-99420590D01*
X111855000Y-99405125D01*
X112012023Y-99420590D01*
X112012023Y-99420590D01*
G37*
G36*
X108012023Y-99420590D02*
G01*
X108112682Y-99451125D01*
X108163013Y-99466392D01*
X108302165Y-99540771D01*
X108424133Y-99640867D01*
X108524229Y-99762835D01*
X108598608Y-99901987D01*
X108598608Y-99901988D01*
X108644410Y-100052977D01*
X108656000Y-100170655D01*
X108656000Y-100749345D01*
X108644410Y-100867023D01*
X108616172Y-100960111D01*
X108598608Y-101018013D01*
X108592246Y-101029915D01*
X108524229Y-101157165D01*
X108424133Y-101279133D01*
X108302164Y-101379229D01*
X108163012Y-101453608D01*
X108112681Y-101468875D01*
X108012022Y-101499410D01*
X107855000Y-101514875D01*
X107697977Y-101499410D01*
X107597318Y-101468875D01*
X107546987Y-101453608D01*
X107407835Y-101379229D01*
X107285867Y-101279133D01*
X107185771Y-101157164D01*
X107136775Y-101065500D01*
X107111392Y-101018012D01*
X107093828Y-100960111D01*
X107065590Y-100867022D01*
X107054000Y-100749344D01*
X107054000Y-100170655D01*
X107065590Y-100052977D01*
X107111392Y-99901988D01*
X107111392Y-99901987D01*
X107130607Y-99866039D01*
X107185771Y-99762835D01*
X107285868Y-99640867D01*
X107407836Y-99540771D01*
X107499682Y-99491678D01*
X107546988Y-99466392D01*
X107597319Y-99451125D01*
X107697978Y-99420590D01*
X107855000Y-99405125D01*
X108012023Y-99420590D01*
X108012023Y-99420590D01*
G37*
G36*
X105662023Y-99420590D02*
G01*
X105762682Y-99451125D01*
X105813013Y-99466392D01*
X105952165Y-99540771D01*
X106074133Y-99640867D01*
X106174229Y-99762835D01*
X106248608Y-99901987D01*
X106248608Y-99901988D01*
X106294410Y-100052977D01*
X106306000Y-100170655D01*
X106306000Y-100749345D01*
X106294410Y-100867023D01*
X106266172Y-100960111D01*
X106248608Y-101018013D01*
X106242246Y-101029915D01*
X106174229Y-101157165D01*
X106074133Y-101279133D01*
X105952164Y-101379229D01*
X105813012Y-101453608D01*
X105762681Y-101468875D01*
X105662022Y-101499410D01*
X105505000Y-101514875D01*
X105347977Y-101499410D01*
X105247318Y-101468875D01*
X105196987Y-101453608D01*
X105057835Y-101379229D01*
X104935867Y-101279133D01*
X104835771Y-101157164D01*
X104786775Y-101065500D01*
X104761392Y-101018012D01*
X104743828Y-100960111D01*
X104715590Y-100867022D01*
X104704000Y-100749344D01*
X104704000Y-100170655D01*
X104715590Y-100052977D01*
X104761392Y-99901988D01*
X104761392Y-99901987D01*
X104780607Y-99866039D01*
X104835771Y-99762835D01*
X104935868Y-99640867D01*
X105057836Y-99540771D01*
X105149682Y-99491678D01*
X105196988Y-99466392D01*
X105247319Y-99451125D01*
X105347978Y-99420590D01*
X105505000Y-99405125D01*
X105662023Y-99420590D01*
X105662023Y-99420590D01*
G37*
G36*
X101662023Y-99420590D02*
G01*
X101762682Y-99451125D01*
X101813013Y-99466392D01*
X101952165Y-99540771D01*
X102074133Y-99640867D01*
X102174229Y-99762835D01*
X102248608Y-99901987D01*
X102248608Y-99901988D01*
X102294410Y-100052977D01*
X102306000Y-100170655D01*
X102306000Y-100749345D01*
X102294410Y-100867023D01*
X102266172Y-100960111D01*
X102248608Y-101018013D01*
X102242246Y-101029915D01*
X102174229Y-101157165D01*
X102074133Y-101279133D01*
X101952164Y-101379229D01*
X101813012Y-101453608D01*
X101762681Y-101468875D01*
X101662022Y-101499410D01*
X101505000Y-101514875D01*
X101347977Y-101499410D01*
X101247318Y-101468875D01*
X101196987Y-101453608D01*
X101057835Y-101379229D01*
X100935867Y-101279133D01*
X100835771Y-101157164D01*
X100786775Y-101065500D01*
X100761392Y-101018012D01*
X100743828Y-100960111D01*
X100715590Y-100867022D01*
X100704000Y-100749344D01*
X100704000Y-100170655D01*
X100715590Y-100052977D01*
X100761392Y-99901988D01*
X100761392Y-99901987D01*
X100780607Y-99866039D01*
X100835771Y-99762835D01*
X100935868Y-99640867D01*
X101057836Y-99540771D01*
X101149682Y-99491678D01*
X101196988Y-99466392D01*
X101247319Y-99451125D01*
X101347978Y-99420590D01*
X101505000Y-99405125D01*
X101662023Y-99420590D01*
X101662023Y-99420590D01*
G37*
G36*
X99312023Y-99420590D02*
G01*
X99412682Y-99451125D01*
X99463013Y-99466392D01*
X99602165Y-99540771D01*
X99724133Y-99640867D01*
X99824229Y-99762835D01*
X99898608Y-99901987D01*
X99898608Y-99901988D01*
X99944410Y-100052977D01*
X99956000Y-100170655D01*
X99956000Y-100749345D01*
X99944410Y-100867023D01*
X99916172Y-100960111D01*
X99898608Y-101018013D01*
X99892246Y-101029915D01*
X99824229Y-101157165D01*
X99724133Y-101279133D01*
X99602164Y-101379229D01*
X99463012Y-101453608D01*
X99412681Y-101468875D01*
X99312022Y-101499410D01*
X99155000Y-101514875D01*
X98997977Y-101499410D01*
X98897318Y-101468875D01*
X98846987Y-101453608D01*
X98707835Y-101379229D01*
X98585867Y-101279133D01*
X98485771Y-101157164D01*
X98436775Y-101065500D01*
X98411392Y-101018012D01*
X98393828Y-100960111D01*
X98365590Y-100867022D01*
X98354000Y-100749344D01*
X98354000Y-100170655D01*
X98365590Y-100052977D01*
X98411392Y-99901988D01*
X98411392Y-99901987D01*
X98430607Y-99866039D01*
X98485771Y-99762835D01*
X98585868Y-99640867D01*
X98707836Y-99540771D01*
X98799682Y-99491678D01*
X98846988Y-99466392D01*
X98897319Y-99451125D01*
X98997978Y-99420590D01*
X99155000Y-99405125D01*
X99312023Y-99420590D01*
X99312023Y-99420590D01*
G37*
G36*
X95312023Y-99420590D02*
G01*
X95412682Y-99451125D01*
X95463013Y-99466392D01*
X95602165Y-99540771D01*
X95724133Y-99640867D01*
X95824229Y-99762835D01*
X95898608Y-99901987D01*
X95898608Y-99901988D01*
X95944410Y-100052977D01*
X95956000Y-100170655D01*
X95956000Y-100749345D01*
X95944410Y-100867023D01*
X95916172Y-100960111D01*
X95898608Y-101018013D01*
X95892246Y-101029915D01*
X95824229Y-101157165D01*
X95724133Y-101279133D01*
X95602164Y-101379229D01*
X95463012Y-101453608D01*
X95412681Y-101468875D01*
X95312022Y-101499410D01*
X95155000Y-101514875D01*
X94997977Y-101499410D01*
X94897318Y-101468875D01*
X94846987Y-101453608D01*
X94707835Y-101379229D01*
X94585867Y-101279133D01*
X94485771Y-101157164D01*
X94436775Y-101065500D01*
X94411392Y-101018012D01*
X94393828Y-100960111D01*
X94365590Y-100867022D01*
X94354000Y-100749344D01*
X94354000Y-100170655D01*
X94365590Y-100052977D01*
X94411392Y-99901988D01*
X94411392Y-99901987D01*
X94430607Y-99866039D01*
X94485771Y-99762835D01*
X94585868Y-99640867D01*
X94707836Y-99540771D01*
X94799682Y-99491678D01*
X94846988Y-99466392D01*
X94897319Y-99451125D01*
X94997978Y-99420590D01*
X95155000Y-99405125D01*
X95312023Y-99420590D01*
X95312023Y-99420590D01*
G37*
G36*
X63625523Y-99420590D02*
G01*
X63726182Y-99451125D01*
X63776513Y-99466392D01*
X63915665Y-99540771D01*
X64037633Y-99640867D01*
X64137729Y-99762835D01*
X64212108Y-99901987D01*
X64212108Y-99901988D01*
X64257910Y-100052977D01*
X64269500Y-100170655D01*
X64269500Y-100749345D01*
X64257910Y-100867023D01*
X64229672Y-100960111D01*
X64212108Y-101018013D01*
X64205746Y-101029915D01*
X64137729Y-101157165D01*
X64037633Y-101279133D01*
X63915664Y-101379229D01*
X63776512Y-101453608D01*
X63726181Y-101468875D01*
X63625522Y-101499410D01*
X63468500Y-101514875D01*
X63311477Y-101499410D01*
X63210818Y-101468875D01*
X63160487Y-101453608D01*
X63021335Y-101379229D01*
X62899367Y-101279133D01*
X62799271Y-101157164D01*
X62750275Y-101065500D01*
X62724892Y-101018012D01*
X62707328Y-100960111D01*
X62679090Y-100867022D01*
X62667500Y-100749344D01*
X62667500Y-100170655D01*
X62679090Y-100052977D01*
X62724892Y-99901988D01*
X62724892Y-99901987D01*
X62744107Y-99866039D01*
X62799271Y-99762835D01*
X62899368Y-99640867D01*
X63021336Y-99540771D01*
X63113182Y-99491678D01*
X63160488Y-99466392D01*
X63210819Y-99451125D01*
X63311478Y-99420590D01*
X63468500Y-99405125D01*
X63625523Y-99420590D01*
X63625523Y-99420590D01*
G37*
G36*
X86612023Y-99420590D02*
G01*
X86712682Y-99451125D01*
X86763013Y-99466392D01*
X86902165Y-99540771D01*
X87024133Y-99640867D01*
X87124229Y-99762835D01*
X87198608Y-99901987D01*
X87198608Y-99901988D01*
X87244410Y-100052977D01*
X87256000Y-100170655D01*
X87256000Y-100749345D01*
X87244410Y-100867023D01*
X87216172Y-100960111D01*
X87198608Y-101018013D01*
X87192246Y-101029915D01*
X87124229Y-101157165D01*
X87024133Y-101279133D01*
X86902164Y-101379229D01*
X86763012Y-101453608D01*
X86712681Y-101468875D01*
X86612022Y-101499410D01*
X86455000Y-101514875D01*
X86297977Y-101499410D01*
X86197318Y-101468875D01*
X86146987Y-101453608D01*
X86007835Y-101379229D01*
X85885867Y-101279133D01*
X85785771Y-101157164D01*
X85736775Y-101065500D01*
X85711392Y-101018012D01*
X85693828Y-100960111D01*
X85665590Y-100867022D01*
X85654000Y-100749344D01*
X85654000Y-100170655D01*
X85665590Y-100052977D01*
X85711392Y-99901988D01*
X85711392Y-99901987D01*
X85730607Y-99866039D01*
X85785771Y-99762835D01*
X85885868Y-99640867D01*
X86007836Y-99540771D01*
X86099682Y-99491678D01*
X86146988Y-99466392D01*
X86197319Y-99451125D01*
X86297978Y-99420590D01*
X86455000Y-99405125D01*
X86612023Y-99420590D01*
X86612023Y-99420590D01*
G37*
G36*
X82612023Y-99420590D02*
G01*
X82712682Y-99451125D01*
X82763013Y-99466392D01*
X82902165Y-99540771D01*
X83024133Y-99640867D01*
X83124229Y-99762835D01*
X83198608Y-99901987D01*
X83198608Y-99901988D01*
X83244410Y-100052977D01*
X83256000Y-100170655D01*
X83256000Y-100749345D01*
X83244410Y-100867023D01*
X83216172Y-100960111D01*
X83198608Y-101018013D01*
X83192246Y-101029915D01*
X83124229Y-101157165D01*
X83024133Y-101279133D01*
X82902164Y-101379229D01*
X82763012Y-101453608D01*
X82712681Y-101468875D01*
X82612022Y-101499410D01*
X82455000Y-101514875D01*
X82297977Y-101499410D01*
X82197318Y-101468875D01*
X82146987Y-101453608D01*
X82007835Y-101379229D01*
X81885867Y-101279133D01*
X81785771Y-101157164D01*
X81736775Y-101065500D01*
X81711392Y-101018012D01*
X81693828Y-100960111D01*
X81665590Y-100867022D01*
X81654000Y-100749344D01*
X81654000Y-100170655D01*
X81665590Y-100052977D01*
X81711392Y-99901988D01*
X81711392Y-99901987D01*
X81730607Y-99866039D01*
X81785771Y-99762835D01*
X81885868Y-99640867D01*
X82007836Y-99540771D01*
X82099682Y-99491678D01*
X82146988Y-99466392D01*
X82197319Y-99451125D01*
X82297978Y-99420590D01*
X82455000Y-99405125D01*
X82612023Y-99420590D01*
X82612023Y-99420590D01*
G37*
G36*
X80262023Y-99420590D02*
G01*
X80362682Y-99451125D01*
X80413013Y-99466392D01*
X80552165Y-99540771D01*
X80674133Y-99640867D01*
X80774229Y-99762835D01*
X80848608Y-99901987D01*
X80848608Y-99901988D01*
X80894410Y-100052977D01*
X80906000Y-100170655D01*
X80906000Y-100749345D01*
X80894410Y-100867023D01*
X80866172Y-100960111D01*
X80848608Y-101018013D01*
X80842246Y-101029915D01*
X80774229Y-101157165D01*
X80674133Y-101279133D01*
X80552164Y-101379229D01*
X80413012Y-101453608D01*
X80362681Y-101468875D01*
X80262022Y-101499410D01*
X80105000Y-101514875D01*
X79947977Y-101499410D01*
X79847318Y-101468875D01*
X79796987Y-101453608D01*
X79657835Y-101379229D01*
X79535867Y-101279133D01*
X79435771Y-101157164D01*
X79386775Y-101065500D01*
X79361392Y-101018012D01*
X79343828Y-100960111D01*
X79315590Y-100867022D01*
X79304000Y-100749344D01*
X79304000Y-100170655D01*
X79315590Y-100052977D01*
X79361392Y-99901988D01*
X79361392Y-99901987D01*
X79380607Y-99866039D01*
X79435771Y-99762835D01*
X79535868Y-99640867D01*
X79657836Y-99540771D01*
X79749682Y-99491678D01*
X79796988Y-99466392D01*
X79847319Y-99451125D01*
X79947978Y-99420590D01*
X80105000Y-99405125D01*
X80262023Y-99420590D01*
X80262023Y-99420590D01*
G37*
G36*
X76262023Y-99420590D02*
G01*
X76362682Y-99451125D01*
X76413013Y-99466392D01*
X76552165Y-99540771D01*
X76674133Y-99640867D01*
X76774229Y-99762835D01*
X76848608Y-99901987D01*
X76848608Y-99901988D01*
X76894410Y-100052977D01*
X76906000Y-100170655D01*
X76906000Y-100749345D01*
X76894410Y-100867023D01*
X76866172Y-100960111D01*
X76848608Y-101018013D01*
X76842246Y-101029915D01*
X76774229Y-101157165D01*
X76674133Y-101279133D01*
X76552164Y-101379229D01*
X76413012Y-101453608D01*
X76362681Y-101468875D01*
X76262022Y-101499410D01*
X76105000Y-101514875D01*
X75947977Y-101499410D01*
X75847318Y-101468875D01*
X75796987Y-101453608D01*
X75657835Y-101379229D01*
X75535867Y-101279133D01*
X75435771Y-101157164D01*
X75386775Y-101065500D01*
X75361392Y-101018012D01*
X75343828Y-100960111D01*
X75315590Y-100867022D01*
X75304000Y-100749344D01*
X75304000Y-100170655D01*
X75315590Y-100052977D01*
X75361392Y-99901988D01*
X75361392Y-99901987D01*
X75380607Y-99866039D01*
X75435771Y-99762835D01*
X75535868Y-99640867D01*
X75657836Y-99540771D01*
X75749682Y-99491678D01*
X75796988Y-99466392D01*
X75847319Y-99451125D01*
X75947978Y-99420590D01*
X76105000Y-99405125D01*
X76262023Y-99420590D01*
X76262023Y-99420590D01*
G37*
G36*
X73912023Y-99420590D02*
G01*
X74012682Y-99451125D01*
X74063013Y-99466392D01*
X74202165Y-99540771D01*
X74324133Y-99640867D01*
X74424229Y-99762835D01*
X74498608Y-99901987D01*
X74498608Y-99901988D01*
X74544410Y-100052977D01*
X74556000Y-100170655D01*
X74556000Y-100749345D01*
X74544410Y-100867023D01*
X74516172Y-100960111D01*
X74498608Y-101018013D01*
X74492246Y-101029915D01*
X74424229Y-101157165D01*
X74324133Y-101279133D01*
X74202164Y-101379229D01*
X74063012Y-101453608D01*
X74012681Y-101468875D01*
X73912022Y-101499410D01*
X73755000Y-101514875D01*
X73597977Y-101499410D01*
X73497318Y-101468875D01*
X73446987Y-101453608D01*
X73307835Y-101379229D01*
X73185867Y-101279133D01*
X73085771Y-101157164D01*
X73036775Y-101065500D01*
X73011392Y-101018012D01*
X72993828Y-100960111D01*
X72965590Y-100867022D01*
X72954000Y-100749344D01*
X72954000Y-100170655D01*
X72965590Y-100052977D01*
X73011392Y-99901988D01*
X73011392Y-99901987D01*
X73030607Y-99866039D01*
X73085771Y-99762835D01*
X73185868Y-99640867D01*
X73307836Y-99540771D01*
X73399682Y-99491678D01*
X73446988Y-99466392D01*
X73497319Y-99451125D01*
X73597978Y-99420590D01*
X73755000Y-99405125D01*
X73912023Y-99420590D01*
X73912023Y-99420590D01*
G37*
G36*
X69912023Y-99420590D02*
G01*
X70012682Y-99451125D01*
X70063013Y-99466392D01*
X70202165Y-99540771D01*
X70324133Y-99640867D01*
X70424229Y-99762835D01*
X70498608Y-99901987D01*
X70498608Y-99901988D01*
X70544410Y-100052977D01*
X70556000Y-100170655D01*
X70556000Y-100749345D01*
X70544410Y-100867023D01*
X70516172Y-100960111D01*
X70498608Y-101018013D01*
X70492246Y-101029915D01*
X70424229Y-101157165D01*
X70324133Y-101279133D01*
X70202164Y-101379229D01*
X70063012Y-101453608D01*
X70012681Y-101468875D01*
X69912022Y-101499410D01*
X69755000Y-101514875D01*
X69597977Y-101499410D01*
X69497318Y-101468875D01*
X69446987Y-101453608D01*
X69307835Y-101379229D01*
X69185867Y-101279133D01*
X69085771Y-101157164D01*
X69036775Y-101065500D01*
X69011392Y-101018012D01*
X68993828Y-100960111D01*
X68965590Y-100867022D01*
X68954000Y-100749344D01*
X68954000Y-100170655D01*
X68965590Y-100052977D01*
X69011392Y-99901988D01*
X69011392Y-99901987D01*
X69030607Y-99866039D01*
X69085771Y-99762835D01*
X69185868Y-99640867D01*
X69307836Y-99540771D01*
X69399682Y-99491678D01*
X69446988Y-99466392D01*
X69497319Y-99451125D01*
X69597978Y-99420590D01*
X69755000Y-99405125D01*
X69912023Y-99420590D01*
X69912023Y-99420590D01*
G37*
G36*
X67625523Y-99420590D02*
G01*
X67726182Y-99451125D01*
X67776513Y-99466392D01*
X67915665Y-99540771D01*
X68037633Y-99640867D01*
X68137729Y-99762835D01*
X68212108Y-99901987D01*
X68212108Y-99901988D01*
X68257910Y-100052977D01*
X68269500Y-100170655D01*
X68269500Y-100749345D01*
X68257910Y-100867023D01*
X68229672Y-100960111D01*
X68212108Y-101018013D01*
X68205746Y-101029915D01*
X68137729Y-101157165D01*
X68037633Y-101279133D01*
X67915664Y-101379229D01*
X67776512Y-101453608D01*
X67726181Y-101468875D01*
X67625522Y-101499410D01*
X67468500Y-101514875D01*
X67311477Y-101499410D01*
X67210818Y-101468875D01*
X67160487Y-101453608D01*
X67021335Y-101379229D01*
X66899367Y-101279133D01*
X66799271Y-101157164D01*
X66750275Y-101065500D01*
X66724892Y-101018012D01*
X66707328Y-100960111D01*
X66679090Y-100867022D01*
X66667500Y-100749344D01*
X66667500Y-100170655D01*
X66679090Y-100052977D01*
X66724892Y-99901988D01*
X66724892Y-99901987D01*
X66744107Y-99866039D01*
X66799271Y-99762835D01*
X66899368Y-99640867D01*
X67021336Y-99540771D01*
X67113182Y-99491678D01*
X67160488Y-99466392D01*
X67210819Y-99451125D01*
X67311478Y-99420590D01*
X67468500Y-99405125D01*
X67625523Y-99420590D01*
X67625523Y-99420590D01*
G37*
G36*
X56150104Y-99249085D02*
G01*
X56318626Y-99318889D01*
X56470291Y-99420228D01*
X56599272Y-99549209D01*
X56700611Y-99700874D01*
X56770415Y-99869396D01*
X56806000Y-100048297D01*
X56806000Y-100230703D01*
X56770415Y-100409604D01*
X56700611Y-100578126D01*
X56599272Y-100729791D01*
X56470291Y-100858772D01*
X56318626Y-100960111D01*
X56150104Y-101029915D01*
X55971203Y-101065500D01*
X55788797Y-101065500D01*
X55609896Y-101029915D01*
X55441374Y-100960111D01*
X55289709Y-100858772D01*
X55160728Y-100729791D01*
X55059389Y-100578126D01*
X54989585Y-100409604D01*
X54954000Y-100230703D01*
X54954000Y-100048297D01*
X54989585Y-99869396D01*
X55059389Y-99700874D01*
X55160728Y-99549209D01*
X55289709Y-99420228D01*
X55441374Y-99318889D01*
X55609896Y-99249085D01*
X55788797Y-99213500D01*
X55971203Y-99213500D01*
X56150104Y-99249085D01*
X56150104Y-99249085D01*
G37*
G36*
X51650104Y-99249085D02*
G01*
X51818626Y-99318889D01*
X51970291Y-99420228D01*
X52099272Y-99549209D01*
X52200611Y-99700874D01*
X52270415Y-99869396D01*
X52306000Y-100048297D01*
X52306000Y-100230703D01*
X52270415Y-100409604D01*
X52200611Y-100578126D01*
X52099272Y-100729791D01*
X51970291Y-100858772D01*
X51818626Y-100960111D01*
X51650104Y-101029915D01*
X51471203Y-101065500D01*
X51288797Y-101065500D01*
X51109896Y-101029915D01*
X50941374Y-100960111D01*
X50789709Y-100858772D01*
X50660728Y-100729791D01*
X50559389Y-100578126D01*
X50489585Y-100409604D01*
X50454000Y-100230703D01*
X50454000Y-100048297D01*
X50489585Y-99869396D01*
X50559389Y-99700874D01*
X50660728Y-99549209D01*
X50789709Y-99420228D01*
X50941374Y-99318889D01*
X51109896Y-99249085D01*
X51288797Y-99213500D01*
X51471203Y-99213500D01*
X51650104Y-99249085D01*
X51650104Y-99249085D01*
G37*
G36*
X47156000Y-99670500D02*
G01*
X45554000Y-99670500D01*
X45554000Y-98068500D01*
X47156000Y-98068500D01*
X47156000Y-99670500D01*
X47156000Y-99670500D01*
G37*
G36*
X44088642Y-98099281D02*
G01*
X44234414Y-98159662D01*
X44234416Y-98159663D01*
X44365608Y-98247322D01*
X44477178Y-98358892D01*
X44564837Y-98490084D01*
X44564838Y-98490086D01*
X44625219Y-98635858D01*
X44656000Y-98790607D01*
X44656000Y-98948393D01*
X44625219Y-99103142D01*
X44579507Y-99213500D01*
X44564837Y-99248916D01*
X44477178Y-99380108D01*
X44365608Y-99491678D01*
X44234416Y-99579337D01*
X44234415Y-99579338D01*
X44234414Y-99579338D01*
X44088642Y-99639719D01*
X43933893Y-99670500D01*
X43776107Y-99670500D01*
X43621358Y-99639719D01*
X43475586Y-99579338D01*
X43475585Y-99579338D01*
X43475584Y-99579337D01*
X43344392Y-99491678D01*
X43232822Y-99380108D01*
X43145163Y-99248916D01*
X43130493Y-99213500D01*
X43084781Y-99103142D01*
X43054000Y-98948393D01*
X43054000Y-98790607D01*
X43084781Y-98635858D01*
X43145162Y-98490086D01*
X43145163Y-98490084D01*
X43232822Y-98358892D01*
X43344392Y-98247322D01*
X43475584Y-98159663D01*
X43475586Y-98159662D01*
X43621358Y-98099281D01*
X43776107Y-98068500D01*
X43933893Y-98068500D01*
X44088642Y-98099281D01*
X44088642Y-98099281D01*
G37*
G36*
X41441000Y-99670500D02*
G01*
X39839000Y-99670500D01*
X39839000Y-98068500D01*
X41441000Y-98068500D01*
X41441000Y-99670500D01*
X41441000Y-99670500D01*
G37*
G36*
X38373642Y-98099281D02*
G01*
X38519414Y-98159662D01*
X38519416Y-98159663D01*
X38650608Y-98247322D01*
X38762178Y-98358892D01*
X38849837Y-98490084D01*
X38849838Y-98490086D01*
X38910219Y-98635858D01*
X38941000Y-98790607D01*
X38941000Y-98948393D01*
X38910219Y-99103142D01*
X38864507Y-99213500D01*
X38849837Y-99248916D01*
X38762178Y-99380108D01*
X38650608Y-99491678D01*
X38519416Y-99579337D01*
X38519415Y-99579338D01*
X38519414Y-99579338D01*
X38373642Y-99639719D01*
X38218893Y-99670500D01*
X38061107Y-99670500D01*
X37906358Y-99639719D01*
X37760586Y-99579338D01*
X37760585Y-99579338D01*
X37760584Y-99579337D01*
X37629392Y-99491678D01*
X37517822Y-99380108D01*
X37430163Y-99248916D01*
X37415493Y-99213500D01*
X37369781Y-99103142D01*
X37339000Y-98948393D01*
X37339000Y-98790607D01*
X37369781Y-98635858D01*
X37430162Y-98490086D01*
X37430163Y-98490084D01*
X37517822Y-98358892D01*
X37629392Y-98247322D01*
X37760584Y-98159663D01*
X37760586Y-98159662D01*
X37906358Y-98099281D01*
X38061107Y-98068500D01*
X38218893Y-98068500D01*
X38373642Y-98099281D01*
X38373642Y-98099281D01*
G37*
G36*
X57344795Y-96569656D02*
G01*
X57451150Y-96590811D01*
X57651520Y-96673807D01*
X57831844Y-96794295D01*
X57985205Y-96947656D01*
X58105693Y-97127980D01*
X58188689Y-97328351D01*
X58231000Y-97541060D01*
X58231000Y-97757940D01*
X58188689Y-97970649D01*
X58105693Y-98171020D01*
X57985205Y-98351344D01*
X57831844Y-98504705D01*
X57651520Y-98625193D01*
X57625772Y-98635858D01*
X57451150Y-98708189D01*
X57344795Y-98729344D01*
X57238440Y-98750500D01*
X57021560Y-98750500D01*
X56915206Y-98729345D01*
X56808850Y-98708189D01*
X56634228Y-98635858D01*
X56608480Y-98625193D01*
X56428156Y-98504705D01*
X56274795Y-98351344D01*
X56154307Y-98171020D01*
X56071311Y-97970649D01*
X56029000Y-97757940D01*
X56029000Y-97541060D01*
X56071311Y-97328351D01*
X56154307Y-97127980D01*
X56274795Y-96947656D01*
X56428156Y-96794295D01*
X56608480Y-96673807D01*
X56708666Y-96632309D01*
X56808850Y-96590811D01*
X56915205Y-96569656D01*
X57021560Y-96548500D01*
X57238440Y-96548500D01*
X57344795Y-96569656D01*
X57344795Y-96569656D01*
G37*
G36*
X50334795Y-96569656D02*
G01*
X50441150Y-96590811D01*
X50641520Y-96673807D01*
X50821844Y-96794295D01*
X50975205Y-96947656D01*
X51095693Y-97127980D01*
X51178689Y-97328351D01*
X51221000Y-97541060D01*
X51221000Y-97757940D01*
X51178689Y-97970649D01*
X51095693Y-98171020D01*
X50975205Y-98351344D01*
X50821844Y-98504705D01*
X50641520Y-98625193D01*
X50615772Y-98635858D01*
X50441150Y-98708189D01*
X50334795Y-98729344D01*
X50228440Y-98750500D01*
X50011560Y-98750500D01*
X49905206Y-98729345D01*
X49798850Y-98708189D01*
X49624228Y-98635858D01*
X49598480Y-98625193D01*
X49418156Y-98504705D01*
X49264795Y-98351344D01*
X49144307Y-98171020D01*
X49061311Y-97970649D01*
X49019000Y-97757940D01*
X49019000Y-97541060D01*
X49061311Y-97328351D01*
X49144307Y-97127980D01*
X49264795Y-96947656D01*
X49418156Y-96794295D01*
X49598480Y-96673807D01*
X49698666Y-96632309D01*
X49798850Y-96590811D01*
X49905205Y-96569656D01*
X50011560Y-96548500D01*
X50228440Y-96548500D01*
X50334795Y-96569656D01*
X50334795Y-96569656D01*
G37*
G36*
X86794192Y-94714646D02*
G01*
X86843414Y-94729578D01*
X86888778Y-94753826D01*
X86928542Y-94786458D01*
X86961174Y-94826222D01*
X86985422Y-94871586D01*
X87000354Y-94920808D01*
X87006000Y-94978140D01*
X87006000Y-96641860D01*
X87000354Y-96699192D01*
X86985422Y-96748414D01*
X86961174Y-96793778D01*
X86928542Y-96833542D01*
X86888778Y-96866174D01*
X86843414Y-96890422D01*
X86794192Y-96905354D01*
X86736860Y-96911000D01*
X85973140Y-96911000D01*
X85915808Y-96905354D01*
X85866586Y-96890422D01*
X85821222Y-96866174D01*
X85781458Y-96833542D01*
X85748826Y-96793778D01*
X85724578Y-96748414D01*
X85709646Y-96699192D01*
X85704000Y-96641860D01*
X85704000Y-94978140D01*
X85709646Y-94920808D01*
X85724578Y-94871586D01*
X85748826Y-94826222D01*
X85781458Y-94786458D01*
X85821222Y-94753826D01*
X85866586Y-94729578D01*
X85915808Y-94714646D01*
X85973140Y-94709000D01*
X86736860Y-94709000D01*
X86794192Y-94714646D01*
X86794192Y-94714646D01*
G37*
G36*
X80444192Y-94714646D02*
G01*
X80493414Y-94729578D01*
X80538778Y-94753826D01*
X80578542Y-94786458D01*
X80611174Y-94826222D01*
X80635422Y-94871586D01*
X80650354Y-94920808D01*
X80656000Y-94978140D01*
X80656000Y-96641860D01*
X80650354Y-96699192D01*
X80635422Y-96748414D01*
X80611174Y-96793778D01*
X80578542Y-96833542D01*
X80538778Y-96866174D01*
X80493414Y-96890422D01*
X80444192Y-96905354D01*
X80386860Y-96911000D01*
X79623140Y-96911000D01*
X79565808Y-96905354D01*
X79516586Y-96890422D01*
X79471222Y-96866174D01*
X79431458Y-96833542D01*
X79398826Y-96793778D01*
X79374578Y-96748414D01*
X79359646Y-96699192D01*
X79354000Y-96641860D01*
X79354000Y-94978140D01*
X79359646Y-94920808D01*
X79374578Y-94871586D01*
X79398826Y-94826222D01*
X79431458Y-94786458D01*
X79471222Y-94753826D01*
X79516586Y-94729578D01*
X79565808Y-94714646D01*
X79623140Y-94709000D01*
X80386860Y-94709000D01*
X80444192Y-94714646D01*
X80444192Y-94714646D01*
G37*
G36*
X82994192Y-94714646D02*
G01*
X83043414Y-94729578D01*
X83088778Y-94753826D01*
X83128542Y-94786458D01*
X83161174Y-94826222D01*
X83185422Y-94871586D01*
X83200354Y-94920808D01*
X83206000Y-94978140D01*
X83206000Y-96641860D01*
X83200354Y-96699192D01*
X83185422Y-96748414D01*
X83161174Y-96793778D01*
X83128542Y-96833542D01*
X83088778Y-96866174D01*
X83043414Y-96890422D01*
X82994192Y-96905354D01*
X82936860Y-96911000D01*
X82173140Y-96911000D01*
X82115808Y-96905354D01*
X82066586Y-96890422D01*
X82021222Y-96866174D01*
X81981458Y-96833542D01*
X81948826Y-96793778D01*
X81924578Y-96748414D01*
X81909646Y-96699192D01*
X81904000Y-96641860D01*
X81904000Y-94978140D01*
X81909646Y-94920808D01*
X81924578Y-94871586D01*
X81948826Y-94826222D01*
X81981458Y-94786458D01*
X82021222Y-94753826D01*
X82066586Y-94729578D01*
X82115808Y-94714646D01*
X82173140Y-94709000D01*
X82936860Y-94709000D01*
X82994192Y-94714646D01*
X82994192Y-94714646D01*
G37*
G36*
X76644192Y-94714646D02*
G01*
X76693414Y-94729578D01*
X76738778Y-94753826D01*
X76778542Y-94786458D01*
X76811174Y-94826222D01*
X76835422Y-94871586D01*
X76850354Y-94920808D01*
X76856000Y-94978140D01*
X76856000Y-96641860D01*
X76850354Y-96699192D01*
X76835422Y-96748414D01*
X76811174Y-96793778D01*
X76778542Y-96833542D01*
X76738778Y-96866174D01*
X76693414Y-96890422D01*
X76644192Y-96905354D01*
X76586860Y-96911000D01*
X75823140Y-96911000D01*
X75765808Y-96905354D01*
X75716586Y-96890422D01*
X75671222Y-96866174D01*
X75631458Y-96833542D01*
X75598826Y-96793778D01*
X75574578Y-96748414D01*
X75559646Y-96699192D01*
X75554000Y-96641860D01*
X75554000Y-94978140D01*
X75559646Y-94920808D01*
X75574578Y-94871586D01*
X75598826Y-94826222D01*
X75631458Y-94786458D01*
X75671222Y-94753826D01*
X75716586Y-94729578D01*
X75765808Y-94714646D01*
X75823140Y-94709000D01*
X76586860Y-94709000D01*
X76644192Y-94714646D01*
X76644192Y-94714646D01*
G37*
G36*
X74094192Y-94714646D02*
G01*
X74143414Y-94729578D01*
X74188778Y-94753826D01*
X74228542Y-94786458D01*
X74261174Y-94826222D01*
X74285422Y-94871586D01*
X74300354Y-94920808D01*
X74306000Y-94978140D01*
X74306000Y-96641860D01*
X74300354Y-96699192D01*
X74285422Y-96748414D01*
X74261174Y-96793778D01*
X74228542Y-96833542D01*
X74188778Y-96866174D01*
X74143414Y-96890422D01*
X74094192Y-96905354D01*
X74036860Y-96911000D01*
X73273140Y-96911000D01*
X73215808Y-96905354D01*
X73166586Y-96890422D01*
X73121222Y-96866174D01*
X73081458Y-96833542D01*
X73048826Y-96793778D01*
X73024578Y-96748414D01*
X73009646Y-96699192D01*
X73004000Y-96641860D01*
X73004000Y-94978140D01*
X73009646Y-94920808D01*
X73024578Y-94871586D01*
X73048826Y-94826222D01*
X73081458Y-94786458D01*
X73121222Y-94753826D01*
X73166586Y-94729578D01*
X73215808Y-94714646D01*
X73273140Y-94709000D01*
X74036860Y-94709000D01*
X74094192Y-94714646D01*
X74094192Y-94714646D01*
G37*
G36*
X89344192Y-94714646D02*
G01*
X89393414Y-94729578D01*
X89438778Y-94753826D01*
X89478542Y-94786458D01*
X89511174Y-94826222D01*
X89535422Y-94871586D01*
X89550354Y-94920808D01*
X89556000Y-94978140D01*
X89556000Y-96641860D01*
X89550354Y-96699192D01*
X89535422Y-96748414D01*
X89511174Y-96793778D01*
X89478542Y-96833542D01*
X89438778Y-96866174D01*
X89393414Y-96890422D01*
X89344192Y-96905354D01*
X89286860Y-96911000D01*
X88523140Y-96911000D01*
X88465808Y-96905354D01*
X88416586Y-96890422D01*
X88371222Y-96866174D01*
X88331458Y-96833542D01*
X88298826Y-96793778D01*
X88274578Y-96748414D01*
X88259646Y-96699192D01*
X88254000Y-96641860D01*
X88254000Y-94978140D01*
X88259646Y-94920808D01*
X88274578Y-94871586D01*
X88298826Y-94826222D01*
X88331458Y-94786458D01*
X88371222Y-94753826D01*
X88416586Y-94729578D01*
X88465808Y-94714646D01*
X88523140Y-94709000D01*
X89286860Y-94709000D01*
X89344192Y-94714646D01*
X89344192Y-94714646D01*
G37*
G36*
X93144192Y-94714646D02*
G01*
X93193414Y-94729578D01*
X93238778Y-94753826D01*
X93278542Y-94786458D01*
X93311174Y-94826222D01*
X93335422Y-94871586D01*
X93350354Y-94920808D01*
X93356000Y-94978140D01*
X93356000Y-96641860D01*
X93350354Y-96699192D01*
X93335422Y-96748414D01*
X93311174Y-96793778D01*
X93278542Y-96833542D01*
X93238778Y-96866174D01*
X93193414Y-96890422D01*
X93144192Y-96905354D01*
X93086860Y-96911000D01*
X92323140Y-96911000D01*
X92265808Y-96905354D01*
X92216586Y-96890422D01*
X92171222Y-96866174D01*
X92131458Y-96833542D01*
X92098826Y-96793778D01*
X92074578Y-96748414D01*
X92059646Y-96699192D01*
X92054000Y-96641860D01*
X92054000Y-94978140D01*
X92059646Y-94920808D01*
X92074578Y-94871586D01*
X92098826Y-94826222D01*
X92131458Y-94786458D01*
X92171222Y-94753826D01*
X92216586Y-94729578D01*
X92265808Y-94714646D01*
X92323140Y-94709000D01*
X93086860Y-94709000D01*
X93144192Y-94714646D01*
X93144192Y-94714646D01*
G37*
G36*
X70294192Y-94714646D02*
G01*
X70343414Y-94729578D01*
X70388778Y-94753826D01*
X70428542Y-94786458D01*
X70461174Y-94826222D01*
X70485422Y-94871586D01*
X70500354Y-94920808D01*
X70506000Y-94978140D01*
X70506000Y-96641860D01*
X70500354Y-96699192D01*
X70485422Y-96748414D01*
X70461174Y-96793778D01*
X70428542Y-96833542D01*
X70388778Y-96866174D01*
X70343414Y-96890422D01*
X70294192Y-96905354D01*
X70236860Y-96911000D01*
X69473140Y-96911000D01*
X69415808Y-96905354D01*
X69366586Y-96890422D01*
X69321222Y-96866174D01*
X69281458Y-96833542D01*
X69248826Y-96793778D01*
X69224578Y-96748414D01*
X69209646Y-96699192D01*
X69204000Y-96641860D01*
X69204000Y-94978140D01*
X69209646Y-94920808D01*
X69224578Y-94871586D01*
X69248826Y-94826222D01*
X69281458Y-94786458D01*
X69321222Y-94753826D01*
X69366586Y-94729578D01*
X69415808Y-94714646D01*
X69473140Y-94709000D01*
X70236860Y-94709000D01*
X70294192Y-94714646D01*
X70294192Y-94714646D01*
G37*
G36*
X102044192Y-94714646D02*
G01*
X102093414Y-94729578D01*
X102138778Y-94753826D01*
X102178542Y-94786458D01*
X102211174Y-94826222D01*
X102235422Y-94871586D01*
X102250354Y-94920808D01*
X102256000Y-94978140D01*
X102256000Y-96641860D01*
X102250354Y-96699192D01*
X102235422Y-96748414D01*
X102211174Y-96793778D01*
X102178542Y-96833542D01*
X102138778Y-96866174D01*
X102093414Y-96890422D01*
X102044192Y-96905354D01*
X101986860Y-96911000D01*
X101223140Y-96911000D01*
X101165808Y-96905354D01*
X101116586Y-96890422D01*
X101071222Y-96866174D01*
X101031458Y-96833542D01*
X100998826Y-96793778D01*
X100974578Y-96748414D01*
X100959646Y-96699192D01*
X100954000Y-96641860D01*
X100954000Y-94978140D01*
X100959646Y-94920808D01*
X100974578Y-94871586D01*
X100998826Y-94826222D01*
X101031458Y-94786458D01*
X101071222Y-94753826D01*
X101116586Y-94729578D01*
X101165808Y-94714646D01*
X101223140Y-94709000D01*
X101986860Y-94709000D01*
X102044192Y-94714646D01*
X102044192Y-94714646D01*
G37*
G36*
X105844192Y-94714646D02*
G01*
X105893414Y-94729578D01*
X105938778Y-94753826D01*
X105978542Y-94786458D01*
X106011174Y-94826222D01*
X106035422Y-94871586D01*
X106050354Y-94920808D01*
X106056000Y-94978140D01*
X106056000Y-96641860D01*
X106050354Y-96699192D01*
X106035422Y-96748414D01*
X106011174Y-96793778D01*
X105978542Y-96833542D01*
X105938778Y-96866174D01*
X105893414Y-96890422D01*
X105844192Y-96905354D01*
X105786860Y-96911000D01*
X105023140Y-96911000D01*
X104965808Y-96905354D01*
X104916586Y-96890422D01*
X104871222Y-96866174D01*
X104831458Y-96833542D01*
X104798826Y-96793778D01*
X104774578Y-96748414D01*
X104759646Y-96699192D01*
X104754000Y-96641860D01*
X104754000Y-94978140D01*
X104759646Y-94920808D01*
X104774578Y-94871586D01*
X104798826Y-94826222D01*
X104831458Y-94786458D01*
X104871222Y-94753826D01*
X104916586Y-94729578D01*
X104965808Y-94714646D01*
X105023140Y-94709000D01*
X105786860Y-94709000D01*
X105844192Y-94714646D01*
X105844192Y-94714646D01*
G37*
G36*
X67807692Y-94714646D02*
G01*
X67856914Y-94729578D01*
X67902278Y-94753826D01*
X67942042Y-94786458D01*
X67974674Y-94826222D01*
X67998922Y-94871586D01*
X68013854Y-94920808D01*
X68019500Y-94978140D01*
X68019500Y-96641860D01*
X68013854Y-96699192D01*
X67998922Y-96748414D01*
X67974674Y-96793778D01*
X67942042Y-96833542D01*
X67902278Y-96866174D01*
X67856914Y-96890422D01*
X67807692Y-96905354D01*
X67750360Y-96911000D01*
X66986640Y-96911000D01*
X66929308Y-96905354D01*
X66880086Y-96890422D01*
X66834722Y-96866174D01*
X66794958Y-96833542D01*
X66762326Y-96793778D01*
X66738078Y-96748414D01*
X66723146Y-96699192D01*
X66717500Y-96641860D01*
X66717500Y-94978140D01*
X66723146Y-94920808D01*
X66738078Y-94871586D01*
X66762326Y-94826222D01*
X66794958Y-94786458D01*
X66834722Y-94753826D01*
X66880086Y-94729578D01*
X66929308Y-94714646D01*
X66986640Y-94709000D01*
X67750360Y-94709000D01*
X67807692Y-94714646D01*
X67807692Y-94714646D01*
G37*
G36*
X64007692Y-94714646D02*
G01*
X64056914Y-94729578D01*
X64102278Y-94753826D01*
X64142042Y-94786458D01*
X64174674Y-94826222D01*
X64198922Y-94871586D01*
X64213854Y-94920808D01*
X64219500Y-94978140D01*
X64219500Y-96641860D01*
X64213854Y-96699192D01*
X64198922Y-96748414D01*
X64174674Y-96793778D01*
X64142042Y-96833542D01*
X64102278Y-96866174D01*
X64056914Y-96890422D01*
X64007692Y-96905354D01*
X63950360Y-96911000D01*
X63186640Y-96911000D01*
X63129308Y-96905354D01*
X63080086Y-96890422D01*
X63034722Y-96866174D01*
X62994958Y-96833542D01*
X62962326Y-96793778D01*
X62938078Y-96748414D01*
X62923146Y-96699192D01*
X62917500Y-96641860D01*
X62917500Y-94978140D01*
X62923146Y-94920808D01*
X62938078Y-94871586D01*
X62962326Y-94826222D01*
X62994958Y-94786458D01*
X63034722Y-94753826D01*
X63080086Y-94729578D01*
X63129308Y-94714646D01*
X63186640Y-94709000D01*
X63950360Y-94709000D01*
X64007692Y-94714646D01*
X64007692Y-94714646D01*
G37*
G36*
X95694192Y-94714646D02*
G01*
X95743414Y-94729578D01*
X95788778Y-94753826D01*
X95828542Y-94786458D01*
X95861174Y-94826222D01*
X95885422Y-94871586D01*
X95900354Y-94920808D01*
X95906000Y-94978140D01*
X95906000Y-96641860D01*
X95900354Y-96699192D01*
X95885422Y-96748414D01*
X95861174Y-96793778D01*
X95828542Y-96833542D01*
X95788778Y-96866174D01*
X95743414Y-96890422D01*
X95694192Y-96905354D01*
X95636860Y-96911000D01*
X94873140Y-96911000D01*
X94815808Y-96905354D01*
X94766586Y-96890422D01*
X94721222Y-96866174D01*
X94681458Y-96833542D01*
X94648826Y-96793778D01*
X94624578Y-96748414D01*
X94609646Y-96699192D01*
X94604000Y-96641860D01*
X94604000Y-94978140D01*
X94609646Y-94920808D01*
X94624578Y-94871586D01*
X94648826Y-94826222D01*
X94681458Y-94786458D01*
X94721222Y-94753826D01*
X94766586Y-94729578D01*
X94815808Y-94714646D01*
X94873140Y-94709000D01*
X95636860Y-94709000D01*
X95694192Y-94714646D01*
X95694192Y-94714646D01*
G37*
G36*
X108394192Y-94714646D02*
G01*
X108443414Y-94729578D01*
X108488778Y-94753826D01*
X108528542Y-94786458D01*
X108561174Y-94826222D01*
X108585422Y-94871586D01*
X108600354Y-94920808D01*
X108606000Y-94978140D01*
X108606000Y-96641860D01*
X108600354Y-96699192D01*
X108585422Y-96748414D01*
X108561174Y-96793778D01*
X108528542Y-96833542D01*
X108488778Y-96866174D01*
X108443414Y-96890422D01*
X108394192Y-96905354D01*
X108336860Y-96911000D01*
X107573140Y-96911000D01*
X107515808Y-96905354D01*
X107466586Y-96890422D01*
X107421222Y-96866174D01*
X107381458Y-96833542D01*
X107348826Y-96793778D01*
X107324578Y-96748414D01*
X107309646Y-96699192D01*
X107304000Y-96641860D01*
X107304000Y-94978140D01*
X107309646Y-94920808D01*
X107324578Y-94871586D01*
X107348826Y-94826222D01*
X107381458Y-94786458D01*
X107421222Y-94753826D01*
X107466586Y-94729578D01*
X107515808Y-94714646D01*
X107573140Y-94709000D01*
X108336860Y-94709000D01*
X108394192Y-94714646D01*
X108394192Y-94714646D01*
G37*
G36*
X112194192Y-94714646D02*
G01*
X112243414Y-94729578D01*
X112288778Y-94753826D01*
X112328542Y-94786458D01*
X112361174Y-94826222D01*
X112385422Y-94871586D01*
X112400354Y-94920808D01*
X112406000Y-94978140D01*
X112406000Y-96641860D01*
X112400354Y-96699192D01*
X112385422Y-96748414D01*
X112361174Y-96793778D01*
X112328542Y-96833542D01*
X112288778Y-96866174D01*
X112243414Y-96890422D01*
X112194192Y-96905354D01*
X112136860Y-96911000D01*
X111373140Y-96911000D01*
X111315808Y-96905354D01*
X111266586Y-96890422D01*
X111221222Y-96866174D01*
X111181458Y-96833542D01*
X111148826Y-96793778D01*
X111124578Y-96748414D01*
X111109646Y-96699192D01*
X111104000Y-96641860D01*
X111104000Y-94978140D01*
X111109646Y-94920808D01*
X111124578Y-94871586D01*
X111148826Y-94826222D01*
X111181458Y-94786458D01*
X111221222Y-94753826D01*
X111266586Y-94729578D01*
X111315808Y-94714646D01*
X111373140Y-94709000D01*
X112136860Y-94709000D01*
X112194192Y-94714646D01*
X112194192Y-94714646D01*
G37*
G36*
X99494192Y-94714646D02*
G01*
X99543414Y-94729578D01*
X99588778Y-94753826D01*
X99628542Y-94786458D01*
X99661174Y-94826222D01*
X99685422Y-94871586D01*
X99700354Y-94920808D01*
X99706000Y-94978140D01*
X99706000Y-96641860D01*
X99700354Y-96699192D01*
X99685422Y-96748414D01*
X99661174Y-96793778D01*
X99628542Y-96833542D01*
X99588778Y-96866174D01*
X99543414Y-96890422D01*
X99494192Y-96905354D01*
X99436860Y-96911000D01*
X98673140Y-96911000D01*
X98615808Y-96905354D01*
X98566586Y-96890422D01*
X98521222Y-96866174D01*
X98481458Y-96833542D01*
X98448826Y-96793778D01*
X98424578Y-96748414D01*
X98409646Y-96699192D01*
X98404000Y-96641860D01*
X98404000Y-94978140D01*
X98409646Y-94920808D01*
X98424578Y-94871586D01*
X98448826Y-94826222D01*
X98481458Y-94786458D01*
X98521222Y-94753826D01*
X98566586Y-94729578D01*
X98615808Y-94714646D01*
X98673140Y-94709000D01*
X99436860Y-94709000D01*
X99494192Y-94714646D01*
X99494192Y-94714646D01*
G37*
G36*
X54223228Y-93161703D02*
G01*
X54378100Y-93225853D01*
X54517481Y-93318985D01*
X54636015Y-93437519D01*
X54729147Y-93576900D01*
X54793297Y-93731772D01*
X54826000Y-93896184D01*
X54826000Y-94063816D01*
X54793297Y-94228228D01*
X54729147Y-94383100D01*
X54636015Y-94522481D01*
X54517481Y-94641015D01*
X54378100Y-94734147D01*
X54223228Y-94798297D01*
X54058816Y-94831000D01*
X53891184Y-94831000D01*
X53726772Y-94798297D01*
X53571900Y-94734147D01*
X53432519Y-94641015D01*
X53313985Y-94522481D01*
X53220853Y-94383100D01*
X53156703Y-94228228D01*
X53124000Y-94063816D01*
X53124000Y-93896184D01*
X53156703Y-93731772D01*
X53220853Y-93576900D01*
X53313985Y-93437519D01*
X53432519Y-93318985D01*
X53571900Y-93225853D01*
X53726772Y-93161703D01*
X53891184Y-93129000D01*
X54058816Y-93129000D01*
X54223228Y-93161703D01*
X54223228Y-93161703D01*
G37*
G36*
X49696823Y-93141313D02*
G01*
X49857242Y-93189976D01*
X49924361Y-93225852D01*
X50005078Y-93268996D01*
X50134659Y-93375341D01*
X50241004Y-93504922D01*
X50241005Y-93504924D01*
X50320024Y-93652758D01*
X50368687Y-93813177D01*
X50385117Y-93980000D01*
X50368687Y-94146823D01*
X50320024Y-94307242D01*
X50279477Y-94383100D01*
X50241004Y-94455078D01*
X50134659Y-94584659D01*
X50005078Y-94691004D01*
X50005076Y-94691005D01*
X49857242Y-94770024D01*
X49696823Y-94818687D01*
X49571804Y-94831000D01*
X49488196Y-94831000D01*
X49363177Y-94818687D01*
X49202758Y-94770024D01*
X49054924Y-94691005D01*
X49054922Y-94691004D01*
X48925341Y-94584659D01*
X48818996Y-94455078D01*
X48780523Y-94383100D01*
X48739976Y-94307242D01*
X48691313Y-94146823D01*
X48674883Y-93980000D01*
X48691313Y-93813177D01*
X48739976Y-93652758D01*
X48818995Y-93504924D01*
X48818996Y-93504922D01*
X48925341Y-93375341D01*
X49054922Y-93268996D01*
X49135639Y-93225852D01*
X49202758Y-93189976D01*
X49363177Y-93141313D01*
X49488196Y-93129000D01*
X49571804Y-93129000D01*
X49696823Y-93141313D01*
X49696823Y-93141313D01*
G37*
G36*
X46521823Y-93141313D02*
G01*
X46682242Y-93189976D01*
X46749361Y-93225852D01*
X46830078Y-93268996D01*
X46959659Y-93375341D01*
X47066004Y-93504922D01*
X47066005Y-93504924D01*
X47145024Y-93652758D01*
X47193687Y-93813177D01*
X47210117Y-93980000D01*
X47193687Y-94146823D01*
X47145024Y-94307242D01*
X47104477Y-94383100D01*
X47066004Y-94455078D01*
X46959659Y-94584659D01*
X46830078Y-94691004D01*
X46830076Y-94691005D01*
X46682242Y-94770024D01*
X46521823Y-94818687D01*
X46396804Y-94831000D01*
X46313196Y-94831000D01*
X46188177Y-94818687D01*
X46027758Y-94770024D01*
X45879924Y-94691005D01*
X45879922Y-94691004D01*
X45750341Y-94584659D01*
X45643996Y-94455078D01*
X45605523Y-94383100D01*
X45564976Y-94307242D01*
X45516313Y-94146823D01*
X45499883Y-93980000D01*
X45516313Y-93813177D01*
X45564976Y-93652758D01*
X45643995Y-93504924D01*
X45643996Y-93504922D01*
X45750341Y-93375341D01*
X45879922Y-93268996D01*
X45960639Y-93225852D01*
X46027758Y-93189976D01*
X46188177Y-93141313D01*
X46313196Y-93129000D01*
X46396804Y-93129000D01*
X46521823Y-93141313D01*
X46521823Y-93141313D01*
G37*
G36*
X66357692Y-92064646D02*
G01*
X66406914Y-92079578D01*
X66452278Y-92103826D01*
X66492042Y-92136458D01*
X66524674Y-92176222D01*
X66548922Y-92221586D01*
X66563854Y-92270808D01*
X66569500Y-92328140D01*
X66569500Y-93091860D01*
X66563854Y-93149192D01*
X66548922Y-93198414D01*
X66524674Y-93243778D01*
X66492042Y-93283542D01*
X66452278Y-93316174D01*
X66406914Y-93340422D01*
X66357692Y-93355354D01*
X66300360Y-93361000D01*
X64636640Y-93361000D01*
X64579308Y-93355354D01*
X64530086Y-93340422D01*
X64484722Y-93316174D01*
X64444958Y-93283542D01*
X64412326Y-93243778D01*
X64388078Y-93198414D01*
X64373146Y-93149192D01*
X64367500Y-93091860D01*
X64367500Y-92328140D01*
X64373146Y-92270808D01*
X64388078Y-92221586D01*
X64412326Y-92176222D01*
X64444958Y-92136458D01*
X64484722Y-92103826D01*
X64530086Y-92079578D01*
X64579308Y-92064646D01*
X64636640Y-92059000D01*
X66300360Y-92059000D01*
X66357692Y-92064646D01*
X66357692Y-92064646D01*
G37*
G36*
X110744192Y-92064646D02*
G01*
X110793414Y-92079578D01*
X110838778Y-92103826D01*
X110878542Y-92136458D01*
X110911174Y-92176222D01*
X110935422Y-92221586D01*
X110950354Y-92270808D01*
X110956000Y-92328140D01*
X110956000Y-93091860D01*
X110950354Y-93149192D01*
X110935422Y-93198414D01*
X110911174Y-93243778D01*
X110878542Y-93283542D01*
X110838778Y-93316174D01*
X110793414Y-93340422D01*
X110744192Y-93355354D01*
X110686860Y-93361000D01*
X109023140Y-93361000D01*
X108965808Y-93355354D01*
X108916586Y-93340422D01*
X108871222Y-93316174D01*
X108831458Y-93283542D01*
X108798826Y-93243778D01*
X108774578Y-93198414D01*
X108759646Y-93149192D01*
X108754000Y-93091860D01*
X108754000Y-92328140D01*
X108759646Y-92270808D01*
X108774578Y-92221586D01*
X108798826Y-92176222D01*
X108831458Y-92136458D01*
X108871222Y-92103826D01*
X108916586Y-92079578D01*
X108965808Y-92064646D01*
X109023140Y-92059000D01*
X110686860Y-92059000D01*
X110744192Y-92064646D01*
X110744192Y-92064646D01*
G37*
G36*
X104394192Y-92064646D02*
G01*
X104443414Y-92079578D01*
X104488778Y-92103826D01*
X104528542Y-92136458D01*
X104561174Y-92176222D01*
X104585422Y-92221586D01*
X104600354Y-92270808D01*
X104606000Y-92328140D01*
X104606000Y-93091860D01*
X104600354Y-93149192D01*
X104585422Y-93198414D01*
X104561174Y-93243778D01*
X104528542Y-93283542D01*
X104488778Y-93316174D01*
X104443414Y-93340422D01*
X104394192Y-93355354D01*
X104336860Y-93361000D01*
X102673140Y-93361000D01*
X102615808Y-93355354D01*
X102566586Y-93340422D01*
X102521222Y-93316174D01*
X102481458Y-93283542D01*
X102448826Y-93243778D01*
X102424578Y-93198414D01*
X102409646Y-93149192D01*
X102404000Y-93091860D01*
X102404000Y-92328140D01*
X102409646Y-92270808D01*
X102424578Y-92221586D01*
X102448826Y-92176222D01*
X102481458Y-92136458D01*
X102521222Y-92103826D01*
X102566586Y-92079578D01*
X102615808Y-92064646D01*
X102673140Y-92059000D01*
X104336860Y-92059000D01*
X104394192Y-92064646D01*
X104394192Y-92064646D01*
G37*
G36*
X98044192Y-92064646D02*
G01*
X98093414Y-92079578D01*
X98138778Y-92103826D01*
X98178542Y-92136458D01*
X98211174Y-92176222D01*
X98235422Y-92221586D01*
X98250354Y-92270808D01*
X98256000Y-92328140D01*
X98256000Y-93091860D01*
X98250354Y-93149192D01*
X98235422Y-93198414D01*
X98211174Y-93243778D01*
X98178542Y-93283542D01*
X98138778Y-93316174D01*
X98093414Y-93340422D01*
X98044192Y-93355354D01*
X97986860Y-93361000D01*
X96323140Y-93361000D01*
X96265808Y-93355354D01*
X96216586Y-93340422D01*
X96171222Y-93316174D01*
X96131458Y-93283542D01*
X96098826Y-93243778D01*
X96074578Y-93198414D01*
X96059646Y-93149192D01*
X96054000Y-93091860D01*
X96054000Y-92328140D01*
X96059646Y-92270808D01*
X96074578Y-92221586D01*
X96098826Y-92176222D01*
X96131458Y-92136458D01*
X96171222Y-92103826D01*
X96216586Y-92079578D01*
X96265808Y-92064646D01*
X96323140Y-92059000D01*
X97986860Y-92059000D01*
X98044192Y-92064646D01*
X98044192Y-92064646D01*
G37*
G36*
X91694192Y-92064646D02*
G01*
X91743414Y-92079578D01*
X91788778Y-92103826D01*
X91828542Y-92136458D01*
X91861174Y-92176222D01*
X91885422Y-92221586D01*
X91900354Y-92270808D01*
X91906000Y-92328140D01*
X91906000Y-93091860D01*
X91900354Y-93149192D01*
X91885422Y-93198414D01*
X91861174Y-93243778D01*
X91828542Y-93283542D01*
X91788778Y-93316174D01*
X91743414Y-93340422D01*
X91694192Y-93355354D01*
X91636860Y-93361000D01*
X89973140Y-93361000D01*
X89915808Y-93355354D01*
X89866586Y-93340422D01*
X89821222Y-93316174D01*
X89781458Y-93283542D01*
X89748826Y-93243778D01*
X89724578Y-93198414D01*
X89709646Y-93149192D01*
X89704000Y-93091860D01*
X89704000Y-92328140D01*
X89709646Y-92270808D01*
X89724578Y-92221586D01*
X89748826Y-92176222D01*
X89781458Y-92136458D01*
X89821222Y-92103826D01*
X89866586Y-92079578D01*
X89915808Y-92064646D01*
X89973140Y-92059000D01*
X91636860Y-92059000D01*
X91694192Y-92064646D01*
X91694192Y-92064646D01*
G37*
G36*
X78994192Y-92064646D02*
G01*
X79043414Y-92079578D01*
X79088778Y-92103826D01*
X79128542Y-92136458D01*
X79161174Y-92176222D01*
X79185422Y-92221586D01*
X79200354Y-92270808D01*
X79206000Y-92328140D01*
X79206000Y-93091860D01*
X79200354Y-93149192D01*
X79185422Y-93198414D01*
X79161174Y-93243778D01*
X79128542Y-93283542D01*
X79088778Y-93316174D01*
X79043414Y-93340422D01*
X78994192Y-93355354D01*
X78936860Y-93361000D01*
X77273140Y-93361000D01*
X77215808Y-93355354D01*
X77166586Y-93340422D01*
X77121222Y-93316174D01*
X77081458Y-93283542D01*
X77048826Y-93243778D01*
X77024578Y-93198414D01*
X77009646Y-93149192D01*
X77004000Y-93091860D01*
X77004000Y-92328140D01*
X77009646Y-92270808D01*
X77024578Y-92221586D01*
X77048826Y-92176222D01*
X77081458Y-92136458D01*
X77121222Y-92103826D01*
X77166586Y-92079578D01*
X77215808Y-92064646D01*
X77273140Y-92059000D01*
X78936860Y-92059000D01*
X78994192Y-92064646D01*
X78994192Y-92064646D01*
G37*
G36*
X72644192Y-92064646D02*
G01*
X72693414Y-92079578D01*
X72738778Y-92103826D01*
X72778542Y-92136458D01*
X72811174Y-92176222D01*
X72835422Y-92221586D01*
X72850354Y-92270808D01*
X72856000Y-92328140D01*
X72856000Y-93091860D01*
X72850354Y-93149192D01*
X72835422Y-93198414D01*
X72811174Y-93243778D01*
X72778542Y-93283542D01*
X72738778Y-93316174D01*
X72693414Y-93340422D01*
X72644192Y-93355354D01*
X72586860Y-93361000D01*
X70923140Y-93361000D01*
X70865808Y-93355354D01*
X70816586Y-93340422D01*
X70771222Y-93316174D01*
X70731458Y-93283542D01*
X70698826Y-93243778D01*
X70674578Y-93198414D01*
X70659646Y-93149192D01*
X70654000Y-93091860D01*
X70654000Y-92328140D01*
X70659646Y-92270808D01*
X70674578Y-92221586D01*
X70698826Y-92176222D01*
X70731458Y-92136458D01*
X70771222Y-92103826D01*
X70816586Y-92079578D01*
X70865808Y-92064646D01*
X70923140Y-92059000D01*
X72586860Y-92059000D01*
X72644192Y-92064646D01*
X72644192Y-92064646D01*
G37*
G36*
X85344192Y-92064646D02*
G01*
X85393414Y-92079578D01*
X85438778Y-92103826D01*
X85478542Y-92136458D01*
X85511174Y-92176222D01*
X85535422Y-92221586D01*
X85550354Y-92270808D01*
X85556000Y-92328140D01*
X85556000Y-93091860D01*
X85550354Y-93149192D01*
X85535422Y-93198414D01*
X85511174Y-93243778D01*
X85478542Y-93283542D01*
X85438778Y-93316174D01*
X85393414Y-93340422D01*
X85344192Y-93355354D01*
X85286860Y-93361000D01*
X83623140Y-93361000D01*
X83565808Y-93355354D01*
X83516586Y-93340422D01*
X83471222Y-93316174D01*
X83431458Y-93283542D01*
X83398826Y-93243778D01*
X83374578Y-93198414D01*
X83359646Y-93149192D01*
X83354000Y-93091860D01*
X83354000Y-92328140D01*
X83359646Y-92270808D01*
X83374578Y-92221586D01*
X83398826Y-92176222D01*
X83431458Y-92136458D01*
X83471222Y-92103826D01*
X83516586Y-92079578D01*
X83565808Y-92064646D01*
X83623140Y-92059000D01*
X85286860Y-92059000D01*
X85344192Y-92064646D01*
X85344192Y-92064646D01*
G37*
G36*
X117035787Y-85585462D02*
G01*
X117035790Y-85585463D01*
X117035789Y-85585463D01*
X117682029Y-85853144D01*
X118263631Y-86241758D01*
X118758242Y-86736369D01*
X119146856Y-87317971D01*
X119263535Y-87599659D01*
X119414538Y-87964213D01*
X119551000Y-88650256D01*
X119551000Y-89349744D01*
X119414538Y-90035787D01*
X119414537Y-90035789D01*
X119146856Y-90682029D01*
X118758242Y-91263631D01*
X118263631Y-91758242D01*
X117682029Y-92146856D01*
X117409027Y-92259937D01*
X117035787Y-92414538D01*
X116349744Y-92551000D01*
X115650256Y-92551000D01*
X114964213Y-92414538D01*
X114590973Y-92259937D01*
X114317971Y-92146856D01*
X113736369Y-91758242D01*
X113241758Y-91263631D01*
X112853144Y-90682029D01*
X112585463Y-90035789D01*
X112585462Y-90035787D01*
X112449000Y-89349744D01*
X112449000Y-88650256D01*
X112585462Y-87964213D01*
X112736465Y-87599659D01*
X112853144Y-87317971D01*
X113241758Y-86736369D01*
X113736369Y-86241758D01*
X114317971Y-85853144D01*
X114964211Y-85585463D01*
X114964210Y-85585463D01*
X114964213Y-85585462D01*
X115650256Y-85449000D01*
X116349744Y-85449000D01*
X117035787Y-85585462D01*
X117035787Y-85585462D01*
G37*
G36*
X37035787Y-85585462D02*
G01*
X37035790Y-85585463D01*
X37035789Y-85585463D01*
X37682029Y-85853144D01*
X38263631Y-86241758D01*
X38758242Y-86736369D01*
X39146856Y-87317971D01*
X39263535Y-87599659D01*
X39414538Y-87964213D01*
X39551000Y-88650256D01*
X39551000Y-89349744D01*
X39414538Y-90035787D01*
X39414537Y-90035789D01*
X39146856Y-90682029D01*
X38758242Y-91263631D01*
X38263631Y-91758242D01*
X37682029Y-92146856D01*
X37409027Y-92259937D01*
X37035787Y-92414538D01*
X36349744Y-92551000D01*
X35650256Y-92551000D01*
X34964213Y-92414538D01*
X34590973Y-92259937D01*
X34317971Y-92146856D01*
X33736369Y-91758242D01*
X33241758Y-91263631D01*
X32853144Y-90682029D01*
X32585463Y-90035789D01*
X32585462Y-90035787D01*
X32449000Y-89349744D01*
X32449000Y-88650256D01*
X32585462Y-87964213D01*
X32736465Y-87599659D01*
X32853144Y-87317971D01*
X33241758Y-86736369D01*
X33736369Y-86241758D01*
X34317971Y-85853144D01*
X34964211Y-85585463D01*
X34964210Y-85585463D01*
X34964213Y-85585462D01*
X35650256Y-85449000D01*
X36349744Y-85449000D01*
X37035787Y-85585462D01*
X37035787Y-85585462D01*
G37*
G36*
X73191823Y-86156313D02*
G01*
X73352242Y-86204976D01*
X73421056Y-86241758D01*
X73500078Y-86283996D01*
X73629659Y-86390341D01*
X73736004Y-86519922D01*
X73736005Y-86519924D01*
X73815024Y-86667758D01*
X73863687Y-86828177D01*
X73880117Y-86995000D01*
X73863687Y-87161823D01*
X73815024Y-87322242D01*
X73744114Y-87454906D01*
X73736004Y-87470078D01*
X73629659Y-87599659D01*
X73500078Y-87706004D01*
X73500076Y-87706005D01*
X73352242Y-87785024D01*
X73191823Y-87833687D01*
X73066804Y-87846000D01*
X72983196Y-87846000D01*
X72858177Y-87833687D01*
X72697758Y-87785024D01*
X72549924Y-87706005D01*
X72549922Y-87706004D01*
X72420341Y-87599659D01*
X72313996Y-87470078D01*
X72305886Y-87454906D01*
X72234976Y-87322242D01*
X72186313Y-87161823D01*
X72169883Y-86995000D01*
X72186313Y-86828177D01*
X72234976Y-86667758D01*
X72313995Y-86519924D01*
X72313996Y-86519922D01*
X72420341Y-86390341D01*
X72549922Y-86283996D01*
X72628944Y-86241758D01*
X72697758Y-86204976D01*
X72858177Y-86156313D01*
X72983196Y-86144000D01*
X73066804Y-86144000D01*
X73191823Y-86156313D01*
X73191823Y-86156313D01*
G37*
G36*
X68796000Y-87846000D02*
G01*
X67094000Y-87846000D01*
X67094000Y-86144000D01*
X68796000Y-86144000D01*
X68796000Y-87846000D01*
X68796000Y-87846000D01*
G37*
G36*
X70651823Y-86156313D02*
G01*
X70812242Y-86204976D01*
X70881056Y-86241758D01*
X70960078Y-86283996D01*
X71089659Y-86390341D01*
X71196004Y-86519922D01*
X71196005Y-86519924D01*
X71275024Y-86667758D01*
X71323687Y-86828177D01*
X71340117Y-86995000D01*
X71323687Y-87161823D01*
X71275024Y-87322242D01*
X71204114Y-87454906D01*
X71196004Y-87470078D01*
X71089659Y-87599659D01*
X70960078Y-87706004D01*
X70960076Y-87706005D01*
X70812242Y-87785024D01*
X70651823Y-87833687D01*
X70526804Y-87846000D01*
X70443196Y-87846000D01*
X70318177Y-87833687D01*
X70157758Y-87785024D01*
X70009924Y-87706005D01*
X70009922Y-87706004D01*
X69880341Y-87599659D01*
X69773996Y-87470078D01*
X69765886Y-87454906D01*
X69694976Y-87322242D01*
X69646313Y-87161823D01*
X69629883Y-86995000D01*
X69646313Y-86828177D01*
X69694976Y-86667758D01*
X69773995Y-86519924D01*
X69773996Y-86519922D01*
X69880341Y-86390341D01*
X70009922Y-86283996D01*
X70088944Y-86241758D01*
X70157758Y-86204976D01*
X70318177Y-86156313D01*
X70443196Y-86144000D01*
X70526804Y-86144000D01*
X70651823Y-86156313D01*
X70651823Y-86156313D01*
G37*
G36*
X75731823Y-86156313D02*
G01*
X75892242Y-86204976D01*
X75961056Y-86241758D01*
X76040078Y-86283996D01*
X76169659Y-86390341D01*
X76276004Y-86519922D01*
X76276005Y-86519924D01*
X76355024Y-86667758D01*
X76403687Y-86828177D01*
X76420117Y-86995000D01*
X76403687Y-87161823D01*
X76355024Y-87322242D01*
X76284114Y-87454906D01*
X76276004Y-87470078D01*
X76169659Y-87599659D01*
X76040078Y-87706004D01*
X76040076Y-87706005D01*
X75892242Y-87785024D01*
X75731823Y-87833687D01*
X75606804Y-87846000D01*
X75523196Y-87846000D01*
X75398177Y-87833687D01*
X75237758Y-87785024D01*
X75089924Y-87706005D01*
X75089922Y-87706004D01*
X74960341Y-87599659D01*
X74853996Y-87470078D01*
X74845886Y-87454906D01*
X74774976Y-87322242D01*
X74726313Y-87161823D01*
X74709883Y-86995000D01*
X74726313Y-86828177D01*
X74774976Y-86667758D01*
X74853995Y-86519924D01*
X74853996Y-86519922D01*
X74960341Y-86390341D01*
X75089922Y-86283996D01*
X75168944Y-86241758D01*
X75237758Y-86204976D01*
X75398177Y-86156313D01*
X75523196Y-86144000D01*
X75606804Y-86144000D01*
X75731823Y-86156313D01*
X75731823Y-86156313D01*
G37*
G36*
X83351823Y-86156313D02*
G01*
X83512242Y-86204976D01*
X83581056Y-86241758D01*
X83660078Y-86283996D01*
X83789659Y-86390341D01*
X83896004Y-86519922D01*
X83896005Y-86519924D01*
X83975024Y-86667758D01*
X84023687Y-86828177D01*
X84040117Y-86995000D01*
X84023687Y-87161823D01*
X83975024Y-87322242D01*
X83904114Y-87454906D01*
X83896004Y-87470078D01*
X83789659Y-87599659D01*
X83660078Y-87706004D01*
X83660076Y-87706005D01*
X83512242Y-87785024D01*
X83351823Y-87833687D01*
X83226804Y-87846000D01*
X83143196Y-87846000D01*
X83018177Y-87833687D01*
X82857758Y-87785024D01*
X82709924Y-87706005D01*
X82709922Y-87706004D01*
X82580341Y-87599659D01*
X82473996Y-87470078D01*
X82465886Y-87454906D01*
X82394976Y-87322242D01*
X82346313Y-87161823D01*
X82329883Y-86995000D01*
X82346313Y-86828177D01*
X82394976Y-86667758D01*
X82473995Y-86519924D01*
X82473996Y-86519922D01*
X82580341Y-86390341D01*
X82709922Y-86283996D01*
X82788944Y-86241758D01*
X82857758Y-86204976D01*
X83018177Y-86156313D01*
X83143196Y-86144000D01*
X83226804Y-86144000D01*
X83351823Y-86156313D01*
X83351823Y-86156313D01*
G37*
G36*
X80811823Y-86156313D02*
G01*
X80972242Y-86204976D01*
X81041056Y-86241758D01*
X81120078Y-86283996D01*
X81249659Y-86390341D01*
X81356004Y-86519922D01*
X81356005Y-86519924D01*
X81435024Y-86667758D01*
X81483687Y-86828177D01*
X81500117Y-86995000D01*
X81483687Y-87161823D01*
X81435024Y-87322242D01*
X81364114Y-87454906D01*
X81356004Y-87470078D01*
X81249659Y-87599659D01*
X81120078Y-87706004D01*
X81120076Y-87706005D01*
X80972242Y-87785024D01*
X80811823Y-87833687D01*
X80686804Y-87846000D01*
X80603196Y-87846000D01*
X80478177Y-87833687D01*
X80317758Y-87785024D01*
X80169924Y-87706005D01*
X80169922Y-87706004D01*
X80040341Y-87599659D01*
X79933996Y-87470078D01*
X79925886Y-87454906D01*
X79854976Y-87322242D01*
X79806313Y-87161823D01*
X79789883Y-86995000D01*
X79806313Y-86828177D01*
X79854976Y-86667758D01*
X79933995Y-86519924D01*
X79933996Y-86519922D01*
X80040341Y-86390341D01*
X80169922Y-86283996D01*
X80248944Y-86241758D01*
X80317758Y-86204976D01*
X80478177Y-86156313D01*
X80603196Y-86144000D01*
X80686804Y-86144000D01*
X80811823Y-86156313D01*
X80811823Y-86156313D01*
G37*
G36*
X78271823Y-86156313D02*
G01*
X78432242Y-86204976D01*
X78501056Y-86241758D01*
X78580078Y-86283996D01*
X78709659Y-86390341D01*
X78816004Y-86519922D01*
X78816005Y-86519924D01*
X78895024Y-86667758D01*
X78943687Y-86828177D01*
X78960117Y-86995000D01*
X78943687Y-87161823D01*
X78895024Y-87322242D01*
X78824114Y-87454906D01*
X78816004Y-87470078D01*
X78709659Y-87599659D01*
X78580078Y-87706004D01*
X78580076Y-87706005D01*
X78432242Y-87785024D01*
X78271823Y-87833687D01*
X78146804Y-87846000D01*
X78063196Y-87846000D01*
X77938177Y-87833687D01*
X77777758Y-87785024D01*
X77629924Y-87706005D01*
X77629922Y-87706004D01*
X77500341Y-87599659D01*
X77393996Y-87470078D01*
X77385886Y-87454906D01*
X77314976Y-87322242D01*
X77266313Y-87161823D01*
X77249883Y-86995000D01*
X77266313Y-86828177D01*
X77314976Y-86667758D01*
X77393995Y-86519924D01*
X77393996Y-86519922D01*
X77500341Y-86390341D01*
X77629922Y-86283996D01*
X77708944Y-86241758D01*
X77777758Y-86204976D01*
X77938177Y-86156313D01*
X78063196Y-86144000D01*
X78146804Y-86144000D01*
X78271823Y-86156313D01*
X78271823Y-86156313D01*
G37*
G36*
X85891823Y-86156313D02*
G01*
X86052242Y-86204976D01*
X86121056Y-86241758D01*
X86200078Y-86283996D01*
X86329659Y-86390341D01*
X86436004Y-86519922D01*
X86436005Y-86519924D01*
X86515024Y-86667758D01*
X86563687Y-86828177D01*
X86580117Y-86995000D01*
X86563687Y-87161823D01*
X86515024Y-87322242D01*
X86444114Y-87454906D01*
X86436004Y-87470078D01*
X86329659Y-87599659D01*
X86200078Y-87706004D01*
X86200076Y-87706005D01*
X86052242Y-87785024D01*
X85891823Y-87833687D01*
X85766804Y-87846000D01*
X85683196Y-87846000D01*
X85558177Y-87833687D01*
X85397758Y-87785024D01*
X85249924Y-87706005D01*
X85249922Y-87706004D01*
X85120341Y-87599659D01*
X85013996Y-87470078D01*
X85005886Y-87454906D01*
X84934976Y-87322242D01*
X84886313Y-87161823D01*
X84869883Y-86995000D01*
X84886313Y-86828177D01*
X84934976Y-86667758D01*
X85013995Y-86519924D01*
X85013996Y-86519922D01*
X85120341Y-86390341D01*
X85249922Y-86283996D01*
X85328944Y-86241758D01*
X85397758Y-86204976D01*
X85558177Y-86156313D01*
X85683196Y-86144000D01*
X85766804Y-86144000D01*
X85891823Y-86156313D01*
X85891823Y-86156313D01*
G37*
G36*
X46603228Y-83001703D02*
G01*
X46758100Y-83065853D01*
X46897481Y-83158985D01*
X47016015Y-83277519D01*
X47109147Y-83416900D01*
X47173297Y-83571772D01*
X47206000Y-83736184D01*
X47206000Y-83903816D01*
X47173297Y-84068228D01*
X47109147Y-84223100D01*
X47016015Y-84362481D01*
X46897481Y-84481015D01*
X46758100Y-84574147D01*
X46603228Y-84638297D01*
X46438816Y-84671000D01*
X46271184Y-84671000D01*
X46106772Y-84638297D01*
X45951900Y-84574147D01*
X45812519Y-84481015D01*
X45693985Y-84362481D01*
X45600853Y-84223100D01*
X45536703Y-84068228D01*
X45504000Y-83903816D01*
X45504000Y-83736184D01*
X45536703Y-83571772D01*
X45600853Y-83416900D01*
X45693985Y-83277519D01*
X45812519Y-83158985D01*
X45951900Y-83065853D01*
X46106772Y-83001703D01*
X46271184Y-82969000D01*
X46438816Y-82969000D01*
X46603228Y-83001703D01*
X46603228Y-83001703D01*
G37*
G36*
X54141823Y-82981313D02*
G01*
X54302242Y-83029976D01*
X54369361Y-83065852D01*
X54450078Y-83108996D01*
X54579659Y-83215341D01*
X54686004Y-83344922D01*
X54686005Y-83344924D01*
X54765024Y-83492758D01*
X54813687Y-83653177D01*
X54830117Y-83820000D01*
X54813687Y-83986823D01*
X54765024Y-84147242D01*
X54724477Y-84223100D01*
X54686004Y-84295078D01*
X54579659Y-84424659D01*
X54450078Y-84531004D01*
X54450076Y-84531005D01*
X54302242Y-84610024D01*
X54141823Y-84658687D01*
X54016804Y-84671000D01*
X53933196Y-84671000D01*
X53808177Y-84658687D01*
X53647758Y-84610024D01*
X53499924Y-84531005D01*
X53499922Y-84531004D01*
X53370341Y-84424659D01*
X53263996Y-84295078D01*
X53225523Y-84223100D01*
X53184976Y-84147242D01*
X53136313Y-83986823D01*
X53119883Y-83820000D01*
X53136313Y-83653177D01*
X53184976Y-83492758D01*
X53263995Y-83344924D01*
X53263996Y-83344922D01*
X53370341Y-83215341D01*
X53499922Y-83108996D01*
X53580639Y-83065852D01*
X53647758Y-83029976D01*
X53808177Y-82981313D01*
X53933196Y-82969000D01*
X54016804Y-82969000D01*
X54141823Y-82981313D01*
X54141823Y-82981313D01*
G37*
G36*
X49778228Y-83001703D02*
G01*
X49933100Y-83065853D01*
X50072481Y-83158985D01*
X50191015Y-83277519D01*
X50284147Y-83416900D01*
X50348297Y-83571772D01*
X50381000Y-83736184D01*
X50381000Y-83903816D01*
X50348297Y-84068228D01*
X50284147Y-84223100D01*
X50191015Y-84362481D01*
X50072481Y-84481015D01*
X49933100Y-84574147D01*
X49778228Y-84638297D01*
X49613816Y-84671000D01*
X49446184Y-84671000D01*
X49281772Y-84638297D01*
X49126900Y-84574147D01*
X48987519Y-84481015D01*
X48868985Y-84362481D01*
X48775853Y-84223100D01*
X48711703Y-84068228D01*
X48679000Y-83903816D01*
X48679000Y-83736184D01*
X48711703Y-83571772D01*
X48775853Y-83416900D01*
X48868985Y-83277519D01*
X48987519Y-83158985D01*
X49126900Y-83065853D01*
X49281772Y-83001703D01*
X49446184Y-82969000D01*
X49613816Y-82969000D01*
X49778228Y-83001703D01*
X49778228Y-83001703D01*
G37*
G36*
X91606823Y-82346313D02*
G01*
X91767242Y-82394976D01*
X91834361Y-82430852D01*
X91915078Y-82473996D01*
X92044659Y-82580341D01*
X92151004Y-82709922D01*
X92151005Y-82709924D01*
X92230024Y-82857758D01*
X92278687Y-83018177D01*
X92295117Y-83185000D01*
X92278687Y-83351823D01*
X92230024Y-83512242D01*
X92189477Y-83588100D01*
X92151004Y-83660078D01*
X92044659Y-83789659D01*
X91915078Y-83896004D01*
X91915076Y-83896005D01*
X91767242Y-83975024D01*
X91606823Y-84023687D01*
X91481804Y-84036000D01*
X91398196Y-84036000D01*
X91273177Y-84023687D01*
X91112758Y-83975024D01*
X90964924Y-83896005D01*
X90964922Y-83896004D01*
X90835341Y-83789659D01*
X90728996Y-83660078D01*
X90690523Y-83588100D01*
X90649976Y-83512242D01*
X90601313Y-83351823D01*
X90584883Y-83185000D01*
X90601313Y-83018177D01*
X90649976Y-82857758D01*
X90728995Y-82709924D01*
X90728996Y-82709922D01*
X90835341Y-82580341D01*
X90964922Y-82473996D01*
X91045639Y-82430852D01*
X91112758Y-82394976D01*
X91273177Y-82346313D01*
X91398196Y-82334000D01*
X91481804Y-82334000D01*
X91606823Y-82346313D01*
X91606823Y-82346313D01*
G37*
G36*
X101848228Y-82366703D02*
G01*
X102003100Y-82430853D01*
X102142481Y-82523985D01*
X102261015Y-82642519D01*
X102354147Y-82781900D01*
X102418297Y-82936772D01*
X102451000Y-83101184D01*
X102451000Y-83268816D01*
X102418297Y-83433228D01*
X102354147Y-83588100D01*
X102261015Y-83727481D01*
X102142481Y-83846015D01*
X102003100Y-83939147D01*
X101848228Y-84003297D01*
X101683816Y-84036000D01*
X101516184Y-84036000D01*
X101351772Y-84003297D01*
X101196900Y-83939147D01*
X101057519Y-83846015D01*
X100938985Y-83727481D01*
X100845853Y-83588100D01*
X100781703Y-83433228D01*
X100749000Y-83268816D01*
X100749000Y-83101184D01*
X100781703Y-82936772D01*
X100845853Y-82781900D01*
X100938985Y-82642519D01*
X101057519Y-82523985D01*
X101196900Y-82430853D01*
X101351772Y-82366703D01*
X101516184Y-82334000D01*
X101683816Y-82334000D01*
X101848228Y-82366703D01*
X101848228Y-82366703D01*
G37*
G36*
X65018228Y-81056703D02*
G01*
X65173100Y-81120853D01*
X65312481Y-81213985D01*
X65431015Y-81332519D01*
X65524147Y-81471900D01*
X65588297Y-81626772D01*
X65621000Y-81791184D01*
X65621000Y-81958816D01*
X65588297Y-82123228D01*
X65524147Y-82278100D01*
X65431015Y-82417481D01*
X65312481Y-82536015D01*
X65173100Y-82629147D01*
X65018228Y-82693297D01*
X64853816Y-82726000D01*
X64686184Y-82726000D01*
X64521772Y-82693297D01*
X64366900Y-82629147D01*
X64227519Y-82536015D01*
X64108985Y-82417481D01*
X64015853Y-82278100D01*
X63951703Y-82123228D01*
X63919000Y-81958816D01*
X63919000Y-81791184D01*
X63951703Y-81626772D01*
X64015853Y-81471900D01*
X64108985Y-81332519D01*
X64227519Y-81213985D01*
X64366900Y-81120853D01*
X64521772Y-81056703D01*
X64686184Y-81024000D01*
X64853816Y-81024000D01*
X65018228Y-81056703D01*
X65018228Y-81056703D01*
G37*
G36*
X91606823Y-79171313D02*
G01*
X91767242Y-79219976D01*
X91834361Y-79255852D01*
X91915078Y-79298996D01*
X92044659Y-79405341D01*
X92151004Y-79534922D01*
X92151005Y-79534924D01*
X92230024Y-79682758D01*
X92278687Y-79843177D01*
X92295117Y-80010000D01*
X92278687Y-80176823D01*
X92230024Y-80337242D01*
X92159114Y-80469906D01*
X92151004Y-80485078D01*
X92044659Y-80614659D01*
X91915078Y-80721004D01*
X91915076Y-80721005D01*
X91767242Y-80800024D01*
X91606823Y-80848687D01*
X91481804Y-80861000D01*
X91398196Y-80861000D01*
X91273177Y-80848687D01*
X91112758Y-80800024D01*
X90964924Y-80721005D01*
X90964922Y-80721004D01*
X90835341Y-80614659D01*
X90728996Y-80485078D01*
X90720886Y-80469906D01*
X90649976Y-80337242D01*
X90601313Y-80176823D01*
X90584883Y-80010000D01*
X90601313Y-79843177D01*
X90649976Y-79682758D01*
X90728995Y-79534924D01*
X90728996Y-79534922D01*
X90835341Y-79405341D01*
X90964922Y-79298996D01*
X91045639Y-79255852D01*
X91112758Y-79219976D01*
X91273177Y-79171313D01*
X91398196Y-79159000D01*
X91481804Y-79159000D01*
X91606823Y-79171313D01*
X91606823Y-79171313D01*
G37*
G36*
X101848228Y-79191703D02*
G01*
X102003100Y-79255853D01*
X102142481Y-79348985D01*
X102261015Y-79467519D01*
X102354147Y-79606900D01*
X102418297Y-79761772D01*
X102451000Y-79926184D01*
X102451000Y-80093816D01*
X102418297Y-80258228D01*
X102354147Y-80413100D01*
X102261015Y-80552481D01*
X102142481Y-80671015D01*
X102003100Y-80764147D01*
X101848228Y-80828297D01*
X101683816Y-80861000D01*
X101516184Y-80861000D01*
X101351772Y-80828297D01*
X101196900Y-80764147D01*
X101057519Y-80671015D01*
X100938985Y-80552481D01*
X100845853Y-80413100D01*
X100781703Y-80258228D01*
X100749000Y-80093816D01*
X100749000Y-79926184D01*
X100781703Y-79761772D01*
X100845853Y-79606900D01*
X100938985Y-79467519D01*
X101057519Y-79348985D01*
X101196900Y-79255853D01*
X101351772Y-79191703D01*
X101516184Y-79159000D01*
X101683816Y-79159000D01*
X101848228Y-79191703D01*
X101848228Y-79191703D01*
G37*
G36*
X122352000Y-80442000D02*
G01*
X120218000Y-80442000D01*
X120218000Y-78308000D01*
X122352000Y-78308000D01*
X122352000Y-80442000D01*
X122352000Y-80442000D01*
G37*
G36*
X65018228Y-78556703D02*
G01*
X65173100Y-78620853D01*
X65312481Y-78713985D01*
X65431015Y-78832519D01*
X65524147Y-78971900D01*
X65588297Y-79126772D01*
X65621000Y-79291184D01*
X65621000Y-79458816D01*
X65588297Y-79623228D01*
X65524147Y-79778100D01*
X65431015Y-79917481D01*
X65312481Y-80036015D01*
X65173100Y-80129147D01*
X65018228Y-80193297D01*
X64853816Y-80226000D01*
X64686184Y-80226000D01*
X64521772Y-80193297D01*
X64366900Y-80129147D01*
X64227519Y-80036015D01*
X64108985Y-79917481D01*
X64015853Y-79778100D01*
X63951703Y-79623228D01*
X63919000Y-79458816D01*
X63919000Y-79291184D01*
X63951703Y-79126772D01*
X64015853Y-78971900D01*
X64108985Y-78832519D01*
X64227519Y-78713985D01*
X64366900Y-78620853D01*
X64521772Y-78556703D01*
X64686184Y-78524000D01*
X64853816Y-78524000D01*
X65018228Y-78556703D01*
X65018228Y-78556703D01*
G37*
G36*
X80811823Y-78536313D02*
G01*
X80972242Y-78584976D01*
X81039361Y-78620852D01*
X81120078Y-78663996D01*
X81249659Y-78770341D01*
X81356004Y-78899922D01*
X81356005Y-78899924D01*
X81435024Y-79047758D01*
X81483687Y-79208177D01*
X81500117Y-79375000D01*
X81483687Y-79541823D01*
X81435024Y-79702242D01*
X81394477Y-79778100D01*
X81356004Y-79850078D01*
X81249659Y-79979659D01*
X81120078Y-80086004D01*
X81120076Y-80086005D01*
X80972242Y-80165024D01*
X80811823Y-80213687D01*
X80686804Y-80226000D01*
X80603196Y-80226000D01*
X80478177Y-80213687D01*
X80317758Y-80165024D01*
X80169924Y-80086005D01*
X80169922Y-80086004D01*
X80040341Y-79979659D01*
X79933996Y-79850078D01*
X79895523Y-79778100D01*
X79854976Y-79702242D01*
X79806313Y-79541823D01*
X79789883Y-79375000D01*
X79806313Y-79208177D01*
X79854976Y-79047758D01*
X79933995Y-78899924D01*
X79933996Y-78899922D01*
X80040341Y-78770341D01*
X80169922Y-78663996D01*
X80250639Y-78620852D01*
X80317758Y-78584976D01*
X80478177Y-78536313D01*
X80603196Y-78524000D01*
X80686804Y-78524000D01*
X80811823Y-78536313D01*
X80811823Y-78536313D01*
G37*
G36*
X68111823Y-78536313D02*
G01*
X68272242Y-78584976D01*
X68339361Y-78620852D01*
X68420078Y-78663996D01*
X68549659Y-78770341D01*
X68656004Y-78899922D01*
X68656005Y-78899924D01*
X68735024Y-79047758D01*
X68783687Y-79208177D01*
X68800117Y-79375000D01*
X68783687Y-79541823D01*
X68735024Y-79702242D01*
X68694477Y-79778100D01*
X68656004Y-79850078D01*
X68549659Y-79979659D01*
X68420078Y-80086004D01*
X68420076Y-80086005D01*
X68272242Y-80165024D01*
X68111823Y-80213687D01*
X67986804Y-80226000D01*
X67903196Y-80226000D01*
X67778177Y-80213687D01*
X67617758Y-80165024D01*
X67469924Y-80086005D01*
X67469922Y-80086004D01*
X67340341Y-79979659D01*
X67233996Y-79850078D01*
X67195523Y-79778100D01*
X67154976Y-79702242D01*
X67106313Y-79541823D01*
X67089883Y-79375000D01*
X67106313Y-79208177D01*
X67154976Y-79047758D01*
X67233995Y-78899924D01*
X67233996Y-78899922D01*
X67340341Y-78770341D01*
X67469922Y-78663996D01*
X67550639Y-78620852D01*
X67617758Y-78584976D01*
X67778177Y-78536313D01*
X67903196Y-78524000D01*
X67986804Y-78524000D01*
X68111823Y-78536313D01*
X68111823Y-78536313D01*
G37*
G36*
X73191823Y-78536313D02*
G01*
X73352242Y-78584976D01*
X73419361Y-78620852D01*
X73500078Y-78663996D01*
X73629659Y-78770341D01*
X73736004Y-78899922D01*
X73736005Y-78899924D01*
X73815024Y-79047758D01*
X73863687Y-79208177D01*
X73880117Y-79375000D01*
X73863687Y-79541823D01*
X73815024Y-79702242D01*
X73774477Y-79778100D01*
X73736004Y-79850078D01*
X73629659Y-79979659D01*
X73500078Y-80086004D01*
X73500076Y-80086005D01*
X73352242Y-80165024D01*
X73191823Y-80213687D01*
X73066804Y-80226000D01*
X72983196Y-80226000D01*
X72858177Y-80213687D01*
X72697758Y-80165024D01*
X72549924Y-80086005D01*
X72549922Y-80086004D01*
X72420341Y-79979659D01*
X72313996Y-79850078D01*
X72275523Y-79778100D01*
X72234976Y-79702242D01*
X72186313Y-79541823D01*
X72169883Y-79375000D01*
X72186313Y-79208177D01*
X72234976Y-79047758D01*
X72313995Y-78899924D01*
X72313996Y-78899922D01*
X72420341Y-78770341D01*
X72549922Y-78663996D01*
X72630639Y-78620852D01*
X72697758Y-78584976D01*
X72858177Y-78536313D01*
X72983196Y-78524000D01*
X73066804Y-78524000D01*
X73191823Y-78536313D01*
X73191823Y-78536313D01*
G37*
G36*
X70651823Y-78536313D02*
G01*
X70812242Y-78584976D01*
X70879361Y-78620852D01*
X70960078Y-78663996D01*
X71089659Y-78770341D01*
X71196004Y-78899922D01*
X71196005Y-78899924D01*
X71275024Y-79047758D01*
X71323687Y-79208177D01*
X71340117Y-79375000D01*
X71323687Y-79541823D01*
X71275024Y-79702242D01*
X71234477Y-79778100D01*
X71196004Y-79850078D01*
X71089659Y-79979659D01*
X70960078Y-80086004D01*
X70960076Y-80086005D01*
X70812242Y-80165024D01*
X70651823Y-80213687D01*
X70526804Y-80226000D01*
X70443196Y-80226000D01*
X70318177Y-80213687D01*
X70157758Y-80165024D01*
X70009924Y-80086005D01*
X70009922Y-80086004D01*
X69880341Y-79979659D01*
X69773996Y-79850078D01*
X69735523Y-79778100D01*
X69694976Y-79702242D01*
X69646313Y-79541823D01*
X69629883Y-79375000D01*
X69646313Y-79208177D01*
X69694976Y-79047758D01*
X69773995Y-78899924D01*
X69773996Y-78899922D01*
X69880341Y-78770341D01*
X70009922Y-78663996D01*
X70090639Y-78620852D01*
X70157758Y-78584976D01*
X70318177Y-78536313D01*
X70443196Y-78524000D01*
X70526804Y-78524000D01*
X70651823Y-78536313D01*
X70651823Y-78536313D01*
G37*
G36*
X78271823Y-78536313D02*
G01*
X78432242Y-78584976D01*
X78499361Y-78620852D01*
X78580078Y-78663996D01*
X78709659Y-78770341D01*
X78816004Y-78899922D01*
X78816005Y-78899924D01*
X78895024Y-79047758D01*
X78943687Y-79208177D01*
X78960117Y-79375000D01*
X78943687Y-79541823D01*
X78895024Y-79702242D01*
X78854477Y-79778100D01*
X78816004Y-79850078D01*
X78709659Y-79979659D01*
X78580078Y-80086004D01*
X78580076Y-80086005D01*
X78432242Y-80165024D01*
X78271823Y-80213687D01*
X78146804Y-80226000D01*
X78063196Y-80226000D01*
X77938177Y-80213687D01*
X77777758Y-80165024D01*
X77629924Y-80086005D01*
X77629922Y-80086004D01*
X77500341Y-79979659D01*
X77393996Y-79850078D01*
X77355523Y-79778100D01*
X77314976Y-79702242D01*
X77266313Y-79541823D01*
X77249883Y-79375000D01*
X77266313Y-79208177D01*
X77314976Y-79047758D01*
X77393995Y-78899924D01*
X77393996Y-78899922D01*
X77500341Y-78770341D01*
X77629922Y-78663996D01*
X77710639Y-78620852D01*
X77777758Y-78584976D01*
X77938177Y-78536313D01*
X78063196Y-78524000D01*
X78146804Y-78524000D01*
X78271823Y-78536313D01*
X78271823Y-78536313D01*
G37*
G36*
X75731823Y-78536313D02*
G01*
X75892242Y-78584976D01*
X75959361Y-78620852D01*
X76040078Y-78663996D01*
X76169659Y-78770341D01*
X76276004Y-78899922D01*
X76276005Y-78899924D01*
X76355024Y-79047758D01*
X76403687Y-79208177D01*
X76420117Y-79375000D01*
X76403687Y-79541823D01*
X76355024Y-79702242D01*
X76314477Y-79778100D01*
X76276004Y-79850078D01*
X76169659Y-79979659D01*
X76040078Y-80086004D01*
X76040076Y-80086005D01*
X75892242Y-80165024D01*
X75731823Y-80213687D01*
X75606804Y-80226000D01*
X75523196Y-80226000D01*
X75398177Y-80213687D01*
X75237758Y-80165024D01*
X75089924Y-80086005D01*
X75089922Y-80086004D01*
X74960341Y-79979659D01*
X74853996Y-79850078D01*
X74815523Y-79778100D01*
X74774976Y-79702242D01*
X74726313Y-79541823D01*
X74709883Y-79375000D01*
X74726313Y-79208177D01*
X74774976Y-79047758D01*
X74853995Y-78899924D01*
X74853996Y-78899922D01*
X74960341Y-78770341D01*
X75089922Y-78663996D01*
X75170639Y-78620852D01*
X75237758Y-78584976D01*
X75398177Y-78536313D01*
X75523196Y-78524000D01*
X75606804Y-78524000D01*
X75731823Y-78536313D01*
X75731823Y-78536313D01*
G37*
G36*
X85891823Y-78536313D02*
G01*
X86052242Y-78584976D01*
X86119361Y-78620852D01*
X86200078Y-78663996D01*
X86329659Y-78770341D01*
X86436004Y-78899922D01*
X86436005Y-78899924D01*
X86515024Y-79047758D01*
X86563687Y-79208177D01*
X86580117Y-79375000D01*
X86563687Y-79541823D01*
X86515024Y-79702242D01*
X86474477Y-79778100D01*
X86436004Y-79850078D01*
X86329659Y-79979659D01*
X86200078Y-80086004D01*
X86200076Y-80086005D01*
X86052242Y-80165024D01*
X85891823Y-80213687D01*
X85766804Y-80226000D01*
X85683196Y-80226000D01*
X85558177Y-80213687D01*
X85397758Y-80165024D01*
X85249924Y-80086005D01*
X85249922Y-80086004D01*
X85120341Y-79979659D01*
X85013996Y-79850078D01*
X84975523Y-79778100D01*
X84934976Y-79702242D01*
X84886313Y-79541823D01*
X84869883Y-79375000D01*
X84886313Y-79208177D01*
X84934976Y-79047758D01*
X85013995Y-78899924D01*
X85013996Y-78899922D01*
X85120341Y-78770341D01*
X85249922Y-78663996D01*
X85330639Y-78620852D01*
X85397758Y-78584976D01*
X85558177Y-78536313D01*
X85683196Y-78524000D01*
X85766804Y-78524000D01*
X85891823Y-78536313D01*
X85891823Y-78536313D01*
G37*
G36*
X83351823Y-78536313D02*
G01*
X83512242Y-78584976D01*
X83579361Y-78620852D01*
X83660078Y-78663996D01*
X83789659Y-78770341D01*
X83896004Y-78899922D01*
X83896005Y-78899924D01*
X83975024Y-79047758D01*
X84023687Y-79208177D01*
X84040117Y-79375000D01*
X84023687Y-79541823D01*
X83975024Y-79702242D01*
X83934477Y-79778100D01*
X83896004Y-79850078D01*
X83789659Y-79979659D01*
X83660078Y-80086004D01*
X83660076Y-80086005D01*
X83512242Y-80165024D01*
X83351823Y-80213687D01*
X83226804Y-80226000D01*
X83143196Y-80226000D01*
X83018177Y-80213687D01*
X82857758Y-80165024D01*
X82709924Y-80086005D01*
X82709922Y-80086004D01*
X82580341Y-79979659D01*
X82473996Y-79850078D01*
X82435523Y-79778100D01*
X82394976Y-79702242D01*
X82346313Y-79541823D01*
X82329883Y-79375000D01*
X82346313Y-79208177D01*
X82394976Y-79047758D01*
X82473995Y-78899924D01*
X82473996Y-78899922D01*
X82580341Y-78770341D01*
X82709922Y-78663996D01*
X82790639Y-78620852D01*
X82857758Y-78584976D01*
X83018177Y-78536313D01*
X83143196Y-78524000D01*
X83226804Y-78524000D01*
X83351823Y-78536313D01*
X83351823Y-78536313D01*
G37*
G36*
X121400114Y-75774176D02*
G01*
X121494168Y-75783439D01*
X121695299Y-75844451D01*
X121781110Y-75890318D01*
X121880661Y-75943529D01*
X122043133Y-76076867D01*
X122176471Y-76239339D01*
X122229682Y-76338890D01*
X122275549Y-76424701D01*
X122336561Y-76625832D01*
X122357162Y-76835000D01*
X122336561Y-77044168D01*
X122275549Y-77245299D01*
X122229682Y-77331110D01*
X122176471Y-77430661D01*
X122043133Y-77593133D01*
X121880661Y-77726471D01*
X121781110Y-77779682D01*
X121695299Y-77825549D01*
X121494168Y-77886561D01*
X121400114Y-77895824D01*
X121337413Y-77902000D01*
X121232587Y-77902000D01*
X121169886Y-77895824D01*
X121075832Y-77886561D01*
X120874701Y-77825549D01*
X120788890Y-77779682D01*
X120689339Y-77726471D01*
X120526867Y-77593133D01*
X120393529Y-77430661D01*
X120340318Y-77331110D01*
X120294451Y-77245299D01*
X120233439Y-77044168D01*
X120212838Y-76835000D01*
X120233439Y-76625832D01*
X120294451Y-76424701D01*
X120340318Y-76338890D01*
X120393529Y-76239339D01*
X120526867Y-76076867D01*
X120689339Y-75943529D01*
X120788890Y-75890318D01*
X120874701Y-75844451D01*
X121075832Y-75783439D01*
X121169886Y-75774176D01*
X121232587Y-75768000D01*
X121337413Y-75768000D01*
X121400114Y-75774176D01*
X121400114Y-75774176D01*
G37*
G36*
X60319098Y-70372033D02*
G01*
X60783350Y-70564332D01*
X60783352Y-70564333D01*
X61201168Y-70843509D01*
X61556491Y-71198832D01*
X61788349Y-71545832D01*
X61835668Y-71616650D01*
X62027967Y-72080902D01*
X62126000Y-72573747D01*
X62126000Y-73076253D01*
X62027967Y-73569098D01*
X61835668Y-74033350D01*
X61835667Y-74033352D01*
X61556491Y-74451168D01*
X61201168Y-74806491D01*
X60783352Y-75085667D01*
X60783351Y-75085668D01*
X60783350Y-75085668D01*
X60319098Y-75277967D01*
X59826253Y-75376000D01*
X59323747Y-75376000D01*
X58830902Y-75277967D01*
X58366650Y-75085668D01*
X58366649Y-75085668D01*
X58366648Y-75085667D01*
X57948832Y-74806491D01*
X57593509Y-74451168D01*
X57314333Y-74033352D01*
X57314332Y-74033350D01*
X57122033Y-73569098D01*
X57024000Y-73076253D01*
X57024000Y-72573747D01*
X57122033Y-72080902D01*
X57314332Y-71616650D01*
X57361651Y-71545832D01*
X57593509Y-71198832D01*
X57948832Y-70843509D01*
X58366648Y-70564333D01*
X58366650Y-70564332D01*
X58830902Y-70372033D01*
X59323747Y-70274000D01*
X59826253Y-70274000D01*
X60319098Y-70372033D01*
X60319098Y-70372033D01*
G37*
G36*
X112639098Y-70372033D02*
G01*
X113103350Y-70564332D01*
X113103352Y-70564333D01*
X113521168Y-70843509D01*
X113876491Y-71198832D01*
X114108349Y-71545832D01*
X114155668Y-71616650D01*
X114347967Y-72080902D01*
X114446000Y-72573747D01*
X114446000Y-73076253D01*
X114347967Y-73569098D01*
X114155668Y-74033350D01*
X114155667Y-74033352D01*
X113876491Y-74451168D01*
X113521168Y-74806491D01*
X113103352Y-75085667D01*
X113103351Y-75085668D01*
X113103350Y-75085668D01*
X112639098Y-75277967D01*
X112146253Y-75376000D01*
X111643747Y-75376000D01*
X111150902Y-75277967D01*
X110686650Y-75085668D01*
X110686649Y-75085668D01*
X110686648Y-75085667D01*
X110268832Y-74806491D01*
X109913509Y-74451168D01*
X109634333Y-74033352D01*
X109634332Y-74033350D01*
X109442033Y-73569098D01*
X109344000Y-73076253D01*
X109344000Y-72573747D01*
X109442033Y-72080902D01*
X109634332Y-71616650D01*
X109681651Y-71545832D01*
X109913509Y-71198832D01*
X110268832Y-70843509D01*
X110686648Y-70564333D01*
X110686650Y-70564332D01*
X111150902Y-70372033D01*
X111643747Y-70274000D01*
X112146253Y-70274000D01*
X112639098Y-70372033D01*
X112639098Y-70372033D01*
G37*
G36*
X121400114Y-73234176D02*
G01*
X121494168Y-73243439D01*
X121695299Y-73304451D01*
X121781110Y-73350318D01*
X121880661Y-73403529D01*
X122043133Y-73536867D01*
X122176471Y-73699339D01*
X122217844Y-73776743D01*
X122275549Y-73884701D01*
X122336561Y-74085832D01*
X122357162Y-74295000D01*
X122336561Y-74504168D01*
X122275549Y-74705299D01*
X122229682Y-74791110D01*
X122176471Y-74890661D01*
X122043133Y-75053133D01*
X121880661Y-75186471D01*
X121781110Y-75239682D01*
X121695299Y-75285549D01*
X121494168Y-75346561D01*
X121400114Y-75355824D01*
X121337413Y-75362000D01*
X121232587Y-75362000D01*
X121169886Y-75355824D01*
X121075832Y-75346561D01*
X120874701Y-75285549D01*
X120788890Y-75239682D01*
X120689339Y-75186471D01*
X120526867Y-75053133D01*
X120393529Y-74890661D01*
X120340318Y-74791110D01*
X120294451Y-74705299D01*
X120233439Y-74504168D01*
X120212838Y-74295000D01*
X120233439Y-74085832D01*
X120294451Y-73884701D01*
X120352156Y-73776743D01*
X120393529Y-73699339D01*
X120526867Y-73536867D01*
X120689339Y-73403529D01*
X120788890Y-73350318D01*
X120874701Y-73304451D01*
X121075832Y-73243439D01*
X121169886Y-73234176D01*
X121232587Y-73228000D01*
X121337413Y-73228000D01*
X121400114Y-73234176D01*
X121400114Y-73234176D01*
G37*
G36*
X98662142Y-73513242D02*
G01*
X98810101Y-73574529D01*
X98943255Y-73663499D01*
X99056501Y-73776745D01*
X99145471Y-73909899D01*
X99206758Y-74057858D01*
X99238000Y-74214925D01*
X99238000Y-74375075D01*
X99206758Y-74532142D01*
X99145471Y-74680101D01*
X99056501Y-74813255D01*
X98943255Y-74926501D01*
X98810101Y-75015471D01*
X98662142Y-75076758D01*
X98505075Y-75108000D01*
X98344925Y-75108000D01*
X98187858Y-75076758D01*
X98039899Y-75015471D01*
X97906745Y-74926501D01*
X97793499Y-74813255D01*
X97704529Y-74680101D01*
X97643242Y-74532142D01*
X97612000Y-74375075D01*
X97612000Y-74214925D01*
X97643242Y-74057858D01*
X97704529Y-73909899D01*
X97793499Y-73776745D01*
X97906745Y-73663499D01*
X98039899Y-73574529D01*
X98187858Y-73513242D01*
X98344925Y-73482000D01*
X98505075Y-73482000D01*
X98662142Y-73513242D01*
X98662142Y-73513242D01*
G37*
G36*
X96122142Y-73513242D02*
G01*
X96270101Y-73574529D01*
X96403255Y-73663499D01*
X96516501Y-73776745D01*
X96605471Y-73909899D01*
X96666758Y-74057858D01*
X96698000Y-74214925D01*
X96698000Y-74375075D01*
X96666758Y-74532142D01*
X96605471Y-74680101D01*
X96516501Y-74813255D01*
X96403255Y-74926501D01*
X96270101Y-75015471D01*
X96122142Y-75076758D01*
X95965075Y-75108000D01*
X95804925Y-75108000D01*
X95647858Y-75076758D01*
X95499899Y-75015471D01*
X95366745Y-74926501D01*
X95253499Y-74813255D01*
X95164529Y-74680101D01*
X95103242Y-74532142D01*
X95072000Y-74375075D01*
X95072000Y-74214925D01*
X95103242Y-74057858D01*
X95164529Y-73909899D01*
X95253499Y-73776745D01*
X95366745Y-73663499D01*
X95499899Y-73574529D01*
X95647858Y-73513242D01*
X95804925Y-73482000D01*
X95965075Y-73482000D01*
X96122142Y-73513242D01*
X96122142Y-73513242D01*
G37*
G36*
X101202142Y-73513242D02*
G01*
X101350101Y-73574529D01*
X101483255Y-73663499D01*
X101596501Y-73776745D01*
X101685471Y-73909899D01*
X101746758Y-74057858D01*
X101778000Y-74214925D01*
X101778000Y-74375075D01*
X101746758Y-74532142D01*
X101685471Y-74680101D01*
X101596501Y-74813255D01*
X101483255Y-74926501D01*
X101350101Y-75015471D01*
X101202142Y-75076758D01*
X101045075Y-75108000D01*
X100884925Y-75108000D01*
X100727858Y-75076758D01*
X100579899Y-75015471D01*
X100446745Y-74926501D01*
X100333499Y-74813255D01*
X100244529Y-74680101D01*
X100183242Y-74532142D01*
X100152000Y-74375075D01*
X100152000Y-74214925D01*
X100183242Y-74057858D01*
X100244529Y-73909899D01*
X100333499Y-73776745D01*
X100446745Y-73663499D01*
X100579899Y-73574529D01*
X100727858Y-73513242D01*
X100884925Y-73482000D01*
X101045075Y-73482000D01*
X101202142Y-73513242D01*
X101202142Y-73513242D01*
G37*
G36*
X103742142Y-73513242D02*
G01*
X103890101Y-73574529D01*
X104023255Y-73663499D01*
X104136501Y-73776745D01*
X104225471Y-73909899D01*
X104286758Y-74057858D01*
X104318000Y-74214925D01*
X104318000Y-74375075D01*
X104286758Y-74532142D01*
X104225471Y-74680101D01*
X104136501Y-74813255D01*
X104023255Y-74926501D01*
X103890101Y-75015471D01*
X103742142Y-75076758D01*
X103585075Y-75108000D01*
X103424925Y-75108000D01*
X103267858Y-75076758D01*
X103119899Y-75015471D01*
X102986745Y-74926501D01*
X102873499Y-74813255D01*
X102784529Y-74680101D01*
X102723242Y-74532142D01*
X102692000Y-74375075D01*
X102692000Y-74214925D01*
X102723242Y-74057858D01*
X102784529Y-73909899D01*
X102873499Y-73776745D01*
X102986745Y-73663499D01*
X103119899Y-73574529D01*
X103267858Y-73513242D01*
X103424925Y-73482000D01*
X103585075Y-73482000D01*
X103742142Y-73513242D01*
X103742142Y-73513242D01*
G37*
G36*
X88502142Y-73513242D02*
G01*
X88650101Y-73574529D01*
X88783255Y-73663499D01*
X88896501Y-73776745D01*
X88985471Y-73909899D01*
X89046758Y-74057858D01*
X89078000Y-74214925D01*
X89078000Y-74375075D01*
X89046758Y-74532142D01*
X88985471Y-74680101D01*
X88896501Y-74813255D01*
X88783255Y-74926501D01*
X88650101Y-75015471D01*
X88502142Y-75076758D01*
X88345075Y-75108000D01*
X88184925Y-75108000D01*
X88027858Y-75076758D01*
X87879899Y-75015471D01*
X87746745Y-74926501D01*
X87633499Y-74813255D01*
X87544529Y-74680101D01*
X87483242Y-74532142D01*
X87452000Y-74375075D01*
X87452000Y-74214925D01*
X87483242Y-74057858D01*
X87544529Y-73909899D01*
X87633499Y-73776745D01*
X87746745Y-73663499D01*
X87879899Y-73574529D01*
X88027858Y-73513242D01*
X88184925Y-73482000D01*
X88345075Y-73482000D01*
X88502142Y-73513242D01*
X88502142Y-73513242D01*
G37*
G36*
X91042142Y-73513242D02*
G01*
X91190101Y-73574529D01*
X91323255Y-73663499D01*
X91436501Y-73776745D01*
X91525471Y-73909899D01*
X91586758Y-74057858D01*
X91618000Y-74214925D01*
X91618000Y-74375075D01*
X91586758Y-74532142D01*
X91525471Y-74680101D01*
X91436501Y-74813255D01*
X91323255Y-74926501D01*
X91190101Y-75015471D01*
X91042142Y-75076758D01*
X90885075Y-75108000D01*
X90724925Y-75108000D01*
X90567858Y-75076758D01*
X90419899Y-75015471D01*
X90286745Y-74926501D01*
X90173499Y-74813255D01*
X90084529Y-74680101D01*
X90023242Y-74532142D01*
X89992000Y-74375075D01*
X89992000Y-74214925D01*
X90023242Y-74057858D01*
X90084529Y-73909899D01*
X90173499Y-73776745D01*
X90286745Y-73663499D01*
X90419899Y-73574529D01*
X90567858Y-73513242D01*
X90724925Y-73482000D01*
X90885075Y-73482000D01*
X91042142Y-73513242D01*
X91042142Y-73513242D01*
G37*
G36*
X83422142Y-73513242D02*
G01*
X83570101Y-73574529D01*
X83703255Y-73663499D01*
X83816501Y-73776745D01*
X83905471Y-73909899D01*
X83966758Y-74057858D01*
X83998000Y-74214925D01*
X83998000Y-74375075D01*
X83966758Y-74532142D01*
X83905471Y-74680101D01*
X83816501Y-74813255D01*
X83703255Y-74926501D01*
X83570101Y-75015471D01*
X83422142Y-75076758D01*
X83265075Y-75108000D01*
X83104925Y-75108000D01*
X82947858Y-75076758D01*
X82799899Y-75015471D01*
X82666745Y-74926501D01*
X82553499Y-74813255D01*
X82464529Y-74680101D01*
X82403242Y-74532142D01*
X82372000Y-74375075D01*
X82372000Y-74214925D01*
X82403242Y-74057858D01*
X82464529Y-73909899D01*
X82553499Y-73776745D01*
X82666745Y-73663499D01*
X82799899Y-73574529D01*
X82947858Y-73513242D01*
X83104925Y-73482000D01*
X83265075Y-73482000D01*
X83422142Y-73513242D01*
X83422142Y-73513242D01*
G37*
G36*
X80882142Y-73513242D02*
G01*
X81030101Y-73574529D01*
X81163255Y-73663499D01*
X81276501Y-73776745D01*
X81365471Y-73909899D01*
X81426758Y-74057858D01*
X81458000Y-74214925D01*
X81458000Y-74375075D01*
X81426758Y-74532142D01*
X81365471Y-74680101D01*
X81276501Y-74813255D01*
X81163255Y-74926501D01*
X81030101Y-75015471D01*
X80882142Y-75076758D01*
X80725075Y-75108000D01*
X80564925Y-75108000D01*
X80407858Y-75076758D01*
X80259899Y-75015471D01*
X80126745Y-74926501D01*
X80013499Y-74813255D01*
X79924529Y-74680101D01*
X79863242Y-74532142D01*
X79832000Y-74375075D01*
X79832000Y-74214925D01*
X79863242Y-74057858D01*
X79924529Y-73909899D01*
X80013499Y-73776745D01*
X80126745Y-73663499D01*
X80259899Y-73574529D01*
X80407858Y-73513242D01*
X80564925Y-73482000D01*
X80725075Y-73482000D01*
X80882142Y-73513242D01*
X80882142Y-73513242D01*
G37*
G36*
X78342142Y-73513242D02*
G01*
X78490101Y-73574529D01*
X78623255Y-73663499D01*
X78736501Y-73776745D01*
X78825471Y-73909899D01*
X78886758Y-74057858D01*
X78918000Y-74214925D01*
X78918000Y-74375075D01*
X78886758Y-74532142D01*
X78825471Y-74680101D01*
X78736501Y-74813255D01*
X78623255Y-74926501D01*
X78490101Y-75015471D01*
X78342142Y-75076758D01*
X78185075Y-75108000D01*
X78024925Y-75108000D01*
X77867858Y-75076758D01*
X77719899Y-75015471D01*
X77586745Y-74926501D01*
X77473499Y-74813255D01*
X77384529Y-74680101D01*
X77323242Y-74532142D01*
X77292000Y-74375075D01*
X77292000Y-74214925D01*
X77323242Y-74057858D01*
X77384529Y-73909899D01*
X77473499Y-73776745D01*
X77586745Y-73663499D01*
X77719899Y-73574529D01*
X77867858Y-73513242D01*
X78024925Y-73482000D01*
X78185075Y-73482000D01*
X78342142Y-73513242D01*
X78342142Y-73513242D01*
G37*
G36*
X75802142Y-73513242D02*
G01*
X75950101Y-73574529D01*
X76083255Y-73663499D01*
X76196501Y-73776745D01*
X76285471Y-73909899D01*
X76346758Y-74057858D01*
X76378000Y-74214925D01*
X76378000Y-74375075D01*
X76346758Y-74532142D01*
X76285471Y-74680101D01*
X76196501Y-74813255D01*
X76083255Y-74926501D01*
X75950101Y-75015471D01*
X75802142Y-75076758D01*
X75645075Y-75108000D01*
X75484925Y-75108000D01*
X75327858Y-75076758D01*
X75179899Y-75015471D01*
X75046745Y-74926501D01*
X74933499Y-74813255D01*
X74844529Y-74680101D01*
X74783242Y-74532142D01*
X74752000Y-74375075D01*
X74752000Y-74214925D01*
X74783242Y-74057858D01*
X74844529Y-73909899D01*
X74933499Y-73776745D01*
X75046745Y-73663499D01*
X75179899Y-73574529D01*
X75327858Y-73513242D01*
X75484925Y-73482000D01*
X75645075Y-73482000D01*
X75802142Y-73513242D01*
X75802142Y-73513242D01*
G37*
G36*
X73262142Y-73513242D02*
G01*
X73410101Y-73574529D01*
X73543255Y-73663499D01*
X73656501Y-73776745D01*
X73745471Y-73909899D01*
X73806758Y-74057858D01*
X73838000Y-74214925D01*
X73838000Y-74375075D01*
X73806758Y-74532142D01*
X73745471Y-74680101D01*
X73656501Y-74813255D01*
X73543255Y-74926501D01*
X73410101Y-75015471D01*
X73262142Y-75076758D01*
X73105075Y-75108000D01*
X72944925Y-75108000D01*
X72787858Y-75076758D01*
X72639899Y-75015471D01*
X72506745Y-74926501D01*
X72393499Y-74813255D01*
X72304529Y-74680101D01*
X72243242Y-74532142D01*
X72212000Y-74375075D01*
X72212000Y-74214925D01*
X72243242Y-74057858D01*
X72304529Y-73909899D01*
X72393499Y-73776745D01*
X72506745Y-73663499D01*
X72639899Y-73574529D01*
X72787858Y-73513242D01*
X72944925Y-73482000D01*
X73105075Y-73482000D01*
X73262142Y-73513242D01*
X73262142Y-73513242D01*
G37*
G36*
X68182142Y-73513242D02*
G01*
X68330101Y-73574529D01*
X68463255Y-73663499D01*
X68576501Y-73776745D01*
X68665471Y-73909899D01*
X68726758Y-74057858D01*
X68758000Y-74214925D01*
X68758000Y-74375075D01*
X68726758Y-74532142D01*
X68665471Y-74680101D01*
X68576501Y-74813255D01*
X68463255Y-74926501D01*
X68330101Y-75015471D01*
X68182142Y-75076758D01*
X68025075Y-75108000D01*
X67864925Y-75108000D01*
X67707858Y-75076758D01*
X67559899Y-75015471D01*
X67426745Y-74926501D01*
X67313499Y-74813255D01*
X67224529Y-74680101D01*
X67163242Y-74532142D01*
X67132000Y-74375075D01*
X67132000Y-74214925D01*
X67163242Y-74057858D01*
X67224529Y-73909899D01*
X67313499Y-73776745D01*
X67426745Y-73663499D01*
X67559899Y-73574529D01*
X67707858Y-73513242D01*
X67864925Y-73482000D01*
X68025075Y-73482000D01*
X68182142Y-73513242D01*
X68182142Y-73513242D01*
G37*
G36*
X70722142Y-73513242D02*
G01*
X70870101Y-73574529D01*
X71003255Y-73663499D01*
X71116501Y-73776745D01*
X71205471Y-73909899D01*
X71266758Y-74057858D01*
X71298000Y-74214925D01*
X71298000Y-74375075D01*
X71266758Y-74532142D01*
X71205471Y-74680101D01*
X71116501Y-74813255D01*
X71003255Y-74926501D01*
X70870101Y-75015471D01*
X70722142Y-75076758D01*
X70565075Y-75108000D01*
X70404925Y-75108000D01*
X70247858Y-75076758D01*
X70099899Y-75015471D01*
X69966745Y-74926501D01*
X69853499Y-74813255D01*
X69764529Y-74680101D01*
X69703242Y-74532142D01*
X69672000Y-74375075D01*
X69672000Y-74214925D01*
X69703242Y-74057858D01*
X69764529Y-73909899D01*
X69853499Y-73776745D01*
X69966745Y-73663499D01*
X70099899Y-73574529D01*
X70247858Y-73513242D01*
X70404925Y-73482000D01*
X70565075Y-73482000D01*
X70722142Y-73513242D01*
X70722142Y-73513242D01*
G37*
G36*
X93582142Y-73513242D02*
G01*
X93730101Y-73574529D01*
X93863255Y-73663499D01*
X93976501Y-73776745D01*
X94065471Y-73909899D01*
X94126758Y-74057858D01*
X94158000Y-74214925D01*
X94158000Y-74375075D01*
X94126758Y-74532142D01*
X94065471Y-74680101D01*
X93976501Y-74813255D01*
X93863255Y-74926501D01*
X93730101Y-75015471D01*
X93582142Y-75076758D01*
X93425075Y-75108000D01*
X93264925Y-75108000D01*
X93107858Y-75076758D01*
X92959899Y-75015471D01*
X92826745Y-74926501D01*
X92713499Y-74813255D01*
X92624529Y-74680101D01*
X92563242Y-74532142D01*
X92532000Y-74375075D01*
X92532000Y-74214925D01*
X92563242Y-74057858D01*
X92624529Y-73909899D01*
X92713499Y-73776745D01*
X92826745Y-73663499D01*
X92959899Y-73574529D01*
X93107858Y-73513242D01*
X93264925Y-73482000D01*
X93425075Y-73482000D01*
X93582142Y-73513242D01*
X93582142Y-73513242D01*
G37*
G36*
X85962142Y-73513242D02*
G01*
X86110101Y-73574529D01*
X86243255Y-73663499D01*
X86356501Y-73776745D01*
X86445471Y-73909899D01*
X86506758Y-74057858D01*
X86538000Y-74214925D01*
X86538000Y-74375075D01*
X86506758Y-74532142D01*
X86445471Y-74680101D01*
X86356501Y-74813255D01*
X86243255Y-74926501D01*
X86110101Y-75015471D01*
X85962142Y-75076758D01*
X85805075Y-75108000D01*
X85644925Y-75108000D01*
X85487858Y-75076758D01*
X85339899Y-75015471D01*
X85206745Y-74926501D01*
X85093499Y-74813255D01*
X85004529Y-74680101D01*
X84943242Y-74532142D01*
X84912000Y-74375075D01*
X84912000Y-74214925D01*
X84943242Y-74057858D01*
X85004529Y-73909899D01*
X85093499Y-73776745D01*
X85206745Y-73663499D01*
X85339899Y-73574529D01*
X85487858Y-73513242D01*
X85644925Y-73482000D01*
X85805075Y-73482000D01*
X85962142Y-73513242D01*
X85962142Y-73513242D01*
G37*
G36*
X121400114Y-70694176D02*
G01*
X121494168Y-70703439D01*
X121695299Y-70764451D01*
X121781110Y-70810318D01*
X121880661Y-70863529D01*
X122043133Y-70996867D01*
X122176471Y-71159339D01*
X122229682Y-71258890D01*
X122275549Y-71344701D01*
X122336561Y-71545832D01*
X122357162Y-71755000D01*
X122336561Y-71964168D01*
X122275549Y-72165299D01*
X122229682Y-72251110D01*
X122176471Y-72350661D01*
X122043133Y-72513133D01*
X121880661Y-72646471D01*
X121781110Y-72699682D01*
X121695299Y-72745549D01*
X121494168Y-72806561D01*
X121400114Y-72815824D01*
X121337413Y-72822000D01*
X121232587Y-72822000D01*
X121169886Y-72815824D01*
X121075832Y-72806561D01*
X120874701Y-72745549D01*
X120788890Y-72699682D01*
X120689339Y-72646471D01*
X120526867Y-72513133D01*
X120393529Y-72350661D01*
X120340318Y-72251110D01*
X120294451Y-72165299D01*
X120233439Y-71964168D01*
X120212838Y-71755000D01*
X120233439Y-71545832D01*
X120294451Y-71344701D01*
X120340318Y-71258890D01*
X120393529Y-71159339D01*
X120526867Y-70996867D01*
X120689339Y-70863529D01*
X120788890Y-70810318D01*
X120874701Y-70764451D01*
X121075832Y-70703439D01*
X121169886Y-70694176D01*
X121232587Y-70688000D01*
X121337413Y-70688000D01*
X121400114Y-70694176D01*
X121400114Y-70694176D01*
G37*
G36*
X121400114Y-68154176D02*
G01*
X121494168Y-68163439D01*
X121695299Y-68224451D01*
X121781110Y-68270318D01*
X121880661Y-68323529D01*
X122043133Y-68456867D01*
X122176471Y-68619339D01*
X122229682Y-68718890D01*
X122275549Y-68804701D01*
X122336561Y-69005832D01*
X122357162Y-69215000D01*
X122336561Y-69424168D01*
X122275549Y-69625299D01*
X122229682Y-69711110D01*
X122176471Y-69810661D01*
X122043133Y-69973133D01*
X121880661Y-70106471D01*
X121781110Y-70159682D01*
X121695299Y-70205549D01*
X121494168Y-70266561D01*
X121400114Y-70275824D01*
X121337413Y-70282000D01*
X121232587Y-70282000D01*
X121169886Y-70275824D01*
X121075832Y-70266561D01*
X120874701Y-70205549D01*
X120788890Y-70159682D01*
X120689339Y-70106471D01*
X120526867Y-69973133D01*
X120393529Y-69810661D01*
X120340318Y-69711110D01*
X120294451Y-69625299D01*
X120233439Y-69424168D01*
X120212838Y-69215000D01*
X120233439Y-69005832D01*
X120294451Y-68804701D01*
X120340318Y-68718890D01*
X120393529Y-68619339D01*
X120526867Y-68456867D01*
X120689339Y-68323529D01*
X120788890Y-68270318D01*
X120874701Y-68224451D01*
X121075832Y-68163439D01*
X121169886Y-68154176D01*
X121232587Y-68148000D01*
X121337413Y-68148000D01*
X121400114Y-68154176D01*
X121400114Y-68154176D01*
G37*
G36*
X41654487Y-66058996D02*
G01*
X41891253Y-66157068D01*
X41891255Y-66157069D01*
X42104339Y-66299447D01*
X42285553Y-66480661D01*
X42427932Y-66693747D01*
X42526004Y-66930513D01*
X42576000Y-67181861D01*
X42576000Y-67438139D01*
X42526004Y-67689487D01*
X42427932Y-67926253D01*
X42427931Y-67926255D01*
X42285553Y-68139339D01*
X42104339Y-68320553D01*
X41891255Y-68462931D01*
X41891254Y-68462932D01*
X41891253Y-68462932D01*
X41654487Y-68561004D01*
X41403139Y-68611000D01*
X41146861Y-68611000D01*
X40895513Y-68561004D01*
X40658747Y-68462932D01*
X40658746Y-68462932D01*
X40658745Y-68462931D01*
X40445661Y-68320553D01*
X40264447Y-68139339D01*
X40122069Y-67926255D01*
X40122068Y-67926253D01*
X40023996Y-67689487D01*
X39974000Y-67438139D01*
X39974000Y-67181861D01*
X40023996Y-66930513D01*
X40122068Y-66693747D01*
X40264447Y-66480661D01*
X40445661Y-66299447D01*
X40658745Y-66157069D01*
X40658747Y-66157068D01*
X40895513Y-66058996D01*
X41146861Y-66009000D01*
X41403139Y-66009000D01*
X41654487Y-66058996D01*
X41654487Y-66058996D01*
G37*
G36*
X37209487Y-66058996D02*
G01*
X37446253Y-66157068D01*
X37446255Y-66157069D01*
X37659339Y-66299447D01*
X37840553Y-66480661D01*
X37982932Y-66693747D01*
X38081004Y-66930513D01*
X38131000Y-67181861D01*
X38131000Y-67438139D01*
X38081004Y-67689487D01*
X37982932Y-67926253D01*
X37982931Y-67926255D01*
X37840553Y-68139339D01*
X37659339Y-68320553D01*
X37446255Y-68462931D01*
X37446254Y-68462932D01*
X37446253Y-68462932D01*
X37209487Y-68561004D01*
X36958139Y-68611000D01*
X36701861Y-68611000D01*
X36450513Y-68561004D01*
X36213747Y-68462932D01*
X36213746Y-68462932D01*
X36213745Y-68462931D01*
X36000661Y-68320553D01*
X35819447Y-68139339D01*
X35677069Y-67926255D01*
X35677068Y-67926253D01*
X35578996Y-67689487D01*
X35529000Y-67438139D01*
X35529000Y-67181861D01*
X35578996Y-66930513D01*
X35677068Y-66693747D01*
X35819447Y-66480661D01*
X36000661Y-66299447D01*
X36213745Y-66157069D01*
X36213747Y-66157068D01*
X36450513Y-66058996D01*
X36701861Y-66009000D01*
X36958139Y-66009000D01*
X37209487Y-66058996D01*
X37209487Y-66058996D01*
G37*
G36*
X31348642Y-59618281D02*
G01*
X31494414Y-59678662D01*
X31494416Y-59678663D01*
X31625608Y-59766322D01*
X31737178Y-59877892D01*
X31824837Y-60009084D01*
X31824838Y-60009086D01*
X31885219Y-60154858D01*
X31916000Y-60309607D01*
X31916000Y-60467393D01*
X31885219Y-60622142D01*
X31824838Y-60767914D01*
X31824837Y-60767916D01*
X31737178Y-60899108D01*
X31625608Y-61010678D01*
X31494416Y-61098337D01*
X31494415Y-61098338D01*
X31494414Y-61098338D01*
X31348642Y-61158719D01*
X31193893Y-61189500D01*
X31036107Y-61189500D01*
X30881358Y-61158719D01*
X30735586Y-61098338D01*
X30735585Y-61098338D01*
X30735584Y-61098337D01*
X30604392Y-61010678D01*
X30492822Y-60899108D01*
X30405163Y-60767916D01*
X30405162Y-60767914D01*
X30344781Y-60622142D01*
X30314000Y-60467393D01*
X30314000Y-60309607D01*
X30344781Y-60154858D01*
X30405162Y-60009086D01*
X30405163Y-60009084D01*
X30492822Y-59877892D01*
X30604392Y-59766322D01*
X30735584Y-59678663D01*
X30735586Y-59678662D01*
X30881358Y-59618281D01*
X31036107Y-59587500D01*
X31193893Y-59587500D01*
X31348642Y-59618281D01*
X31348642Y-59618281D01*
G37*
G36*
X41508642Y-59618281D02*
G01*
X41654414Y-59678662D01*
X41654416Y-59678663D01*
X41785608Y-59766322D01*
X41897178Y-59877892D01*
X41984837Y-60009084D01*
X41984838Y-60009086D01*
X42045219Y-60154858D01*
X42076000Y-60309607D01*
X42076000Y-60467393D01*
X42045219Y-60622142D01*
X41984838Y-60767914D01*
X41984837Y-60767916D01*
X41897178Y-60899108D01*
X41785608Y-61010678D01*
X41654416Y-61098337D01*
X41654415Y-61098338D01*
X41654414Y-61098338D01*
X41508642Y-61158719D01*
X41353893Y-61189500D01*
X41196107Y-61189500D01*
X41041358Y-61158719D01*
X40895586Y-61098338D01*
X40895585Y-61098338D01*
X40895584Y-61098337D01*
X40764392Y-61010678D01*
X40652822Y-60899108D01*
X40565163Y-60767916D01*
X40565162Y-60767914D01*
X40504781Y-60622142D01*
X40474000Y-60467393D01*
X40474000Y-60309607D01*
X40504781Y-60154858D01*
X40565162Y-60009086D01*
X40565163Y-60009084D01*
X40652822Y-59877892D01*
X40764392Y-59766322D01*
X40895584Y-59678663D01*
X40895586Y-59678662D01*
X41041358Y-59618281D01*
X41196107Y-59587500D01*
X41353893Y-59587500D01*
X41508642Y-59618281D01*
X41508642Y-59618281D01*
G37*
G36*
X51668642Y-59618281D02*
G01*
X51814414Y-59678662D01*
X51814416Y-59678663D01*
X51945608Y-59766322D01*
X52057178Y-59877892D01*
X52144837Y-60009084D01*
X52144838Y-60009086D01*
X52205219Y-60154858D01*
X52236000Y-60309607D01*
X52236000Y-60467393D01*
X52205219Y-60622142D01*
X52144838Y-60767914D01*
X52144837Y-60767916D01*
X52057178Y-60899108D01*
X51945608Y-61010678D01*
X51814416Y-61098337D01*
X51814415Y-61098338D01*
X51814414Y-61098338D01*
X51668642Y-61158719D01*
X51513893Y-61189500D01*
X51356107Y-61189500D01*
X51201358Y-61158719D01*
X51055586Y-61098338D01*
X51055585Y-61098338D01*
X51055584Y-61098337D01*
X50924392Y-61010678D01*
X50812822Y-60899108D01*
X50725163Y-60767916D01*
X50725162Y-60767914D01*
X50664781Y-60622142D01*
X50634000Y-60467393D01*
X50634000Y-60309607D01*
X50664781Y-60154858D01*
X50725162Y-60009086D01*
X50725163Y-60009084D01*
X50812822Y-59877892D01*
X50924392Y-59766322D01*
X51055584Y-59678663D01*
X51055586Y-59678662D01*
X51201358Y-59618281D01*
X51356107Y-59587500D01*
X51513893Y-59587500D01*
X51668642Y-59618281D01*
X51668642Y-59618281D01*
G37*
G36*
X112639098Y-45372033D02*
G01*
X113103350Y-45564332D01*
X113103352Y-45564333D01*
X113521168Y-45843509D01*
X113876491Y-46198832D01*
X114139293Y-46592143D01*
X114155668Y-46616650D01*
X114347967Y-47080902D01*
X114446000Y-47573747D01*
X114446000Y-48076253D01*
X114347967Y-48569098D01*
X114155668Y-49033350D01*
X114155667Y-49033352D01*
X113876491Y-49451168D01*
X113521168Y-49806491D01*
X113103352Y-50085667D01*
X113103351Y-50085668D01*
X113103350Y-50085668D01*
X112639098Y-50277967D01*
X112146253Y-50376000D01*
X111643747Y-50376000D01*
X111150902Y-50277967D01*
X110686650Y-50085668D01*
X110686649Y-50085668D01*
X110686648Y-50085667D01*
X110268832Y-49806491D01*
X109913509Y-49451168D01*
X109634333Y-49033352D01*
X109634332Y-49033350D01*
X109442033Y-48569098D01*
X109344000Y-48076253D01*
X109344000Y-47573747D01*
X109442033Y-47080902D01*
X109634332Y-46616650D01*
X109650707Y-46592143D01*
X109913509Y-46198832D01*
X110268832Y-45843509D01*
X110686648Y-45564333D01*
X110686650Y-45564332D01*
X111150902Y-45372033D01*
X111643747Y-45274000D01*
X112146253Y-45274000D01*
X112639098Y-45372033D01*
X112639098Y-45372033D01*
G37*
G36*
X60319098Y-45372033D02*
G01*
X60783350Y-45564332D01*
X60783352Y-45564333D01*
X61201168Y-45843509D01*
X61556491Y-46198832D01*
X61819293Y-46592143D01*
X61835668Y-46616650D01*
X62027967Y-47080902D01*
X62126000Y-47573747D01*
X62126000Y-48076253D01*
X62027967Y-48569098D01*
X61835668Y-49033350D01*
X61835667Y-49033352D01*
X61556491Y-49451168D01*
X61201168Y-49806491D01*
X60783352Y-50085667D01*
X60783351Y-50085668D01*
X60783350Y-50085668D01*
X60319098Y-50277967D01*
X59826253Y-50376000D01*
X59323747Y-50376000D01*
X58830902Y-50277967D01*
X58366650Y-50085668D01*
X58366649Y-50085668D01*
X58366648Y-50085667D01*
X57948832Y-49806491D01*
X57593509Y-49451168D01*
X57314333Y-49033352D01*
X57314332Y-49033350D01*
X57122033Y-48569098D01*
X57024000Y-48076253D01*
X57024000Y-47573747D01*
X57122033Y-47080902D01*
X57314332Y-46616650D01*
X57330707Y-46592143D01*
X57593509Y-46198832D01*
X57948832Y-45843509D01*
X58366648Y-45564333D01*
X58366650Y-45564332D01*
X58830902Y-45372033D01*
X59323747Y-45274000D01*
X59826253Y-45274000D01*
X60319098Y-45372033D01*
X60319098Y-45372033D01*
G37*
G36*
X22527585Y-44198802D02*
G01*
X22677410Y-44228604D01*
X22959674Y-44345521D01*
X23213705Y-44515259D01*
X23429741Y-44731295D01*
X23599479Y-44985326D01*
X23716396Y-45267590D01*
X23716396Y-45267591D01*
X23770980Y-45542000D01*
X23776000Y-45567240D01*
X23776000Y-45872760D01*
X23716396Y-46172410D01*
X23599479Y-46454674D01*
X23429741Y-46708705D01*
X23213705Y-46924741D01*
X22959674Y-47094479D01*
X22677410Y-47211396D01*
X22527585Y-47241198D01*
X22377761Y-47271000D01*
X22072239Y-47271000D01*
X21922415Y-47241198D01*
X21772590Y-47211396D01*
X21490326Y-47094479D01*
X21236295Y-46924741D01*
X21020259Y-46708705D01*
X20850521Y-46454674D01*
X20733604Y-46172410D01*
X20674000Y-45872760D01*
X20674000Y-45567240D01*
X20679021Y-45542000D01*
X20733604Y-45267591D01*
X20733604Y-45267590D01*
X20850521Y-44985326D01*
X21020259Y-44731295D01*
X21236295Y-44515259D01*
X21490326Y-44345521D01*
X21772590Y-44228604D01*
X21922415Y-44198802D01*
X22072239Y-44169000D01*
X22377761Y-44169000D01*
X22527585Y-44198802D01*
X22527585Y-44198802D01*
G37*
G36*
X103742142Y-45573242D02*
G01*
X103890101Y-45634529D01*
X104023255Y-45723499D01*
X104136501Y-45836745D01*
X104225471Y-45969899D01*
X104286758Y-46117858D01*
X104318000Y-46274925D01*
X104318000Y-46435075D01*
X104286758Y-46592142D01*
X104225471Y-46740101D01*
X104136501Y-46873255D01*
X104023255Y-46986501D01*
X103890101Y-47075471D01*
X103742142Y-47136758D01*
X103585075Y-47168000D01*
X103424925Y-47168000D01*
X103267858Y-47136758D01*
X103119899Y-47075471D01*
X102986745Y-46986501D01*
X102873499Y-46873255D01*
X102784529Y-46740101D01*
X102723242Y-46592142D01*
X102692000Y-46435075D01*
X102692000Y-46274925D01*
X102723242Y-46117858D01*
X102784529Y-45969899D01*
X102873499Y-45836745D01*
X102986745Y-45723499D01*
X103119899Y-45634529D01*
X103267858Y-45573242D01*
X103424925Y-45542000D01*
X103585075Y-45542000D01*
X103742142Y-45573242D01*
X103742142Y-45573242D01*
G37*
G36*
X91042142Y-45573242D02*
G01*
X91190101Y-45634529D01*
X91323255Y-45723499D01*
X91436501Y-45836745D01*
X91525471Y-45969899D01*
X91586758Y-46117858D01*
X91618000Y-46274925D01*
X91618000Y-46435075D01*
X91586758Y-46592142D01*
X91525471Y-46740101D01*
X91436501Y-46873255D01*
X91323255Y-46986501D01*
X91190101Y-47075471D01*
X91042142Y-47136758D01*
X90885075Y-47168000D01*
X90724925Y-47168000D01*
X90567858Y-47136758D01*
X90419899Y-47075471D01*
X90286745Y-46986501D01*
X90173499Y-46873255D01*
X90084529Y-46740101D01*
X90023242Y-46592142D01*
X89992000Y-46435075D01*
X89992000Y-46274925D01*
X90023242Y-46117858D01*
X90084529Y-45969899D01*
X90173499Y-45836745D01*
X90286745Y-45723499D01*
X90419899Y-45634529D01*
X90567858Y-45573242D01*
X90724925Y-45542000D01*
X90885075Y-45542000D01*
X91042142Y-45573242D01*
X91042142Y-45573242D01*
G37*
G36*
X88502142Y-45573242D02*
G01*
X88650101Y-45634529D01*
X88783255Y-45723499D01*
X88896501Y-45836745D01*
X88985471Y-45969899D01*
X89046758Y-46117858D01*
X89078000Y-46274925D01*
X89078000Y-46435075D01*
X89046758Y-46592142D01*
X88985471Y-46740101D01*
X88896501Y-46873255D01*
X88783255Y-46986501D01*
X88650101Y-47075471D01*
X88502142Y-47136758D01*
X88345075Y-47168000D01*
X88184925Y-47168000D01*
X88027858Y-47136758D01*
X87879899Y-47075471D01*
X87746745Y-46986501D01*
X87633499Y-46873255D01*
X87544529Y-46740101D01*
X87483242Y-46592142D01*
X87452000Y-46435075D01*
X87452000Y-46274925D01*
X87483242Y-46117858D01*
X87544529Y-45969899D01*
X87633499Y-45836745D01*
X87746745Y-45723499D01*
X87879899Y-45634529D01*
X88027858Y-45573242D01*
X88184925Y-45542000D01*
X88345075Y-45542000D01*
X88502142Y-45573242D01*
X88502142Y-45573242D01*
G37*
G36*
X85962142Y-45573242D02*
G01*
X86110101Y-45634529D01*
X86243255Y-45723499D01*
X86356501Y-45836745D01*
X86445471Y-45969899D01*
X86506758Y-46117858D01*
X86538000Y-46274925D01*
X86538000Y-46435075D01*
X86506758Y-46592142D01*
X86445471Y-46740101D01*
X86356501Y-46873255D01*
X86243255Y-46986501D01*
X86110101Y-47075471D01*
X85962142Y-47136758D01*
X85805075Y-47168000D01*
X85644925Y-47168000D01*
X85487858Y-47136758D01*
X85339899Y-47075471D01*
X85206745Y-46986501D01*
X85093499Y-46873255D01*
X85004529Y-46740101D01*
X84943242Y-46592142D01*
X84912000Y-46435075D01*
X84912000Y-46274925D01*
X84943242Y-46117858D01*
X85004529Y-45969899D01*
X85093499Y-45836745D01*
X85206745Y-45723499D01*
X85339899Y-45634529D01*
X85487858Y-45573242D01*
X85644925Y-45542000D01*
X85805075Y-45542000D01*
X85962142Y-45573242D01*
X85962142Y-45573242D01*
G37*
G36*
X83422142Y-45573242D02*
G01*
X83570101Y-45634529D01*
X83703255Y-45723499D01*
X83816501Y-45836745D01*
X83905471Y-45969899D01*
X83966758Y-46117858D01*
X83998000Y-46274925D01*
X83998000Y-46435075D01*
X83966758Y-46592142D01*
X83905471Y-46740101D01*
X83816501Y-46873255D01*
X83703255Y-46986501D01*
X83570101Y-47075471D01*
X83422142Y-47136758D01*
X83265075Y-47168000D01*
X83104925Y-47168000D01*
X82947858Y-47136758D01*
X82799899Y-47075471D01*
X82666745Y-46986501D01*
X82553499Y-46873255D01*
X82464529Y-46740101D01*
X82403242Y-46592142D01*
X82372000Y-46435075D01*
X82372000Y-46274925D01*
X82403242Y-46117858D01*
X82464529Y-45969899D01*
X82553499Y-45836745D01*
X82666745Y-45723499D01*
X82799899Y-45634529D01*
X82947858Y-45573242D01*
X83104925Y-45542000D01*
X83265075Y-45542000D01*
X83422142Y-45573242D01*
X83422142Y-45573242D01*
G37*
G36*
X78342142Y-45573242D02*
G01*
X78490101Y-45634529D01*
X78623255Y-45723499D01*
X78736501Y-45836745D01*
X78825471Y-45969899D01*
X78886758Y-46117858D01*
X78918000Y-46274925D01*
X78918000Y-46435075D01*
X78886758Y-46592142D01*
X78825471Y-46740101D01*
X78736501Y-46873255D01*
X78623255Y-46986501D01*
X78490101Y-47075471D01*
X78342142Y-47136758D01*
X78185075Y-47168000D01*
X78024925Y-47168000D01*
X77867858Y-47136758D01*
X77719899Y-47075471D01*
X77586745Y-46986501D01*
X77473499Y-46873255D01*
X77384529Y-46740101D01*
X77323242Y-46592142D01*
X77292000Y-46435075D01*
X77292000Y-46274925D01*
X77323242Y-46117858D01*
X77384529Y-45969899D01*
X77473499Y-45836745D01*
X77586745Y-45723499D01*
X77719899Y-45634529D01*
X77867858Y-45573242D01*
X78024925Y-45542000D01*
X78185075Y-45542000D01*
X78342142Y-45573242D01*
X78342142Y-45573242D01*
G37*
G36*
X75802142Y-45573242D02*
G01*
X75950101Y-45634529D01*
X76083255Y-45723499D01*
X76196501Y-45836745D01*
X76285471Y-45969899D01*
X76346758Y-46117858D01*
X76378000Y-46274925D01*
X76378000Y-46435075D01*
X76346758Y-46592142D01*
X76285471Y-46740101D01*
X76196501Y-46873255D01*
X76083255Y-46986501D01*
X75950101Y-47075471D01*
X75802142Y-47136758D01*
X75645075Y-47168000D01*
X75484925Y-47168000D01*
X75327858Y-47136758D01*
X75179899Y-47075471D01*
X75046745Y-46986501D01*
X74933499Y-46873255D01*
X74844529Y-46740101D01*
X74783242Y-46592142D01*
X74752000Y-46435075D01*
X74752000Y-46274925D01*
X74783242Y-46117858D01*
X74844529Y-45969899D01*
X74933499Y-45836745D01*
X75046745Y-45723499D01*
X75179899Y-45634529D01*
X75327858Y-45573242D01*
X75484925Y-45542000D01*
X75645075Y-45542000D01*
X75802142Y-45573242D01*
X75802142Y-45573242D01*
G37*
G36*
X73262142Y-45573242D02*
G01*
X73410101Y-45634529D01*
X73543255Y-45723499D01*
X73656501Y-45836745D01*
X73745471Y-45969899D01*
X73806758Y-46117858D01*
X73838000Y-46274925D01*
X73838000Y-46435075D01*
X73806758Y-46592142D01*
X73745471Y-46740101D01*
X73656501Y-46873255D01*
X73543255Y-46986501D01*
X73410101Y-47075471D01*
X73262142Y-47136758D01*
X73105075Y-47168000D01*
X72944925Y-47168000D01*
X72787858Y-47136758D01*
X72639899Y-47075471D01*
X72506745Y-46986501D01*
X72393499Y-46873255D01*
X72304529Y-46740101D01*
X72243242Y-46592142D01*
X72212000Y-46435075D01*
X72212000Y-46274925D01*
X72243242Y-46117858D01*
X72304529Y-45969899D01*
X72393499Y-45836745D01*
X72506745Y-45723499D01*
X72639899Y-45634529D01*
X72787858Y-45573242D01*
X72944925Y-45542000D01*
X73105075Y-45542000D01*
X73262142Y-45573242D01*
X73262142Y-45573242D01*
G37*
G36*
X68182142Y-45573242D02*
G01*
X68330101Y-45634529D01*
X68463255Y-45723499D01*
X68576501Y-45836745D01*
X68665471Y-45969899D01*
X68726758Y-46117858D01*
X68758000Y-46274925D01*
X68758000Y-46435075D01*
X68726758Y-46592142D01*
X68665471Y-46740101D01*
X68576501Y-46873255D01*
X68463255Y-46986501D01*
X68330101Y-47075471D01*
X68182142Y-47136758D01*
X68025075Y-47168000D01*
X67864925Y-47168000D01*
X67707858Y-47136758D01*
X67559899Y-47075471D01*
X67426745Y-46986501D01*
X67313499Y-46873255D01*
X67224529Y-46740101D01*
X67163242Y-46592142D01*
X67132000Y-46435075D01*
X67132000Y-46274925D01*
X67163242Y-46117858D01*
X67224529Y-45969899D01*
X67313499Y-45836745D01*
X67426745Y-45723499D01*
X67559899Y-45634529D01*
X67707858Y-45573242D01*
X67864925Y-45542000D01*
X68025075Y-45542000D01*
X68182142Y-45573242D01*
X68182142Y-45573242D01*
G37*
G36*
X93582142Y-45573242D02*
G01*
X93730101Y-45634529D01*
X93863255Y-45723499D01*
X93976501Y-45836745D01*
X94065471Y-45969899D01*
X94126758Y-46117858D01*
X94158000Y-46274925D01*
X94158000Y-46435075D01*
X94126758Y-46592142D01*
X94065471Y-46740101D01*
X93976501Y-46873255D01*
X93863255Y-46986501D01*
X93730101Y-47075471D01*
X93582142Y-47136758D01*
X93425075Y-47168000D01*
X93264925Y-47168000D01*
X93107858Y-47136758D01*
X92959899Y-47075471D01*
X92826745Y-46986501D01*
X92713499Y-46873255D01*
X92624529Y-46740101D01*
X92563242Y-46592142D01*
X92532000Y-46435075D01*
X92532000Y-46274925D01*
X92563242Y-46117858D01*
X92624529Y-45969899D01*
X92713499Y-45836745D01*
X92826745Y-45723499D01*
X92959899Y-45634529D01*
X93107858Y-45573242D01*
X93264925Y-45542000D01*
X93425075Y-45542000D01*
X93582142Y-45573242D01*
X93582142Y-45573242D01*
G37*
G36*
X96122142Y-45573242D02*
G01*
X96270101Y-45634529D01*
X96403255Y-45723499D01*
X96516501Y-45836745D01*
X96605471Y-45969899D01*
X96666758Y-46117858D01*
X96698000Y-46274925D01*
X96698000Y-46435075D01*
X96666758Y-46592142D01*
X96605471Y-46740101D01*
X96516501Y-46873255D01*
X96403255Y-46986501D01*
X96270101Y-47075471D01*
X96122142Y-47136758D01*
X95965075Y-47168000D01*
X95804925Y-47168000D01*
X95647858Y-47136758D01*
X95499899Y-47075471D01*
X95366745Y-46986501D01*
X95253499Y-46873255D01*
X95164529Y-46740101D01*
X95103242Y-46592142D01*
X95072000Y-46435075D01*
X95072000Y-46274925D01*
X95103242Y-46117858D01*
X95164529Y-45969899D01*
X95253499Y-45836745D01*
X95366745Y-45723499D01*
X95499899Y-45634529D01*
X95647858Y-45573242D01*
X95804925Y-45542000D01*
X95965075Y-45542000D01*
X96122142Y-45573242D01*
X96122142Y-45573242D01*
G37*
G36*
X101202142Y-45573242D02*
G01*
X101350101Y-45634529D01*
X101483255Y-45723499D01*
X101596501Y-45836745D01*
X101685471Y-45969899D01*
X101746758Y-46117858D01*
X101778000Y-46274925D01*
X101778000Y-46435075D01*
X101746758Y-46592142D01*
X101685471Y-46740101D01*
X101596501Y-46873255D01*
X101483255Y-46986501D01*
X101350101Y-47075471D01*
X101202142Y-47136758D01*
X101045075Y-47168000D01*
X100884925Y-47168000D01*
X100727858Y-47136758D01*
X100579899Y-47075471D01*
X100446745Y-46986501D01*
X100333499Y-46873255D01*
X100244529Y-46740101D01*
X100183242Y-46592142D01*
X100152000Y-46435075D01*
X100152000Y-46274925D01*
X100183242Y-46117858D01*
X100244529Y-45969899D01*
X100333499Y-45836745D01*
X100446745Y-45723499D01*
X100579899Y-45634529D01*
X100727858Y-45573242D01*
X100884925Y-45542000D01*
X101045075Y-45542000D01*
X101202142Y-45573242D01*
X101202142Y-45573242D01*
G37*
G36*
X98662142Y-45573242D02*
G01*
X98810101Y-45634529D01*
X98943255Y-45723499D01*
X99056501Y-45836745D01*
X99145471Y-45969899D01*
X99206758Y-46117858D01*
X99238000Y-46274925D01*
X99238000Y-46435075D01*
X99206758Y-46592142D01*
X99145471Y-46740101D01*
X99056501Y-46873255D01*
X98943255Y-46986501D01*
X98810101Y-47075471D01*
X98662142Y-47136758D01*
X98505075Y-47168000D01*
X98344925Y-47168000D01*
X98187858Y-47136758D01*
X98039899Y-47075471D01*
X97906745Y-46986501D01*
X97793499Y-46873255D01*
X97704529Y-46740101D01*
X97643242Y-46592142D01*
X97612000Y-46435075D01*
X97612000Y-46274925D01*
X97643242Y-46117858D01*
X97704529Y-45969899D01*
X97793499Y-45836745D01*
X97906745Y-45723499D01*
X98039899Y-45634529D01*
X98187858Y-45573242D01*
X98344925Y-45542000D01*
X98505075Y-45542000D01*
X98662142Y-45573242D01*
X98662142Y-45573242D01*
G37*
G36*
X80882142Y-45573242D02*
G01*
X81030101Y-45634529D01*
X81163255Y-45723499D01*
X81276501Y-45836745D01*
X81365471Y-45969899D01*
X81426758Y-46117858D01*
X81458000Y-46274925D01*
X81458000Y-46435075D01*
X81426758Y-46592142D01*
X81365471Y-46740101D01*
X81276501Y-46873255D01*
X81163255Y-46986501D01*
X81030101Y-47075471D01*
X80882142Y-47136758D01*
X80725075Y-47168000D01*
X80564925Y-47168000D01*
X80407858Y-47136758D01*
X80259899Y-47075471D01*
X80126745Y-46986501D01*
X80013499Y-46873255D01*
X79924529Y-46740101D01*
X79863242Y-46592142D01*
X79832000Y-46435075D01*
X79832000Y-46274925D01*
X79863242Y-46117858D01*
X79924529Y-45969899D01*
X80013499Y-45836745D01*
X80126745Y-45723499D01*
X80259899Y-45634529D01*
X80407858Y-45573242D01*
X80564925Y-45542000D01*
X80725075Y-45542000D01*
X80882142Y-45573242D01*
X80882142Y-45573242D01*
G37*
G36*
X70722142Y-45573242D02*
G01*
X70870101Y-45634529D01*
X71003255Y-45723499D01*
X71116501Y-45836745D01*
X71205471Y-45969899D01*
X71266758Y-46117858D01*
X71298000Y-46274925D01*
X71298000Y-46435075D01*
X71266758Y-46592142D01*
X71205471Y-46740101D01*
X71116501Y-46873255D01*
X71003255Y-46986501D01*
X70870101Y-47075471D01*
X70722142Y-47136758D01*
X70565075Y-47168000D01*
X70404925Y-47168000D01*
X70247858Y-47136758D01*
X70099899Y-47075471D01*
X69966745Y-46986501D01*
X69853499Y-46873255D01*
X69764529Y-46740101D01*
X69703242Y-46592142D01*
X69672000Y-46435075D01*
X69672000Y-46274925D01*
X69703242Y-46117858D01*
X69764529Y-45969899D01*
X69853499Y-45836745D01*
X69966745Y-45723499D01*
X70099899Y-45634529D01*
X70247858Y-45573242D01*
X70404925Y-45542000D01*
X70565075Y-45542000D01*
X70722142Y-45573242D01*
X70722142Y-45573242D01*
G37*
G36*
X51668642Y-39298281D02*
G01*
X51814414Y-39358662D01*
X51814416Y-39358663D01*
X51945608Y-39446322D01*
X52057178Y-39557892D01*
X52144837Y-39689084D01*
X52144838Y-39689086D01*
X52205219Y-39834858D01*
X52236000Y-39989607D01*
X52236000Y-40147393D01*
X52205219Y-40302142D01*
X52144838Y-40447914D01*
X52144837Y-40447916D01*
X52057178Y-40579108D01*
X51945608Y-40690678D01*
X51814416Y-40778337D01*
X51814415Y-40778338D01*
X51814414Y-40778338D01*
X51668642Y-40838719D01*
X51513893Y-40869500D01*
X51356107Y-40869500D01*
X51201358Y-40838719D01*
X51055586Y-40778338D01*
X51055585Y-40778338D01*
X51055584Y-40778337D01*
X50924392Y-40690678D01*
X50812822Y-40579108D01*
X50725163Y-40447916D01*
X50725162Y-40447914D01*
X50664781Y-40302142D01*
X50634000Y-40147393D01*
X50634000Y-39989607D01*
X50664781Y-39834858D01*
X50725162Y-39689086D01*
X50725163Y-39689084D01*
X50812822Y-39557892D01*
X50924392Y-39446322D01*
X51055584Y-39358663D01*
X51055586Y-39358662D01*
X51201358Y-39298281D01*
X51356107Y-39267500D01*
X51513893Y-39267500D01*
X51668642Y-39298281D01*
X51668642Y-39298281D01*
G37*
G36*
X46588642Y-39298281D02*
G01*
X46734414Y-39358662D01*
X46734416Y-39358663D01*
X46865608Y-39446322D01*
X46977178Y-39557892D01*
X47064837Y-39689084D01*
X47064838Y-39689086D01*
X47125219Y-39834858D01*
X47156000Y-39989607D01*
X47156000Y-40147393D01*
X47125219Y-40302142D01*
X47064838Y-40447914D01*
X47064837Y-40447916D01*
X46977178Y-40579108D01*
X46865608Y-40690678D01*
X46734416Y-40778337D01*
X46734415Y-40778338D01*
X46734414Y-40778338D01*
X46588642Y-40838719D01*
X46433893Y-40869500D01*
X46276107Y-40869500D01*
X46121358Y-40838719D01*
X45975586Y-40778338D01*
X45975585Y-40778338D01*
X45975584Y-40778337D01*
X45844392Y-40690678D01*
X45732822Y-40579108D01*
X45645163Y-40447916D01*
X45645162Y-40447914D01*
X45584781Y-40302142D01*
X45554000Y-40147393D01*
X45554000Y-39989607D01*
X45584781Y-39834858D01*
X45645162Y-39689086D01*
X45645163Y-39689084D01*
X45732822Y-39557892D01*
X45844392Y-39446322D01*
X45975584Y-39358663D01*
X45975586Y-39358662D01*
X46121358Y-39298281D01*
X46276107Y-39267500D01*
X46433893Y-39267500D01*
X46588642Y-39298281D01*
X46588642Y-39298281D01*
G37*
G36*
X22543433Y-33104893D02*
G01*
X22633657Y-33122839D01*
X22739267Y-33166585D01*
X22888621Y-33228449D01*
X22888622Y-33228450D01*
X23118086Y-33381772D01*
X23313228Y-33576914D01*
X23328259Y-33599410D01*
X23466551Y-33806379D01*
X23572161Y-34061344D01*
X23626000Y-34332012D01*
X23626000Y-34607988D01*
X23572161Y-34878656D01*
X23466551Y-35133621D01*
X23466550Y-35133622D01*
X23313228Y-35363086D01*
X23118086Y-35558228D01*
X22964763Y-35660675D01*
X22888621Y-35711551D01*
X22739267Y-35773415D01*
X22633657Y-35817161D01*
X22543433Y-35835107D01*
X22362988Y-35871000D01*
X22087012Y-35871000D01*
X21906567Y-35835107D01*
X21816343Y-35817161D01*
X21710733Y-35773415D01*
X21561379Y-35711551D01*
X21485237Y-35660675D01*
X21331914Y-35558228D01*
X21136772Y-35363086D01*
X20983450Y-35133622D01*
X20983449Y-35133621D01*
X20877839Y-34878656D01*
X20824000Y-34607988D01*
X20824000Y-34332012D01*
X20877839Y-34061344D01*
X20983449Y-33806379D01*
X21121741Y-33599410D01*
X21136772Y-33576914D01*
X21331914Y-33381772D01*
X21561378Y-33228450D01*
X21561379Y-33228449D01*
X21710733Y-33166585D01*
X21816343Y-33122839D01*
X21906567Y-33104893D01*
X22087012Y-33069000D01*
X22362988Y-33069000D01*
X22543433Y-33104893D01*
X22543433Y-33104893D01*
G37*
G36*
X73342585Y-31625802D02*
G01*
X73492410Y-31655604D01*
X73774674Y-31772521D01*
X74028705Y-31942259D01*
X74244741Y-32158295D01*
X74414479Y-32412326D01*
X74531396Y-32694590D01*
X74591000Y-32994240D01*
X74591000Y-33299760D01*
X74531396Y-33599410D01*
X74414479Y-33881674D01*
X74244741Y-34135705D01*
X74028705Y-34351741D01*
X73774674Y-34521479D01*
X73492410Y-34638396D01*
X73342585Y-34668198D01*
X73192761Y-34698000D01*
X72887239Y-34698000D01*
X72737415Y-34668198D01*
X72587590Y-34638396D01*
X72305326Y-34521479D01*
X72051295Y-34351741D01*
X71835259Y-34135705D01*
X71665521Y-33881674D01*
X71548604Y-33599410D01*
X71489000Y-33299760D01*
X71489000Y-32994240D01*
X71548604Y-32694590D01*
X71665521Y-32412326D01*
X71835259Y-32158295D01*
X72051295Y-31942259D01*
X72305326Y-31772521D01*
X72587590Y-31655604D01*
X72737415Y-31625802D01*
X72887239Y-31596000D01*
X73192761Y-31596000D01*
X73342585Y-31625802D01*
X73342585Y-31625802D01*
G37*
G36*
X66342585Y-31625802D02*
G01*
X66492410Y-31655604D01*
X66774674Y-31772521D01*
X67028705Y-31942259D01*
X67244741Y-32158295D01*
X67414479Y-32412326D01*
X67531396Y-32694590D01*
X67591000Y-32994240D01*
X67591000Y-33299760D01*
X67531396Y-33599410D01*
X67414479Y-33881674D01*
X67244741Y-34135705D01*
X67028705Y-34351741D01*
X66774674Y-34521479D01*
X66492410Y-34638396D01*
X66342585Y-34668198D01*
X66192761Y-34698000D01*
X65887239Y-34698000D01*
X65737415Y-34668198D01*
X65587590Y-34638396D01*
X65305326Y-34521479D01*
X65051295Y-34351741D01*
X64835259Y-34135705D01*
X64665521Y-33881674D01*
X64548604Y-33599410D01*
X64489000Y-33299760D01*
X64489000Y-32994240D01*
X64548604Y-32694590D01*
X64665521Y-32412326D01*
X64835259Y-32158295D01*
X65051295Y-31942259D01*
X65305326Y-31772521D01*
X65587590Y-31655604D01*
X65737415Y-31625802D01*
X65887239Y-31596000D01*
X66192761Y-31596000D01*
X66342585Y-31625802D01*
X66342585Y-31625802D01*
G37*
G36*
X117035787Y-25585462D02*
G01*
X117070805Y-25599967D01*
X117682029Y-25853144D01*
X118263631Y-26241758D01*
X118758242Y-26736369D01*
X119146856Y-27317971D01*
X119146856Y-27317972D01*
X119414538Y-27964213D01*
X119551000Y-28650256D01*
X119551000Y-29349744D01*
X119414538Y-30035787D01*
X119336135Y-30225068D01*
X119146856Y-30682029D01*
X118758242Y-31263631D01*
X118263631Y-31758242D01*
X117682029Y-32146856D01*
X117225068Y-32336135D01*
X117035787Y-32414538D01*
X116349744Y-32551000D01*
X115650256Y-32551000D01*
X114964213Y-32414538D01*
X114774932Y-32336135D01*
X114317971Y-32146856D01*
X113736369Y-31758242D01*
X113241758Y-31263631D01*
X112853144Y-30682029D01*
X112663865Y-30225068D01*
X112585462Y-30035787D01*
X112449000Y-29349744D01*
X112449000Y-28650256D01*
X112585462Y-27964213D01*
X112853144Y-27317972D01*
X112853144Y-27317971D01*
X113241758Y-26736369D01*
X113736369Y-26241758D01*
X114317971Y-25853144D01*
X114929195Y-25599967D01*
X114964213Y-25585462D01*
X115650256Y-25449000D01*
X116349744Y-25449000D01*
X117035787Y-25585462D01*
X117035787Y-25585462D01*
G37*
G36*
X37035787Y-25585462D02*
G01*
X37070805Y-25599967D01*
X37682029Y-25853144D01*
X38263631Y-26241758D01*
X38758242Y-26736369D01*
X39146856Y-27317971D01*
X39146856Y-27317972D01*
X39414538Y-27964213D01*
X39551000Y-28650256D01*
X39551000Y-29349744D01*
X39414538Y-30035787D01*
X39336135Y-30225068D01*
X39146856Y-30682029D01*
X38758242Y-31263631D01*
X38263631Y-31758242D01*
X37682029Y-32146856D01*
X37225068Y-32336135D01*
X37035787Y-32414538D01*
X36349744Y-32551000D01*
X35650256Y-32551000D01*
X34964213Y-32414538D01*
X34774932Y-32336135D01*
X34317971Y-32146856D01*
X33736369Y-31758242D01*
X33241758Y-31263631D01*
X32853144Y-30682029D01*
X32663865Y-30225068D01*
X32585462Y-30035787D01*
X32449000Y-29349744D01*
X32449000Y-28650256D01*
X32585462Y-27964213D01*
X32853144Y-27317972D01*
X32853144Y-27317971D01*
X33241758Y-26736369D01*
X33736369Y-26241758D01*
X34317971Y-25853144D01*
X34929195Y-25599967D01*
X34964213Y-25585462D01*
X35650256Y-25449000D01*
X36349744Y-25449000D01*
X37035787Y-25585462D01*
X37035787Y-25585462D01*
G37*
G36*
X91792585Y-27785802D02*
G01*
X91942410Y-27815604D01*
X92224674Y-27932521D01*
X92478705Y-28102259D01*
X92694741Y-28318295D01*
X92864479Y-28572326D01*
X92981396Y-28854590D01*
X93041000Y-29154240D01*
X93041000Y-29459760D01*
X92981396Y-29759410D01*
X92864479Y-30041674D01*
X92694741Y-30295705D01*
X92478705Y-30511741D01*
X92224674Y-30681479D01*
X91942410Y-30798396D01*
X91792585Y-30828198D01*
X91642761Y-30858000D01*
X91337239Y-30858000D01*
X91187415Y-30828198D01*
X91037590Y-30798396D01*
X90755326Y-30681479D01*
X90501295Y-30511741D01*
X90285259Y-30295705D01*
X90115521Y-30041674D01*
X89998604Y-29759410D01*
X89939000Y-29459760D01*
X89939000Y-29154240D01*
X89998604Y-28854590D01*
X90115521Y-28572326D01*
X90285259Y-28318295D01*
X90501295Y-28102259D01*
X90755326Y-27932521D01*
X91037590Y-27815604D01*
X91187415Y-27785802D01*
X91337239Y-27756000D01*
X91642761Y-27756000D01*
X91792585Y-27785802D01*
X91792585Y-27785802D01*
G37*
G36*
X100392585Y-27785802D02*
G01*
X100542410Y-27815604D01*
X100824674Y-27932521D01*
X101078705Y-28102259D01*
X101294741Y-28318295D01*
X101464479Y-28572326D01*
X101581396Y-28854590D01*
X101641000Y-29154240D01*
X101641000Y-29459760D01*
X101581396Y-29759410D01*
X101464479Y-30041674D01*
X101294741Y-30295705D01*
X101078705Y-30511741D01*
X100824674Y-30681479D01*
X100542410Y-30798396D01*
X100392585Y-30828198D01*
X100242761Y-30858000D01*
X99937239Y-30858000D01*
X99787415Y-30828198D01*
X99637590Y-30798396D01*
X99355326Y-30681479D01*
X99101295Y-30511741D01*
X98885259Y-30295705D01*
X98715521Y-30041674D01*
X98598604Y-29759410D01*
X98539000Y-29459760D01*
X98539000Y-29154240D01*
X98598604Y-28854590D01*
X98715521Y-28572326D01*
X98885259Y-28318295D01*
X99101295Y-28102259D01*
X99355326Y-27932521D01*
X99637590Y-27815604D01*
X99787415Y-27785802D01*
X99937239Y-27756000D01*
X100242761Y-27756000D01*
X100392585Y-27785802D01*
X100392585Y-27785802D01*
G37*
G36*
X82325787Y-22732462D02*
G01*
X82325790Y-22732463D01*
X82325789Y-22732463D01*
X82972029Y-23000144D01*
X83553631Y-23388758D01*
X84048242Y-23883369D01*
X84436856Y-24464971D01*
X84538928Y-24711396D01*
X84704538Y-25111213D01*
X84841000Y-25797256D01*
X84841000Y-26496744D01*
X84704538Y-27182787D01*
X84704537Y-27182789D01*
X84436856Y-27829029D01*
X84048242Y-28410631D01*
X83553631Y-28905242D01*
X82972029Y-29293856D01*
X82837103Y-29349744D01*
X82325787Y-29561538D01*
X81639744Y-29698000D01*
X80940256Y-29698000D01*
X80254213Y-29561538D01*
X79742897Y-29349744D01*
X79607971Y-29293856D01*
X79026369Y-28905242D01*
X78531758Y-28410631D01*
X78143144Y-27829029D01*
X77875463Y-27182789D01*
X77875462Y-27182787D01*
X77739000Y-26496744D01*
X77739000Y-25797256D01*
X77875462Y-25111213D01*
X78041072Y-24711396D01*
X78143144Y-24464971D01*
X78531758Y-23883369D01*
X79026369Y-23388758D01*
X79607971Y-23000144D01*
X80254211Y-22732463D01*
X80254210Y-22732463D01*
X80254213Y-22732462D01*
X80940256Y-22596000D01*
X81639744Y-22596000D01*
X82325787Y-22732462D01*
X82325787Y-22732462D01*
G37*
G36*
X58634098Y-20694033D02*
G01*
X59098350Y-20886332D01*
X59098352Y-20886333D01*
X59516168Y-21165509D01*
X59871491Y-21520832D01*
X60150667Y-21938648D01*
X60150668Y-21938650D01*
X60342967Y-22402902D01*
X60441000Y-22895747D01*
X60441000Y-23398253D01*
X60342967Y-23891098D01*
X60211410Y-24208705D01*
X60150667Y-24355352D01*
X59871491Y-24773168D01*
X59516168Y-25128491D01*
X59098352Y-25407667D01*
X59098351Y-25407668D01*
X59098350Y-25407668D01*
X58634098Y-25599967D01*
X58141253Y-25698000D01*
X57638747Y-25698000D01*
X57145902Y-25599967D01*
X56681650Y-25407668D01*
X56681649Y-25407668D01*
X56681648Y-25407667D01*
X56263832Y-25128491D01*
X55908509Y-24773168D01*
X55629333Y-24355352D01*
X55568590Y-24208705D01*
X55437033Y-23891098D01*
X55339000Y-23398253D01*
X55339000Y-22895747D01*
X55437033Y-22402902D01*
X55629332Y-21938650D01*
X55629333Y-21938648D01*
X55908509Y-21520832D01*
X56263832Y-21165509D01*
X56681648Y-20886333D01*
X56681650Y-20886332D01*
X57145902Y-20694033D01*
X57638747Y-20596000D01*
X58141253Y-20596000D01*
X58634098Y-20694033D01*
X58634098Y-20694033D01*
G37*
G36*
X103265256Y-21538298D02*
G01*
X103371579Y-21559447D01*
X103672042Y-21683903D01*
X103942451Y-21864585D01*
X104172415Y-22094549D01*
X104353097Y-22364958D01*
X104353098Y-22364960D01*
X104477553Y-22665422D01*
X104541000Y-22984389D01*
X104541000Y-23309611D01*
X104523368Y-23398252D01*
X104477553Y-23628579D01*
X104389550Y-23841037D01*
X104372718Y-23881674D01*
X104353097Y-23929042D01*
X104172415Y-24199451D01*
X103942451Y-24429415D01*
X103672042Y-24610097D01*
X103371579Y-24734553D01*
X103265256Y-24755702D01*
X103052611Y-24798000D01*
X102727389Y-24798000D01*
X102514744Y-24755702D01*
X102408421Y-24734553D01*
X102107958Y-24610097D01*
X101837549Y-24429415D01*
X101607585Y-24199451D01*
X101426903Y-23929042D01*
X101407283Y-23881674D01*
X101390450Y-23841037D01*
X101302447Y-23628579D01*
X101256632Y-23398252D01*
X101239000Y-23309611D01*
X101239000Y-22984389D01*
X101302447Y-22665422D01*
X101426902Y-22364960D01*
X101426903Y-22364958D01*
X101607585Y-22094549D01*
X101837549Y-21864585D01*
X102107958Y-21683903D01*
X102408421Y-21559447D01*
X102514744Y-21538298D01*
X102727389Y-21496000D01*
X103052611Y-21496000D01*
X103265256Y-21538298D01*
X103265256Y-21538298D01*
G37*
G36*
X22452678Y-21683902D02*
G01*
X22677410Y-21728604D01*
X22959674Y-21845521D01*
X23213705Y-22015259D01*
X23429741Y-22231295D01*
X23599479Y-22485326D01*
X23701846Y-22732463D01*
X23716396Y-22767591D01*
X23761480Y-22994240D01*
X23776000Y-23067240D01*
X23776000Y-23372760D01*
X23716396Y-23672410D01*
X23599479Y-23954674D01*
X23429741Y-24208705D01*
X23213705Y-24424741D01*
X22959674Y-24594479D01*
X22677410Y-24711396D01*
X22527585Y-24741198D01*
X22377761Y-24771000D01*
X22072239Y-24771000D01*
X21922415Y-24741198D01*
X21772590Y-24711396D01*
X21490326Y-24594479D01*
X21236295Y-24424741D01*
X21020259Y-24208705D01*
X20850521Y-23954674D01*
X20733604Y-23672410D01*
X20674000Y-23372760D01*
X20674000Y-23067240D01*
X20688521Y-22994240D01*
X20733604Y-22767591D01*
X20748154Y-22732463D01*
X20850521Y-22485326D01*
X21020259Y-22231295D01*
X21236295Y-22015259D01*
X21490326Y-21845521D01*
X21772590Y-21728604D01*
X21997322Y-21683902D01*
X22072239Y-21669000D01*
X22377761Y-21669000D01*
X22452678Y-21683902D01*
X22452678Y-21683902D01*
G37*
G36*
X51742585Y-21625802D02*
G01*
X51892410Y-21655604D01*
X52174674Y-21772521D01*
X52428705Y-21942259D01*
X52644741Y-22158295D01*
X52814479Y-22412326D01*
X52931396Y-22694590D01*
X52945917Y-22767591D01*
X52991000Y-22994239D01*
X52991000Y-23299761D01*
X52976479Y-23372761D01*
X52931396Y-23599410D01*
X52814479Y-23881674D01*
X52644741Y-24135705D01*
X52428705Y-24351741D01*
X52174674Y-24521479D01*
X51892410Y-24638396D01*
X51742585Y-24668198D01*
X51592761Y-24698000D01*
X51287239Y-24698000D01*
X51137415Y-24668198D01*
X50987590Y-24638396D01*
X50705326Y-24521479D01*
X50451295Y-24351741D01*
X50235259Y-24135705D01*
X50065521Y-23881674D01*
X49948604Y-23599410D01*
X49903521Y-23372761D01*
X49889000Y-23299761D01*
X49889000Y-22994239D01*
X49934083Y-22767591D01*
X49948604Y-22694590D01*
X50065521Y-22412326D01*
X50235259Y-22158295D01*
X50451295Y-21942259D01*
X50705326Y-21772521D01*
X50987590Y-21655604D01*
X51137415Y-21625802D01*
X51287239Y-21596000D01*
X51592761Y-21596000D01*
X51742585Y-21625802D01*
X51742585Y-21625802D01*
G37*
G36*
X109642585Y-21625802D02*
G01*
X109792410Y-21655604D01*
X110074674Y-21772521D01*
X110328705Y-21942259D01*
X110544741Y-22158295D01*
X110714479Y-22412326D01*
X110831396Y-22694590D01*
X110845917Y-22767591D01*
X110891000Y-22994239D01*
X110891000Y-23299761D01*
X110876479Y-23372761D01*
X110831396Y-23599410D01*
X110714479Y-23881674D01*
X110544741Y-24135705D01*
X110328705Y-24351741D01*
X110074674Y-24521479D01*
X109792410Y-24638396D01*
X109642585Y-24668198D01*
X109492761Y-24698000D01*
X109187239Y-24698000D01*
X109037415Y-24668198D01*
X108887590Y-24638396D01*
X108605326Y-24521479D01*
X108351295Y-24351741D01*
X108135259Y-24135705D01*
X107965521Y-23881674D01*
X107848604Y-23599410D01*
X107803521Y-23372761D01*
X107789000Y-23299761D01*
X107789000Y-22994239D01*
X107834083Y-22767591D01*
X107848604Y-22694590D01*
X107965521Y-22412326D01*
X108135259Y-22158295D01*
X108351295Y-21942259D01*
X108605326Y-21772521D01*
X108887590Y-21655604D01*
X109037415Y-21625802D01*
X109187239Y-21596000D01*
X109492761Y-21596000D01*
X109642585Y-21625802D01*
X109642585Y-21625802D01*
G37*
G36*
X35091000Y-19851000D02*
G01*
X33489000Y-19851000D01*
X33489000Y-18249000D01*
X35091000Y-18249000D01*
X35091000Y-19851000D01*
X35091000Y-19851000D01*
G37*
G36*
X37023642Y-18279781D02*
G01*
X37126728Y-18322481D01*
X37169416Y-18340163D01*
X37300608Y-18427822D01*
X37412178Y-18539392D01*
X37473388Y-18631000D01*
X37499838Y-18670586D01*
X37560219Y-18816358D01*
X37591000Y-18971107D01*
X37591000Y-19128893D01*
X37560219Y-19283642D01*
X37499838Y-19429414D01*
X37499837Y-19429416D01*
X37412178Y-19560608D01*
X37300608Y-19672178D01*
X37169416Y-19759837D01*
X37169415Y-19759838D01*
X37169414Y-19759838D01*
X37023642Y-19820219D01*
X36868893Y-19851000D01*
X36711107Y-19851000D01*
X36556358Y-19820219D01*
X36410586Y-19759838D01*
X36410585Y-19759838D01*
X36410584Y-19759837D01*
X36279392Y-19672178D01*
X36167822Y-19560608D01*
X36080163Y-19429416D01*
X36080162Y-19429414D01*
X36019781Y-19283642D01*
X35989000Y-19128893D01*
X35989000Y-18971107D01*
X36019781Y-18816358D01*
X36080162Y-18670586D01*
X36106612Y-18631000D01*
X36167822Y-18539392D01*
X36279392Y-18427822D01*
X36410584Y-18340163D01*
X36453272Y-18322481D01*
X36556358Y-18279781D01*
X36711107Y-18249000D01*
X36868893Y-18249000D01*
X37023642Y-18279781D01*
X37023642Y-18279781D01*
G37*
G36*
X17946823Y-16941313D02*
G01*
X18107242Y-16989976D01*
X18174361Y-17025852D01*
X18255078Y-17068996D01*
X18384659Y-17175341D01*
X18491004Y-17304922D01*
X18491005Y-17304924D01*
X18570024Y-17452758D01*
X18618687Y-17613177D01*
X18635117Y-17780000D01*
X18618687Y-17946823D01*
X18570024Y-18107242D01*
X18529477Y-18183100D01*
X18491004Y-18255078D01*
X18384659Y-18384659D01*
X18255078Y-18491004D01*
X18255076Y-18491005D01*
X18107242Y-18570024D01*
X17946823Y-18618687D01*
X17821804Y-18631000D01*
X17738196Y-18631000D01*
X17613177Y-18618687D01*
X17452758Y-18570024D01*
X17304924Y-18491005D01*
X17304922Y-18491004D01*
X17175341Y-18384659D01*
X17068996Y-18255078D01*
X17030523Y-18183100D01*
X16989976Y-18107242D01*
X16941313Y-17946823D01*
X16924883Y-17780000D01*
X16941313Y-17613177D01*
X16989976Y-17452758D01*
X17068995Y-17304924D01*
X17068996Y-17304922D01*
X17175341Y-17175341D01*
X17304922Y-17068996D01*
X17385639Y-17025852D01*
X17452758Y-16989976D01*
X17613177Y-16941313D01*
X17738196Y-16929000D01*
X17821804Y-16929000D01*
X17946823Y-16941313D01*
X17946823Y-16941313D01*
G37*
G36*
X28188228Y-16961703D02*
G01*
X28343100Y-17025853D01*
X28482481Y-17118985D01*
X28601015Y-17237519D01*
X28694147Y-17376900D01*
X28758297Y-17531772D01*
X28791000Y-17696184D01*
X28791000Y-17863816D01*
X28758297Y-18028228D01*
X28694147Y-18183100D01*
X28601015Y-18322481D01*
X28482481Y-18441015D01*
X28343100Y-18534147D01*
X28188228Y-18598297D01*
X28023816Y-18631000D01*
X27856184Y-18631000D01*
X27691772Y-18598297D01*
X27536900Y-18534147D01*
X27397519Y-18441015D01*
X27278985Y-18322481D01*
X27185853Y-18183100D01*
X27121703Y-18028228D01*
X27089000Y-17863816D01*
X27089000Y-17696184D01*
X27121703Y-17531772D01*
X27185853Y-17376900D01*
X27278985Y-17237519D01*
X27397519Y-17118985D01*
X27536900Y-17025853D01*
X27691772Y-16961703D01*
X27856184Y-16929000D01*
X28023816Y-16929000D01*
X28188228Y-16961703D01*
X28188228Y-16961703D01*
G37*
M02*
