M48
; DRILL file {KiCad (5.1.4)-1} date 16/09/2019 22:15:49
; FORMAT={3:3/ absolute / metric / suppress leading zeros}
; #@! TF.CreationDate,2019-09-16T22:15:49+02:00
; #@! TF.GenerationSoftware,Kicad,Pcbnew,(5.1.4)-1
; #@! TF.FileFunction,NonPlated,1,2,NPTH
FMAT,2
METRIC,TZ
T1C1.500
T2C2.700
T3C3.000
T4C3.200
T5C3.500
T6C3.600
%
G90
G05
T2
X23495Y-39550
T3
X51997Y-20114
X109898Y-20114
T4
X22500Y-21500
X130500Y-99500
X58448Y-20114
X103448Y-20114
X22500Y-99500
X130500Y-21500
T5
X61480Y-49325
X61480Y-74325
X113800Y-49325
X113800Y-74325
T6
X81847Y-23114
T1
G00X44000Y-103900
M15
G01X44000Y-103400
M16
G05
G00X103000Y-103900
M15
G01X103000Y-103400
M16
G05
G00X107000Y-103900
M15
G01X107000Y-103400
M16
G05
G00X76000Y-103900
M15
G01X76000Y-103400
M16
G05
G00X85000Y-103900
M15
G01X85000Y-103400
M16
G05
G00X89000Y-103900
M15
G01X89000Y-103400
M16
G05
G00X58000Y-103900
M15
G01X58000Y-103400
M16
G05
G00X62000Y-103900
M15
G01X62000Y-103400
M16
G05
G00X94000Y-103900
M15
G01X94000Y-103400
M16
G05
G00X98000Y-103900
M15
G01X98000Y-103400
M16
G05
G00X67000Y-103900
M15
G01X67000Y-103400
M16
G05
G00X71000Y-103900
M15
G01X71000Y-103400
M16
G05
G00X40000Y-103900
M15
G01X40000Y-103400
M16
G05
G00X80000Y-103900
M15
G01X80000Y-103400
M16
G05
G00X49000Y-103900
M15
G01X49000Y-103400
M16
G05
G00X53000Y-103900
M15
G01X53000Y-103400
M16
G05
T0
M30
