M48
; DRILL file {KiCad (5.1.4)-1} date 11/09/2019 00:02:15
; FORMAT={3:3/ absolute / metric / suppress leading zeros}
; #@! TF.CreationDate,2019-09-11T00:02:15+02:00
; #@! TF.GenerationSoftware,Kicad,Pcbnew,(5.1.4)-1
; #@! TF.FileFunction,NonPlated,1,2,NPTH
FMAT,2
METRIC,TZ
T1C1.500
T2C2.700
T3C3.000
T4C3.200
T5C3.500
T6C3.600
%
G90
G05
T2
X22225Y-34470
T3
X51440Y-23147
X109340Y-23147
T4
X57890Y-23147
X102890Y-23147
T5
X59575Y-47825
X59575Y-72825
X111895Y-47825
X111895Y-72825
T6
X81290Y-26147
T1
G00X111855Y-100710
M15
G01X111855Y-100210
M16
G05
G00X86455Y-100710
M15
G01X86455Y-100210
M16
G05
G00X76105Y-100710
M15
G01X76105Y-100210
M16
G05
G00X80105Y-100710
M15
G01X80105Y-100210
M16
G05
G00X95155Y-100710
M15
G01X95155Y-100210
M16
G05
G00X99155Y-100710
M15
G01X99155Y-100210
M16
G05
G00X69755Y-100710
M15
G01X69755Y-100210
M16
G05
G00X73755Y-100710
M15
G01X73755Y-100210
M16
G05
G00X88805Y-100710
M15
G01X88805Y-100210
M16
G05
G00X92805Y-100710
M15
G01X92805Y-100210
M16
G05
G00X107855Y-100710
M15
G01X107855Y-100210
M16
G05
G00X63468Y-100710
M15
G01X63468Y-100210
M16
G05
G00X67469Y-100710
M15
G01X67469Y-100210
M16
G05
G00X82455Y-100710
M15
G01X82455Y-100210
M16
G05
G00X101505Y-100710
M15
G01X101505Y-100210
M16
G05
G00X105505Y-100710
M15
G01X105505Y-100210
M16
G05
T0
M30
