M48
; DRILL file {KiCad (5.1.4)-1} date 11/09/2019 00:02:15
; FORMAT={3:3/ absolute / metric / suppress leading zeros}
; #@! TF.CreationDate,2019-09-11T00:02:15+02:00
; #@! TF.GenerationSoftware,Kicad,Pcbnew,(5.1.4)-1
; #@! TF.FileFunction,Plated,1,2,PTH
FMAT,2
METRIC,TZ
T1C0.600
T2C0.762
T3C0.800
T4C0.900
T5C0.990
T6C1.000
T7C1.200
T8C1.300
T9C1.700
T10C3.500
%
G90
G05
T2
X67945Y-46355
X67945Y-74295
X70485Y-46355
X70485Y-74295
X73025Y-46355
X73025Y-74295
X75565Y-46355
X75565Y-74295
X78105Y-46355
X78105Y-74295
X80645Y-46355
X80645Y-74295
X83185Y-46355
X83185Y-74295
X85725Y-46355
X85725Y-74295
X88265Y-46355
X88265Y-74295
X90805Y-46355
X90805Y-74295
X93345Y-46355
X93345Y-74295
X95885Y-46355
X95885Y-74295
X98425Y-46355
X98425Y-74295
X100965Y-46355
X100965Y-74295
X103505Y-46355
X103505Y-74295
T3
X49530Y-83820
X49530Y-93980
X91440Y-83185
X101600Y-83185
X64770Y-79375
X64770Y-81875
X53975Y-83820
X53975Y-93980
X31115Y-60389
X41275Y-60389
X46355Y-40069
X51435Y-40069
X51435Y-60389
X67945Y-79375
X67945Y-86995
X70485Y-79375
X70485Y-86995
X73025Y-79375
X73025Y-86995
X75565Y-79375
X75565Y-86995
X78105Y-79375
X78105Y-86995
X80645Y-79375
X80645Y-86995
X83185Y-79375
X83185Y-86995
X85725Y-79375
X85725Y-86995
X91440Y-80010
X101600Y-80010
X46355Y-83820
X46355Y-93980
X17780Y-17780
X27940Y-17780
T4
X38140Y-98870
X40640Y-98870
X43855Y-98870
X46355Y-98870
X34290Y-19050
X36790Y-19050
T5
X51380Y-100140
X55880Y-100140
T6
X121285Y-69215
X121285Y-71755
X121285Y-74295
X121285Y-76835
X121285Y-79375
T7
X41275Y-67310
X36830Y-67310
T8
X22225Y-23220
X22225Y-45720
X50120Y-97649
X57130Y-97649
T9
X66040Y-33147
X73040Y-33147
X91490Y-29307
X100090Y-29307
T10
X36000Y-89000
X36000Y-29000
X116000Y-89000
X116000Y-29000
T1
G00X82555Y-96210
M15
G01X82555Y-95410
M16
G05
G00X76205Y-96210
M15
G01X76205Y-95410
M16
G05
G00X78505Y-92710
M15
G01X77705Y-92710
M16
G05
G00X80005Y-96210
M15
G01X80005Y-95410
M16
G05
G00X95255Y-96210
M15
G01X95255Y-95410
M16
G05
G00X97555Y-92710
M15
G01X96755Y-92710
M16
G05
G00X99055Y-96210
M15
G01X99055Y-95410
M16
G05
G00X69855Y-96210
M15
G01X69855Y-95410
M16
G05
G00X72155Y-92710
M15
G01X71355Y-92710
M16
G05
G00X73655Y-96210
M15
G01X73655Y-95410
M16
G05
G00X88905Y-96210
M15
G01X88905Y-95410
M16
G05
G00X91205Y-92710
M15
G01X90405Y-92710
M16
G05
G00X92705Y-96210
M15
G01X92705Y-95410
M16
G05
G00X107955Y-96210
M15
G01X107955Y-95410
M16
G05
G00X110255Y-92710
M15
G01X109455Y-92710
M16
G05
G00X111755Y-96210
M15
G01X111755Y-95410
M16
G05
G00X63568Y-96210
M15
G01X63568Y-95410
M16
G05
G00X65869Y-92710
M15
G01X65068Y-92710
M16
G05
G00X67369Y-96210
M15
G01X67369Y-95410
M16
G05
G00X84855Y-92710
M15
G01X84055Y-92710
M16
G05
G00X86355Y-96210
M15
G01X86355Y-95410
M16
G05
G00X101605Y-96210
M15
G01X101605Y-95410
M16
G05
G00X103905Y-92710
M15
G01X103105Y-92710
M16
G05
G00X105405Y-96210
M15
G01X105405Y-95410
M16
G05
T0
M30
