G04 #@! TF.GenerationSoftware,KiCad,Pcbnew,(5.1.4)-1*
G04 #@! TF.CreationDate,2019-09-16T22:16:00+02:00*
G04 #@! TF.ProjectId,BBMini,42424d69-6e69-42e6-9b69-6361645f7063,V1.0*
G04 #@! TF.SameCoordinates,PXe4e1c0PY6516e80*
G04 #@! TF.FileFunction,Legend,Top*
G04 #@! TF.FilePolarity,Positive*
%FSLAX46Y46*%
G04 Gerber Fmt 4.6, Leading zero omitted, Abs format (unit mm)*
G04 Created by KiCad (PCBNEW (5.1.4)-1) date 2019-09-16 22:16:00*
%MOMM*%
%LPD*%
G04 APERTURE LIST*
%ADD10C,0.150000*%
%ADD11C,0.120000*%
%ADD12C,0.250000*%
%ADD13C,3.102000*%
%ADD14C,3.302000*%
%ADD15C,5.102000*%
%ADD16C,7.102000*%
%ADD17C,6.302000*%
%ADD18C,1.602000*%
%ADD19O,1.702000X1.702000*%
%ADD20R,1.702000X1.702000*%
%ADD21C,1.626000*%
%ADD22C,2.602000*%
%ADD23C,0.100000*%
%ADD24C,1.302000*%
%ADD25O,1.602000X2.102000*%
%ADD26C,2.202000*%
%ADD27C,1.852000*%
%ADD28C,1.702000*%
%ADD29O,2.134000X2.134000*%
%ADD30R,2.134000X2.134000*%
%ADD31C,2.802000*%
%ADD32R,1.602000X1.602000*%
G04 APERTURE END LIST*
D10*
X28053095Y33880000D02*
X27957857Y33927620D01*
X27815000Y33927620D01*
X27672142Y33880000D01*
X27576904Y33784762D01*
X27529285Y33689524D01*
X27481666Y33499048D01*
X27481666Y33356191D01*
X27529285Y33165715D01*
X27576904Y33070477D01*
X27672142Y32975239D01*
X27815000Y32927620D01*
X27910238Y32927620D01*
X28053095Y32975239D01*
X28100714Y33022858D01*
X28100714Y33356191D01*
X27910238Y33356191D01*
X28529285Y32927620D02*
X28529285Y33927620D01*
X29100714Y32927620D01*
X29100714Y33927620D01*
X29576904Y32927620D02*
X29576904Y33927620D01*
X29815000Y33927620D01*
X29957857Y33880000D01*
X30053095Y33784762D01*
X30100714Y33689524D01*
X30148333Y33499048D01*
X30148333Y33356191D01*
X30100714Y33165715D01*
X30053095Y33070477D01*
X29957857Y32975239D01*
X29815000Y32927620D01*
X29576904Y32927620D01*
X21814285Y33308572D02*
X22576190Y33308572D01*
X22195238Y32927620D02*
X22195238Y33689524D01*
X23528571Y33927620D02*
X23052380Y33927620D01*
X23004761Y33451429D01*
X23052380Y33499048D01*
X23147619Y33546667D01*
X23385714Y33546667D01*
X23480952Y33499048D01*
X23528571Y33451429D01*
X23576190Y33356191D01*
X23576190Y33118096D01*
X23528571Y33022858D01*
X23480952Y32975239D01*
X23385714Y32927620D01*
X23147619Y32927620D01*
X23052380Y32975239D01*
X23004761Y33022858D01*
X23861904Y33927620D02*
X24195238Y32927620D01*
X24528571Y33927620D01*
X92597500Y83886500D02*
X92597500Y72886500D01*
X39297500Y83886500D02*
X39297500Y72886500D01*
X34947500Y87886500D02*
X34947500Y83886500D01*
X34947500Y83886500D02*
X39297500Y83886500D01*
X34947500Y87886500D02*
X39297500Y87886500D01*
X96947500Y87886500D02*
X92597500Y87886500D01*
X96947500Y83886500D02*
X92597500Y83886500D01*
X96947500Y87886500D02*
X96947500Y83886500D01*
X92597500Y90886500D02*
X92597500Y87886500D01*
X39297500Y90886500D02*
X39297500Y87886500D01*
X39297500Y72886500D02*
X92597500Y72886500D01*
X39297500Y90886500D02*
X92597500Y90886500D01*
X119000000Y91000000D02*
X119000000Y81000000D01*
X119000000Y81000000D02*
X112000000Y81000000D01*
X112000000Y81000000D02*
X112000000Y91000000D01*
X112000000Y91000000D02*
X119000000Y91000000D01*
X4000000Y91000000D02*
X11000000Y91000000D01*
X4000000Y81000000D02*
X4000000Y91000000D01*
X11000000Y81000000D02*
X4000000Y81000000D01*
X11000000Y91000000D02*
X11000000Y81000000D01*
X119000000Y0D02*
X112000000Y0D01*
X119000000Y10000000D02*
X119000000Y0D01*
X112000000Y10000000D02*
X119000000Y10000000D01*
X112000000Y0D02*
X112000000Y10000000D01*
X4000000Y0D02*
X4000000Y10000000D01*
X4000000Y10000000D02*
X11000000Y10000000D01*
X11000000Y10000000D02*
X11000000Y0D01*
X11000000Y0D02*
X4000000Y0D01*
D11*
X90950000Y12500000D02*
G75*
G03X90950000Y12500000I-950000J0D01*
G01*
X81950000Y12500000D02*
G75*
G03X81950000Y12500000I-950000J0D01*
G01*
X72950000Y12500000D02*
G75*
G03X72950000Y12500000I-950000J0D01*
G01*
X63950000Y12500000D02*
G75*
G03X63950000Y12500000I-950000J0D01*
G01*
X54950000Y12500000D02*
G75*
G03X54950000Y12500000I-950000J0D01*
G01*
X45950000Y12500000D02*
G75*
G03X45950000Y12500000I-950000J0D01*
G01*
X36940500Y12500000D02*
G75*
G03X36940500Y12500000I-950000J0D01*
G01*
X27950000Y12500000D02*
G75*
G03X27950000Y12500000I-950000J0D01*
G01*
X53460000Y27090000D02*
X53460000Y16810000D01*
X74020000Y27090000D02*
X53460000Y27090000D01*
X74020000Y16810000D02*
X74020000Y27090000D01*
X53460000Y16810000D02*
X74020000Y16810000D01*
X53520000Y24600000D02*
X53520000Y22950000D01*
X73960000Y24600000D02*
X53520000Y24600000D01*
X73960000Y19300000D02*
X73960000Y24600000D01*
X53520000Y19300000D02*
X73960000Y19300000D01*
X53520000Y20950000D02*
X53520000Y19300000D01*
X53520000Y22950000D02*
G75*
G02X53520000Y20950000I0J-1000000D01*
G01*
D12*
X101650000Y59675000D02*
X43630000Y59675000D01*
X43630000Y28675000D02*
X101650000Y28675000D01*
X101650000Y28675000D02*
X101650000Y59675000D01*
X43630000Y28675000D02*
X43630000Y59675000D01*
D11*
X30265000Y36555000D02*
G75*
G03X30265000Y36555000I-1450000J0D01*
G01*
X24550000Y36555000D02*
G75*
G03X24550000Y36555000I-1450000J0D01*
G01*
D12*
X92500000Y100000D02*
X87500000Y100000D01*
X87500000Y10100000D02*
X87500000Y8100000D01*
X88800000Y10100000D02*
X87500000Y10100000D01*
X92500000Y10100000D02*
X91200000Y10100000D01*
X92500000Y8100000D02*
X92500000Y10100000D01*
X87500000Y5900000D02*
X87500000Y3400000D01*
X92500000Y3400000D02*
X92500000Y5900000D01*
X87500000Y100000D02*
X87500000Y1300000D01*
X92500000Y100000D02*
X92500000Y1300000D01*
X83500000Y100000D02*
X78500000Y100000D01*
X78500000Y10100000D02*
X78500000Y8100000D01*
X79800000Y10100000D02*
X78500000Y10100000D01*
X83500000Y10100000D02*
X82200000Y10100000D01*
X83500000Y8100000D02*
X83500000Y10100000D01*
X78500000Y5900000D02*
X78500000Y3400000D01*
X83500000Y3400000D02*
X83500000Y5900000D01*
X78500000Y100000D02*
X78500000Y1300000D01*
X83500000Y100000D02*
X83500000Y1300000D01*
X74500000Y100000D02*
X69500000Y100000D01*
X69500000Y10100000D02*
X69500000Y8100000D01*
X70800000Y10100000D02*
X69500000Y10100000D01*
X74500000Y10100000D02*
X73200000Y10100000D01*
X74500000Y8100000D02*
X74500000Y10100000D01*
X69500000Y5900000D02*
X69500000Y3400000D01*
X74500000Y3400000D02*
X74500000Y5900000D01*
X69500000Y100000D02*
X69500000Y1300000D01*
X74500000Y100000D02*
X74500000Y1300000D01*
X65500000Y100000D02*
X60500000Y100000D01*
X60500000Y10100000D02*
X60500000Y8100000D01*
X61800000Y10100000D02*
X60500000Y10100000D01*
X65500000Y10100000D02*
X64200000Y10100000D01*
X65500000Y8100000D02*
X65500000Y10100000D01*
X60500000Y5900000D02*
X60500000Y3400000D01*
X65500000Y3400000D02*
X65500000Y5900000D01*
X60500000Y100000D02*
X60500000Y1300000D01*
X65500000Y100000D02*
X65500000Y1300000D01*
X56500000Y100000D02*
X51500000Y100000D01*
X51500000Y10100000D02*
X51500000Y8100000D01*
X52800000Y10100000D02*
X51500000Y10100000D01*
X56500000Y10100000D02*
X55200000Y10100000D01*
X56500000Y8100000D02*
X56500000Y10100000D01*
X51500000Y5900000D02*
X51500000Y3400000D01*
X56500000Y3400000D02*
X56500000Y5900000D01*
X51500000Y100000D02*
X51500000Y1300000D01*
X56500000Y100000D02*
X56500000Y1300000D01*
X47500000Y100000D02*
X42500000Y100000D01*
X42500000Y10100000D02*
X42500000Y8100000D01*
X43800000Y10100000D02*
X42500000Y10100000D01*
X47500000Y10100000D02*
X46200000Y10100000D01*
X47500000Y8100000D02*
X47500000Y10100000D01*
X42500000Y5900000D02*
X42500000Y3400000D01*
X47500000Y3400000D02*
X47500000Y5900000D01*
X42500000Y100000D02*
X42500000Y1300000D01*
X47500000Y100000D02*
X47500000Y1300000D01*
X38500000Y100000D02*
X33500000Y100000D01*
X33500000Y10100000D02*
X33500000Y8100000D01*
X34800000Y10100000D02*
X33500000Y10100000D01*
X38500000Y10100000D02*
X37200000Y10100000D01*
X38500000Y8100000D02*
X38500000Y10100000D01*
X33500000Y5900000D02*
X33500000Y3400000D01*
X38500000Y3400000D02*
X38500000Y5900000D01*
X33500000Y100000D02*
X33500000Y1300000D01*
X38500000Y100000D02*
X38500000Y1300000D01*
X29500000Y100000D02*
X24500000Y100000D01*
X24500000Y10100000D02*
X24500000Y8100000D01*
X25800000Y10100000D02*
X24500000Y10100000D01*
X29500000Y10100000D02*
X28200000Y10100000D01*
X29500000Y8100000D02*
X29500000Y10100000D01*
X24500000Y5900000D02*
X24500000Y3400000D01*
X29500000Y3400000D02*
X29500000Y5900000D01*
X24500000Y100000D02*
X24500000Y1300000D01*
X29500000Y100000D02*
X29500000Y1300000D01*
D11*
X102560000Y3743000D02*
X99160000Y3743000D01*
X104200000Y3743000D02*
X103660000Y3743000D01*
X97000000Y6573000D02*
X97000000Y7083000D01*
X97520000Y7083000D02*
X97000000Y7083000D01*
X97520000Y6573000D02*
X97520000Y7083000D01*
X98060000Y3743000D02*
X97520000Y3743000D01*
X104720000Y6573000D02*
X104720000Y7083000D01*
X104200000Y6573000D02*
X104200000Y7083000D01*
X97520000Y3743000D02*
X97520000Y3973000D01*
X104720000Y73000D02*
X104720000Y3973000D01*
X104720000Y7083000D02*
X104200000Y7083000D01*
X97000000Y73000D02*
X97000000Y3973000D01*
X104720000Y73000D02*
X97000000Y73000D01*
X104200000Y3743000D02*
X104200000Y3973000D01*
X107555000Y11893000D02*
X107555000Y11123000D01*
X107555000Y3813000D02*
X107555000Y4583000D01*
X106185000Y11123000D02*
X106185000Y4583000D01*
X108925000Y11123000D02*
X106185000Y11123000D01*
X108925000Y4583000D02*
X108925000Y11123000D01*
X106185000Y4583000D02*
X108925000Y4583000D01*
X16520000Y21545000D02*
X17290000Y21545000D01*
X24600000Y21545000D02*
X23830000Y21545000D01*
X17290000Y20175000D02*
X23830000Y20175000D01*
X17290000Y22915000D02*
X17290000Y20175000D01*
X23830000Y22915000D02*
X17290000Y22915000D01*
X23830000Y20175000D02*
X23830000Y22915000D01*
X16520000Y24720000D02*
X17290000Y24720000D01*
X24600000Y24720000D02*
X23830000Y24720000D01*
X17290000Y23350000D02*
X23830000Y23350000D01*
X17290000Y26090000D02*
X17290000Y23350000D01*
X23830000Y26090000D02*
X17290000Y26090000D01*
X23830000Y23350000D02*
X23830000Y26090000D01*
X85560000Y25760000D02*
X84790000Y25760000D01*
X77480000Y25760000D02*
X78250000Y25760000D01*
X84790000Y27130000D02*
X78250000Y27130000D01*
X84790000Y24390000D02*
X84790000Y27130000D01*
X78250000Y24390000D02*
X84790000Y24390000D01*
X78250000Y27130000D02*
X78250000Y24390000D01*
X85560000Y22585000D02*
X84790000Y22585000D01*
X77480000Y22585000D02*
X78250000Y22585000D01*
X84790000Y23955000D02*
X78250000Y23955000D01*
X84790000Y21215000D02*
X84790000Y23955000D01*
X78250000Y21215000D02*
X84790000Y21215000D01*
X78250000Y23955000D02*
X78250000Y21215000D01*
X27227500Y77830000D02*
X27227500Y78600000D01*
X27227500Y85910000D02*
X27227500Y85140000D01*
X28597500Y78600000D02*
X28597500Y85140000D01*
X25857500Y78600000D02*
X28597500Y78600000D01*
X25857500Y85140000D02*
X25857500Y78600000D01*
X28597500Y85140000D02*
X25857500Y85140000D01*
D12*
X41615000Y66500000D02*
X41615000Y40900000D01*
X16015000Y66500000D02*
X16015000Y40900000D01*
X16015000Y40900000D02*
X41615000Y40900000D01*
X16015000Y66500000D02*
X41615000Y66500000D01*
D10*
X110590000Y35250000D02*
X110590000Y25250000D01*
X105590000Y23815000D02*
X111390000Y23815000D01*
X106920000Y34015000D02*
X106920000Y23815000D01*
X105590000Y36565000D02*
X111390000Y36565000D01*
X106640000Y36565000D02*
X106640000Y35085000D01*
X109460000Y34015000D02*
X106920000Y34015000D01*
X109740000Y36565000D02*
X109740000Y35085000D01*
X109460000Y34015000D02*
X109460000Y23815000D01*
X111390000Y36565000D02*
X111390000Y23815000D01*
X105590000Y36565000D02*
X105590000Y23815000D01*
X110590000Y35250000D02*
X111390000Y35250000D01*
X110590000Y25250000D02*
X111390000Y25250000D01*
X13295000Y55200000D02*
X10495000Y55200000D01*
X13295000Y55200000D02*
X13295000Y77700000D01*
X3695000Y55200000D02*
X3695000Y77700000D01*
X6495000Y55200000D02*
X3695000Y55200000D01*
X6495000Y77700000D02*
X3695000Y77700000D01*
X13295000Y77700000D02*
X10495000Y77700000D01*
D12*
X22530000Y5219000D02*
X22530000Y4919000D01*
X18630000Y5219000D02*
X18630000Y4619000D01*
X22530000Y3119000D02*
X22530000Y119000D01*
X18630000Y119000D02*
X18630000Y3419000D01*
X22530000Y5219000D02*
X18630000Y5219000D01*
X22530000Y119000D02*
X18630000Y119000D01*
X17450000Y5203500D02*
X17450000Y4903500D01*
X13550000Y5203500D02*
X13550000Y4603500D01*
X17450000Y3103500D02*
X17450000Y103500D01*
X13550000Y103500D02*
X13550000Y3403500D01*
X17450000Y5203500D02*
X13550000Y5203500D01*
X17450000Y103500D02*
X13550000Y103500D01*
X20535000Y85750000D02*
X20535000Y86050000D01*
X24435000Y85750000D02*
X24435000Y86350000D01*
X20535000Y87850000D02*
X20535000Y90850000D01*
X24435000Y90850000D02*
X24435000Y87550000D01*
X20535000Y85750000D02*
X24435000Y85750000D01*
X20535000Y90850000D02*
X24435000Y90850000D01*
D11*
X48922500Y26685000D02*
X48922500Y26930000D01*
X48922500Y24590000D02*
X48922500Y24835000D01*
X52562500Y26685000D02*
X52562500Y26930000D01*
X52562500Y24590000D02*
X52562500Y24835000D01*
X52562500Y26930000D02*
X48922500Y26930000D01*
X52562500Y24590000D02*
X48922500Y24590000D01*
D10*
X65614166Y69717620D02*
X65614166Y69003334D01*
X65566547Y68860477D01*
X65471309Y68765239D01*
X65328452Y68717620D01*
X65233214Y68717620D01*
X66614166Y68717620D02*
X66042738Y68717620D01*
X66328452Y68717620D02*
X66328452Y69717620D01*
X66233214Y69574762D01*
X66137976Y69479524D01*
X66042738Y69431905D01*
X91301904Y13047620D02*
X91873333Y13047620D01*
X91587619Y12047620D02*
X91587619Y13047620D01*
X92159047Y12095239D02*
X92301904Y12047620D01*
X92540000Y12047620D01*
X92635238Y12095239D01*
X92682857Y12142858D01*
X92730476Y12238096D01*
X92730476Y12333334D01*
X92682857Y12428572D01*
X92635238Y12476191D01*
X92540000Y12523810D01*
X92349523Y12571429D01*
X92254285Y12619048D01*
X92206666Y12666667D01*
X92159047Y12761905D01*
X92159047Y12857143D01*
X92206666Y12952381D01*
X92254285Y13000000D01*
X92349523Y13047620D01*
X92587619Y13047620D01*
X92730476Y13000000D01*
X93301904Y12619048D02*
X93206666Y12666667D01*
X93159047Y12714286D01*
X93111428Y12809524D01*
X93111428Y12857143D01*
X93159047Y12952381D01*
X93206666Y13000000D01*
X93301904Y13047620D01*
X93492380Y13047620D01*
X93587619Y13000000D01*
X93635238Y12952381D01*
X93682857Y12857143D01*
X93682857Y12809524D01*
X93635238Y12714286D01*
X93587619Y12666667D01*
X93492380Y12619048D01*
X93301904Y12619048D01*
X93206666Y12571429D01*
X93159047Y12523810D01*
X93111428Y12428572D01*
X93111428Y12238096D01*
X93159047Y12142858D01*
X93206666Y12095239D01*
X93301904Y12047620D01*
X93492380Y12047620D01*
X93587619Y12095239D01*
X93635238Y12142858D01*
X93682857Y12238096D01*
X93682857Y12428572D01*
X93635238Y12523810D01*
X93587619Y12571429D01*
X93492380Y12619048D01*
X82301904Y13047620D02*
X82873333Y13047620D01*
X82587619Y12047620D02*
X82587619Y13047620D01*
X83159047Y12095239D02*
X83301904Y12047620D01*
X83540000Y12047620D01*
X83635238Y12095239D01*
X83682857Y12142858D01*
X83730476Y12238096D01*
X83730476Y12333334D01*
X83682857Y12428572D01*
X83635238Y12476191D01*
X83540000Y12523810D01*
X83349523Y12571429D01*
X83254285Y12619048D01*
X83206666Y12666667D01*
X83159047Y12761905D01*
X83159047Y12857143D01*
X83206666Y12952381D01*
X83254285Y13000000D01*
X83349523Y13047620D01*
X83587619Y13047620D01*
X83730476Y13000000D01*
X84063809Y13047620D02*
X84730476Y13047620D01*
X84301904Y12047620D01*
X73301904Y13047620D02*
X73873333Y13047620D01*
X73587619Y12047620D02*
X73587619Y13047620D01*
X74159047Y12095239D02*
X74301904Y12047620D01*
X74540000Y12047620D01*
X74635238Y12095239D01*
X74682857Y12142858D01*
X74730476Y12238096D01*
X74730476Y12333334D01*
X74682857Y12428572D01*
X74635238Y12476191D01*
X74540000Y12523810D01*
X74349523Y12571429D01*
X74254285Y12619048D01*
X74206666Y12666667D01*
X74159047Y12761905D01*
X74159047Y12857143D01*
X74206666Y12952381D01*
X74254285Y13000000D01*
X74349523Y13047620D01*
X74587619Y13047620D01*
X74730476Y13000000D01*
X75587619Y13047620D02*
X75397142Y13047620D01*
X75301904Y13000000D01*
X75254285Y12952381D01*
X75159047Y12809524D01*
X75111428Y12619048D01*
X75111428Y12238096D01*
X75159047Y12142858D01*
X75206666Y12095239D01*
X75301904Y12047620D01*
X75492380Y12047620D01*
X75587619Y12095239D01*
X75635238Y12142858D01*
X75682857Y12238096D01*
X75682857Y12476191D01*
X75635238Y12571429D01*
X75587619Y12619048D01*
X75492380Y12666667D01*
X75301904Y12666667D01*
X75206666Y12619048D01*
X75159047Y12571429D01*
X75111428Y12476191D01*
X64301904Y13047620D02*
X64873333Y13047620D01*
X64587619Y12047620D02*
X64587619Y13047620D01*
X65159047Y12095239D02*
X65301904Y12047620D01*
X65540000Y12047620D01*
X65635238Y12095239D01*
X65682857Y12142858D01*
X65730476Y12238096D01*
X65730476Y12333334D01*
X65682857Y12428572D01*
X65635238Y12476191D01*
X65540000Y12523810D01*
X65349523Y12571429D01*
X65254285Y12619048D01*
X65206666Y12666667D01*
X65159047Y12761905D01*
X65159047Y12857143D01*
X65206666Y12952381D01*
X65254285Y13000000D01*
X65349523Y13047620D01*
X65587619Y13047620D01*
X65730476Y13000000D01*
X66635238Y13047620D02*
X66159047Y13047620D01*
X66111428Y12571429D01*
X66159047Y12619048D01*
X66254285Y12666667D01*
X66492380Y12666667D01*
X66587619Y12619048D01*
X66635238Y12571429D01*
X66682857Y12476191D01*
X66682857Y12238096D01*
X66635238Y12142858D01*
X66587619Y12095239D01*
X66492380Y12047620D01*
X66254285Y12047620D01*
X66159047Y12095239D01*
X66111428Y12142858D01*
X55365404Y13047620D02*
X55936833Y13047620D01*
X55651119Y12047620D02*
X55651119Y13047620D01*
X56222547Y12095239D02*
X56365404Y12047620D01*
X56603500Y12047620D01*
X56698738Y12095239D01*
X56746357Y12142858D01*
X56793976Y12238096D01*
X56793976Y12333334D01*
X56746357Y12428572D01*
X56698738Y12476191D01*
X56603500Y12523810D01*
X56413023Y12571429D01*
X56317785Y12619048D01*
X56270166Y12666667D01*
X56222547Y12761905D01*
X56222547Y12857143D01*
X56270166Y12952381D01*
X56317785Y13000000D01*
X56413023Y13047620D01*
X56651119Y13047620D01*
X56793976Y13000000D01*
X57651119Y12714286D02*
X57651119Y12047620D01*
X57413023Y13095239D02*
X57174928Y12380953D01*
X57793976Y12380953D01*
X46428904Y13047620D02*
X47000333Y13047620D01*
X46714619Y12047620D02*
X46714619Y13047620D01*
X47286047Y12095239D02*
X47428904Y12047620D01*
X47667000Y12047620D01*
X47762238Y12095239D01*
X47809857Y12142858D01*
X47857476Y12238096D01*
X47857476Y12333334D01*
X47809857Y12428572D01*
X47762238Y12476191D01*
X47667000Y12523810D01*
X47476523Y12571429D01*
X47381285Y12619048D01*
X47333666Y12666667D01*
X47286047Y12761905D01*
X47286047Y12857143D01*
X47333666Y12952381D01*
X47381285Y13000000D01*
X47476523Y13047620D01*
X47714619Y13047620D01*
X47857476Y13000000D01*
X48190809Y13047620D02*
X48809857Y13047620D01*
X48476523Y12666667D01*
X48619380Y12666667D01*
X48714619Y12619048D01*
X48762238Y12571429D01*
X48809857Y12476191D01*
X48809857Y12238096D01*
X48762238Y12142858D01*
X48714619Y12095239D01*
X48619380Y12047620D01*
X48333666Y12047620D01*
X48238428Y12095239D01*
X48190809Y12142858D01*
X37292404Y13047620D02*
X37863833Y13047620D01*
X37578119Y12047620D02*
X37578119Y13047620D01*
X38149547Y12095239D02*
X38292404Y12047620D01*
X38530500Y12047620D01*
X38625738Y12095239D01*
X38673357Y12142858D01*
X38720976Y12238096D01*
X38720976Y12333334D01*
X38673357Y12428572D01*
X38625738Y12476191D01*
X38530500Y12523810D01*
X38340023Y12571429D01*
X38244785Y12619048D01*
X38197166Y12666667D01*
X38149547Y12761905D01*
X38149547Y12857143D01*
X38197166Y12952381D01*
X38244785Y13000000D01*
X38340023Y13047620D01*
X38578119Y13047620D01*
X38720976Y13000000D01*
X39101928Y12952381D02*
X39149547Y13000000D01*
X39244785Y13047620D01*
X39482880Y13047620D01*
X39578119Y13000000D01*
X39625738Y12952381D01*
X39673357Y12857143D01*
X39673357Y12761905D01*
X39625738Y12619048D01*
X39054309Y12047620D01*
X39673357Y12047620D01*
X28301904Y13047620D02*
X28873333Y13047620D01*
X28587619Y12047620D02*
X28587619Y13047620D01*
X29159047Y12095239D02*
X29301904Y12047620D01*
X29540000Y12047620D01*
X29635238Y12095239D01*
X29682857Y12142858D01*
X29730476Y12238096D01*
X29730476Y12333334D01*
X29682857Y12428572D01*
X29635238Y12476191D01*
X29540000Y12523810D01*
X29349523Y12571429D01*
X29254285Y12619048D01*
X29206666Y12666667D01*
X29159047Y12761905D01*
X29159047Y12857143D01*
X29206666Y12952381D01*
X29254285Y13000000D01*
X29349523Y13047620D01*
X29587619Y13047620D01*
X29730476Y13000000D01*
X30682857Y12047620D02*
X30111428Y12047620D01*
X30397142Y12047620D02*
X30397142Y13047620D01*
X30301904Y12904762D01*
X30206666Y12809524D01*
X30111428Y12761905D01*
X50913095Y22497620D02*
X50913095Y21688096D01*
X50960714Y21592858D01*
X51008333Y21545239D01*
X51103571Y21497620D01*
X51294047Y21497620D01*
X51389285Y21545239D01*
X51436904Y21592858D01*
X51484523Y21688096D01*
X51484523Y22497620D01*
X51913095Y22402381D02*
X51960714Y22450000D01*
X52055952Y22497620D01*
X52294047Y22497620D01*
X52389285Y22450000D01*
X52436904Y22402381D01*
X52484523Y22307143D01*
X52484523Y22211905D01*
X52436904Y22069048D01*
X51865476Y21497620D01*
X52484523Y21497620D01*
X102088095Y44722620D02*
X102088095Y43913096D01*
X102135714Y43817858D01*
X102183333Y43770239D01*
X102278571Y43722620D01*
X102469047Y43722620D01*
X102564285Y43770239D01*
X102611904Y43817858D01*
X102659523Y43913096D01*
X102659523Y44722620D01*
X103659523Y43722620D02*
X103088095Y43722620D01*
X103373809Y43722620D02*
X103373809Y44722620D01*
X103278571Y44579762D01*
X103183333Y44484524D01*
X103088095Y44436905D01*
X27553095Y39250620D02*
X28124523Y39250620D01*
X27838809Y38250620D02*
X27838809Y39250620D01*
X28457857Y38250620D02*
X28457857Y39250620D01*
X28838809Y39250620D01*
X28934047Y39203000D01*
X28981666Y39155381D01*
X29029285Y39060143D01*
X29029285Y38917286D01*
X28981666Y38822048D01*
X28934047Y38774429D01*
X28838809Y38726810D01*
X28457857Y38726810D01*
X29410238Y39155381D02*
X29457857Y39203000D01*
X29553095Y39250620D01*
X29791190Y39250620D01*
X29886428Y39203000D01*
X29934047Y39155381D01*
X29981666Y39060143D01*
X29981666Y38964905D01*
X29934047Y38822048D01*
X29362619Y38250620D01*
X29981666Y38250620D01*
X21838095Y39250620D02*
X22409523Y39250620D01*
X22123809Y38250620D02*
X22123809Y39250620D01*
X22742857Y38250620D02*
X22742857Y39250620D01*
X23123809Y39250620D01*
X23219047Y39203000D01*
X23266666Y39155381D01*
X23314285Y39060143D01*
X23314285Y38917286D01*
X23266666Y38822048D01*
X23219047Y38774429D01*
X23123809Y38726810D01*
X22742857Y38726810D01*
X24266666Y38250620D02*
X23695238Y38250620D01*
X23980952Y38250620D02*
X23980952Y39250620D01*
X23885714Y39107762D01*
X23790476Y39012524D01*
X23695238Y38964905D01*
X88714285Y5567620D02*
X89285714Y5567620D01*
X89000000Y4567620D02*
X89000000Y5567620D01*
X89619047Y4567620D02*
X89619047Y5567620D01*
X89619047Y5091429D02*
X90190476Y5091429D01*
X90190476Y4567620D02*
X90190476Y5567620D01*
X90809523Y5139048D02*
X90714285Y5186667D01*
X90666666Y5234286D01*
X90619047Y5329524D01*
X90619047Y5377143D01*
X90666666Y5472381D01*
X90714285Y5520000D01*
X90809523Y5567620D01*
X91000000Y5567620D01*
X91095238Y5520000D01*
X91142857Y5472381D01*
X91190476Y5377143D01*
X91190476Y5329524D01*
X91142857Y5234286D01*
X91095238Y5186667D01*
X91000000Y5139048D01*
X90809523Y5139048D01*
X90714285Y5091429D01*
X90666666Y5043810D01*
X90619047Y4948572D01*
X90619047Y4758096D01*
X90666666Y4662858D01*
X90714285Y4615239D01*
X90809523Y4567620D01*
X91000000Y4567620D01*
X91095238Y4615239D01*
X91142857Y4662858D01*
X91190476Y4758096D01*
X91190476Y4948572D01*
X91142857Y5043810D01*
X91095238Y5091429D01*
X91000000Y5139048D01*
X79714285Y5567620D02*
X80285714Y5567620D01*
X80000000Y4567620D02*
X80000000Y5567620D01*
X80619047Y4567620D02*
X80619047Y5567620D01*
X80619047Y5091429D02*
X81190476Y5091429D01*
X81190476Y4567620D02*
X81190476Y5567620D01*
X81571428Y5567620D02*
X82238095Y5567620D01*
X81809523Y4567620D01*
X70714285Y5567620D02*
X71285714Y5567620D01*
X71000000Y4567620D02*
X71000000Y5567620D01*
X71619047Y4567620D02*
X71619047Y5567620D01*
X71619047Y5091429D02*
X72190476Y5091429D01*
X72190476Y4567620D02*
X72190476Y5567620D01*
X73095238Y5567620D02*
X72904761Y5567620D01*
X72809523Y5520000D01*
X72761904Y5472381D01*
X72666666Y5329524D01*
X72619047Y5139048D01*
X72619047Y4758096D01*
X72666666Y4662858D01*
X72714285Y4615239D01*
X72809523Y4567620D01*
X73000000Y4567620D01*
X73095238Y4615239D01*
X73142857Y4662858D01*
X73190476Y4758096D01*
X73190476Y4996191D01*
X73142857Y5091429D01*
X73095238Y5139048D01*
X73000000Y5186667D01*
X72809523Y5186667D01*
X72714285Y5139048D01*
X72666666Y5091429D01*
X72619047Y4996191D01*
X61714285Y5567620D02*
X62285714Y5567620D01*
X62000000Y4567620D02*
X62000000Y5567620D01*
X62619047Y4567620D02*
X62619047Y5567620D01*
X62619047Y5091429D02*
X63190476Y5091429D01*
X63190476Y4567620D02*
X63190476Y5567620D01*
X64142857Y5567620D02*
X63666666Y5567620D01*
X63619047Y5091429D01*
X63666666Y5139048D01*
X63761904Y5186667D01*
X64000000Y5186667D01*
X64095238Y5139048D01*
X64142857Y5091429D01*
X64190476Y4996191D01*
X64190476Y4758096D01*
X64142857Y4662858D01*
X64095238Y4615239D01*
X64000000Y4567620D01*
X63761904Y4567620D01*
X63666666Y4615239D01*
X63619047Y4662858D01*
X52714285Y5567620D02*
X53285714Y5567620D01*
X53000000Y4567620D02*
X53000000Y5567620D01*
X53619047Y4567620D02*
X53619047Y5567620D01*
X53619047Y5091429D02*
X54190476Y5091429D01*
X54190476Y4567620D02*
X54190476Y5567620D01*
X55095238Y5234286D02*
X55095238Y4567620D01*
X54857142Y5615239D02*
X54619047Y4900953D01*
X55238095Y4900953D01*
X43714285Y5567620D02*
X44285714Y5567620D01*
X44000000Y4567620D02*
X44000000Y5567620D01*
X44619047Y4567620D02*
X44619047Y5567620D01*
X44619047Y5091429D02*
X45190476Y5091429D01*
X45190476Y4567620D02*
X45190476Y5567620D01*
X45571428Y5567620D02*
X46190476Y5567620D01*
X45857142Y5186667D01*
X46000000Y5186667D01*
X46095238Y5139048D01*
X46142857Y5091429D01*
X46190476Y4996191D01*
X46190476Y4758096D01*
X46142857Y4662858D01*
X46095238Y4615239D01*
X46000000Y4567620D01*
X45714285Y4567620D01*
X45619047Y4615239D01*
X45571428Y4662858D01*
X34714285Y5567620D02*
X35285714Y5567620D01*
X35000000Y4567620D02*
X35000000Y5567620D01*
X35619047Y4567620D02*
X35619047Y5567620D01*
X35619047Y5091429D02*
X36190476Y5091429D01*
X36190476Y4567620D02*
X36190476Y5567620D01*
X36619047Y5472381D02*
X36666666Y5520000D01*
X36761904Y5567620D01*
X37000000Y5567620D01*
X37095238Y5520000D01*
X37142857Y5472381D01*
X37190476Y5377143D01*
X37190476Y5281905D01*
X37142857Y5139048D01*
X36571428Y4567620D01*
X37190476Y4567620D01*
X25714285Y5567620D02*
X26285714Y5567620D01*
X26000000Y4567620D02*
X26000000Y5567620D01*
X26619047Y4567620D02*
X26619047Y5567620D01*
X26619047Y5091429D02*
X27190476Y5091429D01*
X27190476Y4567620D02*
X27190476Y5567620D01*
X28190476Y4567620D02*
X27619047Y4567620D01*
X27904761Y4567620D02*
X27904761Y5567620D01*
X27809523Y5424762D01*
X27714285Y5329524D01*
X27619047Y5281905D01*
X101776666Y7956239D02*
X101919523Y7908620D01*
X102157619Y7908620D01*
X102252857Y7956239D01*
X102300476Y8003858D01*
X102348095Y8099096D01*
X102348095Y8194334D01*
X102300476Y8289572D01*
X102252857Y8337191D01*
X102157619Y8384810D01*
X101967142Y8432429D01*
X101871904Y8480048D01*
X101824285Y8527667D01*
X101776666Y8622905D01*
X101776666Y8718143D01*
X101824285Y8813381D01*
X101871904Y8861000D01*
X101967142Y8908620D01*
X102205238Y8908620D01*
X102348095Y8861000D01*
X102681428Y8908620D02*
X102919523Y7908620D01*
X103110000Y8622905D01*
X103300476Y7908620D01*
X103538571Y8908620D01*
X104443333Y7908620D02*
X103871904Y7908620D01*
X104157619Y7908620D02*
X104157619Y8908620D01*
X104062380Y8765762D01*
X103967142Y8670524D01*
X103871904Y8622905D01*
X108007380Y6733953D02*
X107531190Y6400620D01*
X108007380Y6162524D02*
X107007380Y6162524D01*
X107007380Y6543477D01*
X107055000Y6638715D01*
X107102619Y6686334D01*
X107197857Y6733953D01*
X107340714Y6733953D01*
X107435952Y6686334D01*
X107483571Y6638715D01*
X107531190Y6543477D01*
X107531190Y6162524D01*
X108007380Y7686334D02*
X108007380Y7114905D01*
X108007380Y7400620D02*
X107007380Y7400620D01*
X107150238Y7305381D01*
X107245476Y7210143D01*
X107293095Y7114905D01*
X107007380Y8591096D02*
X107007380Y8114905D01*
X107483571Y8067286D01*
X107435952Y8114905D01*
X107388333Y8210143D01*
X107388333Y8448239D01*
X107435952Y8543477D01*
X107483571Y8591096D01*
X107578809Y8638715D01*
X107816904Y8638715D01*
X107912142Y8591096D01*
X107959761Y8543477D01*
X108007380Y8448239D01*
X108007380Y8210143D01*
X107959761Y8114905D01*
X107912142Y8067286D01*
X107007380Y8972048D02*
X107007380Y9591096D01*
X107388333Y9257762D01*
X107388333Y9400620D01*
X107435952Y9495858D01*
X107483571Y9543477D01*
X107578809Y9591096D01*
X107816904Y9591096D01*
X107912142Y9543477D01*
X107959761Y9495858D01*
X108007380Y9400620D01*
X108007380Y9114905D01*
X107959761Y9019667D01*
X107912142Y8972048D01*
X19377452Y21092620D02*
X19044119Y21568810D01*
X18806023Y21092620D02*
X18806023Y22092620D01*
X19186976Y22092620D01*
X19282214Y22045000D01*
X19329833Y21997381D01*
X19377452Y21902143D01*
X19377452Y21759286D01*
X19329833Y21664048D01*
X19282214Y21616429D01*
X19186976Y21568810D01*
X18806023Y21568810D01*
X20329833Y21092620D02*
X19758404Y21092620D01*
X20044119Y21092620D02*
X20044119Y22092620D01*
X19948880Y21949762D01*
X19853642Y21854524D01*
X19758404Y21806905D01*
X21234595Y22092620D02*
X20758404Y22092620D01*
X20710785Y21616429D01*
X20758404Y21664048D01*
X20853642Y21711667D01*
X21091738Y21711667D01*
X21186976Y21664048D01*
X21234595Y21616429D01*
X21282214Y21521191D01*
X21282214Y21283096D01*
X21234595Y21187858D01*
X21186976Y21140239D01*
X21091738Y21092620D01*
X20853642Y21092620D01*
X20758404Y21140239D01*
X20710785Y21187858D01*
X22234595Y21092620D02*
X21663166Y21092620D01*
X21948880Y21092620D02*
X21948880Y22092620D01*
X21853642Y21949762D01*
X21758404Y21854524D01*
X21663166Y21806905D01*
X19377452Y24267620D02*
X19044119Y24743810D01*
X18806023Y24267620D02*
X18806023Y25267620D01*
X19186976Y25267620D01*
X19282214Y25220000D01*
X19329833Y25172381D01*
X19377452Y25077143D01*
X19377452Y24934286D01*
X19329833Y24839048D01*
X19282214Y24791429D01*
X19186976Y24743810D01*
X18806023Y24743810D01*
X20329833Y24267620D02*
X19758404Y24267620D01*
X20044119Y24267620D02*
X20044119Y25267620D01*
X19948880Y25124762D01*
X19853642Y25029524D01*
X19758404Y24981905D01*
X21234595Y25267620D02*
X20758404Y25267620D01*
X20710785Y24791429D01*
X20758404Y24839048D01*
X20853642Y24886667D01*
X21091738Y24886667D01*
X21186976Y24839048D01*
X21234595Y24791429D01*
X21282214Y24696191D01*
X21282214Y24458096D01*
X21234595Y24362858D01*
X21186976Y24315239D01*
X21091738Y24267620D01*
X20853642Y24267620D01*
X20758404Y24315239D01*
X20710785Y24362858D01*
X21901261Y25267620D02*
X21996500Y25267620D01*
X22091738Y25220000D01*
X22139357Y25172381D01*
X22186976Y25077143D01*
X22234595Y24886667D01*
X22234595Y24648572D01*
X22186976Y24458096D01*
X22139357Y24362858D01*
X22091738Y24315239D01*
X21996500Y24267620D01*
X21901261Y24267620D01*
X21806023Y24315239D01*
X21758404Y24362858D01*
X21710785Y24458096D01*
X21663166Y24648572D01*
X21663166Y24886667D01*
X21710785Y25077143D01*
X21758404Y25172381D01*
X21806023Y25220000D01*
X21901261Y25267620D01*
X89290952Y25307620D02*
X88957619Y25783810D01*
X88719523Y25307620D02*
X88719523Y26307620D01*
X89100476Y26307620D01*
X89195714Y26260000D01*
X89243333Y26212381D01*
X89290952Y26117143D01*
X89290952Y25974286D01*
X89243333Y25879048D01*
X89195714Y25831429D01*
X89100476Y25783810D01*
X88719523Y25783810D01*
X90243333Y25307620D02*
X89671904Y25307620D01*
X89957619Y25307620D02*
X89957619Y26307620D01*
X89862380Y26164762D01*
X89767142Y26069524D01*
X89671904Y26021905D01*
X90862380Y26307620D02*
X90957619Y26307620D01*
X91052857Y26260000D01*
X91100476Y26212381D01*
X91148095Y26117143D01*
X91195714Y25926667D01*
X91195714Y25688572D01*
X91148095Y25498096D01*
X91100476Y25402858D01*
X91052857Y25355239D01*
X90957619Y25307620D01*
X90862380Y25307620D01*
X90767142Y25355239D01*
X90719523Y25402858D01*
X90671904Y25498096D01*
X90624285Y25688572D01*
X90624285Y25926667D01*
X90671904Y26117143D01*
X90719523Y26212381D01*
X90767142Y26260000D01*
X90862380Y26307620D01*
X91576666Y26212381D02*
X91624285Y26260000D01*
X91719523Y26307620D01*
X91957619Y26307620D01*
X92052857Y26260000D01*
X92100476Y26212381D01*
X92148095Y26117143D01*
X92148095Y26021905D01*
X92100476Y25879048D01*
X91529047Y25307620D01*
X92148095Y25307620D01*
X89227452Y22132620D02*
X88894119Y22608810D01*
X88656023Y22132620D02*
X88656023Y23132620D01*
X89036976Y23132620D01*
X89132214Y23085000D01*
X89179833Y23037381D01*
X89227452Y22942143D01*
X89227452Y22799286D01*
X89179833Y22704048D01*
X89132214Y22656429D01*
X89036976Y22608810D01*
X88656023Y22608810D01*
X90179833Y22132620D02*
X89608404Y22132620D01*
X89894119Y22132620D02*
X89894119Y23132620D01*
X89798880Y22989762D01*
X89703642Y22894524D01*
X89608404Y22846905D01*
X90798880Y23132620D02*
X90894119Y23132620D01*
X90989357Y23085000D01*
X91036976Y23037381D01*
X91084595Y22942143D01*
X91132214Y22751667D01*
X91132214Y22513572D01*
X91084595Y22323096D01*
X91036976Y22227858D01*
X90989357Y22180239D01*
X90894119Y22132620D01*
X90798880Y22132620D01*
X90703642Y22180239D01*
X90656023Y22227858D01*
X90608404Y22323096D01*
X90560785Y22513572D01*
X90560785Y22751667D01*
X90608404Y22942143D01*
X90656023Y23037381D01*
X90703642Y23085000D01*
X90798880Y23132620D01*
X92084595Y22132620D02*
X91513166Y22132620D01*
X91798880Y22132620D02*
X91798880Y23132620D01*
X91703642Y22989762D01*
X91608404Y22894524D01*
X91513166Y22846905D01*
X27679880Y81703334D02*
X27203690Y81370000D01*
X27679880Y81131905D02*
X26679880Y81131905D01*
X26679880Y81512858D01*
X26727500Y81608096D01*
X26775119Y81655715D01*
X26870357Y81703334D01*
X27013214Y81703334D01*
X27108452Y81655715D01*
X27156071Y81608096D01*
X27203690Y81512858D01*
X27203690Y81131905D01*
X27679880Y82655715D02*
X27679880Y82084286D01*
X27679880Y82370000D02*
X26679880Y82370000D01*
X26822738Y82274762D01*
X26917976Y82179524D01*
X26965595Y82084286D01*
X16600714Y67247620D02*
X16600714Y68247620D01*
X16981666Y68247620D01*
X17076904Y68200000D01*
X17124523Y68152381D01*
X17172142Y68057143D01*
X17172142Y67914286D01*
X17124523Y67819048D01*
X17076904Y67771429D01*
X16981666Y67723810D01*
X16600714Y67723810D01*
X17553095Y67295239D02*
X17695952Y67247620D01*
X17934047Y67247620D01*
X18029285Y67295239D01*
X18076904Y67342858D01*
X18124523Y67438096D01*
X18124523Y67533334D01*
X18076904Y67628572D01*
X18029285Y67676191D01*
X17934047Y67723810D01*
X17743571Y67771429D01*
X17648333Y67819048D01*
X17600714Y67866667D01*
X17553095Y67961905D01*
X17553095Y68057143D01*
X17600714Y68152381D01*
X17648333Y68200000D01*
X17743571Y68247620D01*
X17981666Y68247620D01*
X18124523Y68200000D01*
X19076904Y67247620D02*
X18505476Y67247620D01*
X18791190Y67247620D02*
X18791190Y68247620D01*
X18695952Y68104762D01*
X18600714Y68009524D01*
X18505476Y67961905D01*
X107856666Y40932620D02*
X107856666Y40218334D01*
X107809047Y40075477D01*
X107713809Y39980239D01*
X107570952Y39932620D01*
X107475714Y39932620D01*
X108285238Y40837381D02*
X108332857Y40885000D01*
X108428095Y40932620D01*
X108666190Y40932620D01*
X108761428Y40885000D01*
X108809047Y40837381D01*
X108856666Y40742143D01*
X108856666Y40646905D01*
X108809047Y40504048D01*
X108237619Y39932620D01*
X108856666Y39932620D01*
X15146666Y77771429D02*
X14813333Y77771429D01*
X14813333Y77247620D02*
X14813333Y78247620D01*
X15289523Y78247620D01*
X16194285Y77247620D02*
X15622857Y77247620D01*
X15908571Y77247620D02*
X15908571Y78247620D01*
X15813333Y78104762D01*
X15718095Y78009524D01*
X15622857Y77961905D01*
X18889523Y6614620D02*
X18889523Y7614620D01*
X19127619Y7614620D01*
X19270476Y7567000D01*
X19365714Y7471762D01*
X19413333Y7376524D01*
X19460952Y7186048D01*
X19460952Y7043191D01*
X19413333Y6852715D01*
X19365714Y6757477D01*
X19270476Y6662239D01*
X19127619Y6614620D01*
X18889523Y6614620D01*
X20413333Y6614620D02*
X19841904Y6614620D01*
X20127619Y6614620D02*
X20127619Y7614620D01*
X20032380Y7471762D01*
X19937142Y7376524D01*
X19841904Y7328905D01*
X21032380Y7614620D02*
X21127619Y7614620D01*
X21222857Y7567000D01*
X21270476Y7519381D01*
X21318095Y7424143D01*
X21365714Y7233667D01*
X21365714Y6995572D01*
X21318095Y6805096D01*
X21270476Y6709858D01*
X21222857Y6662239D01*
X21127619Y6614620D01*
X21032380Y6614620D01*
X20937142Y6662239D01*
X20889523Y6709858D01*
X20841904Y6805096D01*
X20794285Y6995572D01*
X20794285Y7233667D01*
X20841904Y7424143D01*
X20889523Y7519381D01*
X20937142Y7567000D01*
X21032380Y7614620D01*
X21746666Y7519381D02*
X21794285Y7567000D01*
X21889523Y7614620D01*
X22127619Y7614620D01*
X22222857Y7567000D01*
X22270476Y7519381D01*
X22318095Y7424143D01*
X22318095Y7328905D01*
X22270476Y7186048D01*
X21699047Y6614620D01*
X22318095Y6614620D01*
X13809523Y6599120D02*
X13809523Y7599120D01*
X14047619Y7599120D01*
X14190476Y7551500D01*
X14285714Y7456262D01*
X14333333Y7361024D01*
X14380952Y7170548D01*
X14380952Y7027691D01*
X14333333Y6837215D01*
X14285714Y6741977D01*
X14190476Y6646739D01*
X14047619Y6599120D01*
X13809523Y6599120D01*
X15333333Y6599120D02*
X14761904Y6599120D01*
X15047619Y6599120D02*
X15047619Y7599120D01*
X14952380Y7456262D01*
X14857142Y7361024D01*
X14761904Y7313405D01*
X15952380Y7599120D02*
X16047619Y7599120D01*
X16142857Y7551500D01*
X16190476Y7503881D01*
X16238095Y7408643D01*
X16285714Y7218167D01*
X16285714Y6980072D01*
X16238095Y6789596D01*
X16190476Y6694358D01*
X16142857Y6646739D01*
X16047619Y6599120D01*
X15952380Y6599120D01*
X15857142Y6646739D01*
X15809523Y6694358D01*
X15761904Y6789596D01*
X15714285Y6980072D01*
X15714285Y7218167D01*
X15761904Y7408643D01*
X15809523Y7503881D01*
X15857142Y7551500D01*
X15952380Y7599120D01*
X17238095Y6599120D02*
X16666666Y6599120D01*
X16952380Y6599120D02*
X16952380Y7599120D01*
X16857142Y7456262D01*
X16761904Y7361024D01*
X16666666Y7313405D01*
X17281904Y86497620D02*
X17281904Y87497620D01*
X17520000Y87497620D01*
X17662857Y87450000D01*
X17758095Y87354762D01*
X17805714Y87259524D01*
X17853333Y87069048D01*
X17853333Y86926191D01*
X17805714Y86735715D01*
X17758095Y86640477D01*
X17662857Y86545239D01*
X17520000Y86497620D01*
X17281904Y86497620D01*
X18805714Y86497620D02*
X18234285Y86497620D01*
X18520000Y86497620D02*
X18520000Y87497620D01*
X18424761Y87354762D01*
X18329523Y87259524D01*
X18234285Y87211905D01*
X45158452Y25402858D02*
X45110833Y25355239D01*
X44967976Y25307620D01*
X44872738Y25307620D01*
X44729880Y25355239D01*
X44634642Y25450477D01*
X44587023Y25545715D01*
X44539404Y25736191D01*
X44539404Y25879048D01*
X44587023Y26069524D01*
X44634642Y26164762D01*
X44729880Y26260000D01*
X44872738Y26307620D01*
X44967976Y26307620D01*
X45110833Y26260000D01*
X45158452Y26212381D01*
X45539404Y26212381D02*
X45587023Y26260000D01*
X45682261Y26307620D01*
X45920357Y26307620D01*
X46015595Y26260000D01*
X46063214Y26212381D01*
X46110833Y26117143D01*
X46110833Y26021905D01*
X46063214Y25879048D01*
X45491785Y25307620D01*
X46110833Y25307620D01*
X46729880Y26307620D02*
X46825119Y26307620D01*
X46920357Y26260000D01*
X46967976Y26212381D01*
X47015595Y26117143D01*
X47063214Y25926667D01*
X47063214Y25688572D01*
X47015595Y25498096D01*
X46967976Y25402858D01*
X46920357Y25355239D01*
X46825119Y25307620D01*
X46729880Y25307620D01*
X46634642Y25355239D01*
X46587023Y25402858D01*
X46539404Y25498096D01*
X46491785Y25688572D01*
X46491785Y25926667D01*
X46539404Y26117143D01*
X46587023Y26212381D01*
X46634642Y26260000D01*
X46729880Y26307620D01*
X48015595Y25307620D02*
X47444166Y25307620D01*
X47729880Y25307620D02*
X47729880Y26307620D01*
X47634642Y26164762D01*
X47539404Y26069524D01*
X47444166Y26021905D01*
%LPC*%
D13*
X51597500Y75886500D03*
X58597500Y75886500D03*
X85647500Y79726500D03*
X77047500Y79726500D03*
X36997500Y85886500D03*
X94897500Y85886500D03*
D14*
X88447500Y85886500D03*
D15*
X43447500Y85886500D03*
D16*
X66847500Y82886500D03*
D17*
X115500000Y84500000D03*
X7500000Y84500000D03*
X115500000Y6500000D03*
X7500000Y6500000D03*
D18*
X90000000Y12500000D03*
X81000000Y12500000D03*
X72000000Y12500000D03*
X63000000Y12500000D03*
X54000000Y12500000D03*
X45000000Y12500000D03*
X35990500Y12500000D03*
X27000000Y12500000D03*
D19*
X54850000Y25760000D03*
X72630000Y18140000D03*
X57390000Y25760000D03*
X70090000Y18140000D03*
X59930000Y25760000D03*
X67550000Y18140000D03*
X62470000Y25760000D03*
X65010000Y18140000D03*
X65010000Y25760000D03*
X62470000Y18140000D03*
X67550000Y25760000D03*
X59930000Y18140000D03*
X70090000Y25760000D03*
X57390000Y18140000D03*
X72630000Y25760000D03*
D20*
X54850000Y18140000D03*
D15*
X98800000Y56675000D03*
X98800000Y31675000D03*
X46480000Y56675000D03*
X46480000Y31675000D03*
D21*
X90410000Y58145000D03*
X54850000Y58145000D03*
X57390000Y58145000D03*
X59930000Y58145000D03*
X62470000Y58145000D03*
X65010000Y58145000D03*
X67550000Y58145000D03*
X72630000Y58145000D03*
X70090000Y58145000D03*
X77710000Y58145000D03*
X75170000Y58145000D03*
X80250000Y58145000D03*
X82790000Y58145000D03*
X87870000Y58145000D03*
X85330000Y58145000D03*
X90410000Y30205000D03*
X85330000Y30205000D03*
X87870000Y30205000D03*
X82790000Y30205000D03*
X80250000Y30205000D03*
X75170000Y30205000D03*
X77710000Y30205000D03*
X70090000Y30205000D03*
X72630000Y30205000D03*
X67550000Y30205000D03*
X65010000Y30205000D03*
X62470000Y30205000D03*
X59930000Y30205000D03*
X57390000Y30205000D03*
X54850000Y30205000D03*
D22*
X28815000Y36555000D03*
X23100000Y36555000D03*
D23*
G36*
X92257405Y8099433D02*
G01*
X92289002Y8094746D01*
X92319988Y8086984D01*
X92350063Y8076223D01*
X92378940Y8062565D01*
X92406338Y8046143D01*
X92431995Y8027115D01*
X92455663Y8005663D01*
X92477115Y7981995D01*
X92496143Y7956338D01*
X92512565Y7928940D01*
X92526223Y7900063D01*
X92536984Y7869988D01*
X92544746Y7839002D01*
X92549433Y7807405D01*
X92551000Y7775500D01*
X92551000Y6224500D01*
X92549433Y6192595D01*
X92544746Y6160998D01*
X92536984Y6130012D01*
X92526223Y6099937D01*
X92512565Y6071060D01*
X92496143Y6043662D01*
X92477115Y6018005D01*
X92455663Y5994337D01*
X92431995Y5972885D01*
X92406338Y5953857D01*
X92378940Y5937435D01*
X92350063Y5923777D01*
X92319988Y5913016D01*
X92289002Y5905254D01*
X92257405Y5900567D01*
X92225500Y5899000D01*
X91574500Y5899000D01*
X91542595Y5900567D01*
X91510998Y5905254D01*
X91480012Y5913016D01*
X91449937Y5923777D01*
X91421060Y5937435D01*
X91393662Y5953857D01*
X91368005Y5972885D01*
X91344337Y5994337D01*
X91322885Y6018005D01*
X91303857Y6043662D01*
X91287435Y6071060D01*
X91273777Y6099937D01*
X91263016Y6130012D01*
X91255254Y6160998D01*
X91250567Y6192595D01*
X91249000Y6224500D01*
X91249000Y7775500D01*
X91250567Y7807405D01*
X91255254Y7839002D01*
X91263016Y7869988D01*
X91273777Y7900063D01*
X91287435Y7928940D01*
X91303857Y7956338D01*
X91322885Y7981995D01*
X91344337Y8005663D01*
X91368005Y8027115D01*
X91393662Y8046143D01*
X91421060Y8062565D01*
X91449937Y8076223D01*
X91480012Y8086984D01*
X91510998Y8094746D01*
X91542595Y8099433D01*
X91574500Y8101000D01*
X92225500Y8101000D01*
X92257405Y8099433D01*
X92257405Y8099433D01*
G37*
D24*
X91900000Y7000000D03*
D23*
G36*
X90807405Y10749433D02*
G01*
X90839002Y10744746D01*
X90869988Y10736984D01*
X90900063Y10726223D01*
X90928940Y10712565D01*
X90956338Y10696143D01*
X90981995Y10677115D01*
X91005663Y10655663D01*
X91027115Y10631995D01*
X91046143Y10606338D01*
X91062565Y10578940D01*
X91076223Y10550063D01*
X91086984Y10519988D01*
X91094746Y10489002D01*
X91099433Y10457405D01*
X91101000Y10425500D01*
X91101000Y9774500D01*
X91099433Y9742595D01*
X91094746Y9710998D01*
X91086984Y9680012D01*
X91076223Y9649937D01*
X91062565Y9621060D01*
X91046143Y9593662D01*
X91027115Y9568005D01*
X91005663Y9544337D01*
X90981995Y9522885D01*
X90956338Y9503857D01*
X90928940Y9487435D01*
X90900063Y9473777D01*
X90869988Y9463016D01*
X90839002Y9455254D01*
X90807405Y9450567D01*
X90775500Y9449000D01*
X89224500Y9449000D01*
X89192595Y9450567D01*
X89160998Y9455254D01*
X89130012Y9463016D01*
X89099937Y9473777D01*
X89071060Y9487435D01*
X89043662Y9503857D01*
X89018005Y9522885D01*
X88994337Y9544337D01*
X88972885Y9568005D01*
X88953857Y9593662D01*
X88937435Y9621060D01*
X88923777Y9649937D01*
X88913016Y9680012D01*
X88905254Y9710998D01*
X88900567Y9742595D01*
X88899000Y9774500D01*
X88899000Y10425500D01*
X88900567Y10457405D01*
X88905254Y10489002D01*
X88913016Y10519988D01*
X88923777Y10550063D01*
X88937435Y10578940D01*
X88953857Y10606338D01*
X88972885Y10631995D01*
X88994337Y10655663D01*
X89018005Y10677115D01*
X89043662Y10696143D01*
X89071060Y10712565D01*
X89099937Y10726223D01*
X89130012Y10736984D01*
X89160998Y10744746D01*
X89192595Y10749433D01*
X89224500Y10751000D01*
X90775500Y10751000D01*
X90807405Y10749433D01*
X90807405Y10749433D01*
G37*
D24*
X90000000Y10100000D03*
D23*
G36*
X88457405Y8099433D02*
G01*
X88489002Y8094746D01*
X88519988Y8086984D01*
X88550063Y8076223D01*
X88578940Y8062565D01*
X88606338Y8046143D01*
X88631995Y8027115D01*
X88655663Y8005663D01*
X88677115Y7981995D01*
X88696143Y7956338D01*
X88712565Y7928940D01*
X88726223Y7900063D01*
X88736984Y7869988D01*
X88744746Y7839002D01*
X88749433Y7807405D01*
X88751000Y7775500D01*
X88751000Y6224500D01*
X88749433Y6192595D01*
X88744746Y6160998D01*
X88736984Y6130012D01*
X88726223Y6099937D01*
X88712565Y6071060D01*
X88696143Y6043662D01*
X88677115Y6018005D01*
X88655663Y5994337D01*
X88631995Y5972885D01*
X88606338Y5953857D01*
X88578940Y5937435D01*
X88550063Y5923777D01*
X88519988Y5913016D01*
X88489002Y5905254D01*
X88457405Y5900567D01*
X88425500Y5899000D01*
X87774500Y5899000D01*
X87742595Y5900567D01*
X87710998Y5905254D01*
X87680012Y5913016D01*
X87649937Y5923777D01*
X87621060Y5937435D01*
X87593662Y5953857D01*
X87568005Y5972885D01*
X87544337Y5994337D01*
X87522885Y6018005D01*
X87503857Y6043662D01*
X87487435Y6071060D01*
X87473777Y6099937D01*
X87463016Y6130012D01*
X87455254Y6160998D01*
X87450567Y6192595D01*
X87449000Y6224500D01*
X87449000Y7775500D01*
X87450567Y7807405D01*
X87455254Y7839002D01*
X87463016Y7869988D01*
X87473777Y7900063D01*
X87487435Y7928940D01*
X87503857Y7956338D01*
X87522885Y7981995D01*
X87544337Y8005663D01*
X87568005Y8027115D01*
X87593662Y8046143D01*
X87621060Y8062565D01*
X87649937Y8076223D01*
X87680012Y8086984D01*
X87710998Y8094746D01*
X87742595Y8099433D01*
X87774500Y8101000D01*
X88425500Y8101000D01*
X88457405Y8099433D01*
X88457405Y8099433D01*
G37*
D24*
X88100000Y7000000D03*
D25*
X92000000Y2350000D03*
X88000000Y2350000D03*
D23*
G36*
X83257405Y8099433D02*
G01*
X83289002Y8094746D01*
X83319988Y8086984D01*
X83350063Y8076223D01*
X83378940Y8062565D01*
X83406338Y8046143D01*
X83431995Y8027115D01*
X83455663Y8005663D01*
X83477115Y7981995D01*
X83496143Y7956338D01*
X83512565Y7928940D01*
X83526223Y7900063D01*
X83536984Y7869988D01*
X83544746Y7839002D01*
X83549433Y7807405D01*
X83551000Y7775500D01*
X83551000Y6224500D01*
X83549433Y6192595D01*
X83544746Y6160998D01*
X83536984Y6130012D01*
X83526223Y6099937D01*
X83512565Y6071060D01*
X83496143Y6043662D01*
X83477115Y6018005D01*
X83455663Y5994337D01*
X83431995Y5972885D01*
X83406338Y5953857D01*
X83378940Y5937435D01*
X83350063Y5923777D01*
X83319988Y5913016D01*
X83289002Y5905254D01*
X83257405Y5900567D01*
X83225500Y5899000D01*
X82574500Y5899000D01*
X82542595Y5900567D01*
X82510998Y5905254D01*
X82480012Y5913016D01*
X82449937Y5923777D01*
X82421060Y5937435D01*
X82393662Y5953857D01*
X82368005Y5972885D01*
X82344337Y5994337D01*
X82322885Y6018005D01*
X82303857Y6043662D01*
X82287435Y6071060D01*
X82273777Y6099937D01*
X82263016Y6130012D01*
X82255254Y6160998D01*
X82250567Y6192595D01*
X82249000Y6224500D01*
X82249000Y7775500D01*
X82250567Y7807405D01*
X82255254Y7839002D01*
X82263016Y7869988D01*
X82273777Y7900063D01*
X82287435Y7928940D01*
X82303857Y7956338D01*
X82322885Y7981995D01*
X82344337Y8005663D01*
X82368005Y8027115D01*
X82393662Y8046143D01*
X82421060Y8062565D01*
X82449937Y8076223D01*
X82480012Y8086984D01*
X82510998Y8094746D01*
X82542595Y8099433D01*
X82574500Y8101000D01*
X83225500Y8101000D01*
X83257405Y8099433D01*
X83257405Y8099433D01*
G37*
D24*
X82900000Y7000000D03*
D23*
G36*
X81807405Y10749433D02*
G01*
X81839002Y10744746D01*
X81869988Y10736984D01*
X81900063Y10726223D01*
X81928940Y10712565D01*
X81956338Y10696143D01*
X81981995Y10677115D01*
X82005663Y10655663D01*
X82027115Y10631995D01*
X82046143Y10606338D01*
X82062565Y10578940D01*
X82076223Y10550063D01*
X82086984Y10519988D01*
X82094746Y10489002D01*
X82099433Y10457405D01*
X82101000Y10425500D01*
X82101000Y9774500D01*
X82099433Y9742595D01*
X82094746Y9710998D01*
X82086984Y9680012D01*
X82076223Y9649937D01*
X82062565Y9621060D01*
X82046143Y9593662D01*
X82027115Y9568005D01*
X82005663Y9544337D01*
X81981995Y9522885D01*
X81956338Y9503857D01*
X81928940Y9487435D01*
X81900063Y9473777D01*
X81869988Y9463016D01*
X81839002Y9455254D01*
X81807405Y9450567D01*
X81775500Y9449000D01*
X80224500Y9449000D01*
X80192595Y9450567D01*
X80160998Y9455254D01*
X80130012Y9463016D01*
X80099937Y9473777D01*
X80071060Y9487435D01*
X80043662Y9503857D01*
X80018005Y9522885D01*
X79994337Y9544337D01*
X79972885Y9568005D01*
X79953857Y9593662D01*
X79937435Y9621060D01*
X79923777Y9649937D01*
X79913016Y9680012D01*
X79905254Y9710998D01*
X79900567Y9742595D01*
X79899000Y9774500D01*
X79899000Y10425500D01*
X79900567Y10457405D01*
X79905254Y10489002D01*
X79913016Y10519988D01*
X79923777Y10550063D01*
X79937435Y10578940D01*
X79953857Y10606338D01*
X79972885Y10631995D01*
X79994337Y10655663D01*
X80018005Y10677115D01*
X80043662Y10696143D01*
X80071060Y10712565D01*
X80099937Y10726223D01*
X80130012Y10736984D01*
X80160998Y10744746D01*
X80192595Y10749433D01*
X80224500Y10751000D01*
X81775500Y10751000D01*
X81807405Y10749433D01*
X81807405Y10749433D01*
G37*
D24*
X81000000Y10100000D03*
D23*
G36*
X79457405Y8099433D02*
G01*
X79489002Y8094746D01*
X79519988Y8086984D01*
X79550063Y8076223D01*
X79578940Y8062565D01*
X79606338Y8046143D01*
X79631995Y8027115D01*
X79655663Y8005663D01*
X79677115Y7981995D01*
X79696143Y7956338D01*
X79712565Y7928940D01*
X79726223Y7900063D01*
X79736984Y7869988D01*
X79744746Y7839002D01*
X79749433Y7807405D01*
X79751000Y7775500D01*
X79751000Y6224500D01*
X79749433Y6192595D01*
X79744746Y6160998D01*
X79736984Y6130012D01*
X79726223Y6099937D01*
X79712565Y6071060D01*
X79696143Y6043662D01*
X79677115Y6018005D01*
X79655663Y5994337D01*
X79631995Y5972885D01*
X79606338Y5953857D01*
X79578940Y5937435D01*
X79550063Y5923777D01*
X79519988Y5913016D01*
X79489002Y5905254D01*
X79457405Y5900567D01*
X79425500Y5899000D01*
X78774500Y5899000D01*
X78742595Y5900567D01*
X78710998Y5905254D01*
X78680012Y5913016D01*
X78649937Y5923777D01*
X78621060Y5937435D01*
X78593662Y5953857D01*
X78568005Y5972885D01*
X78544337Y5994337D01*
X78522885Y6018005D01*
X78503857Y6043662D01*
X78487435Y6071060D01*
X78473777Y6099937D01*
X78463016Y6130012D01*
X78455254Y6160998D01*
X78450567Y6192595D01*
X78449000Y6224500D01*
X78449000Y7775500D01*
X78450567Y7807405D01*
X78455254Y7839002D01*
X78463016Y7869988D01*
X78473777Y7900063D01*
X78487435Y7928940D01*
X78503857Y7956338D01*
X78522885Y7981995D01*
X78544337Y8005663D01*
X78568005Y8027115D01*
X78593662Y8046143D01*
X78621060Y8062565D01*
X78649937Y8076223D01*
X78680012Y8086984D01*
X78710998Y8094746D01*
X78742595Y8099433D01*
X78774500Y8101000D01*
X79425500Y8101000D01*
X79457405Y8099433D01*
X79457405Y8099433D01*
G37*
D24*
X79100000Y7000000D03*
D25*
X83000000Y2350000D03*
X79000000Y2350000D03*
D23*
G36*
X74257405Y8099433D02*
G01*
X74289002Y8094746D01*
X74319988Y8086984D01*
X74350063Y8076223D01*
X74378940Y8062565D01*
X74406338Y8046143D01*
X74431995Y8027115D01*
X74455663Y8005663D01*
X74477115Y7981995D01*
X74496143Y7956338D01*
X74512565Y7928940D01*
X74526223Y7900063D01*
X74536984Y7869988D01*
X74544746Y7839002D01*
X74549433Y7807405D01*
X74551000Y7775500D01*
X74551000Y6224500D01*
X74549433Y6192595D01*
X74544746Y6160998D01*
X74536984Y6130012D01*
X74526223Y6099937D01*
X74512565Y6071060D01*
X74496143Y6043662D01*
X74477115Y6018005D01*
X74455663Y5994337D01*
X74431995Y5972885D01*
X74406338Y5953857D01*
X74378940Y5937435D01*
X74350063Y5923777D01*
X74319988Y5913016D01*
X74289002Y5905254D01*
X74257405Y5900567D01*
X74225500Y5899000D01*
X73574500Y5899000D01*
X73542595Y5900567D01*
X73510998Y5905254D01*
X73480012Y5913016D01*
X73449937Y5923777D01*
X73421060Y5937435D01*
X73393662Y5953857D01*
X73368005Y5972885D01*
X73344337Y5994337D01*
X73322885Y6018005D01*
X73303857Y6043662D01*
X73287435Y6071060D01*
X73273777Y6099937D01*
X73263016Y6130012D01*
X73255254Y6160998D01*
X73250567Y6192595D01*
X73249000Y6224500D01*
X73249000Y7775500D01*
X73250567Y7807405D01*
X73255254Y7839002D01*
X73263016Y7869988D01*
X73273777Y7900063D01*
X73287435Y7928940D01*
X73303857Y7956338D01*
X73322885Y7981995D01*
X73344337Y8005663D01*
X73368005Y8027115D01*
X73393662Y8046143D01*
X73421060Y8062565D01*
X73449937Y8076223D01*
X73480012Y8086984D01*
X73510998Y8094746D01*
X73542595Y8099433D01*
X73574500Y8101000D01*
X74225500Y8101000D01*
X74257405Y8099433D01*
X74257405Y8099433D01*
G37*
D24*
X73900000Y7000000D03*
D23*
G36*
X72807405Y10749433D02*
G01*
X72839002Y10744746D01*
X72869988Y10736984D01*
X72900063Y10726223D01*
X72928940Y10712565D01*
X72956338Y10696143D01*
X72981995Y10677115D01*
X73005663Y10655663D01*
X73027115Y10631995D01*
X73046143Y10606338D01*
X73062565Y10578940D01*
X73076223Y10550063D01*
X73086984Y10519988D01*
X73094746Y10489002D01*
X73099433Y10457405D01*
X73101000Y10425500D01*
X73101000Y9774500D01*
X73099433Y9742595D01*
X73094746Y9710998D01*
X73086984Y9680012D01*
X73076223Y9649937D01*
X73062565Y9621060D01*
X73046143Y9593662D01*
X73027115Y9568005D01*
X73005663Y9544337D01*
X72981995Y9522885D01*
X72956338Y9503857D01*
X72928940Y9487435D01*
X72900063Y9473777D01*
X72869988Y9463016D01*
X72839002Y9455254D01*
X72807405Y9450567D01*
X72775500Y9449000D01*
X71224500Y9449000D01*
X71192595Y9450567D01*
X71160998Y9455254D01*
X71130012Y9463016D01*
X71099937Y9473777D01*
X71071060Y9487435D01*
X71043662Y9503857D01*
X71018005Y9522885D01*
X70994337Y9544337D01*
X70972885Y9568005D01*
X70953857Y9593662D01*
X70937435Y9621060D01*
X70923777Y9649937D01*
X70913016Y9680012D01*
X70905254Y9710998D01*
X70900567Y9742595D01*
X70899000Y9774500D01*
X70899000Y10425500D01*
X70900567Y10457405D01*
X70905254Y10489002D01*
X70913016Y10519988D01*
X70923777Y10550063D01*
X70937435Y10578940D01*
X70953857Y10606338D01*
X70972885Y10631995D01*
X70994337Y10655663D01*
X71018005Y10677115D01*
X71043662Y10696143D01*
X71071060Y10712565D01*
X71099937Y10726223D01*
X71130012Y10736984D01*
X71160998Y10744746D01*
X71192595Y10749433D01*
X71224500Y10751000D01*
X72775500Y10751000D01*
X72807405Y10749433D01*
X72807405Y10749433D01*
G37*
D24*
X72000000Y10100000D03*
D23*
G36*
X70457405Y8099433D02*
G01*
X70489002Y8094746D01*
X70519988Y8086984D01*
X70550063Y8076223D01*
X70578940Y8062565D01*
X70606338Y8046143D01*
X70631995Y8027115D01*
X70655663Y8005663D01*
X70677115Y7981995D01*
X70696143Y7956338D01*
X70712565Y7928940D01*
X70726223Y7900063D01*
X70736984Y7869988D01*
X70744746Y7839002D01*
X70749433Y7807405D01*
X70751000Y7775500D01*
X70751000Y6224500D01*
X70749433Y6192595D01*
X70744746Y6160998D01*
X70736984Y6130012D01*
X70726223Y6099937D01*
X70712565Y6071060D01*
X70696143Y6043662D01*
X70677115Y6018005D01*
X70655663Y5994337D01*
X70631995Y5972885D01*
X70606338Y5953857D01*
X70578940Y5937435D01*
X70550063Y5923777D01*
X70519988Y5913016D01*
X70489002Y5905254D01*
X70457405Y5900567D01*
X70425500Y5899000D01*
X69774500Y5899000D01*
X69742595Y5900567D01*
X69710998Y5905254D01*
X69680012Y5913016D01*
X69649937Y5923777D01*
X69621060Y5937435D01*
X69593662Y5953857D01*
X69568005Y5972885D01*
X69544337Y5994337D01*
X69522885Y6018005D01*
X69503857Y6043662D01*
X69487435Y6071060D01*
X69473777Y6099937D01*
X69463016Y6130012D01*
X69455254Y6160998D01*
X69450567Y6192595D01*
X69449000Y6224500D01*
X69449000Y7775500D01*
X69450567Y7807405D01*
X69455254Y7839002D01*
X69463016Y7869988D01*
X69473777Y7900063D01*
X69487435Y7928940D01*
X69503857Y7956338D01*
X69522885Y7981995D01*
X69544337Y8005663D01*
X69568005Y8027115D01*
X69593662Y8046143D01*
X69621060Y8062565D01*
X69649937Y8076223D01*
X69680012Y8086984D01*
X69710998Y8094746D01*
X69742595Y8099433D01*
X69774500Y8101000D01*
X70425500Y8101000D01*
X70457405Y8099433D01*
X70457405Y8099433D01*
G37*
D24*
X70100000Y7000000D03*
D25*
X74000000Y2350000D03*
X70000000Y2350000D03*
D23*
G36*
X65257405Y8099433D02*
G01*
X65289002Y8094746D01*
X65319988Y8086984D01*
X65350063Y8076223D01*
X65378940Y8062565D01*
X65406338Y8046143D01*
X65431995Y8027115D01*
X65455663Y8005663D01*
X65477115Y7981995D01*
X65496143Y7956338D01*
X65512565Y7928940D01*
X65526223Y7900063D01*
X65536984Y7869988D01*
X65544746Y7839002D01*
X65549433Y7807405D01*
X65551000Y7775500D01*
X65551000Y6224500D01*
X65549433Y6192595D01*
X65544746Y6160998D01*
X65536984Y6130012D01*
X65526223Y6099937D01*
X65512565Y6071060D01*
X65496143Y6043662D01*
X65477115Y6018005D01*
X65455663Y5994337D01*
X65431995Y5972885D01*
X65406338Y5953857D01*
X65378940Y5937435D01*
X65350063Y5923777D01*
X65319988Y5913016D01*
X65289002Y5905254D01*
X65257405Y5900567D01*
X65225500Y5899000D01*
X64574500Y5899000D01*
X64542595Y5900567D01*
X64510998Y5905254D01*
X64480012Y5913016D01*
X64449937Y5923777D01*
X64421060Y5937435D01*
X64393662Y5953857D01*
X64368005Y5972885D01*
X64344337Y5994337D01*
X64322885Y6018005D01*
X64303857Y6043662D01*
X64287435Y6071060D01*
X64273777Y6099937D01*
X64263016Y6130012D01*
X64255254Y6160998D01*
X64250567Y6192595D01*
X64249000Y6224500D01*
X64249000Y7775500D01*
X64250567Y7807405D01*
X64255254Y7839002D01*
X64263016Y7869988D01*
X64273777Y7900063D01*
X64287435Y7928940D01*
X64303857Y7956338D01*
X64322885Y7981995D01*
X64344337Y8005663D01*
X64368005Y8027115D01*
X64393662Y8046143D01*
X64421060Y8062565D01*
X64449937Y8076223D01*
X64480012Y8086984D01*
X64510998Y8094746D01*
X64542595Y8099433D01*
X64574500Y8101000D01*
X65225500Y8101000D01*
X65257405Y8099433D01*
X65257405Y8099433D01*
G37*
D24*
X64900000Y7000000D03*
D23*
G36*
X63807405Y10749433D02*
G01*
X63839002Y10744746D01*
X63869988Y10736984D01*
X63900063Y10726223D01*
X63928940Y10712565D01*
X63956338Y10696143D01*
X63981995Y10677115D01*
X64005663Y10655663D01*
X64027115Y10631995D01*
X64046143Y10606338D01*
X64062565Y10578940D01*
X64076223Y10550063D01*
X64086984Y10519988D01*
X64094746Y10489002D01*
X64099433Y10457405D01*
X64101000Y10425500D01*
X64101000Y9774500D01*
X64099433Y9742595D01*
X64094746Y9710998D01*
X64086984Y9680012D01*
X64076223Y9649937D01*
X64062565Y9621060D01*
X64046143Y9593662D01*
X64027115Y9568005D01*
X64005663Y9544337D01*
X63981995Y9522885D01*
X63956338Y9503857D01*
X63928940Y9487435D01*
X63900063Y9473777D01*
X63869988Y9463016D01*
X63839002Y9455254D01*
X63807405Y9450567D01*
X63775500Y9449000D01*
X62224500Y9449000D01*
X62192595Y9450567D01*
X62160998Y9455254D01*
X62130012Y9463016D01*
X62099937Y9473777D01*
X62071060Y9487435D01*
X62043662Y9503857D01*
X62018005Y9522885D01*
X61994337Y9544337D01*
X61972885Y9568005D01*
X61953857Y9593662D01*
X61937435Y9621060D01*
X61923777Y9649937D01*
X61913016Y9680012D01*
X61905254Y9710998D01*
X61900567Y9742595D01*
X61899000Y9774500D01*
X61899000Y10425500D01*
X61900567Y10457405D01*
X61905254Y10489002D01*
X61913016Y10519988D01*
X61923777Y10550063D01*
X61937435Y10578940D01*
X61953857Y10606338D01*
X61972885Y10631995D01*
X61994337Y10655663D01*
X62018005Y10677115D01*
X62043662Y10696143D01*
X62071060Y10712565D01*
X62099937Y10726223D01*
X62130012Y10736984D01*
X62160998Y10744746D01*
X62192595Y10749433D01*
X62224500Y10751000D01*
X63775500Y10751000D01*
X63807405Y10749433D01*
X63807405Y10749433D01*
G37*
D24*
X63000000Y10100000D03*
D23*
G36*
X61457405Y8099433D02*
G01*
X61489002Y8094746D01*
X61519988Y8086984D01*
X61550063Y8076223D01*
X61578940Y8062565D01*
X61606338Y8046143D01*
X61631995Y8027115D01*
X61655663Y8005663D01*
X61677115Y7981995D01*
X61696143Y7956338D01*
X61712565Y7928940D01*
X61726223Y7900063D01*
X61736984Y7869988D01*
X61744746Y7839002D01*
X61749433Y7807405D01*
X61751000Y7775500D01*
X61751000Y6224500D01*
X61749433Y6192595D01*
X61744746Y6160998D01*
X61736984Y6130012D01*
X61726223Y6099937D01*
X61712565Y6071060D01*
X61696143Y6043662D01*
X61677115Y6018005D01*
X61655663Y5994337D01*
X61631995Y5972885D01*
X61606338Y5953857D01*
X61578940Y5937435D01*
X61550063Y5923777D01*
X61519988Y5913016D01*
X61489002Y5905254D01*
X61457405Y5900567D01*
X61425500Y5899000D01*
X60774500Y5899000D01*
X60742595Y5900567D01*
X60710998Y5905254D01*
X60680012Y5913016D01*
X60649937Y5923777D01*
X60621060Y5937435D01*
X60593662Y5953857D01*
X60568005Y5972885D01*
X60544337Y5994337D01*
X60522885Y6018005D01*
X60503857Y6043662D01*
X60487435Y6071060D01*
X60473777Y6099937D01*
X60463016Y6130012D01*
X60455254Y6160998D01*
X60450567Y6192595D01*
X60449000Y6224500D01*
X60449000Y7775500D01*
X60450567Y7807405D01*
X60455254Y7839002D01*
X60463016Y7869988D01*
X60473777Y7900063D01*
X60487435Y7928940D01*
X60503857Y7956338D01*
X60522885Y7981995D01*
X60544337Y8005663D01*
X60568005Y8027115D01*
X60593662Y8046143D01*
X60621060Y8062565D01*
X60649937Y8076223D01*
X60680012Y8086984D01*
X60710998Y8094746D01*
X60742595Y8099433D01*
X60774500Y8101000D01*
X61425500Y8101000D01*
X61457405Y8099433D01*
X61457405Y8099433D01*
G37*
D24*
X61100000Y7000000D03*
D25*
X65000000Y2350000D03*
X61000000Y2350000D03*
D23*
G36*
X56257405Y8099433D02*
G01*
X56289002Y8094746D01*
X56319988Y8086984D01*
X56350063Y8076223D01*
X56378940Y8062565D01*
X56406338Y8046143D01*
X56431995Y8027115D01*
X56455663Y8005663D01*
X56477115Y7981995D01*
X56496143Y7956338D01*
X56512565Y7928940D01*
X56526223Y7900063D01*
X56536984Y7869988D01*
X56544746Y7839002D01*
X56549433Y7807405D01*
X56551000Y7775500D01*
X56551000Y6224500D01*
X56549433Y6192595D01*
X56544746Y6160998D01*
X56536984Y6130012D01*
X56526223Y6099937D01*
X56512565Y6071060D01*
X56496143Y6043662D01*
X56477115Y6018005D01*
X56455663Y5994337D01*
X56431995Y5972885D01*
X56406338Y5953857D01*
X56378940Y5937435D01*
X56350063Y5923777D01*
X56319988Y5913016D01*
X56289002Y5905254D01*
X56257405Y5900567D01*
X56225500Y5899000D01*
X55574500Y5899000D01*
X55542595Y5900567D01*
X55510998Y5905254D01*
X55480012Y5913016D01*
X55449937Y5923777D01*
X55421060Y5937435D01*
X55393662Y5953857D01*
X55368005Y5972885D01*
X55344337Y5994337D01*
X55322885Y6018005D01*
X55303857Y6043662D01*
X55287435Y6071060D01*
X55273777Y6099937D01*
X55263016Y6130012D01*
X55255254Y6160998D01*
X55250567Y6192595D01*
X55249000Y6224500D01*
X55249000Y7775500D01*
X55250567Y7807405D01*
X55255254Y7839002D01*
X55263016Y7869988D01*
X55273777Y7900063D01*
X55287435Y7928940D01*
X55303857Y7956338D01*
X55322885Y7981995D01*
X55344337Y8005663D01*
X55368005Y8027115D01*
X55393662Y8046143D01*
X55421060Y8062565D01*
X55449937Y8076223D01*
X55480012Y8086984D01*
X55510998Y8094746D01*
X55542595Y8099433D01*
X55574500Y8101000D01*
X56225500Y8101000D01*
X56257405Y8099433D01*
X56257405Y8099433D01*
G37*
D24*
X55900000Y7000000D03*
D23*
G36*
X54807405Y10749433D02*
G01*
X54839002Y10744746D01*
X54869988Y10736984D01*
X54900063Y10726223D01*
X54928940Y10712565D01*
X54956338Y10696143D01*
X54981995Y10677115D01*
X55005663Y10655663D01*
X55027115Y10631995D01*
X55046143Y10606338D01*
X55062565Y10578940D01*
X55076223Y10550063D01*
X55086984Y10519988D01*
X55094746Y10489002D01*
X55099433Y10457405D01*
X55101000Y10425500D01*
X55101000Y9774500D01*
X55099433Y9742595D01*
X55094746Y9710998D01*
X55086984Y9680012D01*
X55076223Y9649937D01*
X55062565Y9621060D01*
X55046143Y9593662D01*
X55027115Y9568005D01*
X55005663Y9544337D01*
X54981995Y9522885D01*
X54956338Y9503857D01*
X54928940Y9487435D01*
X54900063Y9473777D01*
X54869988Y9463016D01*
X54839002Y9455254D01*
X54807405Y9450567D01*
X54775500Y9449000D01*
X53224500Y9449000D01*
X53192595Y9450567D01*
X53160998Y9455254D01*
X53130012Y9463016D01*
X53099937Y9473777D01*
X53071060Y9487435D01*
X53043662Y9503857D01*
X53018005Y9522885D01*
X52994337Y9544337D01*
X52972885Y9568005D01*
X52953857Y9593662D01*
X52937435Y9621060D01*
X52923777Y9649937D01*
X52913016Y9680012D01*
X52905254Y9710998D01*
X52900567Y9742595D01*
X52899000Y9774500D01*
X52899000Y10425500D01*
X52900567Y10457405D01*
X52905254Y10489002D01*
X52913016Y10519988D01*
X52923777Y10550063D01*
X52937435Y10578940D01*
X52953857Y10606338D01*
X52972885Y10631995D01*
X52994337Y10655663D01*
X53018005Y10677115D01*
X53043662Y10696143D01*
X53071060Y10712565D01*
X53099937Y10726223D01*
X53130012Y10736984D01*
X53160998Y10744746D01*
X53192595Y10749433D01*
X53224500Y10751000D01*
X54775500Y10751000D01*
X54807405Y10749433D01*
X54807405Y10749433D01*
G37*
D24*
X54000000Y10100000D03*
D23*
G36*
X52457405Y8099433D02*
G01*
X52489002Y8094746D01*
X52519988Y8086984D01*
X52550063Y8076223D01*
X52578940Y8062565D01*
X52606338Y8046143D01*
X52631995Y8027115D01*
X52655663Y8005663D01*
X52677115Y7981995D01*
X52696143Y7956338D01*
X52712565Y7928940D01*
X52726223Y7900063D01*
X52736984Y7869988D01*
X52744746Y7839002D01*
X52749433Y7807405D01*
X52751000Y7775500D01*
X52751000Y6224500D01*
X52749433Y6192595D01*
X52744746Y6160998D01*
X52736984Y6130012D01*
X52726223Y6099937D01*
X52712565Y6071060D01*
X52696143Y6043662D01*
X52677115Y6018005D01*
X52655663Y5994337D01*
X52631995Y5972885D01*
X52606338Y5953857D01*
X52578940Y5937435D01*
X52550063Y5923777D01*
X52519988Y5913016D01*
X52489002Y5905254D01*
X52457405Y5900567D01*
X52425500Y5899000D01*
X51774500Y5899000D01*
X51742595Y5900567D01*
X51710998Y5905254D01*
X51680012Y5913016D01*
X51649937Y5923777D01*
X51621060Y5937435D01*
X51593662Y5953857D01*
X51568005Y5972885D01*
X51544337Y5994337D01*
X51522885Y6018005D01*
X51503857Y6043662D01*
X51487435Y6071060D01*
X51473777Y6099937D01*
X51463016Y6130012D01*
X51455254Y6160998D01*
X51450567Y6192595D01*
X51449000Y6224500D01*
X51449000Y7775500D01*
X51450567Y7807405D01*
X51455254Y7839002D01*
X51463016Y7869988D01*
X51473777Y7900063D01*
X51487435Y7928940D01*
X51503857Y7956338D01*
X51522885Y7981995D01*
X51544337Y8005663D01*
X51568005Y8027115D01*
X51593662Y8046143D01*
X51621060Y8062565D01*
X51649937Y8076223D01*
X51680012Y8086984D01*
X51710998Y8094746D01*
X51742595Y8099433D01*
X51774500Y8101000D01*
X52425500Y8101000D01*
X52457405Y8099433D01*
X52457405Y8099433D01*
G37*
D24*
X52100000Y7000000D03*
D25*
X56000000Y2350000D03*
X52000000Y2350000D03*
D23*
G36*
X47257405Y8099433D02*
G01*
X47289002Y8094746D01*
X47319988Y8086984D01*
X47350063Y8076223D01*
X47378940Y8062565D01*
X47406338Y8046143D01*
X47431995Y8027115D01*
X47455663Y8005663D01*
X47477115Y7981995D01*
X47496143Y7956338D01*
X47512565Y7928940D01*
X47526223Y7900063D01*
X47536984Y7869988D01*
X47544746Y7839002D01*
X47549433Y7807405D01*
X47551000Y7775500D01*
X47551000Y6224500D01*
X47549433Y6192595D01*
X47544746Y6160998D01*
X47536984Y6130012D01*
X47526223Y6099937D01*
X47512565Y6071060D01*
X47496143Y6043662D01*
X47477115Y6018005D01*
X47455663Y5994337D01*
X47431995Y5972885D01*
X47406338Y5953857D01*
X47378940Y5937435D01*
X47350063Y5923777D01*
X47319988Y5913016D01*
X47289002Y5905254D01*
X47257405Y5900567D01*
X47225500Y5899000D01*
X46574500Y5899000D01*
X46542595Y5900567D01*
X46510998Y5905254D01*
X46480012Y5913016D01*
X46449937Y5923777D01*
X46421060Y5937435D01*
X46393662Y5953857D01*
X46368005Y5972885D01*
X46344337Y5994337D01*
X46322885Y6018005D01*
X46303857Y6043662D01*
X46287435Y6071060D01*
X46273777Y6099937D01*
X46263016Y6130012D01*
X46255254Y6160998D01*
X46250567Y6192595D01*
X46249000Y6224500D01*
X46249000Y7775500D01*
X46250567Y7807405D01*
X46255254Y7839002D01*
X46263016Y7869988D01*
X46273777Y7900063D01*
X46287435Y7928940D01*
X46303857Y7956338D01*
X46322885Y7981995D01*
X46344337Y8005663D01*
X46368005Y8027115D01*
X46393662Y8046143D01*
X46421060Y8062565D01*
X46449937Y8076223D01*
X46480012Y8086984D01*
X46510998Y8094746D01*
X46542595Y8099433D01*
X46574500Y8101000D01*
X47225500Y8101000D01*
X47257405Y8099433D01*
X47257405Y8099433D01*
G37*
D24*
X46900000Y7000000D03*
D23*
G36*
X45807405Y10749433D02*
G01*
X45839002Y10744746D01*
X45869988Y10736984D01*
X45900063Y10726223D01*
X45928940Y10712565D01*
X45956338Y10696143D01*
X45981995Y10677115D01*
X46005663Y10655663D01*
X46027115Y10631995D01*
X46046143Y10606338D01*
X46062565Y10578940D01*
X46076223Y10550063D01*
X46086984Y10519988D01*
X46094746Y10489002D01*
X46099433Y10457405D01*
X46101000Y10425500D01*
X46101000Y9774500D01*
X46099433Y9742595D01*
X46094746Y9710998D01*
X46086984Y9680012D01*
X46076223Y9649937D01*
X46062565Y9621060D01*
X46046143Y9593662D01*
X46027115Y9568005D01*
X46005663Y9544337D01*
X45981995Y9522885D01*
X45956338Y9503857D01*
X45928940Y9487435D01*
X45900063Y9473777D01*
X45869988Y9463016D01*
X45839002Y9455254D01*
X45807405Y9450567D01*
X45775500Y9449000D01*
X44224500Y9449000D01*
X44192595Y9450567D01*
X44160998Y9455254D01*
X44130012Y9463016D01*
X44099937Y9473777D01*
X44071060Y9487435D01*
X44043662Y9503857D01*
X44018005Y9522885D01*
X43994337Y9544337D01*
X43972885Y9568005D01*
X43953857Y9593662D01*
X43937435Y9621060D01*
X43923777Y9649937D01*
X43913016Y9680012D01*
X43905254Y9710998D01*
X43900567Y9742595D01*
X43899000Y9774500D01*
X43899000Y10425500D01*
X43900567Y10457405D01*
X43905254Y10489002D01*
X43913016Y10519988D01*
X43923777Y10550063D01*
X43937435Y10578940D01*
X43953857Y10606338D01*
X43972885Y10631995D01*
X43994337Y10655663D01*
X44018005Y10677115D01*
X44043662Y10696143D01*
X44071060Y10712565D01*
X44099937Y10726223D01*
X44130012Y10736984D01*
X44160998Y10744746D01*
X44192595Y10749433D01*
X44224500Y10751000D01*
X45775500Y10751000D01*
X45807405Y10749433D01*
X45807405Y10749433D01*
G37*
D24*
X45000000Y10100000D03*
D23*
G36*
X43457405Y8099433D02*
G01*
X43489002Y8094746D01*
X43519988Y8086984D01*
X43550063Y8076223D01*
X43578940Y8062565D01*
X43606338Y8046143D01*
X43631995Y8027115D01*
X43655663Y8005663D01*
X43677115Y7981995D01*
X43696143Y7956338D01*
X43712565Y7928940D01*
X43726223Y7900063D01*
X43736984Y7869988D01*
X43744746Y7839002D01*
X43749433Y7807405D01*
X43751000Y7775500D01*
X43751000Y6224500D01*
X43749433Y6192595D01*
X43744746Y6160998D01*
X43736984Y6130012D01*
X43726223Y6099937D01*
X43712565Y6071060D01*
X43696143Y6043662D01*
X43677115Y6018005D01*
X43655663Y5994337D01*
X43631995Y5972885D01*
X43606338Y5953857D01*
X43578940Y5937435D01*
X43550063Y5923777D01*
X43519988Y5913016D01*
X43489002Y5905254D01*
X43457405Y5900567D01*
X43425500Y5899000D01*
X42774500Y5899000D01*
X42742595Y5900567D01*
X42710998Y5905254D01*
X42680012Y5913016D01*
X42649937Y5923777D01*
X42621060Y5937435D01*
X42593662Y5953857D01*
X42568005Y5972885D01*
X42544337Y5994337D01*
X42522885Y6018005D01*
X42503857Y6043662D01*
X42487435Y6071060D01*
X42473777Y6099937D01*
X42463016Y6130012D01*
X42455254Y6160998D01*
X42450567Y6192595D01*
X42449000Y6224500D01*
X42449000Y7775500D01*
X42450567Y7807405D01*
X42455254Y7839002D01*
X42463016Y7869988D01*
X42473777Y7900063D01*
X42487435Y7928940D01*
X42503857Y7956338D01*
X42522885Y7981995D01*
X42544337Y8005663D01*
X42568005Y8027115D01*
X42593662Y8046143D01*
X42621060Y8062565D01*
X42649937Y8076223D01*
X42680012Y8086984D01*
X42710998Y8094746D01*
X42742595Y8099433D01*
X42774500Y8101000D01*
X43425500Y8101000D01*
X43457405Y8099433D01*
X43457405Y8099433D01*
G37*
D24*
X43100000Y7000000D03*
D25*
X47000000Y2350000D03*
X43000000Y2350000D03*
D23*
G36*
X38257405Y8099433D02*
G01*
X38289002Y8094746D01*
X38319988Y8086984D01*
X38350063Y8076223D01*
X38378940Y8062565D01*
X38406338Y8046143D01*
X38431995Y8027115D01*
X38455663Y8005663D01*
X38477115Y7981995D01*
X38496143Y7956338D01*
X38512565Y7928940D01*
X38526223Y7900063D01*
X38536984Y7869988D01*
X38544746Y7839002D01*
X38549433Y7807405D01*
X38551000Y7775500D01*
X38551000Y6224500D01*
X38549433Y6192595D01*
X38544746Y6160998D01*
X38536984Y6130012D01*
X38526223Y6099937D01*
X38512565Y6071060D01*
X38496143Y6043662D01*
X38477115Y6018005D01*
X38455663Y5994337D01*
X38431995Y5972885D01*
X38406338Y5953857D01*
X38378940Y5937435D01*
X38350063Y5923777D01*
X38319988Y5913016D01*
X38289002Y5905254D01*
X38257405Y5900567D01*
X38225500Y5899000D01*
X37574500Y5899000D01*
X37542595Y5900567D01*
X37510998Y5905254D01*
X37480012Y5913016D01*
X37449937Y5923777D01*
X37421060Y5937435D01*
X37393662Y5953857D01*
X37368005Y5972885D01*
X37344337Y5994337D01*
X37322885Y6018005D01*
X37303857Y6043662D01*
X37287435Y6071060D01*
X37273777Y6099937D01*
X37263016Y6130012D01*
X37255254Y6160998D01*
X37250567Y6192595D01*
X37249000Y6224500D01*
X37249000Y7775500D01*
X37250567Y7807405D01*
X37255254Y7839002D01*
X37263016Y7869988D01*
X37273777Y7900063D01*
X37287435Y7928940D01*
X37303857Y7956338D01*
X37322885Y7981995D01*
X37344337Y8005663D01*
X37368005Y8027115D01*
X37393662Y8046143D01*
X37421060Y8062565D01*
X37449937Y8076223D01*
X37480012Y8086984D01*
X37510998Y8094746D01*
X37542595Y8099433D01*
X37574500Y8101000D01*
X38225500Y8101000D01*
X38257405Y8099433D01*
X38257405Y8099433D01*
G37*
D24*
X37900000Y7000000D03*
D23*
G36*
X36807405Y10749433D02*
G01*
X36839002Y10744746D01*
X36869988Y10736984D01*
X36900063Y10726223D01*
X36928940Y10712565D01*
X36956338Y10696143D01*
X36981995Y10677115D01*
X37005663Y10655663D01*
X37027115Y10631995D01*
X37046143Y10606338D01*
X37062565Y10578940D01*
X37076223Y10550063D01*
X37086984Y10519988D01*
X37094746Y10489002D01*
X37099433Y10457405D01*
X37101000Y10425500D01*
X37101000Y9774500D01*
X37099433Y9742595D01*
X37094746Y9710998D01*
X37086984Y9680012D01*
X37076223Y9649937D01*
X37062565Y9621060D01*
X37046143Y9593662D01*
X37027115Y9568005D01*
X37005663Y9544337D01*
X36981995Y9522885D01*
X36956338Y9503857D01*
X36928940Y9487435D01*
X36900063Y9473777D01*
X36869988Y9463016D01*
X36839002Y9455254D01*
X36807405Y9450567D01*
X36775500Y9449000D01*
X35224500Y9449000D01*
X35192595Y9450567D01*
X35160998Y9455254D01*
X35130012Y9463016D01*
X35099937Y9473777D01*
X35071060Y9487435D01*
X35043662Y9503857D01*
X35018005Y9522885D01*
X34994337Y9544337D01*
X34972885Y9568005D01*
X34953857Y9593662D01*
X34937435Y9621060D01*
X34923777Y9649937D01*
X34913016Y9680012D01*
X34905254Y9710998D01*
X34900567Y9742595D01*
X34899000Y9774500D01*
X34899000Y10425500D01*
X34900567Y10457405D01*
X34905254Y10489002D01*
X34913016Y10519988D01*
X34923777Y10550063D01*
X34937435Y10578940D01*
X34953857Y10606338D01*
X34972885Y10631995D01*
X34994337Y10655663D01*
X35018005Y10677115D01*
X35043662Y10696143D01*
X35071060Y10712565D01*
X35099937Y10726223D01*
X35130012Y10736984D01*
X35160998Y10744746D01*
X35192595Y10749433D01*
X35224500Y10751000D01*
X36775500Y10751000D01*
X36807405Y10749433D01*
X36807405Y10749433D01*
G37*
D24*
X36000000Y10100000D03*
D23*
G36*
X34457405Y8099433D02*
G01*
X34489002Y8094746D01*
X34519988Y8086984D01*
X34550063Y8076223D01*
X34578940Y8062565D01*
X34606338Y8046143D01*
X34631995Y8027115D01*
X34655663Y8005663D01*
X34677115Y7981995D01*
X34696143Y7956338D01*
X34712565Y7928940D01*
X34726223Y7900063D01*
X34736984Y7869988D01*
X34744746Y7839002D01*
X34749433Y7807405D01*
X34751000Y7775500D01*
X34751000Y6224500D01*
X34749433Y6192595D01*
X34744746Y6160998D01*
X34736984Y6130012D01*
X34726223Y6099937D01*
X34712565Y6071060D01*
X34696143Y6043662D01*
X34677115Y6018005D01*
X34655663Y5994337D01*
X34631995Y5972885D01*
X34606338Y5953857D01*
X34578940Y5937435D01*
X34550063Y5923777D01*
X34519988Y5913016D01*
X34489002Y5905254D01*
X34457405Y5900567D01*
X34425500Y5899000D01*
X33774500Y5899000D01*
X33742595Y5900567D01*
X33710998Y5905254D01*
X33680012Y5913016D01*
X33649937Y5923777D01*
X33621060Y5937435D01*
X33593662Y5953857D01*
X33568005Y5972885D01*
X33544337Y5994337D01*
X33522885Y6018005D01*
X33503857Y6043662D01*
X33487435Y6071060D01*
X33473777Y6099937D01*
X33463016Y6130012D01*
X33455254Y6160998D01*
X33450567Y6192595D01*
X33449000Y6224500D01*
X33449000Y7775500D01*
X33450567Y7807405D01*
X33455254Y7839002D01*
X33463016Y7869988D01*
X33473777Y7900063D01*
X33487435Y7928940D01*
X33503857Y7956338D01*
X33522885Y7981995D01*
X33544337Y8005663D01*
X33568005Y8027115D01*
X33593662Y8046143D01*
X33621060Y8062565D01*
X33649937Y8076223D01*
X33680012Y8086984D01*
X33710998Y8094746D01*
X33742595Y8099433D01*
X33774500Y8101000D01*
X34425500Y8101000D01*
X34457405Y8099433D01*
X34457405Y8099433D01*
G37*
D24*
X34100000Y7000000D03*
D25*
X38000000Y2350000D03*
X34000000Y2350000D03*
D23*
G36*
X29257405Y8099433D02*
G01*
X29289002Y8094746D01*
X29319988Y8086984D01*
X29350063Y8076223D01*
X29378940Y8062565D01*
X29406338Y8046143D01*
X29431995Y8027115D01*
X29455663Y8005663D01*
X29477115Y7981995D01*
X29496143Y7956338D01*
X29512565Y7928940D01*
X29526223Y7900063D01*
X29536984Y7869988D01*
X29544746Y7839002D01*
X29549433Y7807405D01*
X29551000Y7775500D01*
X29551000Y6224500D01*
X29549433Y6192595D01*
X29544746Y6160998D01*
X29536984Y6130012D01*
X29526223Y6099937D01*
X29512565Y6071060D01*
X29496143Y6043662D01*
X29477115Y6018005D01*
X29455663Y5994337D01*
X29431995Y5972885D01*
X29406338Y5953857D01*
X29378940Y5937435D01*
X29350063Y5923777D01*
X29319988Y5913016D01*
X29289002Y5905254D01*
X29257405Y5900567D01*
X29225500Y5899000D01*
X28574500Y5899000D01*
X28542595Y5900567D01*
X28510998Y5905254D01*
X28480012Y5913016D01*
X28449937Y5923777D01*
X28421060Y5937435D01*
X28393662Y5953857D01*
X28368005Y5972885D01*
X28344337Y5994337D01*
X28322885Y6018005D01*
X28303857Y6043662D01*
X28287435Y6071060D01*
X28273777Y6099937D01*
X28263016Y6130012D01*
X28255254Y6160998D01*
X28250567Y6192595D01*
X28249000Y6224500D01*
X28249000Y7775500D01*
X28250567Y7807405D01*
X28255254Y7839002D01*
X28263016Y7869988D01*
X28273777Y7900063D01*
X28287435Y7928940D01*
X28303857Y7956338D01*
X28322885Y7981995D01*
X28344337Y8005663D01*
X28368005Y8027115D01*
X28393662Y8046143D01*
X28421060Y8062565D01*
X28449937Y8076223D01*
X28480012Y8086984D01*
X28510998Y8094746D01*
X28542595Y8099433D01*
X28574500Y8101000D01*
X29225500Y8101000D01*
X29257405Y8099433D01*
X29257405Y8099433D01*
G37*
D24*
X28900000Y7000000D03*
D23*
G36*
X27807405Y10749433D02*
G01*
X27839002Y10744746D01*
X27869988Y10736984D01*
X27900063Y10726223D01*
X27928940Y10712565D01*
X27956338Y10696143D01*
X27981995Y10677115D01*
X28005663Y10655663D01*
X28027115Y10631995D01*
X28046143Y10606338D01*
X28062565Y10578940D01*
X28076223Y10550063D01*
X28086984Y10519988D01*
X28094746Y10489002D01*
X28099433Y10457405D01*
X28101000Y10425500D01*
X28101000Y9774500D01*
X28099433Y9742595D01*
X28094746Y9710998D01*
X28086984Y9680012D01*
X28076223Y9649937D01*
X28062565Y9621060D01*
X28046143Y9593662D01*
X28027115Y9568005D01*
X28005663Y9544337D01*
X27981995Y9522885D01*
X27956338Y9503857D01*
X27928940Y9487435D01*
X27900063Y9473777D01*
X27869988Y9463016D01*
X27839002Y9455254D01*
X27807405Y9450567D01*
X27775500Y9449000D01*
X26224500Y9449000D01*
X26192595Y9450567D01*
X26160998Y9455254D01*
X26130012Y9463016D01*
X26099937Y9473777D01*
X26071060Y9487435D01*
X26043662Y9503857D01*
X26018005Y9522885D01*
X25994337Y9544337D01*
X25972885Y9568005D01*
X25953857Y9593662D01*
X25937435Y9621060D01*
X25923777Y9649937D01*
X25913016Y9680012D01*
X25905254Y9710998D01*
X25900567Y9742595D01*
X25899000Y9774500D01*
X25899000Y10425500D01*
X25900567Y10457405D01*
X25905254Y10489002D01*
X25913016Y10519988D01*
X25923777Y10550063D01*
X25937435Y10578940D01*
X25953857Y10606338D01*
X25972885Y10631995D01*
X25994337Y10655663D01*
X26018005Y10677115D01*
X26043662Y10696143D01*
X26071060Y10712565D01*
X26099937Y10726223D01*
X26130012Y10736984D01*
X26160998Y10744746D01*
X26192595Y10749433D01*
X26224500Y10751000D01*
X27775500Y10751000D01*
X27807405Y10749433D01*
X27807405Y10749433D01*
G37*
D24*
X27000000Y10100000D03*
D23*
G36*
X25457405Y8099433D02*
G01*
X25489002Y8094746D01*
X25519988Y8086984D01*
X25550063Y8076223D01*
X25578940Y8062565D01*
X25606338Y8046143D01*
X25631995Y8027115D01*
X25655663Y8005663D01*
X25677115Y7981995D01*
X25696143Y7956338D01*
X25712565Y7928940D01*
X25726223Y7900063D01*
X25736984Y7869988D01*
X25744746Y7839002D01*
X25749433Y7807405D01*
X25751000Y7775500D01*
X25751000Y6224500D01*
X25749433Y6192595D01*
X25744746Y6160998D01*
X25736984Y6130012D01*
X25726223Y6099937D01*
X25712565Y6071060D01*
X25696143Y6043662D01*
X25677115Y6018005D01*
X25655663Y5994337D01*
X25631995Y5972885D01*
X25606338Y5953857D01*
X25578940Y5937435D01*
X25550063Y5923777D01*
X25519988Y5913016D01*
X25489002Y5905254D01*
X25457405Y5900567D01*
X25425500Y5899000D01*
X24774500Y5899000D01*
X24742595Y5900567D01*
X24710998Y5905254D01*
X24680012Y5913016D01*
X24649937Y5923777D01*
X24621060Y5937435D01*
X24593662Y5953857D01*
X24568005Y5972885D01*
X24544337Y5994337D01*
X24522885Y6018005D01*
X24503857Y6043662D01*
X24487435Y6071060D01*
X24473777Y6099937D01*
X24463016Y6130012D01*
X24455254Y6160998D01*
X24450567Y6192595D01*
X24449000Y6224500D01*
X24449000Y7775500D01*
X24450567Y7807405D01*
X24455254Y7839002D01*
X24463016Y7869988D01*
X24473777Y7900063D01*
X24487435Y7928940D01*
X24503857Y7956338D01*
X24522885Y7981995D01*
X24544337Y8005663D01*
X24568005Y8027115D01*
X24593662Y8046143D01*
X24621060Y8062565D01*
X24649937Y8076223D01*
X24680012Y8086984D01*
X24710998Y8094746D01*
X24742595Y8099433D01*
X24774500Y8101000D01*
X25425500Y8101000D01*
X25457405Y8099433D01*
X25457405Y8099433D01*
G37*
D24*
X25100000Y7000000D03*
D25*
X29000000Y2350000D03*
X25000000Y2350000D03*
D26*
X104360000Y5263000D03*
D27*
X103110000Y2773000D03*
X98610000Y2773000D03*
D26*
X97350000Y5263000D03*
D19*
X107555000Y12933000D03*
D28*
X107555000Y2773000D03*
D19*
X15480000Y21545000D03*
D28*
X25640000Y21545000D03*
D19*
X15480000Y24720000D03*
D28*
X25640000Y24720000D03*
D19*
X86600000Y25760000D03*
D28*
X76440000Y25760000D03*
D19*
X86600000Y22585000D03*
D28*
X76440000Y22585000D03*
D19*
X27227500Y76790000D03*
D28*
X27227500Y86950000D03*
D18*
X18655000Y43540000D03*
X28815000Y43540000D03*
X38975000Y43540000D03*
X33895000Y63860000D03*
X38975000Y63860000D03*
D29*
X108190000Y25125000D03*
X108190000Y27665000D03*
X108190000Y30205000D03*
X108190000Y32745000D03*
D30*
X108190000Y35285000D03*
D31*
X8495000Y66450000D03*
D13*
X8495000Y77700000D03*
X8495000Y55200000D03*
D18*
X19330000Y4019000D03*
D32*
X21830000Y4019000D03*
D18*
X14250000Y4003500D03*
D32*
X16750000Y4003500D03*
D18*
X23735000Y86950000D03*
D32*
X21235000Y86950000D03*
D28*
X49492500Y25760000D03*
X51992500Y25760000D03*
D16*
X21500000Y75500000D03*
X21500000Y15500000D03*
X101500000Y75500000D03*
X101500000Y15500000D03*
M02*
