G04 #@! TF.GenerationSoftware,KiCad,Pcbnew,(5.1.4)-1*
G04 #@! TF.CreationDate,2019-09-09T23:59:39+02:00*
G04 #@! TF.ProjectId,BBSensor,42425365-6e73-46f7-922e-6b696361645f,1.0*
G04 #@! TF.SameCoordinates,PXe4e1c0PY8677d40*
G04 #@! TF.FileFunction,Legend,Bot*
G04 #@! TF.FilePolarity,Positive*
%FSLAX46Y46*%
G04 Gerber Fmt 4.6, Leading zero omitted, Abs format (unit mm)*
G04 Created by KiCad (PCBNEW (5.1.4)-1) date 2019-09-09 23:59:39*
%MOMM*%
%LPD*%
G04 APERTURE LIST*
%ADD10C,3.102000*%
%ADD11C,3.302000*%
%ADD12C,5.102000*%
%ADD13C,7.102000*%
%ADD14O,2.134000X2.134000*%
%ADD15R,2.134000X2.134000*%
%ADD16O,1.702000X1.702000*%
%ADD17R,1.702000X1.702000*%
%ADD18C,1.626000*%
%ADD19O,2.502000X2.502000*%
%ADD20C,2.502000*%
%ADD21C,2.602000*%
%ADD22C,1.602000*%
%ADD23R,1.602000X1.602000*%
%ADD24O,1.602000X3.602000*%
%ADD25O,3.602000X1.602000*%
%ADD26C,1.542000*%
%ADD27O,2.402000X4.102000*%
%ADD28C,2.102000*%
%ADD29C,1.802000*%
%ADD30O,4.102000X2.402000*%
%ADD31C,2.202000*%
%ADD32C,1.852000*%
%ADD33C,2.802000*%
%ADD34C,1.702000*%
%ADD35C,7.502000*%
G04 APERTURE END LIST*
%LPC*%
D10*
X96750000Y107965000D03*
X103750000Y107965000D03*
X130800000Y111805000D03*
X122200000Y111805000D03*
X82150000Y117965000D03*
X140050000Y117965000D03*
D11*
X133600000Y117965000D03*
D12*
X88600000Y117965000D03*
D13*
X112000000Y114965000D03*
D14*
X8495000Y95851500D03*
X11035000Y95851500D03*
X13575000Y95851500D03*
X16115000Y95851500D03*
D15*
X18655000Y95851500D03*
D16*
X84300000Y61672500D03*
X91920000Y54052500D03*
X86840000Y61672500D03*
X89380000Y54052500D03*
X89380000Y61672500D03*
X86840000Y54052500D03*
X91920000Y61672500D03*
D17*
X84300000Y54052500D03*
D12*
X6790000Y82715000D03*
X31790000Y82715000D03*
X6790000Y30395000D03*
X31790000Y30395000D03*
D18*
X5320000Y74325000D03*
X5320000Y38765000D03*
X5320000Y41305000D03*
X5320000Y43845000D03*
X5320000Y46385000D03*
X5320000Y48925000D03*
X5320000Y51465000D03*
X5320000Y56545000D03*
X5320000Y54005000D03*
X5320000Y61625000D03*
X5320000Y59085000D03*
X5320000Y64165000D03*
X5320000Y66705000D03*
X5320000Y71785000D03*
X5320000Y69245000D03*
X33260000Y74325000D03*
X33260000Y69245000D03*
X33260000Y71785000D03*
X33260000Y66705000D03*
X33260000Y64165000D03*
X33260000Y59085000D03*
X33260000Y61625000D03*
X33260000Y54005000D03*
X33260000Y56545000D03*
X33260000Y51465000D03*
X33260000Y48925000D03*
X33260000Y46385000D03*
X33260000Y43845000D03*
X33260000Y41305000D03*
X33260000Y38765000D03*
D19*
X26910000Y101630000D03*
D20*
X26910000Y88930000D03*
D19*
X31355000Y101630000D03*
D20*
X31355000Y88930000D03*
D21*
X133830000Y2935000D03*
X133830000Y8650000D03*
D22*
X18655000Y121950000D03*
D23*
X16155000Y121950000D03*
D24*
X100500000Y9547500D03*
D25*
X97000000Y11047500D03*
X97000000Y1347500D03*
D22*
X12585000Y4078000D03*
D23*
X15085000Y4078000D03*
D22*
X18300000Y4078000D03*
D23*
X20800000Y4078000D03*
D24*
X129075000Y9547500D03*
D25*
X125575000Y11047500D03*
X125575000Y1347500D03*
D24*
X119550000Y9547500D03*
D25*
X116050000Y11047500D03*
X116050000Y1347500D03*
D24*
X110025000Y9547500D03*
D25*
X106525000Y11047500D03*
X106525000Y1347500D03*
D26*
X131925000Y19445000D03*
X134465000Y21985000D03*
X131925000Y24525000D03*
X119860000Y19445000D03*
X122400000Y21985000D03*
X119860000Y24525000D03*
X107795000Y19445000D03*
X110335000Y21985000D03*
X107795000Y24525000D03*
X95730000Y19445000D03*
X98270000Y21985000D03*
X95730000Y24525000D03*
D16*
X140815000Y61736000D03*
X148435000Y54116000D03*
X143355000Y61736000D03*
X145895000Y54116000D03*
X145895000Y61736000D03*
X143355000Y54116000D03*
X148435000Y61736000D03*
D17*
X140815000Y54116000D03*
D16*
X96365000Y73420000D03*
X103985000Y65800000D03*
X98905000Y73420000D03*
X101445000Y65800000D03*
X101445000Y73420000D03*
X98905000Y65800000D03*
X103985000Y73420000D03*
D17*
X96365000Y65800000D03*
D16*
X96365000Y49925000D03*
X103985000Y42305000D03*
X98905000Y49925000D03*
X101445000Y42305000D03*
X101445000Y49925000D03*
X98905000Y42305000D03*
X103985000Y49925000D03*
D17*
X96365000Y42305000D03*
D16*
X40485000Y73420000D03*
X48105000Y65800000D03*
X43025000Y73420000D03*
X45565000Y65800000D03*
X45565000Y73420000D03*
X43025000Y65800000D03*
X48105000Y73420000D03*
D17*
X40485000Y65800000D03*
D16*
X40485000Y49861500D03*
X48105000Y42241500D03*
X43025000Y49861500D03*
X45565000Y42241500D03*
X45565000Y49861500D03*
X43025000Y42241500D03*
X48105000Y49861500D03*
D17*
X40485000Y42241500D03*
D16*
X37705000Y88930000D03*
X45325000Y106710000D03*
X37705000Y91470000D03*
X45325000Y104170000D03*
X37705000Y94010000D03*
X45325000Y101630000D03*
X37705000Y96550000D03*
X45325000Y99090000D03*
X37705000Y99090000D03*
X45325000Y96550000D03*
X37705000Y101630000D03*
X45325000Y94010000D03*
X37705000Y104170000D03*
X45325000Y91470000D03*
X37705000Y106710000D03*
D17*
X45325000Y88930000D03*
D27*
X78682500Y13094000D03*
D28*
X83982500Y11594000D03*
D29*
X87732500Y5094000D03*
X80232500Y5094000D03*
D30*
X83982500Y5094000D03*
D27*
X65030000Y13094000D03*
D28*
X70330000Y11594000D03*
D29*
X74080000Y5094000D03*
X66580000Y5094000D03*
D30*
X70330000Y5094000D03*
D27*
X51377500Y13094000D03*
D28*
X56677500Y11594000D03*
D29*
X60427500Y5094000D03*
X52927500Y5094000D03*
D30*
X56677500Y5094000D03*
D27*
X37725000Y13094000D03*
D28*
X43025000Y11594000D03*
D29*
X46775000Y5094000D03*
X39275000Y5094000D03*
D30*
X43025000Y5094000D03*
D31*
X32914000Y5314000D03*
D32*
X31664000Y2824000D03*
X27164000Y2824000D03*
D31*
X25904000Y5314000D03*
D26*
X124305000Y79135000D03*
X121765000Y81675000D03*
X119225000Y79135000D03*
X108430000Y81675000D03*
X110970000Y79135000D03*
X113510000Y81675000D03*
X134782500Y79135000D03*
X132242500Y81675000D03*
X129702500Y79135000D03*
X124305000Y55640000D03*
X121765000Y58180000D03*
X119225000Y55640000D03*
X108430000Y58180000D03*
X110970000Y55640000D03*
X113510000Y58180000D03*
X134782500Y55640000D03*
X132242500Y58180000D03*
X129702500Y55640000D03*
X68425000Y79135000D03*
X65885000Y81675000D03*
X63345000Y79135000D03*
X52550000Y81675000D03*
X55090000Y79135000D03*
X57630000Y81675000D03*
X78902500Y79135000D03*
X76362500Y81675000D03*
X73822500Y79135000D03*
X68425000Y55640000D03*
X65885000Y58180000D03*
X63345000Y55640000D03*
X52550000Y58180000D03*
X55090000Y55640000D03*
X57630000Y58180000D03*
X78902500Y55640000D03*
X76362500Y58180000D03*
X73822500Y55640000D03*
D19*
X121765000Y75960000D03*
D20*
X121765000Y63260000D03*
D19*
X130655000Y63260000D03*
D20*
X130655000Y75960000D03*
D19*
X135100000Y75960000D03*
D20*
X135100000Y63260000D03*
D19*
X126210000Y63260000D03*
D20*
X126210000Y75960000D03*
D19*
X112875000Y63260000D03*
D20*
X112875000Y75960000D03*
D19*
X108430000Y75960000D03*
D20*
X108430000Y63260000D03*
D19*
X117320000Y75960000D03*
D20*
X117320000Y63260000D03*
D19*
X121765000Y52465000D03*
D20*
X121765000Y39765000D03*
D19*
X130655000Y39765000D03*
D20*
X130655000Y52465000D03*
D19*
X135100000Y52465000D03*
D20*
X135100000Y39765000D03*
D19*
X126210000Y39765000D03*
D20*
X126210000Y52465000D03*
D19*
X112875000Y39765000D03*
D20*
X112875000Y52465000D03*
D19*
X108430000Y52465000D03*
D20*
X108430000Y39765000D03*
D19*
X117320000Y52465000D03*
D20*
X117320000Y39765000D03*
D19*
X65885000Y75960000D03*
D20*
X65885000Y63260000D03*
D19*
X74775000Y63260000D03*
D20*
X74775000Y75960000D03*
D19*
X79220000Y75960000D03*
D20*
X79220000Y63260000D03*
D19*
X70330000Y63260000D03*
D20*
X70330000Y75960000D03*
D19*
X56995000Y63260000D03*
D20*
X56995000Y75960000D03*
D19*
X52550000Y75960000D03*
D20*
X52550000Y63260000D03*
D19*
X61440000Y75960000D03*
D20*
X61440000Y63260000D03*
D19*
X65885000Y52465000D03*
D20*
X65885000Y39765000D03*
D19*
X74775000Y39765000D03*
D20*
X74775000Y52465000D03*
D19*
X79220000Y52465000D03*
D20*
X79220000Y39765000D03*
D19*
X70330000Y39765000D03*
D20*
X70330000Y52465000D03*
D19*
X56995000Y39765000D03*
D20*
X56995000Y52465000D03*
D19*
X52550000Y52465000D03*
D20*
X52550000Y39765000D03*
D19*
X61440000Y52465000D03*
D20*
X61440000Y39765000D03*
D19*
X138910000Y16270000D03*
D20*
X138910000Y28970000D03*
D19*
X126845000Y16143000D03*
D20*
X126845000Y28843000D03*
D19*
X114780000Y16270000D03*
D20*
X114780000Y28970000D03*
D19*
X102715000Y16270000D03*
D20*
X102715000Y28970000D03*
D19*
X27150000Y21985000D03*
D20*
X27150000Y9285000D03*
D19*
X20165000Y9285000D03*
D20*
X20165000Y21985000D03*
D19*
X14450000Y9285000D03*
D20*
X14450000Y21985000D03*
D19*
X18655000Y100995000D03*
D20*
X18655000Y113695000D03*
D22*
X55485000Y120680000D03*
X55485000Y110520000D03*
X55485000Y100360000D03*
X75805000Y105440000D03*
X75805000Y100360000D03*
D33*
X38922000Y118965500D03*
D10*
X50172000Y118965500D03*
X27672000Y118965500D03*
D34*
X132600000Y28970000D03*
X135100000Y28970000D03*
X120535000Y28843000D03*
X123035000Y28843000D03*
X108470000Y28970000D03*
X110970000Y28970000D03*
X96405000Y28970000D03*
X98905000Y28970000D03*
X37705000Y83255000D03*
X37705000Y85755000D03*
D35*
X6965000Y13000000D03*
X146965000Y13000000D03*
X146965000Y113000000D03*
X6965000Y113000000D03*
M02*
