M48
; DRILL file {KiCad (5.1.4)-1} date 10/09/2019 00:14:22
; FORMAT={3:3/ absolute / metric / suppress leading zeros}
; #@! TF.CreationDate,2019-09-10T00:14:22+02:00
; #@! TF.GenerationSoftware,Kicad,Pcbnew,(5.1.4)-1
; #@! TF.FileFunction,Plated,1,2,PTH
FMAT,2
METRIC,TZ
T1C0.762
T2C0.800
T3C0.900
T4C0.990
T5C1.000
T6C1.200
T7C1.300
T8C1.700
T9C2.000
T10C3.700
%
G90
G05
T1
X5320Y74325
X5320Y71785
X5320Y69245
X5320Y66705
X5320Y64165
X5320Y61625
X5320Y59085
X5320Y56545
X5320Y54005
X5320Y51465
X5320Y48925
X5320Y46385
X5320Y43845
X5320Y41305
X5320Y38765
X33260Y74325
X33260Y71785
X33260Y69245
X33260Y66705
X33260Y64165
X33260Y61625
X33260Y59085
X33260Y56545
X33260Y54005
X33260Y51465
X33260Y48925
X33260Y46385
X33260Y43845
X33260Y41305
X33260Y38765
T2
X73822Y55640
X76363Y58180
X78903Y55640
X119225Y55640
X121765Y58180
X124305Y55640
X131925Y24525
X131925Y19445
X134465Y21985
X96405Y28970
X98905Y28970
X63345Y79135
X65885Y81675
X68425Y79135
X95730Y24525
X95730Y19445
X98270Y21985
X96365Y49925
X96365Y42305
X98905Y49925
X98905Y42305
X101445Y49925
X101445Y42305
X103985Y49925
X103985Y42305
X132600Y28970
X135100Y28970
X55485Y120680
X55485Y110520
X55485Y100360
X75805Y105440
X75805Y100360
X52550Y58180
X55090Y55640
X57630Y58180
X129702Y79135
X132243Y81675
X134783Y79135
X129702Y55640
X132243Y58180
X134783Y55640
X107795Y24525
X107795Y19445
X110335Y21985
X37705Y106710
X37705Y104170
X37705Y101630
X37705Y99090
X37705Y96550
X37705Y94010
X37705Y91470
X37705Y88930
X45325Y106710
X45325Y104170
X45325Y101630
X45325Y99090
X45325Y96550
X45325Y94010
X45325Y91470
X45325Y88930
X73822Y79135
X76363Y81675
X78903Y79135
X96365Y73420
X96365Y65800
X98905Y73420
X98905Y65800
X101445Y73420
X101445Y65800
X103985Y73420
X103985Y65800
X84300Y61673
X84300Y54053
X86840Y61673
X86840Y54053
X89380Y61673
X89380Y54053
X91920Y61673
X91920Y54053
X108470Y28970
X110970Y28970
X119225Y79135
X121765Y81675
X124305Y79135
X63345Y55640
X65885Y58180
X68425Y55640
X108430Y81675
X110970Y79135
X113510Y81675
X108430Y58180
X110970Y55640
X113510Y58180
X119860Y24525
X119860Y19445
X122400Y21985
X37705Y85755
X37705Y83255
X40485Y49862
X40485Y42242
X43025Y49862
X43025Y42242
X45565Y49862
X45565Y42242
X48105Y49862
X48105Y42242
X52550Y81675
X55090Y79135
X57630Y81675
X140815Y61736
X140815Y54116
X143355Y61736
X143355Y54116
X145895Y61736
X145895Y54116
X148435Y61736
X148435Y54116
X40485Y73420
X40485Y65800
X43025Y73420
X43025Y65800
X45565Y73420
X45565Y65800
X48105Y73420
X48105Y65800
X120535Y28843
X123035Y28843
T3
X16155Y121950
X18655Y121950
X18300Y4078
X20800Y4078
X12585Y4078
X15085Y4078
T4
X27164Y2824
X31664Y2824
T5
X8495Y95852
X11035Y95852
X13575Y95852
X16115Y95852
X18655Y95852
T6
X112875Y75960
X112875Y63260
X108430Y75960
X108430Y63260
X117320Y52465
X117320Y39765
X126845Y28843
X126845Y16143
X18655Y113695
X18655Y100995
X130655Y52465
X130655Y39765
X65885Y52465
X65885Y39765
X79220Y75960
X79220Y63260
X27150Y21985
X27150Y9285
X112875Y52465
X112875Y39765
X70330Y52465
X70330Y39765
X52550Y75960
X52550Y63260
X121765Y75960
X121765Y63260
X26910Y101630
X26910Y88930
X61440Y52465
X61440Y39765
X126210Y75960
X126210Y63260
X14450Y21985
X14450Y9285
X121765Y52465
X121765Y39765
X74775Y75960
X74775Y63260
X102715Y28970
X102715Y16270
X133830Y8650
X126210Y52465
X126210Y39765
X79220Y52465
X79220Y39765
X56995Y75960
X56995Y63260
X52550Y52465
X52550Y39765
X135100Y75960
X135100Y63260
X133830Y2935
X20165Y21985
X20165Y9285
X117320Y75960
X117320Y63260
X65885Y75960
X65885Y63260
X114780Y28970
X114780Y16270
X135100Y52465
X135100Y39765
X74775Y52465
X74775Y39765
X70330Y75960
X70330Y63260
X108430Y52465
X108430Y39765
X56995Y52465
X56995Y39765
X61440Y75960
X61440Y63260
X130655Y75960
X130655Y63260
X31355Y101630
X31355Y88930
X138910Y28970
X138910Y16270
T7
X27672Y118966
X50172Y118966
X25904Y5314
X32914Y5314
T8
X66580Y5094
X74080Y5094
X96750Y107965
X103750Y107965
X122200Y111805
X130800Y111805
X80233Y5094
X87733Y5094
X39275Y5094
X46775Y5094
X52928Y5094
X60428Y5094
T9
X43025Y11594
X56678Y11594
X70330Y11594
X83983Y11594
T10
X146965Y13000
X146965Y113000
X6965Y13000
X6965Y113000
T2
G00X116800Y11048
M15
G01X115300Y11048
M16
G05
G00X116750Y1348
M15
G01X115350Y1348
M16
G05
G00X119550Y8848
M15
G01X119550Y10248
M16
G05
G00X97750Y11048
M15
G01X96250Y11048
M16
G05
G00X97700Y1348
M15
G01X96300Y1348
M16
G05
G00X100500Y8848
M15
G01X100500Y10248
M16
G05
G00X126325Y11048
M15
G01X124825Y11048
M16
G05
G00X126275Y1348
M15
G01X124875Y1348
M16
G05
G00X129075Y8848
M15
G01X129075Y10248
M16
G05
G00X107275Y11048
M15
G01X105775Y11048
M16
G05
G00X107225Y1348
M15
G01X105825Y1348
M16
G05
G00X110025Y8848
M15
G01X110025Y10248
M16
G05
T7
G00X78682Y13944
M15
G01X78682Y12244
M16
G05
G00X84833Y5094
M15
G01X83133Y5094
M16
G05
G00X37725Y13944
M15
G01X37725Y12244
M16
G05
G00X43875Y5094
M15
G01X42175Y5094
M16
G05
G00X51378Y13944
M15
G01X51378Y12244
M16
G05
G00X57528Y5094
M15
G01X55828Y5094
M16
G05
G00X65030Y13944
M15
G01X65030Y12244
M16
G05
G00X71180Y5094
M15
G01X69480Y5094
M16
G05
T0
M30
