M48
; DRILL file {KiCad (5.1.4)-1} date 09/09/2019 23:59:18
; FORMAT={3:3/ absolute / metric / suppress leading zeros}
; #@! TF.CreationDate,2019-09-09T23:59:18+02:00
; #@! TF.GenerationSoftware,Kicad,Pcbnew,(5.1.4)-1
; #@! TF.FileFunction,Plated,1,2,PTH
FMAT,2
METRIC,TZ
T1C0.762
T2C0.800
T3C0.900
T4C0.990
T5C1.000
T6C1.200
T7C1.300
T8C1.700
T9C2.000
T10C3.700
%
G90
G05
T1
X20320Y-66675
X20320Y-69215
X20320Y-71755
X20320Y-74295
X20320Y-76835
X20320Y-79375
X20320Y-81915
X20320Y-84455
X20320Y-86995
X20320Y-89535
X20320Y-92075
X20320Y-94615
X20320Y-97155
X20320Y-99695
X20320Y-102235
X48260Y-66675
X48260Y-69215
X48260Y-71755
X48260Y-74295
X48260Y-76835
X48260Y-79375
X48260Y-81915
X48260Y-84455
X48260Y-86995
X48260Y-89535
X48260Y-92075
X48260Y-94615
X48260Y-97155
X48260Y-99695
X48260Y-102235
T2
X146925Y-116475
X146925Y-121555
X149465Y-119015
X135535Y-112157
X138035Y-112157
X144702Y-61865
X147243Y-59325
X149783Y-61865
X110730Y-116475
X110730Y-121555
X113270Y-119015
X52705Y-55245
X52705Y-57745
X144702Y-85360
X147243Y-82820
X149783Y-85360
X88823Y-85360
X91363Y-82820
X93902Y-85360
X111365Y-91075
X111365Y-98695
X113905Y-91075
X113905Y-98695
X116445Y-91075
X116445Y-98695
X118985Y-91075
X118985Y-98695
X88823Y-61865
X91363Y-59325
X93902Y-61865
X70485Y-20320
X70485Y-30480
X70485Y-40640
X90805Y-35560
X90805Y-40640
X147600Y-112030
X150100Y-112030
X123430Y-59325
X125970Y-61865
X128510Y-59325
X122795Y-116475
X122795Y-121555
X125335Y-119015
X111405Y-112030
X113905Y-112030
X123430Y-82820
X125970Y-85360
X128510Y-82820
X67550Y-82820
X70090Y-85360
X72630Y-82820
X111365Y-67580
X111365Y-75200
X113905Y-67580
X113905Y-75200
X116445Y-67580
X116445Y-75200
X118985Y-67580
X118985Y-75200
X67550Y-59325
X70090Y-61865
X72630Y-59325
X52705Y-34290
X52705Y-36830
X52705Y-39370
X52705Y-41910
X52705Y-44450
X52705Y-46990
X52705Y-49530
X52705Y-52070
X60325Y-34290
X60325Y-36830
X60325Y-39370
X60325Y-41910
X60325Y-44450
X60325Y-46990
X60325Y-49530
X60325Y-52070
X134860Y-116475
X134860Y-121555
X137400Y-119015
X134225Y-61865
X136765Y-59325
X139305Y-61865
X123470Y-112030
X125970Y-112030
X134225Y-85360
X136765Y-82820
X139305Y-85360
X78345Y-85360
X80885Y-82820
X83425Y-85360
X155815Y-79264
X155815Y-86884
X158355Y-79264
X158355Y-86884
X160895Y-79264
X160895Y-86884
X163435Y-79264
X163435Y-86884
X78345Y-61865
X80885Y-59325
X83425Y-61865
X99300Y-79328
X99300Y-86948
X101840Y-79328
X101840Y-86948
X104380Y-79328
X104380Y-86948
X106920Y-79328
X106920Y-86948
X55485Y-67580
X55485Y-75200
X58025Y-67580
X58025Y-75200
X60565Y-67580
X60565Y-75200
X63105Y-67580
X63105Y-75200
X55485Y-91139
X55485Y-98759
X58025Y-91139
X58025Y-98759
X60565Y-91139
X60565Y-98759
X63105Y-91139
X63105Y-98759
T3
X31155Y-19050
X33655Y-19050
X33300Y-136922
X35800Y-136922
X27585Y-136922
X30085Y-136922
T4
X42164Y-138176
X46664Y-138176
T5
X23495Y-45149
X26035Y-45149
X28575Y-45149
X31115Y-45149
X33655Y-45149
T6
X150100Y-65040
X150100Y-77740
X80885Y-65040
X80885Y-77740
X41910Y-39370
X41910Y-52070
X94220Y-88535
X94220Y-101235
X136765Y-88535
X136765Y-101235
X85330Y-65040
X85330Y-77740
X141845Y-112157
X141845Y-124857
X67550Y-88535
X67550Y-101235
X141210Y-88535
X141210Y-101235
X76440Y-65040
X76440Y-77740
X42150Y-119015
X42150Y-131715
X148830Y-132350
X145655Y-65040
X145655Y-77740
X33655Y-27305
X33655Y-40005
X127875Y-65040
X127875Y-77740
X132320Y-88535
X132320Y-101235
X89775Y-88535
X89775Y-101235
X132320Y-65040
X132320Y-77740
X94220Y-65040
X94220Y-77740
X148830Y-138065
X71995Y-88535
X71995Y-101235
X150100Y-88535
X150100Y-101235
X67550Y-65040
X67550Y-77740
X117715Y-112030
X117715Y-124730
X153910Y-112030
X153910Y-124730
X136765Y-65040
X136765Y-77740
X123430Y-88535
X123430Y-101235
X29450Y-119015
X29450Y-131715
X141210Y-65040
X141210Y-77740
X80885Y-88535
X80885Y-101235
X123430Y-65040
X123430Y-77740
X89775Y-65040
X89775Y-77740
X46355Y-39370
X46355Y-52070
X85330Y-88535
X85330Y-101235
X145655Y-88535
X145655Y-101235
X71995Y-65040
X71995Y-77740
X129780Y-112030
X129780Y-124730
X76440Y-88535
X76440Y-101235
X127875Y-88535
X127875Y-101235
X35165Y-119015
X35165Y-131715
T7
X42672Y-22035
X65172Y-22035
X40904Y-135686
X47914Y-135686
T8
X81580Y-135906
X89080Y-135906
X95233Y-135906
X102733Y-135906
X54275Y-135906
X61775Y-135906
X111750Y-33035
X118750Y-33035
X137200Y-29195
X145800Y-29195
X67928Y-135906
X75428Y-135906
T9
X58025Y-129406
X71678Y-129406
X85330Y-129406
X98983Y-129406
T10
X161965Y-28000
X161965Y-128000
X21965Y-128000
X21965Y-28000
T2
G00X141325Y-129952
M15
G01X139825Y-129952
M16
G05
G00X141275Y-139653
M15
G01X139875Y-139653
M16
G05
G00X144075Y-132153
M15
G01X144075Y-130753
M16
G05
G00X122275Y-129952
M15
G01X120775Y-129952
M16
G05
G00X122225Y-139653
M15
G01X120825Y-139653
M16
G05
G00X125025Y-132153
M15
G01X125025Y-130753
M16
G05
G00X131800Y-129952
M15
G01X130300Y-129952
M16
G05
G00X131750Y-139653
M15
G01X130350Y-139653
M16
G05
G00X134550Y-132153
M15
G01X134550Y-130753
M16
G05
G00X112750Y-129952
M15
G01X111250Y-129952
M16
G05
G00X112700Y-139653
M15
G01X111300Y-139653
M16
G05
G00X115500Y-132153
M15
G01X115500Y-130753
M16
G05
T7
G00X93683Y-127056
M15
G01X93683Y-128756
M16
G05
G00X99833Y-135906
M15
G01X98133Y-135906
M16
G05
G00X52725Y-127056
M15
G01X52725Y-128756
M16
G05
G00X58875Y-135906
M15
G01X57175Y-135906
M16
G05
G00X66378Y-127056
M15
G01X66378Y-128756
M16
G05
G00X72528Y-135906
M15
G01X70828Y-135906
M16
G05
G00X80030Y-127056
M15
G01X80030Y-128756
M16
G05
G00X86180Y-135906
M15
G01X84480Y-135906
M16
G05
T0
M30
