G04 #@! TF.GenerationSoftware,KiCad,Pcbnew,(5.1.4)-1*
G04 #@! TF.CreationDate,2019-09-10T00:13:05+02:00*
G04 #@! TF.ProjectId,BBSensor,42425365-6e73-46f7-922e-6b696361645f,1.0*
G04 #@! TF.SameCoordinates,PXe4e1c0PY8677d40*
G04 #@! TF.FileFunction,Legend,Top*
G04 #@! TF.FilePolarity,Positive*
%FSLAX46Y46*%
G04 Gerber Fmt 4.6, Leading zero omitted, Abs format (unit mm)*
G04 Created by KiCad (PCBNEW (5.1.4)-1) date 2019-09-10 00:13:05*
%MOMM*%
%LPD*%
G04 APERTURE LIST*
%ADD10C,0.150000*%
%ADD11C,0.120000*%
%ADD12C,0.250000*%
%ADD13C,3.102000*%
%ADD14C,3.302000*%
%ADD15C,5.102000*%
%ADD16C,7.102000*%
%ADD17O,2.134000X2.134000*%
%ADD18R,2.134000X2.134000*%
%ADD19O,1.702000X1.702000*%
%ADD20R,1.702000X1.702000*%
%ADD21C,1.602000*%
%ADD22C,1.626000*%
%ADD23O,2.502000X2.502000*%
%ADD24C,2.502000*%
%ADD25C,2.602000*%
%ADD26R,1.602000X1.602000*%
%ADD27O,1.602000X3.602000*%
%ADD28O,3.602000X1.602000*%
%ADD29C,1.542000*%
%ADD30O,2.402000X4.102000*%
%ADD31C,2.102000*%
%ADD32C,1.802000*%
%ADD33O,4.102000X2.402000*%
%ADD34C,2.202000*%
%ADD35C,1.852000*%
%ADD36C,2.802000*%
%ADD37C,1.702000*%
%ADD38C,7.502000*%
G04 APERTURE END LIST*
D10*
X137229404Y3435000D02*
X137134166Y3482620D01*
X136991309Y3482620D01*
X136848452Y3435000D01*
X136753214Y3339762D01*
X136705595Y3244524D01*
X136657976Y3054048D01*
X136657976Y2911191D01*
X136705595Y2720715D01*
X136753214Y2625477D01*
X136848452Y2530239D01*
X136991309Y2482620D01*
X137086547Y2482620D01*
X137229404Y2530239D01*
X137277023Y2577858D01*
X137277023Y2911191D01*
X137086547Y2911191D01*
X137705595Y2482620D02*
X137705595Y3482620D01*
X138277023Y2482620D01*
X138277023Y3482620D01*
X138753214Y2482620D02*
X138753214Y3482620D01*
X138991309Y3482620D01*
X139134166Y3435000D01*
X139229404Y3339762D01*
X139277023Y3244524D01*
X139324642Y3054048D01*
X139324642Y2911191D01*
X139277023Y2720715D01*
X139229404Y2625477D01*
X139134166Y2530239D01*
X138991309Y2482620D01*
X138753214Y2482620D01*
X136705595Y8578572D02*
X137467500Y8578572D01*
X137086547Y8197620D02*
X137086547Y8959524D01*
X138419880Y9197620D02*
X137943690Y9197620D01*
X137896071Y8721429D01*
X137943690Y8769048D01*
X138038928Y8816667D01*
X138277023Y8816667D01*
X138372261Y8769048D01*
X138419880Y8721429D01*
X138467500Y8626191D01*
X138467500Y8388096D01*
X138419880Y8292858D01*
X138372261Y8245239D01*
X138277023Y8197620D01*
X138038928Y8197620D01*
X137943690Y8245239D01*
X137896071Y8292858D01*
X138753214Y9197620D02*
X139086547Y8197620D01*
X139419880Y9197620D01*
X137750000Y115965000D02*
X137750000Y104965000D01*
X84450000Y115965000D02*
X84450000Y104965000D01*
X80100000Y119965000D02*
X80100000Y115965000D01*
X80100000Y115965000D02*
X84450000Y115965000D01*
X80100000Y119965000D02*
X84450000Y119965000D01*
X142100000Y119965000D02*
X137750000Y119965000D01*
X142100000Y115965000D02*
X137750000Y115965000D01*
X142100000Y119965000D02*
X142100000Y115965000D01*
X137750000Y125965000D02*
X137750000Y119965000D01*
X84450000Y125965000D02*
X84450000Y119965000D01*
X84450000Y104965000D02*
X137750000Y104965000D01*
X84450000Y125965000D02*
X137750000Y125965000D01*
X18620000Y93451500D02*
X8620000Y93451500D01*
X7185000Y98451500D02*
X7185000Y92651500D01*
X17385000Y97121500D02*
X7185000Y97121500D01*
X19935000Y98451500D02*
X19935000Y92651500D01*
X19935000Y97401500D02*
X18455000Y97401500D01*
X17385000Y94581500D02*
X17385000Y97121500D01*
X19935000Y94301500D02*
X18455000Y94301500D01*
X17385000Y94581500D02*
X7185000Y94581500D01*
X19935000Y92651500D02*
X7185000Y92651500D01*
X19935000Y98451500D02*
X7185000Y98451500D01*
X18620000Y93451500D02*
X18620000Y92651500D01*
X8620000Y93451500D02*
X8620000Y92651500D01*
D11*
X82910000Y63002500D02*
X82910000Y52722500D01*
X93310000Y63002500D02*
X82910000Y63002500D01*
X93310000Y52722500D02*
X93310000Y63002500D01*
X82910000Y52722500D02*
X93310000Y52722500D01*
X82970000Y60512500D02*
X82970000Y58862500D01*
X93250000Y60512500D02*
X82970000Y60512500D01*
X93250000Y55212500D02*
X93250000Y60512500D01*
X82970000Y55212500D02*
X93250000Y55212500D01*
X82970000Y56862500D02*
X82970000Y55212500D01*
X82970000Y58862500D02*
G75*
G02X82970000Y56862500I0J-1000000D01*
G01*
X141765000Y69610000D02*
G75*
G03X141765000Y69610000I-950000J0D01*
G01*
X148115000Y65165000D02*
G75*
G03X148115000Y65165000I-950000J0D01*
G01*
X141765000Y65165000D02*
G75*
G03X141765000Y65165000I-950000J0D01*
G01*
X141765000Y46115000D02*
G75*
G03X141765000Y46115000I-950000J0D01*
G01*
X148115000Y50560000D02*
G75*
G03X148115000Y50560000I-950000J0D01*
G01*
X141765000Y50560000D02*
G75*
G03X141765000Y50560000I-950000J0D01*
G01*
X85250000Y69610000D02*
G75*
G03X85250000Y69610000I-950000J0D01*
G01*
X91600000Y65165000D02*
G75*
G03X91600000Y65165000I-950000J0D01*
G01*
X85250000Y65165000D02*
G75*
G03X85250000Y65165000I-950000J0D01*
G01*
X85250000Y46115000D02*
G75*
G03X85250000Y46115000I-950000J0D01*
G01*
X91600000Y50560000D02*
G75*
G03X91600000Y50560000I-950000J0D01*
G01*
X85250000Y50560000D02*
G75*
G03X85250000Y50560000I-950000J0D01*
G01*
X139860000Y32780000D02*
G75*
G03X139860000Y32780000I-950000J0D01*
G01*
X127795000Y32780000D02*
G75*
G03X127795000Y32780000I-950000J0D01*
G01*
X115730000Y32780000D02*
G75*
G03X115730000Y32780000I-950000J0D01*
G01*
X103665000Y32780000D02*
G75*
G03X103665000Y32780000I-950000J0D01*
G01*
D12*
X3790000Y85565000D02*
X3790000Y27545000D01*
X34790000Y27545000D02*
X34790000Y85565000D01*
X34790000Y85565000D02*
X3790000Y85565000D01*
X34790000Y27545000D02*
X3790000Y27545000D01*
D11*
X28830000Y100350000D02*
X28350000Y100350000D01*
X28830000Y90210000D02*
X28830000Y100350000D01*
X28350000Y90210000D02*
X28830000Y90210000D01*
X24990000Y100350000D02*
X25470000Y100350000D01*
X24990000Y90210000D02*
X24990000Y100350000D01*
X25470000Y90210000D02*
X24990000Y90210000D01*
X33275000Y100350000D02*
X32795000Y100350000D01*
X33275000Y90210000D02*
X33275000Y100350000D01*
X32795000Y90210000D02*
X33275000Y90210000D01*
X29435000Y100350000D02*
X29915000Y100350000D01*
X29435000Y90210000D02*
X29435000Y100350000D01*
X29915000Y90210000D02*
X29435000Y90210000D01*
X135280000Y2935000D02*
G75*
G03X135280000Y2935000I-1450000J0D01*
G01*
X135280000Y8650000D02*
G75*
G03X135280000Y8650000I-1450000J0D01*
G01*
D12*
X15455000Y120750000D02*
X15455000Y121050000D01*
X19355000Y120750000D02*
X19355000Y121350000D01*
X15455000Y122850000D02*
X15455000Y125850000D01*
X19355000Y125850000D02*
X19355000Y122550000D01*
X15455000Y120750000D02*
X19355000Y120750000D01*
X15455000Y125850000D02*
X19355000Y125850000D01*
X98900000Y10747500D02*
X99600000Y10747500D01*
X93250000Y10747500D02*
X95100000Y10747500D01*
X93250000Y147500D02*
X93250000Y10747500D01*
X100750000Y147500D02*
X100750000Y7647500D01*
X100750000Y147500D02*
X93250000Y147500D01*
X15785000Y5278000D02*
X15785000Y4978000D01*
X11885000Y5278000D02*
X11885000Y4678000D01*
X15785000Y3178000D02*
X15785000Y178000D01*
X11885000Y178000D02*
X11885000Y3478000D01*
X15785000Y5278000D02*
X11885000Y5278000D01*
X15785000Y178000D02*
X11885000Y178000D01*
X21500000Y5278000D02*
X21500000Y4978000D01*
X17600000Y5278000D02*
X17600000Y4678000D01*
X21500000Y3178000D02*
X21500000Y178000D01*
X17600000Y178000D02*
X17600000Y3478000D01*
X21500000Y5278000D02*
X17600000Y5278000D01*
X21500000Y178000D02*
X17600000Y178000D01*
X127475000Y10747500D02*
X128175000Y10747500D01*
X121825000Y10747500D02*
X123675000Y10747500D01*
X121825000Y147500D02*
X121825000Y10747500D01*
X129325000Y147500D02*
X129325000Y7647500D01*
X129325000Y147500D02*
X121825000Y147500D01*
X117950000Y10747500D02*
X118650000Y10747500D01*
X112300000Y10747500D02*
X114150000Y10747500D01*
X112300000Y147500D02*
X112300000Y10747500D01*
X119800000Y147500D02*
X119800000Y7647500D01*
X119800000Y147500D02*
X112300000Y147500D01*
X108425000Y10747500D02*
X109125000Y10747500D01*
X102775000Y10747500D02*
X104625000Y10747500D01*
X102775000Y147500D02*
X102775000Y10747500D01*
X110275000Y147500D02*
X110275000Y7647500D01*
X110275000Y147500D02*
X102775000Y147500D01*
D11*
X130665000Y26870000D02*
X135735000Y26870000D01*
X130665000Y17100000D02*
X135735000Y17100000D01*
X135735000Y17100000D02*
X135735000Y26870000D01*
X130665000Y17100000D02*
X130665000Y26870000D01*
X118600000Y26870000D02*
X123670000Y26870000D01*
X118600000Y17100000D02*
X123670000Y17100000D01*
X123670000Y17100000D02*
X123670000Y26870000D01*
X118600000Y17100000D02*
X118600000Y26870000D01*
X106535000Y26870000D02*
X111605000Y26870000D01*
X106535000Y17100000D02*
X111605000Y17100000D01*
X111605000Y17100000D02*
X111605000Y26870000D01*
X106535000Y17100000D02*
X106535000Y26870000D01*
X94470000Y26870000D02*
X99540000Y26870000D01*
X94470000Y17100000D02*
X99540000Y17100000D01*
X99540000Y17100000D02*
X99540000Y26870000D01*
X94470000Y17100000D02*
X94470000Y26870000D01*
X139425000Y63066000D02*
X139425000Y52786000D01*
X149825000Y63066000D02*
X139425000Y63066000D01*
X149825000Y52786000D02*
X149825000Y63066000D01*
X139425000Y52786000D02*
X149825000Y52786000D01*
X139485000Y60576000D02*
X139485000Y58926000D01*
X149765000Y60576000D02*
X139485000Y60576000D01*
X149765000Y55276000D02*
X149765000Y60576000D01*
X139485000Y55276000D02*
X149765000Y55276000D01*
X139485000Y56926000D02*
X139485000Y55276000D01*
X139485000Y58926000D02*
G75*
G02X139485000Y56926000I0J-1000000D01*
G01*
X94975000Y74750000D02*
X94975000Y64470000D01*
X105375000Y74750000D02*
X94975000Y74750000D01*
X105375000Y64470000D02*
X105375000Y74750000D01*
X94975000Y64470000D02*
X105375000Y64470000D01*
X95035000Y72260000D02*
X95035000Y70610000D01*
X105315000Y72260000D02*
X95035000Y72260000D01*
X105315000Y66960000D02*
X105315000Y72260000D01*
X95035000Y66960000D02*
X105315000Y66960000D01*
X95035000Y68610000D02*
X95035000Y66960000D01*
X95035000Y70610000D02*
G75*
G02X95035000Y68610000I0J-1000000D01*
G01*
X94975000Y51255000D02*
X94975000Y40975000D01*
X105375000Y51255000D02*
X94975000Y51255000D01*
X105375000Y40975000D02*
X105375000Y51255000D01*
X94975000Y40975000D02*
X105375000Y40975000D01*
X95035000Y48765000D02*
X95035000Y47115000D01*
X105315000Y48765000D02*
X95035000Y48765000D01*
X105315000Y43465000D02*
X105315000Y48765000D01*
X95035000Y43465000D02*
X105315000Y43465000D01*
X95035000Y45115000D02*
X95035000Y43465000D01*
X95035000Y47115000D02*
G75*
G02X95035000Y45115000I0J-1000000D01*
G01*
X39095000Y74750000D02*
X39095000Y64470000D01*
X49495000Y74750000D02*
X39095000Y74750000D01*
X49495000Y64470000D02*
X49495000Y74750000D01*
X39095000Y64470000D02*
X49495000Y64470000D01*
X39155000Y72260000D02*
X39155000Y70610000D01*
X49435000Y72260000D02*
X39155000Y72260000D01*
X49435000Y66960000D02*
X49435000Y72260000D01*
X39155000Y66960000D02*
X49435000Y66960000D01*
X39155000Y68610000D02*
X39155000Y66960000D01*
X39155000Y70610000D02*
G75*
G02X39155000Y68610000I0J-1000000D01*
G01*
X39095000Y51191500D02*
X39095000Y40911500D01*
X49495000Y51191500D02*
X39095000Y51191500D01*
X49495000Y40911500D02*
X49495000Y51191500D01*
X39095000Y40911500D02*
X49495000Y40911500D01*
X39155000Y48701500D02*
X39155000Y47051500D01*
X49435000Y48701500D02*
X39155000Y48701500D01*
X49435000Y43401500D02*
X49435000Y48701500D01*
X39155000Y43401500D02*
X49435000Y43401500D01*
X39155000Y45051500D02*
X39155000Y43401500D01*
X39155000Y47051500D02*
G75*
G02X39155000Y45051500I0J-1000000D01*
G01*
X36375000Y87540000D02*
X46655000Y87540000D01*
X36375000Y108100000D02*
X36375000Y87540000D01*
X46655000Y108100000D02*
X36375000Y108100000D01*
X46655000Y87540000D02*
X46655000Y108100000D01*
X38865000Y87600000D02*
X40515000Y87600000D01*
X38865000Y108040000D02*
X38865000Y87600000D01*
X44165000Y108040000D02*
X38865000Y108040000D01*
X44165000Y87600000D02*
X44165000Y108040000D01*
X42515000Y87600000D02*
X44165000Y87600000D01*
X40515000Y87600000D02*
G75*
G02X42515000Y87600000I1000000J0D01*
G01*
D12*
X88982500Y1094000D02*
X78982500Y1094000D01*
X88982500Y15094000D02*
X78982500Y15094000D01*
X78982500Y1094000D02*
X78982500Y11094000D01*
X88982500Y1094000D02*
X88982500Y15094000D01*
X75330000Y1094000D02*
X65330000Y1094000D01*
X75330000Y15094000D02*
X65330000Y15094000D01*
X65330000Y1094000D02*
X65330000Y11094000D01*
X75330000Y1094000D02*
X75330000Y15094000D01*
X61677500Y1094000D02*
X51677500Y1094000D01*
X61677500Y15094000D02*
X51677500Y15094000D01*
X51677500Y1094000D02*
X51677500Y11094000D01*
X61677500Y1094000D02*
X61677500Y15094000D01*
X48025000Y1094000D02*
X38025000Y1094000D01*
X48025000Y15094000D02*
X38025000Y15094000D01*
X38025000Y1094000D02*
X38025000Y11094000D01*
X48025000Y1094000D02*
X48025000Y15094000D01*
D11*
X31114000Y3794000D02*
X27714000Y3794000D01*
X32754000Y3794000D02*
X32214000Y3794000D01*
X25554000Y6624000D02*
X25554000Y7134000D01*
X26074000Y7134000D02*
X25554000Y7134000D01*
X26074000Y6624000D02*
X26074000Y7134000D01*
X26614000Y3794000D02*
X26074000Y3794000D01*
X33274000Y6624000D02*
X33274000Y7134000D01*
X32754000Y6624000D02*
X32754000Y7134000D01*
X26074000Y3794000D02*
X26074000Y4024000D01*
X33274000Y124000D02*
X33274000Y4024000D01*
X33274000Y7134000D02*
X32754000Y7134000D01*
X25554000Y124000D02*
X25554000Y4024000D01*
X33274000Y124000D02*
X25554000Y124000D01*
X32754000Y3794000D02*
X32754000Y4024000D01*
X116880000Y77875000D02*
X116880000Y82945000D01*
X126650000Y77875000D02*
X126650000Y82945000D01*
X126650000Y82945000D02*
X116880000Y82945000D01*
X126650000Y77875000D02*
X116880000Y77875000D01*
X115855000Y82935000D02*
X115855000Y77865000D01*
X106085000Y82935000D02*
X106085000Y77865000D01*
X106085000Y77865000D02*
X115855000Y77865000D01*
X106085000Y82935000D02*
X115855000Y82935000D01*
X127357500Y77875000D02*
X127357500Y82945000D01*
X137127500Y77875000D02*
X137127500Y82945000D01*
X137127500Y82945000D02*
X127357500Y82945000D01*
X137127500Y77875000D02*
X127357500Y77875000D01*
X116880000Y54380000D02*
X116880000Y59450000D01*
X126650000Y54380000D02*
X126650000Y59450000D01*
X126650000Y59450000D02*
X116880000Y59450000D01*
X126650000Y54380000D02*
X116880000Y54380000D01*
X115855000Y59440000D02*
X115855000Y54370000D01*
X106085000Y59440000D02*
X106085000Y54370000D01*
X106085000Y54370000D02*
X115855000Y54370000D01*
X106085000Y59440000D02*
X115855000Y59440000D01*
X127357500Y54380000D02*
X127357500Y59450000D01*
X137127500Y54380000D02*
X137127500Y59450000D01*
X137127500Y59450000D02*
X127357500Y59450000D01*
X137127500Y54380000D02*
X127357500Y54380000D01*
X61000000Y77875000D02*
X61000000Y82945000D01*
X70770000Y77875000D02*
X70770000Y82945000D01*
X70770000Y82945000D02*
X61000000Y82945000D01*
X70770000Y77875000D02*
X61000000Y77875000D01*
X59975000Y82935000D02*
X59975000Y77865000D01*
X50205000Y82935000D02*
X50205000Y77865000D01*
X50205000Y77865000D02*
X59975000Y77865000D01*
X50205000Y82935000D02*
X59975000Y82935000D01*
X71477500Y77875000D02*
X71477500Y82945000D01*
X81247500Y77875000D02*
X81247500Y82945000D01*
X81247500Y82945000D02*
X71477500Y82945000D01*
X81247500Y77875000D02*
X71477500Y77875000D01*
X61000000Y54380000D02*
X61000000Y59450000D01*
X70770000Y54380000D02*
X70770000Y59450000D01*
X70770000Y59450000D02*
X61000000Y59450000D01*
X70770000Y54380000D02*
X61000000Y54380000D01*
X59975000Y59440000D02*
X59975000Y54370000D01*
X50205000Y59440000D02*
X50205000Y54370000D01*
X50205000Y54370000D02*
X59975000Y54370000D01*
X50205000Y59440000D02*
X59975000Y59440000D01*
X71477500Y54380000D02*
X71477500Y59450000D01*
X81247500Y54380000D02*
X81247500Y59450000D01*
X81247500Y59450000D02*
X71477500Y59450000D01*
X81247500Y54380000D02*
X71477500Y54380000D01*
X123685000Y74680000D02*
X123205000Y74680000D01*
X123685000Y64540000D02*
X123685000Y74680000D01*
X123205000Y64540000D02*
X123685000Y64540000D01*
X119845000Y74680000D02*
X120325000Y74680000D01*
X119845000Y64540000D02*
X119845000Y74680000D01*
X120325000Y64540000D02*
X119845000Y64540000D01*
X128735000Y64540000D02*
X129215000Y64540000D01*
X128735000Y74680000D02*
X128735000Y64540000D01*
X129215000Y74680000D02*
X128735000Y74680000D01*
X132575000Y64540000D02*
X132095000Y64540000D01*
X132575000Y74680000D02*
X132575000Y64540000D01*
X132095000Y74680000D02*
X132575000Y74680000D01*
X137020000Y74680000D02*
X136540000Y74680000D01*
X137020000Y64540000D02*
X137020000Y74680000D01*
X136540000Y64540000D02*
X137020000Y64540000D01*
X133180000Y74680000D02*
X133660000Y74680000D01*
X133180000Y64540000D02*
X133180000Y74680000D01*
X133660000Y64540000D02*
X133180000Y64540000D01*
X124290000Y64540000D02*
X124770000Y64540000D01*
X124290000Y74680000D02*
X124290000Y64540000D01*
X124770000Y74680000D02*
X124290000Y74680000D01*
X128130000Y64540000D02*
X127650000Y64540000D01*
X128130000Y74680000D02*
X128130000Y64540000D01*
X127650000Y74680000D02*
X128130000Y74680000D01*
X110955000Y64540000D02*
X111435000Y64540000D01*
X110955000Y74680000D02*
X110955000Y64540000D01*
X111435000Y74680000D02*
X110955000Y74680000D01*
X114795000Y64540000D02*
X114315000Y64540000D01*
X114795000Y74680000D02*
X114795000Y64540000D01*
X114315000Y74680000D02*
X114795000Y74680000D01*
X110350000Y74680000D02*
X109870000Y74680000D01*
X110350000Y64540000D02*
X110350000Y74680000D01*
X109870000Y64540000D02*
X110350000Y64540000D01*
X106510000Y74680000D02*
X106990000Y74680000D01*
X106510000Y64540000D02*
X106510000Y74680000D01*
X106990000Y64540000D02*
X106510000Y64540000D01*
X119240000Y74680000D02*
X118760000Y74680000D01*
X119240000Y64540000D02*
X119240000Y74680000D01*
X118760000Y64540000D02*
X119240000Y64540000D01*
X115400000Y74680000D02*
X115880000Y74680000D01*
X115400000Y64540000D02*
X115400000Y74680000D01*
X115880000Y64540000D02*
X115400000Y64540000D01*
X123685000Y51185000D02*
X123205000Y51185000D01*
X123685000Y41045000D02*
X123685000Y51185000D01*
X123205000Y41045000D02*
X123685000Y41045000D01*
X119845000Y51185000D02*
X120325000Y51185000D01*
X119845000Y41045000D02*
X119845000Y51185000D01*
X120325000Y41045000D02*
X119845000Y41045000D01*
X128735000Y41045000D02*
X129215000Y41045000D01*
X128735000Y51185000D02*
X128735000Y41045000D01*
X129215000Y51185000D02*
X128735000Y51185000D01*
X132575000Y41045000D02*
X132095000Y41045000D01*
X132575000Y51185000D02*
X132575000Y41045000D01*
X132095000Y51185000D02*
X132575000Y51185000D01*
X137020000Y51185000D02*
X136540000Y51185000D01*
X137020000Y41045000D02*
X137020000Y51185000D01*
X136540000Y41045000D02*
X137020000Y41045000D01*
X133180000Y51185000D02*
X133660000Y51185000D01*
X133180000Y41045000D02*
X133180000Y51185000D01*
X133660000Y41045000D02*
X133180000Y41045000D01*
X124290000Y41045000D02*
X124770000Y41045000D01*
X124290000Y51185000D02*
X124290000Y41045000D01*
X124770000Y51185000D02*
X124290000Y51185000D01*
X128130000Y41045000D02*
X127650000Y41045000D01*
X128130000Y51185000D02*
X128130000Y41045000D01*
X127650000Y51185000D02*
X128130000Y51185000D01*
X110955000Y41045000D02*
X111435000Y41045000D01*
X110955000Y51185000D02*
X110955000Y41045000D01*
X111435000Y51185000D02*
X110955000Y51185000D01*
X114795000Y41045000D02*
X114315000Y41045000D01*
X114795000Y51185000D02*
X114795000Y41045000D01*
X114315000Y51185000D02*
X114795000Y51185000D01*
X110350000Y51185000D02*
X109870000Y51185000D01*
X110350000Y41045000D02*
X110350000Y51185000D01*
X109870000Y41045000D02*
X110350000Y41045000D01*
X106510000Y51185000D02*
X106990000Y51185000D01*
X106510000Y41045000D02*
X106510000Y51185000D01*
X106990000Y41045000D02*
X106510000Y41045000D01*
X119240000Y51185000D02*
X118760000Y51185000D01*
X119240000Y41045000D02*
X119240000Y51185000D01*
X118760000Y41045000D02*
X119240000Y41045000D01*
X115400000Y51185000D02*
X115880000Y51185000D01*
X115400000Y41045000D02*
X115400000Y51185000D01*
X115880000Y41045000D02*
X115400000Y41045000D01*
X67805000Y74680000D02*
X67325000Y74680000D01*
X67805000Y64540000D02*
X67805000Y74680000D01*
X67325000Y64540000D02*
X67805000Y64540000D01*
X63965000Y74680000D02*
X64445000Y74680000D01*
X63965000Y64540000D02*
X63965000Y74680000D01*
X64445000Y64540000D02*
X63965000Y64540000D01*
X72855000Y64540000D02*
X73335000Y64540000D01*
X72855000Y74680000D02*
X72855000Y64540000D01*
X73335000Y74680000D02*
X72855000Y74680000D01*
X76695000Y64540000D02*
X76215000Y64540000D01*
X76695000Y74680000D02*
X76695000Y64540000D01*
X76215000Y74680000D02*
X76695000Y74680000D01*
X81140000Y74680000D02*
X80660000Y74680000D01*
X81140000Y64540000D02*
X81140000Y74680000D01*
X80660000Y64540000D02*
X81140000Y64540000D01*
X77300000Y74680000D02*
X77780000Y74680000D01*
X77300000Y64540000D02*
X77300000Y74680000D01*
X77780000Y64540000D02*
X77300000Y64540000D01*
X68410000Y64540000D02*
X68890000Y64540000D01*
X68410000Y74680000D02*
X68410000Y64540000D01*
X68890000Y74680000D02*
X68410000Y74680000D01*
X72250000Y64540000D02*
X71770000Y64540000D01*
X72250000Y74680000D02*
X72250000Y64540000D01*
X71770000Y74680000D02*
X72250000Y74680000D01*
X55075000Y64540000D02*
X55555000Y64540000D01*
X55075000Y74680000D02*
X55075000Y64540000D01*
X55555000Y74680000D02*
X55075000Y74680000D01*
X58915000Y64540000D02*
X58435000Y64540000D01*
X58915000Y74680000D02*
X58915000Y64540000D01*
X58435000Y74680000D02*
X58915000Y74680000D01*
X54470000Y74680000D02*
X53990000Y74680000D01*
X54470000Y64540000D02*
X54470000Y74680000D01*
X53990000Y64540000D02*
X54470000Y64540000D01*
X50630000Y74680000D02*
X51110000Y74680000D01*
X50630000Y64540000D02*
X50630000Y74680000D01*
X51110000Y64540000D02*
X50630000Y64540000D01*
X63360000Y74680000D02*
X62880000Y74680000D01*
X63360000Y64540000D02*
X63360000Y74680000D01*
X62880000Y64540000D02*
X63360000Y64540000D01*
X59520000Y74680000D02*
X60000000Y74680000D01*
X59520000Y64540000D02*
X59520000Y74680000D01*
X60000000Y64540000D02*
X59520000Y64540000D01*
X67805000Y51185000D02*
X67325000Y51185000D01*
X67805000Y41045000D02*
X67805000Y51185000D01*
X67325000Y41045000D02*
X67805000Y41045000D01*
X63965000Y51185000D02*
X64445000Y51185000D01*
X63965000Y41045000D02*
X63965000Y51185000D01*
X64445000Y41045000D02*
X63965000Y41045000D01*
X72855000Y41045000D02*
X73335000Y41045000D01*
X72855000Y51185000D02*
X72855000Y41045000D01*
X73335000Y51185000D02*
X72855000Y51185000D01*
X76695000Y41045000D02*
X76215000Y41045000D01*
X76695000Y51185000D02*
X76695000Y41045000D01*
X76215000Y51185000D02*
X76695000Y51185000D01*
X81140000Y51185000D02*
X80660000Y51185000D01*
X81140000Y41045000D02*
X81140000Y51185000D01*
X80660000Y41045000D02*
X81140000Y41045000D01*
X77300000Y51185000D02*
X77780000Y51185000D01*
X77300000Y41045000D02*
X77300000Y51185000D01*
X77780000Y41045000D02*
X77300000Y41045000D01*
X68410000Y41045000D02*
X68890000Y41045000D01*
X68410000Y51185000D02*
X68410000Y41045000D01*
X68890000Y51185000D02*
X68410000Y51185000D01*
X72250000Y41045000D02*
X71770000Y41045000D01*
X72250000Y51185000D02*
X72250000Y41045000D01*
X71770000Y51185000D02*
X72250000Y51185000D01*
X55075000Y41045000D02*
X55555000Y41045000D01*
X55075000Y51185000D02*
X55075000Y41045000D01*
X55555000Y51185000D02*
X55075000Y51185000D01*
X58915000Y41045000D02*
X58435000Y41045000D01*
X58915000Y51185000D02*
X58915000Y41045000D01*
X58435000Y51185000D02*
X58915000Y51185000D01*
X54470000Y51185000D02*
X53990000Y51185000D01*
X54470000Y41045000D02*
X54470000Y51185000D01*
X53990000Y41045000D02*
X54470000Y41045000D01*
X50630000Y51185000D02*
X51110000Y51185000D01*
X50630000Y41045000D02*
X50630000Y51185000D01*
X51110000Y41045000D02*
X50630000Y41045000D01*
X63360000Y51185000D02*
X62880000Y51185000D01*
X63360000Y41045000D02*
X63360000Y51185000D01*
X62880000Y41045000D02*
X63360000Y41045000D01*
X59520000Y51185000D02*
X60000000Y51185000D01*
X59520000Y41045000D02*
X59520000Y51185000D01*
X60000000Y41045000D02*
X59520000Y41045000D01*
X136990000Y17550000D02*
X137470000Y17550000D01*
X136990000Y27690000D02*
X136990000Y17550000D01*
X137470000Y27690000D02*
X136990000Y27690000D01*
X140830000Y17550000D02*
X140350000Y17550000D01*
X140830000Y27690000D02*
X140830000Y17550000D01*
X140350000Y27690000D02*
X140830000Y27690000D01*
X124925000Y17423000D02*
X125405000Y17423000D01*
X124925000Y27563000D02*
X124925000Y17423000D01*
X125405000Y27563000D02*
X124925000Y27563000D01*
X128765000Y17423000D02*
X128285000Y17423000D01*
X128765000Y27563000D02*
X128765000Y17423000D01*
X128285000Y27563000D02*
X128765000Y27563000D01*
X112860000Y17550000D02*
X113340000Y17550000D01*
X112860000Y27690000D02*
X112860000Y17550000D01*
X113340000Y27690000D02*
X112860000Y27690000D01*
X116700000Y17550000D02*
X116220000Y17550000D01*
X116700000Y27690000D02*
X116700000Y17550000D01*
X116220000Y27690000D02*
X116700000Y27690000D01*
X100795000Y17550000D02*
X101275000Y17550000D01*
X100795000Y27690000D02*
X100795000Y17550000D01*
X101275000Y27690000D02*
X100795000Y27690000D01*
X104635000Y17550000D02*
X104155000Y17550000D01*
X104635000Y27690000D02*
X104635000Y17550000D01*
X104155000Y27690000D02*
X104635000Y27690000D01*
X29070000Y20705000D02*
X28590000Y20705000D01*
X29070000Y10565000D02*
X29070000Y20705000D01*
X28590000Y10565000D02*
X29070000Y10565000D01*
X25230000Y20705000D02*
X25710000Y20705000D01*
X25230000Y10565000D02*
X25230000Y20705000D01*
X25710000Y10565000D02*
X25230000Y10565000D01*
X18245000Y10565000D02*
X18725000Y10565000D01*
X18245000Y20705000D02*
X18245000Y10565000D01*
X18725000Y20705000D02*
X18245000Y20705000D01*
X22085000Y10565000D02*
X21605000Y10565000D01*
X22085000Y20705000D02*
X22085000Y10565000D01*
X21605000Y20705000D02*
X22085000Y20705000D01*
X12530000Y10565000D02*
X13010000Y10565000D01*
X12530000Y20705000D02*
X12530000Y10565000D01*
X13010000Y20705000D02*
X12530000Y20705000D01*
X16370000Y10565000D02*
X15890000Y10565000D01*
X16370000Y20705000D02*
X16370000Y10565000D01*
X15890000Y20705000D02*
X16370000Y20705000D01*
X16735000Y102275000D02*
X17215000Y102275000D01*
X16735000Y112415000D02*
X16735000Y102275000D01*
X17215000Y112415000D02*
X16735000Y112415000D01*
X20575000Y102275000D02*
X20095000Y102275000D01*
X20575000Y112415000D02*
X20575000Y102275000D01*
X20095000Y112415000D02*
X20575000Y112415000D01*
D12*
X78445000Y97720000D02*
X52845000Y97720000D01*
X78445000Y123320000D02*
X52845000Y123320000D01*
X52845000Y123320000D02*
X52845000Y97720000D01*
X78445000Y123320000D02*
X78445000Y97720000D01*
D10*
X27672000Y114165500D02*
X27672000Y116965500D01*
X27672000Y114165500D02*
X50172000Y114165500D01*
X27672000Y123765500D02*
X50172000Y123765500D01*
X27672000Y120965500D02*
X27672000Y123765500D01*
X50172000Y120965500D02*
X50172000Y123765500D01*
X50172000Y114165500D02*
X50172000Y116965500D01*
D11*
X132030000Y29895000D02*
X132030000Y30140000D01*
X132030000Y27800000D02*
X132030000Y28045000D01*
X135670000Y29895000D02*
X135670000Y30140000D01*
X135670000Y27800000D02*
X135670000Y28045000D01*
X135670000Y30140000D02*
X132030000Y30140000D01*
X135670000Y27800000D02*
X132030000Y27800000D01*
X119965000Y29768000D02*
X119965000Y30013000D01*
X119965000Y27673000D02*
X119965000Y27918000D01*
X123605000Y29768000D02*
X123605000Y30013000D01*
X123605000Y27673000D02*
X123605000Y27918000D01*
X123605000Y30013000D02*
X119965000Y30013000D01*
X123605000Y27673000D02*
X119965000Y27673000D01*
X107900000Y29895000D02*
X107900000Y30140000D01*
X107900000Y27800000D02*
X107900000Y28045000D01*
X111540000Y29895000D02*
X111540000Y30140000D01*
X111540000Y27800000D02*
X111540000Y28045000D01*
X111540000Y30140000D02*
X107900000Y30140000D01*
X111540000Y27800000D02*
X107900000Y27800000D01*
X95835000Y29895000D02*
X95835000Y30140000D01*
X95835000Y27800000D02*
X95835000Y28045000D01*
X99475000Y29895000D02*
X99475000Y30140000D01*
X99475000Y27800000D02*
X99475000Y28045000D01*
X99475000Y30140000D02*
X95835000Y30140000D01*
X99475000Y27800000D02*
X95835000Y27800000D01*
X36780000Y82685000D02*
X36535000Y82685000D01*
X38875000Y82685000D02*
X38630000Y82685000D01*
X36780000Y86325000D02*
X36535000Y86325000D01*
X38875000Y86325000D02*
X38630000Y86325000D01*
X36535000Y86325000D02*
X36535000Y82685000D01*
X38875000Y86325000D02*
X38875000Y82685000D01*
D10*
X142781666Y107892620D02*
X142781666Y107178334D01*
X142734047Y107035477D01*
X142638809Y106940239D01*
X142495952Y106892620D01*
X142400714Y106892620D01*
X143781666Y106892620D02*
X143210238Y106892620D01*
X143495952Y106892620D02*
X143495952Y107892620D01*
X143400714Y107749762D01*
X143305476Y107654524D01*
X143210238Y107606905D01*
X23421666Y96399120D02*
X23421666Y95684834D01*
X23374047Y95541977D01*
X23278809Y95446739D01*
X23135952Y95399120D01*
X23040714Y95399120D01*
X23850238Y96303881D02*
X23897857Y96351500D01*
X23993095Y96399120D01*
X24231190Y96399120D01*
X24326428Y96351500D01*
X24374047Y96303881D01*
X24421666Y96208643D01*
X24421666Y96113405D01*
X24374047Y95970548D01*
X23802619Y95399120D01*
X24421666Y95399120D01*
X86395714Y58410120D02*
X86395714Y57600596D01*
X86443333Y57505358D01*
X86490952Y57457739D01*
X86586190Y57410120D01*
X86776666Y57410120D01*
X86871904Y57457739D01*
X86919523Y57505358D01*
X86967142Y57600596D01*
X86967142Y58410120D01*
X87967142Y57410120D02*
X87395714Y57410120D01*
X87681428Y57410120D02*
X87681428Y58410120D01*
X87586190Y58267262D01*
X87490952Y58172024D01*
X87395714Y58124405D01*
X88919523Y57410120D02*
X88348095Y57410120D01*
X88633809Y57410120D02*
X88633809Y58410120D01*
X88538571Y58267262D01*
X88443333Y58172024D01*
X88348095Y58124405D01*
X89538571Y58410120D02*
X89633809Y58410120D01*
X89729047Y58362500D01*
X89776666Y58314881D01*
X89824285Y58219643D01*
X89871904Y58029167D01*
X89871904Y57791072D01*
X89824285Y57600596D01*
X89776666Y57505358D01*
X89729047Y57457739D01*
X89633809Y57410120D01*
X89538571Y57410120D01*
X89443333Y57457739D01*
X89395714Y57505358D01*
X89348095Y57600596D01*
X89300476Y57791072D01*
X89300476Y58029167D01*
X89348095Y58219643D01*
X89395714Y58314881D01*
X89443333Y58362500D01*
X89538571Y58410120D01*
X138124523Y71805620D02*
X138695952Y71805620D01*
X138410238Y70805620D02*
X138410238Y71805620D01*
X139029285Y70805620D02*
X139029285Y71805620D01*
X139410238Y71805620D01*
X139505476Y71758000D01*
X139553095Y71710381D01*
X139600714Y71615143D01*
X139600714Y71472286D01*
X139553095Y71377048D01*
X139505476Y71329429D01*
X139410238Y71281810D01*
X139029285Y71281810D01*
X140457857Y71472286D02*
X140457857Y70805620D01*
X140219761Y71853239D02*
X139981666Y71138953D01*
X140600714Y71138953D01*
X140886428Y71805620D02*
X141505476Y71805620D01*
X141172142Y71424667D01*
X141315000Y71424667D01*
X141410238Y71377048D01*
X141457857Y71329429D01*
X141505476Y71234191D01*
X141505476Y70996096D01*
X141457857Y70900858D01*
X141410238Y70853239D01*
X141315000Y70805620D01*
X141029285Y70805620D01*
X140934047Y70853239D01*
X140886428Y70900858D01*
X142124523Y71805620D02*
X142219761Y71805620D01*
X142315000Y71758000D01*
X142362619Y71710381D01*
X142410238Y71615143D01*
X142457857Y71424667D01*
X142457857Y71186572D01*
X142410238Y70996096D01*
X142362619Y70900858D01*
X142315000Y70853239D01*
X142219761Y70805620D01*
X142124523Y70805620D01*
X142029285Y70853239D01*
X141981666Y70900858D01*
X141934047Y70996096D01*
X141886428Y71186572D01*
X141886428Y71424667D01*
X141934047Y71615143D01*
X141981666Y71710381D01*
X142029285Y71758000D01*
X142124523Y71805620D01*
X142934047Y70805620D02*
X143124523Y70805620D01*
X143219761Y70853239D01*
X143267380Y70900858D01*
X143362619Y71043715D01*
X143410238Y71234191D01*
X143410238Y71615143D01*
X143362619Y71710381D01*
X143315000Y71758000D01*
X143219761Y71805620D01*
X143029285Y71805620D01*
X142934047Y71758000D01*
X142886428Y71710381D01*
X142838809Y71615143D01*
X142838809Y71377048D01*
X142886428Y71281810D01*
X142934047Y71234191D01*
X143029285Y71186572D01*
X143219761Y71186572D01*
X143315000Y71234191D01*
X143362619Y71281810D01*
X143410238Y71377048D01*
X144474523Y67360620D02*
X145045952Y67360620D01*
X144760238Y66360620D02*
X144760238Y67360620D01*
X145379285Y66360620D02*
X145379285Y67360620D01*
X145760238Y67360620D01*
X145855476Y67313000D01*
X145903095Y67265381D01*
X145950714Y67170143D01*
X145950714Y67027286D01*
X145903095Y66932048D01*
X145855476Y66884429D01*
X145760238Y66836810D01*
X145379285Y66836810D01*
X146807857Y67027286D02*
X146807857Y66360620D01*
X146569761Y67408239D02*
X146331666Y66693953D01*
X146950714Y66693953D01*
X147236428Y67360620D02*
X147855476Y67360620D01*
X147522142Y66979667D01*
X147665000Y66979667D01*
X147760238Y66932048D01*
X147807857Y66884429D01*
X147855476Y66789191D01*
X147855476Y66551096D01*
X147807857Y66455858D01*
X147760238Y66408239D01*
X147665000Y66360620D01*
X147379285Y66360620D01*
X147284047Y66408239D01*
X147236428Y66455858D01*
X148474523Y67360620D02*
X148569761Y67360620D01*
X148665000Y67313000D01*
X148712619Y67265381D01*
X148760238Y67170143D01*
X148807857Y66979667D01*
X148807857Y66741572D01*
X148760238Y66551096D01*
X148712619Y66455858D01*
X148665000Y66408239D01*
X148569761Y66360620D01*
X148474523Y66360620D01*
X148379285Y66408239D01*
X148331666Y66455858D01*
X148284047Y66551096D01*
X148236428Y66741572D01*
X148236428Y66979667D01*
X148284047Y67170143D01*
X148331666Y67265381D01*
X148379285Y67313000D01*
X148474523Y67360620D01*
X149665000Y67027286D02*
X149665000Y66360620D01*
X149426904Y67408239D02*
X149188809Y66693953D01*
X149807857Y66693953D01*
X138124523Y67360620D02*
X138695952Y67360620D01*
X138410238Y66360620D02*
X138410238Y67360620D01*
X139029285Y66360620D02*
X139029285Y67360620D01*
X139410238Y67360620D01*
X139505476Y67313000D01*
X139553095Y67265381D01*
X139600714Y67170143D01*
X139600714Y67027286D01*
X139553095Y66932048D01*
X139505476Y66884429D01*
X139410238Y66836810D01*
X139029285Y66836810D01*
X140457857Y67027286D02*
X140457857Y66360620D01*
X140219761Y67408239D02*
X139981666Y66693953D01*
X140600714Y66693953D01*
X140886428Y67360620D02*
X141505476Y67360620D01*
X141172142Y66979667D01*
X141315000Y66979667D01*
X141410238Y66932048D01*
X141457857Y66884429D01*
X141505476Y66789191D01*
X141505476Y66551096D01*
X141457857Y66455858D01*
X141410238Y66408239D01*
X141315000Y66360620D01*
X141029285Y66360620D01*
X140934047Y66408239D01*
X140886428Y66455858D01*
X142124523Y67360620D02*
X142219761Y67360620D01*
X142315000Y67313000D01*
X142362619Y67265381D01*
X142410238Y67170143D01*
X142457857Y66979667D01*
X142457857Y66741572D01*
X142410238Y66551096D01*
X142362619Y66455858D01*
X142315000Y66408239D01*
X142219761Y66360620D01*
X142124523Y66360620D01*
X142029285Y66408239D01*
X141981666Y66455858D01*
X141934047Y66551096D01*
X141886428Y66741572D01*
X141886428Y66979667D01*
X141934047Y67170143D01*
X141981666Y67265381D01*
X142029285Y67313000D01*
X142124523Y67360620D01*
X143410238Y66360620D02*
X142838809Y66360620D01*
X143124523Y66360620D02*
X143124523Y67360620D01*
X143029285Y67217762D01*
X142934047Y67122524D01*
X142838809Y67074905D01*
X138124523Y45014620D02*
X138695952Y45014620D01*
X138410238Y44014620D02*
X138410238Y45014620D01*
X139029285Y44014620D02*
X139029285Y45014620D01*
X139410238Y45014620D01*
X139505476Y44967000D01*
X139553095Y44919381D01*
X139600714Y44824143D01*
X139600714Y44681286D01*
X139553095Y44586048D01*
X139505476Y44538429D01*
X139410238Y44490810D01*
X139029285Y44490810D01*
X140457857Y44681286D02*
X140457857Y44014620D01*
X140219761Y45062239D02*
X139981666Y44347953D01*
X140600714Y44347953D01*
X140934047Y44919381D02*
X140981666Y44967000D01*
X141076904Y45014620D01*
X141315000Y45014620D01*
X141410238Y44967000D01*
X141457857Y44919381D01*
X141505476Y44824143D01*
X141505476Y44728905D01*
X141457857Y44586048D01*
X140886428Y44014620D01*
X141505476Y44014620D01*
X142124523Y45014620D02*
X142219761Y45014620D01*
X142315000Y44967000D01*
X142362619Y44919381D01*
X142410238Y44824143D01*
X142457857Y44633667D01*
X142457857Y44395572D01*
X142410238Y44205096D01*
X142362619Y44109858D01*
X142315000Y44062239D01*
X142219761Y44014620D01*
X142124523Y44014620D01*
X142029285Y44062239D01*
X141981666Y44109858D01*
X141934047Y44205096D01*
X141886428Y44395572D01*
X141886428Y44633667D01*
X141934047Y44824143D01*
X141981666Y44919381D01*
X142029285Y44967000D01*
X142124523Y45014620D01*
X142934047Y44014620D02*
X143124523Y44014620D01*
X143219761Y44062239D01*
X143267380Y44109858D01*
X143362619Y44252715D01*
X143410238Y44443191D01*
X143410238Y44824143D01*
X143362619Y44919381D01*
X143315000Y44967000D01*
X143219761Y45014620D01*
X143029285Y45014620D01*
X142934047Y44967000D01*
X142886428Y44919381D01*
X142838809Y44824143D01*
X142838809Y44586048D01*
X142886428Y44490810D01*
X142934047Y44443191D01*
X143029285Y44395572D01*
X143219761Y44395572D01*
X143315000Y44443191D01*
X143362619Y44490810D01*
X143410238Y44586048D01*
X144474523Y49459620D02*
X145045952Y49459620D01*
X144760238Y48459620D02*
X144760238Y49459620D01*
X145379285Y48459620D02*
X145379285Y49459620D01*
X145760238Y49459620D01*
X145855476Y49412000D01*
X145903095Y49364381D01*
X145950714Y49269143D01*
X145950714Y49126286D01*
X145903095Y49031048D01*
X145855476Y48983429D01*
X145760238Y48935810D01*
X145379285Y48935810D01*
X146807857Y49126286D02*
X146807857Y48459620D01*
X146569761Y49507239D02*
X146331666Y48792953D01*
X146950714Y48792953D01*
X147284047Y49364381D02*
X147331666Y49412000D01*
X147426904Y49459620D01*
X147665000Y49459620D01*
X147760238Y49412000D01*
X147807857Y49364381D01*
X147855476Y49269143D01*
X147855476Y49173905D01*
X147807857Y49031048D01*
X147236428Y48459620D01*
X147855476Y48459620D01*
X148474523Y49459620D02*
X148569761Y49459620D01*
X148665000Y49412000D01*
X148712619Y49364381D01*
X148760238Y49269143D01*
X148807857Y49078667D01*
X148807857Y48840572D01*
X148760238Y48650096D01*
X148712619Y48554858D01*
X148665000Y48507239D01*
X148569761Y48459620D01*
X148474523Y48459620D01*
X148379285Y48507239D01*
X148331666Y48554858D01*
X148284047Y48650096D01*
X148236428Y48840572D01*
X148236428Y49078667D01*
X148284047Y49269143D01*
X148331666Y49364381D01*
X148379285Y49412000D01*
X148474523Y49459620D01*
X149665000Y49126286D02*
X149665000Y48459620D01*
X149426904Y49507239D02*
X149188809Y48792953D01*
X149807857Y48792953D01*
X138124523Y49459620D02*
X138695952Y49459620D01*
X138410238Y48459620D02*
X138410238Y49459620D01*
X139029285Y48459620D02*
X139029285Y49459620D01*
X139410238Y49459620D01*
X139505476Y49412000D01*
X139553095Y49364381D01*
X139600714Y49269143D01*
X139600714Y49126286D01*
X139553095Y49031048D01*
X139505476Y48983429D01*
X139410238Y48935810D01*
X139029285Y48935810D01*
X140457857Y49126286D02*
X140457857Y48459620D01*
X140219761Y49507239D02*
X139981666Y48792953D01*
X140600714Y48792953D01*
X140934047Y49364381D02*
X140981666Y49412000D01*
X141076904Y49459620D01*
X141315000Y49459620D01*
X141410238Y49412000D01*
X141457857Y49364381D01*
X141505476Y49269143D01*
X141505476Y49173905D01*
X141457857Y49031048D01*
X140886428Y48459620D01*
X141505476Y48459620D01*
X142124523Y49459620D02*
X142219761Y49459620D01*
X142315000Y49412000D01*
X142362619Y49364381D01*
X142410238Y49269143D01*
X142457857Y49078667D01*
X142457857Y48840572D01*
X142410238Y48650096D01*
X142362619Y48554858D01*
X142315000Y48507239D01*
X142219761Y48459620D01*
X142124523Y48459620D01*
X142029285Y48507239D01*
X141981666Y48554858D01*
X141934047Y48650096D01*
X141886428Y48840572D01*
X141886428Y49078667D01*
X141934047Y49269143D01*
X141981666Y49364381D01*
X142029285Y49412000D01*
X142124523Y49459620D01*
X143410238Y48459620D02*
X142838809Y48459620D01*
X143124523Y48459620D02*
X143124523Y49459620D01*
X143029285Y49316762D01*
X142934047Y49221524D01*
X142838809Y49173905D01*
X81609523Y71805620D02*
X82180952Y71805620D01*
X81895238Y70805620D02*
X81895238Y71805620D01*
X82514285Y70805620D02*
X82514285Y71805620D01*
X82895238Y71805620D01*
X82990476Y71758000D01*
X83038095Y71710381D01*
X83085714Y71615143D01*
X83085714Y71472286D01*
X83038095Y71377048D01*
X82990476Y71329429D01*
X82895238Y71281810D01*
X82514285Y71281810D01*
X83942857Y71472286D02*
X83942857Y70805620D01*
X83704761Y71853239D02*
X83466666Y71138953D01*
X84085714Y71138953D01*
X84990476Y70805620D02*
X84419047Y70805620D01*
X84704761Y70805620D02*
X84704761Y71805620D01*
X84609523Y71662762D01*
X84514285Y71567524D01*
X84419047Y71519905D01*
X85609523Y71805620D02*
X85704761Y71805620D01*
X85800000Y71758000D01*
X85847619Y71710381D01*
X85895238Y71615143D01*
X85942857Y71424667D01*
X85942857Y71186572D01*
X85895238Y70996096D01*
X85847619Y70900858D01*
X85800000Y70853239D01*
X85704761Y70805620D01*
X85609523Y70805620D01*
X85514285Y70853239D01*
X85466666Y70900858D01*
X85419047Y70996096D01*
X85371428Y71186572D01*
X85371428Y71424667D01*
X85419047Y71615143D01*
X85466666Y71710381D01*
X85514285Y71758000D01*
X85609523Y71805620D01*
X86419047Y70805620D02*
X86609523Y70805620D01*
X86704761Y70853239D01*
X86752380Y70900858D01*
X86847619Y71043715D01*
X86895238Y71234191D01*
X86895238Y71615143D01*
X86847619Y71710381D01*
X86800000Y71758000D01*
X86704761Y71805620D01*
X86514285Y71805620D01*
X86419047Y71758000D01*
X86371428Y71710381D01*
X86323809Y71615143D01*
X86323809Y71377048D01*
X86371428Y71281810D01*
X86419047Y71234191D01*
X86514285Y71186572D01*
X86704761Y71186572D01*
X86800000Y71234191D01*
X86847619Y71281810D01*
X86895238Y71377048D01*
X87959523Y67360620D02*
X88530952Y67360620D01*
X88245238Y66360620D02*
X88245238Y67360620D01*
X88864285Y66360620D02*
X88864285Y67360620D01*
X89245238Y67360620D01*
X89340476Y67313000D01*
X89388095Y67265381D01*
X89435714Y67170143D01*
X89435714Y67027286D01*
X89388095Y66932048D01*
X89340476Y66884429D01*
X89245238Y66836810D01*
X88864285Y66836810D01*
X90292857Y67027286D02*
X90292857Y66360620D01*
X90054761Y67408239D02*
X89816666Y66693953D01*
X90435714Y66693953D01*
X91340476Y66360620D02*
X90769047Y66360620D01*
X91054761Y66360620D02*
X91054761Y67360620D01*
X90959523Y67217762D01*
X90864285Y67122524D01*
X90769047Y67074905D01*
X91959523Y67360620D02*
X92054761Y67360620D01*
X92150000Y67313000D01*
X92197619Y67265381D01*
X92245238Y67170143D01*
X92292857Y66979667D01*
X92292857Y66741572D01*
X92245238Y66551096D01*
X92197619Y66455858D01*
X92150000Y66408239D01*
X92054761Y66360620D01*
X91959523Y66360620D01*
X91864285Y66408239D01*
X91816666Y66455858D01*
X91769047Y66551096D01*
X91721428Y66741572D01*
X91721428Y66979667D01*
X91769047Y67170143D01*
X91816666Y67265381D01*
X91864285Y67313000D01*
X91959523Y67360620D01*
X93150000Y67027286D02*
X93150000Y66360620D01*
X92911904Y67408239D02*
X92673809Y66693953D01*
X93292857Y66693953D01*
X81609523Y67360620D02*
X82180952Y67360620D01*
X81895238Y66360620D02*
X81895238Y67360620D01*
X82514285Y66360620D02*
X82514285Y67360620D01*
X82895238Y67360620D01*
X82990476Y67313000D01*
X83038095Y67265381D01*
X83085714Y67170143D01*
X83085714Y67027286D01*
X83038095Y66932048D01*
X82990476Y66884429D01*
X82895238Y66836810D01*
X82514285Y66836810D01*
X83942857Y67027286D02*
X83942857Y66360620D01*
X83704761Y67408239D02*
X83466666Y66693953D01*
X84085714Y66693953D01*
X84990476Y66360620D02*
X84419047Y66360620D01*
X84704761Y66360620D02*
X84704761Y67360620D01*
X84609523Y67217762D01*
X84514285Y67122524D01*
X84419047Y67074905D01*
X85609523Y67360620D02*
X85704761Y67360620D01*
X85800000Y67313000D01*
X85847619Y67265381D01*
X85895238Y67170143D01*
X85942857Y66979667D01*
X85942857Y66741572D01*
X85895238Y66551096D01*
X85847619Y66455858D01*
X85800000Y66408239D01*
X85704761Y66360620D01*
X85609523Y66360620D01*
X85514285Y66408239D01*
X85466666Y66455858D01*
X85419047Y66551096D01*
X85371428Y66741572D01*
X85371428Y66979667D01*
X85419047Y67170143D01*
X85466666Y67265381D01*
X85514285Y67313000D01*
X85609523Y67360620D01*
X86895238Y66360620D02*
X86323809Y66360620D01*
X86609523Y66360620D02*
X86609523Y67360620D01*
X86514285Y67217762D01*
X86419047Y67122524D01*
X86323809Y67074905D01*
X81609523Y45014620D02*
X82180952Y45014620D01*
X81895238Y44014620D02*
X81895238Y45014620D01*
X82514285Y44014620D02*
X82514285Y45014620D01*
X82895238Y45014620D01*
X82990476Y44967000D01*
X83038095Y44919381D01*
X83085714Y44824143D01*
X83085714Y44681286D01*
X83038095Y44586048D01*
X82990476Y44538429D01*
X82895238Y44490810D01*
X82514285Y44490810D01*
X83942857Y44681286D02*
X83942857Y44014620D01*
X83704761Y45062239D02*
X83466666Y44347953D01*
X84085714Y44347953D01*
X84657142Y45014620D02*
X84752380Y45014620D01*
X84847619Y44967000D01*
X84895238Y44919381D01*
X84942857Y44824143D01*
X84990476Y44633667D01*
X84990476Y44395572D01*
X84942857Y44205096D01*
X84895238Y44109858D01*
X84847619Y44062239D01*
X84752380Y44014620D01*
X84657142Y44014620D01*
X84561904Y44062239D01*
X84514285Y44109858D01*
X84466666Y44205096D01*
X84419047Y44395572D01*
X84419047Y44633667D01*
X84466666Y44824143D01*
X84514285Y44919381D01*
X84561904Y44967000D01*
X84657142Y45014620D01*
X85609523Y45014620D02*
X85704761Y45014620D01*
X85800000Y44967000D01*
X85847619Y44919381D01*
X85895238Y44824143D01*
X85942857Y44633667D01*
X85942857Y44395572D01*
X85895238Y44205096D01*
X85847619Y44109858D01*
X85800000Y44062239D01*
X85704761Y44014620D01*
X85609523Y44014620D01*
X85514285Y44062239D01*
X85466666Y44109858D01*
X85419047Y44205096D01*
X85371428Y44395572D01*
X85371428Y44633667D01*
X85419047Y44824143D01*
X85466666Y44919381D01*
X85514285Y44967000D01*
X85609523Y45014620D01*
X86419047Y44014620D02*
X86609523Y44014620D01*
X86704761Y44062239D01*
X86752380Y44109858D01*
X86847619Y44252715D01*
X86895238Y44443191D01*
X86895238Y44824143D01*
X86847619Y44919381D01*
X86800000Y44967000D01*
X86704761Y45014620D01*
X86514285Y45014620D01*
X86419047Y44967000D01*
X86371428Y44919381D01*
X86323809Y44824143D01*
X86323809Y44586048D01*
X86371428Y44490810D01*
X86419047Y44443191D01*
X86514285Y44395572D01*
X86704761Y44395572D01*
X86800000Y44443191D01*
X86847619Y44490810D01*
X86895238Y44586048D01*
X87959523Y49459620D02*
X88530952Y49459620D01*
X88245238Y48459620D02*
X88245238Y49459620D01*
X88864285Y48459620D02*
X88864285Y49459620D01*
X89245238Y49459620D01*
X89340476Y49412000D01*
X89388095Y49364381D01*
X89435714Y49269143D01*
X89435714Y49126286D01*
X89388095Y49031048D01*
X89340476Y48983429D01*
X89245238Y48935810D01*
X88864285Y48935810D01*
X90292857Y49126286D02*
X90292857Y48459620D01*
X90054761Y49507239D02*
X89816666Y48792953D01*
X90435714Y48792953D01*
X91007142Y49459620D02*
X91102380Y49459620D01*
X91197619Y49412000D01*
X91245238Y49364381D01*
X91292857Y49269143D01*
X91340476Y49078667D01*
X91340476Y48840572D01*
X91292857Y48650096D01*
X91245238Y48554858D01*
X91197619Y48507239D01*
X91102380Y48459620D01*
X91007142Y48459620D01*
X90911904Y48507239D01*
X90864285Y48554858D01*
X90816666Y48650096D01*
X90769047Y48840572D01*
X90769047Y49078667D01*
X90816666Y49269143D01*
X90864285Y49364381D01*
X90911904Y49412000D01*
X91007142Y49459620D01*
X91959523Y49459620D02*
X92054761Y49459620D01*
X92150000Y49412000D01*
X92197619Y49364381D01*
X92245238Y49269143D01*
X92292857Y49078667D01*
X92292857Y48840572D01*
X92245238Y48650096D01*
X92197619Y48554858D01*
X92150000Y48507239D01*
X92054761Y48459620D01*
X91959523Y48459620D01*
X91864285Y48507239D01*
X91816666Y48554858D01*
X91769047Y48650096D01*
X91721428Y48840572D01*
X91721428Y49078667D01*
X91769047Y49269143D01*
X91816666Y49364381D01*
X91864285Y49412000D01*
X91959523Y49459620D01*
X93150000Y49126286D02*
X93150000Y48459620D01*
X92911904Y49507239D02*
X92673809Y48792953D01*
X93292857Y48792953D01*
X81609523Y49459620D02*
X82180952Y49459620D01*
X81895238Y48459620D02*
X81895238Y49459620D01*
X82514285Y48459620D02*
X82514285Y49459620D01*
X82895238Y49459620D01*
X82990476Y49412000D01*
X83038095Y49364381D01*
X83085714Y49269143D01*
X83085714Y49126286D01*
X83038095Y49031048D01*
X82990476Y48983429D01*
X82895238Y48935810D01*
X82514285Y48935810D01*
X83942857Y49126286D02*
X83942857Y48459620D01*
X83704761Y49507239D02*
X83466666Y48792953D01*
X84085714Y48792953D01*
X84657142Y49459620D02*
X84752380Y49459620D01*
X84847619Y49412000D01*
X84895238Y49364381D01*
X84942857Y49269143D01*
X84990476Y49078667D01*
X84990476Y48840572D01*
X84942857Y48650096D01*
X84895238Y48554858D01*
X84847619Y48507239D01*
X84752380Y48459620D01*
X84657142Y48459620D01*
X84561904Y48507239D01*
X84514285Y48554858D01*
X84466666Y48650096D01*
X84419047Y48840572D01*
X84419047Y49078667D01*
X84466666Y49269143D01*
X84514285Y49364381D01*
X84561904Y49412000D01*
X84657142Y49459620D01*
X85609523Y49459620D02*
X85704761Y49459620D01*
X85800000Y49412000D01*
X85847619Y49364381D01*
X85895238Y49269143D01*
X85942857Y49078667D01*
X85942857Y48840572D01*
X85895238Y48650096D01*
X85847619Y48554858D01*
X85800000Y48507239D01*
X85704761Y48459620D01*
X85609523Y48459620D01*
X85514285Y48507239D01*
X85466666Y48554858D01*
X85419047Y48650096D01*
X85371428Y48840572D01*
X85371428Y49078667D01*
X85419047Y49269143D01*
X85466666Y49364381D01*
X85514285Y49412000D01*
X85609523Y49459620D01*
X86895238Y48459620D02*
X86323809Y48459620D01*
X86609523Y48459620D02*
X86609523Y49459620D01*
X86514285Y49316762D01*
X86419047Y49221524D01*
X86323809Y49173905D01*
X132885714Y33327620D02*
X133457142Y33327620D01*
X133171428Y32327620D02*
X133171428Y33327620D01*
X133790476Y32327620D02*
X133790476Y33327620D01*
X134171428Y33327620D01*
X134266666Y33280000D01*
X134314285Y33232381D01*
X134361904Y33137143D01*
X134361904Y32994286D01*
X134314285Y32899048D01*
X134266666Y32851429D01*
X134171428Y32803810D01*
X133790476Y32803810D01*
X135266666Y33327620D02*
X134790476Y33327620D01*
X134742857Y32851429D01*
X134790476Y32899048D01*
X134885714Y32946667D01*
X135123809Y32946667D01*
X135219047Y32899048D01*
X135266666Y32851429D01*
X135314285Y32756191D01*
X135314285Y32518096D01*
X135266666Y32422858D01*
X135219047Y32375239D01*
X135123809Y32327620D01*
X134885714Y32327620D01*
X134790476Y32375239D01*
X134742857Y32422858D01*
X135933333Y33327620D02*
X136028571Y33327620D01*
X136123809Y33280000D01*
X136171428Y33232381D01*
X136219047Y33137143D01*
X136266666Y32946667D01*
X136266666Y32708572D01*
X136219047Y32518096D01*
X136171428Y32422858D01*
X136123809Y32375239D01*
X136028571Y32327620D01*
X135933333Y32327620D01*
X135838095Y32375239D01*
X135790476Y32422858D01*
X135742857Y32518096D01*
X135695238Y32708572D01*
X135695238Y32946667D01*
X135742857Y33137143D01*
X135790476Y33232381D01*
X135838095Y33280000D01*
X135933333Y33327620D01*
X137123809Y32994286D02*
X137123809Y32327620D01*
X136885714Y33375239D02*
X136647619Y32660953D01*
X137266666Y32660953D01*
X120820714Y33327620D02*
X121392142Y33327620D01*
X121106428Y32327620D02*
X121106428Y33327620D01*
X121725476Y32327620D02*
X121725476Y33327620D01*
X122106428Y33327620D01*
X122201666Y33280000D01*
X122249285Y33232381D01*
X122296904Y33137143D01*
X122296904Y32994286D01*
X122249285Y32899048D01*
X122201666Y32851429D01*
X122106428Y32803810D01*
X121725476Y32803810D01*
X123201666Y33327620D02*
X122725476Y33327620D01*
X122677857Y32851429D01*
X122725476Y32899048D01*
X122820714Y32946667D01*
X123058809Y32946667D01*
X123154047Y32899048D01*
X123201666Y32851429D01*
X123249285Y32756191D01*
X123249285Y32518096D01*
X123201666Y32422858D01*
X123154047Y32375239D01*
X123058809Y32327620D01*
X122820714Y32327620D01*
X122725476Y32375239D01*
X122677857Y32422858D01*
X123868333Y33327620D02*
X123963571Y33327620D01*
X124058809Y33280000D01*
X124106428Y33232381D01*
X124154047Y33137143D01*
X124201666Y32946667D01*
X124201666Y32708572D01*
X124154047Y32518096D01*
X124106428Y32422858D01*
X124058809Y32375239D01*
X123963571Y32327620D01*
X123868333Y32327620D01*
X123773095Y32375239D01*
X123725476Y32422858D01*
X123677857Y32518096D01*
X123630238Y32708572D01*
X123630238Y32946667D01*
X123677857Y33137143D01*
X123725476Y33232381D01*
X123773095Y33280000D01*
X123868333Y33327620D01*
X124535000Y33327620D02*
X125154047Y33327620D01*
X124820714Y32946667D01*
X124963571Y32946667D01*
X125058809Y32899048D01*
X125106428Y32851429D01*
X125154047Y32756191D01*
X125154047Y32518096D01*
X125106428Y32422858D01*
X125058809Y32375239D01*
X124963571Y32327620D01*
X124677857Y32327620D01*
X124582619Y32375239D01*
X124535000Y32422858D01*
X108755714Y33327620D02*
X109327142Y33327620D01*
X109041428Y32327620D02*
X109041428Y33327620D01*
X109660476Y32327620D02*
X109660476Y33327620D01*
X110041428Y33327620D01*
X110136666Y33280000D01*
X110184285Y33232381D01*
X110231904Y33137143D01*
X110231904Y32994286D01*
X110184285Y32899048D01*
X110136666Y32851429D01*
X110041428Y32803810D01*
X109660476Y32803810D01*
X111136666Y33327620D02*
X110660476Y33327620D01*
X110612857Y32851429D01*
X110660476Y32899048D01*
X110755714Y32946667D01*
X110993809Y32946667D01*
X111089047Y32899048D01*
X111136666Y32851429D01*
X111184285Y32756191D01*
X111184285Y32518096D01*
X111136666Y32422858D01*
X111089047Y32375239D01*
X110993809Y32327620D01*
X110755714Y32327620D01*
X110660476Y32375239D01*
X110612857Y32422858D01*
X111803333Y33327620D02*
X111898571Y33327620D01*
X111993809Y33280000D01*
X112041428Y33232381D01*
X112089047Y33137143D01*
X112136666Y32946667D01*
X112136666Y32708572D01*
X112089047Y32518096D01*
X112041428Y32422858D01*
X111993809Y32375239D01*
X111898571Y32327620D01*
X111803333Y32327620D01*
X111708095Y32375239D01*
X111660476Y32422858D01*
X111612857Y32518096D01*
X111565238Y32708572D01*
X111565238Y32946667D01*
X111612857Y33137143D01*
X111660476Y33232381D01*
X111708095Y33280000D01*
X111803333Y33327620D01*
X112517619Y33232381D02*
X112565238Y33280000D01*
X112660476Y33327620D01*
X112898571Y33327620D01*
X112993809Y33280000D01*
X113041428Y33232381D01*
X113089047Y33137143D01*
X113089047Y33041905D01*
X113041428Y32899048D01*
X112470000Y32327620D01*
X113089047Y32327620D01*
X96690714Y33327620D02*
X97262142Y33327620D01*
X96976428Y32327620D02*
X96976428Y33327620D01*
X97595476Y32327620D02*
X97595476Y33327620D01*
X97976428Y33327620D01*
X98071666Y33280000D01*
X98119285Y33232381D01*
X98166904Y33137143D01*
X98166904Y32994286D01*
X98119285Y32899048D01*
X98071666Y32851429D01*
X97976428Y32803810D01*
X97595476Y32803810D01*
X99071666Y33327620D02*
X98595476Y33327620D01*
X98547857Y32851429D01*
X98595476Y32899048D01*
X98690714Y32946667D01*
X98928809Y32946667D01*
X99024047Y32899048D01*
X99071666Y32851429D01*
X99119285Y32756191D01*
X99119285Y32518096D01*
X99071666Y32422858D01*
X99024047Y32375239D01*
X98928809Y32327620D01*
X98690714Y32327620D01*
X98595476Y32375239D01*
X98547857Y32422858D01*
X99738333Y33327620D02*
X99833571Y33327620D01*
X99928809Y33280000D01*
X99976428Y33232381D01*
X100024047Y33137143D01*
X100071666Y32946667D01*
X100071666Y32708572D01*
X100024047Y32518096D01*
X99976428Y32422858D01*
X99928809Y32375239D01*
X99833571Y32327620D01*
X99738333Y32327620D01*
X99643095Y32375239D01*
X99595476Y32422858D01*
X99547857Y32518096D01*
X99500238Y32708572D01*
X99500238Y32946667D01*
X99547857Y33137143D01*
X99595476Y33232381D01*
X99643095Y33280000D01*
X99738333Y33327620D01*
X101024047Y32327620D02*
X100452619Y32327620D01*
X100738333Y32327620D02*
X100738333Y33327620D01*
X100643095Y33184762D01*
X100547857Y33089524D01*
X100452619Y33041905D01*
X18528095Y87312620D02*
X18528095Y86503096D01*
X18575714Y86407858D01*
X18623333Y86360239D01*
X18718571Y86312620D01*
X18909047Y86312620D01*
X19004285Y86360239D01*
X19051904Y86407858D01*
X19099523Y86503096D01*
X19099523Y87312620D01*
X20099523Y86312620D02*
X19528095Y86312620D01*
X19813809Y86312620D02*
X19813809Y87312620D01*
X19718571Y87169762D01*
X19623333Y87074524D01*
X19528095Y87026905D01*
X27425880Y94160953D02*
X26949690Y93827620D01*
X27425880Y93589524D02*
X26425880Y93589524D01*
X26425880Y93970477D01*
X26473500Y94065715D01*
X26521119Y94113334D01*
X26616357Y94160953D01*
X26759214Y94160953D01*
X26854452Y94113334D01*
X26902071Y94065715D01*
X26949690Y93970477D01*
X26949690Y93589524D01*
X27425880Y95113334D02*
X27425880Y94541905D01*
X27425880Y94827620D02*
X26425880Y94827620D01*
X26568738Y94732381D01*
X26663976Y94637143D01*
X26711595Y94541905D01*
X26425880Y95732381D02*
X26425880Y95827620D01*
X26473500Y95922858D01*
X26521119Y95970477D01*
X26616357Y96018096D01*
X26806833Y96065715D01*
X27044928Y96065715D01*
X27235404Y96018096D01*
X27330642Y95970477D01*
X27378261Y95922858D01*
X27425880Y95827620D01*
X27425880Y95732381D01*
X27378261Y95637143D01*
X27330642Y95589524D01*
X27235404Y95541905D01*
X27044928Y95494286D01*
X26806833Y95494286D01*
X26616357Y95541905D01*
X26521119Y95589524D01*
X26473500Y95637143D01*
X26425880Y95732381D01*
X26521119Y96446667D02*
X26473500Y96494286D01*
X26425880Y96589524D01*
X26425880Y96827620D01*
X26473500Y96922858D01*
X26521119Y96970477D01*
X26616357Y97018096D01*
X26711595Y97018096D01*
X26854452Y96970477D01*
X27425880Y96399048D01*
X27425880Y97018096D01*
X31807380Y94160953D02*
X31331190Y93827620D01*
X31807380Y93589524D02*
X30807380Y93589524D01*
X30807380Y93970477D01*
X30855000Y94065715D01*
X30902619Y94113334D01*
X30997857Y94160953D01*
X31140714Y94160953D01*
X31235952Y94113334D01*
X31283571Y94065715D01*
X31331190Y93970477D01*
X31331190Y93589524D01*
X31807380Y95113334D02*
X31807380Y94541905D01*
X31807380Y94827620D02*
X30807380Y94827620D01*
X30950238Y94732381D01*
X31045476Y94637143D01*
X31093095Y94541905D01*
X30807380Y95732381D02*
X30807380Y95827620D01*
X30855000Y95922858D01*
X30902619Y95970477D01*
X30997857Y96018096D01*
X31188333Y96065715D01*
X31426428Y96065715D01*
X31616904Y96018096D01*
X31712142Y95970477D01*
X31759761Y95922858D01*
X31807380Y95827620D01*
X31807380Y95732381D01*
X31759761Y95637143D01*
X31712142Y95589524D01*
X31616904Y95541905D01*
X31426428Y95494286D01*
X31188333Y95494286D01*
X30997857Y95541905D01*
X30902619Y95589524D01*
X30855000Y95637143D01*
X30807380Y95732381D01*
X31807380Y97018096D02*
X31807380Y96446667D01*
X31807380Y96732381D02*
X30807380Y96732381D01*
X30950238Y96637143D01*
X31045476Y96541905D01*
X31093095Y96446667D01*
X132568095Y6086120D02*
X133139523Y6086120D01*
X132853809Y5086120D02*
X132853809Y6086120D01*
X133472857Y5086120D02*
X133472857Y6086120D01*
X133853809Y6086120D01*
X133949047Y6038500D01*
X133996666Y5990881D01*
X134044285Y5895643D01*
X134044285Y5752786D01*
X133996666Y5657548D01*
X133949047Y5609929D01*
X133853809Y5562310D01*
X133472857Y5562310D01*
X134425238Y5990881D02*
X134472857Y6038500D01*
X134568095Y6086120D01*
X134806190Y6086120D01*
X134901428Y6038500D01*
X134949047Y5990881D01*
X134996666Y5895643D01*
X134996666Y5800405D01*
X134949047Y5657548D01*
X134377619Y5086120D01*
X134996666Y5086120D01*
X132568095Y11737620D02*
X133139523Y11737620D01*
X132853809Y10737620D02*
X132853809Y11737620D01*
X133472857Y10737620D02*
X133472857Y11737620D01*
X133853809Y11737620D01*
X133949047Y11690000D01*
X133996666Y11642381D01*
X134044285Y11547143D01*
X134044285Y11404286D01*
X133996666Y11309048D01*
X133949047Y11261429D01*
X133853809Y11213810D01*
X133472857Y11213810D01*
X134996666Y10737620D02*
X134425238Y10737620D01*
X134710952Y10737620D02*
X134710952Y11737620D01*
X134615714Y11594762D01*
X134520476Y11499524D01*
X134425238Y11451905D01*
X20456904Y121497620D02*
X20456904Y122497620D01*
X20695000Y122497620D01*
X20837857Y122450000D01*
X20933095Y122354762D01*
X20980714Y122259524D01*
X21028333Y122069048D01*
X21028333Y121926191D01*
X20980714Y121735715D01*
X20933095Y121640477D01*
X20837857Y121545239D01*
X20695000Y121497620D01*
X20456904Y121497620D01*
X21980714Y121497620D02*
X21409285Y121497620D01*
X21695000Y121497620D02*
X21695000Y122497620D01*
X21599761Y122354762D01*
X21504523Y122259524D01*
X21409285Y122211905D01*
X95650785Y13642620D02*
X95650785Y12928334D01*
X95603166Y12785477D01*
X95507928Y12690239D01*
X95365071Y12642620D01*
X95269833Y12642620D01*
X96603166Y13642620D02*
X96126976Y13642620D01*
X96079357Y13166429D01*
X96126976Y13214048D01*
X96222214Y13261667D01*
X96460309Y13261667D01*
X96555547Y13214048D01*
X96603166Y13166429D01*
X96650785Y13071191D01*
X96650785Y12833096D01*
X96603166Y12737858D01*
X96555547Y12690239D01*
X96460309Y12642620D01*
X96222214Y12642620D01*
X96126976Y12690239D01*
X96079357Y12737858D01*
X97269833Y13642620D02*
X97365071Y13642620D01*
X97460309Y13595000D01*
X97507928Y13547381D01*
X97555547Y13452143D01*
X97603166Y13261667D01*
X97603166Y13023572D01*
X97555547Y12833096D01*
X97507928Y12737858D01*
X97460309Y12690239D01*
X97365071Y12642620D01*
X97269833Y12642620D01*
X97174595Y12690239D01*
X97126976Y12737858D01*
X97079357Y12833096D01*
X97031738Y13023572D01*
X97031738Y13261667D01*
X97079357Y13452143D01*
X97126976Y13547381D01*
X97174595Y13595000D01*
X97269833Y13642620D01*
X98555547Y12642620D02*
X97984119Y12642620D01*
X98269833Y12642620D02*
X98269833Y13642620D01*
X98174595Y13499762D01*
X98079357Y13404524D01*
X97984119Y13356905D01*
X12144523Y6292620D02*
X12144523Y7292620D01*
X12382619Y7292620D01*
X12525476Y7245000D01*
X12620714Y7149762D01*
X12668333Y7054524D01*
X12715952Y6864048D01*
X12715952Y6721191D01*
X12668333Y6530715D01*
X12620714Y6435477D01*
X12525476Y6340239D01*
X12382619Y6292620D01*
X12144523Y6292620D01*
X13668333Y6292620D02*
X13096904Y6292620D01*
X13382619Y6292620D02*
X13382619Y7292620D01*
X13287380Y7149762D01*
X13192142Y7054524D01*
X13096904Y7006905D01*
X14287380Y7292620D02*
X14382619Y7292620D01*
X14477857Y7245000D01*
X14525476Y7197381D01*
X14573095Y7102143D01*
X14620714Y6911667D01*
X14620714Y6673572D01*
X14573095Y6483096D01*
X14525476Y6387858D01*
X14477857Y6340239D01*
X14382619Y6292620D01*
X14287380Y6292620D01*
X14192142Y6340239D01*
X14144523Y6387858D01*
X14096904Y6483096D01*
X14049285Y6673572D01*
X14049285Y6911667D01*
X14096904Y7102143D01*
X14144523Y7197381D01*
X14192142Y7245000D01*
X14287380Y7292620D01*
X15573095Y6292620D02*
X15001666Y6292620D01*
X15287380Y6292620D02*
X15287380Y7292620D01*
X15192142Y7149762D01*
X15096904Y7054524D01*
X15001666Y7006905D01*
X17839523Y6292620D02*
X17839523Y7292620D01*
X18077619Y7292620D01*
X18220476Y7245000D01*
X18315714Y7149762D01*
X18363333Y7054524D01*
X18410952Y6864048D01*
X18410952Y6721191D01*
X18363333Y6530715D01*
X18315714Y6435477D01*
X18220476Y6340239D01*
X18077619Y6292620D01*
X17839523Y6292620D01*
X19363333Y6292620D02*
X18791904Y6292620D01*
X19077619Y6292620D02*
X19077619Y7292620D01*
X18982380Y7149762D01*
X18887142Y7054524D01*
X18791904Y7006905D01*
X19982380Y7292620D02*
X20077619Y7292620D01*
X20172857Y7245000D01*
X20220476Y7197381D01*
X20268095Y7102143D01*
X20315714Y6911667D01*
X20315714Y6673572D01*
X20268095Y6483096D01*
X20220476Y6387858D01*
X20172857Y6340239D01*
X20077619Y6292620D01*
X19982380Y6292620D01*
X19887142Y6340239D01*
X19839523Y6387858D01*
X19791904Y6483096D01*
X19744285Y6673572D01*
X19744285Y6911667D01*
X19791904Y7102143D01*
X19839523Y7197381D01*
X19887142Y7245000D01*
X19982380Y7292620D01*
X20696666Y7197381D02*
X20744285Y7245000D01*
X20839523Y7292620D01*
X21077619Y7292620D01*
X21172857Y7245000D01*
X21220476Y7197381D01*
X21268095Y7102143D01*
X21268095Y7006905D01*
X21220476Y6864048D01*
X20649047Y6292620D01*
X21268095Y6292620D01*
X124289285Y13642620D02*
X124289285Y12928334D01*
X124241666Y12785477D01*
X124146428Y12690239D01*
X124003571Y12642620D01*
X123908333Y12642620D01*
X125241666Y13642620D02*
X124765476Y13642620D01*
X124717857Y13166429D01*
X124765476Y13214048D01*
X124860714Y13261667D01*
X125098809Y13261667D01*
X125194047Y13214048D01*
X125241666Y13166429D01*
X125289285Y13071191D01*
X125289285Y12833096D01*
X125241666Y12737858D01*
X125194047Y12690239D01*
X125098809Y12642620D01*
X124860714Y12642620D01*
X124765476Y12690239D01*
X124717857Y12737858D01*
X125908333Y13642620D02*
X126003571Y13642620D01*
X126098809Y13595000D01*
X126146428Y13547381D01*
X126194047Y13452143D01*
X126241666Y13261667D01*
X126241666Y13023572D01*
X126194047Y12833096D01*
X126146428Y12737858D01*
X126098809Y12690239D01*
X126003571Y12642620D01*
X125908333Y12642620D01*
X125813095Y12690239D01*
X125765476Y12737858D01*
X125717857Y12833096D01*
X125670238Y13023572D01*
X125670238Y13261667D01*
X125717857Y13452143D01*
X125765476Y13547381D01*
X125813095Y13595000D01*
X125908333Y13642620D01*
X127098809Y13309286D02*
X127098809Y12642620D01*
X126860714Y13690239D02*
X126622619Y12975953D01*
X127241666Y12975953D01*
X114764285Y13642620D02*
X114764285Y12928334D01*
X114716666Y12785477D01*
X114621428Y12690239D01*
X114478571Y12642620D01*
X114383333Y12642620D01*
X115716666Y13642620D02*
X115240476Y13642620D01*
X115192857Y13166429D01*
X115240476Y13214048D01*
X115335714Y13261667D01*
X115573809Y13261667D01*
X115669047Y13214048D01*
X115716666Y13166429D01*
X115764285Y13071191D01*
X115764285Y12833096D01*
X115716666Y12737858D01*
X115669047Y12690239D01*
X115573809Y12642620D01*
X115335714Y12642620D01*
X115240476Y12690239D01*
X115192857Y12737858D01*
X116383333Y13642620D02*
X116478571Y13642620D01*
X116573809Y13595000D01*
X116621428Y13547381D01*
X116669047Y13452143D01*
X116716666Y13261667D01*
X116716666Y13023572D01*
X116669047Y12833096D01*
X116621428Y12737858D01*
X116573809Y12690239D01*
X116478571Y12642620D01*
X116383333Y12642620D01*
X116288095Y12690239D01*
X116240476Y12737858D01*
X116192857Y12833096D01*
X116145238Y13023572D01*
X116145238Y13261667D01*
X116192857Y13452143D01*
X116240476Y13547381D01*
X116288095Y13595000D01*
X116383333Y13642620D01*
X117050000Y13642620D02*
X117669047Y13642620D01*
X117335714Y13261667D01*
X117478571Y13261667D01*
X117573809Y13214048D01*
X117621428Y13166429D01*
X117669047Y13071191D01*
X117669047Y12833096D01*
X117621428Y12737858D01*
X117573809Y12690239D01*
X117478571Y12642620D01*
X117192857Y12642620D01*
X117097619Y12690239D01*
X117050000Y12737858D01*
X105239285Y13642620D02*
X105239285Y12928334D01*
X105191666Y12785477D01*
X105096428Y12690239D01*
X104953571Y12642620D01*
X104858333Y12642620D01*
X106191666Y13642620D02*
X105715476Y13642620D01*
X105667857Y13166429D01*
X105715476Y13214048D01*
X105810714Y13261667D01*
X106048809Y13261667D01*
X106144047Y13214048D01*
X106191666Y13166429D01*
X106239285Y13071191D01*
X106239285Y12833096D01*
X106191666Y12737858D01*
X106144047Y12690239D01*
X106048809Y12642620D01*
X105810714Y12642620D01*
X105715476Y12690239D01*
X105667857Y12737858D01*
X106858333Y13642620D02*
X106953571Y13642620D01*
X107048809Y13595000D01*
X107096428Y13547381D01*
X107144047Y13452143D01*
X107191666Y13261667D01*
X107191666Y13023572D01*
X107144047Y12833096D01*
X107096428Y12737858D01*
X107048809Y12690239D01*
X106953571Y12642620D01*
X106858333Y12642620D01*
X106763095Y12690239D01*
X106715476Y12737858D01*
X106667857Y12833096D01*
X106620238Y13023572D01*
X106620238Y13261667D01*
X106667857Y13452143D01*
X106715476Y13547381D01*
X106763095Y13595000D01*
X106858333Y13642620D01*
X107572619Y13547381D02*
X107620238Y13595000D01*
X107715476Y13642620D01*
X107953571Y13642620D01*
X108048809Y13595000D01*
X108096428Y13547381D01*
X108144047Y13452143D01*
X108144047Y13356905D01*
X108096428Y13214048D01*
X107525000Y12642620D01*
X108144047Y12642620D01*
X131647380Y15182620D02*
X131314047Y15658810D01*
X131075952Y15182620D02*
X131075952Y16182620D01*
X131456904Y16182620D01*
X131552142Y16135000D01*
X131599761Y16087381D01*
X131647380Y15992143D01*
X131647380Y15849286D01*
X131599761Y15754048D01*
X131552142Y15706429D01*
X131456904Y15658810D01*
X131075952Y15658810D01*
X131933095Y16182620D02*
X132266428Y15182620D01*
X132599761Y16182620D01*
X133409285Y16182620D02*
X132933095Y16182620D01*
X132885476Y15706429D01*
X132933095Y15754048D01*
X133028333Y15801667D01*
X133266428Y15801667D01*
X133361666Y15754048D01*
X133409285Y15706429D01*
X133456904Y15611191D01*
X133456904Y15373096D01*
X133409285Y15277858D01*
X133361666Y15230239D01*
X133266428Y15182620D01*
X133028333Y15182620D01*
X132933095Y15230239D01*
X132885476Y15277858D01*
X134075952Y16182620D02*
X134171190Y16182620D01*
X134266428Y16135000D01*
X134314047Y16087381D01*
X134361666Y15992143D01*
X134409285Y15801667D01*
X134409285Y15563572D01*
X134361666Y15373096D01*
X134314047Y15277858D01*
X134266428Y15230239D01*
X134171190Y15182620D01*
X134075952Y15182620D01*
X133980714Y15230239D01*
X133933095Y15277858D01*
X133885476Y15373096D01*
X133837857Y15563572D01*
X133837857Y15801667D01*
X133885476Y15992143D01*
X133933095Y16087381D01*
X133980714Y16135000D01*
X134075952Y16182620D01*
X135266428Y15849286D02*
X135266428Y15182620D01*
X135028333Y16230239D02*
X134790238Y15515953D01*
X135409285Y15515953D01*
X119582380Y15182620D02*
X119249047Y15658810D01*
X119010952Y15182620D02*
X119010952Y16182620D01*
X119391904Y16182620D01*
X119487142Y16135000D01*
X119534761Y16087381D01*
X119582380Y15992143D01*
X119582380Y15849286D01*
X119534761Y15754048D01*
X119487142Y15706429D01*
X119391904Y15658810D01*
X119010952Y15658810D01*
X119868095Y16182620D02*
X120201428Y15182620D01*
X120534761Y16182620D01*
X121344285Y16182620D02*
X120868095Y16182620D01*
X120820476Y15706429D01*
X120868095Y15754048D01*
X120963333Y15801667D01*
X121201428Y15801667D01*
X121296666Y15754048D01*
X121344285Y15706429D01*
X121391904Y15611191D01*
X121391904Y15373096D01*
X121344285Y15277858D01*
X121296666Y15230239D01*
X121201428Y15182620D01*
X120963333Y15182620D01*
X120868095Y15230239D01*
X120820476Y15277858D01*
X122010952Y16182620D02*
X122106190Y16182620D01*
X122201428Y16135000D01*
X122249047Y16087381D01*
X122296666Y15992143D01*
X122344285Y15801667D01*
X122344285Y15563572D01*
X122296666Y15373096D01*
X122249047Y15277858D01*
X122201428Y15230239D01*
X122106190Y15182620D01*
X122010952Y15182620D01*
X121915714Y15230239D01*
X121868095Y15277858D01*
X121820476Y15373096D01*
X121772857Y15563572D01*
X121772857Y15801667D01*
X121820476Y15992143D01*
X121868095Y16087381D01*
X121915714Y16135000D01*
X122010952Y16182620D01*
X122677619Y16182620D02*
X123296666Y16182620D01*
X122963333Y15801667D01*
X123106190Y15801667D01*
X123201428Y15754048D01*
X123249047Y15706429D01*
X123296666Y15611191D01*
X123296666Y15373096D01*
X123249047Y15277858D01*
X123201428Y15230239D01*
X123106190Y15182620D01*
X122820476Y15182620D01*
X122725238Y15230239D01*
X122677619Y15277858D01*
X107517380Y15182620D02*
X107184047Y15658810D01*
X106945952Y15182620D02*
X106945952Y16182620D01*
X107326904Y16182620D01*
X107422142Y16135000D01*
X107469761Y16087381D01*
X107517380Y15992143D01*
X107517380Y15849286D01*
X107469761Y15754048D01*
X107422142Y15706429D01*
X107326904Y15658810D01*
X106945952Y15658810D01*
X107803095Y16182620D02*
X108136428Y15182620D01*
X108469761Y16182620D01*
X109279285Y16182620D02*
X108803095Y16182620D01*
X108755476Y15706429D01*
X108803095Y15754048D01*
X108898333Y15801667D01*
X109136428Y15801667D01*
X109231666Y15754048D01*
X109279285Y15706429D01*
X109326904Y15611191D01*
X109326904Y15373096D01*
X109279285Y15277858D01*
X109231666Y15230239D01*
X109136428Y15182620D01*
X108898333Y15182620D01*
X108803095Y15230239D01*
X108755476Y15277858D01*
X109945952Y16182620D02*
X110041190Y16182620D01*
X110136428Y16135000D01*
X110184047Y16087381D01*
X110231666Y15992143D01*
X110279285Y15801667D01*
X110279285Y15563572D01*
X110231666Y15373096D01*
X110184047Y15277858D01*
X110136428Y15230239D01*
X110041190Y15182620D01*
X109945952Y15182620D01*
X109850714Y15230239D01*
X109803095Y15277858D01*
X109755476Y15373096D01*
X109707857Y15563572D01*
X109707857Y15801667D01*
X109755476Y15992143D01*
X109803095Y16087381D01*
X109850714Y16135000D01*
X109945952Y16182620D01*
X110660238Y16087381D02*
X110707857Y16135000D01*
X110803095Y16182620D01*
X111041190Y16182620D01*
X111136428Y16135000D01*
X111184047Y16087381D01*
X111231666Y15992143D01*
X111231666Y15896905D01*
X111184047Y15754048D01*
X110612619Y15182620D01*
X111231666Y15182620D01*
X95452380Y15182620D02*
X95119047Y15658810D01*
X94880952Y15182620D02*
X94880952Y16182620D01*
X95261904Y16182620D01*
X95357142Y16135000D01*
X95404761Y16087381D01*
X95452380Y15992143D01*
X95452380Y15849286D01*
X95404761Y15754048D01*
X95357142Y15706429D01*
X95261904Y15658810D01*
X94880952Y15658810D01*
X95738095Y16182620D02*
X96071428Y15182620D01*
X96404761Y16182620D01*
X97214285Y16182620D02*
X96738095Y16182620D01*
X96690476Y15706429D01*
X96738095Y15754048D01*
X96833333Y15801667D01*
X97071428Y15801667D01*
X97166666Y15754048D01*
X97214285Y15706429D01*
X97261904Y15611191D01*
X97261904Y15373096D01*
X97214285Y15277858D01*
X97166666Y15230239D01*
X97071428Y15182620D01*
X96833333Y15182620D01*
X96738095Y15230239D01*
X96690476Y15277858D01*
X97880952Y16182620D02*
X97976190Y16182620D01*
X98071428Y16135000D01*
X98119047Y16087381D01*
X98166666Y15992143D01*
X98214285Y15801667D01*
X98214285Y15563572D01*
X98166666Y15373096D01*
X98119047Y15277858D01*
X98071428Y15230239D01*
X97976190Y15182620D01*
X97880952Y15182620D01*
X97785714Y15230239D01*
X97738095Y15277858D01*
X97690476Y15373096D01*
X97642857Y15563572D01*
X97642857Y15801667D01*
X97690476Y15992143D01*
X97738095Y16087381D01*
X97785714Y16135000D01*
X97880952Y16182620D01*
X99166666Y15182620D02*
X98595238Y15182620D01*
X98880952Y15182620D02*
X98880952Y16182620D01*
X98785714Y16039762D01*
X98690476Y15944524D01*
X98595238Y15896905D01*
X142910714Y58410120D02*
X142910714Y57600596D01*
X142958333Y57505358D01*
X143005952Y57457739D01*
X143101190Y57410120D01*
X143291666Y57410120D01*
X143386904Y57457739D01*
X143434523Y57505358D01*
X143482142Y57600596D01*
X143482142Y58410120D01*
X144482142Y57410120D02*
X143910714Y57410120D01*
X144196428Y57410120D02*
X144196428Y58410120D01*
X144101190Y58267262D01*
X144005952Y58172024D01*
X143910714Y58124405D01*
X144863095Y58314881D02*
X144910714Y58362500D01*
X145005952Y58410120D01*
X145244047Y58410120D01*
X145339285Y58362500D01*
X145386904Y58314881D01*
X145434523Y58219643D01*
X145434523Y58124405D01*
X145386904Y57981548D01*
X144815476Y57410120D01*
X145434523Y57410120D01*
X146053571Y58410120D02*
X146148809Y58410120D01*
X146244047Y58362500D01*
X146291666Y58314881D01*
X146339285Y58219643D01*
X146386904Y58029167D01*
X146386904Y57791072D01*
X146339285Y57600596D01*
X146291666Y57505358D01*
X146244047Y57457739D01*
X146148809Y57410120D01*
X146053571Y57410120D01*
X145958333Y57457739D01*
X145910714Y57505358D01*
X145863095Y57600596D01*
X145815476Y57791072D01*
X145815476Y58029167D01*
X145863095Y58219643D01*
X145910714Y58314881D01*
X145958333Y58362500D01*
X146053571Y58410120D01*
X98460714Y70157620D02*
X98460714Y69348096D01*
X98508333Y69252858D01*
X98555952Y69205239D01*
X98651190Y69157620D01*
X98841666Y69157620D01*
X98936904Y69205239D01*
X98984523Y69252858D01*
X99032142Y69348096D01*
X99032142Y70157620D01*
X100032142Y69157620D02*
X99460714Y69157620D01*
X99746428Y69157620D02*
X99746428Y70157620D01*
X99651190Y70014762D01*
X99555952Y69919524D01*
X99460714Y69871905D01*
X100651190Y70157620D02*
X100746428Y70157620D01*
X100841666Y70110000D01*
X100889285Y70062381D01*
X100936904Y69967143D01*
X100984523Y69776667D01*
X100984523Y69538572D01*
X100936904Y69348096D01*
X100889285Y69252858D01*
X100841666Y69205239D01*
X100746428Y69157620D01*
X100651190Y69157620D01*
X100555952Y69205239D01*
X100508333Y69252858D01*
X100460714Y69348096D01*
X100413095Y69538572D01*
X100413095Y69776667D01*
X100460714Y69967143D01*
X100508333Y70062381D01*
X100555952Y70110000D01*
X100651190Y70157620D01*
X101317857Y70157620D02*
X101936904Y70157620D01*
X101603571Y69776667D01*
X101746428Y69776667D01*
X101841666Y69729048D01*
X101889285Y69681429D01*
X101936904Y69586191D01*
X101936904Y69348096D01*
X101889285Y69252858D01*
X101841666Y69205239D01*
X101746428Y69157620D01*
X101460714Y69157620D01*
X101365476Y69205239D01*
X101317857Y69252858D01*
X98270214Y46599120D02*
X98270214Y45789596D01*
X98317833Y45694358D01*
X98365452Y45646739D01*
X98460690Y45599120D01*
X98651166Y45599120D01*
X98746404Y45646739D01*
X98794023Y45694358D01*
X98841642Y45789596D01*
X98841642Y46599120D01*
X99841642Y45599120D02*
X99270214Y45599120D01*
X99555928Y45599120D02*
X99555928Y46599120D01*
X99460690Y46456262D01*
X99365452Y46361024D01*
X99270214Y46313405D01*
X100460690Y46599120D02*
X100555928Y46599120D01*
X100651166Y46551500D01*
X100698785Y46503881D01*
X100746404Y46408643D01*
X100794023Y46218167D01*
X100794023Y45980072D01*
X100746404Y45789596D01*
X100698785Y45694358D01*
X100651166Y45646739D01*
X100555928Y45599120D01*
X100460690Y45599120D01*
X100365452Y45646739D01*
X100317833Y45694358D01*
X100270214Y45789596D01*
X100222595Y45980072D01*
X100222595Y46218167D01*
X100270214Y46408643D01*
X100317833Y46503881D01*
X100365452Y46551500D01*
X100460690Y46599120D01*
X101174976Y46503881D02*
X101222595Y46551500D01*
X101317833Y46599120D01*
X101555928Y46599120D01*
X101651166Y46551500D01*
X101698785Y46503881D01*
X101746404Y46408643D01*
X101746404Y46313405D01*
X101698785Y46170548D01*
X101127357Y45599120D01*
X101746404Y45599120D01*
X42580714Y70157620D02*
X42580714Y69348096D01*
X42628333Y69252858D01*
X42675952Y69205239D01*
X42771190Y69157620D01*
X42961666Y69157620D01*
X43056904Y69205239D01*
X43104523Y69252858D01*
X43152142Y69348096D01*
X43152142Y70157620D01*
X44152142Y69157620D02*
X43580714Y69157620D01*
X43866428Y69157620D02*
X43866428Y70157620D01*
X43771190Y70014762D01*
X43675952Y69919524D01*
X43580714Y69871905D01*
X44771190Y70157620D02*
X44866428Y70157620D01*
X44961666Y70110000D01*
X45009285Y70062381D01*
X45056904Y69967143D01*
X45104523Y69776667D01*
X45104523Y69538572D01*
X45056904Y69348096D01*
X45009285Y69252858D01*
X44961666Y69205239D01*
X44866428Y69157620D01*
X44771190Y69157620D01*
X44675952Y69205239D01*
X44628333Y69252858D01*
X44580714Y69348096D01*
X44533095Y69538572D01*
X44533095Y69776667D01*
X44580714Y69967143D01*
X44628333Y70062381D01*
X44675952Y70110000D01*
X44771190Y70157620D01*
X46056904Y69157620D02*
X45485476Y69157620D01*
X45771190Y69157620D02*
X45771190Y70157620D01*
X45675952Y70014762D01*
X45580714Y69919524D01*
X45485476Y69871905D01*
X42580714Y46662620D02*
X42580714Y45853096D01*
X42628333Y45757858D01*
X42675952Y45710239D01*
X42771190Y45662620D01*
X42961666Y45662620D01*
X43056904Y45710239D01*
X43104523Y45757858D01*
X43152142Y45853096D01*
X43152142Y46662620D01*
X44152142Y45662620D02*
X43580714Y45662620D01*
X43866428Y45662620D02*
X43866428Y46662620D01*
X43771190Y46519762D01*
X43675952Y46424524D01*
X43580714Y46376905D01*
X44771190Y46662620D02*
X44866428Y46662620D01*
X44961666Y46615000D01*
X45009285Y46567381D01*
X45056904Y46472143D01*
X45104523Y46281667D01*
X45104523Y46043572D01*
X45056904Y45853096D01*
X45009285Y45757858D01*
X44961666Y45710239D01*
X44866428Y45662620D01*
X44771190Y45662620D01*
X44675952Y45710239D01*
X44628333Y45757858D01*
X44580714Y45853096D01*
X44533095Y46043572D01*
X44533095Y46281667D01*
X44580714Y46472143D01*
X44628333Y46567381D01*
X44675952Y46615000D01*
X44771190Y46662620D01*
X45723571Y46662620D02*
X45818809Y46662620D01*
X45914047Y46615000D01*
X45961666Y46567381D01*
X46009285Y46472143D01*
X46056904Y46281667D01*
X46056904Y46043572D01*
X46009285Y45853096D01*
X45961666Y45757858D01*
X45914047Y45710239D01*
X45818809Y45662620D01*
X45723571Y45662620D01*
X45628333Y45710239D01*
X45580714Y45757858D01*
X45533095Y45853096D01*
X45485476Y46043572D01*
X45485476Y46281667D01*
X45533095Y46472143D01*
X45580714Y46567381D01*
X45628333Y46615000D01*
X45723571Y46662620D01*
X40689595Y109797620D02*
X40689595Y108988096D01*
X40737214Y108892858D01*
X40784833Y108845239D01*
X40880071Y108797620D01*
X41070547Y108797620D01*
X41165785Y108845239D01*
X41213404Y108892858D01*
X41261023Y108988096D01*
X41261023Y109797620D01*
X41689595Y109702381D02*
X41737214Y109750000D01*
X41832452Y109797620D01*
X42070547Y109797620D01*
X42165785Y109750000D01*
X42213404Y109702381D01*
X42261023Y109607143D01*
X42261023Y109511905D01*
X42213404Y109369048D01*
X41641976Y108797620D01*
X42261023Y108797620D01*
X82696785Y17641620D02*
X83268214Y17641620D01*
X82982500Y16641620D02*
X82982500Y17641620D01*
X83601547Y16641620D02*
X83601547Y17641620D01*
X83601547Y17165429D02*
X84172976Y17165429D01*
X84172976Y16641620D02*
X84172976Y17641620D01*
X85077738Y17308286D02*
X85077738Y16641620D01*
X84839642Y17689239D02*
X84601547Y16974953D01*
X85220595Y16974953D01*
X69044285Y17641620D02*
X69615714Y17641620D01*
X69330000Y16641620D02*
X69330000Y17641620D01*
X69949047Y16641620D02*
X69949047Y17641620D01*
X69949047Y17165429D02*
X70520476Y17165429D01*
X70520476Y16641620D02*
X70520476Y17641620D01*
X70901428Y17641620D02*
X71520476Y17641620D01*
X71187142Y17260667D01*
X71330000Y17260667D01*
X71425238Y17213048D01*
X71472857Y17165429D01*
X71520476Y17070191D01*
X71520476Y16832096D01*
X71472857Y16736858D01*
X71425238Y16689239D01*
X71330000Y16641620D01*
X71044285Y16641620D01*
X70949047Y16689239D01*
X70901428Y16736858D01*
X55391785Y17641620D02*
X55963214Y17641620D01*
X55677500Y16641620D02*
X55677500Y17641620D01*
X56296547Y16641620D02*
X56296547Y17641620D01*
X56296547Y17165429D02*
X56867976Y17165429D01*
X56867976Y16641620D02*
X56867976Y17641620D01*
X57296547Y17546381D02*
X57344166Y17594000D01*
X57439404Y17641620D01*
X57677500Y17641620D01*
X57772738Y17594000D01*
X57820357Y17546381D01*
X57867976Y17451143D01*
X57867976Y17355905D01*
X57820357Y17213048D01*
X57248928Y16641620D01*
X57867976Y16641620D01*
X41739285Y17641620D02*
X42310714Y17641620D01*
X42025000Y16641620D02*
X42025000Y17641620D01*
X42644047Y16641620D02*
X42644047Y17641620D01*
X42644047Y17165429D02*
X43215476Y17165429D01*
X43215476Y16641620D02*
X43215476Y17641620D01*
X44215476Y16641620D02*
X43644047Y16641620D01*
X43929761Y16641620D02*
X43929761Y17641620D01*
X43834523Y17498762D01*
X43739285Y17403524D01*
X43644047Y17355905D01*
X28080666Y4099239D02*
X28223523Y4051620D01*
X28461619Y4051620D01*
X28556857Y4099239D01*
X28604476Y4146858D01*
X28652095Y4242096D01*
X28652095Y4337334D01*
X28604476Y4432572D01*
X28556857Y4480191D01*
X28461619Y4527810D01*
X28271142Y4575429D01*
X28175904Y4623048D01*
X28128285Y4670667D01*
X28080666Y4765905D01*
X28080666Y4861143D01*
X28128285Y4956381D01*
X28175904Y5004000D01*
X28271142Y5051620D01*
X28509238Y5051620D01*
X28652095Y5004000D01*
X28985428Y5051620D02*
X29223523Y4051620D01*
X29414000Y4765905D01*
X29604476Y4051620D01*
X29842571Y5051620D01*
X30747333Y4051620D02*
X30175904Y4051620D01*
X30461619Y4051620D02*
X30461619Y5051620D01*
X30366380Y4908762D01*
X30271142Y4813524D01*
X30175904Y4765905D01*
X119741190Y83445120D02*
X119407857Y83921310D01*
X119169761Y83445120D02*
X119169761Y84445120D01*
X119550714Y84445120D01*
X119645952Y84397500D01*
X119693571Y84349881D01*
X119741190Y84254643D01*
X119741190Y84111786D01*
X119693571Y84016548D01*
X119645952Y83968929D01*
X119550714Y83921310D01*
X119169761Y83921310D01*
X120026904Y84445120D02*
X120360238Y83445120D01*
X120693571Y84445120D01*
X121455476Y84111786D02*
X121455476Y83445120D01*
X121217380Y84492739D02*
X120979285Y83778453D01*
X121598333Y83778453D01*
X121884047Y84445120D02*
X122503095Y84445120D01*
X122169761Y84064167D01*
X122312619Y84064167D01*
X122407857Y84016548D01*
X122455476Y83968929D01*
X122503095Y83873691D01*
X122503095Y83635596D01*
X122455476Y83540358D01*
X122407857Y83492739D01*
X122312619Y83445120D01*
X122026904Y83445120D01*
X121931666Y83492739D01*
X121884047Y83540358D01*
X123122142Y84445120D02*
X123217380Y84445120D01*
X123312619Y84397500D01*
X123360238Y84349881D01*
X123407857Y84254643D01*
X123455476Y84064167D01*
X123455476Y83826072D01*
X123407857Y83635596D01*
X123360238Y83540358D01*
X123312619Y83492739D01*
X123217380Y83445120D01*
X123122142Y83445120D01*
X123026904Y83492739D01*
X122979285Y83540358D01*
X122931666Y83635596D01*
X122884047Y83826072D01*
X122884047Y84064167D01*
X122931666Y84254643D01*
X122979285Y84349881D01*
X123026904Y84397500D01*
X123122142Y84445120D01*
X123931666Y83445120D02*
X124122142Y83445120D01*
X124217380Y83492739D01*
X124265000Y83540358D01*
X124360238Y83683215D01*
X124407857Y83873691D01*
X124407857Y84254643D01*
X124360238Y84349881D01*
X124312619Y84397500D01*
X124217380Y84445120D01*
X124026904Y84445120D01*
X123931666Y84397500D01*
X123884047Y84349881D01*
X123836428Y84254643D01*
X123836428Y84016548D01*
X123884047Y83921310D01*
X123931666Y83873691D01*
X124026904Y83826072D01*
X124217380Y83826072D01*
X124312619Y83873691D01*
X124360238Y83921310D01*
X124407857Y84016548D01*
X108946190Y83445120D02*
X108612857Y83921310D01*
X108374761Y83445120D02*
X108374761Y84445120D01*
X108755714Y84445120D01*
X108850952Y84397500D01*
X108898571Y84349881D01*
X108946190Y84254643D01*
X108946190Y84111786D01*
X108898571Y84016548D01*
X108850952Y83968929D01*
X108755714Y83921310D01*
X108374761Y83921310D01*
X109231904Y84445120D02*
X109565238Y83445120D01*
X109898571Y84445120D01*
X110660476Y84111786D02*
X110660476Y83445120D01*
X110422380Y84492739D02*
X110184285Y83778453D01*
X110803333Y83778453D01*
X111089047Y84445120D02*
X111708095Y84445120D01*
X111374761Y84064167D01*
X111517619Y84064167D01*
X111612857Y84016548D01*
X111660476Y83968929D01*
X111708095Y83873691D01*
X111708095Y83635596D01*
X111660476Y83540358D01*
X111612857Y83492739D01*
X111517619Y83445120D01*
X111231904Y83445120D01*
X111136666Y83492739D01*
X111089047Y83540358D01*
X112327142Y84445120D02*
X112422380Y84445120D01*
X112517619Y84397500D01*
X112565238Y84349881D01*
X112612857Y84254643D01*
X112660476Y84064167D01*
X112660476Y83826072D01*
X112612857Y83635596D01*
X112565238Y83540358D01*
X112517619Y83492739D01*
X112422380Y83445120D01*
X112327142Y83445120D01*
X112231904Y83492739D01*
X112184285Y83540358D01*
X112136666Y83635596D01*
X112089047Y83826072D01*
X112089047Y84064167D01*
X112136666Y84254643D01*
X112184285Y84349881D01*
X112231904Y84397500D01*
X112327142Y84445120D01*
X113041428Y84349881D02*
X113089047Y84397500D01*
X113184285Y84445120D01*
X113422380Y84445120D01*
X113517619Y84397500D01*
X113565238Y84349881D01*
X113612857Y84254643D01*
X113612857Y84159405D01*
X113565238Y84016548D01*
X112993809Y83445120D01*
X113612857Y83445120D01*
X130218690Y83445120D02*
X129885357Y83921310D01*
X129647261Y83445120D02*
X129647261Y84445120D01*
X130028214Y84445120D01*
X130123452Y84397500D01*
X130171071Y84349881D01*
X130218690Y84254643D01*
X130218690Y84111786D01*
X130171071Y84016548D01*
X130123452Y83968929D01*
X130028214Y83921310D01*
X129647261Y83921310D01*
X130504404Y84445120D02*
X130837738Y83445120D01*
X131171071Y84445120D01*
X131932976Y84111786D02*
X131932976Y83445120D01*
X131694880Y84492739D02*
X131456785Y83778453D01*
X132075833Y83778453D01*
X132361547Y84445120D02*
X132980595Y84445120D01*
X132647261Y84064167D01*
X132790119Y84064167D01*
X132885357Y84016548D01*
X132932976Y83968929D01*
X132980595Y83873691D01*
X132980595Y83635596D01*
X132932976Y83540358D01*
X132885357Y83492739D01*
X132790119Y83445120D01*
X132504404Y83445120D01*
X132409166Y83492739D01*
X132361547Y83540358D01*
X133599642Y84445120D02*
X133694880Y84445120D01*
X133790119Y84397500D01*
X133837738Y84349881D01*
X133885357Y84254643D01*
X133932976Y84064167D01*
X133932976Y83826072D01*
X133885357Y83635596D01*
X133837738Y83540358D01*
X133790119Y83492739D01*
X133694880Y83445120D01*
X133599642Y83445120D01*
X133504404Y83492739D01*
X133456785Y83540358D01*
X133409166Y83635596D01*
X133361547Y83826072D01*
X133361547Y84064167D01*
X133409166Y84254643D01*
X133456785Y84349881D01*
X133504404Y84397500D01*
X133599642Y84445120D01*
X134885357Y83445120D02*
X134313928Y83445120D01*
X134599642Y83445120D02*
X134599642Y84445120D01*
X134504404Y84302262D01*
X134409166Y84207024D01*
X134313928Y84159405D01*
X119741190Y60267620D02*
X119407857Y60743810D01*
X119169761Y60267620D02*
X119169761Y61267620D01*
X119550714Y61267620D01*
X119645952Y61220000D01*
X119693571Y61172381D01*
X119741190Y61077143D01*
X119741190Y60934286D01*
X119693571Y60839048D01*
X119645952Y60791429D01*
X119550714Y60743810D01*
X119169761Y60743810D01*
X120026904Y61267620D02*
X120360238Y60267620D01*
X120693571Y61267620D01*
X121455476Y60934286D02*
X121455476Y60267620D01*
X121217380Y61315239D02*
X120979285Y60600953D01*
X121598333Y60600953D01*
X121931666Y61172381D02*
X121979285Y61220000D01*
X122074523Y61267620D01*
X122312619Y61267620D01*
X122407857Y61220000D01*
X122455476Y61172381D01*
X122503095Y61077143D01*
X122503095Y60981905D01*
X122455476Y60839048D01*
X121884047Y60267620D01*
X122503095Y60267620D01*
X123122142Y61267620D02*
X123217380Y61267620D01*
X123312619Y61220000D01*
X123360238Y61172381D01*
X123407857Y61077143D01*
X123455476Y60886667D01*
X123455476Y60648572D01*
X123407857Y60458096D01*
X123360238Y60362858D01*
X123312619Y60315239D01*
X123217380Y60267620D01*
X123122142Y60267620D01*
X123026904Y60315239D01*
X122979285Y60362858D01*
X122931666Y60458096D01*
X122884047Y60648572D01*
X122884047Y60886667D01*
X122931666Y61077143D01*
X122979285Y61172381D01*
X123026904Y61220000D01*
X123122142Y61267620D01*
X123931666Y60267620D02*
X124122142Y60267620D01*
X124217380Y60315239D01*
X124265000Y60362858D01*
X124360238Y60505715D01*
X124407857Y60696191D01*
X124407857Y61077143D01*
X124360238Y61172381D01*
X124312619Y61220000D01*
X124217380Y61267620D01*
X124026904Y61267620D01*
X123931666Y61220000D01*
X123884047Y61172381D01*
X123836428Y61077143D01*
X123836428Y60839048D01*
X123884047Y60743810D01*
X123931666Y60696191D01*
X124026904Y60648572D01*
X124217380Y60648572D01*
X124312619Y60696191D01*
X124360238Y60743810D01*
X124407857Y60839048D01*
X108946190Y60267620D02*
X108612857Y60743810D01*
X108374761Y60267620D02*
X108374761Y61267620D01*
X108755714Y61267620D01*
X108850952Y61220000D01*
X108898571Y61172381D01*
X108946190Y61077143D01*
X108946190Y60934286D01*
X108898571Y60839048D01*
X108850952Y60791429D01*
X108755714Y60743810D01*
X108374761Y60743810D01*
X109231904Y61267620D02*
X109565238Y60267620D01*
X109898571Y61267620D01*
X110660476Y60934286D02*
X110660476Y60267620D01*
X110422380Y61315239D02*
X110184285Y60600953D01*
X110803333Y60600953D01*
X111136666Y61172381D02*
X111184285Y61220000D01*
X111279523Y61267620D01*
X111517619Y61267620D01*
X111612857Y61220000D01*
X111660476Y61172381D01*
X111708095Y61077143D01*
X111708095Y60981905D01*
X111660476Y60839048D01*
X111089047Y60267620D01*
X111708095Y60267620D01*
X112327142Y61267620D02*
X112422380Y61267620D01*
X112517619Y61220000D01*
X112565238Y61172381D01*
X112612857Y61077143D01*
X112660476Y60886667D01*
X112660476Y60648572D01*
X112612857Y60458096D01*
X112565238Y60362858D01*
X112517619Y60315239D01*
X112422380Y60267620D01*
X112327142Y60267620D01*
X112231904Y60315239D01*
X112184285Y60362858D01*
X112136666Y60458096D01*
X112089047Y60648572D01*
X112089047Y60886667D01*
X112136666Y61077143D01*
X112184285Y61172381D01*
X112231904Y61220000D01*
X112327142Y61267620D01*
X113041428Y61172381D02*
X113089047Y61220000D01*
X113184285Y61267620D01*
X113422380Y61267620D01*
X113517619Y61220000D01*
X113565238Y61172381D01*
X113612857Y61077143D01*
X113612857Y60981905D01*
X113565238Y60839048D01*
X112993809Y60267620D01*
X113612857Y60267620D01*
X130262190Y60143620D02*
X129928857Y60619810D01*
X129690761Y60143620D02*
X129690761Y61143620D01*
X130071714Y61143620D01*
X130166952Y61096000D01*
X130214571Y61048381D01*
X130262190Y60953143D01*
X130262190Y60810286D01*
X130214571Y60715048D01*
X130166952Y60667429D01*
X130071714Y60619810D01*
X129690761Y60619810D01*
X130547904Y61143620D02*
X130881238Y60143620D01*
X131214571Y61143620D01*
X131976476Y60810286D02*
X131976476Y60143620D01*
X131738380Y61191239D02*
X131500285Y60476953D01*
X132119333Y60476953D01*
X132452666Y61048381D02*
X132500285Y61096000D01*
X132595523Y61143620D01*
X132833619Y61143620D01*
X132928857Y61096000D01*
X132976476Y61048381D01*
X133024095Y60953143D01*
X133024095Y60857905D01*
X132976476Y60715048D01*
X132405047Y60143620D01*
X133024095Y60143620D01*
X133643142Y61143620D02*
X133738380Y61143620D01*
X133833619Y61096000D01*
X133881238Y61048381D01*
X133928857Y60953143D01*
X133976476Y60762667D01*
X133976476Y60524572D01*
X133928857Y60334096D01*
X133881238Y60238858D01*
X133833619Y60191239D01*
X133738380Y60143620D01*
X133643142Y60143620D01*
X133547904Y60191239D01*
X133500285Y60238858D01*
X133452666Y60334096D01*
X133405047Y60524572D01*
X133405047Y60762667D01*
X133452666Y60953143D01*
X133500285Y61048381D01*
X133547904Y61096000D01*
X133643142Y61143620D01*
X134928857Y60143620D02*
X134357428Y60143620D01*
X134643142Y60143620D02*
X134643142Y61143620D01*
X134547904Y61000762D01*
X134452666Y60905524D01*
X134357428Y60857905D01*
X63861190Y83318120D02*
X63527857Y83794310D01*
X63289761Y83318120D02*
X63289761Y84318120D01*
X63670714Y84318120D01*
X63765952Y84270500D01*
X63813571Y84222881D01*
X63861190Y84127643D01*
X63861190Y83984786D01*
X63813571Y83889548D01*
X63765952Y83841929D01*
X63670714Y83794310D01*
X63289761Y83794310D01*
X64146904Y84318120D02*
X64480238Y83318120D01*
X64813571Y84318120D01*
X65575476Y83984786D02*
X65575476Y83318120D01*
X65337380Y84365739D02*
X65099285Y83651453D01*
X65718333Y83651453D01*
X66623095Y83318120D02*
X66051666Y83318120D01*
X66337380Y83318120D02*
X66337380Y84318120D01*
X66242142Y84175262D01*
X66146904Y84080024D01*
X66051666Y84032405D01*
X67242142Y84318120D02*
X67337380Y84318120D01*
X67432619Y84270500D01*
X67480238Y84222881D01*
X67527857Y84127643D01*
X67575476Y83937167D01*
X67575476Y83699072D01*
X67527857Y83508596D01*
X67480238Y83413358D01*
X67432619Y83365739D01*
X67337380Y83318120D01*
X67242142Y83318120D01*
X67146904Y83365739D01*
X67099285Y83413358D01*
X67051666Y83508596D01*
X67004047Y83699072D01*
X67004047Y83937167D01*
X67051666Y84127643D01*
X67099285Y84222881D01*
X67146904Y84270500D01*
X67242142Y84318120D01*
X68051666Y83318120D02*
X68242142Y83318120D01*
X68337380Y83365739D01*
X68385000Y83413358D01*
X68480238Y83556215D01*
X68527857Y83746691D01*
X68527857Y84127643D01*
X68480238Y84222881D01*
X68432619Y84270500D01*
X68337380Y84318120D01*
X68146904Y84318120D01*
X68051666Y84270500D01*
X68004047Y84222881D01*
X67956428Y84127643D01*
X67956428Y83889548D01*
X68004047Y83794310D01*
X68051666Y83746691D01*
X68146904Y83699072D01*
X68337380Y83699072D01*
X68432619Y83746691D01*
X68480238Y83794310D01*
X68527857Y83889548D01*
X53066190Y83381620D02*
X52732857Y83857810D01*
X52494761Y83381620D02*
X52494761Y84381620D01*
X52875714Y84381620D01*
X52970952Y84334000D01*
X53018571Y84286381D01*
X53066190Y84191143D01*
X53066190Y84048286D01*
X53018571Y83953048D01*
X52970952Y83905429D01*
X52875714Y83857810D01*
X52494761Y83857810D01*
X53351904Y84381620D02*
X53685238Y83381620D01*
X54018571Y84381620D01*
X54780476Y84048286D02*
X54780476Y83381620D01*
X54542380Y84429239D02*
X54304285Y83714953D01*
X54923333Y83714953D01*
X55828095Y83381620D02*
X55256666Y83381620D01*
X55542380Y83381620D02*
X55542380Y84381620D01*
X55447142Y84238762D01*
X55351904Y84143524D01*
X55256666Y84095905D01*
X56447142Y84381620D02*
X56542380Y84381620D01*
X56637619Y84334000D01*
X56685238Y84286381D01*
X56732857Y84191143D01*
X56780476Y84000667D01*
X56780476Y83762572D01*
X56732857Y83572096D01*
X56685238Y83476858D01*
X56637619Y83429239D01*
X56542380Y83381620D01*
X56447142Y83381620D01*
X56351904Y83429239D01*
X56304285Y83476858D01*
X56256666Y83572096D01*
X56209047Y83762572D01*
X56209047Y84000667D01*
X56256666Y84191143D01*
X56304285Y84286381D01*
X56351904Y84334000D01*
X56447142Y84381620D01*
X57161428Y84286381D02*
X57209047Y84334000D01*
X57304285Y84381620D01*
X57542380Y84381620D01*
X57637619Y84334000D01*
X57685238Y84286381D01*
X57732857Y84191143D01*
X57732857Y84095905D01*
X57685238Y83953048D01*
X57113809Y83381620D01*
X57732857Y83381620D01*
X74529190Y84588120D02*
X74195857Y85064310D01*
X73957761Y84588120D02*
X73957761Y85588120D01*
X74338714Y85588120D01*
X74433952Y85540500D01*
X74481571Y85492881D01*
X74529190Y85397643D01*
X74529190Y85254786D01*
X74481571Y85159548D01*
X74433952Y85111929D01*
X74338714Y85064310D01*
X73957761Y85064310D01*
X74814904Y85588120D02*
X75148238Y84588120D01*
X75481571Y85588120D01*
X76243476Y85254786D02*
X76243476Y84588120D01*
X76005380Y85635739D02*
X75767285Y84921453D01*
X76386333Y84921453D01*
X77291095Y84588120D02*
X76719666Y84588120D01*
X77005380Y84588120D02*
X77005380Y85588120D01*
X76910142Y85445262D01*
X76814904Y85350024D01*
X76719666Y85302405D01*
X77910142Y85588120D02*
X78005380Y85588120D01*
X78100619Y85540500D01*
X78148238Y85492881D01*
X78195857Y85397643D01*
X78243476Y85207167D01*
X78243476Y84969072D01*
X78195857Y84778596D01*
X78148238Y84683358D01*
X78100619Y84635739D01*
X78005380Y84588120D01*
X77910142Y84588120D01*
X77814904Y84635739D01*
X77767285Y84683358D01*
X77719666Y84778596D01*
X77672047Y84969072D01*
X77672047Y85207167D01*
X77719666Y85397643D01*
X77767285Y85492881D01*
X77814904Y85540500D01*
X77910142Y85588120D01*
X79195857Y84588120D02*
X78624428Y84588120D01*
X78910142Y84588120D02*
X78910142Y85588120D01*
X78814904Y85445262D01*
X78719666Y85350024D01*
X78624428Y85302405D01*
X63861190Y60267620D02*
X63527857Y60743810D01*
X63289761Y60267620D02*
X63289761Y61267620D01*
X63670714Y61267620D01*
X63765952Y61220000D01*
X63813571Y61172381D01*
X63861190Y61077143D01*
X63861190Y60934286D01*
X63813571Y60839048D01*
X63765952Y60791429D01*
X63670714Y60743810D01*
X63289761Y60743810D01*
X64146904Y61267620D02*
X64480238Y60267620D01*
X64813571Y61267620D01*
X65575476Y60934286D02*
X65575476Y60267620D01*
X65337380Y61315239D02*
X65099285Y60600953D01*
X65718333Y60600953D01*
X66289761Y61267620D02*
X66385000Y61267620D01*
X66480238Y61220000D01*
X66527857Y61172381D01*
X66575476Y61077143D01*
X66623095Y60886667D01*
X66623095Y60648572D01*
X66575476Y60458096D01*
X66527857Y60362858D01*
X66480238Y60315239D01*
X66385000Y60267620D01*
X66289761Y60267620D01*
X66194523Y60315239D01*
X66146904Y60362858D01*
X66099285Y60458096D01*
X66051666Y60648572D01*
X66051666Y60886667D01*
X66099285Y61077143D01*
X66146904Y61172381D01*
X66194523Y61220000D01*
X66289761Y61267620D01*
X67242142Y61267620D02*
X67337380Y61267620D01*
X67432619Y61220000D01*
X67480238Y61172381D01*
X67527857Y61077143D01*
X67575476Y60886667D01*
X67575476Y60648572D01*
X67527857Y60458096D01*
X67480238Y60362858D01*
X67432619Y60315239D01*
X67337380Y60267620D01*
X67242142Y60267620D01*
X67146904Y60315239D01*
X67099285Y60362858D01*
X67051666Y60458096D01*
X67004047Y60648572D01*
X67004047Y60886667D01*
X67051666Y61077143D01*
X67099285Y61172381D01*
X67146904Y61220000D01*
X67242142Y61267620D01*
X68051666Y60267620D02*
X68242142Y60267620D01*
X68337380Y60315239D01*
X68385000Y60362858D01*
X68480238Y60505715D01*
X68527857Y60696191D01*
X68527857Y61077143D01*
X68480238Y61172381D01*
X68432619Y61220000D01*
X68337380Y61267620D01*
X68146904Y61267620D01*
X68051666Y61220000D01*
X68004047Y61172381D01*
X67956428Y61077143D01*
X67956428Y60839048D01*
X68004047Y60743810D01*
X68051666Y60696191D01*
X68146904Y60648572D01*
X68337380Y60648572D01*
X68432619Y60696191D01*
X68480238Y60743810D01*
X68527857Y60839048D01*
X53066190Y60117620D02*
X52732857Y60593810D01*
X52494761Y60117620D02*
X52494761Y61117620D01*
X52875714Y61117620D01*
X52970952Y61070000D01*
X53018571Y61022381D01*
X53066190Y60927143D01*
X53066190Y60784286D01*
X53018571Y60689048D01*
X52970952Y60641429D01*
X52875714Y60593810D01*
X52494761Y60593810D01*
X53351904Y61117620D02*
X53685238Y60117620D01*
X54018571Y61117620D01*
X54780476Y60784286D02*
X54780476Y60117620D01*
X54542380Y61165239D02*
X54304285Y60450953D01*
X54923333Y60450953D01*
X55494761Y61117620D02*
X55590000Y61117620D01*
X55685238Y61070000D01*
X55732857Y61022381D01*
X55780476Y60927143D01*
X55828095Y60736667D01*
X55828095Y60498572D01*
X55780476Y60308096D01*
X55732857Y60212858D01*
X55685238Y60165239D01*
X55590000Y60117620D01*
X55494761Y60117620D01*
X55399523Y60165239D01*
X55351904Y60212858D01*
X55304285Y60308096D01*
X55256666Y60498572D01*
X55256666Y60736667D01*
X55304285Y60927143D01*
X55351904Y61022381D01*
X55399523Y61070000D01*
X55494761Y61117620D01*
X56447142Y61117620D02*
X56542380Y61117620D01*
X56637619Y61070000D01*
X56685238Y61022381D01*
X56732857Y60927143D01*
X56780476Y60736667D01*
X56780476Y60498572D01*
X56732857Y60308096D01*
X56685238Y60212858D01*
X56637619Y60165239D01*
X56542380Y60117620D01*
X56447142Y60117620D01*
X56351904Y60165239D01*
X56304285Y60212858D01*
X56256666Y60308096D01*
X56209047Y60498572D01*
X56209047Y60736667D01*
X56256666Y60927143D01*
X56304285Y61022381D01*
X56351904Y61070000D01*
X56447142Y61117620D01*
X57161428Y61022381D02*
X57209047Y61070000D01*
X57304285Y61117620D01*
X57542380Y61117620D01*
X57637619Y61070000D01*
X57685238Y61022381D01*
X57732857Y60927143D01*
X57732857Y60831905D01*
X57685238Y60689048D01*
X57113809Y60117620D01*
X57732857Y60117620D01*
X74338690Y60267620D02*
X74005357Y60743810D01*
X73767261Y60267620D02*
X73767261Y61267620D01*
X74148214Y61267620D01*
X74243452Y61220000D01*
X74291071Y61172381D01*
X74338690Y61077143D01*
X74338690Y60934286D01*
X74291071Y60839048D01*
X74243452Y60791429D01*
X74148214Y60743810D01*
X73767261Y60743810D01*
X74624404Y61267620D02*
X74957738Y60267620D01*
X75291071Y61267620D01*
X76052976Y60934286D02*
X76052976Y60267620D01*
X75814880Y61315239D02*
X75576785Y60600953D01*
X76195833Y60600953D01*
X76767261Y61267620D02*
X76862500Y61267620D01*
X76957738Y61220000D01*
X77005357Y61172381D01*
X77052976Y61077143D01*
X77100595Y60886667D01*
X77100595Y60648572D01*
X77052976Y60458096D01*
X77005357Y60362858D01*
X76957738Y60315239D01*
X76862500Y60267620D01*
X76767261Y60267620D01*
X76672023Y60315239D01*
X76624404Y60362858D01*
X76576785Y60458096D01*
X76529166Y60648572D01*
X76529166Y60886667D01*
X76576785Y61077143D01*
X76624404Y61172381D01*
X76672023Y61220000D01*
X76767261Y61267620D01*
X77719642Y61267620D02*
X77814880Y61267620D01*
X77910119Y61220000D01*
X77957738Y61172381D01*
X78005357Y61077143D01*
X78052976Y60886667D01*
X78052976Y60648572D01*
X78005357Y60458096D01*
X77957738Y60362858D01*
X77910119Y60315239D01*
X77814880Y60267620D01*
X77719642Y60267620D01*
X77624404Y60315239D01*
X77576785Y60362858D01*
X77529166Y60458096D01*
X77481547Y60648572D01*
X77481547Y60886667D01*
X77529166Y61077143D01*
X77576785Y61172381D01*
X77624404Y61220000D01*
X77719642Y61267620D01*
X79005357Y60267620D02*
X78433928Y60267620D01*
X78719642Y60267620D02*
X78719642Y61267620D01*
X78624404Y61124762D01*
X78529166Y61029524D01*
X78433928Y60981905D01*
X122225380Y68014762D02*
X121749190Y67681429D01*
X122225380Y67443334D02*
X121225380Y67443334D01*
X121225380Y67824286D01*
X121273000Y67919524D01*
X121320619Y67967143D01*
X121415857Y68014762D01*
X121558714Y68014762D01*
X121653952Y67967143D01*
X121701571Y67919524D01*
X121749190Y67824286D01*
X121749190Y67443334D01*
X121558714Y68871905D02*
X122225380Y68871905D01*
X121177761Y68633810D02*
X121892047Y68395715D01*
X121892047Y69014762D01*
X121225380Y69300477D02*
X121225380Y69919524D01*
X121606333Y69586191D01*
X121606333Y69729048D01*
X121653952Y69824286D01*
X121701571Y69871905D01*
X121796809Y69919524D01*
X122034904Y69919524D01*
X122130142Y69871905D01*
X122177761Y69824286D01*
X122225380Y69729048D01*
X122225380Y69443334D01*
X122177761Y69348096D01*
X122130142Y69300477D01*
X122225380Y70871905D02*
X122225380Y70300477D01*
X122225380Y70586191D02*
X121225380Y70586191D01*
X121368238Y70490953D01*
X121463476Y70395715D01*
X121511095Y70300477D01*
X122225380Y71824286D02*
X122225380Y71252858D01*
X122225380Y71538572D02*
X121225380Y71538572D01*
X121368238Y71443334D01*
X121463476Y71348096D01*
X121511095Y71252858D01*
X131107380Y68014762D02*
X130631190Y67681429D01*
X131107380Y67443334D02*
X130107380Y67443334D01*
X130107380Y67824286D01*
X130155000Y67919524D01*
X130202619Y67967143D01*
X130297857Y68014762D01*
X130440714Y68014762D01*
X130535952Y67967143D01*
X130583571Y67919524D01*
X130631190Y67824286D01*
X130631190Y67443334D01*
X130440714Y68871905D02*
X131107380Y68871905D01*
X130059761Y68633810D02*
X130774047Y68395715D01*
X130774047Y69014762D01*
X130107380Y69300477D02*
X130107380Y69919524D01*
X130488333Y69586191D01*
X130488333Y69729048D01*
X130535952Y69824286D01*
X130583571Y69871905D01*
X130678809Y69919524D01*
X130916904Y69919524D01*
X131012142Y69871905D01*
X131059761Y69824286D01*
X131107380Y69729048D01*
X131107380Y69443334D01*
X131059761Y69348096D01*
X131012142Y69300477D01*
X131107380Y70871905D02*
X131107380Y70300477D01*
X131107380Y70586191D02*
X130107380Y70586191D01*
X130250238Y70490953D01*
X130345476Y70395715D01*
X130393095Y70300477D01*
X130107380Y71490953D02*
X130107380Y71586191D01*
X130155000Y71681429D01*
X130202619Y71729048D01*
X130297857Y71776667D01*
X130488333Y71824286D01*
X130726428Y71824286D01*
X130916904Y71776667D01*
X131012142Y71729048D01*
X131059761Y71681429D01*
X131107380Y71586191D01*
X131107380Y71490953D01*
X131059761Y71395715D01*
X131012142Y71348096D01*
X130916904Y71300477D01*
X130726428Y71252858D01*
X130488333Y71252858D01*
X130297857Y71300477D01*
X130202619Y71348096D01*
X130155000Y71395715D01*
X130107380Y71490953D01*
X135573380Y68014762D02*
X135097190Y67681429D01*
X135573380Y67443334D02*
X134573380Y67443334D01*
X134573380Y67824286D01*
X134621000Y67919524D01*
X134668619Y67967143D01*
X134763857Y68014762D01*
X134906714Y68014762D01*
X135001952Y67967143D01*
X135049571Y67919524D01*
X135097190Y67824286D01*
X135097190Y67443334D01*
X134906714Y68871905D02*
X135573380Y68871905D01*
X134525761Y68633810D02*
X135240047Y68395715D01*
X135240047Y69014762D01*
X134573380Y69300477D02*
X134573380Y69919524D01*
X134954333Y69586191D01*
X134954333Y69729048D01*
X135001952Y69824286D01*
X135049571Y69871905D01*
X135144809Y69919524D01*
X135382904Y69919524D01*
X135478142Y69871905D01*
X135525761Y69824286D01*
X135573380Y69729048D01*
X135573380Y69443334D01*
X135525761Y69348096D01*
X135478142Y69300477D01*
X134573380Y70538572D02*
X134573380Y70633810D01*
X134621000Y70729048D01*
X134668619Y70776667D01*
X134763857Y70824286D01*
X134954333Y70871905D01*
X135192428Y70871905D01*
X135382904Y70824286D01*
X135478142Y70776667D01*
X135525761Y70729048D01*
X135573380Y70633810D01*
X135573380Y70538572D01*
X135525761Y70443334D01*
X135478142Y70395715D01*
X135382904Y70348096D01*
X135192428Y70300477D01*
X134954333Y70300477D01*
X134763857Y70348096D01*
X134668619Y70395715D01*
X134621000Y70443334D01*
X134573380Y70538572D01*
X135001952Y71443334D02*
X134954333Y71348096D01*
X134906714Y71300477D01*
X134811476Y71252858D01*
X134763857Y71252858D01*
X134668619Y71300477D01*
X134621000Y71348096D01*
X134573380Y71443334D01*
X134573380Y71633810D01*
X134621000Y71729048D01*
X134668619Y71776667D01*
X134763857Y71824286D01*
X134811476Y71824286D01*
X134906714Y71776667D01*
X134954333Y71729048D01*
X135001952Y71633810D01*
X135001952Y71443334D01*
X135049571Y71348096D01*
X135097190Y71300477D01*
X135192428Y71252858D01*
X135382904Y71252858D01*
X135478142Y71300477D01*
X135525761Y71348096D01*
X135573380Y71443334D01*
X135573380Y71633810D01*
X135525761Y71729048D01*
X135478142Y71776667D01*
X135382904Y71824286D01*
X135192428Y71824286D01*
X135097190Y71776667D01*
X135049571Y71729048D01*
X135001952Y71633810D01*
X126647880Y68014762D02*
X126171690Y67681429D01*
X126647880Y67443334D02*
X125647880Y67443334D01*
X125647880Y67824286D01*
X125695500Y67919524D01*
X125743119Y67967143D01*
X125838357Y68014762D01*
X125981214Y68014762D01*
X126076452Y67967143D01*
X126124071Y67919524D01*
X126171690Y67824286D01*
X126171690Y67443334D01*
X125981214Y68871905D02*
X126647880Y68871905D01*
X125600261Y68633810D02*
X126314547Y68395715D01*
X126314547Y69014762D01*
X125647880Y69300477D02*
X125647880Y69919524D01*
X126028833Y69586191D01*
X126028833Y69729048D01*
X126076452Y69824286D01*
X126124071Y69871905D01*
X126219309Y69919524D01*
X126457404Y69919524D01*
X126552642Y69871905D01*
X126600261Y69824286D01*
X126647880Y69729048D01*
X126647880Y69443334D01*
X126600261Y69348096D01*
X126552642Y69300477D01*
X125647880Y70538572D02*
X125647880Y70633810D01*
X125695500Y70729048D01*
X125743119Y70776667D01*
X125838357Y70824286D01*
X126028833Y70871905D01*
X126266928Y70871905D01*
X126457404Y70824286D01*
X126552642Y70776667D01*
X126600261Y70729048D01*
X126647880Y70633810D01*
X126647880Y70538572D01*
X126600261Y70443334D01*
X126552642Y70395715D01*
X126457404Y70348096D01*
X126266928Y70300477D01*
X126028833Y70300477D01*
X125838357Y70348096D01*
X125743119Y70395715D01*
X125695500Y70443334D01*
X125647880Y70538572D01*
X125647880Y71205239D02*
X125647880Y71871905D01*
X126647880Y71443334D01*
X113325880Y68014762D02*
X112849690Y67681429D01*
X113325880Y67443334D02*
X112325880Y67443334D01*
X112325880Y67824286D01*
X112373500Y67919524D01*
X112421119Y67967143D01*
X112516357Y68014762D01*
X112659214Y68014762D01*
X112754452Y67967143D01*
X112802071Y67919524D01*
X112849690Y67824286D01*
X112849690Y67443334D01*
X112659214Y68871905D02*
X113325880Y68871905D01*
X112278261Y68633810D02*
X112992547Y68395715D01*
X112992547Y69014762D01*
X112325880Y69300477D02*
X112325880Y69919524D01*
X112706833Y69586191D01*
X112706833Y69729048D01*
X112754452Y69824286D01*
X112802071Y69871905D01*
X112897309Y69919524D01*
X113135404Y69919524D01*
X113230642Y69871905D01*
X113278261Y69824286D01*
X113325880Y69729048D01*
X113325880Y69443334D01*
X113278261Y69348096D01*
X113230642Y69300477D01*
X112325880Y70538572D02*
X112325880Y70633810D01*
X112373500Y70729048D01*
X112421119Y70776667D01*
X112516357Y70824286D01*
X112706833Y70871905D01*
X112944928Y70871905D01*
X113135404Y70824286D01*
X113230642Y70776667D01*
X113278261Y70729048D01*
X113325880Y70633810D01*
X113325880Y70538572D01*
X113278261Y70443334D01*
X113230642Y70395715D01*
X113135404Y70348096D01*
X112944928Y70300477D01*
X112706833Y70300477D01*
X112516357Y70348096D01*
X112421119Y70395715D01*
X112373500Y70443334D01*
X112325880Y70538572D01*
X112325880Y71729048D02*
X112325880Y71538572D01*
X112373500Y71443334D01*
X112421119Y71395715D01*
X112563976Y71300477D01*
X112754452Y71252858D01*
X113135404Y71252858D01*
X113230642Y71300477D01*
X113278261Y71348096D01*
X113325880Y71443334D01*
X113325880Y71633810D01*
X113278261Y71729048D01*
X113230642Y71776667D01*
X113135404Y71824286D01*
X112897309Y71824286D01*
X112802071Y71776667D01*
X112754452Y71729048D01*
X112706833Y71633810D01*
X112706833Y71443334D01*
X112754452Y71348096D01*
X112802071Y71300477D01*
X112897309Y71252858D01*
X108890380Y68014762D02*
X108414190Y67681429D01*
X108890380Y67443334D02*
X107890380Y67443334D01*
X107890380Y67824286D01*
X107938000Y67919524D01*
X107985619Y67967143D01*
X108080857Y68014762D01*
X108223714Y68014762D01*
X108318952Y67967143D01*
X108366571Y67919524D01*
X108414190Y67824286D01*
X108414190Y67443334D01*
X108223714Y68871905D02*
X108890380Y68871905D01*
X107842761Y68633810D02*
X108557047Y68395715D01*
X108557047Y69014762D01*
X107890380Y69300477D02*
X107890380Y69919524D01*
X108271333Y69586191D01*
X108271333Y69729048D01*
X108318952Y69824286D01*
X108366571Y69871905D01*
X108461809Y69919524D01*
X108699904Y69919524D01*
X108795142Y69871905D01*
X108842761Y69824286D01*
X108890380Y69729048D01*
X108890380Y69443334D01*
X108842761Y69348096D01*
X108795142Y69300477D01*
X107890380Y70538572D02*
X107890380Y70633810D01*
X107938000Y70729048D01*
X107985619Y70776667D01*
X108080857Y70824286D01*
X108271333Y70871905D01*
X108509428Y70871905D01*
X108699904Y70824286D01*
X108795142Y70776667D01*
X108842761Y70729048D01*
X108890380Y70633810D01*
X108890380Y70538572D01*
X108842761Y70443334D01*
X108795142Y70395715D01*
X108699904Y70348096D01*
X108509428Y70300477D01*
X108271333Y70300477D01*
X108080857Y70348096D01*
X107985619Y70395715D01*
X107938000Y70443334D01*
X107890380Y70538572D01*
X107890380Y71776667D02*
X107890380Y71300477D01*
X108366571Y71252858D01*
X108318952Y71300477D01*
X108271333Y71395715D01*
X108271333Y71633810D01*
X108318952Y71729048D01*
X108366571Y71776667D01*
X108461809Y71824286D01*
X108699904Y71824286D01*
X108795142Y71776667D01*
X108842761Y71729048D01*
X108890380Y71633810D01*
X108890380Y71395715D01*
X108842761Y71300477D01*
X108795142Y71252858D01*
X117793380Y68022762D02*
X117317190Y67689429D01*
X117793380Y67451334D02*
X116793380Y67451334D01*
X116793380Y67832286D01*
X116841000Y67927524D01*
X116888619Y67975143D01*
X116983857Y68022762D01*
X117126714Y68022762D01*
X117221952Y67975143D01*
X117269571Y67927524D01*
X117317190Y67832286D01*
X117317190Y67451334D01*
X117126714Y68879905D02*
X117793380Y68879905D01*
X116745761Y68641810D02*
X117460047Y68403715D01*
X117460047Y69022762D01*
X116793380Y69308477D02*
X116793380Y69927524D01*
X117174333Y69594191D01*
X117174333Y69737048D01*
X117221952Y69832286D01*
X117269571Y69879905D01*
X117364809Y69927524D01*
X117602904Y69927524D01*
X117698142Y69879905D01*
X117745761Y69832286D01*
X117793380Y69737048D01*
X117793380Y69451334D01*
X117745761Y69356096D01*
X117698142Y69308477D01*
X116793380Y70546572D02*
X116793380Y70641810D01*
X116841000Y70737048D01*
X116888619Y70784667D01*
X116983857Y70832286D01*
X117174333Y70879905D01*
X117412428Y70879905D01*
X117602904Y70832286D01*
X117698142Y70784667D01*
X117745761Y70737048D01*
X117793380Y70641810D01*
X117793380Y70546572D01*
X117745761Y70451334D01*
X117698142Y70403715D01*
X117602904Y70356096D01*
X117412428Y70308477D01*
X117174333Y70308477D01*
X116983857Y70356096D01*
X116888619Y70403715D01*
X116841000Y70451334D01*
X116793380Y70546572D01*
X117126714Y71737048D02*
X117793380Y71737048D01*
X116745761Y71498953D02*
X117460047Y71260858D01*
X117460047Y71879905D01*
X122218880Y44519762D02*
X121742690Y44186429D01*
X122218880Y43948334D02*
X121218880Y43948334D01*
X121218880Y44329286D01*
X121266500Y44424524D01*
X121314119Y44472143D01*
X121409357Y44519762D01*
X121552214Y44519762D01*
X121647452Y44472143D01*
X121695071Y44424524D01*
X121742690Y44329286D01*
X121742690Y43948334D01*
X121552214Y45376905D02*
X122218880Y45376905D01*
X121171261Y45138810D02*
X121885547Y44900715D01*
X121885547Y45519762D01*
X121314119Y45853096D02*
X121266500Y45900715D01*
X121218880Y45995953D01*
X121218880Y46234048D01*
X121266500Y46329286D01*
X121314119Y46376905D01*
X121409357Y46424524D01*
X121504595Y46424524D01*
X121647452Y46376905D01*
X122218880Y45805477D01*
X122218880Y46424524D01*
X122218880Y47376905D02*
X122218880Y46805477D01*
X122218880Y47091191D02*
X121218880Y47091191D01*
X121361738Y46995953D01*
X121456976Y46900715D01*
X121504595Y46805477D01*
X122218880Y48329286D02*
X122218880Y47757858D01*
X122218880Y48043572D02*
X121218880Y48043572D01*
X121361738Y47948334D01*
X121456976Y47853096D01*
X121504595Y47757858D01*
X131112380Y44519762D02*
X130636190Y44186429D01*
X131112380Y43948334D02*
X130112380Y43948334D01*
X130112380Y44329286D01*
X130160000Y44424524D01*
X130207619Y44472143D01*
X130302857Y44519762D01*
X130445714Y44519762D01*
X130540952Y44472143D01*
X130588571Y44424524D01*
X130636190Y44329286D01*
X130636190Y43948334D01*
X130445714Y45376905D02*
X131112380Y45376905D01*
X130064761Y45138810D02*
X130779047Y44900715D01*
X130779047Y45519762D01*
X130207619Y45853096D02*
X130160000Y45900715D01*
X130112380Y45995953D01*
X130112380Y46234048D01*
X130160000Y46329286D01*
X130207619Y46376905D01*
X130302857Y46424524D01*
X130398095Y46424524D01*
X130540952Y46376905D01*
X131112380Y45805477D01*
X131112380Y46424524D01*
X131112380Y47376905D02*
X131112380Y46805477D01*
X131112380Y47091191D02*
X130112380Y47091191D01*
X130255238Y46995953D01*
X130350476Y46900715D01*
X130398095Y46805477D01*
X130112380Y47995953D02*
X130112380Y48091191D01*
X130160000Y48186429D01*
X130207619Y48234048D01*
X130302857Y48281667D01*
X130493333Y48329286D01*
X130731428Y48329286D01*
X130921904Y48281667D01*
X131017142Y48234048D01*
X131064761Y48186429D01*
X131112380Y48091191D01*
X131112380Y47995953D01*
X131064761Y47900715D01*
X131017142Y47853096D01*
X130921904Y47805477D01*
X130731428Y47757858D01*
X130493333Y47757858D01*
X130302857Y47805477D01*
X130207619Y47853096D01*
X130160000Y47900715D01*
X130112380Y47995953D01*
X135566880Y44519762D02*
X135090690Y44186429D01*
X135566880Y43948334D02*
X134566880Y43948334D01*
X134566880Y44329286D01*
X134614500Y44424524D01*
X134662119Y44472143D01*
X134757357Y44519762D01*
X134900214Y44519762D01*
X134995452Y44472143D01*
X135043071Y44424524D01*
X135090690Y44329286D01*
X135090690Y43948334D01*
X134900214Y45376905D02*
X135566880Y45376905D01*
X134519261Y45138810D02*
X135233547Y44900715D01*
X135233547Y45519762D01*
X134662119Y45853096D02*
X134614500Y45900715D01*
X134566880Y45995953D01*
X134566880Y46234048D01*
X134614500Y46329286D01*
X134662119Y46376905D01*
X134757357Y46424524D01*
X134852595Y46424524D01*
X134995452Y46376905D01*
X135566880Y45805477D01*
X135566880Y46424524D01*
X134566880Y47043572D02*
X134566880Y47138810D01*
X134614500Y47234048D01*
X134662119Y47281667D01*
X134757357Y47329286D01*
X134947833Y47376905D01*
X135185928Y47376905D01*
X135376404Y47329286D01*
X135471642Y47281667D01*
X135519261Y47234048D01*
X135566880Y47138810D01*
X135566880Y47043572D01*
X135519261Y46948334D01*
X135471642Y46900715D01*
X135376404Y46853096D01*
X135185928Y46805477D01*
X134947833Y46805477D01*
X134757357Y46853096D01*
X134662119Y46900715D01*
X134614500Y46948334D01*
X134566880Y47043572D01*
X134995452Y47948334D02*
X134947833Y47853096D01*
X134900214Y47805477D01*
X134804976Y47757858D01*
X134757357Y47757858D01*
X134662119Y47805477D01*
X134614500Y47853096D01*
X134566880Y47948334D01*
X134566880Y48138810D01*
X134614500Y48234048D01*
X134662119Y48281667D01*
X134757357Y48329286D01*
X134804976Y48329286D01*
X134900214Y48281667D01*
X134947833Y48234048D01*
X134995452Y48138810D01*
X134995452Y47948334D01*
X135043071Y47853096D01*
X135090690Y47805477D01*
X135185928Y47757858D01*
X135376404Y47757858D01*
X135471642Y47805477D01*
X135519261Y47853096D01*
X135566880Y47948334D01*
X135566880Y48138810D01*
X135519261Y48234048D01*
X135471642Y48281667D01*
X135376404Y48329286D01*
X135185928Y48329286D01*
X135090690Y48281667D01*
X135043071Y48234048D01*
X134995452Y48138810D01*
X126654380Y44511762D02*
X126178190Y44178429D01*
X126654380Y43940334D02*
X125654380Y43940334D01*
X125654380Y44321286D01*
X125702000Y44416524D01*
X125749619Y44464143D01*
X125844857Y44511762D01*
X125987714Y44511762D01*
X126082952Y44464143D01*
X126130571Y44416524D01*
X126178190Y44321286D01*
X126178190Y43940334D01*
X125987714Y45368905D02*
X126654380Y45368905D01*
X125606761Y45130810D02*
X126321047Y44892715D01*
X126321047Y45511762D01*
X125749619Y45845096D02*
X125702000Y45892715D01*
X125654380Y45987953D01*
X125654380Y46226048D01*
X125702000Y46321286D01*
X125749619Y46368905D01*
X125844857Y46416524D01*
X125940095Y46416524D01*
X126082952Y46368905D01*
X126654380Y45797477D01*
X126654380Y46416524D01*
X125654380Y47035572D02*
X125654380Y47130810D01*
X125702000Y47226048D01*
X125749619Y47273667D01*
X125844857Y47321286D01*
X126035333Y47368905D01*
X126273428Y47368905D01*
X126463904Y47321286D01*
X126559142Y47273667D01*
X126606761Y47226048D01*
X126654380Y47130810D01*
X126654380Y47035572D01*
X126606761Y46940334D01*
X126559142Y46892715D01*
X126463904Y46845096D01*
X126273428Y46797477D01*
X126035333Y46797477D01*
X125844857Y46845096D01*
X125749619Y46892715D01*
X125702000Y46940334D01*
X125654380Y47035572D01*
X125654380Y47702239D02*
X125654380Y48368905D01*
X126654380Y47940334D01*
X113338880Y44519762D02*
X112862690Y44186429D01*
X113338880Y43948334D02*
X112338880Y43948334D01*
X112338880Y44329286D01*
X112386500Y44424524D01*
X112434119Y44472143D01*
X112529357Y44519762D01*
X112672214Y44519762D01*
X112767452Y44472143D01*
X112815071Y44424524D01*
X112862690Y44329286D01*
X112862690Y43948334D01*
X112672214Y45376905D02*
X113338880Y45376905D01*
X112291261Y45138810D02*
X113005547Y44900715D01*
X113005547Y45519762D01*
X112434119Y45853096D02*
X112386500Y45900715D01*
X112338880Y45995953D01*
X112338880Y46234048D01*
X112386500Y46329286D01*
X112434119Y46376905D01*
X112529357Y46424524D01*
X112624595Y46424524D01*
X112767452Y46376905D01*
X113338880Y45805477D01*
X113338880Y46424524D01*
X112338880Y47043572D02*
X112338880Y47138810D01*
X112386500Y47234048D01*
X112434119Y47281667D01*
X112529357Y47329286D01*
X112719833Y47376905D01*
X112957928Y47376905D01*
X113148404Y47329286D01*
X113243642Y47281667D01*
X113291261Y47234048D01*
X113338880Y47138810D01*
X113338880Y47043572D01*
X113291261Y46948334D01*
X113243642Y46900715D01*
X113148404Y46853096D01*
X112957928Y46805477D01*
X112719833Y46805477D01*
X112529357Y46853096D01*
X112434119Y46900715D01*
X112386500Y46948334D01*
X112338880Y47043572D01*
X112338880Y48234048D02*
X112338880Y48043572D01*
X112386500Y47948334D01*
X112434119Y47900715D01*
X112576976Y47805477D01*
X112767452Y47757858D01*
X113148404Y47757858D01*
X113243642Y47805477D01*
X113291261Y47853096D01*
X113338880Y47948334D01*
X113338880Y48138810D01*
X113291261Y48234048D01*
X113243642Y48281667D01*
X113148404Y48329286D01*
X112910309Y48329286D01*
X112815071Y48281667D01*
X112767452Y48234048D01*
X112719833Y48138810D01*
X112719833Y47948334D01*
X112767452Y47853096D01*
X112815071Y47805477D01*
X112910309Y47757858D01*
X108909880Y44519762D02*
X108433690Y44186429D01*
X108909880Y43948334D02*
X107909880Y43948334D01*
X107909880Y44329286D01*
X107957500Y44424524D01*
X108005119Y44472143D01*
X108100357Y44519762D01*
X108243214Y44519762D01*
X108338452Y44472143D01*
X108386071Y44424524D01*
X108433690Y44329286D01*
X108433690Y43948334D01*
X108243214Y45376905D02*
X108909880Y45376905D01*
X107862261Y45138810D02*
X108576547Y44900715D01*
X108576547Y45519762D01*
X108005119Y45853096D02*
X107957500Y45900715D01*
X107909880Y45995953D01*
X107909880Y46234048D01*
X107957500Y46329286D01*
X108005119Y46376905D01*
X108100357Y46424524D01*
X108195595Y46424524D01*
X108338452Y46376905D01*
X108909880Y45805477D01*
X108909880Y46424524D01*
X107909880Y47043572D02*
X107909880Y47138810D01*
X107957500Y47234048D01*
X108005119Y47281667D01*
X108100357Y47329286D01*
X108290833Y47376905D01*
X108528928Y47376905D01*
X108719404Y47329286D01*
X108814642Y47281667D01*
X108862261Y47234048D01*
X108909880Y47138810D01*
X108909880Y47043572D01*
X108862261Y46948334D01*
X108814642Y46900715D01*
X108719404Y46853096D01*
X108528928Y46805477D01*
X108290833Y46805477D01*
X108100357Y46853096D01*
X108005119Y46900715D01*
X107957500Y46948334D01*
X107909880Y47043572D01*
X107909880Y48281667D02*
X107909880Y47805477D01*
X108386071Y47757858D01*
X108338452Y47805477D01*
X108290833Y47900715D01*
X108290833Y48138810D01*
X108338452Y48234048D01*
X108386071Y48281667D01*
X108481309Y48329286D01*
X108719404Y48329286D01*
X108814642Y48281667D01*
X108862261Y48234048D01*
X108909880Y48138810D01*
X108909880Y47900715D01*
X108862261Y47805477D01*
X108814642Y47757858D01*
X117799880Y44519762D02*
X117323690Y44186429D01*
X117799880Y43948334D02*
X116799880Y43948334D01*
X116799880Y44329286D01*
X116847500Y44424524D01*
X116895119Y44472143D01*
X116990357Y44519762D01*
X117133214Y44519762D01*
X117228452Y44472143D01*
X117276071Y44424524D01*
X117323690Y44329286D01*
X117323690Y43948334D01*
X117133214Y45376905D02*
X117799880Y45376905D01*
X116752261Y45138810D02*
X117466547Y44900715D01*
X117466547Y45519762D01*
X116895119Y45853096D02*
X116847500Y45900715D01*
X116799880Y45995953D01*
X116799880Y46234048D01*
X116847500Y46329286D01*
X116895119Y46376905D01*
X116990357Y46424524D01*
X117085595Y46424524D01*
X117228452Y46376905D01*
X117799880Y45805477D01*
X117799880Y46424524D01*
X116799880Y47043572D02*
X116799880Y47138810D01*
X116847500Y47234048D01*
X116895119Y47281667D01*
X116990357Y47329286D01*
X117180833Y47376905D01*
X117418928Y47376905D01*
X117609404Y47329286D01*
X117704642Y47281667D01*
X117752261Y47234048D01*
X117799880Y47138810D01*
X117799880Y47043572D01*
X117752261Y46948334D01*
X117704642Y46900715D01*
X117609404Y46853096D01*
X117418928Y46805477D01*
X117180833Y46805477D01*
X116990357Y46853096D01*
X116895119Y46900715D01*
X116847500Y46948334D01*
X116799880Y47043572D01*
X117133214Y48234048D02*
X117799880Y48234048D01*
X116752261Y47995953D02*
X117466547Y47757858D01*
X117466547Y48376905D01*
X66337380Y68014762D02*
X65861190Y67681429D01*
X66337380Y67443334D02*
X65337380Y67443334D01*
X65337380Y67824286D01*
X65385000Y67919524D01*
X65432619Y67967143D01*
X65527857Y68014762D01*
X65670714Y68014762D01*
X65765952Y67967143D01*
X65813571Y67919524D01*
X65861190Y67824286D01*
X65861190Y67443334D01*
X65670714Y68871905D02*
X66337380Y68871905D01*
X65289761Y68633810D02*
X66004047Y68395715D01*
X66004047Y69014762D01*
X66337380Y69919524D02*
X66337380Y69348096D01*
X66337380Y69633810D02*
X65337380Y69633810D01*
X65480238Y69538572D01*
X65575476Y69443334D01*
X65623095Y69348096D01*
X66337380Y70871905D02*
X66337380Y70300477D01*
X66337380Y70586191D02*
X65337380Y70586191D01*
X65480238Y70490953D01*
X65575476Y70395715D01*
X65623095Y70300477D01*
X66337380Y71824286D02*
X66337380Y71252858D01*
X66337380Y71538572D02*
X65337380Y71538572D01*
X65480238Y71443334D01*
X65575476Y71348096D01*
X65623095Y71252858D01*
X75227380Y68014762D02*
X74751190Y67681429D01*
X75227380Y67443334D02*
X74227380Y67443334D01*
X74227380Y67824286D01*
X74275000Y67919524D01*
X74322619Y67967143D01*
X74417857Y68014762D01*
X74560714Y68014762D01*
X74655952Y67967143D01*
X74703571Y67919524D01*
X74751190Y67824286D01*
X74751190Y67443334D01*
X74560714Y68871905D02*
X75227380Y68871905D01*
X74179761Y68633810D02*
X74894047Y68395715D01*
X74894047Y69014762D01*
X75227380Y69919524D02*
X75227380Y69348096D01*
X75227380Y69633810D02*
X74227380Y69633810D01*
X74370238Y69538572D01*
X74465476Y69443334D01*
X74513095Y69348096D01*
X75227380Y70871905D02*
X75227380Y70300477D01*
X75227380Y70586191D02*
X74227380Y70586191D01*
X74370238Y70490953D01*
X74465476Y70395715D01*
X74513095Y70300477D01*
X74227380Y71490953D02*
X74227380Y71586191D01*
X74275000Y71681429D01*
X74322619Y71729048D01*
X74417857Y71776667D01*
X74608333Y71824286D01*
X74846428Y71824286D01*
X75036904Y71776667D01*
X75132142Y71729048D01*
X75179761Y71681429D01*
X75227380Y71586191D01*
X75227380Y71490953D01*
X75179761Y71395715D01*
X75132142Y71348096D01*
X75036904Y71300477D01*
X74846428Y71252858D01*
X74608333Y71252858D01*
X74417857Y71300477D01*
X74322619Y71348096D01*
X74275000Y71395715D01*
X74227380Y71490953D01*
X79672380Y68014762D02*
X79196190Y67681429D01*
X79672380Y67443334D02*
X78672380Y67443334D01*
X78672380Y67824286D01*
X78720000Y67919524D01*
X78767619Y67967143D01*
X78862857Y68014762D01*
X79005714Y68014762D01*
X79100952Y67967143D01*
X79148571Y67919524D01*
X79196190Y67824286D01*
X79196190Y67443334D01*
X79005714Y68871905D02*
X79672380Y68871905D01*
X78624761Y68633810D02*
X79339047Y68395715D01*
X79339047Y69014762D01*
X79672380Y69919524D02*
X79672380Y69348096D01*
X79672380Y69633810D02*
X78672380Y69633810D01*
X78815238Y69538572D01*
X78910476Y69443334D01*
X78958095Y69348096D01*
X78672380Y70538572D02*
X78672380Y70633810D01*
X78720000Y70729048D01*
X78767619Y70776667D01*
X78862857Y70824286D01*
X79053333Y70871905D01*
X79291428Y70871905D01*
X79481904Y70824286D01*
X79577142Y70776667D01*
X79624761Y70729048D01*
X79672380Y70633810D01*
X79672380Y70538572D01*
X79624761Y70443334D01*
X79577142Y70395715D01*
X79481904Y70348096D01*
X79291428Y70300477D01*
X79053333Y70300477D01*
X78862857Y70348096D01*
X78767619Y70395715D01*
X78720000Y70443334D01*
X78672380Y70538572D01*
X79100952Y71443334D02*
X79053333Y71348096D01*
X79005714Y71300477D01*
X78910476Y71252858D01*
X78862857Y71252858D01*
X78767619Y71300477D01*
X78720000Y71348096D01*
X78672380Y71443334D01*
X78672380Y71633810D01*
X78720000Y71729048D01*
X78767619Y71776667D01*
X78862857Y71824286D01*
X78910476Y71824286D01*
X79005714Y71776667D01*
X79053333Y71729048D01*
X79100952Y71633810D01*
X79100952Y71443334D01*
X79148571Y71348096D01*
X79196190Y71300477D01*
X79291428Y71252858D01*
X79481904Y71252858D01*
X79577142Y71300477D01*
X79624761Y71348096D01*
X79672380Y71443334D01*
X79672380Y71633810D01*
X79624761Y71729048D01*
X79577142Y71776667D01*
X79481904Y71824286D01*
X79291428Y71824286D01*
X79196190Y71776667D01*
X79148571Y71729048D01*
X79100952Y71633810D01*
X70782380Y68014762D02*
X70306190Y67681429D01*
X70782380Y67443334D02*
X69782380Y67443334D01*
X69782380Y67824286D01*
X69830000Y67919524D01*
X69877619Y67967143D01*
X69972857Y68014762D01*
X70115714Y68014762D01*
X70210952Y67967143D01*
X70258571Y67919524D01*
X70306190Y67824286D01*
X70306190Y67443334D01*
X70115714Y68871905D02*
X70782380Y68871905D01*
X69734761Y68633810D02*
X70449047Y68395715D01*
X70449047Y69014762D01*
X70782380Y69919524D02*
X70782380Y69348096D01*
X70782380Y69633810D02*
X69782380Y69633810D01*
X69925238Y69538572D01*
X70020476Y69443334D01*
X70068095Y69348096D01*
X69782380Y70538572D02*
X69782380Y70633810D01*
X69830000Y70729048D01*
X69877619Y70776667D01*
X69972857Y70824286D01*
X70163333Y70871905D01*
X70401428Y70871905D01*
X70591904Y70824286D01*
X70687142Y70776667D01*
X70734761Y70729048D01*
X70782380Y70633810D01*
X70782380Y70538572D01*
X70734761Y70443334D01*
X70687142Y70395715D01*
X70591904Y70348096D01*
X70401428Y70300477D01*
X70163333Y70300477D01*
X69972857Y70348096D01*
X69877619Y70395715D01*
X69830000Y70443334D01*
X69782380Y70538572D01*
X69782380Y71205239D02*
X69782380Y71871905D01*
X70782380Y71443334D01*
X57447380Y68014762D02*
X56971190Y67681429D01*
X57447380Y67443334D02*
X56447380Y67443334D01*
X56447380Y67824286D01*
X56495000Y67919524D01*
X56542619Y67967143D01*
X56637857Y68014762D01*
X56780714Y68014762D01*
X56875952Y67967143D01*
X56923571Y67919524D01*
X56971190Y67824286D01*
X56971190Y67443334D01*
X56780714Y68871905D02*
X57447380Y68871905D01*
X56399761Y68633810D02*
X57114047Y68395715D01*
X57114047Y69014762D01*
X57447380Y69919524D02*
X57447380Y69348096D01*
X57447380Y69633810D02*
X56447380Y69633810D01*
X56590238Y69538572D01*
X56685476Y69443334D01*
X56733095Y69348096D01*
X56447380Y70538572D02*
X56447380Y70633810D01*
X56495000Y70729048D01*
X56542619Y70776667D01*
X56637857Y70824286D01*
X56828333Y70871905D01*
X57066428Y70871905D01*
X57256904Y70824286D01*
X57352142Y70776667D01*
X57399761Y70729048D01*
X57447380Y70633810D01*
X57447380Y70538572D01*
X57399761Y70443334D01*
X57352142Y70395715D01*
X57256904Y70348096D01*
X57066428Y70300477D01*
X56828333Y70300477D01*
X56637857Y70348096D01*
X56542619Y70395715D01*
X56495000Y70443334D01*
X56447380Y70538572D01*
X56447380Y71729048D02*
X56447380Y71538572D01*
X56495000Y71443334D01*
X56542619Y71395715D01*
X56685476Y71300477D01*
X56875952Y71252858D01*
X57256904Y71252858D01*
X57352142Y71300477D01*
X57399761Y71348096D01*
X57447380Y71443334D01*
X57447380Y71633810D01*
X57399761Y71729048D01*
X57352142Y71776667D01*
X57256904Y71824286D01*
X57018809Y71824286D01*
X56923571Y71776667D01*
X56875952Y71729048D01*
X56828333Y71633810D01*
X56828333Y71443334D01*
X56875952Y71348096D01*
X56923571Y71300477D01*
X57018809Y71252858D01*
X53002380Y68014762D02*
X52526190Y67681429D01*
X53002380Y67443334D02*
X52002380Y67443334D01*
X52002380Y67824286D01*
X52050000Y67919524D01*
X52097619Y67967143D01*
X52192857Y68014762D01*
X52335714Y68014762D01*
X52430952Y67967143D01*
X52478571Y67919524D01*
X52526190Y67824286D01*
X52526190Y67443334D01*
X52335714Y68871905D02*
X53002380Y68871905D01*
X51954761Y68633810D02*
X52669047Y68395715D01*
X52669047Y69014762D01*
X53002380Y69919524D02*
X53002380Y69348096D01*
X53002380Y69633810D02*
X52002380Y69633810D01*
X52145238Y69538572D01*
X52240476Y69443334D01*
X52288095Y69348096D01*
X52002380Y70538572D02*
X52002380Y70633810D01*
X52050000Y70729048D01*
X52097619Y70776667D01*
X52192857Y70824286D01*
X52383333Y70871905D01*
X52621428Y70871905D01*
X52811904Y70824286D01*
X52907142Y70776667D01*
X52954761Y70729048D01*
X53002380Y70633810D01*
X53002380Y70538572D01*
X52954761Y70443334D01*
X52907142Y70395715D01*
X52811904Y70348096D01*
X52621428Y70300477D01*
X52383333Y70300477D01*
X52192857Y70348096D01*
X52097619Y70395715D01*
X52050000Y70443334D01*
X52002380Y70538572D01*
X52002380Y71776667D02*
X52002380Y71300477D01*
X52478571Y71252858D01*
X52430952Y71300477D01*
X52383333Y71395715D01*
X52383333Y71633810D01*
X52430952Y71729048D01*
X52478571Y71776667D01*
X52573809Y71824286D01*
X52811904Y71824286D01*
X52907142Y71776667D01*
X52954761Y71729048D01*
X53002380Y71633810D01*
X53002380Y71395715D01*
X52954761Y71300477D01*
X52907142Y71252858D01*
X61892380Y68014762D02*
X61416190Y67681429D01*
X61892380Y67443334D02*
X60892380Y67443334D01*
X60892380Y67824286D01*
X60940000Y67919524D01*
X60987619Y67967143D01*
X61082857Y68014762D01*
X61225714Y68014762D01*
X61320952Y67967143D01*
X61368571Y67919524D01*
X61416190Y67824286D01*
X61416190Y67443334D01*
X61225714Y68871905D02*
X61892380Y68871905D01*
X60844761Y68633810D02*
X61559047Y68395715D01*
X61559047Y69014762D01*
X61892380Y69919524D02*
X61892380Y69348096D01*
X61892380Y69633810D02*
X60892380Y69633810D01*
X61035238Y69538572D01*
X61130476Y69443334D01*
X61178095Y69348096D01*
X60892380Y70538572D02*
X60892380Y70633810D01*
X60940000Y70729048D01*
X60987619Y70776667D01*
X61082857Y70824286D01*
X61273333Y70871905D01*
X61511428Y70871905D01*
X61701904Y70824286D01*
X61797142Y70776667D01*
X61844761Y70729048D01*
X61892380Y70633810D01*
X61892380Y70538572D01*
X61844761Y70443334D01*
X61797142Y70395715D01*
X61701904Y70348096D01*
X61511428Y70300477D01*
X61273333Y70300477D01*
X61082857Y70348096D01*
X60987619Y70395715D01*
X60940000Y70443334D01*
X60892380Y70538572D01*
X61225714Y71729048D02*
X61892380Y71729048D01*
X60844761Y71490953D02*
X61559047Y71252858D01*
X61559047Y71871905D01*
X66337380Y44900762D02*
X65861190Y44567429D01*
X66337380Y44329334D02*
X65337380Y44329334D01*
X65337380Y44710286D01*
X65385000Y44805524D01*
X65432619Y44853143D01*
X65527857Y44900762D01*
X65670714Y44900762D01*
X65765952Y44853143D01*
X65813571Y44805524D01*
X65861190Y44710286D01*
X65861190Y44329334D01*
X65670714Y45757905D02*
X66337380Y45757905D01*
X65289761Y45519810D02*
X66004047Y45281715D01*
X66004047Y45900762D01*
X65337380Y46472191D02*
X65337380Y46567429D01*
X65385000Y46662667D01*
X65432619Y46710286D01*
X65527857Y46757905D01*
X65718333Y46805524D01*
X65956428Y46805524D01*
X66146904Y46757905D01*
X66242142Y46710286D01*
X66289761Y46662667D01*
X66337380Y46567429D01*
X66337380Y46472191D01*
X66289761Y46376953D01*
X66242142Y46329334D01*
X66146904Y46281715D01*
X65956428Y46234096D01*
X65718333Y46234096D01*
X65527857Y46281715D01*
X65432619Y46329334D01*
X65385000Y46376953D01*
X65337380Y46472191D01*
X66337380Y47757905D02*
X66337380Y47186477D01*
X66337380Y47472191D02*
X65337380Y47472191D01*
X65480238Y47376953D01*
X65575476Y47281715D01*
X65623095Y47186477D01*
X66337380Y48710286D02*
X66337380Y48138858D01*
X66337380Y48424572D02*
X65337380Y48424572D01*
X65480238Y48329334D01*
X65575476Y48234096D01*
X65623095Y48138858D01*
X75227380Y44837262D02*
X74751190Y44503929D01*
X75227380Y44265834D02*
X74227380Y44265834D01*
X74227380Y44646786D01*
X74275000Y44742024D01*
X74322619Y44789643D01*
X74417857Y44837262D01*
X74560714Y44837262D01*
X74655952Y44789643D01*
X74703571Y44742024D01*
X74751190Y44646786D01*
X74751190Y44265834D01*
X74560714Y45694405D02*
X75227380Y45694405D01*
X74179761Y45456310D02*
X74894047Y45218215D01*
X74894047Y45837262D01*
X74227380Y46408691D02*
X74227380Y46503929D01*
X74275000Y46599167D01*
X74322619Y46646786D01*
X74417857Y46694405D01*
X74608333Y46742024D01*
X74846428Y46742024D01*
X75036904Y46694405D01*
X75132142Y46646786D01*
X75179761Y46599167D01*
X75227380Y46503929D01*
X75227380Y46408691D01*
X75179761Y46313453D01*
X75132142Y46265834D01*
X75036904Y46218215D01*
X74846428Y46170596D01*
X74608333Y46170596D01*
X74417857Y46218215D01*
X74322619Y46265834D01*
X74275000Y46313453D01*
X74227380Y46408691D01*
X75227380Y47694405D02*
X75227380Y47122977D01*
X75227380Y47408691D02*
X74227380Y47408691D01*
X74370238Y47313453D01*
X74465476Y47218215D01*
X74513095Y47122977D01*
X74227380Y48313453D02*
X74227380Y48408691D01*
X74275000Y48503929D01*
X74322619Y48551548D01*
X74417857Y48599167D01*
X74608333Y48646786D01*
X74846428Y48646786D01*
X75036904Y48599167D01*
X75132142Y48551548D01*
X75179761Y48503929D01*
X75227380Y48408691D01*
X75227380Y48313453D01*
X75179761Y48218215D01*
X75132142Y48170596D01*
X75036904Y48122977D01*
X74846428Y48075358D01*
X74608333Y48075358D01*
X74417857Y48122977D01*
X74322619Y48170596D01*
X74275000Y48218215D01*
X74227380Y48313453D01*
X79672380Y44837262D02*
X79196190Y44503929D01*
X79672380Y44265834D02*
X78672380Y44265834D01*
X78672380Y44646786D01*
X78720000Y44742024D01*
X78767619Y44789643D01*
X78862857Y44837262D01*
X79005714Y44837262D01*
X79100952Y44789643D01*
X79148571Y44742024D01*
X79196190Y44646786D01*
X79196190Y44265834D01*
X79005714Y45694405D02*
X79672380Y45694405D01*
X78624761Y45456310D02*
X79339047Y45218215D01*
X79339047Y45837262D01*
X78672380Y46408691D02*
X78672380Y46503929D01*
X78720000Y46599167D01*
X78767619Y46646786D01*
X78862857Y46694405D01*
X79053333Y46742024D01*
X79291428Y46742024D01*
X79481904Y46694405D01*
X79577142Y46646786D01*
X79624761Y46599167D01*
X79672380Y46503929D01*
X79672380Y46408691D01*
X79624761Y46313453D01*
X79577142Y46265834D01*
X79481904Y46218215D01*
X79291428Y46170596D01*
X79053333Y46170596D01*
X78862857Y46218215D01*
X78767619Y46265834D01*
X78720000Y46313453D01*
X78672380Y46408691D01*
X78672380Y47361072D02*
X78672380Y47456310D01*
X78720000Y47551548D01*
X78767619Y47599167D01*
X78862857Y47646786D01*
X79053333Y47694405D01*
X79291428Y47694405D01*
X79481904Y47646786D01*
X79577142Y47599167D01*
X79624761Y47551548D01*
X79672380Y47456310D01*
X79672380Y47361072D01*
X79624761Y47265834D01*
X79577142Y47218215D01*
X79481904Y47170596D01*
X79291428Y47122977D01*
X79053333Y47122977D01*
X78862857Y47170596D01*
X78767619Y47218215D01*
X78720000Y47265834D01*
X78672380Y47361072D01*
X79100952Y48265834D02*
X79053333Y48170596D01*
X79005714Y48122977D01*
X78910476Y48075358D01*
X78862857Y48075358D01*
X78767619Y48122977D01*
X78720000Y48170596D01*
X78672380Y48265834D01*
X78672380Y48456310D01*
X78720000Y48551548D01*
X78767619Y48599167D01*
X78862857Y48646786D01*
X78910476Y48646786D01*
X79005714Y48599167D01*
X79053333Y48551548D01*
X79100952Y48456310D01*
X79100952Y48265834D01*
X79148571Y48170596D01*
X79196190Y48122977D01*
X79291428Y48075358D01*
X79481904Y48075358D01*
X79577142Y48122977D01*
X79624761Y48170596D01*
X79672380Y48265834D01*
X79672380Y48456310D01*
X79624761Y48551548D01*
X79577142Y48599167D01*
X79481904Y48646786D01*
X79291428Y48646786D01*
X79196190Y48599167D01*
X79148571Y48551548D01*
X79100952Y48456310D01*
X70782380Y44773762D02*
X70306190Y44440429D01*
X70782380Y44202334D02*
X69782380Y44202334D01*
X69782380Y44583286D01*
X69830000Y44678524D01*
X69877619Y44726143D01*
X69972857Y44773762D01*
X70115714Y44773762D01*
X70210952Y44726143D01*
X70258571Y44678524D01*
X70306190Y44583286D01*
X70306190Y44202334D01*
X70115714Y45630905D02*
X70782380Y45630905D01*
X69734761Y45392810D02*
X70449047Y45154715D01*
X70449047Y45773762D01*
X69782380Y46345191D02*
X69782380Y46440429D01*
X69830000Y46535667D01*
X69877619Y46583286D01*
X69972857Y46630905D01*
X70163333Y46678524D01*
X70401428Y46678524D01*
X70591904Y46630905D01*
X70687142Y46583286D01*
X70734761Y46535667D01*
X70782380Y46440429D01*
X70782380Y46345191D01*
X70734761Y46249953D01*
X70687142Y46202334D01*
X70591904Y46154715D01*
X70401428Y46107096D01*
X70163333Y46107096D01*
X69972857Y46154715D01*
X69877619Y46202334D01*
X69830000Y46249953D01*
X69782380Y46345191D01*
X69782380Y47297572D02*
X69782380Y47392810D01*
X69830000Y47488048D01*
X69877619Y47535667D01*
X69972857Y47583286D01*
X70163333Y47630905D01*
X70401428Y47630905D01*
X70591904Y47583286D01*
X70687142Y47535667D01*
X70734761Y47488048D01*
X70782380Y47392810D01*
X70782380Y47297572D01*
X70734761Y47202334D01*
X70687142Y47154715D01*
X70591904Y47107096D01*
X70401428Y47059477D01*
X70163333Y47059477D01*
X69972857Y47107096D01*
X69877619Y47154715D01*
X69830000Y47202334D01*
X69782380Y47297572D01*
X69782380Y47964239D02*
X69782380Y48630905D01*
X70782380Y48202334D01*
X57447380Y44519762D02*
X56971190Y44186429D01*
X57447380Y43948334D02*
X56447380Y43948334D01*
X56447380Y44329286D01*
X56495000Y44424524D01*
X56542619Y44472143D01*
X56637857Y44519762D01*
X56780714Y44519762D01*
X56875952Y44472143D01*
X56923571Y44424524D01*
X56971190Y44329286D01*
X56971190Y43948334D01*
X56780714Y45376905D02*
X57447380Y45376905D01*
X56399761Y45138810D02*
X57114047Y44900715D01*
X57114047Y45519762D01*
X56447380Y46091191D02*
X56447380Y46186429D01*
X56495000Y46281667D01*
X56542619Y46329286D01*
X56637857Y46376905D01*
X56828333Y46424524D01*
X57066428Y46424524D01*
X57256904Y46376905D01*
X57352142Y46329286D01*
X57399761Y46281667D01*
X57447380Y46186429D01*
X57447380Y46091191D01*
X57399761Y45995953D01*
X57352142Y45948334D01*
X57256904Y45900715D01*
X57066428Y45853096D01*
X56828333Y45853096D01*
X56637857Y45900715D01*
X56542619Y45948334D01*
X56495000Y45995953D01*
X56447380Y46091191D01*
X56447380Y47043572D02*
X56447380Y47138810D01*
X56495000Y47234048D01*
X56542619Y47281667D01*
X56637857Y47329286D01*
X56828333Y47376905D01*
X57066428Y47376905D01*
X57256904Y47329286D01*
X57352142Y47281667D01*
X57399761Y47234048D01*
X57447380Y47138810D01*
X57447380Y47043572D01*
X57399761Y46948334D01*
X57352142Y46900715D01*
X57256904Y46853096D01*
X57066428Y46805477D01*
X56828333Y46805477D01*
X56637857Y46853096D01*
X56542619Y46900715D01*
X56495000Y46948334D01*
X56447380Y47043572D01*
X56447380Y48234048D02*
X56447380Y48043572D01*
X56495000Y47948334D01*
X56542619Y47900715D01*
X56685476Y47805477D01*
X56875952Y47757858D01*
X57256904Y47757858D01*
X57352142Y47805477D01*
X57399761Y47853096D01*
X57447380Y47948334D01*
X57447380Y48138810D01*
X57399761Y48234048D01*
X57352142Y48281667D01*
X57256904Y48329286D01*
X57018809Y48329286D01*
X56923571Y48281667D01*
X56875952Y48234048D01*
X56828333Y48138810D01*
X56828333Y47948334D01*
X56875952Y47853096D01*
X56923571Y47805477D01*
X57018809Y47757858D01*
X53002380Y44519762D02*
X52526190Y44186429D01*
X53002380Y43948334D02*
X52002380Y43948334D01*
X52002380Y44329286D01*
X52050000Y44424524D01*
X52097619Y44472143D01*
X52192857Y44519762D01*
X52335714Y44519762D01*
X52430952Y44472143D01*
X52478571Y44424524D01*
X52526190Y44329286D01*
X52526190Y43948334D01*
X52335714Y45376905D02*
X53002380Y45376905D01*
X51954761Y45138810D02*
X52669047Y44900715D01*
X52669047Y45519762D01*
X52002380Y46091191D02*
X52002380Y46186429D01*
X52050000Y46281667D01*
X52097619Y46329286D01*
X52192857Y46376905D01*
X52383333Y46424524D01*
X52621428Y46424524D01*
X52811904Y46376905D01*
X52907142Y46329286D01*
X52954761Y46281667D01*
X53002380Y46186429D01*
X53002380Y46091191D01*
X52954761Y45995953D01*
X52907142Y45948334D01*
X52811904Y45900715D01*
X52621428Y45853096D01*
X52383333Y45853096D01*
X52192857Y45900715D01*
X52097619Y45948334D01*
X52050000Y45995953D01*
X52002380Y46091191D01*
X52002380Y47043572D02*
X52002380Y47138810D01*
X52050000Y47234048D01*
X52097619Y47281667D01*
X52192857Y47329286D01*
X52383333Y47376905D01*
X52621428Y47376905D01*
X52811904Y47329286D01*
X52907142Y47281667D01*
X52954761Y47234048D01*
X53002380Y47138810D01*
X53002380Y47043572D01*
X52954761Y46948334D01*
X52907142Y46900715D01*
X52811904Y46853096D01*
X52621428Y46805477D01*
X52383333Y46805477D01*
X52192857Y46853096D01*
X52097619Y46900715D01*
X52050000Y46948334D01*
X52002380Y47043572D01*
X52002380Y48281667D02*
X52002380Y47805477D01*
X52478571Y47757858D01*
X52430952Y47805477D01*
X52383333Y47900715D01*
X52383333Y48138810D01*
X52430952Y48234048D01*
X52478571Y48281667D01*
X52573809Y48329286D01*
X52811904Y48329286D01*
X52907142Y48281667D01*
X52954761Y48234048D01*
X53002380Y48138810D01*
X53002380Y47900715D01*
X52954761Y47805477D01*
X52907142Y47757858D01*
X61892380Y44519762D02*
X61416190Y44186429D01*
X61892380Y43948334D02*
X60892380Y43948334D01*
X60892380Y44329286D01*
X60940000Y44424524D01*
X60987619Y44472143D01*
X61082857Y44519762D01*
X61225714Y44519762D01*
X61320952Y44472143D01*
X61368571Y44424524D01*
X61416190Y44329286D01*
X61416190Y43948334D01*
X61225714Y45376905D02*
X61892380Y45376905D01*
X60844761Y45138810D02*
X61559047Y44900715D01*
X61559047Y45519762D01*
X60892380Y46091191D02*
X60892380Y46186429D01*
X60940000Y46281667D01*
X60987619Y46329286D01*
X61082857Y46376905D01*
X61273333Y46424524D01*
X61511428Y46424524D01*
X61701904Y46376905D01*
X61797142Y46329286D01*
X61844761Y46281667D01*
X61892380Y46186429D01*
X61892380Y46091191D01*
X61844761Y45995953D01*
X61797142Y45948334D01*
X61701904Y45900715D01*
X61511428Y45853096D01*
X61273333Y45853096D01*
X61082857Y45900715D01*
X60987619Y45948334D01*
X60940000Y45995953D01*
X60892380Y46091191D01*
X60892380Y47043572D02*
X60892380Y47138810D01*
X60940000Y47234048D01*
X60987619Y47281667D01*
X61082857Y47329286D01*
X61273333Y47376905D01*
X61511428Y47376905D01*
X61701904Y47329286D01*
X61797142Y47281667D01*
X61844761Y47234048D01*
X61892380Y47138810D01*
X61892380Y47043572D01*
X61844761Y46948334D01*
X61797142Y46900715D01*
X61701904Y46853096D01*
X61511428Y46805477D01*
X61273333Y46805477D01*
X61082857Y46853096D01*
X60987619Y46900715D01*
X60940000Y46948334D01*
X60892380Y47043572D01*
X61225714Y48234048D02*
X61892380Y48234048D01*
X60844761Y47995953D02*
X61559047Y47757858D01*
X61559047Y48376905D01*
X139362380Y21500953D02*
X138886190Y21167620D01*
X139362380Y20929524D02*
X138362380Y20929524D01*
X138362380Y21310477D01*
X138410000Y21405715D01*
X138457619Y21453334D01*
X138552857Y21500953D01*
X138695714Y21500953D01*
X138790952Y21453334D01*
X138838571Y21405715D01*
X138886190Y21310477D01*
X138886190Y20929524D01*
X138362380Y22405715D02*
X138362380Y21929524D01*
X138838571Y21881905D01*
X138790952Y21929524D01*
X138743333Y22024762D01*
X138743333Y22262858D01*
X138790952Y22358096D01*
X138838571Y22405715D01*
X138933809Y22453334D01*
X139171904Y22453334D01*
X139267142Y22405715D01*
X139314761Y22358096D01*
X139362380Y22262858D01*
X139362380Y22024762D01*
X139314761Y21929524D01*
X139267142Y21881905D01*
X138362380Y23072381D02*
X138362380Y23167620D01*
X138410000Y23262858D01*
X138457619Y23310477D01*
X138552857Y23358096D01*
X138743333Y23405715D01*
X138981428Y23405715D01*
X139171904Y23358096D01*
X139267142Y23310477D01*
X139314761Y23262858D01*
X139362380Y23167620D01*
X139362380Y23072381D01*
X139314761Y22977143D01*
X139267142Y22929524D01*
X139171904Y22881905D01*
X138981428Y22834286D01*
X138743333Y22834286D01*
X138552857Y22881905D01*
X138457619Y22929524D01*
X138410000Y22977143D01*
X138362380Y23072381D01*
X138695714Y24262858D02*
X139362380Y24262858D01*
X138314761Y24024762D02*
X139029047Y23786667D01*
X139029047Y24405715D01*
X127297380Y21691453D02*
X126821190Y21358120D01*
X127297380Y21120024D02*
X126297380Y21120024D01*
X126297380Y21500977D01*
X126345000Y21596215D01*
X126392619Y21643834D01*
X126487857Y21691453D01*
X126630714Y21691453D01*
X126725952Y21643834D01*
X126773571Y21596215D01*
X126821190Y21500977D01*
X126821190Y21120024D01*
X126297380Y22596215D02*
X126297380Y22120024D01*
X126773571Y22072405D01*
X126725952Y22120024D01*
X126678333Y22215262D01*
X126678333Y22453358D01*
X126725952Y22548596D01*
X126773571Y22596215D01*
X126868809Y22643834D01*
X127106904Y22643834D01*
X127202142Y22596215D01*
X127249761Y22548596D01*
X127297380Y22453358D01*
X127297380Y22215262D01*
X127249761Y22120024D01*
X127202142Y22072405D01*
X126297380Y23262881D02*
X126297380Y23358120D01*
X126345000Y23453358D01*
X126392619Y23500977D01*
X126487857Y23548596D01*
X126678333Y23596215D01*
X126916428Y23596215D01*
X127106904Y23548596D01*
X127202142Y23500977D01*
X127249761Y23453358D01*
X127297380Y23358120D01*
X127297380Y23262881D01*
X127249761Y23167643D01*
X127202142Y23120024D01*
X127106904Y23072405D01*
X126916428Y23024786D01*
X126678333Y23024786D01*
X126487857Y23072405D01*
X126392619Y23120024D01*
X126345000Y23167643D01*
X126297380Y23262881D01*
X126297380Y23929548D02*
X126297380Y24548596D01*
X126678333Y24215262D01*
X126678333Y24358120D01*
X126725952Y24453358D01*
X126773571Y24500977D01*
X126868809Y24548596D01*
X127106904Y24548596D01*
X127202142Y24500977D01*
X127249761Y24453358D01*
X127297380Y24358120D01*
X127297380Y24072405D01*
X127249761Y23977167D01*
X127202142Y23929548D01*
X115232380Y21818453D02*
X114756190Y21485120D01*
X115232380Y21247024D02*
X114232380Y21247024D01*
X114232380Y21627977D01*
X114280000Y21723215D01*
X114327619Y21770834D01*
X114422857Y21818453D01*
X114565714Y21818453D01*
X114660952Y21770834D01*
X114708571Y21723215D01*
X114756190Y21627977D01*
X114756190Y21247024D01*
X114232380Y22723215D02*
X114232380Y22247024D01*
X114708571Y22199405D01*
X114660952Y22247024D01*
X114613333Y22342262D01*
X114613333Y22580358D01*
X114660952Y22675596D01*
X114708571Y22723215D01*
X114803809Y22770834D01*
X115041904Y22770834D01*
X115137142Y22723215D01*
X115184761Y22675596D01*
X115232380Y22580358D01*
X115232380Y22342262D01*
X115184761Y22247024D01*
X115137142Y22199405D01*
X114232380Y23389881D02*
X114232380Y23485120D01*
X114280000Y23580358D01*
X114327619Y23627977D01*
X114422857Y23675596D01*
X114613333Y23723215D01*
X114851428Y23723215D01*
X115041904Y23675596D01*
X115137142Y23627977D01*
X115184761Y23580358D01*
X115232380Y23485120D01*
X115232380Y23389881D01*
X115184761Y23294643D01*
X115137142Y23247024D01*
X115041904Y23199405D01*
X114851428Y23151786D01*
X114613333Y23151786D01*
X114422857Y23199405D01*
X114327619Y23247024D01*
X114280000Y23294643D01*
X114232380Y23389881D01*
X114327619Y24104167D02*
X114280000Y24151786D01*
X114232380Y24247024D01*
X114232380Y24485120D01*
X114280000Y24580358D01*
X114327619Y24627977D01*
X114422857Y24675596D01*
X114518095Y24675596D01*
X114660952Y24627977D01*
X115232380Y24056548D01*
X115232380Y24675596D01*
X103230880Y21310453D02*
X102754690Y20977120D01*
X103230880Y20739024D02*
X102230880Y20739024D01*
X102230880Y21119977D01*
X102278500Y21215215D01*
X102326119Y21262834D01*
X102421357Y21310453D01*
X102564214Y21310453D01*
X102659452Y21262834D01*
X102707071Y21215215D01*
X102754690Y21119977D01*
X102754690Y20739024D01*
X102230880Y22215215D02*
X102230880Y21739024D01*
X102707071Y21691405D01*
X102659452Y21739024D01*
X102611833Y21834262D01*
X102611833Y22072358D01*
X102659452Y22167596D01*
X102707071Y22215215D01*
X102802309Y22262834D01*
X103040404Y22262834D01*
X103135642Y22215215D01*
X103183261Y22167596D01*
X103230880Y22072358D01*
X103230880Y21834262D01*
X103183261Y21739024D01*
X103135642Y21691405D01*
X102230880Y22881881D02*
X102230880Y22977120D01*
X102278500Y23072358D01*
X102326119Y23119977D01*
X102421357Y23167596D01*
X102611833Y23215215D01*
X102849928Y23215215D01*
X103040404Y23167596D01*
X103135642Y23119977D01*
X103183261Y23072358D01*
X103230880Y22977120D01*
X103230880Y22881881D01*
X103183261Y22786643D01*
X103135642Y22739024D01*
X103040404Y22691405D01*
X102849928Y22643786D01*
X102611833Y22643786D01*
X102421357Y22691405D01*
X102326119Y22739024D01*
X102278500Y22786643D01*
X102230880Y22881881D01*
X103230880Y24167596D02*
X103230880Y23596167D01*
X103230880Y23881881D02*
X102230880Y23881881D01*
X102373738Y23786643D01*
X102468976Y23691405D01*
X102516595Y23596167D01*
X26030952Y24072620D02*
X25697619Y24548810D01*
X25459523Y24072620D02*
X25459523Y25072620D01*
X25840476Y25072620D01*
X25935714Y25025000D01*
X25983333Y24977381D01*
X26030952Y24882143D01*
X26030952Y24739286D01*
X25983333Y24644048D01*
X25935714Y24596429D01*
X25840476Y24548810D01*
X25459523Y24548810D01*
X26983333Y24072620D02*
X26411904Y24072620D01*
X26697619Y24072620D02*
X26697619Y25072620D01*
X26602380Y24929762D01*
X26507142Y24834524D01*
X26411904Y24786905D01*
X27888095Y25072620D02*
X27411904Y25072620D01*
X27364285Y24596429D01*
X27411904Y24644048D01*
X27507142Y24691667D01*
X27745238Y24691667D01*
X27840476Y24644048D01*
X27888095Y24596429D01*
X27935714Y24501191D01*
X27935714Y24263096D01*
X27888095Y24167858D01*
X27840476Y24120239D01*
X27745238Y24072620D01*
X27507142Y24072620D01*
X27411904Y24120239D01*
X27364285Y24167858D01*
X28269047Y25072620D02*
X28888095Y25072620D01*
X28554761Y24691667D01*
X28697619Y24691667D01*
X28792857Y24644048D01*
X28840476Y24596429D01*
X28888095Y24501191D01*
X28888095Y24263096D01*
X28840476Y24167858D01*
X28792857Y24120239D01*
X28697619Y24072620D01*
X28411904Y24072620D01*
X28316666Y24120239D01*
X28269047Y24167858D01*
X19045952Y24072620D02*
X18712619Y24548810D01*
X18474523Y24072620D02*
X18474523Y25072620D01*
X18855476Y25072620D01*
X18950714Y25025000D01*
X18998333Y24977381D01*
X19045952Y24882143D01*
X19045952Y24739286D01*
X18998333Y24644048D01*
X18950714Y24596429D01*
X18855476Y24548810D01*
X18474523Y24548810D01*
X19998333Y24072620D02*
X19426904Y24072620D01*
X19712619Y24072620D02*
X19712619Y25072620D01*
X19617380Y24929762D01*
X19522142Y24834524D01*
X19426904Y24786905D01*
X20903095Y25072620D02*
X20426904Y25072620D01*
X20379285Y24596429D01*
X20426904Y24644048D01*
X20522142Y24691667D01*
X20760238Y24691667D01*
X20855476Y24644048D01*
X20903095Y24596429D01*
X20950714Y24501191D01*
X20950714Y24263096D01*
X20903095Y24167858D01*
X20855476Y24120239D01*
X20760238Y24072620D01*
X20522142Y24072620D01*
X20426904Y24120239D01*
X20379285Y24167858D01*
X21903095Y24072620D02*
X21331666Y24072620D01*
X21617380Y24072620D02*
X21617380Y25072620D01*
X21522142Y24929762D01*
X21426904Y24834524D01*
X21331666Y24786905D01*
X13330952Y24072620D02*
X12997619Y24548810D01*
X12759523Y24072620D02*
X12759523Y25072620D01*
X13140476Y25072620D01*
X13235714Y25025000D01*
X13283333Y24977381D01*
X13330952Y24882143D01*
X13330952Y24739286D01*
X13283333Y24644048D01*
X13235714Y24596429D01*
X13140476Y24548810D01*
X12759523Y24548810D01*
X14283333Y24072620D02*
X13711904Y24072620D01*
X13997619Y24072620D02*
X13997619Y25072620D01*
X13902380Y24929762D01*
X13807142Y24834524D01*
X13711904Y24786905D01*
X15188095Y25072620D02*
X14711904Y25072620D01*
X14664285Y24596429D01*
X14711904Y24644048D01*
X14807142Y24691667D01*
X15045238Y24691667D01*
X15140476Y24644048D01*
X15188095Y24596429D01*
X15235714Y24501191D01*
X15235714Y24263096D01*
X15188095Y24167858D01*
X15140476Y24120239D01*
X15045238Y24072620D01*
X14807142Y24072620D01*
X14711904Y24120239D01*
X14664285Y24167858D01*
X15854761Y25072620D02*
X15950000Y25072620D01*
X16045238Y25025000D01*
X16092857Y24977381D01*
X16140476Y24882143D01*
X16188095Y24691667D01*
X16188095Y24453572D01*
X16140476Y24263096D01*
X16092857Y24167858D01*
X16045238Y24120239D01*
X15950000Y24072620D01*
X15854761Y24072620D01*
X15759523Y24120239D01*
X15711904Y24167858D01*
X15664285Y24263096D01*
X15616666Y24453572D01*
X15616666Y24691667D01*
X15664285Y24882143D01*
X15711904Y24977381D01*
X15759523Y25025000D01*
X15854761Y25072620D01*
X18488333Y115782620D02*
X18155000Y116258810D01*
X17916904Y115782620D02*
X17916904Y116782620D01*
X18297857Y116782620D01*
X18393095Y116735000D01*
X18440714Y116687381D01*
X18488333Y116592143D01*
X18488333Y116449286D01*
X18440714Y116354048D01*
X18393095Y116306429D01*
X18297857Y116258810D01*
X17916904Y116258810D01*
X19440714Y115782620D02*
X18869285Y115782620D01*
X19155000Y115782620D02*
X19155000Y116782620D01*
X19059761Y116639762D01*
X18964523Y116544524D01*
X18869285Y116496905D01*
X64430714Y94827620D02*
X64430714Y95827620D01*
X64811666Y95827620D01*
X64906904Y95780000D01*
X64954523Y95732381D01*
X65002142Y95637143D01*
X65002142Y95494286D01*
X64954523Y95399048D01*
X64906904Y95351429D01*
X64811666Y95303810D01*
X64430714Y95303810D01*
X65383095Y94875239D02*
X65525952Y94827620D01*
X65764047Y94827620D01*
X65859285Y94875239D01*
X65906904Y94922858D01*
X65954523Y95018096D01*
X65954523Y95113334D01*
X65906904Y95208572D01*
X65859285Y95256191D01*
X65764047Y95303810D01*
X65573571Y95351429D01*
X65478333Y95399048D01*
X65430714Y95446667D01*
X65383095Y95541905D01*
X65383095Y95637143D01*
X65430714Y95732381D01*
X65478333Y95780000D01*
X65573571Y95827620D01*
X65811666Y95827620D01*
X65954523Y95780000D01*
X66906904Y94827620D02*
X66335476Y94827620D01*
X66621190Y94827620D02*
X66621190Y95827620D01*
X66525952Y95684762D01*
X66430714Y95589524D01*
X66335476Y95541905D01*
X25708666Y115226929D02*
X25375333Y115226929D01*
X25375333Y114703120D02*
X25375333Y115703120D01*
X25851523Y115703120D01*
X26756285Y114703120D02*
X26184857Y114703120D01*
X26470571Y114703120D02*
X26470571Y115703120D01*
X26375333Y115560262D01*
X26280095Y115465024D01*
X26184857Y115417405D01*
X132710952Y30708358D02*
X132663333Y30660739D01*
X132520476Y30613120D01*
X132425238Y30613120D01*
X132282380Y30660739D01*
X132187142Y30755977D01*
X132139523Y30851215D01*
X132091904Y31041691D01*
X132091904Y31184548D01*
X132139523Y31375024D01*
X132187142Y31470262D01*
X132282380Y31565500D01*
X132425238Y31613120D01*
X132520476Y31613120D01*
X132663333Y31565500D01*
X132710952Y31517881D01*
X133615714Y31613120D02*
X133139523Y31613120D01*
X133091904Y31136929D01*
X133139523Y31184548D01*
X133234761Y31232167D01*
X133472857Y31232167D01*
X133568095Y31184548D01*
X133615714Y31136929D01*
X133663333Y31041691D01*
X133663333Y30803596D01*
X133615714Y30708358D01*
X133568095Y30660739D01*
X133472857Y30613120D01*
X133234761Y30613120D01*
X133139523Y30660739D01*
X133091904Y30708358D01*
X134282380Y31613120D02*
X134377619Y31613120D01*
X134472857Y31565500D01*
X134520476Y31517881D01*
X134568095Y31422643D01*
X134615714Y31232167D01*
X134615714Y30994072D01*
X134568095Y30803596D01*
X134520476Y30708358D01*
X134472857Y30660739D01*
X134377619Y30613120D01*
X134282380Y30613120D01*
X134187142Y30660739D01*
X134139523Y30708358D01*
X134091904Y30803596D01*
X134044285Y30994072D01*
X134044285Y31232167D01*
X134091904Y31422643D01*
X134139523Y31517881D01*
X134187142Y31565500D01*
X134282380Y31613120D01*
X135472857Y31279786D02*
X135472857Y30613120D01*
X135234761Y31660739D02*
X134996666Y30946453D01*
X135615714Y30946453D01*
X120645952Y30517858D02*
X120598333Y30470239D01*
X120455476Y30422620D01*
X120360238Y30422620D01*
X120217380Y30470239D01*
X120122142Y30565477D01*
X120074523Y30660715D01*
X120026904Y30851191D01*
X120026904Y30994048D01*
X120074523Y31184524D01*
X120122142Y31279762D01*
X120217380Y31375000D01*
X120360238Y31422620D01*
X120455476Y31422620D01*
X120598333Y31375000D01*
X120645952Y31327381D01*
X121550714Y31422620D02*
X121074523Y31422620D01*
X121026904Y30946429D01*
X121074523Y30994048D01*
X121169761Y31041667D01*
X121407857Y31041667D01*
X121503095Y30994048D01*
X121550714Y30946429D01*
X121598333Y30851191D01*
X121598333Y30613096D01*
X121550714Y30517858D01*
X121503095Y30470239D01*
X121407857Y30422620D01*
X121169761Y30422620D01*
X121074523Y30470239D01*
X121026904Y30517858D01*
X122217380Y31422620D02*
X122312619Y31422620D01*
X122407857Y31375000D01*
X122455476Y31327381D01*
X122503095Y31232143D01*
X122550714Y31041667D01*
X122550714Y30803572D01*
X122503095Y30613096D01*
X122455476Y30517858D01*
X122407857Y30470239D01*
X122312619Y30422620D01*
X122217380Y30422620D01*
X122122142Y30470239D01*
X122074523Y30517858D01*
X122026904Y30613096D01*
X121979285Y30803572D01*
X121979285Y31041667D01*
X122026904Y31232143D01*
X122074523Y31327381D01*
X122122142Y31375000D01*
X122217380Y31422620D01*
X122884047Y31422620D02*
X123503095Y31422620D01*
X123169761Y31041667D01*
X123312619Y31041667D01*
X123407857Y30994048D01*
X123455476Y30946429D01*
X123503095Y30851191D01*
X123503095Y30613096D01*
X123455476Y30517858D01*
X123407857Y30470239D01*
X123312619Y30422620D01*
X123026904Y30422620D01*
X122931666Y30470239D01*
X122884047Y30517858D01*
X108580952Y30517858D02*
X108533333Y30470239D01*
X108390476Y30422620D01*
X108295238Y30422620D01*
X108152380Y30470239D01*
X108057142Y30565477D01*
X108009523Y30660715D01*
X107961904Y30851191D01*
X107961904Y30994048D01*
X108009523Y31184524D01*
X108057142Y31279762D01*
X108152380Y31375000D01*
X108295238Y31422620D01*
X108390476Y31422620D01*
X108533333Y31375000D01*
X108580952Y31327381D01*
X109485714Y31422620D02*
X109009523Y31422620D01*
X108961904Y30946429D01*
X109009523Y30994048D01*
X109104761Y31041667D01*
X109342857Y31041667D01*
X109438095Y30994048D01*
X109485714Y30946429D01*
X109533333Y30851191D01*
X109533333Y30613096D01*
X109485714Y30517858D01*
X109438095Y30470239D01*
X109342857Y30422620D01*
X109104761Y30422620D01*
X109009523Y30470239D01*
X108961904Y30517858D01*
X110152380Y31422620D02*
X110247619Y31422620D01*
X110342857Y31375000D01*
X110390476Y31327381D01*
X110438095Y31232143D01*
X110485714Y31041667D01*
X110485714Y30803572D01*
X110438095Y30613096D01*
X110390476Y30517858D01*
X110342857Y30470239D01*
X110247619Y30422620D01*
X110152380Y30422620D01*
X110057142Y30470239D01*
X110009523Y30517858D01*
X109961904Y30613096D01*
X109914285Y30803572D01*
X109914285Y31041667D01*
X109961904Y31232143D01*
X110009523Y31327381D01*
X110057142Y31375000D01*
X110152380Y31422620D01*
X110866666Y31327381D02*
X110914285Y31375000D01*
X111009523Y31422620D01*
X111247619Y31422620D01*
X111342857Y31375000D01*
X111390476Y31327381D01*
X111438095Y31232143D01*
X111438095Y31136905D01*
X111390476Y30994048D01*
X110819047Y30422620D01*
X111438095Y30422620D01*
X96535952Y30517858D02*
X96488333Y30470239D01*
X96345476Y30422620D01*
X96250238Y30422620D01*
X96107380Y30470239D01*
X96012142Y30565477D01*
X95964523Y30660715D01*
X95916904Y30851191D01*
X95916904Y30994048D01*
X95964523Y31184524D01*
X96012142Y31279762D01*
X96107380Y31375000D01*
X96250238Y31422620D01*
X96345476Y31422620D01*
X96488333Y31375000D01*
X96535952Y31327381D01*
X97440714Y31422620D02*
X96964523Y31422620D01*
X96916904Y30946429D01*
X96964523Y30994048D01*
X97059761Y31041667D01*
X97297857Y31041667D01*
X97393095Y30994048D01*
X97440714Y30946429D01*
X97488333Y30851191D01*
X97488333Y30613096D01*
X97440714Y30517858D01*
X97393095Y30470239D01*
X97297857Y30422620D01*
X97059761Y30422620D01*
X96964523Y30470239D01*
X96916904Y30517858D01*
X98107380Y31422620D02*
X98202619Y31422620D01*
X98297857Y31375000D01*
X98345476Y31327381D01*
X98393095Y31232143D01*
X98440714Y31041667D01*
X98440714Y30803572D01*
X98393095Y30613096D01*
X98345476Y30517858D01*
X98297857Y30470239D01*
X98202619Y30422620D01*
X98107380Y30422620D01*
X98012142Y30470239D01*
X97964523Y30517858D01*
X97916904Y30613096D01*
X97869285Y30803572D01*
X97869285Y31041667D01*
X97916904Y31232143D01*
X97964523Y31327381D01*
X98012142Y31375000D01*
X98107380Y31422620D01*
X99393095Y30422620D02*
X98821666Y30422620D01*
X99107380Y30422620D02*
X99107380Y31422620D01*
X99012142Y31279762D01*
X98916904Y31184524D01*
X98821666Y31136905D01*
X38062142Y78920953D02*
X38109761Y78873334D01*
X38157380Y78730477D01*
X38157380Y78635239D01*
X38109761Y78492381D01*
X38014523Y78397143D01*
X37919285Y78349524D01*
X37728809Y78301905D01*
X37585952Y78301905D01*
X37395476Y78349524D01*
X37300238Y78397143D01*
X37205000Y78492381D01*
X37157380Y78635239D01*
X37157380Y78730477D01*
X37205000Y78873334D01*
X37252619Y78920953D01*
X37252619Y79301905D02*
X37205000Y79349524D01*
X37157380Y79444762D01*
X37157380Y79682858D01*
X37205000Y79778096D01*
X37252619Y79825715D01*
X37347857Y79873334D01*
X37443095Y79873334D01*
X37585952Y79825715D01*
X38157380Y79254286D01*
X38157380Y79873334D01*
X37157380Y80492381D02*
X37157380Y80587620D01*
X37205000Y80682858D01*
X37252619Y80730477D01*
X37347857Y80778096D01*
X37538333Y80825715D01*
X37776428Y80825715D01*
X37966904Y80778096D01*
X38062142Y80730477D01*
X38109761Y80682858D01*
X38157380Y80587620D01*
X38157380Y80492381D01*
X38109761Y80397143D01*
X38062142Y80349524D01*
X37966904Y80301905D01*
X37776428Y80254286D01*
X37538333Y80254286D01*
X37347857Y80301905D01*
X37252619Y80349524D01*
X37205000Y80397143D01*
X37157380Y80492381D01*
X38157380Y81778096D02*
X38157380Y81206667D01*
X38157380Y81492381D02*
X37157380Y81492381D01*
X37300238Y81397143D01*
X37395476Y81301905D01*
X37443095Y81206667D01*
%LPC*%
D13*
X96750000Y107965000D03*
X103750000Y107965000D03*
X130800000Y111805000D03*
X122200000Y111805000D03*
X82150000Y117965000D03*
X140050000Y117965000D03*
D14*
X133600000Y117965000D03*
D15*
X88600000Y117965000D03*
D16*
X112000000Y114965000D03*
D17*
X8495000Y95851500D03*
X11035000Y95851500D03*
X13575000Y95851500D03*
X16115000Y95851500D03*
D18*
X18655000Y95851500D03*
D19*
X84300000Y61672500D03*
X91920000Y54052500D03*
X86840000Y61672500D03*
X89380000Y54052500D03*
X89380000Y61672500D03*
X86840000Y54052500D03*
X91920000Y61672500D03*
D20*
X84300000Y54052500D03*
D21*
X140815000Y69610000D03*
X147165000Y65165000D03*
X140815000Y65165000D03*
X140815000Y46115000D03*
X147165000Y50560000D03*
X140815000Y50560000D03*
X84300000Y69610000D03*
X90650000Y65165000D03*
X84300000Y65165000D03*
X84300000Y46115000D03*
X90650000Y50560000D03*
X84300000Y50560000D03*
X138910000Y32780000D03*
X126845000Y32780000D03*
X114780000Y32780000D03*
X102715000Y32780000D03*
D15*
X6790000Y82715000D03*
X31790000Y82715000D03*
X6790000Y30395000D03*
X31790000Y30395000D03*
D22*
X5320000Y74325000D03*
X5320000Y38765000D03*
X5320000Y41305000D03*
X5320000Y43845000D03*
X5320000Y46385000D03*
X5320000Y48925000D03*
X5320000Y51465000D03*
X5320000Y56545000D03*
X5320000Y54005000D03*
X5320000Y61625000D03*
X5320000Y59085000D03*
X5320000Y64165000D03*
X5320000Y66705000D03*
X5320000Y71785000D03*
X5320000Y69245000D03*
X33260000Y74325000D03*
X33260000Y69245000D03*
X33260000Y71785000D03*
X33260000Y66705000D03*
X33260000Y64165000D03*
X33260000Y59085000D03*
X33260000Y61625000D03*
X33260000Y54005000D03*
X33260000Y56545000D03*
X33260000Y51465000D03*
X33260000Y48925000D03*
X33260000Y46385000D03*
X33260000Y43845000D03*
X33260000Y41305000D03*
X33260000Y38765000D03*
D23*
X26910000Y101630000D03*
D24*
X26910000Y88930000D03*
D23*
X31355000Y101630000D03*
D24*
X31355000Y88930000D03*
D25*
X133830000Y2935000D03*
X133830000Y8650000D03*
D21*
X18655000Y121950000D03*
D26*
X16155000Y121950000D03*
D27*
X100500000Y9547500D03*
D28*
X97000000Y11047500D03*
X97000000Y1347500D03*
D21*
X12585000Y4078000D03*
D26*
X15085000Y4078000D03*
D21*
X18300000Y4078000D03*
D26*
X20800000Y4078000D03*
D27*
X129075000Y9547500D03*
D28*
X125575000Y11047500D03*
X125575000Y1347500D03*
D27*
X119550000Y9547500D03*
D28*
X116050000Y11047500D03*
X116050000Y1347500D03*
D27*
X110025000Y9547500D03*
D28*
X106525000Y11047500D03*
X106525000Y1347500D03*
D29*
X131925000Y19445000D03*
X134465000Y21985000D03*
X131925000Y24525000D03*
X119860000Y19445000D03*
X122400000Y21985000D03*
X119860000Y24525000D03*
X107795000Y19445000D03*
X110335000Y21985000D03*
X107795000Y24525000D03*
X95730000Y19445000D03*
X98270000Y21985000D03*
X95730000Y24525000D03*
D19*
X140815000Y61736000D03*
X148435000Y54116000D03*
X143355000Y61736000D03*
X145895000Y54116000D03*
X145895000Y61736000D03*
X143355000Y54116000D03*
X148435000Y61736000D03*
D20*
X140815000Y54116000D03*
D19*
X96365000Y73420000D03*
X103985000Y65800000D03*
X98905000Y73420000D03*
X101445000Y65800000D03*
X101445000Y73420000D03*
X98905000Y65800000D03*
X103985000Y73420000D03*
D20*
X96365000Y65800000D03*
D19*
X96365000Y49925000D03*
X103985000Y42305000D03*
X98905000Y49925000D03*
X101445000Y42305000D03*
X101445000Y49925000D03*
X98905000Y42305000D03*
X103985000Y49925000D03*
D20*
X96365000Y42305000D03*
D19*
X40485000Y73420000D03*
X48105000Y65800000D03*
X43025000Y73420000D03*
X45565000Y65800000D03*
X45565000Y73420000D03*
X43025000Y65800000D03*
X48105000Y73420000D03*
D20*
X40485000Y65800000D03*
D19*
X40485000Y49861500D03*
X48105000Y42241500D03*
X43025000Y49861500D03*
X45565000Y42241500D03*
X45565000Y49861500D03*
X43025000Y42241500D03*
X48105000Y49861500D03*
D20*
X40485000Y42241500D03*
D19*
X37705000Y88930000D03*
X45325000Y106710000D03*
X37705000Y91470000D03*
X45325000Y104170000D03*
X37705000Y94010000D03*
X45325000Y101630000D03*
X37705000Y96550000D03*
X45325000Y99090000D03*
X37705000Y99090000D03*
X45325000Y96550000D03*
X37705000Y101630000D03*
X45325000Y94010000D03*
X37705000Y104170000D03*
X45325000Y91470000D03*
X37705000Y106710000D03*
D20*
X45325000Y88930000D03*
D30*
X78682500Y13094000D03*
D31*
X83982500Y11594000D03*
D32*
X87732500Y5094000D03*
X80232500Y5094000D03*
D33*
X83982500Y5094000D03*
D30*
X65030000Y13094000D03*
D31*
X70330000Y11594000D03*
D32*
X74080000Y5094000D03*
X66580000Y5094000D03*
D33*
X70330000Y5094000D03*
D30*
X51377500Y13094000D03*
D31*
X56677500Y11594000D03*
D32*
X60427500Y5094000D03*
X52927500Y5094000D03*
D33*
X56677500Y5094000D03*
D30*
X37725000Y13094000D03*
D31*
X43025000Y11594000D03*
D32*
X46775000Y5094000D03*
X39275000Y5094000D03*
D33*
X43025000Y5094000D03*
D34*
X32914000Y5314000D03*
D35*
X31664000Y2824000D03*
X27164000Y2824000D03*
D34*
X25904000Y5314000D03*
D29*
X124305000Y79135000D03*
X121765000Y81675000D03*
X119225000Y79135000D03*
X108430000Y81675000D03*
X110970000Y79135000D03*
X113510000Y81675000D03*
X134782500Y79135000D03*
X132242500Y81675000D03*
X129702500Y79135000D03*
X124305000Y55640000D03*
X121765000Y58180000D03*
X119225000Y55640000D03*
X108430000Y58180000D03*
X110970000Y55640000D03*
X113510000Y58180000D03*
X134782500Y55640000D03*
X132242500Y58180000D03*
X129702500Y55640000D03*
X68425000Y79135000D03*
X65885000Y81675000D03*
X63345000Y79135000D03*
X52550000Y81675000D03*
X55090000Y79135000D03*
X57630000Y81675000D03*
X78902500Y79135000D03*
X76362500Y81675000D03*
X73822500Y79135000D03*
X68425000Y55640000D03*
X65885000Y58180000D03*
X63345000Y55640000D03*
X52550000Y58180000D03*
X55090000Y55640000D03*
X57630000Y58180000D03*
X78902500Y55640000D03*
X76362500Y58180000D03*
X73822500Y55640000D03*
D23*
X121765000Y75960000D03*
D24*
X121765000Y63260000D03*
D23*
X130655000Y63260000D03*
D24*
X130655000Y75960000D03*
D23*
X135100000Y75960000D03*
D24*
X135100000Y63260000D03*
D23*
X126210000Y63260000D03*
D24*
X126210000Y75960000D03*
D23*
X112875000Y63260000D03*
D24*
X112875000Y75960000D03*
D23*
X108430000Y75960000D03*
D24*
X108430000Y63260000D03*
D23*
X117320000Y75960000D03*
D24*
X117320000Y63260000D03*
D23*
X121765000Y52465000D03*
D24*
X121765000Y39765000D03*
D23*
X130655000Y39765000D03*
D24*
X130655000Y52465000D03*
D23*
X135100000Y52465000D03*
D24*
X135100000Y39765000D03*
D23*
X126210000Y39765000D03*
D24*
X126210000Y52465000D03*
D23*
X112875000Y39765000D03*
D24*
X112875000Y52465000D03*
D23*
X108430000Y52465000D03*
D24*
X108430000Y39765000D03*
D23*
X117320000Y52465000D03*
D24*
X117320000Y39765000D03*
D23*
X65885000Y75960000D03*
D24*
X65885000Y63260000D03*
D23*
X74775000Y63260000D03*
D24*
X74775000Y75960000D03*
D23*
X79220000Y75960000D03*
D24*
X79220000Y63260000D03*
D23*
X70330000Y63260000D03*
D24*
X70330000Y75960000D03*
D23*
X56995000Y63260000D03*
D24*
X56995000Y75960000D03*
D23*
X52550000Y75960000D03*
D24*
X52550000Y63260000D03*
D23*
X61440000Y75960000D03*
D24*
X61440000Y63260000D03*
D23*
X65885000Y52465000D03*
D24*
X65885000Y39765000D03*
D23*
X74775000Y39765000D03*
D24*
X74775000Y52465000D03*
D23*
X79220000Y52465000D03*
D24*
X79220000Y39765000D03*
D23*
X70330000Y39765000D03*
D24*
X70330000Y52465000D03*
D23*
X56995000Y39765000D03*
D24*
X56995000Y52465000D03*
D23*
X52550000Y52465000D03*
D24*
X52550000Y39765000D03*
D23*
X61440000Y52465000D03*
D24*
X61440000Y39765000D03*
D23*
X138910000Y16270000D03*
D24*
X138910000Y28970000D03*
D23*
X126845000Y16143000D03*
D24*
X126845000Y28843000D03*
D23*
X114780000Y16270000D03*
D24*
X114780000Y28970000D03*
D23*
X102715000Y16270000D03*
D24*
X102715000Y28970000D03*
D23*
X27150000Y21985000D03*
D24*
X27150000Y9285000D03*
D23*
X20165000Y9285000D03*
D24*
X20165000Y21985000D03*
D23*
X14450000Y9285000D03*
D24*
X14450000Y21985000D03*
D23*
X18655000Y100995000D03*
D24*
X18655000Y113695000D03*
D21*
X55485000Y120680000D03*
X55485000Y110520000D03*
X55485000Y100360000D03*
X75805000Y105440000D03*
X75805000Y100360000D03*
D36*
X38922000Y118965500D03*
D13*
X50172000Y118965500D03*
X27672000Y118965500D03*
D37*
X132600000Y28970000D03*
X135100000Y28970000D03*
X120535000Y28843000D03*
X123035000Y28843000D03*
X108470000Y28970000D03*
X110970000Y28970000D03*
X96405000Y28970000D03*
X98905000Y28970000D03*
X37705000Y83255000D03*
X37705000Y85755000D03*
D38*
X6965000Y13000000D03*
X146965000Y13000000D03*
X146965000Y113000000D03*
X6965000Y113000000D03*
M02*
